<?xml version="1.0" encoding="UTF-8"?><svg id="Layer_1" xmlns="http://www.w3.org/2000/svg" width="520" height="520" viewBox="0 0 520 520"><defs><style>.cls-1{fill:#0056FF;}</style></defs><path class="cls-1" d="m80.33,254.55c1.63.25,3.25.61,4.81,1.14.57.19,1.15.34,1.69.56,1.93.82,3.78,1.78,5.49,2.94.76.5,1.54.99,2.29,1.51.98.62,1.87,1.42,2.6,2.33.23.29.04.41-.35.41-.39-.01-1.03-.09-1.6-.39-1.03-.5-1.95-1.13-2.94-1.67-.97-.56-1.97-1.07-2.94-1.68-1.17-.71-2.54-1.12-3.85-1.55-1.45-.48-2.91-.87-4.42-1.11-.93-.15-1.87-.27-2.81-.3-1.43-.06-2.87-.03-4.28.2-1.09.18-2.13.57-3.16.94-.23.08-.45.16-.68.22-.88.18-1.21.09-1.57-.44-.08-.11-.17-.19-.22-.28-.16-.23.03-.9.65-1.27.9-.62,1.93-.97,2.99-1.23,1.07-.27,2.18-.43,3.3-.52,1.67-.12,3.36-.06,5.02.14v.06Z"/><path class="cls-1" d="m114.26,301.54c-4.61.31-20.81-7.15-17.22-15.41l-8.88.93s-.99,1.19,1.31,5.98c2.3,4.79,8.89,7.41,8.89,7.41l15.9,1.1Z"/><path class="cls-1" d="m415.56,378.72c1.23-.11,2.48-.21,3.72-.36.45-.05.9-.16,1.35-.21,1.6-.19,3.21-.38,4.81-.57.71-.08,1.42-.21,2.12-.32.9-.15,1.8-.3,2.72-.32.57-.03-.05.73-1.07.98-1.8.4-3.6.81-5.44,1.09-1.1.16-2.22.5-3.34.75-1.23.27-2.47.51-3.72.74-.77.14-1.54.24-2.31.35-1.17.15-2.35.3-3.52.45-.91.13-1.78.39-2.69.53-.2.03-.39.07-.59.09-.75,0-.99-.17-1.17-.69-.04-.12-.09-.23-.12-.35-.08-.39.21-.75.73-.96.77-.32,1.56-.5,2.37-.59.81-.12,1.63-.18,2.45-.27,1.22-.11,2.46-.22,3.69-.38v.05Z"/><path class="cls-1" d="m406.28,400.65c1.1,1.32,2.2,2.63,3.35,3.92.41.47.89.88,1.3,1.35,1.45,1.67,2.86,3.39,4.37,5.02.68.71,1.37,1.42,2.04,2.12.88.89,1.78,1.78,2.55,2.78.24.31.06.43-.35.39-.41-.05-1.09-.21-1.69-.63-1.06-.75-2.1-1.5-3.11-2.31-.94-.88-1.85-1.79-2.71-2.77-1.02-1.18-2.3-2.17-3.38-3.33-1.21-1.26-2.38-2.55-3.55-3.85l-2.14-2.4c-1.09-1.21-2.11-2.48-3.22-3.64-.86-.91-1.82-1.69-2.67-2.59-.19-.2-.39-.37-.57-.58-.58-.85-.63-1.23-.44-1.71.05-.11.08-.23.13-.31.18-.29.69-.2,1.4.17.54.25,1,.6,1.46.94.45.35.94.68,1.35,1.08.84.78,1.65,1.62,2.46,2.46,1.21,1.24,2.33,2.56,3.47,3.86l-.05.05Z"/><path class="cls-1" d="m129.36,397.57c-1.74,1.12-3.49,2.25-5.26,3.33-.64.4-1.25.86-1.9,1.25-2.29,1.38-4.59,2.75-6.88,4.13-1.01.62-2.02,1.25-3.04,1.85-.66.38-1.29.79-1.97,1.13-.69.33-1.39.63-2.09.93-.44.18-.42.1-.15-.23.27-.32.74-.96,1.39-1.56.56-.55,1.21-.96,1.81-1.44.62-.45,1.21-.95,1.85-1.36,1.28-.84,2.57-1.67,3.9-2.46,1.59-.94,3.1-2.15,4.64-3.24,1.7-1.2,3.41-2.39,5.14-3.56l3.18-2.17c1.6-1.11,3.23-2.19,4.78-3.34,1.22-.88,2.29-1.93,3.48-2.82.26-.2.5-.42.77-.6,1.02-.68,1.49-.69,2.04-.33.13.08.27.15.37.25.35.31.16.93-.44,1.63-1.83,2-4.12,3.57-6.41,5.18-1.72,1.17-3.46,2.34-5.19,3.51l-.04-.05Z"/><path class="cls-1" d="m141.16,407.75l-1.79,3.76c-.21.46-.35.95-.56,1.41-.76,1.62-1.45,3.27-2.17,4.92-.31.73-.57,1.49-.82,2.24-.3.97-.74,1.9-1.21,2.82-.16.28-.25.21-.35-.09-.09-.3-.26-.87-.25-1.48,0-1.08.21-2.11.46-3.12.24-1.02.53-2.02,1-2.98.53-1.15.81-2.43,1.25-3.65.49-1.33,1-2.65,1.56-3.95l1.04-2.39c.51-1.21,1.07-2.41,1.52-3.63.34-.95.53-1.95.78-2.93.05-.22.13-.42.22-.62.37-.74.67-.9,1.32-.82.15.02.3.02.44.05.47.1.73.57.73,1.22-.02.47.04.99-.09,1.43-.1.45-.23.9-.37,1.34-.28.89-.62,1.76-.98,2.64-.53,1.29-1.12,2.57-1.67,3.85l-.06-.02Z"/><path class="cls-1" d="m109.71,218.97c.44,0,.91-.02,1.33-.11.23-.04.38-.09.6-.17.21-.09.43-.18.63-.3.31-.16.56-.39.84-.6.99-.73,1.91-1.77,2.88-2.78.43-.44.8-.96,1.26-1.37.57-.56,1.19-1.07,1.85-1.51.21-.14.21-.09.13.13-.08.21-.21.61-.42,1.02-.2.35-.38.71-.57,1.06-.1.17-.18.36-.28.53l-.34.47c-.46.63-.93,1.26-1.48,1.87-.69.7-1.29,1.6-2.15,2.29-.46.38-.99.69-1.52.97-.6.28-1.19.44-1.78.54-.73.11-1.46.15-2.19.09-1.1-.09-2.24-.44-3.21-1.17-.73-.57-1.43-1.41-1.58-2.38-.02-.21-.07-.41-.07-.62.02-.76.28-.97.81-1.02.12-.01.25-.03.36-.03.39.02.73.33.86.71.07.3.26.52.36.74.19.17.24.36.36.48.21.26.45.48.88.68.64.29,1.53.44,2.42.43v.05Z"/><path class="cls-1" d="m123.6,221.02c-.71-.37-1.39-.8-2.01-1.27-.22-.18-.48-.31-.69-.5-.74-.69-1.36-1.46-1.92-2.24-.25-.35-.51-.68-.77-1.01-.34-.42-.54-.94-.68-1.47-.04-.17.06-.2.27-.17.2.04.54.12.8.29l.33.24c.12.07.22.15.29.26.16.19.32.38.49.58.33.38.64.76.96,1.16.38.48.94.79,1.44,1.13.55.38,1.13.72,1.75,1,.38.17.77.33,1.17.45.61.19,1.24.35,1.88.41.5.04,1-.08,1.49-.15.11,0,.21-.03.32-.02.4,0,.53.26.63.69.02.1.05.2.07.3.05.32-.12.64-.44.88-.24.12-.49.22-.74.31-.25.05-.51.08-.77.09-.52.02-1.06-.03-1.59-.12-.78-.17-1.54-.47-2.28-.8l.02-.05Z"/><path class="cls-1" d="m188.54,182.48c-.21-.14-1.09-2.89,1.01-4.09s3.65-.14,3.93,2.05-2.65,2.94-2.65,2.94l-2.29-.9Z"/><path class="cls-1" d="m107.83,248.06c1.25,1.01,14.13-.88,15.56-8.67,1.5-8.2-6.23-8.96-6.23-8.96l-9.32,17.63Z"/><path class="cls-1" d="m153.29,224.41c-.84.75-6.37,2.26-6.32,11.29.05,7.75,5.12,5.97,5.12,5.97l1.2-17.26Z"/><path class="cls-1" d="m103.9,191.63s6.5,5.41,14.22,2.66c6.79-2.42,7.44-9.1,7.44-9.1l-22.59,5.57.94.87Z"/><path class="cls-1" d="m121.96,255.84c-.66.75,2.55,6.78,8.91,5.65,3.77-.67,6.47-4.19,5.7-5.27s-5.5-2.23-5.5-2.23l-9.1,1.85Z"/><path class="cls-1" d="m400.09,385.69c0,9.93-15.76,10.2-15.76,0,0-9.94,15.76-10.26,15.76,0Z"/><path class="cls-1" d="m348.37,424.45c-4.33-4.78-8.04-10.15-10.67-16.02-.46-1.08-1-2.12-1.41-3.22-.41-1.1-.87-2.18-1.21-3.3-2.47-7.88-3.2-16.3-1.95-24.39l.18-1.35.27-1.34c.18-.89.33-1.79.54-2.67.48-1.75.86-3.52,1.49-5.2.67-2.21,1.62-4.33,2.59-6.42l1.63-3.05c.59-.99,1.29-1.91,1.94-2.86.83-1.16.91-.88.58.33-.33,1.21-.99,3.34-2,5.7-1.77,4.19-3.22,8.49-4.12,12.92-.91,4.43-1.28,8.97-1.11,13.52.16,5.46,1.58,11.06,3.61,16.25,2.18,5.75,5.42,11.09,9.3,15.88,2.43,2.92,5.08,5.68,8.02,8.1,4.42,3.71,9.42,6.78,14.69,9.05,4.11,1.75,8.36,2.88,12.67,3.68.94.23,1.89.28,2.85.45,1.78.31,2.95.49,3.77.75.82.25,1.28.54,1.64.94.17.18.39.36.48.53.32.55-1.22.88-4,.92-1.02-.05-2.05-.16-3.09-.25-.52-.05-1.04-.09-1.56-.16l-1.56-.25c-1.04-.19-2.1-.31-3.13-.57-1.04-.25-2.07-.53-3.12-.8-4.12-1.25-8.18-2.95-12.03-5.06-5.67-3.21-10.89-7.29-15.34-12.06l.05-.06Z"/><circle class="cls-1" cx="258.43" cy="409.17" r="5.11"/><path class="cls-1" d="m151.73,383.89c.04,3.95-3.34,7.34-7.32,7.34-4.05,0-7.34-3.29-7.34-7.34,0-3.69,3.08-6.82,6.69-7.22,4.05-.45,7.71,2.84,7.96,6.87,0,.12.01.24.01.36Z"/><path class="cls-1" d="m188.02,420.32c2.04-2.28,3.92-4.72,5.59-7.29,1.66-2.58,3.11-5.31,4.34-8.13.92-2.05,1.54-4.22,2.22-6.35,1.15-3.79,1.9-7.7,2.18-11.67.3-3.96.07-7.99-.41-12-.43-3.56-1.14-7.1-2.06-10.52-1.23-4.39-2.83-8.64-5.06-12.46-.75-1.17-.62-1.16.56-.55,1.16.57,3.39,2.11,4.58,4.67,2.22,4.44,3.45,9.16,4.39,13.89.85,4.76,1.34,9.57,1.21,14.5-.13,2.94-.35,5.92-.81,8.89-.48,2.97-1.16,5.92-2.1,8.76-2.13,6.23-5.28,12.08-9.26,17.28-2.44,3.21-5.21,6.16-8.23,8.81-2.27,2.03-4.74,3.84-7.3,5.48-2.56,1.65-5.25,3.09-8.02,4.3-4.28,1.93-8.72,3.41-13.36,4.19-1.02.21-2.03.3-3.08.39-.97.1-1.78.05-2.45.04-.67-.03-1.22-.06-1.66-.2-.89-.24-1.38-.6-1.76-1.07-.17-.21-.4-.41-.49-.59-.31-.56,1.26-1.25,3.88-1.49,3.91-.45,7.82-1.2,11.68-2.37,3.85-1.2,7.61-2.85,11.17-4.91,5.27-3.06,10.13-6.98,14.18-11.64l.07.05Z"/><path class="cls-1" d="m204.59,264.5l15.08,9.61s-30.64,2.92-33.86.41c-4.98-3.87-4.72-9.01-4.72-9.01l23.5-1.01Z"/><path class="cls-1" d="m323.67,178.14c.83-.55,1.67-1.15,2.66-1.62.97-.49,1.96-.81,2.96-1.1.74-.18,1.46-.41,2.22-.5.66-.12,1.34-.12,2-.17.68.03,1.34,0,2.02.12,1.34.14,2.68.57,3.87,1.26,1.1.56,1.97,1.51,2.62,2.53.75,1.38,1.05,2.93.92,4.41-.02.46-.24.39-.51.02-.14-.18-.29-.44-.43-.73-.14-.3-.25-.64-.41-.98-.34-1.32-1.2-2.27-2.07-3.05-.91-.78-2.11-1.28-3.42-1.59-1.59-.38-3.37-.17-5.04.17-1.86.39-3.64,1.01-5.21,2.08-1,.66-1.99,1.37-2.97,2.09-1.48,1.1-2.98,2.19-4.39,3.36-1.1.9-2.1,1.89-3.14,2.83l-.7.6c-.9.72-1.25.87-1.69.76-.1-.03-.21-.04-.3-.08-.28-.13-.09-.65.46-1.32.41-.5.83-1,1.28-1.48.46-.46.94-.92,1.42-1.37.97-.9,1.99-1.77,3.03-2.62,1.53-1.28,3.14-2.48,4.79-3.65l.03.04Z"/><path class="cls-1" d="m337.9,236.95c.4-.27.71-.57,1.03-.78.16-.11.29-.23.39-.36.03-.03.04-.07.06-.09h.02s.04-.05.05-.08c.01-.02.03-.05.03-.07,0-.11-.11-.14-.18-.23-.13-.13-.45-.37-.71-.53-.28-.18-.57-.36-.87-.53-.59-.36-1.22-.68-1.85-.98-.57-.26-1.16-.47-1.74-.69-.75-.26-1.52-.52-2.24-.8-.2-.07-.2-.25.05-.44.25-.18.72-.38,1.21-.35.86.08,1.72.16,2.54.38.81.26,1.6.58,2.37.99.48.24.95.48,1.42.72.25.13.49.25.74.41l.19.12.25.18c.17.11.32.27.47.42.19.22.36.45.45.72.09.27.08.56.02.83-.09.3-.16.58-.33.88-.1.23-.26.4-.38.61-.27.38-.56.71-.88.97-.57.49-1.13.88-1.67,1.31-.81.64-1.64,1.23-2.33,1.97-.54.57-.94,1.23-1.42,1.83l-.31.4c-.41.49-.64.57-1.04.47-.09-.02-.19-.04-.27-.07-.28-.11-.33-.47-.18-.97.43-1.49,1.31-2.89,2.44-4.03.8-.88,1.78-1.58,2.61-2.23l.04.04Z"/><path class="cls-1" d="m364.98,238.12c.34-.51.51-.84.5-1.15,0-.13-.11-.25-.18-.43-.31-.68-.76-1.21-1.49-1.65-.32-.2-.7-.27-1.07-.43-.48-.17-.98-.36-1.44-.66-.14-.09-.09-.16.07-.25.17-.08.46-.24.76-.28.53-.03,1.1-.19,1.66-.04.56.11,1.2.3,1.71.75.3.26.6.52.88.8.28.28.52.55.75.92.24.4.4.94.4,1.44.01.52-.12.95-.26,1.35-.18.48-.41.9-.62,1.3-.32.62-.73,1.16-1.07,1.74-.25.45-.4.95-.6,1.43-.04.11-.11.19-.18.28-.3.31-.51.33-.93.17-.1-.04-.19-.07-.28-.11-.29-.14-.45-.44-.47-.81,0-.26-.06-.57.02-.79.06-.23.13-.46.21-.68.16-.44.36-.87.56-1.28.3-.61.77-1.11,1.04-1.62l.05.02Z"/><path class="cls-1" d="m363.63,245.44c-.75-.42,3.82-5.64,6.56-3.96,1.13.7-5.47-1.14-5.47-1.14l-1.09,5.1Z"/><path class="cls-1" d="m341.31,242.19s-9.69,4.66-11.63,11.82c-1.31,4.84-.87-6.5,4.35-11.82,3.84-3.92,4.78-1.85,4.78-1.85l2.49,1.85Z"/><path class="cls-1" d="m284.54,374.48s4.73.28,6.29-1.27c1.55-1.55-1.41-2.64-1.41-2.64l-5.51,3.93"/><path class="cls-1" d="m246.35,347.7s6.93,6.59,8.48,6.31c1.55-.28,2.53-3.39,2.53-3.39l-11.01-5.36v2.43Z"/><path class="cls-1" d="m216.27,200.54s7.08,19.48,17.38,24.39c10.29,4.91,21.19,7.37,21.19,7.37l-14.93,8.04s.63,3.26,4.78,5.44,44.53,17.53,49.19,27.74c4.65,10.21,7.77,15.3-4.22,39.92-11.99,24.62-24.53,37.62-24.53,37.62,0,0-21.33,1.15-22.69-13,0,0,7.62-28.39,22.62-44.88,0,0-5.97-3.84-13.33-6.69-7.36-2.85-53.75-17.65-62.18-32.41s-6.11-13.08-1.41-25.61,28.12-27.93,28.12-27.93Z"/><path class="cls-1" d="m219.21,277.02s20.48,10.91,32.82,12.78l4.41,9.71s-11.96,20.69-13.49,27.15l-32.61-47.66s8.68-1.45,8.87-1.98Z"/><path class="cls-1" d="m280.38,338.26s-10.45,14.62-12.99,15.47-5.47,1.13-5.47,1.13c0,0,10.27,22.3,15.21,21.46,5.49-.94,17.76-9.22,16.75-13.35-1.01-4.13-13.49-24.7-13.49-24.7Z"/><path class="cls-1" d="m335.52,150.06s-.44-3.74.62-4.65c1.06-.9-3.63-2.47-3.63-2.47l3.01,7.11Z"/><path class="cls-1" d="m399.53,125.74c15.67-1.57,17.68-22.77,8.75-29.24-4.55-3.3-9.68-4.24-18.78,0,0,0-5.52,1.47-5.24.43s-4.16-18.64-20.55-15.27c-14.46,2.97-21.66,18.34-21.66,18.34,0,0-2.75,3.72-6.54,1.16-4.4-2.96-27.28-3.06-21.24,20.78,0,0-.28,3.79,8.82,6.81,0,0,3.04,4.1.77,3.94-4.95-.35-12.12,3.56-9.91,10.12,2.32,6.88,11.88,3.73,11.88,3.73l5.29-5.74s-1.64-6.29,1.2-10.04c2.83-3.76,6.54-3.64,8.5-1.39s4,9.57,5.38,11.44c1.38,1.87,3.66,1.31,3.69-1.94s.93-9.86.93-9.86c0,0,11.97-2.52,18.07-8.39s12.62-12.49,15.06-11.17c2.44,1.32,5.37,10.72,11.82,13.83l3.75,2.47Z"/><path class="cls-1" d="m357.24,442.72c-2.38-.07-4.78-.12-7.2-.13-.88,0-1.76.09-2.64.07-3.12-.1-6.25-.26-9.35-.53-1.38-.11-2.76-.12-4.13-.14-.88-.02-1.76.04-2.64-.04-.88-.11-1.75-.18-2.61-.52-.54-.21-.44-.67.05-1.27.49-.63,1.37-1.38,2.37-1.5,1.78-.14,3.54-.08,5.31-.06.88.02,1.77.05,2.65.11.89.04,1.77.11,2.67.23,2.13.26,4.35.02,6.54-.01l7.27-.07,4.5.02c2.27.01,4.55.13,6.81.11,1.75-.06,3.47-.17,5.2-.2.38,0,.76-.04,1.14-.02,1.42.06,1.86.37,2.13,1.21.06.19.14.39.17.58.11.63-.5,1.16-1.54,1.4-1.54.31-3.12.54-4.71.73-1.59.18-3.19.13-4.8.15-2.39,0-4.78-.01-7.18-.02v-.1Z"/><path class="cls-1" d="m376.21,443.94l-4.24-.46c-.52-.05-1.04-.04-1.55-.1-1.82-.18-3.63-.47-5.45-.7-.81-.1-1.62-.14-2.42-.18-1.03-.07-2.06-.18-3.09-.41-.32-.08-.27-.25.02-.45.28-.2.8-.48,1.4-.56.53-.06,1.06-.13,1.59-.17l1.58.02c1.06.03,2.11.1,3.17.23,1.27.14,2.59.16,3.89.24l4.28.34,2.63.21c1.33.09,2.67.22,3.99.24,1.03.02,2.04-.1,3.07-.16.23-.02.44-.01.67,0,.83.08,1.09.26,1.25.79.04.12.08.24.1.36.06.4-.3.72-.92.88-.46.1-.93.26-1.4.28-.47.04-.94.06-1.41.06-.95.01-1.91-.03-2.87-.09-1.43-.08-2.86-.22-4.29-.34v-.05Z"/><path class="cls-1" d="m115.23,442.12c-2.49-.07-5-.12-7.52-.14-.92,0-1.84.09-2.76.07-3.25-.1-6.52-.26-9.76-.52-1.44-.11-2.89-.11-4.31-.14-.92-.02-1.84.04-2.76-.04-.92-.11-1.83-.18-2.73-.53-.56-.21-.46-.67.05-1.27.51-.63,1.43-1.38,2.47-1.5,1.86-.14,3.7-.08,5.55-.06,1.85.06,3.7.1,5.56.34,2.23.25,4.55.02,6.84-.02l7.59-.06,4.7.02c2.37.02,4.75.12,7.11.1,1.83-.06,3.62-.17,5.44-.2.4,0,.79-.03,1.19-.02,1.49.06,1.95.37,2.23,1.22.06.19.15.39.18.58.11.63-.52,1.16-1.6,1.4-1.61.3-3.26.54-4.92.73-1.66.18-3.34.13-5.02.15-2.5,0-5.01-.01-7.51-.02v-.1Z"/><path class="cls-1" d="m139.86,442.14l-3.97.08c-.48,0-.96.05-1.45.05-1.71-.02-3.42-.04-5.13-.07-.76,0-1.52,0-2.27,0-.97-.04-1.94-.1-2.9-.28-.3-.05-.25-.15,0-.28.26-.12.73-.33,1.28-.4,1.94-.36,3.88-.33,5.86-.32,1.18.03,2.4-.14,3.61-.22,1.33-.1,2.66-.11,3.99-.16l2.46-.08c1.24-.05,2.5-.05,3.73-.12.96-.03,1.91-.21,2.86-.18.21,0,.42-.02.63,0,.79.06,1.04.18,1.19.52.03.08.08.15.1.23.06.25-.27.46-.83.57-.84.12-1.69.38-2.56.42-.87.06-1.75.1-2.64.13-1.32.05-2.65.1-3.98.15v-.04Z"/><path class="cls-1" d="m68.66,264.89c-.36-.36-.58-.59-.7-1.22-.08-.76.28-1.32.69-1.76.62-.63,1.48-1.1,2.78-1.37.63-.14,1.37-.21,2.13-.23.38,0,.76-.01,1.15,0l.7.04c1.75.11,3.44.37,5.12.68,1.67.3,3.32.69,4.95,1.1l2.43.63c.4.1.8.21,1.18.33l.48.14h0s-.02.14-.02.14l-.03.29c-.02.19-.02.43-.04.51-.02.1.03.29.01.31.01.04.04.03,0,.03-.01,0-.02.02-.02.03-1.84,1.64-.51.45-.92.82h0s-.09-.11-.09-.11c-.06-.07-.12-.14-.18-.22-1.69-1.98-4.19-3.14-6.75-3.96-2.69-.85-5.56-1.22-8.45-1.35l-2.19-.08-1.54-.03c-.61-.01-1.23-.03-1.8-.08-1.16-.12-1.73-.44-2.17-.83-.09-.1-.23-.29-.25-.51,0-.2.08-.34.17-.52l.25-.51.12-.25c.07-.08.17-.17.25-.25l.69-.76c.25-.25.6-.47.9-.7.3-.23.61-.46.97-.66l.99-.49c1.05-.41,2.13-.76,3.23-.92,2.19-.38,4.38-.3,6.5.04,4.58.73,8.91,2.46,12.8,4.78,2.49,1.5,4.88,3.22,6.95,5.31,2.06,2.07,3.87,4.48,4.92,7.22.41,1.82.4,1.51-.73.43-.59-.52-1.34-1.28-2.32-2.11-.95-.84-1.95-1.86-3.09-2.92-3.93-3.83-8.69-6.93-13.9-8.73-2.59-.9-5.29-1.46-7.96-1.53-1.33-.02-2.64.1-3.89.42-.32.07-.62.16-.92.27l-.45.15c-.12.05-.35.17-.32.14-.12.03-.28.12-.49.21l-.12.06c-.03.07-.18.16-.27.24-.05.04-.12.11-.07.16.04.04.09.05.14.07.21.05.46.06.72.07.64.02,1.29.05,1.93.07.89.04,1.78.09,2.67.16,3.56.31,7.24.87,10.59,2.49.94.45,1.84.99,2.69,1.62.42.31.83.66,1.23,1,.2.17.4.35.59.54.09.09.19.18.28.28l.14.14.02.02h0s.05.05.12.18c.07.11.12.26.15.41.05.31-.06.61-.15.73-.1.16-.27.33-.47.42-.1.05-.19.08-.28.09h-.07s-.07.02-.07.02c-.25,0-.22,0-.32-.01-.65-.11-1.06-.19-1.56-.32l-1.43-.37-2.84-.7c-1.9-.44-3.79-.86-5.69-1.15-.95-.14-1.9-.26-2.84-.32l-.41-.02h-.33c-.22,0-.44.01-.67.04-.25.04-.5.09-.75.2-.2.11-.48.27-.5.53.08.25.37.3.59.37.47.12.98.18,1.49.25l6.09.74c1.65.23,3.31.51,4.95,1l.61.19c.22.08.35.12.67.24.56.22,1.1.48,1.57.77.97.58,1.6,1.24,2.06,2,.13.23.23.48.29.73.03.25.13.48-.03.75-.18.23-.4.28-.61.34-.22.05-.44.08-.69.1-.48.04-1.09-.02-1.75-.11-.67-.12-1.38-.3-2.08-.46l-2.99-.74c-.97-.23-1.93-.46-2.9-.64-.58-.11-1.15-.21-1.72-.28-.29-.04-.57-.07-.85-.09l-.42-.03h-.27c-.62,0-1.29.05-1.67.5-.06.08-.09.18-.15.25-.06.07-.07.2.03.27.18.12.4.17.6.21.41.08.8.12,1.16.16l2.26.29c.81.11,1.61.24,2.42.38,1.23.23,2.44.46,3.67.82,2.28.67,3.71,1.43,4.62,2.1.46.32.77.66,1.02.93.22.31.38.57.48.84.09.25.22.53.24.7,0,.57-1.33-.68-4.26-1.92-2.33-.96-4.9-1.51-7.54-1.89-.67-.09-1.33-.18-2-.27l-1.02-.13c-.56-.09-1.3-.15-1.96-.22-1.5-.11-2.4-.61-2.76-1.04-.18-.24-.33-.43-.39-.85-.03-.23-.01-.45.05-.63.07-.2.12-.43.3-.6.36-.68.88-1.18,1.68-1.56.8-.36,1.93-.56,3.15-.54.14,0,.32,0,.43,0h.25s.5.04.5.04c.33.02.66.06.98.09.65.07,1.29.17,1.92.28,1.26.21,2.5.48,3.71.79l1.78.44h0s.01,0,0,0c.02,0,.01,0,.01,0h0s.04,0-.05-.03l-.26-.1-.53-.18c-1.42-.46-2.96-.75-4.51-1-1.55-.27-3.14-.4-4.75-.51l-3.59-.3c-.9,0-1.68-.17-2.26-.35-.58-.2-.95-.44-1.21-.67l.09-.03Z"/><path class="cls-1" d="m369.47,162.6c1.25,2.86,4.37,4.78,7.48,4.71.65-.01,1.28-.56,1.25-1.25s-.55-1.27-1.25-1.25c-.16,0-.31,0-.47,0-.1,0-.38-.08-.47-.04.16.02.2.03.1.01-.05,0-.09-.01-.14-.02-.08-.01-.15-.03-.23-.05-.15-.03-.3-.07-.45-.11s-.3-.09-.44-.15c-.07-.03-.16-.04-.22-.08.24.15.07.03,0,0-.3-.14-.59-.29-.86-.47-.13-.08-.26-.17-.39-.26-.19-.14.11.1,0,0-.06-.05-.12-.1-.18-.15-.24-.2-.46-.42-.66-.66-.06-.07-.12-.14-.18-.21-.12-.15-.01.03.02.03-.07,0-.25-.36-.29-.42-.17-.28-.32-.57-.46-.87-.26-.6-1.19-.78-1.71-.45-.62.4-.73,1.07-.45,1.71h0Z"/><path class="cls-1" d="m377.24,139.24c.07,0,.14.02.21.03.13.02.1,0-.01,0,.16.01.32.05.48.07.28.04.56.09.84.14.55.1,1.11.21,1.65.34.44.1.88.22,1.32.36.16.05.33.11.49.17.04.02.08.04.13.05.13.04-.27-.13-.16-.07.05.03.12.05.17.08l.96-2.28c-1.34-.29-2.68-.05-3.72.9-.73.66-1.21,1.66-1.35,2.63-.15,1.06-.04,2.27.92,2.93.48.33,1.12.36,1.66.17.77-.28,1.31-.83,1.78-1.48s.78-1.35,1.07-2.07c.2-.5.38-1.01.51-1.53.16-.63-.2-1.39-.87-1.54s-1.37.19-1.54.87c-.09.38-.22.75-.35,1.12-.04.12-.09.24-.14.36-.02.06-.05.12-.08.18.13-.33.08-.18.05-.11-.12.27-.25.54-.4.81-.12.22-.26.42-.4.63s.2-.23.04-.05c-.04.05-.08.1-.12.14-.08.09-.17.17-.25.25-.16.16.27-.17.08-.06-.05.03-.09.06-.14.09-.04.02-.11.04-.14.07.17-.15.27-.1.11-.06-.3.08.35-.01.13,0-.26,0,.38.09.13.02-.09-.03.37.19.15.05.35.23.24.2.14.09-.05-.05.23.34.09.1s.11.35.03.08c-.01-.05-.03-.1-.04-.16,0-.03-.01-.07-.02-.1-.04-.18.03.38.03.19,0-.15-.01-.3,0-.46,0-.04,0-.08.01-.12.01-.2-.06.36-.02.17.02-.08.03-.17.05-.25.04-.17.09-.34.15-.51.09-.26-.15.32,0,0,.03-.07.07-.14.11-.2.05-.08.09-.16.15-.23.03-.04.06-.07.08-.11-.21.35-.13.17-.05.07.06-.07.13-.14.19-.2.03-.03.07-.06.1-.09.14-.13-.3.2-.07.05.08-.05.16-.1.24-.15.04-.02.09-.04.13-.06.17-.09-.35.12-.07.03.11-.03.23-.06.34-.09.05-.01.24-.04,0,0-.26.04,0,0,.05,0,.13,0,.27,0,.4,0,.12,0,.27.08-.09-.02.08.02.17.03.26.05.61.13,1.23-.13,1.47-.72.23-.55.04-1.27-.51-1.56-.78-.42-1.68-.64-2.54-.84-1.26-.3-2.55-.51-3.83-.67-.65-.08-1.28.63-1.25,1.25.03.75.55,1.16,1.25,1.25h0Z"/><path class="cls-1" d="m392.95,142.68c.07,0,.15.02.22.03.13.02.11,0,0,0,.14.01.29.04.43.06.28.04.57.09.85.14.54.1,1.09.21,1.62.34.43.1.86.22,1.28.35.17.05.33.11.49.17.03.01.07.03.1.04.13.05-.27-.13-.16-.07.06.03.12.06.18.09l.96-2.28c-1.35-.29-2.69-.05-3.72.9-.82.76-1.25,1.84-1.39,2.92-.12.97.12,2.06.97,2.63.48.32,1.13.36,1.67.16.77-.29,1.3-.83,1.78-1.49s.77-1.35,1.06-2.06c.2-.5.38-1,.51-1.52.16-.63-.2-1.39-.87-1.54s-1.37.19-1.54.87c-.1.39-.22.77-.36,1.14-.04.1-.07.19-.11.29-.02.06-.05.12-.07.18.13-.37.06-.14.02-.06-.12.27-.25.53-.39.79-.12.21-.24.42-.39.62-.06.09-.21.21.04-.05-.04.04-.08.1-.12.14-.09.1-.19.19-.29.29-.16.15.27-.17.08-.06-.05.03-.09.06-.13.08-.04.02-.1.04-.14.07.02-.02.31-.09.16-.07-.04,0-.11.02-.14.04.28-.13.37-.03.22-.03-.26,0,.38.09.14.02-.09-.03.37.19.15.05.39.25.26.21.18.13,0,0-.05-.06-.05-.05.03-.01.24.35.11.12s.11.36.03.09c-.02-.06-.03-.12-.05-.18-.07-.29.02.35,0,.1,0-.15-.01-.3,0-.45,0-.14.09-.43-.01.05.02-.08.03-.17.05-.25.04-.17.09-.33.15-.5.09-.26-.15.33,0,.01.04-.08.08-.16.12-.24s.09-.16.14-.23c.03-.04.06-.07.08-.11-.21.34-.16.19-.08.11s.14-.16.22-.23c.03-.03.07-.06.1-.09.14-.13-.3.21-.07.05.09-.06.18-.12.28-.17.04-.02.09-.04.13-.06-.31.2-.24.09-.12.05s.22-.07.34-.09c.13-.03.23.02-.13.01.07,0,.14-.01.21-.02.13,0,.27,0,.4,0,.12,0,.27.08-.09-.02.08.02.17.03.25.05.61.13,1.23-.13,1.47-.72.23-.55.04-1.27-.51-1.56-.77-.41-1.65-.64-2.5-.84-1.25-.3-2.52-.51-3.79-.66-.65-.08-1.28.63-1.25,1.25.03.75.55,1.16,1.25,1.25h0Z"/><path class="cls-1" d="m154.26,278.58c-.32-.9-.75-1.76-1.34-2.47-.24-.22-.48-.46-.72-.67-.83-.81-2.02-1.27-3.29-1.27-.56.01-1.11.17-1.6.42-.65.28-1.21.7-1.68,1.26-.15.18-.28.11-.36-.17-.08-.27-.1-.82.21-1.29.27-.41.62-.77,1.01-1.07.4-.29.86-.46,1.32-.6.46-.13.94-.21,1.42-.21.47.04.95.04,1.41.17,1.1.25,2.23.68,3.15,1.38.99.79,1.66,1.85,2.17,2.91.17.32.3.66.42,1,.14.33.25.67.34,1.02.33,1.03.47,2.1.63,3.14.12.81.33,1.61.4,2.45.02.18.05.37.06.55-.04.7-.34.88-.94.93-.12.01-.23.04-.32.04-.16,0-.28-.07-.51-.21-.25-.15-.36-.33-.44-.56-.33-1.3-.39-2.59-.63-3.9-.18-.96-.37-1.94-.75-2.82l.05-.02Z"/><path class="cls-1" d="m161.56,281.43c-.16-.83-.39-1.68-.7-2.5-.12-.3-.29-.57-.41-.87l-.16-.4c-.06-.13-.04-.12-.1-.23-.11-.16-.25-.36-.43-.55-.35-.38-.78-.72-1.25-.98-.41-.24-.88-.33-1.27-.37-.54-.03-.86.16-1.21.68-.11.15-.28.12-.43-.12-.07-.12-.15-.3-.17-.52.02-.21.02-.52.24-.75.33-.46.88-.68,1.36-.81.48-.09.97-.12,1.37,0,.84.2,1.54.58,2.16,1.1.36.32.76.59,1.13,1.03.09.09.19.25.28.38.09.14.12.2.18.31.11.2.22.39.31.59.41.88.75,1.8,1.02,2.73.17.58.3,1.17.41,1.76.18.9.23,1.83.24,2.76,0,.72.05,1.48-.16,2.24-.04.17-.08.33-.15.5-.14.29-.3.46-.49.51-.23.03-.42,0-.64-.07-.1-.03-.19-.06-.27-.09-.13-.06-.22-.18-.32-.35-.09-.17-.25-.42-.21-.58-.04-.55.02-.99-.04-1.49,0-.48.03-.97-.01-1.5-.04-.78-.14-1.6-.35-2.43l.05-.02Z"/><path class="cls-1" d="m316.79,365.83c.49-.09.98-.24,1.45-.24.48-.04.95-.08,1.37-.02.88.04,1.58.3,2.16.79.62.5.91,1.33.92,2.09.05.4-.06.77-.13,1.1-.13.35-.27.71-.56,1.09-.21.38-.6.74-.92,1.1-.16.18-.34.36-.52.54l-.43.42-1.23,1.14c-.82.75-1.65,1.48-2.48,2.2-1.22,1.05-2.4,2.14-3.66,3.14-2.22,1.76-4.49,3.46-6.85,5.04-1.18.79-2.39,1.55-3.65,2.26-1.27.68-2.54,1.39-4.05,1.81-.68.15-1.46.32-2.35.04-.33-.14-.67-.26-.98-.42-.3-.18-.61-.34-.89-.53-1.14-.76-2.07-1.69-2.93-2.63-1.11-1.22-2.06-2.54-2.96-3.87-.92-1.32-1.67-2.72-2.27-4.18-.4-.87-.23-.92.65-.51.42.22,1.05.52,1.68.98.31.23.67.47.97.76.29.31.57.64.84,1,.93,1.3,1.88,2.54,2.86,3.7.94,1.17,1.98,2.25,3.06,2.93.27.2.54.28.8.42.1.02.06.02.15.04.11-.01.18.02.32,0,.52-.03,1.24-.27,1.92-.54,1.39-.54,2.74-1.39,4.1-2.21,3.24-2.03,6.28-4.71,9.26-7.3,1.63-1.43,3.25-2.89,4.81-4.4l1.07-1.05c.16-.15.33-.31.49-.49.08-.09.16-.18.23-.28.04-.11.07-.23.08-.35.04-.25-.15-.49-.38-.53-.29-.07-.59-.04-.89.02-.15.02-.32.07-.49.11l-.89.29c-1.23.42-2.44.96-3.68,1.47-3.73,1.58-7.43,3.35-11.19,5.04-1.5.64-2.84,1.35-4.71,1.75-1.01.18-2.2-.02-3.06-.53-.89-.48-1.54-1.13-2.13-1.78-.52-.58-.96-1.16-1.36-1.79-1.45-2.32-1.28-3.26-1.06-4.02.06-.18.09-.39.16-.51.12-.22.39-.15.83.16.43.31,1.03.82,1.61,1.54.83,1.06,1.71,2.09,2.63,2.78.45.36.9.57,1.24.64.18.05.29.05.41.06.06-.01.1-.01.16,0,.08-.03.14-.03.24-.05.96-.24,2.33-.81,3.59-1.37,1.29-.57,2.61-1.19,3.94-1.82,1.97-.93,3.97-1.86,6.02-2.76,1.04-.43,2.05-.92,3.15-1.27.55-.18,1.09-.37,1.65-.54.28-.09.56-.17.85-.25.33-.08.46-.14,1.06-.26l.02.08Z"/><path class="cls-1" d="m228.63,309.31c-1.74-2.38-3.43-4.79-5.13-7.21-.62-.88-1.3-1.72-1.9-2.62-2.13-3.15-4.18-6.37-6.11-9.65-.86-1.45-1.73-2.92-2.6-4.35-1.1-1.85-2.26-3.69-2.73-5.87-.16-.67,0-.65.58-.31.36.22.76.46,1.16.71.44.31.83.74,1.19,1.24.29.46.65.87.92,1.34l.82,1.4c.53.94,1.12,1.85,1.66,2.78,1.13,1.85,2.18,3.75,3.27,5.65,1.28,2.29,2.96,4.45,4.49,6.66l5.14,7.24,3.19,4.45c1.61,2.25,3.23,4.51,4.84,6.74,1.27,1.72,2.58,3.35,3.86,5.05.28.37.56.73.83,1.12.92,1.48,1.11,2.02.88,2.62-.04.13-.06.28-.1.36-.11.27-.91-.05-1.75-1.01-.67-.68-1.24-1.44-1.85-2.19-.6-.75-1.2-1.51-1.79-2.29-1.2-1.54-2.38-3.13-3.58-4.72-1.77-2.37-3.55-4.75-5.32-7.12l.04-.04Z"/><path class="cls-1" d="m252.92,296.73c-.24-.53-.46-1.07-.69-1.61-.09-.19-.21-.38-.29-.58-.27-.73-.41-1.55-.43-2.36-.01-.36-.05-.7-.08-1.03,0-.43.03-.84.23-1.25.06-.13.29-.11.56,0,.26.1.61.3.71.52l.24.57c.06.19.07.35.1.52.05.34.09.66.11,1.02.04.44.28.85.49,1.28.21.48.44.98.68,1.47.15.3.31.61.47.9.26.45.5.91.82,1.32.23.33.56.57.84.86.06.06.12.12.17.2.08.14.11.25.06.38-.08.15-.18.28-.33.42l-.19.19c-.1.09-.22.15-.38.19-.16.04-.38.08-.49.01-.42-.14-.74-.36-1.03-.62-.3-.25-.56-.54-.75-.86-.31-.48-.58-.99-.86-1.5l.04-.03Z"/><path class="cls-1" d="m291.16,365.84c.58-.93.92-1.93,1-2.95.06-.9-.3-2.16-.71-3.32-.3-.87-.77-1.7-1.15-2.56-1.36-3.07-2.97-6.13-4.72-9.1-.75-1.34-1.57-2.65-2.39-3.92-1.11-1.61-2.1-3.32-2.83-5.19-.17-.62-.12-.56.4-.28.26.14.61.35,1.03.6.42.25.88.57,1.28.98,2.73,2.98,5.08,6.27,6.87,9.97,1.08,2.2,2.53,4.31,3.53,6.67.57,1.28,1.06,2.64,1.38,4.1.16.72.25,1.55.2,2.36l-.16,1.17c-.09.38-.22.75-.33,1.12-.63,1.8-1.78,3.29-3.04,4.53-1.94,1.88-4.24,3.24-6.56,4.37-1.81.88-3.62,1.72-5.55,2.31-.43.12-.84.26-1.28.33-1.63.31-2.21.09-2.63-.55-.1-.15-.21-.29-.27-.43-.2-.47.38-1.06,1.44-1.42.78-.32,1.56-.63,2.33-.98.78-.28,1.56-.62,2.33-.95l1.16-.51,1.13-.55c.75-.37,1.52-.74,2.22-1.17,1.09-.6,2.07-1.33,3.01-2.08.89-.79,1.69-1.64,2.27-2.58l.07.03Z"/><path class="cls-1" d="m346.21,349.77c-5.63,7.12-9.63,15.57-11.48,24.5-1.88,8.91-1.69,18.29.75,27.07l.7,2.39.87,2.34c.15.39.28.78.44,1.16l.52,1.13c.35.75.68,1.52,1.04,2.26.82,1.44,1.52,2.95,2.47,4.32.45.7.88,1.41,1.35,2.09l1.48,2c7.04,9.38,17.38,16.15,28.65,19.56,5.64,1.71,11.54,2.68,17.46,2.76,5.92.05,11.85-.71,17.56-2.29l1.9-.54.95-.27c.31-.1.62-.23.92-.35l3.68-1.42c1.2-.54,2.36-1.15,3.55-1.72,1.2-.54,2.3-1.26,3.42-1.95,2.3-1.29,4.32-2.98,6.41-4.55,1.91-1.78,3.89-3.5,5.57-5.47,4.3-5.09,7.49-11.11,9.8-17.4,2.26-6.32,3.72-12.93,4.2-19.61.19-4.15,1-3.68,1.74,0,.66,3.64.72,10.65-1.81,18.41-2.21,6.84-5.5,13.39-10,19.13-4.58,5.75-10.35,10.32-16.73,13.78-12.79,6.88-27.9,8.9-42.07,6.22-8.46-1.65-16.81-4.88-24.2-9.78-3.66-2.49-7.08-5.35-10.14-8.58-3.01-3.27-5.64-6.89-7.79-10.75-4.74-8.5-7.13-18.23-7.08-27.91.02-9.68,2.35-19.31,6.67-27.94,5.32-10.61,13.74-19.7,24.05-25.56l2.95-1.62,3.05-1.42c1-.51,2.1-.84,3.15-1.26,1.07-.36,2.16-.68,3.24-.99,4.37-1.13,8.85-1.67,13.33-1.79,8.94-.19,17.9,1.13,26.27,4.15,3.26,1.18,6.36,2.68,9.37,4.32.75.42,1.46.9,2.19,1.35.72.47,1.48.87,2.16,1.4,1.37,1.03,2.82,1.96,4.09,3.11,5.25,4.38,9.81,9.67,13.12,15.72.72,1.33,1.47,2.64,2.06,4.03.31.69.62,1.37.93,2.06.29.7.53,1.42.79,2.14,1.88,5.37,2.45,9.11,2.62,11.72.07,1.31.12,2.34.03,3.2-.1.86-.24,1.55-.43,2.15-.17.55-.33,1.27-.51,1.59-.31.53-.65-.33-.98-2.29-.08-.49-.17-1.05-.25-1.67-.12-.62-.25-1.3-.39-2.05-.15-.74-.24-1.56-.44-2.41-.19-.85-.4-1.76-.62-2.73-2.65-11.41-9.31-22.04-18.68-29.63-4.66-3.83-10.07-6.78-15.77-8.95-5.71-2.13-11.83-3.34-17.98-3.87-4.57-.37-9.18-.29-13.71.29-2.27.27-4.49.75-6.68,1.3-2.17.65-4.27,1.31-6.33,2.35-8.36,3.73-15.73,9.58-21.38,16.77l-.08-.03Z"/><path class="cls-1" d="m392.22,394.36c-3.58.24-7.21-1.19-9.37-4.07-.82-1-1.41-2.2-1.76-3.45-.52-2.21-.3-4.57.7-6.6.99-2.03,2.71-3.59,4.66-4.51,1.72-.83,3.65-1.3,5.55-1.14,1.2.16,2.45.35,3.51,1.01l.79.47.69.6c.48.37.83.87,1.18,1.34.44.6.17.64-.46.44-.33-.09-.71-.27-1.19-.42-.25-.06-.5-.13-.76-.22-.25-.09-.51-.18-.79-.24l-.7-.21c-.23-.07-.49-.06-.72-.13-.46-.14-.94-.15-1.41-.18-.47-.05-.95.06-1.42.06-.46.15-.95.1-1.4.25-1.83.46-3.65,1.43-4.81,3-.78.9-1.09,2.11-1.23,3.3l-.02.92c-.02.31.08.61.11.91.04.62.31,1.17.47,1.76,1.05,2.42,3.52,4.32,6.33,4.64,1.7.23,3.48-.06,4.94-.96,2.15-1.37,3.7-3.98,3.36-6.6-.17-2.05-1.33-3.87-2.74-5.16l-.47-.42c-.17-.12-.34-.24-.51-.37-.31-.24-.6-.38-.81-.56-.23-.14-.42-.25-.57-.39-.29-.28-.46-.49-.58-.81-.05-.14-.14-.29-.17-.42-.05-.22.12-.36.51-.44.19-.04.45-.08.75-.07.29.02.63.1,1,.2,1.07.38,2.1.98,2.99,1.76.87.81,1.54,1.81,2.08,2.88,1.07,2.15,1.36,4.79.61,7.26-.18.44-.32.92-.56,1.32l-.71,1.19c-.24.4-.59.73-.89,1.09-.16.17-.3.36-.48.52l-.55.44c-1.47,1.17-3.29,1.92-5.12,2.05v-.06Z"/><path class="cls-1" d="m271.83,380.09c-.05.39-.17.8-.42,1.18-.25.37-.56.62-.9.81-.66.39-1.59.5-2.62.42-.51-.03-1.07-.18-1.6-.27l-1.42-.4c-.64-.22-1.22-.44-1.81-.69-2.32-.98-4.49-2.13-6.61-3.35-1.55-.89-3.1-1.76-4.58-2.75-2.61-1.75-5.13-3.6-7.53-5.66-1.19-1.03-2.36-2.11-3.42-3.35-.53-.62-1.04-1.28-1.45-2.11-.11-.19-.18-.46-.27-.69-.06-.23-.08-.43-.12-.65-.05-.42-.16-.85-.13-1.27-.06-3.03.99-5.78,2.15-8.3.77-1.62,1.68-3.17,2.64-4.65.49-.74.96-1.48,1.53-2.16.56-.68,1.15-1.33,1.74-1.96.7-.77.81-.63.71.41-.07.5-.15,1.25-.37,2.06-.11.4-.21.85-.39,1.28-.19.42-.42.84-.67,1.26-.92,1.49-1.77,3-2.53,4.51-.8,1.49-1.49,3.02-1.93,4.56-.23.77-.37,1.54-.43,2.29,0,.37-.08.76-.01,1.12l.06.54.02.27c.01.07.03.11.04.17.12.48.63,1.2,1.16,1.8.53.63,1.13,1.24,1.76,1.84,3.03,2.87,6.83,5.24,10.54,7.45,2.05,1.21,4.14,2.37,6.28,3.38,1.07.51,2.15.99,3.23,1.39.27.11.54.2.82.29l.4.14.25.08c.18.06.32.1.44.13.13.04.27.06.4.09.32.04.74.12,1.02-.12.21-.31-.03-.67-.18-.96-.09-.15-.19-.3-.3-.44-.11-.15-.2-.27-.42-.51l-1.48-1.59c-3.08-3.2-6.45-6.23-9.69-9.4-.63-.62-1.26-1.24-1.87-1.91-.31-.34-.61-.68-.91-1.06-.28-.39-.62-.81-.81-1.41-.41-1.14-.39-2.24-.21-3.2.19-.96.48-1.86.83-2.72.32-.75.62-1.47,1.02-2.16,1.43-2.59,2.44-3.03,3.26-3.21.2-.03.41-.1.56-.1.25.01.28.31.18.85-.11.54-.3,1.36-.69,2.29-.6,1.36-1.13,2.77-1.47,4.13-.16.67-.28,1.35-.27,1.91-.01.55.03,1.03.14,1.13.09.21.58.83,1.05,1.34.48.53,1.02,1.08,1.57,1.63,1.11,1.09,2.28,2.19,3.46,3.29,1.76,1.64,3.53,3.3,5.29,5.06.87.89,1.77,1.76,2.58,2.79l.41.51c.16.19.33.44.5.67.34.47.63.94.91,1.41.22.47.44.93.54,1.36.1.44.13.85.09,1.25l-.08-.02Z"/><path class="cls-1" d="m263.26,413.29c-.75.77-1.7,1.34-2.76,1.67-1.05.33-2.22.32-3.25.06-.75-.19-1.49-.45-2.12-.88-2.22-1.47-3.28-4.44-2.51-6.86.34-1.05.88-2,1.6-2.77.46-.48.96-.96,1.6-1.22.62-.28,1.29-.41,1.94-.41.41.01.36.18.09.46-.27.26-.66.8-1.06,1.23-.35.4-.7.75-.99,1.14-.29.39-.52.82-.68,1.25-.29.88-.45,1.71-.3,2.61.09.54.4,1.07.81,1.49.4.43.88.8,1.4,1.07.57.3,1.19.47,1.81.46.62-.02,1.26-.21,1.84-.56.72-.43,1.34-1.09,1.71-1.86.28-.59.43-1.24.38-1.88-.05-.64-.3-1.27-.71-1.78-.63-.82-1.65-1.23-2.57-1.34-.21-.02-.4,0-.6,0-.71-.1-.94-.18-1.29-.76-.08-.13-.18-.25-.25-.38-.12-.22-.11-.44.05-.68.16-.24.47-.46.93-.6,1.37-.4,2.86.02,4.07.79,1.22.77,2.19,2.04,2.61,3.56.27,1.14.26,2.33-.06,3.41-.33,1.07-.9,2.03-1.65,2.83l-.05-.04Z"/><path class="cls-1" d="m245.7,423.61c-2.06-2.11-3.68-4.67-4.62-7.46-.95-2.79-1.25-5.76-.92-8.65l.25-1.57.12-.78.2-.77c.14-.51.27-1.02.42-1.53l.6-1.47c1.48-3.42,3.95-6.38,6.98-8.48,1.44-1.1,3.29-1.93,5.1-2.37,1.84-.39,3.7-.48,5.52-.3,3.24.29,6.38,1.37,9.11,3.1.9.51,1.69,1.22,2.5,1.88.73.75,1.49,1.49,2.06,2.4.15.22.3.43.45.66.13.23.23.48.34.72.21.49.47.96.61,1.47.28,1.03.49,2.06.38,3.12-.13.66-.22.92-.31.91-.09-.01-.21-.31-.56-.78-.2-.23-.34-.51-.54-.81-.16-.31-.49-.62-.74-.95-.46-.7-1.08-1.4-1.6-2.21-.99-1.41-2.27-2.63-3.73-3.63-1.46-1.01-3.16-1.67-4.85-2.24-1.71-.58-3.53-.8-5.31-.82-1.79-.02-3.58.32-5.13,1.07-1.92.97-3.77,2.47-5.2,4.25-1.41,1.82-2.47,3.91-3.15,6.1-1.52,4.8-.97,10.34,1.93,14.56,1.73,2.61,4.21,4.78,7.1,5.97,4.38,1.85,9.69,1.52,13.82-.83,3.23-1.81,5.55-4.86,6.53-8.24.23-.75.35-1.5.47-2.27.22-1.43.29-2.39.46-3.08.12-.34.22-.62.34-.86.14-.24.3-.44.46-.62.15-.17.27-.38.39-.49.2-.18.41.04.77.61.39.57.68,1.53.72,2.79.14,3.74-1.24,7.78-3.89,10.85-2.63,3.11-6.42,5.15-10.41,5.93-2.97.55-6.09.45-9.01-.46-1.46-.45-2.86-1.07-4.16-1.86-1.31-.79-2.47-1.77-3.52-2.83l.04-.06Z"/><path class="cls-1" d="m102.27,347.35c-11.63,14.07-16.2,33.88-11.51,51.63.47,1.6.9,3.22,1.53,4.76.54,1.58,1.27,3.08,1.96,4.6,1.51,2.97,3.17,5.87,5.21,8.51,3.5,4.72,7.8,8.85,12.65,12.23,4.88,3.33,10.27,5.91,15.92,7.69,5.65,1.76,11.56,2.82,17.52,2.88,5.94.09,11.9-.63,17.65-2.18,5.12-1.31,10.01-3.48,14.52-6.22l1.68-1.04c.28-.18.57-.34.84-.53l.79-.6,3.15-2.38c1.92-1.79,3.93-3.49,5.61-5.47,4.34-5.09,7.56-11.12,9.89-17.44,2.28-6.34,3.76-12.99,4.23-19.69.19-4.16,1-3.69,1.74,0,.66,3.65.72,10.7-1.84,18.48-2.22,6.87-5.54,13.44-10.09,19.19-4.63,5.74-10.44,10.32-16.86,13.75-12.88,6.84-28.07,8.8-42.27,6-8.49-1.71-16.85-5.01-24.23-10-3.64-2.55-7.04-5.47-10.07-8.75-3.05-3.26-5.58-6.98-7.7-10.88-4.64-8.6-6.89-18.4-6.75-28.11.13-9.73,2.63-19.37,7.11-27.96,2.76-5.28,6.24-10.21,10.42-14.46,4.17-4.26,8.96-7.91,14.16-10.78,1.95-1.14,4.02-2.03,6.07-2.97,2.1-.84,4.24-1.6,6.42-2.17,4.35-1.19,8.81-1.91,13.29-2.23,4.48-.32,8.98-.22,13.44.31,4.45.54,8.86,1.52,13.06,3.13,6.5,2.51,12.4,6.3,17.49,10.92,1.33,1.1,2.45,2.42,3.66,3.64.62.6,1.12,1.3,1.68,1.95.54.67,1.11,1.31,1.64,2,2.03,2.78,3.97,5.64,5.51,8.74.35.68.7,1.35,1.05,2.02l.91,2.07c.3.69.61,1.38.89,2.09.25.72.5,1.44.75,2.16,1.79,5.41,2.36,9.16,2.52,11.78.06,1.32.12,2.35.02,3.21-.1.86-.24,1.55-.43,2.16-.17.55-.33,1.28-.51,1.59-.31.54-.65-.33-.98-2.3-.08-.49-.17-1.05-.25-1.68-.12-.62-.25-1.31-.39-2.06-.14-.75-.24-1.56-.43-2.42-.19-.86-.4-1.77-.61-2.74-2.62-11.47-8.82-22.42-17.88-30.48-4.52-4.03-9.74-7.32-15.4-9.59-2.8-1.1-5.76-1.9-8.78-2.47-3.01-.58-6.1-.9-9.19-.99-4.59-.16-9.23.1-13.77.86-4.54.77-9.02,1.93-13.18,3.77-8.44,3.64-15.96,9.35-21.76,16.48l-.08-.03Z"/><path class="cls-1" d="m147.7,392.69c-3.58.24-7.21-1.19-9.37-4.07-.82-1-1.41-2.2-1.76-3.45-.52-2.21-.3-4.57.7-6.6.99-2.03,2.71-3.59,4.66-4.51,1.72-.83,3.65-1.3,5.55-1.14,1.2.16,2.45.35,3.51,1.01l.79.47.69.6c.48.37.83.87,1.18,1.34.44.6.17.64-.46.44-.33-.09-.71-.27-1.19-.42-.25-.06-.5-.13-.76-.22-.25-.09-.51-.18-.79-.24l-.7-.21c-.23-.07-.49-.06-.72-.13-.46-.14-.94-.15-1.41-.18-.47-.05-.95.06-1.42.06-.46.15-.95.1-1.4.25-1.83.46-3.65,1.43-4.81,3-.78.9-1.09,2.11-1.23,3.3l-.02.92c-.02.31.08.61.11.91.04.62.31,1.17.47,1.76,1.05,2.42,3.52,4.32,6.33,4.64,1.7.23,3.48-.06,4.94-.96,2.16-1.37,3.7-3.98,3.36-6.6-.17-2.05-1.33-3.87-2.74-5.16l-.47-.42c-.17-.12-.34-.24-.51-.37-.31-.24-.6-.38-.81-.56-.23-.14-.42-.25-.57-.39-.29-.28-.46-.49-.58-.81-.05-.14-.14-.29-.17-.42-.05-.22.12-.36.51-.44.19-.04.45-.08.75-.07.29.02.63.1,1,.2,1.07.38,2.1.98,2.99,1.76.87.81,1.54,1.81,2.08,2.88,1.07,2.15,1.36,4.79.61,7.26-.18.44-.32.92-.56,1.32l-.71,1.19c-.24.4-.59.73-.89,1.09-.16.17-.31.36-.48.52l-.56.44c-1.47,1.17-3.29,1.92-5.12,2.05v-.06Z"/><path class="cls-1" d="m205.37,288.98l3.88,6.04c.48.73,1.02,1.42,1.49,2.15l4.97,7.8c.74,1.15,1.54,2.27,2.35,3.36,1.06,1.39,2.07,2.82,2.82,4.42.23.5-.17.69-.82.58-.65-.11-1.58-.49-2.24-1.25-.6-.66-1.12-1.38-1.63-2.11-.52-.72-1.03-1.45-1.53-2.18-1-1.47-1.97-2.97-2.89-4.52-1.1-1.85-2.48-3.61-3.71-5.42l-4.02-6.03-2.45-3.73c-1.26-1.87-2.45-3.8-3.7-5.65-.96-1.45-2.07-2.76-3.03-4.19-.21-.32-.43-.61-.63-.94-.69-1.24-.69-1.77-.47-2.27.05-.11.09-.25.16-.33.2-.29.78.03,1.58.74,1.11,1.1,2.15,2.3,3.09,3.58.96,1.27,1.9,2.58,2.84,3.9,1.39,1.96,2.66,4.02,4.01,6.01l-.05.04Z"/><path class="cls-1" d="m190.57,276.8c-1.89-.05-3.92-.05-5.99-.33-1.04-.14-2.1-.37-3.15-.71-1.06-.38-2.12-.9-3.07-1.66-1.39-1.12-2.36-2.77-2.76-4.4l-.13-.54c-.03-.17-.11-.37-.09-.65v-1.56s-.01-.39-.01-.39c.09-.1.09-.23.15-.34l.21-.32.26-.27c.18-.17.4-.31.61-.45.24-.11.46-.24.7-.33l.74-.26.54-.13c.34-.07.67-.14,1-.2.66-.11,1.3-.19,1.94-.26,2.55-.27,5.06-.35,7.56-.42,2.22-.06,4.45-.12,6.65-.15,2.82-.07,5.67-.12,8.47.65.87.21.74.41-.01.79-.38.19-.91.45-1.55.74-.32.14-.67.31-1.03.42-.37.09-.75.17-1.15.21-.71.06-1.42.17-2.13.2l-2.13.09-4.25.18c-2.83.04-5.68.08-8.5.2-.84.04-1.69.11-2.51.24-.41.06-.82.14-1.21.23-.2.04-.39.09-.57.15l-.18.05-.1.03c-.13.05-.27.11-.35.23-.05.13,0,.28,0,.42,0,.04.03.18.06.38l.09.55c.1.34.21.68.36.99.63,1.36,1.92,2.3,3.59,2.8,1.65.52,3.54.66,5.43.73,2.39.05,4.78.09,7.17.14,3.62.06,7.26.15,10.86.08,2.79-.06,5.52-.32,8.26-.55.6-.05,1.19-.14,1.8-.18,1.13-.05,1.87-.04,2.4.09.53.15.85.38,1.12.72.12.15.28.3.36.44.13.25-.02.5-.42.76-.4.26-1.04.57-1.87.71-4.96.92-10.22,1-15.46,1.06-3.9.02-7.81-.06-11.69-.09v-.08Z"/><path class="cls-1" d="m228.27,218.18c.93.91,1.81,1.89,2.8,2.75,1.01.84,1.97,1.76,3.06,2.49.79.54,1.58,1.1,2.42,1.57,2.82,1.91,5.95,3.34,9.18,4.45.73.22,1.45.5,2.19.63.75.14,1.49.28,2.24.41.95.17,1.92.2,2.89.34.97.1,1.94.08,2.92.17.61.05.56.27.06.57-.5.28-1.47.73-2.66.9-1.04.04-2.1.09-3.17.09-1.05-.09-2.1-.24-3.15-.38-1.03-.23-2.05-.48-3.08-.75-1-.35-1.96-.78-2.94-1.19-1.14-.53-2.29-1.11-3.48-1.61-1.13-.61-2.31-1.17-3.4-1.84-2.37-1.53-4.67-3.19-6.71-5.13-1.32-1.13-2.43-2.47-3.61-3.74-.83-1.02-1.63-2.06-2.41-3.11-.7-1.11-1.48-2.16-2.15-3.28-.51-.87-1.04-1.73-1.57-2.58l-1.35-2.7c-.21-.4-.38-.8-.51-1.23-.45-1.61-.39-2.18.14-2.68.12-.11.23-.25.36-.33.43-.27,1.05.24,1.63,1.24.8,1.5,1.69,2.97,2.52,4.47.49.71.96,1.44,1.38,2.2.41.76.98,1.44,1.44,2.17.68,1.1,1.56,2.08,2.35,3.12.81,1.03,1.75,1.94,2.63,2.92l-.05.06Z"/><path class="cls-1" d="m352.95,265.86c-.96.17-1.92.33-2.87.5-.35.07-.67.22-1.02.27-1.23.2-2.48.36-3.7.59-.54.1-1.07.26-1.59.45-.66.24-1.29.6-2.07.42-.24-.05-.37-.59-.37-1.21.01-.6.13-1.4.49-1.6,1.33-.55,2.71-.94,4.21-.95.89-.02,1.72-.41,2.58-.61l2.85-.62c.59-.13,1.17-.25,1.76-.39.88-.21,1.77-.4,2.63-.68.66-.22,1.25-.64,1.9-.89.14-.06.27-.14.42-.19.56-.13.82.12,1.11.68.07.13.14.26.2.39.19.43.09.91-.23,1.32-.97,1.06-2.19,1.53-3.44,1.92-.93.27-1.89.46-2.84.68l-.02-.07Z"/><path class="cls-1" d="m394.34,253.72c-.71.13-1.28.29-2.02.51-.27.09-.51.26-.81.33-1.02.27-2.03.41-3,.62-.43.09-.84.25-1.23.43-.25.11-.52.2-.78.28-.29.02-.61-.09-.94-.19-.21-.08-.28-.38-.28-.84,0-.44.03-1.18.23-1.57.22-.21.46-.35.71-.48.26-.09.52-.17.79-.24.54-.13,1.08-.22,1.66-.24.69-.03,1.25-.42,1.85-.66.64-.27,1.46-.57,2.25-.77.48-.11.95-.23,1.43-.34.71-.18,1.42-.29,2.09-.53.52-.18,1-.47,1.5-.69.11-.05.21-.12.33-.15.43-.12.62.03.9.66.06.14.13.28.19.43.18.48.13.96-.13,1.24-.77.81-1.62,1.48-2.59,1.7-.7.22-1.43.38-2.1.58l-.03-.07Z"/><path class="cls-1" d="m373.91,256.3c.46-.06.92-.12,1.37-.22.16-.03.29-.15.45-.18.59-.08,1.23-.09,1.8-.23.26-.06.51-.12.73-.22.27-.13.54-.29.86-.26.11.01.37.19.58.51.21.31.33.84.21,1.08-.23.43-.46.78-.74,1.08-.12.17-.31.21-.49.27-.18.06-.37.09-.57.1-.48.02-.79.4-1.21.53-.46.15-.93.27-1.4.39-.29.08-.58.14-.86.23-.43.13-.87.21-1.26.42-.3.17-.55.47-.84.7-.06.05-.12.13-.19.16-.31.02-.48-.2-.76-.88l-.18-.46c-.18-.51-.22-1.01-.15-1.35.26-.89.75-1.2,1.32-1.4.41-.15.86-.24,1.3-.36l.03.07Z"/><path class="cls-1" d="m378.74,241.26c1.85.47,3.73.93,5.6,1.9.67.36,1.4.78,1.96,1.47.24.29.47.67.6,1l.35.91c.2.62.36,1.25.46,1.89.2,1.28.15,2.6-.15,3.84-.25,1.1-.67,2.15-1.19,3.12-.65,1.24-1.48,2.41-2.62,3.23-.34.27-.42.11-.35-.31.09-.4.2-1.15.55-1.8.71-1.1,1.3-2.24,1.65-3.43.37-1.18.57-2.39.48-3.63-.02-.75-.27-1.49-.55-2.22l-.26-.53-.13-.26-.12-.19c-.17-.24-.39-.46-.67-.66-1.23-.89-3.09-1.32-4.85-1.68-1.1-.22-2.23-.39-3.36-.59-1.73-.3-3.46-.6-5.18-.89-1.35-.22-2.7-.34-4.05-.71-.3-.08-.6-.13-.88-.27-1.05-.5-1.27-.93-1.27-1.45,0-.12-.01-.25,0-.35.07-.35.6-.43,1.4-.41.59.02,1.16.08,1.72.18.58.08,1.15.16,1.73.23,1.18.19,2.37.39,3.57.59,1.81.31,3.67.52,5.54.97v.06Z"/><path class="cls-1" d="m334.26,145.55c.13.64.35,1.27.64,1.88.1.23.29.4.4.62.22.38.44.78.71,1.15.24.39.52.77.82,1.14.27.32.61.57.91.86.4.36.82.69,1.16,1.15.1.15-.03.31-.29.45-.26.13-.67.26-1.01.16-1.2-.32-2.16-1.1-2.87-2.11-.21-.3-.44-.59-.68-.88-.25-.28-.49-.57-.69-.89-.45-.69-.8-1.46-1.08-2.24l-.23-.73-.17-.74c-.16-.75-.22-1.52-.25-2.27-.04-.58-.15-1.16-.18-1.76-.01-.13-.03-.26.01-.39.12-.47.31-.59.83-.58.12,0,.24,0,.35,0,.38.04.69.28.82.61.23.49.29.93.35,1.37.08.44.14.86.19,1.29.05.63.13,1.27.3,1.89l-.05.02Z"/><path class="cls-1" d="m359.32,133.93c-.77-.12-1.54-.24-2.33-.33-.29-.03-.57.02-.86-.02-1.01-.12-2.04-.35-3.06-.52-.45-.08-.91-.07-1.37-.09-.58-.03-1.18-.03-1.74-.34-.18-.1-.11-.51.09-.94.19-.43.5-.91.82-.98,1.14-.29,2.26-.2,3.43.07.7.16,1.43.07,2.16.11.8.05,1.6.13,2.4.22.5.05.99.1,1.48.16.75.07,1.5.19,2.25.21.58.02,1.18-.15,1.78-.14.13,0,.26-.03.4-.01.24.05.39.11.48.29.07.22.09.47.09.78,0,.14,0,.28,0,.4-.02.21-.09.4-.21.6-.12.2-.3.48-.47.51-1.04.48-2.01.42-3.04.34-.76-.08-1.53-.16-2.29-.23v-.07Z"/><path class="cls-1" d="m314.63,148.94c-1.43-.62-2.76-1.52-3.84-2.7-1.09-1.17-1.89-2.65-2.23-4.22-.24-1.14-.41-2.32-.18-3.45.28-2.01,1.29-3.95,2.77-5.32,1.47-1.39,3.34-2.2,5.22-2.55,1.67-.29,3.39-.38,5.02,0,.53.1,1.03.28,1.55.41.51.18.98.45,1.45.68.46.26.9.57,1.29.93.39.36.68.83,1.01,1.23.38.53.18.6-.47.58-.4,0-.83-.02-1.26-.02-.24-.01-.54.05-.79.02-.24-.03-.48-.09-.71-.17-.84-.25-1.67-.4-2.47-.58l-1.22-.14c-.41.03-.81-.05-1.22-.05-1.62-.01-3.25.37-4.68,1.18-.85.48-1.6,1.22-2.02,2.14-.28.43-.36.95-.54,1.42l-.12.77c-.05.26-.09.51-.08.77-.04,1.14.17,2.27.72,3.28.54,1.01,1.4,1.88,2.4,2.55,1.25.8,2.73,1.33,4.26,1.49,1.16.1,2.34.07,3.46-.21,1.12-.28,2.18-.81,3.12-1.51,1.48-1.1,2.63-2.58,3.86-4.06.27-.33.52-.66.81-.98,1.11-1.16,1.73-1.3,2.38-1.1.15.05.32.08.45.14.42.23.23.95-.35,1.96-.94,1.43-2.04,2.81-3.34,4.2-1.3,1.37-2.94,2.7-4.96,3.52-1.49.61-3.14.86-4.7.81-1.57-.03-3.13-.36-4.6-.95l.02-.06Z"/><path class="cls-1" d="m360.22,170.93c2.35.24,4.77-.01,7.11-.63.43-.1.85-.25,1.26-.41.41-.16.83-.3,1.24-.48,2.92-1.12,5.72-2.74,8.15-4.82,1.07-.93,2.04-1.99,2.87-3.11.53-.72,1.07-1.45,1.52-2.21.12-.19.24-.38.34-.57l.41-.54c.24-.38.52-.75.72-1.15.29-.5.36-.42.46.12.06.28.13.68.14,1.17.01.25.02.52,0,.79,0,.14-.04.28-.04.43-.05.13-.09.27-.15.4-.43.92-.89,1.85-1.46,2.67-.59.82-1.25,1.58-1.94,2.3-1.39,1.44-2.95,2.71-4.65,3.76-2.02,1.26-4.14,2.57-6.45,3.4-2.53.91-5.21,1.47-7.91,1.46-1.66.03-3.31-.2-4.93-.5-2.45-.52-4.78-1.51-6.93-2.69-1.65-.94-3.34-1.82-4.8-3.03-.33-.26-.66-.5-.98-.77-.29-.26-.5-.5-.68-.71-.16-.22-.25-.44-.32-.62-.14-.37-.14-.65-.06-.95.03-.14.05-.28.1-.39.15-.34.87-.18,1.88.31,1.3.94,2.71,1.74,4.04,2.63.68.43,1.37.83,2.06,1.24.72.35,1.41.77,2.15,1.06,2.17.96,4.48,1.6,6.85,1.78v.06Z"/><path class="cls-1" d="m363.82,146.3c-1.17-1.59-1.95-3.49-2.22-5.44-.28-1.95-.06-3.94.53-5.76.45-1.32.99-2.62,1.79-3.76,1.37-2.03,3.28-3.63,5.37-4.78,2.09-1.15,4.47-1.86,6.92-1.79,2.15.05,4.37.75,6.06,2.11,2.19,1.7,3.64,4.25,3.8,6.88.1.81-.07.73-.59.21-.32-.31-.68-.67-1.06-1.03-.22-.2-.51-.39-.73-.62-.21-.23-.39-.5-.58-.76-.38-.43-.71-.9-1.08-1.28l-.54-.6c-.18-.2-.4-.34-.6-.51-.38-.37-.86-.58-1.28-.87-.48-.18-.93-.43-1.44-.53-.99-.27-2.05-.36-3.15-.27-.55,0-1.1.15-1.66.23-.55.17-1.12.27-1.66.51-1.31.48-2.58,1.26-3.63,2.25-1.06.99-1.94,2.17-2.63,3.43-1.53,2.75-1.93,6.2-.6,9.09.76,1.79,2.15,3.31,3.79,4.47,1.22.85,2.64,1.37,4.11,1.42,1.47.06,2.95-.33,4.26-1.06,1.04-.53,1.88-1.37,2.66-2.2.72-.9,1.35-1.86,1.86-2.88.26-.43.41-.91.62-1.37.21-.42.31-.8.44-1.1.13-.3.28-.54.37-.74.2-.41.46-.62.77-.79.13-.08.26-.19.37-.24.18-.08.29.1.44.51.15.41.22,1.06.09,1.86l-.15.9-.25.88c-.15.6-.4,1.17-.65,1.76-.5,1.17-1.3,2.19-2.16,3.16-.48.45-.91.95-1.46,1.33l-.8.6-.87.51c-.57.37-1.24.58-1.86.85-.33.1-.67.19-1.01.27-.33.1-.68.17-1.03.19-2.07.3-4.27-.14-6.09-1.11-.44-.26-.91-.51-1.31-.8l-1.15-.91c-.72-.67-1.45-1.35-2.02-2.18l.05-.04Z"/><path class="cls-1" d="m398.53,135.12c-.17-.55-.42-1-.7-1.27-.12-.13-.34-.29-.54-.38-.2-.1-.4-.16-.61-.19-.83-.13-2.05.41-3.06,1.33-.75.66-1.38,1.51-2,2.36-2.19,3.05-3.71,6.78-4.25,10.59-.23,1.69-.18,3.44.23,5.04.13.51.3,1.01.52,1.48.2.48.42.94.71,1.37.27.44.6.83.95,1.22.17.2.34.4.55.57.19.19.4.37.63.51.55.41.45.5-.22.47-.34,0-.8-.08-1.4-.23-.27-.1-.6-.21-.91-.37-.28-.2-.59-.41-.85-.69-.46-.49-.88-1.03-1.22-1.61-.34-.58-.56-1.21-.74-1.83-.37-1.25-.52-2.53-.54-3.78-.03-2.51.47-4.94,1.27-7.24.99-2.73,2.12-5.56,3.97-8.01,1.04-1.31,2.25-2.59,3.98-3.39.86-.39,1.9-.61,2.93-.43,1.04.19,1.92.66,2.65,1.41.86.92,1.27,2.02,1.51,3.06.23,1.06.28,2.1.25,3.13-.14,3.12-1.12,6.1-2.72,8.74-.63,1.02-1.37,1.99-2.28,2.83-.91.84-2.02,1.54-3.27,1.92-.56.15-1.11.3-1.69.33-.54.04-.98-.02-1.35-.06-.36-.09-.64-.21-.86-.34-.42-.3-.61-.62-.72-.95-.05-.16-.12-.31-.14-.44-.02-.22.18-.36.54-.48.18-.06.4-.12.64-.18.25-.09.51-.12.8-.14,1.69-.1,3.11-.78,4.3-1.95,1.17-1.17,2.15-2.75,2.83-4.48.5-1.29.86-2.66,1.01-4.03.16-1.36.11-2.77-.27-3.86l.06-.03Z"/><path class="cls-1" d="m411.83,92c1.84,1.27,3.27,3.03,4.29,4.88,1.03,1.86,1.72,3.84,2.1,5.86.26,1.47.47,2.95.45,4.43-.13,5.2-1.94,10.38-5.47,14.14-1.55,1.67-3.38,3.08-5.38,4.1-2.56,1.31-5.46,2.03-8.29,1.87-.88-.03-.76-.37-.08-.83.34-.24.83-.48,1.4-.77.56-.3,1.21-.6,1.92-.81,2.53-.74,4.88-1.87,6.85-3.5.98-.81,1.89-1.72,2.66-2.76.78-1.02,1.48-2.13,2.03-3.33,1.35-2.87,1.64-6.31,1.29-9.51-.4-3.51-1.57-7.06-3.94-9.58-1.43-1.52-3.38-2.65-5.42-3.22-1.57-.4-3.24-.51-4.91-.35-1.67.19-3.32.65-4.91,1.25-2.48.98-4.66,2.47-6.88,3.91-.48.33-.95.66-1.44.99-.23.15-.44.29-.63.41-.21.11-.4.19-.58.27-.36.15-.65.27-.92.34-.52.15-.89.15-1.26.04-.17-.05-.36-.07-.49-.13-.41-.2.08-1.07,1.19-2.37,3.53-3.52,8.19-6.43,13.78-7.71,2.07-.44,4.3-.56,6.51-.2,2.19.36,4.38,1.19,6.16,2.5l-.04.07Z"/><path class="cls-1" d="m356.41,78.28c3.51-1.67,7.31-2.5,11.07-2.83l2.14-.11c.72.01,1.43.06,2.14.12,2.5.35,4.94,1.18,7.09,2.51,2.15,1.31,4,3.16,5.2,5.37,1.08,1.94,1.77,4.11,1.91,6.28.03.35.08.69.1,1.04l-.04,1.04c-.03.69-.05,1.39-.21,2.06-.15.67-.23,1.36-.47,2-.28.62-.56,1.24-.84,1.87-.37.76-.52.58-.66-.19-.07-.39-.16-.92-.24-1.53-.07-.62-.18-1.31-.11-2.01.17-2.5.02-4.95-.8-7.16-.81-2.21-2.28-4.08-4.13-5.65-2.25-1.92-5.46-2.68-8.5-2.81-1.66-.04-3.43.11-5.16.44-.87.12-1.72.36-2.58.54-.83.26-1.69.46-2.51.79-2.04.71-3.96,1.73-5.72,2.97-2.67,1.88-4.98,4.33-6.65,7.15-.35.53-.64,1.1-.89,1.68-.26.58-.55,1.14-.77,1.73-.41,1.2-.85,2.36-1.18,3.58-.16.53-.3,1.06-.47,1.59-.55,2-.9,2.6-1.69,2.9-.16.07-.32.18-.44.22-.34.14-.8-.85-.61-2.46.09-1.2.38-2.39.63-3.62.1-.62.32-1.21.53-1.8.22-.59.43-1.19.65-1.79,1.06-2.32,2.28-4.66,3.98-6.7,2.42-3.1,5.66-5.57,9.19-7.28l.04.06Z"/><path class="cls-1" d="m308.83,110.03c.55-4.14,2.58-7.88,5.3-10.79.53-.52,1-1.08,1.59-1.56.29-.24.56-.5.86-.72l.95-.63c2.27-1.44,5.05-2.03,7.66-1.92,2.63.1,5.09.95,7.32,2.03.5.23.98.5,1.46.77.49.25.95.54,1.42.83l1.33.81c.43.25.86.48,1.3.68,1.11.56,2.27.92,3.44,1.09.58.1,1.17.2,1.77.23.6.03,1.23.1,1.88.08.8-.01.83.28.27.96-.29.34-.73.77-1.36,1.2-.63.39-1.47.69-2.4.72-1.64-.03-3.23-.48-4.67-1.08-1.41-.61-2.73-1.57-3.71-2.18-2.13-1.35-4.41-2.39-6.8-2.89-1.43-.31-2.94-.24-4.34.18-1.41.41-2.72,1.15-3.91,2.05-.67.49-1.26,1.09-1.86,1.69-.55.66-1.12,1.3-1.6,2.02-.98,1.41-1.75,2.96-2.24,4.6-.59,2.02-.78,4.18-.45,6.29.45,3.2,1.92,6.32,4.17,8.67,1.74,1.83,3.94,3.12,6.22,3.78.51.14,1.01.24,1.52.33.93.23,1.55.31,1.99.52.44.25.71.47.96.85.11.17.26.32.34.48.13.26-.02.51-.43.78-.41.28-1.1.57-2.01.57-1.34.07-2.7-.19-3.99-.62-1.3-.43-2.54-1.05-3.69-1.8-2.29-1.54-4.24-3.61-5.67-6-2.14-3.53-3.19-7.83-2.68-12.02h.08Z"/><path class="cls-1" d="m295.83,209c4.55-7.77,9.87-15.05,16.05-21.61,2.26-2.39,4.6-4.72,7.18-6.8,2.28-1.82,4.7-3.52,7.36-4.86,2.65-1.32,5.6-2.35,8.75-2.32,1.57.02,3.16.35,4.6,1.01.36.15.7.36,1.05.54.35.24.7.49,1.03.76.62.6,1.17,1.31,1.48,2.11.65,1.59.63,3.24.42,4.74-.23,1.51-.65,2.95-1.19,4.31-1.91,4.86-4.72,9.21-7.69,13.31-1.93,2.62-3.96,5.18-6.2,7.56-2.24,2.37-4.6,4.65-7.3,6.51-1.8,1-1.56.83-.5-.55.51-.72,1.28-1.66,2.15-2.83.91-1.14,1.98-2.45,3.19-3.82,4.24-4.89,8.29-10.02,11.44-15.62,1.55-2.78,2.96-5.71,3.56-8.65.29-1.46.29-2.91-.17-4.01-.04-.15-.11-.27-.2-.39-.08-.12-.14-.25-.23-.37-.22-.19-.36-.46-.63-.61l-.36-.28-.47-.26c-.31-.19-.65-.3-.97-.45-1.6-.59-3.43-.7-5.24-.34-1.82.32-3.62,1.06-5.35,1.95-3.46,1.81-6.63,4.33-9.58,7.01-6.47,5.95-12.03,12.95-16.87,20.36-2.95,4.58-5.65,9.35-7.77,14.35-.8,1.89-1.51,3.82-2.06,5.78-.51,1.94-.97,4-.8,5.86.19,1.86,1.15,3.64,2.4,5.16,1.27,1.53,2.8,2.87,4.42,4.07,5.12,3.7,10.94,6.17,16.81,8.39,1.3.49,2.59.91,3.91,1.37,4.91,1.67,6.43,2.33,7.33,3.23.21.19.51.38.63.52.2.23-.23.26-1.22.24-.99-.01-2.48-.28-4.35-.78-5.53-1.52-11.09-3.53-16.53-6.17-2.71-1.32-5.39-2.83-7.94-4.64-1.28-.9-2.5-1.92-3.66-3.05-1.15-1.14-2.24-2.4-3.09-3.93-.62-1.14-1.1-2.4-1.32-3.76-.17-1.43-.08-2.66.1-3.86.36-2.41,1.05-4.65,1.83-6.83,1.6-4.35,3.66-8.43,5.91-12.38l.06.02Z"/><path class="cls-1" d="m356.44,245.78c2.79.57,5.66,1.11,8.55,1.96,1.05.34,2.14.59,3.17,1.13,1.82.87,3.63,2.31,4.56,4.24.97,1.92,1.12,4.04.89,5.97-.19,1.74-.66,3.41-1.29,4.98-.39,1.02-.93,1.97-1.51,2.89-.6.92-1.42,1.69-2.31,2.33-.56.39-.59.19-.41-.4.23-.56.4-1.65.85-2.68.24-.43.42-.9.64-1.34l.53-1.39c.35-.92.67-1.85.88-2.79.43-1.88.53-3.8.04-5.54-.08-.25-.21-.49-.31-.74-.06-.12-.1-.25-.17-.37l-.24-.33c-.17-.21-.31-.45-.5-.65l-.63-.55c-.19-.2-.45-.33-.7-.47l-.74-.43c-.57-.22-1.11-.47-1.69-.67-2.56-.88-5.4-1.36-8.24-1.86-1.75-.3-3.52-.65-5.28-1.01-2.68-.57-5.35-1.34-7.92-2.38-1.01-.36-1.97-.85-2.96-1.29-.5-.22-.94-.53-1.42-.79-.47-.28-.96-.53-1.38-.89-.38-.3-.78-.57-1.16-.89-.37-.27-.6-.58-.76-.86-.17-.27-.29-.5-.37-.71-.15-.42-.11-.76.06-1.12.08-.17.14-.35.23-.48.32-.44,1.17-.24,2.12.43,2.69,2.1,5.79,3.65,9.29,4.75,2.59.81,5.34,1.39,8.17,1.88v.08Z"/><path class="cls-1" d="m368.88,260.29c-.11.84-.28,1.68-.49,2.5-.09.3-.1.61-.2.9-.4,1.03-.91,2.01-1.51,2.91-.26.4-.51.81-.81,1.18-.38.47-.8.93-1.37,1.2-.17.09-.29-.1-.35-.39-.05-.29-.09-.69.06-.95l.34-.72c.1-.25.18-.49.33-.7.12-.23.25-.45.38-.67.12-.23.25-.46.4-.69.32-.57.39-1.26.52-1.91.17-.71.3-1.45.38-2.2.05-.46.08-.93.09-1.4,0-.71,0-1.43-.14-2.13-.08-.55-.31-1.05-.48-1.57-.03-.11-.1-.22-.13-.34-.08-.44.12-.63.56-.84.1-.05.2-.11.31-.15.34-.13.7-.03,1,.26.4.44.62.96.84,1.48.1.26.19.54.26.81.05.28.07.56.09.85.07.84.02,1.7-.04,2.56h-.06Z"/><path class="cls-1" d="m364.94,261.97c-.2.76-.43,1.51-.73,2.23-.11.26-.14.55-.28.8-.43.91-1.07,1.7-1.71,2.46-.28.33-.55.68-.88.98-.4.39-.85.78-1.43.9-.18.04-.29-.22-.33-.55-.04-.34-.06-.75.08-.95l.37-.57c.11-.2.21-.4.37-.55.13-.18.27-.36.43-.53.14-.19.29-.37.45-.55.38-.45.51-1.06.73-1.61.23-.62.46-1.25.6-1.9.11-.4.17-.81.22-1.22.04-.31.05-.63.07-.94,0-.31-.02-.63-.04-.94-.07-.48-.27-.92-.45-1.34-.04-.09-.04-.2-.06-.3-.01-.39.11-.56.43-.78.08-.05.14-.11.22-.15.24-.14.53-.07.85.17.21.19.53.37.63.62.13.24.27.49.36.74.18.51.36,1.05.35,1.6.03.81-.09,1.61-.22,2.39h-.06Z"/><path class="cls-1" d="m351.27,258.93c1.41.14,2.87-.03,4.34-.28l.4-.08.58-.14c.48-.11,1-.27,1.44-.25.18,0,.33.05.48.09.15.05.28.13.38.29l.02.03h0s0,0,0,0c.02-.03-.05.07.05-.07h0s0,0,0,0h0s0,.02,0,.02l.03.05.06.11.12.22c.07.15.17.27.22.45.07.32.17.62.22.95.06.37.08.55.1.76.04.42.05.85.04,1.29-.02.87-.15,1.74-.41,2.55-.29.94-.67,1.83-1.1,2.66-.26.55-.6,1.04-.97,1.51-.2.22-.37.47-.61.65-.25.17-.51.34-.77.5-.33.19-.49-.02-.59-.5-.05-.24-.1-.55-.13-.89-.01-.17-.03-.35-.02-.52.03-.15.07-.3.14-.44.46-.98,1-1.83,1.38-2.72.39-.89.62-1.77.73-2.76.03-.32.02-.64-.03-.98,0-.08-.03-.17-.04-.25-.02-.09,0-.07-.01-.12l-.04-.17c-.03-.09-.01-.27-.15-.23l-.32.04h-.1s-.2.04-.2.04l-.59.1c-.4.06-.8.12-1.21.16-.81.09-1.63.13-2.45.14-1.01.01-2.03-.07-3.03-.25-1.52-.27-2.99-.85-4.33-1.6-1.04-.58-2.06-1.21-2.96-2.02-.21-.17-.38-.36-.55-.57-.62-.77-.6-1.17-.27-1.63.08-.11.15-.23.24-.32.29-.3.83-.21,1.34.18.81.53,1.5,1.11,2.23,1.64.73.52,1.5.98,2.32,1.34,1.22.53,2.57.87,3.99.95v.06Z"/><path class="cls-1" d="m384.4,253.61c-.16.58-.36,1.13-.58,1.67-.08.19-.1.41-.2.59-.33.67-.69,1.3-1.11,1.88-.18.26-.31.55-.46.82-.16.36-.41.68-.75.95-.11.08-.27-.03-.43-.24-.15-.2-.34-.52-.32-.75.01-.43.15-.78.3-1.13.16-.35.29-.69.55-1,.29-.37.36-.85.51-1.28.16-.48.33-.95.45-1.45.08-.3.14-.61.18-.92.08-.46.15-.94.1-1.42-.05-.37-.2-.71-.28-1.06-.02-.08-.05-.15-.06-.23.03-.31.15-.43.47-.57.07-.03.14-.07.21-.09.23-.08.48,0,.71.19.19.15.3.31.41.49.1.18.21.35.29.54.12.38.18.78.21,1.19.04.6,0,1.22-.14,1.8h-.05Z"/><path class="cls-1" d="m380.56,254.43c-.06.49-.16.99-.28,1.48-.04.18-.03.37-.1.54-.24.62-.56,1.19-.9,1.72-.16.24-.3.45-.45.69-.18.29-.38.58-.7.76-.1.06-.25-.08-.39-.29-.14-.2-.29-.49-.25-.66.06-.3.12-.58.18-.89.07-.28.24-.5.4-.75.21-.3.18-.68.23-1.03.09-.38.15-.79.19-1.2.02-.26.04-.52.04-.78,0-.4-.02-.8-.07-1.2-.05-.31-.22-.6-.33-.9-.02-.07-.07-.13-.05-.2.05-.27.19-.38.55-.5l.24-.08c.27-.07.54,0,.77.15.4.22.49.5.66.78.13.29.27.58.31.9.05.47.03.97,0,1.46h-.05Z"/><path class="cls-1" d="m359.16,230.45c1.85.63,3.66,1.4,5.44,2.25.65.31,1.32.59,1.94.96.28.16.55.34.82.51l.41.26.55.37c.44.29.79.61,1.16.91.22.14.28.32.39.49l.29.49c.04.08.11.16.11.25-.04.09-.08.15-.12.22l-.26.41c-.11.14-.16.32-.35.48-.17.16-.4.32-.63.46-.26.12-.53.24-.71.38-.1.06-.22.15-.28.2l-.17.13c-.22.18-.44.36-.64.56-.73.69-1.34,1.52-1.75,2.42-.27.58-.45,1.19-.59,1.8-.17.61-.34,1.23-.49,1.88-.1.4-.44.37-.83,0-.39-.37-.86-1.15-.82-2.07.21-1.6.9-3.15,1.86-4.43.48-.65,1.05-1.22,1.65-1.72l.23-.19.12-.09s.01,0,.02,0l.11-.03.31-.1c.06-.03.2-.06.19-.11-.02-.04-.05-.09-.09-.13-.08-.09-.19-.17-.31-.24l-.12-.08-.27-.15-.55-.3c-.36-.21-.75-.38-1.11-.57-1.64-.84-3.35-1.61-5.11-2.27l-1.64-.59-1.66-.52c-1.69-.49-3.41-.95-5.14-1.24-1.35-.23-2.7-.24-4.04-.35-.3-.02-.59-.01-.89-.05-1.1-.12-1.43-.34-1.6-1.01-.04-.15-.09-.3-.11-.45-.06-.5.44-.85,1.29-.92,2.51-.26,5.12.08,7.71.6.96.19,1.91.44,2.87.68.95.28,1.9.53,2.84.84l-.02.06Z"/><path class="cls-1" d="m348.78,199.2c-1.29,2.18-2.75,4.2-4.15,6.22-.51.74-.96,1.51-1.48,2.24-1.81,2.58-3.6,5.13-4.97,7.89-.61,1.23-1.06,2.53-1.37,3.83-.42,1.68-.67,3.38-.83,5.13-.06.54-.33.5-.65.04-.33-.46-.74-1.37-.76-2.47,0-.97.05-1.94.22-2.9.2-.95.46-1.88.79-2.78.65-1.81,1.51-3.51,2.53-5.1,1.23-1.89,2.38-3.89,3.61-5.78,1.36-2.07,2.75-4.11,4.03-6.19.79-1.28,1.55-2.57,2.2-3.92,1-2.03,1.86-4.14,2.38-6.32.22-.84.32-1.7.44-2.55l.2-2.57c.03-.38.03-.75.08-1.12.05-.35.07-.64.11-.89.05-.24.15-.44.23-.6.17-.32.38-.5.65-.65.13-.07.25-.15.36-.19.37-.13.72.48.98,1.58.47,3.27-.2,6.77-1.28,10.08-.82,2.47-1.99,4.8-3.24,7.02l-.06-.03Z"/><path class="cls-1" d="m183.31,238.38c.1-1.82.49-3.61,1.07-5.3.28-.87.65-1.62,1-2.4l1.07-2.31c.83-1.47,1.64-2.95,2.55-4.36l1.43-2.07.71-1.04.78-.98c4.11-5.28,8.95-9.86,14.09-13.97,1.86-1.53,3.81-2.93,5.73-4.36.97-.7,1.97-1.36,2.96-2.04.98-.68,1.98-1.34,3.01-1.96,14.33-8.91,29.83-15.57,45.67-20.96,7.03-2.38,14.17-4.6,21.29-6.49,4.57-1.23,9.19-2.37,13.85-3.26,4.66-.9,9.37-1.67,14.15-1.72,2.99.19,2.57.17.15.96-1.24.39-2.94.92-4.96,1.56-2.05.59-4.46,1.17-7.1,1.73-18.68,3.96-36.99,9.78-54.83,17.08-10.64,4.45-21.31,10.09-30.97,16.78-5.31,3.66-10.37,7.7-14.89,12.26-1.15,1.12-2.18,2.35-3.27,3.52-1.04,1.21-2.01,2.49-3.01,3.73-.88,1.33-1.85,2.61-2.66,3.97l-1.18,2.07c-.19.35-.41.68-.58,1.04l-.5,1.08c-.39.89-.85,1.77-1.2,2.66-.34.88-.62,1.78-.81,2.69-.39,1.83-.45,3.72-.17,5.57.58,3.72,2.5,7.2,4.94,10.22,3.74,4.6,8.55,8.36,13.58,11.67,5.04,3.32,10.38,6.19,15.8,8.81,8.44,4.06,17.02,7.35,25.71,10.58,1.92.7,3.8,1.39,5.73,2.1,1.79.67,3.27,1.24,4.5,1.75,1.23.52,2.19,1.01,2.98,1.42,1.59.81,2.43,1.48,3.05,2.12.29.29.69.61.84.8.53.59-2.57,0-7.9-1.69-15.66-5.44-32.27-11.51-47.74-20.48-5.71-3.36-11.27-7.16-16.15-11.97-2.42-2.41-4.65-5.13-6.31-8.29-1.68-3.13-2.69-6.82-2.48-10.53h.08Z"/><path class="cls-1" d="m269.25,344.32c3.77-4.45,7.21-9.3,10.46-14.23,3.22-4.96,6.22-10.06,8.9-15.32,1.95-3.84,3.63-7.8,5.12-11.81,1.3-3.53,2.4-7.13,3.07-10.79.18-.91.26-1.83.4-2.74.05-.91.16-1.83.15-2.74.05-1.86-.22-3.53-.74-5.23-1.18-3.35-3.43-6.37-6.12-8.95-2.68-2.6-5.73-4.87-8.91-6.94-5.67-3.66-11.8-6.7-17.89-9.58-3.92-1.85-7.9-3.61-11.84-5.49-1.97-.94-3.92-1.93-5.85-2.98-.96-.53-1.92-1.08-2.85-1.66-.93-.6-1.81-1.28-2.65-2.01-1.03-.94-1.38-1.45-1.28-1.5.12-.08.71.28,1.77.74,2.16.88,6.04,2.35,10.55,4.43,7.99,3.73,16.19,7.22,24.11,11.46,3.95,2.13,7.84,4.45,11.53,7.15,1.82,1.38,3.63,2.8,5.28,4.44,1.66,1.62,3.23,3.38,4.5,5.41,1.54,2.39,2.72,5.16,3.07,8.13.32,2.92.09,5.76-.33,8.57-.89,5.6-2.71,10.96-4.86,16.06-2.38,5.61-5.2,11-8.26,16.23-3.07,5.23-6.39,10.3-9.97,15.2-2.21,3.01-4.51,5.95-7.1,8.73-.66.69-1.32,1.37-2.09,2.02-.37.33-.79.64-1.32.95-.73.38-1.13.36-1.64.48-1.98.37-3.98.31-5.9,0-2.91-.5-5.69-1.53-8.23-2.98-2.51-1.47-4.87-3.29-6.71-5.62l-.67-.89c-.21-.3-.4-.63-.6-.95l-.29-.48c-.09-.19-.18-.42-.27-.63-.17-.43-.2-.84-.27-1.25-.13-1.6.13-3.05.43-4.47.33-1.41.74-2.78,1.19-4.12.46-1.34,1.03-2.63,1.53-3.95,3.28-8.09,7.19-15.69,11.63-23.07.98-1.63,1.96-3.2,3.01-4.8,1.96-2.96,3.48-4.76,4.58-5.99,1.12-1.22,1.88-1.82,2.6-2.21.33-.18.72-.44.95-.51.77-.22-.83,2.16-3.59,6.45-4.13,6.35-8.07,13.08-11.59,20.14-1.76,3.52-3.43,7.12-4.87,10.79-.38.91-.7,1.84-.94,2.79-.24.95-.56,1.87-.81,2.8-.51,1.83-.9,3.75-.91,5.31,0,.54.12,1.03.16,1.12.34.53.64,1.09,1.07,1.59.77,1.05,1.74,1.99,2.78,2.86,1.03.89,2.2,1.62,3.38,2.32,1.22.64,2.46,1.26,3.76,1.67.64.25,1.31.38,1.96.58.66.11,1.32.3,1.98.34,1.33.19,2.63.13,3.88-.05l.46-.09.23-.04.12-.02h.06s.03-.02.03-.02h.01s0,0,0,0c-.25-.92.35,1.26.28,1.01-.04-.23-.1-.46-.17-.68-.04-.11-.07-.22-.12-.33-.02-.06,0-.02-.02-.03,0,0,0,0,0,.02l.3-.21c.43-.31.95-.8,1.44-1.28.99-1,1.97-2.07,2.91-3.21l.07.04Z"/><path class="cls-1" d="m253.5,230.93c2.43-1.01,4.89-1.98,7.37-2.87.9-.34,1.79-.72,2.7-1.02,3.23-1.04,6.51-1.92,9.81-2.7,1.47-.32,2.94-.64,4.4-.96.93-.21,1.87-.4,2.82-.54.95-.13,1.92-.15,2.87-.19.6-.01.54.15.08.46-.46.3-1.3.83-2.33,1.21-3.7,1.06-7.34,2.16-11.1,3.06-2.26.54-4.47,1.52-6.69,2.32-2.44.9-4.87,1.86-7.28,2.89-1.48.64-2.96,1.27-4.41,1.97-2.21,1.03-4.43,2.09-6.54,3.27-.83.45-1.62.95-2.4,1.46l-2.37,1.48c-.35.22-.67.46-1.04.64-1.36.7-1.88.78-2.47.41-.13-.08-.28-.14-.38-.23-.33-.27,0-.97.87-1.72,1.27-1.17,2.71-2.11,4.19-3.08,1.5-.91,3.08-1.73,4.66-2.55,2.37-1.19,4.79-2.3,7.22-3.37l.03.06Z"/><path class="cls-1" d="m255.12,382.68l-4.83-3.63c-.59-.44-1.23-.81-1.81-1.26-2.05-1.58-4.01-3.29-6.05-4.89-.91-.7-1.82-1.41-2.74-2.08-.58-.44-1.2-.84-1.76-1.32-.55-.49-1.07-1.03-1.57-1.57-.31-.35-.13-.49.36-.51.49-.01,1.35,0,2.16.31.36.13.69.31,1.01.5l.97.56c.65.38,1.28.76,1.92,1.16,1.24.83,2.4,1.78,3.55,2.75,1.37,1.18,3,2.1,4.48,3.19l4.88,3.59c1.01.73,2.01,1.47,3.03,2.18,1.54,1.08,3.07,2.19,4.66,3.17,1.24.75,2.53,1.37,3.8,2.04.28.15.57.26.83.45.49.32.77.6.91.9.15.28.17.55.12.87-.02.15-.02.3-.06.42-.12.41-.74.51-1.67.35-1.32-.32-2.5-.95-3.71-1.56-1.21-.61-2.35-1.36-3.5-2.1-1.7-1.11-3.36-2.3-5.02-3.46l.04-.06Z"/><path class="cls-1" d="m314.17,385.12c-1.42.85-2.85,1.71-4.25,2.6-.51.33-.99.71-1.5,1.03-1.83,1.13-3.67,2.24-5.52,3.34-.82.49-1.61,1.03-2.4,1.56-.51.33-.99.7-1.53,1-.53.3-1.09.57-1.66.8-.36.14-.46-.12-.36-.57.1-.44.38-1.09.9-1.55,1.9-1.56,3.9-2.96,6.03-4.25,1.3-.73,2.48-1.74,3.73-2.62,1.37-.96,2.76-1.9,4.16-2.84l2.6-1.71c1.33-.84,2.66-1.69,3.98-2.53,1.02-.67,1.93-1.48,2.99-2.09.23-.14.44-.3.68-.43.91-.46,1.29-.41,1.75.08.1.11.22.21.3.33.27.38.1.96-.44,1.43-.81.68-1.61,1.41-2.5,2.01-.89.6-1.81,1.2-2.74,1.8-1.39.89-2.79,1.79-4.19,2.68l-.04-.05Z"/><path class="cls-1" d="m347.57,314.21c-4,3.63-7.99,7.27-11.92,10.97-1.44,1.34-2.81,2.76-4.24,4.11-5.06,4.75-10.06,9.56-14.99,14.45-2.2,2.16-4.29,4.44-6.38,6.67-1.32,1.45-2.59,2.95-3.97,4.35l-2.04,2.12c-.67.72-1.5,1.3-2.24,1.95-.97.78-.95.57-.54-.44.23-.58.52-1.31.85-2.12.4-.84.98-1.73,1.68-2.63,2.51-3.16,5.33-6.04,8.09-8.98,2.8-2.9,5.64-5.78,8.63-8.52,3.56-3.3,7.06-6.93,10.64-10.36,3.94-3.77,7.94-7.48,11.94-11.17,2.47-2.27,4.95-4.53,7.42-6.8,3.74-3.43,7.55-6.83,11.23-10.27,2.83-2.7,5.62-5.35,8.42-8.02.62-.59,1.22-1.17,1.86-1.74.59-.53,1.09-.97,1.52-1.32.44-.34.83-.58,1.15-.77.65-.38,1.1-.52,1.53-.55.2-.01.43-.07.57-.04.47.06-.24,1.22-1.74,3.03-2.37,2.54-4.86,5.08-7.42,7.61-2.56,2.54-5.28,4.98-7.96,7.47-4,3.67-8.03,7.37-12.04,11.05l-.05-.05Z"/><path class="cls-1" d="m178.87,195.7c-1.11.33-2.18.74-3.31.98l-1.67.41c-.56.12-1.13.2-1.7.31-.41.07-.82.16-1.23.25-.41.06-.83.12-1.25.16-1.47.19-2.95.17-4.42.2-1.47-.08-2.94-.14-4.4-.38-.65-.07-1.29-.15-1.93-.29-.64-.11-1.29-.21-1.92-.35l-2.41-.67c-.4-.12-.77-.32-1.13-.54-.36-.21-.72-.43-1.07-.65-.44-.29-.27-.48.26-.64.26-.08.62-.16,1.03-.22.2-.03.42-.06.64-.07.11,0,.22,0,.34-.01.1.02.21.05.32.08,3.07.74,6.15,1.33,9.38,1.62,1.93.2,3.95-.11,5.91-.37,1.08-.18,2.16-.37,3.23-.6,1.06-.29,2.14-.5,3.17-.88.64-.22,1.29-.41,1.92-.65l1.88-.77c.95-.4,1.85-.89,2.78-1.34.89-.51,1.78-1.03,2.63-1.59.64-.47,1.26-.96,1.86-1.46l1.75-1.55c.27-.22.5-.46.75-.7.96-.84,1.42-.96,1.94-.83.12.03.26.05.36.09.33.15.16.74-.39,1.59-.42.63-.9,1.2-1.43,1.75-.54.53-1.03,1.14-1.65,1.61-.61.47-1.24.93-1.87,1.39-.64.44-1.33.83-2,1.24-.99.62-2.07,1.08-3.1,1.61-1.07.46-2.15.92-3.24,1.32l-.02-.05Z"/><path class="cls-1" d="m103,188.68c4.23-1.47,8.51-2.01,12.62-2.73,4.11-.69,8.14-1.49,11.68-3.24,2.58-1.26,4.75-3.13,6.48-5.36,1.49-1.98,2.57-4.4,3.77-6.87.61-1.23,1.27-2.48,2.09-3.67.38-.61.88-1.17,1.34-1.74.54-.52,1.04-1.08,1.68-1.5.59-.48,1.27-.82,1.95-1.16.33-.18.7-.26,1.06-.39.36-.11.71-.27,1.07-.31.73-.11,1.45-.3,2.17-.28.72-.03,1.44-.07,2.17.01,2.91.21,5.61,1.39,7.96,2.87,4.19,2.66,7.52,6.27,11.23,9.1,2.4,1.8,4.98,3.37,7.79,4.25,1.39.45,2.82.78,4.28.87.73.02,1.46.06,2.19-.02.74,0,1.47-.11,2.23-.15,1.91-.11,1.65-.25.19.59-.74.39-1.84.96-3.3,1.21-1.45.27-3.24.29-5.1-.12-3.29-.78-6.22-2.44-8.83-4.33-2.65-1.89-4.93-4.12-7.26-6.09-2.33-1.99-4.75-3.83-7.44-4.89-1.34-.54-2.72-.88-4.13-.97-.7-.08-1.42.01-2.13.03-.36,0-.69.11-1.04.16-.34.06-.7.1-1.01.24-1.58.45-2.95,1.4-4.04,2.74-1.1,1.33-1.93,2.98-2.73,4.7-.81,1.72-1.58,3.54-2.58,5.31-.5.89-1.06,1.76-1.7,2.58-.7.76-1.32,1.6-2.1,2.28-3.36,3.1-7.64,4.89-11.84,5.88-4.21,1.05-8.44,1.57-12.51,2.46-2.51.53-4.94,1.26-7.24,2.23l-1.69.8-1.58.98c-1.06.62-1.88,1.44-2.51,2.39-.46.72-.76,1.5-.83,2.3-.02.4-.01.8.09,1.19.03.2.11.39.18.58.08.18.18.31.26.47.38.58,1.11.97,1.97,1.24.85.27,1.82.41,2.8.56.98.14,1.99.31,3,.6,1.01.26,2.04.76,2.9,1.5.2.2.42.39.61.6l.49.7c.18.23.27.49.39.74.11.26.23.49.32.79.33,1.3,0,2.37-.27,3.36-.46,1.54-1.07,2.93-1.53,4.3-.45,1.34-.68,2.8-.1,3.46.53.72,2.11,1.05,3.3.9,1.25-.14,2.45-.75,3.52-1.59.95-.74,1.77-1.64,2.55-2.63,2.79-3.79,3.71-5.11,4.85-5.69.24-.15.5-.37.66-.44.28-.12.25.3.07,1.23-.07.48-.27,1.04-.54,1.71-.28.66-.61,1.43-1.08,2.25-1.49,2.36-3.22,4.75-5.94,6.46-1.34.84-3.03,1.44-4.8,1.38-.9-.06-1.71-.11-2.6-.43-.88-.29-1.95-.95-2.56-2.06-.61-1.11-.63-2.24-.53-3.14.1-.91.32-1.69.55-2.43.23-.74.49-1.43.73-2.09.28-.65.55-1.27.76-1.87.22-.58.39-1.16.43-1.57.02-.2,0-.34,0-.41-.09-.22-.18-.45-.25-.69-.41-.84-1.14-1.36-2.25-1.73-.79-.29-1.77-.43-2.79-.6-1.02-.17-2.13-.24-3.35-.56-.3-.06-.62-.16-.95-.29-.32-.11-.65-.24-.99-.45-.34-.19-.67-.38-.97-.7-.31-.29-.62-.58-.83-.96-.51-.77-.71-1.38-.89-2.12-.15-.73-.2-1.49-.11-2.22.16-1.48.79-2.79,1.58-3.85.78-1.05,1.78-1.99,2.79-2.62.98-.63,1.95-1.3,3-1.76.52-.25,1.03-.53,1.55-.74l1.59-.61.04.07Z"/><path class="cls-1" d="m128.94,219.02c1.11-1.3,1.77-3.27,2.28-5.29l.47-2.27c.67-2.67,1.35-5.43,2.58-8.01.29-.56.52-1.16.86-1.69.33-.54.59-1.13,1.01-1.61.89-1.35,2.13-2.52,3.62-3.19.45-.23.49-.04.33.43-.17.47-.46,1.26-.93,1.95-.47.57-.94,1.12-1.3,1.76-.41.6-.76,1.24-1.13,1.87-.67,1.31-1.27,2.68-1.76,4.16-.63,1.75-.85,3.71-1.24,5.64-.45,2.11-.92,4.31-2.02,6.39-.31.65-.79,1.23-1.24,1.81-.29.27-.59.55-.91.78-.35.18-.69.42-1.06.53-1.13.44-2.31.4-3.38.2-1.09-.19-2.1-.57-3.05-1.03-1.48-.71-2.91-1.54-4.06-2.77-.27-.25-.5-.55-.73-.85-.78-1.19-.68-1.79-.29-2.22.09-.1.18-.22.28-.29.36-.24.84.11,1.43.67.84.87,1.83,1.61,2.87,2.27,1.02.69,2.14,1.28,3.27,1.61.83.24,1.67.34,2.37.23.16-.05.32-.1.49-.13.15-.07.28-.15.44-.22.26-.19.51-.37.78-.76l.05.03Z"/><path class="cls-1" d="m150.35,208.7c-.98-.18-1.94-.41-2.88-.68-.35-.09-.7-.12-1.04-.24-.6-.2-1.18-.46-1.76-.7-.57-.28-1.12-.58-1.66-.9-.48-.27-.99-.5-1.47-.77-.29-.2-.59-.4-.86-.62-.27-.23-.51-.51-.73-.8-.13-.19.04-.36.36-.5.32-.13.81-.31,1.18-.23,1.39.14,2.42.73,3.6,1.34.68.43,1.5.53,2.27.74.85.23,1.72.44,2.6.59.54.09,1.09.18,1.64.21.83.07,1.68.1,2.5,0,.64-.08,1.24-.32,1.82-.53.13-.05.26-.1.38-.15.48-.13.69.02.98.58.07.13.14.26.2.39.19.44.09.89-.28,1.19-.55.44-1.18.71-1.83.94-.65.22-1.33.38-2.01.38-1.01.03-2.02-.06-3.02-.18v-.07Z"/><path class="cls-1" d="m103.71,257c.16-.82.39-1.63.63-2.43l.69-2.41.82-2.36c.26-.79.55-1.57.88-2.34.47-1.12.81-2.29,1.36-3.37.46-.96.9-1.94,1.39-2.88l1.5-2.82c1.07-1.83,2.14-3.67,3.28-5.45.98-1.6,1.96-3.21,2.93-4.79,1.28-2.01,2.38-4.16,4.14-5.85.54-.54.61-.37.55.34-.03.35-.08.85-.15,1.45-.11.57-.34,1.17-.66,1.77-2.44,4.19-5,8.26-7.46,12.43-.77,1.23-1.4,2.57-2.07,3.89-.62,1.35-1.21,2.72-1.79,4.07-.59,1.51-1.25,3-1.74,4.54-.26.77-.54,1.53-.78,2.31l-.65,2.35c-.29.96-.48,1.94-.69,2.92-.2.98-.44,1.95-.54,2.95-.19,1.5-.46,3-.52,4.52l-.15,2.27c-.04.76,0,1.51,0,2.27-.02,2.35.43,4.62.62,6.92.08.5.18.99.25,1.5.07.95.08,1.58,0,2.04-.11.46-.25.74-.44.98-.08.11-.16.25-.23.31-.13.11-.27-.01-.49-.33-.21-.32-.52-.84-.71-1.53-1.36-4.09-1.54-8.67-1.38-13.21l.16-2.53c.05-.84.21-1.68.31-2.52.13-.84.2-1.68.38-2.51l.51-2.49h.06Z"/><path class="cls-1" d="m138.91,271.07c1.09-1.93,1.76-4.02,1.76-6.19,0-1.11-.12-2.12-.45-3.1-.35-.98-.89-1.9-1.57-2.73-1.01-1.21-2.33-2.17-3.77-2.84-1.26-.61-2.64-.98-3.99-1-.34,0-.66.03-1.01.06l-1.09.19c-.73.11-1.44.36-2.16.55-2.81.96-5.45,2.53-7.59,4.68-1.92,1.89-3.5,4.15-4.76,6.55-.4.77-.79,1.55-1.11,2.36-.36.79-.67,1.61-.97,2.43-.68,1.62-1.17,3.3-1.89,4.93-.45,1.02-.58.85-.71-.16-.06-.5-.19-1.23-.16-2.07.06-.84.15-1.82.43-2.85,1.14-3.56,2.8-7.02,5.07-10.11,1.19-1.51,2.49-2.95,4.01-4.17,1.52-1.21,3.17-2.28,4.98-3.03,1.08-.45,2.18-.85,3.33-1.15.56-.19,1.15-.26,1.73-.39.56-.13,1.22-.2,1.86-.23,1.28-.05,2.53.19,3.72.55,1.19.37,2.31.91,3.32,1.61,1.12.76,2.13,1.67,2.98,2.73.84,1.07,1.51,2.29,1.94,3.6.23.65.34,1.34.45,2.02.07.66.1,1.33.08,2-.04,1.33-.26,2.66-.65,3.93-.96,3.14-2.9,5.76-4.83,8.1l-.78.95c-.19.24-.39.48-.56.75-.16.27-.34.56-.34.89,0,.16.07.34.23.37.15.03.31-.02.45-.06.59-.21,1.15-.53,1.74-.8.96-.46,2.11-.96,3.23-1.31,1.76-.56,3.67-.88,5.59-.59.94.15,1.9.41,2.81.94.88.53,1.64,1.25,2.21,2.15.49.79.87,1.73.81,2.83-.05,1.02-.51,1.84-.97,2.32-.46.53-.93.74-1.31.92-.39.12-.71.17-.98.17-.27-.03-.5-.1-.7-.2-.19-.09-.41-.17-.52-.29-.19-.19-.04-.48.34-.83.38-.33.93-.84,1.3-1.37.27-.4.33-.78.26-1.24-.08-.45-.34-.96-.71-1.41-.37-.45-.85-.84-1.36-1.1l-.38-.16-.47-.14c-.32-.08-.64-.15-.97-.18-1.32-.16-2.71.04-4.12.49-.7.22-1.41.5-2.11.82l-.53.25-.81.4c-.37.2-.74.37-1.12.61-.38.23-.77.48-1.14.62l-.42.18-.38.12-.38.12-.32.04c-.44.07-.74,0-1.05-.05-.28-.09-.53-.17-.79-.38-.28-.18-.61-.57-.76-.92-.18-.35-.23-.71-.26-1.06-.04-.35.02-.72.1-1.12.05-.2.14-.42.21-.63.09-.22.21-.45.32-.68.27-.47.59-.95.95-1.43.17-.24.36-.48.55-.72l.28-.36.24-.29.59-.71c.38-.47.76-.93,1.12-1.39.72-.93,1.35-1.87,1.9-2.85l.06.03Z"/><path class="cls-1" d="m146.41,260.66l-.07-4.27c0-.52-.06-1.04-.05-1.56.03-1.83.07-3.66.22-5.49.04-.81.08-1.62.12-2.43.04-.52.04-1.04.11-1.55.09-.51.23-1.02.35-1.53.09-.31.14-.26.24.02.09.28.3.8.4,1.39.12.53.04,1.04.06,1.56v1.56c.01,1.04.03,2.08-.04,3.13-.08,1.26.06,2.56.11,3.85.06,1.41.13,2.83.22,4.24.06.87.11,1.74.19,2.61.12,1.32.22,2.64.42,3.94.16,1.01.43,1.98.61,2.98.04.22.1.43.14.65.12.82.03,1.1-.43,1.35-.1.06-.21.12-.31.16-.36.13-.72-.16-.93-.75-.31-.87-.57-1.78-.77-2.71-.16-.94-.26-1.89-.35-2.85-.13-1.43-.2-2.86-.27-4.3h.04Z"/><path class="cls-1" d="m150.76,247.77c.11-2.8.26-5.6.42-8.39.05-1.02.06-2.04.13-3.06.27-3.58.54-7.16.81-10.74.12-1.59.19-3.19.25-4.76.09-2.03.05-4.07.57-6.07.15-.63.26-.54.48.01.14.35.29.74.45,1.13.15.47.23,1.01.26,1.6-.02,4.15-.26,8.27-.61,12.43-.23,2.49-.21,5.08-.29,7.63-.09,2.8-.18,5.6-.23,8.4-.02,1.72-.05,3.45-.04,5.17.02,2.61.04,5.23.19,7.81.14,2.01.43,3.96.71,5.93.06.43.14.85.18,1.29.14,1.62.03,2.16-.5,2.58-.12.09-.23.21-.34.27-.36.2-.85-.41-1.16-1.6-.24-.88-.47-1.78-.59-2.69-.14-.91-.29-1.84-.38-2.77-.21-1.87-.33-3.77-.41-5.67-.11-2.83-.03-5.67.03-8.5h.06Z"/><path class="cls-1" d="m351.77,130s-.02.03-.03.1l-.05.87c-.02.6-.02,1.22-.03,1.85,0,1.25-.05,2.53-.12,3.82-.04.65-.09,1.3-.16,1.96-.04.33-.08.67-.13,1.01l-.11.65-.19.82c-.3,1.07-.8,1.95-1.68,2.33-.91.32-1.96.19-2.83-.29-.64-.36-1.16-.98-1.6-1.63-.1-.16-.2-.33-.29-.5l-.19-.38c-.12-.25-.21-.48-.31-.72-.36-.96-.6-1.87-.83-2.76-.39-1.57-.77-3.07-1.36-4.39-.59-1.32-1.41-2.37-2.57-2.85-1.16-.48-2.68-.52-3.84.06-1.2.57-2.16,1.67-2.73,2.98-1.08,2.35-.66,5.16.79,7.23.93,1.35,2.26,2.39,3.73,3.12.74.36,1.5.68,2.31.88.8.18,1.61.58,2.49.66,1.09.19,1.02.34.07.86-.48.29-1.2.58-2.18.91-.96.2-2.13.12-3.29-.3-1.05-.33-2.02-.89-2.89-1.57-.89-.66-1.66-1.47-2.35-2.35-1.33-1.79-2.17-4.05-2.13-6.36.03-2.3.83-4.49,2.3-6.28.75-.88,1.71-1.62,2.8-2.1,1.09-.46,2.29-.65,3.43-.59,1.33.07,2.78.5,3.92,1.37,1.15.86,1.93,2.02,2.51,3.16,1.13,2.29,1.63,4.66,2.32,6.73l.29.81c.05.14.1.26.15.38l.07.17.04.08c.11.21.23.39.44.52.19.09.49.19.64-.02.13-.19.2-.42.25-.66l.05-.3.06-.44.09-.9c.05-.61.09-1.23.12-1.85l.14-3.78c.04-.79.07-1.57.14-2.4.06-.56.13-1.18.39-1.67.13-.26.39-.39.64-.5.24-.12.52-.21.81-.28l1.22-.32c.37-.09.74-.2,1.11-.32.73-.24,1.47-.44,2.19-.72,4.38-1.54,8.61-3.66,12.34-6.38,2.91-2.12,5.43-4.6,7.8-7.23.51-.59,1.01-1.17,1.52-1.77.48-.55.87-1.01,1.22-1.38.36-.36.69-.62.96-.84.28-.21.52-.35.76-.45.26-.08.5-.11.73-.13.21-.02.43-.09.56-.09.38-.06.26,1.4-1.01,3.22-3.88,5.3-9.17,10.15-15.32,13.66-2.29,1.3-4.67,2.41-7.13,3.36-1.23.46-2.47.9-3.73,1.27-.62.22-1.25.39-1.88.56-.45.13-.31.08-.35.09-.01,0-.03,0-.04.03l-.06-.04Z"/><path class="cls-1" d="m392.94,119.44c1.14,1.32,2.33,2.65,3.75,3.67.49.42,1.09.67,1.62,1.03.46.33.96.61,1.46.88.5.28,1,.56,1.53.78,1.03.52,2.14.9,3.25,1.26.5.14,1.02.23,1.53.33.51.09,1.02.21,1.54.26,1.33.16,2.66.31,4.01.68.42.12.37.33,0,.63-.36.28-1.05.76-1.87.95-.18.04-.36.08-.55.11l-.55.02-1.1.03c-.37,0-.74.02-1.1,0-.37,0-.73-.1-1.1-.15-.73-.12-1.46-.26-2.17-.49-.71-.22-1.43-.42-2.1-.76-.41-.19-.83-.35-1.25-.52-.42-.17-.83-.38-1.25-.56-.85-.34-1.66-.78-2.45-1.25-1.7-1.07-3.26-2.35-4.62-3.8-.88-.85-1.6-1.83-2.36-2.76-1.09-1.46-2.07-2.99-3.04-4.49-.78-1.15-1.57-2.27-2.31-3.43-.16-.26-.32-.51-.45-.78-.46-1.03-.34-1.49.08-1.96.1-.11.19-.23.29-.32.34-.29.91-.06,1.56.51,1.72,1.79,3.08,3.82,4.44,5.83,1,1.51,2.09,2.91,3.25,4.25l-.06.06Z"/><path class="cls-1" d="m336.1,242.46c-1.04.79-1.92,1.8-2.75,2.85-.28.4-.48.85-.77,1.26-.92,1.47-1.77,3.05-2.32,4.76-.23.76-.38,1.55-.5,2.33-.16,1.01-.2,2.01-.63,3.04-.12.32-.24.28-.47,0-.11-.14-.27-.34-.43-.59-.08-.12-.17-.26-.25-.41-.04-.07-.07-.15-.12-.23-.01-.08-.03-.15-.03-.23-.2-2.24.25-4.52,1.2-6.58.57-1.23.99-2.58,1.73-3.77.75-1.33,1.75-2.52,2.78-3.63.69-.65,1.37-1.29,2.14-1.84,1.13-.88,2.42-1.5,3.68-2.13.51-.21.99-.45,1.49-.7.5-.22,1.02-.41,1.54-.61.23-.09.45-.18.7-.23.9-.13,1.22.07,1.47.71.06.15.12.29.16.43.12.46-.18.99-.71,1.28-1.59.79-3.19,1.28-4.68,2.15-1.1.63-2.19,1.32-3.17,2.19l-.05-.05Z"/><path class="cls-1" d="m333.68,232.9c-1.38-.51-2.8-.98-4.25-1.39-.53-.15-1.08-.22-1.61-.38-1.88-.52-3.77-1.12-5.67-1.73-.84-.28-1.7-.5-2.55-.77-.54-.18-1.08-.41-1.6-.66l-.39-.19c-.12-.09-.23-.2-.34-.3-.21-.21-.42-.42-.64-.64-.25-.28-.11-.38.29-.48.27-.06.54-.13.78-.19.15-.03.31-.07.47-.09.08-.02.15,0,.24-.04.07.01.15.02.22.04.53.11,1,.28,1.55.36.53.12,1.01.33,1.54.46,1.04.32,2.11.64,3.18,1.03,1.29.45,2.7.65,4.06.99,1.5.39,3,.8,4.48,1.31.92.28,1.82.65,2.73.97l2.02.88c.65.35,1.32.65,1.97,1,.5.28,1.01.53,1.53.78.5.29.97.62,1.45.95.22.14.42.29.6.48.69.68.76,1.04.49,1.55-.06.12-.11.24-.19.34-.24.32-.79.33-1.35.04-.78-.5-1.7-.81-2.47-1.29-.83-.42-1.63-.91-2.51-1.3-1.27-.63-2.64-1.17-4.03-1.66l.02-.06Z"/><path class="cls-1" d="m186.84,303.49l-4.64-6.65-2.34-3.3-1.18-1.63-1.11-1.52s-.03-.04-.05-.05c-.03-.01-.01-.02-.15-.06-.23-.08-.53-.16-.84-.22-.62-.14-1.3-.24-1.98-.33-1.36-.18-2.76-.31-4.17-.41-2.81-.21-5.65-.34-8.48-.48-5.68-.25-11.37-.38-17.07-.48-6.13-.05-12.26-.11-18.39-.16-6.44-.07-12.88-.11-19.32-.11l-9.66.04-4.82.06-2.4.05-.6.02c-.14.02-.36-.04-.38.15-.07.2-.07.41-.05.62l.02.16.07.31c.06.23.12.45.2.68.31.92.77,1.83,1.3,2.69,1.08,1.73,2.45,3.32,4.05,4.55.8.61,1.65,1.15,2.55,1.51.45.19.91.33,1.37.43.23.06.46.08.7.12l.79.07c2.16.18,4.34.35,6.52.49,9.56.65,19.2.99,28.7,1.1,6.11.08,12.22,0,18.33-.18l4.58-.18c1.53-.06,3.04-.21,4.57-.24,1.53-.03,3.04-.16,4.56-.26.76-.06,1.52-.08,2.29-.12l2.27-.21c3.79-.31,3.32-.16.18.71-1.57.46-3.81,1.06-6.57,1.61-2.75.57-6,1.06-9.55,1.21-12.56.73-25.11.66-37.65.1-6.29-.28-12.52-.63-18.86-1.17-.38-.03-.86-.09-1.34-.18-.47-.1-.92-.22-1.36-.38-.88-.31-1.7-.71-2.46-1.18-1.53-.93-2.82-2.1-3.96-3.37-1.14-1.28-2.11-2.69-2.91-4.23-.39-.78-.74-1.59-1-2.47-.06-.22-.12-.45-.17-.68-.06-.23-.11-.64-.15-.96-.05-.68-.03-1.37.17-1.96.06-.23.17-.44.26-.67.1-.15.21-.28.32-.42h.01s.18.16.11.07l.03-.02.05-.03.1-.06.21-.11c.26-.18.63-.27.99-.37l1.22-.06.77-.02c.94-.02,1.89-.04,2.83-.06,1.89-.03,3.78-.06,5.68-.09,3.8-.05,7.62-.09,11.45-.14,7.66-.08,15.37-.13,23.01-.07,7.61.04,15.22.27,22.83.56,3.81.16,7.62.33,11.43.64,1.91.15,3.81.32,5.73.56.96.12,1.92.26,2.9.45.49.1.98.2,1.5.36.45.13,1.27.42,1.73,1l1.61,2.2,1.53,2.14c6.05,8.52,11.95,17.13,17.87,25.72,8.91,13.05,17.86,26.16,26.7,39.12,6.9,10.06,13.66,19.92,20.48,29.86,1.49,2.2,2.95,4.35,4.45,6.56,5.48,8.28,7.04,11.04,7.55,13.24.12.5.34,1.12.36,1.44.1,1.07-2.57-2.02-6.64-8.03-12.17-17.78-24.99-36.52-37.86-55.33-9.56-13.98-19.16-28.03-28.88-41.94l.04-.06Z"/><path class="cls-1" d="m191.39,345.3l-11.85,10.33c-1.44,1.26-2.84,2.56-4.3,3.8-5.15,4.36-10.36,8.64-15.68,12.79-2.35,1.86-4.71,3.73-7.03,5.57-3.02,2.33-6.04,4.72-9.46,6.47-1.05.57-1.03.32-.42-.56.31-.44.75-1.04,1.31-1.74.28-.34.57-.74.92-1.09.36-.35.75-.69,1.18-1.03,2.97-2.48,6.06-4.8,9.1-7.2,3.04-2.4,6.09-4.8,9.16-7.22,3.68-2.88,7.24-6.21,10.83-9.38l11.78-10.53,7.23-6.52c3.65-3.29,7.36-6.55,10.97-9.84,2.81-2.55,5.47-5.17,8.23-7.71.6-.57,1.18-1.14,1.81-1.68,2.32-2.05,3.23-2.5,4.27-2.28.22.03.46,0,.61.05.25.07.18.37-.04.98-.2.63-.77,1.32-1.57,2.11-4.77,4.7-10,9.4-15.24,14.16-3.92,3.52-7.85,7.05-11.77,10.57l-.05-.05Z"/><path class="cls-1" d="m382.63,309.86c.77,6.3,1.57,12.61,2.41,18.91l1.01,6.88c1.06,8.11,2.07,16.22,3.05,24.34.45,3.6.97,7.21,1.51,10.77.36,2.29.65,4.59.91,6.89.29,2.3.34,4.63.46,6.95.05,1.45-.23,1.29-.79.13-.28-.58-.64-1.4-1.04-2.41-.2-.5-.4-1.05-.6-1.63-.1-.29-.18-.59-.3-.9-.07-.31-.14-.63-.21-.96l-.69-3.48-.34-1.74-.26-1.75c-.34-2.33-.68-4.67-1.03-7.01-.66-4.68-1.28-9.37-1.81-14.11-.6-5.66-1.62-11.5-2.42-17.27-.85-6.35-1.71-12.7-2.56-19.05-.5-3.91-1-7.83-1.5-11.74-.74-5.93-1.47-11.89-2.2-17.77-.59-4.57-1.34-9.04-1.97-13.56-.14-.99-.31-1.97-.42-2.97-.25-1.86-.18-3.11-.11-3.99.05-.44.13-.79.24-1.09.14-.3.31-.54.48-.76.16-.2.29-.45.41-.57.34-.39,1.33,1.05,1.85,3.75,1.49,8.01,2.45,16.51,3.56,25.04.81,6.34,1.62,12.71,2.43,19.06l-.08.02Z"/><path class="cls-1" d="m156.28,179.67c.73.9,1.71,1.62,2.66,2.27,1.17.8,2.42,1.47,3.74,1.98,1.11.43,2.37.76,3.56.5,1.3-.29,2.03-1.39,2.12-2.67.16-2.28-1.09-4.67-2.56-6.33-.4-.46-1.18-.41-1.59,0-.45.45-.4,1.13,0,1.59.6.69,1.11,1.49,1.43,2.35.17.44.3.9.39,1.36.02.08.03.16.05.25.04.2-.02-.26,0,.06.01.14.02.28.02.42,0,.13,0,.25-.02.38.01-.24,0-.06-.02.07-.01.04-.03.09-.04.13-.04.22.1-.17.03-.06-.09.14-.17.21,0,.05-.02.02-.17.16-.18.18-.02.11.21-.18.07-.06-.02.02-.07.05-.1.06-.15.06.26-.06,0,0-.09.02-.21.04-.3.07.27-.1.12-.01-.03,0-.11,0-.21,0-.32,0-.08,0-.45-.05-.12,0-.13-.02-.27-.04-.4-.07-.51-.11-1.01-.28-1.5-.47-.03-.01-.22-.09-.09-.03.16.06-.14-.06-.13-.06-.12-.05-.24-.11-.36-.17-.27-.13-.54-.27-.81-.41-.53-.29-1.05-.6-1.56-.94-.27-.18-.53-.36-.79-.56-.05-.04-.1-.07-.15-.11.15.12.01.01-.06-.05-.11-.09-.22-.18-.34-.28-.37-.32-.73-.66-1.04-1.04-.38-.47-1.19-.4-1.59,0-.47.47-.38,1.12,0,1.59h0Z"/><path class="cls-1" d="m194.19,182.1c-.68,1.51-2.02,2.26-3.32,2.46-.48.08-.96.17-1.46.08-1.74-.31-2.99-1.51-3.5-2.96-.24-.64-.28-1.32-.18-1.95.12-.8.53-1.58,1.21-2,.21-.13.26,0,.25.24-.02.24,0,.64-.03.96-.08.58.05,1.14.27,1.55.18.4.41.79.75,1.16.4.48,1.12.62,1.64.57.63-.03,1.33-.33,1.77-.76.29-.28.4-.61.45-1,.05-.6-.34-1.35-.97-1.73-.49-.29-1.13-.31-1.7-.16-.13.03-.25.08-.38.12-.47.17-.63.22-.85.13-.05-.02-.11-.03-.15-.06-.14-.07-.06-.35.3-.68.54-.47,1.25-.8,2.09-.91.83-.15,1.86.07,2.66.64.58.44,1.04,1.08,1.3,1.84.12.38.2.8.19,1.23-.02.42-.13.84-.28,1.23l-.06-.02Z"/><path class="cls-1" d="m388.65,122.39c-1.51-1.59-3.35-2.84-5.47-3.46-2.69-.8-5.56-.56-8.27.01-1.57.33-.91,2.74.66,2.41,2.28-.48,4.69-.68,6.94-.01,1.72.51,3.11,1.5,4.36,2.82,1.11,1.17,2.87-.6,1.77-1.77h0Z"/><path class="cls-1" d="m435.76,96.31c-.06.27-.4.15-.92-.21-.17-.11-.54-.57-.55-.67-.01-.2-.02-.4,0-.57.02-.1.76-1.09,1-1.45.23-.34.53-.62.83-.87.62-.53,1.22-1.07,1.84-1.6.14-.12.29-.21.46-.29.59-.26,1.07-.65,1.51-1.09.07-.07.17-.13.18-.26.03-.22,1.31-1.3,1.53-1.39.53-.21,1.01-.48,1.51-.72.07-.03.11-.11.23-.08.28.08.38-.06.52-.15.19-.13.4-.25.63-.34.11-.04.29,0,.45,0,.14.01.34.33.34.38,0,.16.17.23.28.34.04.04.08.09.11.12.05.08-.55,1.43-.66,1.52-.03.02-1.37,1.44-1.51,1.62-.07.09-.2.13-.31.17-.05.02-1.09,1.2-1.14,1.24-.26.19-.44.47-.83.51-.08,0-.12.06-.16.11-.4.39-.87.69-1.33,1.01-.23.16-.43.37-.64.56-.04.03-.1.04-.15.06-.06.03-.13.05-.18.09-.49.46-1.08.8-1.52,1.32-.1.12-.84.39-.95.54-.06.08-.57-.01-.59.1Z"/><path class="cls-1" d="m440.58,110.65c-.24.15-.39-.18-.51-.8-.04-.2.02-.79.09-.86.14-.15.29-.29.43-.39.09-.07,1.42-.2,1.88-.24.45-.05.88,0,1.31.08.87.16,1.75.32,2.61.54.19.05.38.12.55.23.6.36,1.23.57,1.89.74.11.03.21.08.34.03.22-.1,1.94.58,2.12.74.47.39.96.74,1.43,1.11.07.05.16.06.18.19.05.3.22.34.37.44.21.13.41.29.59.48.09.09.13.27.18.43.05.14-.19.44-.24.45-.15.05-.16.24-.22.38-.02.05-.05.11-.08.14-.06.07-1.54,0-1.67-.05-.03-.03-1.87-.65-2.1-.67-.12-.02-.2-.12-.29-.19-.04-.05-1.56-.37-1.62-.39-.29-.13-.63-.13-.86-.43-.05-.06-.11-.07-.17-.08-.54-.12-1.04-.34-1.57-.52-.27-.1-.55-.12-.82-.18-.05-.01-.09-.06-.14-.08-.06-.03-.12-.07-.18-.08-.66-.1-1.3-.34-1.98-.33-.15,0-.85-.36-1.03-.34-.1,0-.39-.42-.48-.36Z"/></svg>