<?xml version="1.0" encoding="UTF-8"?><svg id="Layer_1" xmlns="http://www.w3.org/2000/svg" width="520" height="520" viewBox="0 0 520 520"><defs><style>.cls-1,.cls-2{fill:#0056FF;}.cls-2{opacity:.3;}</style></defs><path class="cls-1" d="m343.03,273.38l1.07,2.84c.13.34.33.66.46,1.01.45,1.22.88,2.46,1.26,3.72.18.55.41,1.09.64,1.61.26.69.52,1.38.62,2.14.03.23-.16.28-.45.19-.29-.09-.72-.29-.98-.63l-.67-.91c-.21-.31-.38-.64-.55-.97-.34-.66-.66-1.32-.9-2.04-.24-.87-.76-1.66-1.14-2.49l-1.24-2.77-.75-1.71c-.39-.86-.74-1.75-1.19-2.57-.35-.64-.76-1.24-1.13-1.86-.08-.14-.18-.26-.24-.41-.16-.58-.07-.84.28-1.14.08-.07.16-.15.24-.2.27-.19.65-.09,1.04.19,1.08.9,1.82,2.02,2.41,3.25.45.9.87,1.82,1.29,2.75l-.05.03Z"/><path class="cls-1" d="m273,274.79c-.42.66-.84,1.31-1.26,1.97-.15.24-.25.51-.4.75-.53.85-1.14,1.66-1.68,2.5-.25.37-.43.78-.65,1.15-.29.49-.58.97-.97,1.41-.12.13-.23.05-.32-.16-.08-.21-.19-.57-.13-.9.17-1.2.72-2.21,1.34-3.2.38-.59.64-1.26.97-1.89.38-.68.76-1.36,1.14-2.05l.7-1.26c.35-.64.71-1.27,1.01-1.93.25-.5.39-1.04.6-1.56.04-.11.08-.23.14-.34.1-.2.22-.32.37-.35.15-.05.29-.04.48,0,.09.02.17.03.25.05.25.07.4.36.46.76-.03.54-.13,1.06-.27,1.56-.13.51-.31,1.01-.58,1.46-.37.69-.78,1.36-1.17,2.04l-.04-.02Z"/><path class="cls-1" d="m424.32,311.07l7.23-.02c.88,0,1.76-.06,2.64-.05,3.1.04,6.2.09,9.31.09,1.38,0,2.76-.06,4.12-.09,1.75-.06,3.51-.15,5.27-.01.55.04.49.36.04.72-.45.35-1.28.77-2.29.88-1.78.17-3.57.36-5.36.44-1.79.05-3.59.05-5.4,0-2.16-.06-4.4.14-6.61.2-2.43.08-4.86.07-7.28.11l-4.48.06c-2.26.05-4.54.06-6.78.18-1.74.07-3.44.37-5.17.45-.38.02-.75.06-1.13.07-.71.01-1.18,0-1.51-.12-.33-.13-.53-.3-.69-.54-.07-.11-.17-.22-.21-.32-.08-.18.03-.34.28-.52.25-.17.65-.38,1.17-.46,3.06-.72,6.31-.86,9.57-.97,2.42-.09,4.86-.11,7.29-.17v.06Z"/><path class="cls-1" d="m131.45,276.06l2.85-3.4c.34-.41.65-.86,1-1.26,1.26-1.42,2.52-2.83,3.82-4.22.57-.61,1.13-1.25,1.66-1.89.66-.84,1.45-1.58,2.29-2.26.26-.21.35-.08.32.27-.04.34-.14.94-.45,1.48-.51.99-1.23,1.79-1.88,2.66-.34.42-.68.84-1.02,1.27-.36.41-.73.8-1.11,1.2-.91.94-1.66,2.08-2.48,3.13l-2.69,3.49-1.63,2.17c-.81,1.11-1.63,2.21-2.35,3.37-.57.89-.95,1.88-1.5,2.76-.12.2-.22.4-.34.59-.47.72-.75.86-1.26.77-.11-.02-.23-.03-.34-.06-.34-.11-.44-.58-.24-1.21.51-1.9,1.58-3.6,2.7-5.26.83-1.24,1.72-2.43,2.61-3.63l.04.03Z"/><path class="cls-1" d="m115.32,273.84c-.32-1.43-.54-2.88-.86-4.31-.11-.52-.28-1.03-.4-1.55-.38-1.85-.81-3.68-1.28-5.51-.2-.81-.48-1.6-.75-2.39l-.57-1.49c-.16-.51-.26-1.04-.35-1.58-.05-.34.19-.38.56-.23.36.16.93.5,1.29,1.04.91,2.02,1.68,4.1,2.09,6.3.25,1.31.72,2.61,1.06,3.93.36,1.45.69,2.9,1,4.36l.52,2.7c.27,1.36.51,2.73.8,4.08.21,1.05.51,2.06.73,3.09.05.23.09.45.11.69.08.87.02,1.16-.19,1.4-.05.05-.09.12-.14.15-.16.12-.4-.19-.69-.78-.45-.87-.79-1.78-1.1-2.72-.33-.93-.63-1.88-.85-2.85-.34-1.43-.69-2.87-1.03-4.31h.05Z"/><path class="cls-1" d="m128.83,286.18s-.75,3.45,1.5,5.25c2.25,1.8-18.3,1.16-17.18-1.83,1.12-2.99,1.01-5.82,4.87-5.76s10.81,2.34,10.81,2.34Z"/><path class="cls-2" d="m132.13,314.84c-35.62-2.1-23.53-47.3-10.33-59.46,0,0-6.11-2.2-11.92,4.16s-17.54,26.13-20.98,36.58c-3.44,10.46-6.89,17.26-1.94,18.44l45.17.27Z"/><path class="cls-1" d="m97.62,315.35c-16.31-3.34,5.28-43.89,9.3-50.54,0,0-10.03,12.41-12.91,18.29-2.88,5.87-8.81,23.46-9.58,26.9s-1.97,4.1,2.53,4.56,10.66.79,10.66.79Z"/><path class="cls-1" d="m157.71,278.2c.73,2.75,1.42,5.5,1.97,8.29.22,1.01.44,2.02.61,3.05.56,3.61.97,7.23,1.17,10.87.07,1.61.13,3.23.2,4.83.02,1.03.03,2.05.05,3.08,0,1.03-.12,2.06-.24,3.08-.08.64-.14.55-.3,0-.1-.35-.22-.73-.33-1.11-.15-.46-.27-1-.3-1.58-.35-4.14-.98-8.21-1.27-12.36-.2-2.49-.81-5.02-1.33-7.51l-.9-4.11c-.35-1.36-.65-2.73-1.05-4.08-.45-1.67-.94-3.33-1.47-4.98-.81-2.49-1.65-4.99-2.64-7.41-.41-.93-.81-1.84-1.21-2.76l-1.27-2.72c-.18-.4-.39-.78-.54-1.2-.29-.77-.45-1.3-.48-1.7,0-.42.07-.69.19-.94.06-.11.09-.25.15-.32.09-.13.26-.06.53.15.27.21.67.55.99,1.08,2.03,3.05,3.61,6.54,4.91,10.16.99,2.68,1.85,5.42,2.66,8.17l-.06.02Z"/><path class="cls-1" d="m110.64,261.04c-3.14,3.87-5.93,8.16-8.53,12.53-.95,1.6-1.8,3.25-2.71,4.87-3.18,5.73-6.25,11.53-8.93,17.52-1.21,2.65-2.22,5.39-3.2,8.1-.62,1.74-1.17,3.51-1.68,5.28-.56,1.76-1.12,3.51-1.68,5.27-.34,1.11-.42.96-.62-.06-.12-.52-.24-1.25-.36-2.16-.08-.9-.05-1.94.13-3.03,1.75-7.63,5.01-14.63,8.59-21.48,2.16-4.08,4.28-8.39,6.64-12.49,2.62-4.48,5.32-8.92,8.4-13.14.95-1.3,1.93-2.57,3.01-3.8,1.09-1.21,2.16-2.44,3.71-3.38l.48-.26c.16-.1.43-.13.61-.18.32-.05.64-.09.94-.12.62-.07,1.22-.12,1.83-.16,1.22-.08,2.43-.15,3.64-.17,2.43-.06,4.84-.06,7.25,0,3.73.09,7.4.21,11.09.56.81.06,1.61.13,2.42.28,3.02.45,3.91.98,4.46,1.56.12.14.3.27.36.39.11.19-.15.3-.72.39-.57.08-1.45.16-2.54.05-3.27-.12-6.58-.49-9.95-.64-3.37-.18-6.79-.28-10.21-.22-2.53.05-5.1.14-7.55.42l-.43.06-.19.03h0s-.08.05-.18.1c-.09.06-.18.07-.29.16l-.63.48-.64.58c-.85.83-1.67,1.75-2.45,2.73l-.05-.03Z"/><path class="cls-1" d="m128.38,236.6c1.05-.77,2.09-1.49,3.39-2.04,1.27-.53,2.63-.9,4.03-.9.51-.01,1.01.02,1.52.03.5.08,1.01.11,1.49.28,3.44,1.02,6.04,3.7,7.25,6.75.56,1.36.96,2.74,1.19,4.1.14.88.26,1.75.31,2.63l.03.65-.07.66c-.05.44-.12.87-.19,1.31-.1.54-.29.48-.65.05-.18-.21-.42-.52-.69-.88-.13-.18-.27-.38-.4-.59-.07-.1-.12-.21-.2-.32-.03-.11-.07-.23-.09-.35-.35-1.67-.81-3.25-1.23-4.74-.45-1.43-1.17-2.73-2.06-3.96-1.09-1.48-2.92-2.34-4.69-2.59-.98-.15-2-.12-2.99.12-1,.26-1.95.64-2.9,1.24-1.16.72-2.25,1.6-3.27,2.57-1.53,1.49-2.96,3.14-4.15,4.94-.92,1.4-1.69,2.86-2.45,4.34-.17.33-.31.65-.49.97-.65,1.2-.98,1.51-1.63,1.53-.15,0-.3.03-.44,0-.45-.07-.53-.74-.22-1.74.93-2.96,2.33-5.98,4.37-8.62,1.47-1.99,3.18-3.86,5.2-5.5l.05.06Z"/><path class="cls-1" d="m117.27,293.01c-.74-.09-1.48-.21-2.25-.38-.19-.04-.38-.09-.58-.15l-.3-.08-.44-.17c-.62-.21-1.16-.57-1.57-1.01-.51-.66-.41-1.57-.19-2.41.06-.24.09-.34.14-.48l.13-.39c.09-.25.19-.5.29-.75.19-.44.36-.88.56-1.3l.3-.63.17-.31.08-.15.15-.23c.79-1.12,1.9-1.47,2.77-1.67.91-.19,1.76-.23,2.58-.23,1.65.02,3.23.21,4.79.42,1.37.18,2.75.37,4.12.55.87.12,1.75.17,2.6.33l1.28.3c.42.09.84.31,1.26.44.52.21.46.33-.03.63-.24.15-.59.37-1.02.61-.43.21-.92.35-1.44.4-.23.02-.46.04-.69.04l-.68-.05-1.34-.12-2.65-.27c-1.75-.23-3.48-.53-5.18-.72-1.01-.1-2.06-.07-2.93.16-.43.11-.79.29-1.02.45-.12.09-.17.16-.25.25l-.39.68c-.35.62-.67,1.27-.94,1.91l-.18.48-.09.26c-.03.13-.11.32.02.43.14.12.28.19.51.28.38.14.78.26,1.21.37,1.39.37,2.87.53,4.33.68,2.23.2,4.49.35,6.73.35.87,0,1.73-.04,2.59-.1l.64-.05.32-.03h.16s.08-.02.08-.02c.24-.03.36-.06.51-.1.09.01.06-.1.05-.17-.01-.08-.02-.15-.03-.21,0-.06,0-.11,0-.16.01-.1.03-.27.05-.38.05-.25.09-.44.17-.61.1-.17.2-.28.31-.41,0-.01.01,0,.02-.03v-.05s.11-.23.11-.23l.14-.16.48-.1c.39.14.38.32.42.36.04.12.03.13.03.15,0,.04,0,.02,0,.03h0s-.01.03-.01.03c0,.01-.01.02-.02.03-.03.03-.06.05-.09.08-.06.05-.12.09-.19.12-.12.07-.23.16-.34.2-.18.07-.34-.05-.54-.3-.02-.03-.05-.07-.07-.09h0s0,0,0,0h.25s.28-.03.28-.03c.02,0,.04,0,.06.02.01,0,.03.07.14.05.06-.04.03-.06.03-.07,0-.01-.06-.02-.03-.02l.1.02.19.03c.13.02.26.03.39.03.02-.02.01-.02.02-.02.01.01.02.03.04.05.05.08.1.17.15.27.12.2.14.43.2.69.13.27-.05,1.09,0,1.73-.04.32-.18.57-.25.83-.01.08-.06.12-.12.14l-.17.08-.38.18c-.15.06-.26.15-.43.17l-.54.04-1.02.06-1.21.07c-1.62.07-3.27.06-4.92,0-2.46-.09-4.92-.27-7.42-.63v-.06Z"/><path class="cls-2" d="m294.08,204.3c-8.13.68-2.67-16.32-1.99-17.4l-3.34-1.93s-5.36,8.6-4.24,16c1.12,7.4,1.67,8.54,4.24,7.65,2.57-.9,5.33-4.33,5.33-4.33Z"/><path class="cls-2" d="m317.22,181.16c-17.05,8.41-32.82,4.01-34-4.1-1.19-8.12,8.19-12.89,8.79-13.95,0,0,.39,6.67,7.2,6.86,0,0-1.89,14.6,18.01,11.19Z"/><path class="cls-1" d="m365.43,312.71c.66-.06,1.32-.12,1.98-.18.24-.02.47-.09.72-.1.86-.03,1.72-.03,2.57-.07.38-.02.75-.1,1.11-.16.47-.08.94-.21,1.44-.07.16.04.19.41.13.81-.07.4-.23.85-.49.95-.91.39-1.87.45-2.87.4-.6-.04-1.17.17-1.76.26-.65.11-1.3.15-1.96.22-.4.04-.81.09-1.2.15-.61.09-1.21.18-1.81.29-.46.1-.89.31-1.33.45-.1.03-.19.08-.29.1-.37.08-.52,0-.7-.4-.04-.09-.09-.17-.12-.26-.11-.3-.03-.6.22-.8.73-.57,1.55-.98,2.4-1.28.65-.15,1.31-.25,1.97-.36v.05Z"/><path class="cls-1" d="m244.56,314.47c-1.05-.02-2.09-.05-3.14-.07-.38,0-.76.05-1.14.03-1.34-.07-2.68-.16-4.01-.26-.59-.06-1.19-.06-1.77-.06-.75.02-1.51-.07-2.26-.29-.23-.07-.2-.29,0-.56.2-.26.56-.63.99-.76.76-.25,1.51-.31,2.27-.36.75-.07,1.51-.03,2.28.08.92.12,1.86-.05,2.79-.08l3.08-.11c.63-.03,1.27-.06,1.9-.1.96-.06,1.92-.1,2.86-.26.73-.12,1.42-.43,2.13-.6.16-.03.31-.09.47-.11.6-.08.81.07,1.04.63.05.13.11.25.15.38.13.43-.05.85-.46,1.11-1.21.85-2.62,1.03-4.02,1.23-1.04.13-2.1.2-3.15.22v-.06Z"/><path class="cls-2" d="m359.04,410.11c-.6,1.07-4.2,28.25,5.08,37.62l-10.23-5.74-6.02-33.17,11.17,1.29Z"/><path class="cls-2" d="m246.79,410.11h9.49s-8,31.93-11.02,36.18c-3.87,5.43-30.4,18.72-24.91,10.55,5.07-7.54,22.23-20.26,22.23-20.26l4.22-26.47Z"/><path class="cls-1" d="m256.05,410.83c-.92.11-1.85.18-2.78.22-.34.02-.67.1-1.01.1-1.2,0-2.41-.07-3.62-.21-.55-.08-1.09-.16-1.63-.24-.35-.08-.72-.11-1.07-.3-.34-.18-.68-.47-.89-.85-.13-.25.12-.35.45-.46.32-.09.73-.38,1-.44.97.03,2.18-.09,3.45.18.77.13,1.56-.08,2.35-.16.87-.1,1.75-.19,2.63-.29.54-.06,1.09-.14,1.62-.23.82-.14,1.63-.31,2.43-.52.61-.17,1.17-.48,1.74-.73.13-.06.24-.13.38-.15.5-.11.71-.01.99.38.06.09.13.17.19.26.18.3.09.67-.21,1-.44.53-.99.84-1.53,1.17-.56.29-1.12.63-1.73.76-.9.25-1.82.4-2.74.57v-.06Z"/><path class="cls-1" d="m257.88,424.54c-.71,2.14-1.4,4.28-2.05,6.42-.25.78-.4,1.58-.64,2.36-.81,2.76-1.58,5.53-2.06,8.36-.24,1.25-.33,2.53-.45,3.79-.14,1.62-.16,3.23-.51,4.86-.11.51-.34.45-.65.01-.29-.43-.81-1.24-.93-2.21-.27-3.44.33-6.86,1.21-10.18.53-1.98.91-4.07,1.44-6.09.59-2.22,1.29-4.39,1.99-6.56l1.29-4c.63-2.02,1.29-4.04,1.8-6.07.19-.79.35-1.58.5-2.37.14-.79.23-1.59.42-2.37.07-.35.14-.69.21-1.03.27-1.29.65-1.64,1.12-1.84.12-.04.23-.11.33-.13.34-.07.54.53.59,1.54.02,2.99-.78,5.99-1.58,8.96-.61,2.21-1.31,4.39-1.97,6.56h-.06Z"/><path class="cls-1" d="m218.81,457.27c.06-1,.36-1.83.71-2.51.35-.7.76-1.29,1.2-1.84.88-1.09,1.83-2.02,2.79-2.91,1.94-1.76,3.97-3.32,6.02-4.83,1.49-1.1,2.95-2.24,4.46-3.29l4.18-2.94c.68-.49,1.36-.99,1.99-1.5.61-.48,1.3-1.13,1.27-1.27l.44-2.15.42-2.24c.27-1.49.51-2.99.73-4.5.43-2.83.71-5.69.89-8.51.25-3.64.16-7.26.53-10.85.22-1.14.22-1.03.81-.12.31.46.63,1.14,1,1.98.31.84.49,1.84.56,2.92.12,3.83-.24,7.6-.64,11.36-.42,3.76-1.06,7.5-1.9,11.22-.05.23-.11.47-.16.71-.06.27-.11.54-.17.81-.15.4-.3.82-.6,1.16-.23.27-.44.48-.65.69-.42.39-.84.74-1.25,1.07-.83.67-1.67,1.3-2.5,1.92-1.67,1.22-3.35,2.45-5.02,3.67-2.05,1.48-4.08,2.97-6.02,4.53-1.92,1.58-3.84,3.22-5.25,5.09-.9,1.09-1.45,2.5-1,3.12.21.33.58.4,1.3.36.66-.03,1.38-.22,2.08-.43,2.15-.69,4.26-1.74,6.32-2.83,2.06-1.11,4.07-2.33,6.02-3.6,3.03-1.99,5.85-4.19,8.64-6.42.61-.5,1.2-.99,1.81-1.5,1.15-.91,1.91-1.5,2.53-1.81.33-.13.6-.22.86-.26.27-.02.52,0,.75.02.21.02.45,0,.59.03.24.06.19.34-.02.94-.2.61-.72,1.34-1.55,2.08-4.84,4.42-10.47,8.36-16.5,11.84-2.25,1.28-4.56,2.48-7.08,3.46-1.28.47-2.56.93-4.18,1.07-.21.01-.4.04-.63.03l-.71-.06c-.25.02-.58-.16-.87-.23-.31-.07-.57-.24-.82-.42-.27-.16-.46-.4-.64-.65-.2-.23-.39-.48-.48-.79-.25-.55-.29-1.08-.32-1.63h.07Z"/><path class="cls-1" d="m230.06,452.73c.73-.21,1.46-.41,2.2-.62.26-.07.49-.25.63-.48s.19-.56.11-.81-.24-.5-.48-.63-.53-.18-.81-.11c-.73.21-1.46.41-2.2.62-.26.07-.49.25-.63.48s-.19.56-.11.81.24.5.48.63.53.18.81.11h0Z"/><path class="cls-1" d="m240.48,446.6c.16-.66.31-1.32.47-1.99.07-.3.04-.63-.12-.91-.14-.24-.42-.48-.7-.54-.3-.07-.64-.05-.91.12-.25.16-.47.4-.54.7-.16.66-.31,1.32-.47,1.99-.07.3-.04.63.12.91.14.24.42.48.7.54.3.07.64.05.91-.12.25-.16.47-.4.54-.7h0Z"/><path class="cls-1" d="m248.67,436.7l2-.79c.14-.03.26-.1.36-.19.11-.07.2-.17.27-.29.13-.23.19-.56.11-.81s-.24-.5-.48-.63-.55-.21-.81-.11l-2,.79c-.14.03-.26.1-.36.19-.11.07-.2.17-.27.29-.13.23-.19.56-.11.81s.24.5.48.63.55.21.81.11h0Z"/><path class="cls-1" d="m247.69,422.61c.21.29.38.6.52.93l-.11-.25c.12.28.21.57.27.87.05.25.27.5.48.63.23.13.56.19.81.11s.5-.24.63-.48c.14-.26.17-.52.11-.81-.09-.41-.23-.8-.4-1.18-.13-.31-.3-.6-.5-.88-.07-.12-.16-.22-.27-.29-.1-.09-.22-.16-.36-.19-.25-.07-.59-.04-.81.11s-.42.36-.48.63-.06.58.11.81h0Z"/><path class="cls-1" d="m358.18,410.52c-.88.12-1.79.17-2.68.21-.33,0-.64.11-.97.1-1.16-.04-2.3-.3-3.39-.49-.48-.1-.98-.1-1.46-.12-.31-.05-.62-.05-.92-.13-.31-.04-.58-.32-.85-.55-.17-.17-.07-.57.17-1.06.12-.25.27-.53.44-.79.09-.13.17-.26.27-.36.05-.06.1-.11.14-.15.04-.02.08-.04.13-.05l.88-.15c.29-.02.56.06.84.09.56.1,1.11.23,1.68.44.68.23,1.39.04,2.08.02.77,0,1.55-.06,2.33-.14.48-.06.97-.12,1.45-.23.73-.16,1.48-.31,2.17-.61.54-.22.98-.7,1.5-.96.11-.06.21-.15.33-.2.21-.11.43,0,.59.11.17.12.32.32.49.63.08.14.17.27.23.41.23.45.21.95,0,1.41-.67,1.19-1.73,1.59-2.83,1.99-.82.29-1.69.48-2.58.66l-.02-.08Z"/><path class="cls-1" d="m352.38,423.5c.42,2.27.86,4.54,1.22,6.84.14.83.32,1.66.44,2.5.39,2.97.68,5.95.8,8.94l.1,1.99c.02.66.11,1.32.1,1.98,0,.85,0,1.7,0,2.55-.03.85-.24,1.69-.4,2.53-.12.52-.35.43-.65-.03-.27-.46-.78-1.28-.88-2.23-.33-3.35-.37-6.68-.56-10.09-.08-2.04-.55-4.13-.9-6.19-.4-2.27-.79-4.54-1.23-6.82l-.82-4.2c-.44-2.12-.83-4.26-1.3-6.36-.34-1.64-.85-3.21-1.17-4.85-.07-.36-.15-.71-.2-1.08-.2-1.36.02-1.83.4-2.18.09-.08.18-.18.27-.23.29-.17.69.33,1.1,1.26,1.06,2.79,1.6,5.8,2.3,8.83.48,2.26.96,4.54,1.44,6.81l-.06.02Z"/><path class="cls-1" d="m383.34,459.2c-.09-.64-.75-1.63-1.46-2.51-.73-.9-1.59-1.78-2.49-2.63-1.81-1.69-3.8-3.28-5.82-4.83-1.48-1.13-3.03-2.18-4.53-3.32-1.06-.8-2.11-1.61-3.16-2.47-.52-.43-1.05-.88-1.57-1.37-.26-.26-.52-.51-.79-.85-.15-.15-.29-.44-.43-.66-.08-.11-.1-.25-.15-.38-.03-.06-.03-.13-.08-.19l-.04-.2-.16-1.59-.13-1.5-.21-2.99c-.12-2-.22-3.99-.27-5.98-.08-2.95-.18-5.91-.22-8.83-.01-1.88-.08-3.77.03-5.66.12-1.89.28-3.79.95-5.64.57-1.12.52-.93.81.11.17.58.37,1.29.59,2.08.2.85.31,1.82.33,2.88-.06,7.51.18,15.1.48,22.72.04.65.09,1.31.13,1.97.06.63.13,1.26.19,1.9,0,.06.02.13.06.18.01.04.1.13.22.26.23.24.51.51.8.76.6.51,1.24,1.02,1.91,1.52,1.35.99,2.7,1.98,4.05,2.97,2.08,1.54,4.17,3.11,6.2,4.77,2.01,1.69,4.03,3.4,5.74,5.59.5.7,1,1.41,1.33,2.31.33.86.53,2.03.01,3.08-.1.26-.28.5-.49.73-.19.25-.47.38-.72.54-.26.13-.52.19-.79.28l-.75.09c-.96.02-1.81-.19-2.63-.41-2.45-.75-4.61-1.94-6.73-3.17-2.11-1.24-4.13-2.59-6.12-3.97-3.08-2.15-6.1-4.26-8.99-6.63-.63-.52-1.27-1.02-1.89-1.58-1.14-1.04-1.85-1.77-2.23-2.41-.17-.33-.29-.61-.35-.88-.05-.28-.04-.53-.02-.77.02-.22-.01-.45.02-.59.05-.24.35-.18.95,0,.61.17,1.34.63,2.16,1.34,4.95,4.13,10.35,8.38,16.06,12.08,2.12,1.34,4.31,2.63,6.52,3.56,1.08.45,2.25.8,3.08.82.17-.01.37-.01.42-.05.02,0,.04-.01.06-.01,0-.01,0-.02,0-.02,0,0,0-.02.03.02-.01-.02-.03-.04-.03-.03,0,0,0,0,0,0,0,0,0-.04,0-.05,0-.04.06-.05.03-.1,0-.04,0-.08.02-.12-.02-.06-.03-.13-.03-.19h.07Z"/><path class="cls-1" d="m358.42,417.69l-.78,1.61c-.09.13-.13.28-.14.44-.03.16-.03.31.02.47.04.15.11.29.21.4.08.13.19.23.33.3.27.14.6.22.91.12.28-.09.57-.27.7-.54l.78-1.61c.09-.13.13-.28.14-.44.03-.16.03-.31-.02-.47-.04-.15-.11-.29-.21-.4-.08-.13-.19-.23-.33-.3-.27-.14-.6-.22-.91-.12-.28.09-.57.27-.7.54h0Z"/><path class="cls-1" d="m355.41,429.72l1.4,1.4c.21.21.53.34.83.34.16,0,.31-.03.45-.1.15-.05.27-.13.38-.24.21-.22.36-.52.34-.83s-.12-.61-.34-.83c-.47-.47-.93-.93-1.4-1.4-.21-.21-.53-.34-.83-.34-.16,0-.31.03-.45.1-.15.05-.27.13-.38.24-.21.22-.36.52-.34.83s.12.61.34.83h0Z"/><path class="cls-1" d="m367.64,448.79c.53.07,1.07.14,1.6.2.14,0,.28-.02.4-.09.13-.04.24-.11.34-.22.18-.18.32-.48.31-.74s-.1-.55-.31-.74l-.21-.16c-.16-.09-.34-.14-.53-.14-.53-.07-1.07-.14-1.6-.2-.14,0-.28.02-.4.09-.13.04-.24.11-.34.22-.18.18-.32.48-.31.74s.1.55.31.74l.21.16c.16.09.34.14.53.14h0Z"/><path class="cls-1" d="m269.06,280.01l5.84-10s28.11,7.37,42.13,3.44,21.25-6.27,21.25-6.27l6.49,15.39s-9.25-3.38-16.09,3.6c-6.35,6.48-9.26,25.21-9.26,25.21l-22.71.63s.23-14.01-3.49-20.47-7.56-12.26-14.67-11.53c-7.11.73-9.49,0-9.49,0Z"/><path class="cls-1" d="m216.94,393.53s5.12-8.86,11.36-27.12c6.92-20.26,22.14-99.83,62.08-80.24,0,0,5.76,9.4,6.03,22.33.26,12.93-1.02,36.13-2.05,47.82-1.03,11.69-1.37,42.48-1.37,42.48,0,0-8.43,6.92-25.21,7.78s-30.92,1.16-38.18-2.93c-7.26-4.09-12.65-10.12-12.65-10.12Z"/><path class="cls-1" d="m319.16,308.91c4.59-20.65,32.47-41.73,44.74-1.53.14.46,26.99,77.01,26.99,77.01,0,0,2.7,7.28-12.35,14.23-15.05,6.94-33.17,10.9-41.33,8.28-8.16-2.62-15.63-6.94-15.63-6.94,0,0-2.8-56.79-2.8-78.51,0-3.74-.61-8.06.38-12.53Z"/><path class="cls-1" d="m262.2,408.69c-4.27.3-8.57.35-12.85.1-1.56-.1-3.13-.14-4.68-.33-2.74-.34-5.47-.79-8.16-1.49-2.68-.69-5.34-1.52-7.87-2.69-2.23-1.04-4.47-2.17-6.45-3.67-1.29-.93-2.52-1.97-3.6-3.17-.59-.55-1.01-1.26-1.44-1.94-.48-.65-.75-1.43-.97-2.21-.27-.97-.05-.91.75-.44.39.24,1.03.51,1.54.95.3.19.62.4.92.64.15.12.3.24.46.37.14.14.25.3.4.45,3.86,4.33,9.42,6.95,15.24,8.84,3.51,1.14,7.38,1.59,11.16,1.91,4.17.37,8.38.41,12.58.21,2.59-.12,5.17-.35,7.75-.67,3.9-.5,7.8-1.17,11.56-2.18,2.93-.78,5.71-1.84,8.43-3.03.59-.28,1.17-.55,1.76-.83,2.2-1.01,3.02-1.05,3.77-.8.17.06.38.1.5.17.21.12.13.38-.17.77-.31.39-.83.98-1.63,1.47-4.81,2.91-10.47,4.55-16.14,5.78-4.23.89-8.53,1.47-12.84,1.83v-.07Z"/><path class="cls-1" d="m352.08,405.6c3.91-.29,7.81-1.02,11.62-2.09,1.39-.38,2.74-.92,4.11-1.38,4.8-1.7,9.5-3.81,13.83-6.55,1.91-1.23,3.71-2.65,5.34-4.18,2.05-2.02,3.94-4.15,5.45-6.56.46-.76.57-.64.58.21,0,.24,0,.5-.02.78-.04.29-.09.62-.15.99-.08.77-.42,1.54-.9,2.32-1.73,2.71-4.1,4.82-6.52,6.75-2.46,1.9-5.11,3.53-7.88,4.9-3.32,1.64-6.79,3.3-10.36,4.54-3.93,1.35-7.98,2.34-12.1,2.91-2.54.34-5.09.54-7.65.56-3.88.04-7.77-.4-11.54-1.22-2.92-.67-5.8-1.41-8.58-2.59-.6-.28-1.19-.55-1.78-.86-1.11-.56-1.75-1.08-2.14-1.54-.35-.5-.47-.91-.47-1.36,0-.2-.04-.42,0-.58.06-.28.35-.37.85-.35.5.02,1.23.11,1.96.51,4.58,1.97,9.41,3.75,14.62,4.43,3.83.55,7.79.65,11.71.3v.07Z"/><path class="cls-1" d="m304.43,309.94l3.78.08c.46,0,.91-.05,1.37-.03,1.62.09,3.23.22,4.83.41.71.07,1.42.08,2.13.08.91-.01,1.82.03,2.71.32.28.09.23.47-.03.88-.25.4-.7.89-1.22.97-.92.18-1.83.2-2.73.19-.91-.01-1.82-.04-2.74-.19-1.1-.19-2.24-.03-3.36-.03-1.23,0-2.47,0-3.71.03-.76.02-1.52.03-2.29.08-1.15.06-2.31.12-3.45.28-.88.12-1.73.43-2.59.64-.19.04-.37.11-.57.13-.36.06-.6.03-.79-.12-.19-.13-.31-.33-.43-.62-.05-.13-.12-.26-.16-.39-.13-.43.11-.89.6-1.25.38-.19.76-.38,1.15-.53.4-.14.8-.25,1.2-.35.82-.19,1.65-.35,2.5-.43,1.26-.12,2.53-.15,3.8-.2v.07Z"/><path class="cls-1" d="m342.59,258.76c.35.69.73,1.38,1.16,2.03.16.24.35.45.52.68.57.83,1.14,1.66,1.81,2.42.15.16.31.31.48.46.17.14.35.26.51.41.44.35.9.63,1.34,1,.13.12.05.33-.19.5-.23.16-.67.35-1.04.23-1.36-.36-2.35-1.3-3.1-2.34-.45-.62-1-1.19-1.45-1.81-.48-.7-.93-1.41-1.34-2.15-.25-.45-.49-.91-.72-1.38-.36-.7-.65-1.43-.97-2.14-.24-.56-.53-1.09-.72-1.69-.04-.13-.1-.25-.13-.39-.08-.52.02-.71.39-.85.08-.03.16-.07.25-.1.28-.07.56.09.74.37.5.87,1.05,1.7,1.44,2.65.34.69.66,1.39,1.05,2.07l-.04.02Z"/><path class="cls-1" d="m367.9,272.36s10.98-.3,10.63-3.04c-.58-4.51-14.41-5.04-14.41-5.04l3.78,8.08Z"/><path class="cls-1" d="m264.27,270.76c.44-.67.89-1.32,1.35-1.97.16-.24.29-.5.46-.73.6-.81,1.29-1.56,1.89-2.36.28-.35.48-.74.75-1.09.32-.46.64-.93,1.04-1.34.13-.13.23-.05.3.17.07.21.14.57.05.9-.28,1.19-.92,2.17-1.66,3.08-.45.54-.73,1.21-1.14,1.79-.43.65-.87,1.29-1.27,1.94-.26.4-.5.81-.73,1.22-.34.63-.69,1.26-.94,1.93-.19.52-.25,1.07-.4,1.59-.03.11-.04.23-.08.35-.12.42-.32.51-.71.51-.09,0-.18,0-.27,0-.29-.03-.48-.28-.53-.66-.03-.55,0-1.1.12-1.64.15-.52.35-1.04.58-1.54.34-.75.75-1.45,1.15-2.15l.04.02Z"/><path class="cls-1" d="m241.84,277.4s-15.1-11.05-11.75-14.53c2.99-3.12,14.72,3.72,14.72,3.72l-2.97,10.82Z"/><path class="cls-1" d="m370.54,172.56s-13.38,7.21-28.85,5.81c-5.56-.5-18.7-2.67-18.7-2.67,0,0,1.23-4.04-.16-9.37-1.38-5.33-7.97-8.23-7.97-8.23l-2.8,5.36c-2.8,5.36-11,6.46-15.9,5.9-3.93-.46-2.7-6.08-2.06-8.27,1.11.33,2.18.48,3.21.43,7.76-.37,13.23.56,18.44-6.25,5.2-6.8,9.67-16.72,9.67-16.72,0,0,7.12.14,9.59-4.23,2.47-4.37,4.14-6.37.84-10.69,0,0-4.37-1.15-7.84.94-3.49,2.07,1.9-8.73.26-13.23,0,0-23.57,3.81-33.45,3.78-14.4-.04-20.04-8-20.04-8,0,0-2.13,19.04,1,31.44,2.68,10.6,10.85,20.14,18.02,22.45-.61.64-1.78,1.58-3.92,2.43-3.69,1.46-6.69,9.47-6.69,9.47,0,0-8.41,2.56-26.95-.35-15.05-2.36-27.93-12.87-26.81-12.71,1.11.16,7.21-12.95,9.99-19.83,2.79-6.88,10.08-30.49,26.62-49.4,16.55-18.91,37.47-18.32,37.47-18.32,0,0,13.39,1.41,22.12,4.34,8.72,2.92,17.6,14.92,21.13,20.92,3.54,6.01,9.97,27.55,13.05,40.99,3.08,13.43,10.73,34.01,10.73,34.01Z"/><path class="cls-1" d="m298.3,69.93c-.52-.54-1.1-1.06-1.74-1.49-.23-.17-.5-.25-.74-.4-.85-.52-1.75-1.02-2.73-1.35-.43-.17-.89-.18-1.33-.31-.58-.1-1.16-.2-1.76-.35-.19-.05-.17-.14-.02-.28.15-.14.44-.4.81-.53.64-.16,1.33-.42,1.99-.31.66.05,1.32.18,1.94.43.74.3,1.54.48,2.29.81.81.37,1.58.83,2.3,1.35.45.32.87.66,1.29,1.02.62.55,1.16,1.18,1.75,1.74.22.23.47.43.73.63.24.21.47.44.7.67.1.1.22.19.29.31.26.47.08.77-.36,1.15-.11.09-.2.18-.31.26-.35.25-.8.28-1.23.16-.54-.23-.93-.54-1.33-.84-.36-.33-.68-.69-1.03-1.04-.5-.52-1.02-1.05-1.56-1.57l.04-.05Z"/><path class="cls-1" d="m305.66,68.5c.5-.28,1.01-.55,1.52-.79.18-.1.35-.22.54-.29.69-.25,1.39-.45,2.08-.64.31-.1.59-.19.9-.29.38-.13.76-.27,1.18-.23.13.01.18.26.16.55-.02.28-.1.64-.28.76-.32.22-.64.42-.97.61-.35.13-.71.23-1.09.31-.46.09-.83.41-1.23.63-.45.24-.91.47-1.35.74-.27.16-.54.33-.8.52-.39.28-.78.57-1.1.93-.24.28-.38.65-.58.95-.04.07-.07.15-.14.2-.24.19-.42.16-.79-.05l-.25-.15c-.26-.17-.4-.45-.39-.75.03-.92.59-1.49,1.16-2.01.43-.39.91-.72,1.39-1.04l.03.04Z"/><path class="cls-1" d="m295.53,162.52c-.73-.12-1.4-.45-2.09-.69-.68-.28-1.39-.47-2.03-.83-1.27-.71-2.62-1.3-3.75-2.22l-1.76-1.27-1.58-1.48c-1.1-.94-1.96-2.09-2.88-3.18-.71-.77-1.24-1.67-1.83-2.52-.58-.86-1.2-1.7-1.61-2.65-3.37-6.49-4.81-13.67-5.17-20.75-.04-.79-.12-1.57-.15-2.36v-2.36s0-2.36,0-2.36c-.02-.79-.02-1.57.06-2.35.14-2,.2-4.01.39-6.01.14-.99.34-1.98.53-2.96l.31-1.47c.13-.49.31-.96.51-1.43.62-1.15.49-1,.84.12.17.56.5,1.36.58,2.27.12.92.18,1.97.09,3.09-.8,7.91-.93,15.86.35,23.72.87,4.67,2.65,9.35,5.2,13.42,2.78,4.47,6.7,8.28,11.48,10.48,2.95,1.31,6.2,1.93,9.42,1.79,4.92-.11,9.57-2.57,13-6.08,2.64-2.79,4.57-6.1,6.22-9.53.35-.77.69-1.51,1.01-2.3.32-.72.58-1.32.8-1.82.24-.5.49-.88.69-1.19.39-.64.73-.97,1.09-1.21.16-.11.33-.27.44-.33.2-.1.25.19.26.81,0,.62-.12,1.57-.41,2.74-1.05,3.4-2.47,6.85-4.54,10.06-2.08,3.18-4.74,6.19-8.17,8.34-2.51,1.6-5.4,2.76-8.4,3.13-.74.15-1.5.12-2.24.18-.37.01-.75.05-1.12.04l-1.12-.08c-.74-.07-1.5-.08-2.23-.22l-2.19-.47v-.07Z"/><path class="cls-1" d="m339.53,127.05c.19,2.66-.92,4.94-2.25,6.74-.5.66-.99,1.32-1.6,1.87-1.05.97-2.32,1.76-3.58,2.31-1.27.57-2.61.99-3.99,1.19-1.21.19-2.45.24-3.65.16-.77-.05-1.55-.14-2.3-.33-.74-.22-1.44-.59-2.08-1-.4-.26-.24-.47.24-.66.48-.17,1.29-.44,2.08-.46,1.36.2,2.69.26,4,.12,1.31-.14,2.61-.38,3.91-.84.77-.26,1.54-.69,2.19-1.17.66-.51,1.25-1.11,1.8-1.73,1.21-1.36,2.1-3.02,2.29-4.72.11-1.04-.07-2.09-.58-3.01-.38-.7-.87-1.3-1.5-1.63-.63-.33-1.4-.45-2.18-.31-1.23.25-2.33,1.01-3.28,1.87-.22.19-.4.4-.6.6-.42.32-.69.54-1,.58-.32.04-.61-.03-.95-.16-.16-.06-.32-.1-.45-.17-.22-.12-.33-.33-.36-.66-.02-.33,0-.81.3-1.21.77-1.28,1.96-2.28,3.4-3.06.71-.39,1.54-.67,2.43-.86.91-.14,1.9-.19,2.93.09,1.53.39,2.83,1.51,3.55,2.67.73,1.15,1.18,2.44,1.31,3.77h-.07Z"/><path class="cls-1" d="m329.49,118.8c-.18,1.24-.42,2.48-.67,3.71-.09.45-.12.91-.25,1.36-.46,1.57-1.02,3.12-1.77,4.6-.17.33-.28.67-.48.99l-.56.95c-.26.39-.56.78-.88,1.13-.35.33-.82.55-1.22.78-.27.13-.34-.05-.34-.41.01-.35.01-.93.18-1.35.09-.44.32-.74.48-1.1.14-.38.24-.77.44-1.12.33-.75.67-1.51,1.01-2.29.43-.95.5-2.05.67-3.11.23-1.16.42-2.34.57-3.54.1-.73.17-1.48.23-2.22.08-1.13.18-2.26.14-3.39-.03-.88-.2-1.74-.3-2.63-.02-.2-.07-.39-.04-.59.1-.74.33-.98.98-1.08.14-.03.28-.06.41-.07.41-.03.89.29,1.1.79.41.76.47,1.54.6,2.35.12.81.09,1.64.07,2.47-.04,1.24-.17,2.49-.3,3.74h-.07Z"/><path class="cls-1" d="m306.07,116.16c-3.03.19-6.07.26-9.1.19-1.11-.04-2.22,0-3.33-.09-1.95-.14-3.91-.38-5.84-.75-1.94-.35-3.86-.85-5.72-1.58-1.64-.65-3.29-1.4-4.71-2.56-.44-.38-.87-.8-1.25-1.24-.33-.49-.76-.93-.98-1.49l-.38-.81c-.08-.29-.1-.59-.15-.88-.12-.58-.09-1.16-.06-1.73.04-.71.13-.6.45-.06.17.26.35.64.68,1.03.17.2.35.39.52.59.1.1.15.21.27.3.08.11.16.21.23.33l.37.6.47.53c.27.38.7.63,1.03.97.35.32.77.58,1.15.89.44.24.85.52,1.3.75,1.81.92,3.86,1.56,5.96,2.09,2.53.62,5.29.71,7.98.79,2.97.08,5.95.01,8.93-.18,1.83-.13,3.67-.27,5.5-.51,2.77-.33,5.55-.72,8.26-1.31,2.1-.46,4.12-1.12,6.13-1.79.44-.15.86-.33,1.32-.44.83-.23,1.39-.35,1.82-.33.43.05.73.19,1.01.44.13.11.28.21.37.32.16.19.09.43-.15.74-.24.3-.65.71-1.26.97-1.77.91-3.7,1.47-5.66,1.99-1.97.5-3.98.91-6.01,1.24-3.01.5-6.07.83-9.12,1.07v-.06Z"/><path class="cls-1" d="m352.59,179.06c-2.51.25-5.02.44-7.54.47-.92.01-1.83.12-2.75.07-3.24-.05-6.46-.41-9.64-.92-1.42-.2-2.83-.47-4.23-.68-1.78-.39-3.62-.69-5.21-1.71-.5-.29-.35-.5.22-.72.28-.11.67-.24,1.12-.36.22-.05.47-.13.71-.14.24,0,.48.02.73.07,1.78.26,3.52.6,5.28.96,1.76.31,3.54.61,5.34.88,1.08.18,2.19.2,3.3.25,1.12-.01,2.24-.02,3.35-.03,2.45-.07,4.91-.17,7.35-.46,1.51-.14,3.01-.38,4.5-.61,1.13-.22,2.26-.42,3.39-.66,1.12-.27,2.24-.52,3.33-.86.85-.27,1.68-.56,2.49-.88l2.42-1.03c.36-.14.69-.33,1.06-.46,1.32-.56,1.93-.26,2.41.12.11.09.24.17.32.26.13.15.09.35-.08.64-.18.28-.47.69-.93.99-2.8,1.7-6.09,2.68-9.41,3.49-2.47.61-5,1-7.52,1.36v-.06Z"/><path class="cls-1" d="m280.21,76.44c2.94-1.65,6.01-3.04,9.25-4.05,3.25-1.11,6.62-1.58,9.97-1.9l2.52-.13c.84-.06,1.68,0,2.52,0,1.68-.02,3.35.18,5.01.31,3.32.42,6.62.98,9.83,1.96,4.69,1.35,9.25,3.24,13.37,5.94,3.62,2.36,6.92,5.39,9.46,8.9,2.52,3.45,4.67,7.14,6.53,10.95,3.71,7.63,6.29,15.69,8.38,23.8,1.86,7.21,3.4,14.51,4.97,21.68,1,4.61,2.09,9.2,3.3,13.72.61,2.26,1.28,4.49,2.05,6.67l.61,1.62.69,1.58.71,1.56c.21.54.55.99.78,1.53,1.39,2.48,1.23,2.28-.79.63-.95-.87-2.29-2.24-3.4-4.17-1.12-1.92-2.19-4.29-3.04-6.94-1.52-4.68-2.49-9.45-3.53-14.16-1.01-4.73-1.97-9.44-3.02-14.13-2.1-9.36-4.46-18.68-8.12-27.53-1.08-2.65-2.35-5.24-3.73-7.79-1.45-2.51-2.96-5.01-4.75-7.3-.42-.61-.89-1.14-1.36-1.67-.48-.53-.92-1.09-1.42-1.58-1.07-.95-2.05-1.99-3.24-2.8-2.23-1.81-4.79-3.18-7.34-4.5-5.75-2.65-11.97-4.44-18.34-4.96-6.34-.6-12.83-.05-18.81,2.01-7.42,2.62-14.11,7.14-19.73,12.71-8.54,8.48-14.89,19.08-20.01,29.94-4,8.47-7.08,17.13-10.44,25.83-.75,1.91-1.46,3.8-2.3,5.71-1.54,3.55-2.84,5.83-4.03,7.3-1.22,1.44-2.25,2.09-3.19,2.29-.21.03-.45.07-.67.11-.22.01-.42,0-.54-.04-.21-.06-.18-.21,0-.42.18-.19.49-.49.88-.95.79-.93,1.82-2.69,3.01-5.13,1.75-3.63,3.2-7.57,4.71-11.53,1.49-3.97,3-8.01,4.6-12.05,3.22-8.08,6.83-16.21,11.31-23.95,3.32-5.75,7.14-11.28,11.63-16.3,4.5-5,9.71-9.47,15.64-12.83l.05.06Z"/><path class="cls-1" d="m260.93,174.88c-3.1-.55-6.16-1.28-9.18-2.14-1.1-.31-2.21-.58-3.3-.94-3.83-1.29-7.56-2.87-11.11-4.8-1.57-.87-3.13-1.78-4.63-2.77-.95-.65-1.9-1.33-2.77-2.11-.84-.82-1.5-1.84-1.98-2.93-.3-.67-.14-.64.45-.35.31.14.69.36,1.22.54.53.18,1.06.42,1.59.75,3.25,2.79,7.25,4.86,11.29,6.9,2.44,1.21,5.18,2.01,7.85,2.81,2.94.88,5.93,1.63,8.96,2.2,1.86.36,3.74.66,5.62.86,2.85.32,5.74.52,8.57.38,2.2-.11,4.34-.51,6.41-1.04.45-.13.91-.21,1.37-.3.85-.19,1.43-.25,1.85-.27.44.03.73.14,1,.31.12.08.27.14.36.21.14.13.07.32-.19.6-.26.27-.68.72-1.33.99-.95.44-1.91.94-2.95,1.18-1.03.25-2.08.46-3.15.59-2.13.28-4.29.36-6.45.32-3.2-.07-6.38-.45-9.52-.95v-.06Z"/><path class="cls-1" d="m308.29,169.22c-1.83,1.03-3.86,1.7-5.93,1.92l-1.13.13c-.38.01-.76.02-1.14,0-1.33-.06-2.63-.35-3.87-.74-.62-.16-1.33-.49-1.94-.89-.6-.45-1.16-.99-1.51-1.66-.66-1.18-.78-2.49-.71-3.68.07-.76.15-1.53.44-2.23.27-.69.59-1.38,1.27-1.83.56-.2.46-.17.71.37.14.28.24.61.41,1,.11.37.13.72.06,1.06-.09.61-.24,1.17-.31,1.72-.06.55-.07,1.07,0,1.52.08.45.24.82.49,1.17.24.34.61.66,1.11.92.26.18.68.27,1.05.39.38.1.77.23,1.16.25l1.19.13c.4,0,.79-.01,1.19,0,1.73-.04,3.47-.43,5.08-1.18l.74-.35.7-.43c.48-.27.92-.61,1.35-.96,1.3-1.06,2.49-2.32,3.37-3.76.67-1.14,1.12-2.36,1.48-3.6.08-.27.13-.55.23-.82.37-.99.59-1.27,1.32-1.33.15-.02.29-.06.4-.06.33-.03.81.57.71,1.44-.05,1.32-.5,2.59-1.02,3.86-.27.62-.61,1.23-.94,1.84-.39.58-.76,1.17-1.2,1.71-1.28,1.65-2.9,3.06-4.72,4.14l-.04-.05Z"/><path class="cls-1" d="m297.08,186.27h1.69c.57-.02,1.14-.03,1.71-.08.42-.04.83-.13,1.25-.17,1.48-.16,2.96-.37,4.43-.66.66-.11,1.31-.29,1.94-.46.8-.28,1.67-.36,2.53-.47.27-.02.27.07.1.29-.17.2-.48.6-.91.88-.75.54-1.61.75-2.45,1.04-.84.29-1.71.46-2.61.56-1.06.13-2.13.44-3.22.6-1.19.17-2.4.3-3.62.32-.75.04-1.5-.02-2.25-.05-1.14-.1-2.28-.25-3.39-.55l-.66-.14-.65-.2c-.22-.07-.44-.12-.65-.2l-.63-.29c-.18-.09-.38-.16-.56-.27-.63-.46-.68-.8-.48-1.21.05-.1.09-.2.15-.29.2-.28.63-.33,1.07-.18,1.21.55,2.48.96,3.91,1.21,1.05.2,2.17.25,3.29.27v.05Z"/><path class="cls-1" d="m312.85,191.49c-.02.45-1.6,12.59-6.59,14.69,0,0,1.8,2.11,3.58.98s3.09-11.07,3.09-11.07l-.08-4.6Z"/><path class="cls-1" d="m298.1,202.27c-.79.98-1.61,1.93-2.5,2.82-.32.33-.59.7-.94,1-1.18,1.1-2.51,2.05-3.89,2.88-.6.39-1.26.7-1.89,1.03-.41.2-.84.39-1.28.53-.45.11-.94.11-1.4.13-.29,0-.28-.18-.11-.48.17-.29.46-.76.84-1.05,1.42-.86,2.82-1.71,4.31-2.61.45-.27.84-.63,1.24-.98l1.13-1.14c.81-.85,1.62-1.72,2.35-2.66.46-.57.9-1.16,1.3-1.77.62-.92,1.2-1.88,1.66-2.88.34-.79.53-1.62.79-2.41l.15-.53c.3-.62.53-.78.98-.81.1,0,.2-.03.28-.03.27,0,.5.37.53.95.06.44,0,.86-.07,1.28-.08.41-.12.86-.29,1.24-.28.8-.66,1.58-1.07,2.33-.61,1.12-1.33,2.17-2.09,3.19l-.04-.03Z"/><path class="cls-1" d="m304.09,203.97c.25.74.58,1.46.96,2.14.14.25.34.45.49.7.55.83,1.19,1.6,1.96,2.23.18.13.36.24.55.36.19.1.4.17.6.25.51.2,1.03.38,1.6.56.18.07.16.22,0,.4-.16.17-.51.44-.92.49-.35-.01-.73.02-1.08-.06-.33-.14-.68-.24-.97-.43-.61-.35-1.16-.79-1.6-1.32-.25-.33-.54-.62-.78-.94-.27-.31-.52-.63-.73-.98-.48-.74-.84-1.55-1.17-2.35-.17-.51-.37-1-.5-1.52-.22-.77-.38-1.56-.52-2.34-.14-.6-.24-1.2-.3-1.81-.01-.13-.02-.27-.02-.4,0-.51.17-.67.36-.77.05-.02.1-.05.14-.07.14-.04.31.16.46.5.13.51.3,1.03.44,1.54.14.51.21,1.04.36,1.55.19.76.39,1.53.7,2.26h-.03Z"/><path class="cls-1" d="m308.25,185.88c-4.38,1.05-8.9,1.3-13.37.75-1.63-.22-3.27-.51-4.85-1.09-1.39-.52-2.75-1.2-3.96-2.14-1.21-.93-2.26-2.13-2.97-3.52-.71-1.39-1.04-2.95-1.06-4.45-.02-1.51.24-2.98.63-4.37.2-.61.36-1.21.66-1.87.29-.63.64-1.2,1.03-1.73.78-1.07,1.67-1.99,2.6-2.85,1.2-1.09,2.49-2.06,3.84-2.93,1.35-.86,2.76-1.67,4.38-1.98,1.02-.19.9-.05.33.65-.29.35-.63.94-1.13,1.47-.24.28-.5.58-.8.85-.3.27-.64.51-1,.76-1.27.86-2.49,1.8-3.62,2.79-1.14.97-2.19,2.02-2.95,3.14-.15.28-.37.56-.47.84l-.19.42-.17.52c-.24.7-.43,1.41-.56,2.11-.26,1.41-.32,2.84,0,4.18.36,1.62,1.39,3.07,2.82,4.13,1.43,1.07,3.18,1.76,4.98,2.24,3.99,1.05,8.33.94,12.46.19,2.56-.46,5.07-1.22,7.43-2.27,1.78-.81,3.5-1.77,5.01-2.98,1.51-1.2,2.8-2.65,3.61-4.31.63-1.29.88-2.7.81-4.07-.06-1.38-.52-2.7-1.1-3.97-.25-.56-.58-1.08-.88-1.63-.6-1.01-1.04-1.66-1.22-2.21-.08-.29-.14-.53-.14-.76,0-.24.05-.47.09-.69.05-.2.05-.42.1-.55.09-.23.35-.21.89-.04.56.15,1.22.6,1.86,1.37.95,1.13,1.83,2.41,2.49,3.87.62,1.48,1.01,3.15.99,4.88-.02,1.73-.45,3.48-1.22,5.02-.77,1.54-1.83,2.88-3.01,4.02-3.55,3.36-7.95,5.15-12.34,6.28l-.02-.06Z"/><path class="cls-1" d="m285.82,203.54c.04.83.13,1.66.29,2.43.03.18.1.4.12.53l.02.12c.02.07.05.19.14.17.04,0,.08,0,.13,0,.06,0,.04.01.27-.08.36-.13.72-.27,1.09-.47.8-.38,1.53-.96,2.29-1.49,2.68-1.9,5.08-4.35,6.98-7.16.42-.62.84-1.25,1.2-1.92.38-.65.73-1.32,1.02-2.01.41-.87.74-1.77,1.13-2.66.2-.44.39-.88.56-1.34.17-.45.45-.87.68-1.32.32-.54.47-.43.65.16.09.3.21.71.33,1.23.07.5.1,1.08-.05,1.65-.95,4.09-3.09,7.93-6.1,10.93-1.77,1.8-3.57,3.73-5.78,5.19-.69.43-1.39.84-2.15,1.19-.38.18-.79.31-1.19.47-.59.09-1.18.29-1.77.27-.94-.01-1.46-.97-1.74-1.84l-.11-.33-.07-.25c-.04-.16-.08-.32-.11-.48-.07-.32-.12-.64-.17-.96-.25-1.76-.25-3.51-.14-5.23.18-2.61.71-5.18,1.37-7.66.25-.97.51-1.92.78-2.88.3-.94.62-1.88.99-2.79.17-.4.31-.81.5-1.2.18-.37.33-.67.48-.91.15-.24.33-.41.46-.55.29-.28.54-.39.81-.44.12-.02.25-.07.35-.08.3-.02.33.73.08,1.88-.51,1.64-.98,3.32-1.4,5.02-.49,1.67-.93,3.38-1.26,5.09-.49,2.55-.77,5.16-.6,7.69h-.06Z"/><path class="cls-1" d="m313.22,202.21c-.53,1.9-1.18,3.79-2.22,5.63-.08.11-.28.5-.43.71-.17.25-.35.47-.53.7-.2.19-.41.36-.64.47-.11.07-.25.05-.34.2h-.4c-.24,0-.47-.11-.7-.16-.24-.04-.46-.18-.68-.31-.22-.14-.45-.24-.65-.41l-.49-.42c-.51-.48-.93-1-1.34-1.52-.78-1.06-1.4-2.2-1.91-3.38-.48-1.04-.83-2.13-1.09-3.23-.36-1.39-.54-2.95.19-4.31.18-.42.22-.35.44.03.11.19.29.45.51.75.1.15.26.31.37.47.09.16.17.33.22.51.07.31.24.61.3.91.06.31.14.61.24.91.17.6.4,1.19.63,1.77.44,1.17.92,2.37,1.56,3.5.37.68.89,1.28,1.44,1.78.18.14.2.17.26.21.06.03.12.08.18.11.12.07.29.11.37-.03.06-.05.1-.12.15-.18l.07-.09s.1-.16.14-.24c.21-.38.4-.77.58-1.18.36-.82.66-1.68.94-2.56.32-1.09.6-2.2.81-3.33.33-1.71.57-3.45.72-5.19.14-1.35.05-2.68.1-4.02,0-.3,0-.58.02-.88.02-.28.05-.5.08-.7.05-.19.13-.35.2-.47.14-.26.28-.4.44-.52.07-.05.14-.13.21-.16.2-.11.43.35.77,1.17l.37,1.86c.07.63.13,1.27.19,1.91.06.64.09,1.29.1,1.95.02.66.03,1.31-.07,1.97-.2,1.94-.57,3.89-1.03,5.83h-.06Z"/><path class="cls-1" d="m242.35,225.93c1.29-2.04,2.55-4.09,3.91-6.09l2-3.01,2.07-2.96c.99-1.45,1.96-2.92,3.01-4.32,3.7-4.96,7.6-9.78,11.63-14.45,1.75-2.11,3.57-4.18,5.36-6.22,2.34-2.59,4.59-5.29,7.43-7.41.87-.67.82-.51.41.36-.23.52-.51,1.15-.81,1.84-.36.73-.88,1.51-1.5,2.3-1.08,1.41-2.19,2.78-3.33,4.14-1.15,1.35-2.19,2.78-3.37,4.1-2.31,2.68-4.64,5.36-6.94,8.08-2.79,3.23-5.29,6.91-7.83,10.46-1.4,1.95-2.75,3.93-4.12,5.91-1.31,2.01-2.68,3.98-3.94,6.03l-2.35,3.76-2.25,3.82c-1.13,1.93-2.19,3.91-3.28,5.87-1.04,1.99-2.08,3.97-3.04,5.97-.73,1.57-1.42,3.13-2.1,4.7-.64,1.58-1.26,3.17-1.96,4.72-.29.69-.57,1.37-.86,2.07-1.12,2.58-1.64,3.33-2.43,3.66-.18.08-.37.19-.53.22-.52.08-.44-1.13.17-3.12.91-2.96,1.92-5.98,3.22-8.92.67-1.46,1.34-2.94,2.02-4.42.69-1.47,1.45-2.92,2.18-4.38,1.07-2.18,2.3-4.29,3.45-6.43,1.22-2.11,2.43-4.22,3.69-6.31l.06.03Z"/><path class="cls-1" d="m234.46,261.4c2.71.49,5.24,1.35,7.7,2.34.89.37,1.81.69,2.68,1.11,3.06,1.49,5.95,3.3,8.63,5.37,1.19.92,2.37,1.85,3.49,2.84,1.5,1.2,2.74,2.75,3.53,4.53.26.55.14.53-.36.29-.25-.12-.6-.28-1.03-.46-.23-.1-.46-.19-.69-.29-.12-.05-.23-.12-.37-.16-.09-.08-.21-.15-.31-.23-.37-.28-.72-.58-1.1-.85-.38-.27-.68-.61-1.04-.9-.69-.6-1.4-1.19-2.13-1.75-1.46-1.13-2.95-2.23-4.48-3.33-1.84-1.31-4-2.26-6.12-3.17-2.32-1.01-4.72-1.85-7.17-2.42-1.51-.35-3.04-.57-4.53-.57-.55,0-1.09.04-1.61.11-.24.06-.52.09-.74.18-.23.06-.5.19-.59.23-.34.15-.44.56-.38.9.06.42.27,1,.52,1.5.81,1.55,2.09,2.85,3.38,4.03.29.26.59.48.89.73.54.46.89.75,1.08,1.03.18.3.22.58.2.92-.01.16,0,.33-.02.47-.05.24-.25.36-.61.38-.35,0-.87-.1-1.38-.43-1.53-.95-2.87-2.17-4.05-3.61-.59-.72-1.12-1.51-1.61-2.38-.24-.45-.47-.92-.65-1.47-.17-.44-.37-1.47-.18-2.29.07-.38.24-.73.44-1.05.23-.31.52-.57.83-.79.58-.36.84-.47,1.21-.6.35-.15.68-.21,1.02-.31.67-.15,1.31-.22,1.95-.26,1.26-.05,2.46.1,3.62.28v.07Z"/><path class="cls-1" d="m265.64,270.99c.58-.78,1.15-1.59,1.65-2.43.19-.3.3-.65.48-.95.65-1.08,1.26-2.21,1.8-3.36.25-.51.42-1.05.58-1.59.15-.71.42-1.38.83-2.03.13-.2.36-.12.61.14.24.25.57.71.61,1.16.05.41-.02.79-.1,1.17-.07.38-.17.75-.27,1.13-.2.75-.5,1.47-.92,2.14-.48.81-.75,1.74-1.16,2.59-.46.93-.98,1.84-1.53,2.72-.33.55-.69,1.08-1.04,1.61-.54.8-1.15,1.56-1.67,2.36-.21.31-.38.64-.55.97-.17.33-.38.63-.59.94-.09.13-.17.28-.28.4-.4.46-.69.47-1.18.22-.11-.06-.23-.11-.33-.17-.34-.22-.46-.63-.35-1.1.21-.64.38-1.32.68-1.89.32-.57.68-1.11,1.04-1.65.55-.8,1.1-1.61,1.64-2.42l.06.03Z"/><path class="cls-1" d="m232.65,289.96c.63-.9,1.21-1.84,1.82-2.75l1.7-2.85c.39-.71.71-1.45,1.11-2.15.67-1.25,1.33-2.52,1.97-3.8l.96-1.92.88-1.96c.52-1.16.91-2.37,1.31-3.56.23-.77.5-1.53.77-2.3.15-.38.23-.77.42-1.14.19-.37.38-.73.58-1.11.25-.46.24-.4.3.06.03.23.1.56.2.97.04.2.12.43.13.66,0,.22,0,.46-.04.7-.15.84-.29,1.68-.47,2.51-.23.82-.52,1.61-.79,2.41-.26.81-.6,1.58-.92,2.37-.32.79-.68,1.56-1.06,2.31-.44.92-.88,1.86-1.33,2.8-.44.94-.87,1.9-1.37,2.81-.53,1.01-1.09,2.01-1.68,2.99-.56.99-1.19,1.95-1.8,2.91-.74,1.19-1.58,2.32-2.38,3.48-1.27,1.71-2.61,3.38-4.04,4.96-.55.62-1.06,1.26-1.65,1.84-.56.61-1.15,1.18-1.82,1.69-.29.23-.56.47-.86.69-1.18.73-1.67.79-2.13.53-.11-.06-.23-.11-.31-.19-.26-.25.05-.81.74-1.41,1.03-.9,1.95-1.98,2.9-3.03.51-.49.98-1.04,1.46-1.58l.73-.81.69-.86,1.04-1.27.99-1.32c.68-.86,1.28-1.8,1.91-2.71l.05.03Z"/><path class="cls-1" d="m207.41,304.48c1.75-.82,3.59-1.45,5.46-1.86.68-.15,1.35-.34,2.03-.44,2.4-.36,4.77-.5,7.1-.74,1.04-.12,2.07-.26,3.08-.44,1.29-.28,2.57-.51,3.92-.57.42-.01.42.13.16.48-.26.34-.77.99-1.51,1.32-2.65,1.08-5.44,1.29-8.18,1.4-1.64.06-3.3.41-4.9.72-1.77.33-3.47.84-5.12,1.54-1.02.42-2,.93-2.94,1.51-1.43.87-2.8,1.88-3.98,3.06-.92.92-1.63,1.98-2.31,3.04l-.45.69c-.59.85-.86,1.06-1.45.99-.13-.01-.27-.01-.39-.04-.38-.09-.5-.67-.19-1.46.23-.59.5-1.16.81-1.73.35-.54.72-1.07,1.13-1.57.82-1,1.76-1.93,2.78-2.77,1.51-1.25,3.18-2.29,4.93-3.16l.03.05Z"/><path class="cls-1" d="m236.86,308.6c-.31.35-.64.7-.98,1.05l-.59.53-.61.46c-.83.57-1.68,1.03-2.53,1.42-1.72.78-3.46,1.35-5.22,1.83-1.28.35-2.56.7-3.86.94-2.29.42-4.6.7-6.93.81-1.17.06-2.34.07-3.52,0-.59-.04-1.19-.08-1.79-.18l-.45-.08c-.16-.03-.39-.1-.58-.15-.4-.09-.79-.28-1.14-.47-.61-.34-.99-.93-.97-1.63.09-.67.56-1.18,1.15-1.61.15-.11.29-.23.45-.32.17-.11.33-.2.43-.26.24-.13.49-.24.73-.35.49-.22.99-.41,1.48-.58,1.27-.46,2.58-.76,3.91-.95.33-.05.67-.08,1-.11.34,0,.68,0,1.02.03.34.02.68.05,1.01.1.34.05.67.2,1,.31.81.35.67.33-.02.65-.71.38-1.85,1.2-3.2,1.52-.61.1-1.21.23-1.81.38l-.89.24-.9.21c-.59.15-1.17.32-1.72.51l-.4.15c-.06.03-.13.05-.2.07l-.09.03h0s-.03,0-.04,0c-.04,0-.09.05-.07.09,0,.02.02.04.05.06,0,0,.05.02.08.04l.05.02.21.04c1.14.23,2.44.31,3.72.32,3.09.01,6.33-.6,9.43-1.32,1.71-.4,3.39-.88,5.02-1.47,1.62-.6,3.22-1.31,4.51-2.3.76-.57,1.44-1.42,2.14-2.25.69-.84,1.36-1.7,2.02-2.57,1.98-2.66,3.97-5.34,5.8-8.09,1.4-2.15,2.72-4.28,4.08-6.42.29-.47.58-.94.87-1.41,1.08-1.77,1.43-2.31,1.75-2.66.08-.08.17-.2.23-.24.19-.19.13.76-.44,2.23-.84,2.16-1.85,4.31-2.91,6.46-1.12,2.12-2.42,4.15-3.72,6.2-.95,1.53-2,3-3.09,4.45-1.09,1.45-2.18,2.89-3.4,4.3l-.05-.03Z"/><path class="cls-1" d="m360.95,230.96l-1.7-3.22c-.57-1.07-1.2-2.12-1.79-3.18l-1.81-3.17c-.61-1.05-1.28-2.07-1.91-3.1-.96-1.5-1.92-2.99-2.91-4.45-1.77-2.57-3.42-5.24-5.32-7.73l-2.78-3.79c-.96-1.24-1.96-2.44-2.95-3.65-.89-1.07-1.76-2.16-2.7-3.18-.96-1-1.92-2-2.88-3-1.23-1.27-2.44-2.57-3.76-3.75-1.27-1.23-2.58-2.42-3.53-4.01-.61-.98-.46-.93.52-.61,1,.29,2.92.79,4.42,2.24l2.05,1.86,1.93,1.98c1.26,1.35,2.52,2.69,3.74,4.07,1.16,1.43,2.32,2.86,3.48,4.3.57.73,1.16,1.43,1.7,2.19l1.6,2.27c2.58,3.59,5.32,7.28,7.83,11.04,1.32,2.1,2.68,4.18,3.95,6.31,1.23,2.15,2.52,4.27,3.71,6.45,1.44,2.69,2.91,5.37,4.25,8.11l1.55,3.1,1.46,3.15c1,2.08,1.89,4.21,2.84,6.3.72,1.63,1.43,3.25,2.14,4.87.69,1.63,1.37,3.25,2,4.92.26.74.54,1.46.79,2.22.45,1.41.59,2.42.6,3.12-.03.76-.27,1.22-.58,1.55-.14.15-.27.34-.4.42-.22.14-.47-.09-.79-.55-.17-.23-.31-.51-.43-.85-.16-.35-.37-.78-.53-1.25-.23-.71-.47-1.43-.77-2.16-.27-.73-.55-1.46-.82-2.19-.6-1.47-1.2-2.95-1.8-4.43-.65-1.48-1.24-2.99-1.9-4.48-.66-1.49-1.33-2.99-1.99-4.49-2.07-4.42-4.17-8.86-6.52-13.16l.06-.04Z"/><path class="cls-1" d="m361.61,262.81c2.36.02,4.73.27,7.07.68.85.19,1.72.24,2.56.52,1.49.39,2.94.98,4.32,1.71.68.4,1.36.8,2,1.3.63.55,1.26.93,1.78,2,.32.76.35,1.79-.05,2.59-.38.8-.98,1.35-1.58,1.77-.79.54-1.62.97-2.51,1.16-.44.1-.89.17-1.34.19-.22.04-.45,0-.68-.06-.23-.04-.45-.09-.67-.15-.55-.17-.45-.34-.04-.73.21-.19.49-.48.79-.82.31-.3.66-.5,1.04-.66.67-.3,1.33-.55,1.88-.87.56-.31.91-.72.99-.95.05-.12.08-.22.03-.41-.02-.05-.03-.09-.04-.14v-.02s0,0,0,0c-.12.05,1.04-.46.54-.24h-.01s-.02.01-.02.01l-.05.02c-.12.04-.24.09-.35.14-.16.08-.13.06-.13.06h0s-.13-.17-.2-.26c-.42-.45-1.03-.94-1.68-1.35-1.58-1.02-3.58-1.55-5.51-2.02-2.15-.5-4.39-.76-6.63-.89-.69-.04-1.39-.02-2.08-.03-.7-.01-1.39-.01-2.09.05-2.11.09-4.23.32-6.31.67-1.6.38-3.16.74-4.71,1.22-.34.1-.67.22-1.02.31-1.3.3-1.77.17-2.19-.27-.1-.1-.21-.2-.28-.31-.23-.35.21-.83,1.12-1.3,2.73-1.26,5.79-2.13,8.95-2.5l1.76-.24,1.78-.13c.59-.04,1.18-.09,1.78-.11l1.79-.02v.06Z"/><path class="cls-1" d="m374.06,289.99c-1.24-2.05-2.39-4.16-3.48-6.29-.39-.79-.84-1.54-1.21-2.33-1.26-2.82-2.33-5.72-3.31-8.63-.38-1.31-.92-2.58-1.26-3.89-.22-.84-.58-1.65-.68-2.52-.05-.44-.14-.86-.14-1.31,0-.44,0-.89.01-1.34.02-.56.03-.48.34-.09.16.2.4.47.72.79.15.16.35.33.5.52.13.19.26.4.37.63,1.47,3.18,2.26,6.51,3.36,9.84.64,2,1.65,3.93,2.59,5.85,1,2.13,2.11,4.22,3.27,6.28.73,1.26,1.46,2.52,2.25,3.75,1.17,1.87,2.4,3.73,3.7,5.51,1,1.38,2.14,2.63,3.17,3.98.23.29.47.57.69.88.41.57.66.95.76,1.28.06.36.05.59-.02.83-.03.11-.05.23-.09.32-.07.14-.24.13-.51.01-.26-.12-.69-.3-1.02-.69-2.19-2.14-4.16-4.68-6.05-7.3-1.39-1.96-2.74-3.96-4.01-6.02l.05-.03Z"/><path class="cls-1" d="m393.42,303.76c1.54.54,3.06,1.17,4.49,1.94.54.25,1.07.53,1.58.82,1.77,1.12,3.39,2.43,4.88,3.85.63.66,1.33,1.25,1.96,1.89.83.8,1.64,1.65,2.04,2.81.14.35,0,.41-.42.37-.21-.02-.5-.05-.83-.09-.16-.03-.35-.04-.51-.09-.15-.06-.29-.14-.42-.24-.43-.38-.97-.62-1.34-1.04-.4-.39-.81-.76-1.22-1.14-.4-.38-.81-.76-1.22-1.14-.4-.39-.78-.81-1.19-1.19-.48-.47-1.03-.89-1.62-1.25-.57-.38-1.18-.7-1.78-1.04-.64-.4-1.34-.69-2-1.05-.7-.28-1.38-.63-2.1-.87-.88-.34-1.78-.6-2.69-.85-1.39-.33-2.8-.68-4.22-.81-1.11-.12-2.21-.05-3.31-.05-.24,0-.48.04-.72.02-.9-.05-1.19-.21-1.38-.69-.04-.11-.1-.22-.12-.33-.08-.36.3-.67.98-.81,2.03-.43,4.2-.37,6.38-.13,1.62.14,3.23.56,4.81,1.03v.06Z"/><path class="cls-1" d="m368.43,299.1c2.42,3.62,4.92,7.26,7.68,10.52.53.63.97,1.06,1.54,1.45.58.39,1.23.71,1.9,1.03,2.41,1.05,5.14,1.61,7.87,1.93,1.37.16,2.76.25,4.14.27.69.02,1.38.01,2.07-.01l1.03-.05.75-.06c.3-.03.6-.07.9-.15.15-.04.3-.08.43-.15.12-.07.29-.16.27-.33-.12-.29-.49-.37-.76-.47-.29-.09-.59-.15-.87-.2l-.95-.18-1.17-.2-2.35-.34c-.79-.09-1.58-.22-2.36-.37-.79-.13-1.57-.27-2.36-.47-.98-.24-.85-.26.01-.49.86-.24,2.47-.71,4.34-.65,1.65.1,3.31.25,4.99.51l.53.09.61.12c.41.07.8.18,1.19.28.74.23,1.41.52,1.81.85.41.33.65.65.77,1.03.05.19.08.41.12.69-.06.28-.15.52-.21.71-.27.75-1.29,1.3-2.75,1.63-.68.18-1.53.27-2.23.36-.43.04-.86.06-1.29.09-1.71.07-3.4.02-5.08-.16-2.01-.2-4.06-.45-6.11-.89-2.04-.44-4.11-1.05-6.01-2.2-.52-.33-1.03-.69-1.49-1.14-.49-.45-.79-.87-1.19-1.3-.73-.87-1.44-1.74-2.11-2.64-1.37-1.77-2.65-3.6-3.92-5.42-1.55-2.26-3.06-4.54-4.53-6.85-2.23-3.5-4.34-7.09-6.35-10.68-1.55-2.8-3.17-5.51-4.42-8.45-.3-.63-.58-1.27-.82-1.94-.49-1.23-.67-2.09-.73-2.71-.07-.62-.03-1,.1-1.32.06-.15.1-.33.17-.43.23-.31.8.62,1.58,2.31,1.2,2.5,2.53,5.01,3.93,7.55,1.38,2.54,2.81,5.11,4.33,7.65,2.25,3.77,4.59,7.51,7.07,11.16l-.04.04Z"/><path class="cls-1" d="m339.87,260.6c-.26-.98-.5-1.95-.72-2.93-.08-.36-.24-.69-.3-1.05-.11-.64-.23-1.27-.31-1.92-.11-.63-.16-1.28-.18-1.93-.02-.58-.1-1.14-.15-1.7-.09-.72.01-1.47.19-2.19.06-.22.16-.19.34,0,.17.18.49.51.66.88.36.67.52,1.32.72,1.99.17.67.4,1.33.4,2.05.05.86.41,1.68.65,2.51.27.92.54,1.84.84,2.76.19.56.38,1.13.59,1.68.31.84.63,1.69,1.06,2.47.33.61.85,1.09,1.24,1.62.09.11.19.21.27.33.07.11.12.21.14.3.01.09-.02.21-.05.3-.07.19-.18.37-.35.58-.08.1-.14.2-.22.28-.23.26-.67.32-1.27.14-1.31-.79-1.92-2.06-2.53-3.28-.42-.93-.78-1.88-1.09-2.85l.06-.03Z"/><path class="cls-1" d="m316.9,274.14l-2.82.29-2.83.18c-1.88.16-3.78.18-5.67.21-1.38.05-2.76.09-4.13.04-4.86-.1-9.7-.66-14.48-1.42-2.11-.41-4.27-.63-6.34-1.14-1.33-.32-2.7-.52-4.01-.92l-.99-.31-.95-.41-.95-.42c-.31-.15-.61-.35-.91-.51-.74-.46-.63-.43.16-.54.79-.12,2.27-.5,3.78-.24,5.34,1.05,10.65,2.11,16.13,2.8,1.63.23,3.32.27,5.01.35,1.69.07,3.4-.03,5.09,0,1.86.01,3.71-.13,5.57-.16,1.86-.1,3.71-.24,5.57-.38,2.28-.26,4.57-.46,6.83-.86,3.44-.51,6.86-1.22,10.19-2.12,1.29-.37,2.54-.82,3.78-1.26,1.22-.49,2.45-.98,3.65-1.5.53-.24,1.03-.5,1.56-.73,1.99-.8,2.68-.89,3.44-.44.16.09.35.15.47.24.36.23-.16,1.19-1.57,2.13-.5.39-1.07.62-1.62.91-.56.28-1.12.56-1.69.82-1.16.48-2.33.96-3.53,1.39-1.21.4-2.42.8-3.65,1.16-1.24.32-2.49.64-3.73.97-3.73.83-7.51,1.5-11.31,1.94v-.07Z"/><path class="cls-1" d="m251.82,296.75c1.59-3.13,3.54-6.09,5.9-8.74,2.35-2.65,5.11-5.01,8.28-6.77,3.18-1.72,6.82-2.76,10.49-2.76.91-.02,1.82.1,2.73.15.89.15,1.79.29,2.67.49.87.26,1.73.46,2.6.78.89.33,1.75.74,2.55,1.24,2.36,1.46,4.19,3.57,5.54,5.83,1.35,2.28,2.27,4.72,2.96,7.18,1.19,4.35,1.75,8.78,2.05,13.18.3,4.41.33,8.81.24,13.2-.21,8.78-.91,17.5-1.7,26.2-.7,7.72-1.46,15.48-2.06,23.13-.72,9.83-1.38,19.73-.69,29.44.2,3.04.27,2.67-.71.18-.47-1.25-.95-3.09-1.39-5.34-.39-2.25-.55-4.92-.54-7.79.02-5.1.34-10.15.72-15.2.38-5.04.84-10.08,1.3-15.1.92-10.06,1.94-20.11,2.47-30.21.31-6.04.37-12.22-.11-18.37-.25-3.07-.62-6.14-1.24-9.13-.62-2.99-1.48-5.92-2.77-8.58-1.42-2.9-3.49-5.49-6.29-6.84-.34-.19-.7-.32-1.06-.46-.35-.15-.75-.25-1.14-.36-.78-.21-1.56-.46-2.37-.55l-1.2-.2c-.4-.04-.8-.05-1.21-.08-.8-.08-1.61-.03-2.41.01-3.21.19-6.34,1.28-9.14,2.96-2.82,1.67-5.28,3.94-7.41,6.5-2.66,3.14-4.7,6.73-6.4,10.55-.43.95-.9,1.88-1.3,2.85l-1.2,2.9c-.82,1.93-1.56,3.89-2.31,5.85-4.52,11.89-8.55,24.06-12.57,36.05-3.12,9.33-6.04,18.53-9.4,27.69-.77,2.01-1.42,4.01-2.29,6.01-.79,1.86-1.39,3.41-2.02,4.67-.63,1.26-1.18,2.26-1.64,3.07-.91,1.64-1.8,2.41-2.47,3.01-.31.27-.66.66-.85.81-.32.25-.12-.37.33-1.77.12-.34.22-.76.42-1.16.18-.42.42-.85.61-1.38.4-1.03.88-2.23,1.45-3.56,3.32-7.94,6.15-16.4,9.05-24.96,2.87-8.59,5.77-17.3,8.68-26.02,2.19-6.48,4.4-12.98,6.77-19.44.57-1.62,1.21-3.22,1.82-4.84.61-1.61,1.22-3.22,1.9-4.82,1.29-3.21,2.67-6.39,4.29-9.52l.07.02Z"/><path class="cls-1" d="m318.04,305.11c.52-3.27,1.28-6.54,2.44-9.73,1.17-3.18,2.8-6.32,5.23-8.95,2.44-2.6,5.76-4.55,9.27-5.2.87-.21,1.75-.28,2.63-.37.88-.02,1.73-.09,2.65,0,1.8.12,3.6.52,5.25,1.22,2.42.99,4.53,2.48,6.39,4.14,1.86,1.67,3.47,3.54,4.91,5.5,2.53,3.47,4.6,7.17,6.45,10.95,1.86,3.78,3.47,7.65,4.97,11.54,2.99,7.8,5.51,15.74,7.93,23.69,2.15,7.05,4.27,14.15,6.52,21.09,1.45,4.45,2.97,8.89,4.7,13.21.86,2.16,1.8,4.28,2.83,6.3.5,1.02,1.06,2,1.68,2.91.6.92,1.29,1.76,2.07,2.37.97.77,1.61.75,1.57.93-.02.09-.71.44-2.08.12-1.37-.32-3.05-1.53-4.5-3.27-.71-.88-1.47-1.86-2.1-2.96-.65-1.11-1.23-2.31-1.78-3.59-1.9-4.52-3.44-9.11-4.92-13.69-1.47-4.59-2.85-9.19-4.22-13.79-2.75-9.2-5.45-18.4-8.59-27.48-1.88-5.42-4.07-10.86-6.7-16.09-2.64-5.2-5.69-10.3-9.68-14.31-2.17-2.2-4.7-4.01-7.5-4.94-1.4-.45-2.85-.67-4.33-.65-1.52.02-3.02.22-4.46.58-2.88.76-5.43,2.46-7.36,4.8-.96,1.17-1.79,2.47-2.51,3.84-.7,1.39-1.29,2.84-1.8,4.33-1.23,3.69-1.96,7.58-2.44,11.5-.47,3.93-.7,7.9-.77,11.87-.2,12.06.69,24.21,1.65,36.19.76,9.32,1.72,18.45,1.96,27.76.05,2.05.1,4.05.05,6.13-.07,3.85-.46,6.38-.81,8.14-.37,1.76-.79,2.74-1.24,3.48-.21.34-.44.79-.59.97-.54.6-.09-2.44.05-7.92.2-8.15-.46-16.58-1.2-25.12-.67-8.56-1.46-17.26-2.06-26.01-.44-6.5-.77-13.05-.8-19.63-.03-6.58.16-13.2,1.18-19.82h.08Z"/><path class="cls-1" d="m152.05,316.38l-21.33-.36c-2.59,0-5.19-.02-7.78-.03-9.14-.16-18.28-.28-27.41-.22-4.05.02-8.13.14-12.15.25-2.58.07-5.16.27-7.75.27l-3.88.07c-1.29.04-2.59-.06-3.89-.07-1.62-.06-1.4-.05-.05-.32.67-.14,1.63-.37,2.79-.68,1.16-.27,2.52-.51,4.01-.68,5.27-.63,10.56-.74,15.86-.99,5.3-.1,10.61-.13,15.94-.04,6.37.1,13.01-.06,19.52-.02,7.16.09,14.33.18,21.5.26,4.41.06,8.82.12,13.23.18,6.67.07,13.38.17,20.01.12,5.15-.04,10.2-.25,15.28-.44,1.12-.05,2.21-.09,3.34-.14,2.09-.1,3.47.04,4.44.14.97.11,1.54.34,1.99.63.21.13.48.24.6.34.41.3-1.28.9-4.35,1.22-9.11.75-18.73.78-28.37.78-7.16-.02-14.36-.12-21.53-.2v-.06Z"/><path class="cls-1" d="m297.99,124.35c-.38,1.27-.85,2.51-1.42,3.7-.22.43-.34.9-.6,1.31-.82,1.5-1.93,2.81-3.08,4.03-.54.51-1,1.11-1.58,1.57-.36.31-.67.67-1.07.93-.41.25-.87.42-1.32.58-.29.09-.4-.15-.39-.57.01-.41.06-1.07.34-1.5.61-.62,1.18-1.27,1.79-1.86.3-.31.63-.58.93-.89.29-.32.6-.63.92-.93.35-.39.65-.84.93-1.3l.73-1.46c.5-1.08.99-2.19,1.33-3.35.24-.71.41-1.44.58-2.17.21-1.12.43-2.26.46-3.4.05-.89-.14-1.76-.17-2.64-.01-.19-.04-.38-.04-.58,0-.72.15-.96.67-1.13.12-.04.23-.09.35-.11.39-.08.75.21.92.75.57,1.61.59,3.38.43,5.14-.1,1.31-.38,2.62-.67,3.92h-.06Z"/><path class="cls-1" d="m284.31,123.21c1.56,1.36,3.4,2.32,5.43,2.76,1.67.36,3.37.41,5.07.26.71-.06,1.32-.57,1.32-1.32,0-.67-.61-1.39-1.32-1.32s-1.41.09-2.12.08c-.37,0-.74-.03-1.11-.06-.09,0-.18-.02-.27-.03-.43-.05.13.02-.12-.02-.2-.03-.41-.07-.61-.11-1.68-.34-3.1-.98-4.4-2.1-.54-.47-1.34-.53-1.87,0-.48.48-.54,1.4,0,1.87h0Z"/><path class="cls-1" d="m301.06,126.9c3.16,2.52,7.88,3.35,11.76,2.29,1.64-.45.95-3.01-.7-2.56-1.49.41-3.24.43-4.76.15-.86-.15-1.71-.38-2.52-.7-.23-.09-.68-.3-1.01-.49-.16-.09-.33-.19-.49-.29-.1-.06-.19-.13-.29-.2-.03-.02-.25-.19-.11-.08-.56-.45-1.33-.55-1.87,0-.46.46-.56,1.42,0,1.87h0Z"/><path class="cls-1" d="m301.67,144.45c-.14.06-.29.11-.44.14-.08.02-.15.04-.23.05-.06.01-.37.06-.14.03s-.03,0-.08,0c-.08,0-.17.01-.25.02-.18.01-.36.01-.54.01-.35,0-.7-.02-1.04-.06-.15-.01-.3-.03-.44-.05-.08,0-.15-.02-.23-.03-.18-.02.33.05.02,0-.51-.07-1.03-.2-1.54-.2-.75,0-1.33.52-1.51,1.23-.14.56-.06,1.14.04,1.69s.3,1.11.53,1.64c.45,1.03,1.29,2.19,2.54,2.17,1.01-.01,1.9-.84,2.46-1.61.46-.63.69-1.45.67-2.23-.02-.65-.56-1.28-1.25-1.25s-1.27.55-1.25,1.25c0,.09,0,.18,0,.27-.01.22.04-.09.02-.13.01.04-.03.14-.03.18-.03.11-.07.22-.1.33-.03.12.08-.17.07-.16-.02.02-.03.06-.04.08-.04.07-.07.13-.11.2-.03.05-.1.12-.11.17,0,0,.17-.21.09-.11-.02.03-.05.06-.07.08-.05.06-.1.11-.16.17-.03.03-.06.05-.09.08-.03.03-.18.14-.03.04s-.09.06-.12.08c-.08.05-.16.09-.23.14-.13.1.31-.12.17-.07-.06.02-.23.04.04,0s.12-.01.05-.02.37.09.2.03c-.02,0-.07-.03-.09-.03-.02,0,.32.17.16.06-.03-.02-.06-.04-.09-.06-.14-.08.24.22.13.1-.06-.06-.13-.12-.19-.19-.04-.04-.15-.18,0,0s.04.05,0,0c-.06-.08-.11-.17-.17-.26s-.1-.17-.14-.26c-.02-.05-.05-.09-.07-.14-.02-.05-.12-.26-.02-.04s.01.03,0-.02c-.02-.05-.04-.1-.06-.15-.04-.11-.07-.21-.11-.32-.06-.2-.11-.4-.16-.61-.02-.08,0-.23-.05-.3.03.04.04.37.02.16,0-.05,0-.1-.01-.14,0-.08,0-.15,0-.23,0-.03,0-.07,0-.1,0-.19-.07.31-.03.19,0-.02.02-.06.02-.08.02-.17-.09.19-.09.2.01-.02.02-.04.03-.06.03-.04-.22.28-.16.21.04-.04.11-.09-.09.07-.18.14-.34.2-.53.22-.32.04-.15.01-.1.02.06,0,.12,0,.18.01.06,0,.16.04.23.03-.05.01-.37-.05-.15-.02.06,0,.12.02.17.03.33.05.66.09.99.14,1.36.18,2.89.31,4.19-.21.31-.12.57-.27.75-.57.16-.27.22-.66.13-.96-.19-.59-.89-1.13-1.54-.87h0Z"/><path class="cls-1" d="m316.63,117.13c-1.88-1.98-4.49-3.14-7.21-3.3-.65-.04-1.28.6-1.25,1.25.03.71.55,1.21,1.25,1.25.14,0,.27.02.41.03.06,0,.15,0,.2.02-.23-.09-.07-.01.02,0,.27.04.54.1.8.16.28.07.56.15.83.25.13.05.26.09.38.14s.08.04-.02,0c.08.04.16.07.23.11.51.24.99.52,1.45.85.07.05.35.27.16.11.1.09.21.17.31.26.23.2.45.41.66.64.45.47,1.32.49,1.77,0s.48-1.26,0-1.77h0Z"/><path class="cls-1" d="m294.36,160.26c-.03.1-.14.39-.27.84-.11-.03-.2-.06-.31-.1.36-.38.52-.66.57-.74Z"/><path class="cls-1" d="m235.75,74.22c.22-.12.28.23.26.85,0,.2-.16.77-.23.84-.15.13-.29.25-.43.33-.08.05-1.22,0-1.62-.02-.38,0-.74-.13-1.08-.26-.7-.28-1.4-.55-2.07-.89-.15-.07-.29-.17-.41-.3-.42-.43-.9-.72-1.4-.98-.08-.04-.16-.11-.28-.08-.22.06-1.49-.83-1.6-1.02-.29-.44-.61-.84-.89-1.26-.04-.06-.12-.08-.1-.21.05-.28-.08-.35-.18-.47-.14-.16-.26-.33-.35-.53-.05-.1-.02-.27-.01-.42,0-.13.3-.36.35-.37.15-.02.21-.2.32-.31.03-.04.08-.09.11-.12.07-.05,1.31.22,1.4.29.01.04,1.36.85,1.54.9.09.03.13.13.19.22.02.05,1.18.55,1.22.57.2.16.47.2.58.52.02.06.07.08.12.1.41.18.76.46,1.14.7.19.13.42.18.62.28.04.02.06.07.09.1.04.04.08.09.12.1.51.18.97.49,1.52.56.12.02.61.46.76.46.08,0,.23.46.32.41Z"/><path class="cls-1" d="m244.06,68.77c.24.12-.08.36-.75.68-.21.1-.9.28-1.01.25-.21-.05-.42-.1-.57-.16-.09-.04-.67-.91-.89-1.2-.21-.28-.32-.59-.4-.9-.17-.64-.38-1.27-.55-1.91-.04-.14-.05-.29-.02-.45.08-.54-.03-1.04-.22-1.51-.03-.08-.03-.17-.16-.22-.21-.08-.55-1.41-.52-1.6.09-.48.1-.94.15-1.41,0-.07-.05-.12.06-.21.25-.21.17-.32.16-.46-.02-.19-.02-.39.03-.59.02-.1.16-.24.27-.36.1-.11.54-.18.59-.17.16.05.34-.07.52-.13.06-.02.14-.04.19-.05.11-.02,1.14.83,1.16.95,0,.03.66,1.5.77,1.65.05.08.01.19,0,.29,0,.05.58,1.2.59,1.26.04.26.22.49.03.81-.04.06,0,.11.01.16.17.42.19.89.25,1.34.03.23.13.44.19.67.01.04-.02.09-.02.14,0,.06-.03.12-.01.17.18.52.18,1.08.45,1.58.06.11-.09.78-.01.91.05.07-.35.45-.25.5Z"/></svg>