<?xml version="1.0" encoding="UTF-8"?><svg id="Layer_1" xmlns="http://www.w3.org/2000/svg" width="520" height="520" viewBox="0 0 520 520"><defs><style>.cls-1{fill:#0056FF;}.cls-2{opacity:.3;}</style></defs><path class="cls-1" d="M269.58,201.24c-.61.64-1.27,1.16-1.93,1.64-.24.17-.46.38-.71.54-.89.57-1.81,1.04-2.73,1.51-.41.21-.81.42-1.21.64-.25.14-.51.29-.77.42-.13.06-.27.12-.4.17-.13.07-.33-.02-.49-.03-.22-.04-.21-.09-.16-.34.03-.13.06-.31.09-.54.05-.19.16-.3.3-.39.98-.58,1.96-1.14,3.03-1.59.64-.28,1.19-.75,1.75-1.16.62-.45,1.22-.92,1.75-1.45.32-.33.62-.67.89-1.05.4-.57.76-1.2,1.02-1.87.2-.52.34-1.05.49-1.59.03-.12.06-.24.1-.35.17-.43.35-.52.66-.52.07,0,.15,0,.21,0,.22.03.35.27.38.64-.03,1.06-.2,2.18-.77,3.19-.38.76-.88,1.49-1.46,2.16l-.03-.02Z"/><path class="cls-1" d="M356.06,412.23c-.67.1-1.33.2-1.99.24-.24.02-.47.1-.71.11-.86.04-1.71.02-2.56.02-.38,0-.75,0-1.12.01-.24,0-.48.03-.72-.02-.24-.06-.48-.19-.71-.3-.14-.08-.11-.16.02-.31.13-.15.36-.46.6-.64.87-.37,1.73-.52,2.67-.46.56.03,1.1-.19,1.65-.31.61-.12,1.22-.24,1.83-.37.37-.09.75-.16,1.12-.27.56-.16,1.12-.31,1.63-.57.39-.21.71-.55,1.01-.85.07-.07.12-.15.19-.21.25-.21.41-.15.87.39l.29.32c.28.33.46.88.25,1.14-.57.85-1.44,1.29-2.3,1.6-.65.23-1.32.38-1.97.53l-.02-.05Z"/><path class="cls-1" d="M197.15,410.55c-.63.26-1.28.44-1.93.58-.23.06-.45.16-.69.2-.84.14-1.68.2-2.5.23-.36.02-.72.06-1.08.1-.23-.02-.46-.01-.69-.04-.23-.06-.46-.18-.68-.29-.14-.08-.12-.1,0-.23.12-.11.33-.43.56-.63.21-.12.41-.21.62-.3.2-.07.41-.09.62-.13.41-.07.83-.11,1.26-.14.52-.02,1-.29,1.48-.48.54-.2,1.06-.43,1.59-.66.32-.14.65-.3.95-.48.46-.27.93-.56,1.31-.94.28-.31.47-.7.68-1.05.05-.08.08-.17.13-.24.22-.24.42-.21.92.11l.34.22c.37.26.56.61.51.94-.07.5-.3.9-.55,1.3-.28.37-.64.66-1.01.94-.56.41-1.17.72-1.79,1.02l-.03-.05Z"/><path class="cls-1" d="M277.56,317.29c-.53.1-1.07.16-1.6.19-.53.05-1.06.07-1.59.08-.38.02-.76.07-1.14.05-1.35-.06-2.68-.24-3.96-.52-.57-.09-1.14-.24-1.7-.37-.35-.1-.71-.2-1.06-.31-.34-.17-.65-.41-.96-.6-.19-.13-.17-.1.04-.12.2,0,.62-.17,1.05-.26.71.02,1.42.05,2.13.07.68.07,1.37.14,2.09.21.84.12,1.72-.08,2.56-.19.93-.13,1.86-.29,2.78-.54.28-.08.56-.15.85-.21l.84-.25c.84-.28,1.68-.6,2.46-1.02.59-.35,1.09-.82,1.59-1.26l.32-.3c.43-.34.67-.33,1.11-.01.1.07.21.14.3.22.3.26.34.67.09,1.08-.74,1.21-1.86,2.2-3.12,2.96-.96.51-2.01.85-3.05,1.14l-.02-.06Z"/><path class="cls-1" d="M357.99,399.17c.87-.73,1.77-1.3,2.63-1.85.32-.2.59-.44.92-.63.56-.34,1.16-.62,1.76-.89.59-.28,1.18-.55,1.77-.83.52-.25,1.02-.52,1.52-.78.64-.34,1.29-.66,1.99-.89.22-.07.23.03.13.23-.11.2-.33.53-.65.79-1.15.92-2.25,1.87-3.48,2.64-.73.47-1.37,1.13-2.08,1.65-.78.6-1.54,1.17-2.22,1.81-.42.39-.81.8-1.13,1.24-.48.68-.92,1.38-1.05,2.17-.09.62.08,1.23.3,1.71.04.11.13.2.17.3.16.37.05.55-.48,1l-.36.32c-.4.34-.95.36-1.36-.09-.58-.67-.87-1.56-.94-2.43-.07-.88.09-1.76.39-2.58.21-.62.56-1.18.94-1.64.38-.48.79-.91,1.21-1.3l.05.04Z"/><path class="cls-1" d="M405.18,405.63c-.22-.54-.69-1.06-1.28-1.86-.21-.28-.47-.58-.63-.95-.48-1.35-.31-2.7.18-3.78.21-.49.46-.95.76-1.36.08-.14.22-.25.36-.35.13-.11.27-.19.42-.27.28-.17.58-.3.88-.37.19-.05.18.01.1.19-.09.16-.19.5-.32.78-.1.27-.12.58-.16.82-.09.21-.17.42-.23.64-.13.43-.18.87-.28,1.31-.13.56.22,1.05.45,1.46.28.51.87,1.06,1.43,1.82.34.46.62.97.84,1.48.34.78.51,1.62.65,2.44.11.64.29,1.28.32,1.98,0,.15.04.31.02.46-.06.57-.34.69-1.05.57-.16-.03-.32-.05-.48-.09-.51-.14-.92-.47-1.01-.76-.25-.89-.3-1.63-.46-2.43-.12-.58-.28-1.17-.58-1.69l.05-.04Z"/><path class="cls-1" d="M253.52,407.57s16.29-8.19,28.07-22.31c11.78-14.12,15.87-24.32,15.87-24.32,0,0,22.78,32.04,27.1,38.15,4.39,6.21,9.47,8.47,9.47,8.47h-80.51Z"/><path class="cls-1" d="M369.38,361.98c.79,0,10.27,15.61,11.46,22.67s-9.26,11.22-9.26,11.22c0,0-.07,2.25,5.75,3.67,5.82,1.42,25.46,3.24,25.46,3.24v-20.46s-2.55-17.66-4.31-18.38c-1.76-.72-29.1-1.95-29.1-1.95Z"/><path class="cls-1" d="M166.1,361.98s38.91-21.52,40.44-20.2,9.61,11.47,24.36,6.38c14.75-5.1,48.21-35.9,62.26-38.99,14.04-3.09,24.7,1.79,40.52,18.63,15.82,16.84,38.48,46.04,42.14,53.1,3.66,7.06-26.76,23.55-28.04,24.14s-8.06,2.69-8.06,2.69l-23.96-27.53-18.31-26.97s-17.27,29.42-26.34,35.86c-9.07,6.44-25.07,21.46-37.69,23.58-12.62,2.12-30.9.95-39.02-6.92-8.12-7.87-24.13-30.07-24.13-30.07l-4.18-13.69Z"/><path class="cls-1" d="M221.3,311.13c-.3-1.09-.51-2.2-.69-3.31-.08-.4-.19-.79-.24-1.2-.19-1.43-.15-2.88-.1-4.3.02-.63,0-1.26.01-1.88.08-.8.05-1.61.42-2.38.15-.24.1-.21.24,0,.19.22.47.61.56,1.05.44,1.58.53,3.1.6,4.67.04.94.28,1.89.45,2.84.19,1.04.4,2.08.68,3.1.17.63.33,1.27.55,1.89.32.94.66,1.88,1.12,2.76.38.67.84,1.27,1.27,1.89l.29.4c.32.53.27.8-.05,1.17-.07.09-.14.18-.22.25-.26.25-.66.2-1.07-.11-.59-.47-1.07-1.05-1.54-1.65-.43-.62-.79-1.3-1.13-1.99-.49-1.03-.88-2.11-1.24-3.19l.05-.02Z"/><path class="cls-1" d="M187.14,317.61c-1.4-3.47-2.66-7.01-3.6-10.64-.33-1.33-.74-2.64-.98-3.98-.87-4.75-1.19-9.56-1.18-14.35.03-2.13.09-4.26.23-6.36.03-1.35.22-2.7.44-4.04.2-1.34.53-2.66.9-3.96.24-.81.15-.71.16,0,0,.36.06.87.15,1.5.07.62.09,1.34.11,2.11l.06,2.05c.03.68-.08,1.35-.06,2.03,0,1.35-.09,2.7-.04,4.06.01,2.7.03,5.41.19,8.13.02.82.12,1.63.22,2.46.09.82.2,1.65.36,2.47.28,1.65.64,3.29.94,4.93.74,3.59,1.74,7.14,3.02,10.6.81,2.12,1.69,4.21,2.67,6.26,1.48,3.11,3.16,6.14,4.98,9.04,1.41,2.26,2.98,4.36,4.32,6.68.29.52.59,1.01.85,1.56.98,2.02.89,3.02.51,3.48-.09.11-.17.24-.25.28-.3.09-.15-.64-.91-1.96-.51-.98-1.2-1.94-1.9-2.9-.68-.98-1.46-1.92-2.13-2.96-1.37-2.05-2.73-4.17-4.01-6.35-1.89-3.25-3.6-6.64-5.08-10.12l.04-.02Z"/><path class="cls-1" d="M197.1,334.3c-.84-1.35-1.7-2.7-2.52-4.09-.31-.5-.65-.98-.94-1.49-1.02-1.81-2.01-3.67-2.78-5.62-.35-.86-.72-1.71-1.03-2.58-.2-.56-.36-1.13-.5-1.7l-.1-.43-.03-.45c-.01-.3-.06-.59-.09-.88-.04-.36,0-.32.18-.05.12.19.24.39.35.56.13.24.42.47.53.77.51,1.04,1.03,2.08,1.54,3.12.5,1.04,1.08,2.05,1.58,3.11.61,1.27,1.47,2.47,2.27,3.68l2.64,4.03,1.61,2.52c.8,1.29,1.59,2.56,2.35,3.92.57,1.06,1.18,2.13,1.39,3.46.05.29.09.59.08.9-.08,1.17-.5,1.48-1.06,1.44-.13,0-.27,0-.39-.04-.4-.13-.55-.59-.56-1.1-.03-1.53-.91-3.23-2.01-5-.81-1.34-1.66-2.69-2.55-4.03l.04-.03Z"/><path class="cls-1" d="M199.92,340.93c.18-.68.22-1.44.12-2.22-.04-.28-.14-.55-.21-.83-.2-1.01-.57-2.04-1.1-3-.24-.42-.51-.84-.79-1.24-.36-.51-.74-1.02-1.07-1.57-.1-.17-.03-.2.16-.14.18.06.51.19.8.42.51.42,1.02.85,1.49,1.33.45.49.85,1.05,1.17,1.65.37.73.89,1.44,1.17,2.27.31.9.48,1.86.48,2.84,0,.6-.08,1.2-.23,1.8-.23.91-.73,1.71-1.26,2.45-.43.56-.84,1.19-1.47,1.65-.14.09-.27.2-.44.26-.6.24-.87.1-1.11-.43-.06-.12-.12-.24-.16-.37-.13-.43-.02-.82.17-1.08.15-.18.27-.38.39-.56.13-.16.26-.31.39-.46.25-.31.51-.63.72-.99.16-.27.3-.55.41-.84.13-.28.24-.61.31-.95h.06Z"/><path class="cls-1" d="M199.88,334.29c.42.79.86,1.71,1.1,2.67.1.34.19.69.23,1.04.12,1.25-.03,2.47-.33,3.6-.12.51-.24,1.01-.39,1.49-.09.31-.19.62-.32.93l-.1.22-.18.19c-.12.12-.23.23-.37.36-.16.14-.11.14-.11-.05,0-.09-.03-.23-.08-.41-.04-.11-.07-.2-.1-.28-.02-.05-.03-.1-.06-.15,0-.05.02-.09.02-.13.27-1.2.39-2.39.46-3.57.08-.72-.13-1.44-.33-2.12-.21-.75-.47-1.47-.89-2.19-.25-.45-.53-.9-.82-1.36-.44-.69-.86-1.39-1.33-2.05-.35-.52-.87-.91-1.2-1.44-.08-.11-.17-.21-.23-.33-.27-.44-.16-.71.09-1.01.06-.07.11-.15.17-.2.19-.19.54-.17.94,0,1.1.59,1.86,1.5,2.51,2.47.48.74.9,1.49,1.36,2.27l-.04.03Z"/><path class="cls-1" d="M244.38,294.88c-.37-.92-.74-1.84-1.06-2.78-.34-.93-.66-1.87-.94-2.82-.22-.69-.46-1.37-.63-2.07-.61-2.47-1.12-4.96-1.4-7.47-.15-1.11-.24-2.23-.37-3.33-.05-.71-.1-1.42-.09-2.14.03-.71.06-1.41.1-2.14.03-.44.05-.38.14-.01.17.66.33,1.29.47,1.84.19.7.38,1.4.49,2.1l.45,2.09c.14.7.34,1.38.48,2.08.13.7.26,1.4.4,2.1.3,1.69.93,3.37,1.49,5.03l.96,2.73c.35.9.67,1.81,1.05,2.7.46,1.1.93,2.19,1.46,3.25.79,1.62,1.65,3.22,2.62,4.71.8,1.14,1.66,2.2,2.55,3.24l.59.68c.73.85.77,1.27.5,1.82-.06.13-.11.27-.19.37-.25.36-.83.23-1.52-.31-1.94-1.7-3.64-3.85-4.93-6.23-1-1.74-1.87-3.56-2.66-5.4l.05-.03Z"/><path class="cls-1" d="M294.08,301.48c-.52,1.16-1.07,2.31-1.72,3.46-.22.41-.48.92-.72,1.26-.93,1.31-2.01,2.6-3.21,3.76-.53.51-1.1,1.01-1.72,1.44-.39.28-.84.5-1.32.63-.23.08-.48.12-.72.14-.24.05-.49.02-.74-.06-.3-.09-.25-.12-.04-.34.22-.24.55-.62.92-.86.65-.47,1.25-.94,1.83-1.52.58-.58,1.12-1.24,1.68-1.91.68-.8,1.13-1.87,1.71-2.82.55-.96,1.04-2.1,1.49-3.23.27-.7.57-1.4.83-2.11.4-1.08.8-2.17,1.09-3.27.21-.86.33-1.73.5-2.59.04-.19.05-.38.1-.57.19-.69.39-.88.86-.94.11-.01.22-.04.32-.04.34,0,.57.35.62.92.05.83,0,1.67-.07,2.52-.07.85-.31,1.66-.51,2.49-.32,1.22-.72,2.43-1.13,3.64l-.06-.02Z"/><path class="cls-1" d="M294.46,249.28c.35.53.58,1.12.87,1.67.22.58.47,1.14.65,1.72.12.43.3.83.42,1.25.35,1.51.55,3.03.65,4.53.03.67.07,1.33.1,1.99,0,.85-.19,1.7-.21,2.54-.02.26-.05.22-.1,0-.07-.22-.07-.63-.25-1.1-.14-.42-.25-.83-.4-1.24-.13-.41-.16-.82-.26-1.23-.18-.82-.31-1.63-.42-2.46-.15-.99-.52-1.97-.9-2.9-.2-.52-.4-1.03-.65-1.52-.22-.51-.5-.98-.78-1.45-.16-.3-.36-.56-.56-.83-.21-.26-.38-.56-.63-.78-.68-.73-1.43-1.46-2.33-1.89-.67-.4-1.49-.43-2.19-.64-.17-.02-.34-.01-.5-.04-.61-.09-.75-.36-.79-.99,0-.14-.03-.29-.03-.42,0-.23.09-.42.25-.58.16-.15.4-.29.68-.29.42-.01.85-.04,1.28.02.42.07.85.17,1.27.32.43.12.8.38,1.19.59.39.21.77.46,1.11.76l.76.64c.24.23.45.49.67.73.45.48.8,1.03,1.16,1.56l-.04.03Z"/><path class="cls-1" d="M278.66,245.03c-.26-.19-.53-.44-.67-.66-.17-.22-.33-.44-.44-.7-.26-.49-.36-1.04-.41-1.54-.02-.36-.07-.72-.01-1.06.15-1.2.62-2.18.97-3.17.16-.44.27-.88.36-1.32.05-.28.09-.57.12-.84.06-.28.14-.55.21-.84.05-.18.21-.17.4-.02.19.15.49.47.55.85.03,1.34-.29,2.56-.66,3.68-.22.67-.3,1.39-.3,2.02,0,.7.14,1.29.57,1.79.21.27.51.43.95.53.65.15,1.42.2,2.2.22.61.02,1.25-.09,1.98.08.16.05.32.08.48.15.59.31.65.63.36,1.07-.07.1-.13.21-.21.3-.28.3-.64.42-.87.42-.69.05-1.52-.03-2.67-.11-.83-.1-1.8-.13-2.94-.81l.02-.04Z"/><path class="cls-1" d="M281.35,227.94c-.11.46-.24.91-.37,1.36-.04.16-.06.33-.12.49-.2.56-.43,1.11-.66,1.64-.09.24-.21.47-.3.71-.13.3-.26.6-.47.86-.07.08-.15.03-.22-.09-.07-.12-.16-.32-.14-.51.04-.32.08-.63.12-.96.07-.31.19-.6.3-.89.15-.35.16-.76.22-1.14.07-.42.13-.84.18-1.26.03-.26.06-.52.06-.79.01-.4.03-.8-.03-1.19-.05-.3-.22-.59-.36-.87-.03-.06-.06-.12-.08-.19-.05-.24.06-.34.52-.47l.31-.09c.35-.09.66-.04.82.14.49.53.47,1.2.46,1.83-.02.48-.11.95-.19,1.42h-.04Z"/><path class="cls-1" d="M237.86,217.44c-1.07-.25-2.14-.53-3.19-.83-.39-.1-.78-.17-1.16-.29-.67-.21-1.34-.44-2-.68l-1.95-.8c-.58-.23-1.16-.44-1.74-.65-.75-.24-1.47-.59-2.14-1.02-.21-.13-.14-.21.1-.28.24-.06.68-.15,1.14-.1.41.03.79.13,1.17.23.38.1.76.2,1.15.29.76.2,1.52.42,2.27.68.9.32,1.87.5,2.82.71,1.04.25,2.08.49,3.13.69.65.13,1.3.25,1.95.34.99.14,1.98.3,2.97.34.77.03,1.53-.07,2.29-.14.17-.01.33-.05.5-.06.62-.03.82.14.95.66.03.12.07.24.09.36.06.4-.2.74-.67.88-1.41.35-2.91.33-4.39.2-1.11-.08-2.2-.31-3.29-.52v-.05Z"/><path class="cls-1" d="M237.92,213.37c2.08.6,4.13,1.36,6.12,2.31.72.34,1.46.72,2.15,1.15.6.44,1.2.82,1.75,1.36.56.47,1.1,1.08,1.53,1.71.84,1.28,1.33,2.74,1.44,4.2.11,1.29,0,2.59-.35,3.79-.44,1.53-1.12,3.03-2.3,4.1-.34.35-.39.22-.35-.23.03-.3.07-.61.1-.9.03-.18.02-.39.06-.58.05-.19.11-.38.19-.57,1.02-2.73,1.07-5.53-.16-7.87-.7-1.43-2.33-2.24-3.93-3.02-1.79-.82-3.68-1.6-5.64-2.17-1.21-.35-2.44-.67-3.68-.92-1.88-.37-3.8-.7-5.7-.8-1.48-.07-2.94.11-4.36.3-.32.03-.61.13-.92.16-1.16.1-1.5,0-1.91-.76-.09-.17-.2-.34-.27-.51-.24-.58.18-1.17,1.13-1.52,2.78-.89,5.78-.85,8.69-.57,2.17.23,4.31.72,6.43,1.27v.07Z"/><path class="cls-1" d="M251.32,218.85c.33.99.38,1.97.38,2.88,0,.33.05.66,0,.99-.12,1.14-.37,2.26-.76,3.3-.15.47-.3.93-.45,1.39-.19.59-.41,1.17-.78,1.68-.12.16-.26.07-.38-.15-.12-.22-.25-.57-.21-.91.17-1.19.21-2.33.43-3.47.2-.68.1-1.42.07-2.11-.03-.76-.11-1.51-.32-2.2-.12-.43-.27-.84-.5-1.2-.34-.55-.81-1.05-1.43-1.39-.48-.26-1.05-.33-1.61-.44-.13-.02-.26-.02-.37-.08-.43-.19-.51-.41-.37-1.04.03-.14.05-.29.09-.43.13-.46.46-.78.88-.82.62-.1,1.19.07,1.79.28.59.23,1.18.57,1.73,1.04.83.67,1.49,1.67,1.86,2.65l-.05.03Z"/><path class="cls-1" d="M248.1,219.45c-.94-.95-2.31-1.58-3.8-1.95-.54-.14-1.11-.2-1.68-.3l-1.53-.24c-.55-.08-1.09-.19-1.62-.32-1.06-.26-2.09-.6-3.09-.99-.87-.36-1.74-.72-2.6-1.08l-1.65-.66c-.56-.19-1.06-.54-1.6-.78-.33-.18-.27-.2.06-.24.33,0,.99-.17,1.69-.05,2.42.6,4.69,1.32,6.88,2.08.67.2,1.37.33,2.08.39.74.06,1.52.11,2.28.23,1.67.27,3.41.72,4.93,1.72.92.63,1.74,1.41,2.3,2.43.83,1.51,1.02,3.21.96,4.82-.05,1.26-.24,2.51-.7,3.71-.11.26-.21.52-.33.78-.27.45-.47.75-.71.87-.25.12-.47.12-.73.05-.12-.03-.24-.05-.34-.1-.17-.08-.25-.24-.28-.47-.03-.24-.01-.53.11-.82.68-1.78.97-3.66.87-5.51-.06-.68-.2-1.35-.44-1.95-.12-.3-.27-.57-.43-.82-.19-.26-.41-.52-.65-.75l.03-.04Z"/><path class="cls-1" d="M222.22,213.95c1.02-.57,2.1-1.01,3.21-1.3.4-.11.79-.27,1.2-.33,1.45-.24,2.92-.08,4.3.17.61.15,1.22.29,1.8.45.38.11.75.23,1.11.38.34.21.67.43.99.66.39.29-.37.46-1.29.67-1.48-.11-2.81.07-4.19-.18-.84-.08-1.69.16-2.51.34-.91.2-1.81.5-2.65.94-.52.26-1.03.57-1.5.93-.71.55-1.41,1.15-1.92,1.88-.41.57-.61,1.25-.83,1.89-.06.14-.09.28-.15.42-.23.49-.43.6-1.06.51-.14-.02-.28-.03-.42-.06-.46-.09-.74-.46-.73-.99.01-1.57.87-2.99,1.88-4.2.76-.91,1.73-1.62,2.72-2.25l.04.05Z"/><path class="cls-1" d="M257.92,143.5s5.43,6.35,9.76,7.85c4.33,1.5,7.17-1.53,7.7-1.69s1.69-8.63,1.54-9.45-5.29-14.33-8.14-16.15c-2.84-1.83-16.16-6.32-19.36-6.64-3.2-.32-15.2,5.72-15.2,5.72l-3.9,4.85s-5.75-11.45-22.13-9.38c-16.38,2.07-25.31,4.31-30.55,11.24-5.23,6.93-12.89,19.34-13.75,30.4-.86,11.07-.62,22.13-3.52,28.12s-12.88,16.8-16.5,20.12c-3.61,3.33-11.18,10.31-11.17,14.04,0,3.74-1.55,6.84,1.89,10.47,3.44,3.63,4.77,6.97,11.47,6.49,6.7-.48,14.16-2.36,14.16-2.36,0,0,.31,5.86,5.99,9.6s7.56,4.87,11.02,3.27c3.46-1.6,9.35-7.69,9.35-7.69,0,0,4.2,5.65,7.83,7.22s7.96,2.79,13.32,2.09,10.07-6.11,10.07-6.11c0,0,1.23-7.32,1.24-8.39,0-1.07-2.56-12.57-1.16-16.05s8.09-8.93,12.45-8.18c4.36.75-6.2-4.52-6.92-5.09s-8.69-8.36-10.43-12.04-3.1-5.47-3.1-5.47c0,0-8.28,3.24-11.85-.72-3.58-3.95-4.99-8.89-3.06-12.06,1.94-3.18,4.72-5.66,7.75-5.64,3.03.01,6.1,5.85,9.83,4.91,3.73-.94,12.76-8.23,12.76-8.23l5.01-13.41,1.34-6.53s7.57,4.84,14.08,3.71c6.51-1.13,8.87-3.24,8.87-3.24l3.31-5.55Z"/><path class="cls-1" d="M164.95,412.73l-20.26-.41-7.39-.04-26.05-.46c-3.85-.05-7.73-.03-11.55.02-4.91.03-9.84.35-14.76-.25-1.54-.33-1.33-.19-.04-.58.64-.2,1.56-.43,2.67-.74,1.11-.26,2.41-.46,3.83-.57,10.04-.35,20.07-.48,30.19-.24,6.05.18,12.35.03,18.54.07,6.8.06,13.61.13,20.42.19,4.19.05,8.38.1,12.57.14,6.34.05,12.71.17,19.01.14,4.89-.01,9.69-.2,14.53-.3,1.07-.02,2.11-.08,3.18-.08,3.98-.02,5.25.2,6.1,1.06.19.19.45.39.56.58.38.66-1.25,1.18-4.17,1.35-8.65.5-17.77.59-26.92.48-6.8-.09-13.63-.19-20.44-.28v-.07Z"/><path class="cls-1" d="M327.08,413.07l-19.27-.31-7.03-.02-24.78-.39c-3.66-.04-7.35,0-10.99.04-2.34.03-4.68.05-7.02.04-1.17,0-2.34-.02-3.51-.05-1.17-.04-2.34-.02-3.51-.33-.73-.28-1.04-.41-1.02-.46.02-.06.38-.09,1-.39,1.23-.63,3.5-1.18,6.19-1.27l7.15-.19c2.39,0,4.77-.01,7.16-.02,4.78.01,9.57.07,14.38.21,5.75.16,11.74,0,17.63,0,6.47.05,12.95.11,19.42.16,3.98.05,7.97.1,11.95.15,6.03.08,12.1.15,18.08.23,4.66.02,9.23-.1,13.84-.1,1.02,0,2.01-.02,3.04,0,3.8.12,5.01.47,5.77,1.28.17.19.41.38.5.56.32.62-1.25,1.04-4.01,1.14-8.2.21-16.85.13-25.55.03-6.46-.08-12.95-.16-19.43-.25v-.07Z"/><path class="cls-1" d="M421.16,409.55l9.43.22c1.15.02,2.29-.04,3.44,0,4.04.12,8.09.22,12.13.38,1.79.06,3.6.07,5.38.06,1.14,0,2.29.04,3.44.08.57.02,1.15.06,1.72.11l.86.08c.29.04.57.17.86.24.71.25.62.2.01.48-.3.12-.73.48-1.25.61-.52.17-1.12.32-1.78.39-1.17.11-2.33.24-3.5.31l-3.5.08c-2.33.04-4.67.02-7.03-.14-2.81-.17-5.74,0-8.62,0l-9.5-.04-5.85-.02c-2.95,0-5.92-.02-8.84.04-2.28.05-4.51.28-6.76.41-.5.03-.98.07-1.48.07-1.86.02-2.45-.32-2.85-.95-.09-.15-.21-.3-.26-.44-.18-.48.58-.93,1.93-1.23,2.01-.35,4.07-.53,6.16-.64,2.09-.11,4.21-.2,6.34-.2,3.16-.01,6.34.04,9.51.06v.07Z"/><path class="cls-1" d="M430.22,373.84c.55-.93,1.21-2,1.91-2.74.36-.35.72-.63,1.09-.8.37-.19.71-.21,1.13-.28.78,0,1.59.28,2.16.76.58.47,1.03,1.1,1.33,1.9.31.79.47,1.74.52,2.7.02.24.03.48.03.72v.48c-.01.29-.02.58-.04.87-.15,2.28-.58,4.42-1.05,6.54-.45,1.99-.9,3.97-1.5,5.9-1.07,3.4-2.32,6.73-3.79,9.99-.74,1.63-1.53,3.23-2.45,4.8-.46.78-.95,1.56-1.53,2.31-.28.38-.6.75-.95,1.11-.18.18-.37.36-.58.53l-.65.43c-1.56.94-3.16,1.35-4.74,1.71-1.58.29-3.16.57-4.73.63-4.02.19-8.12.34-12.01-1.2-.59-.34-.79-.57-.76-.58.04-.05.34.08.88.02,1.09-.14,3-.54,5.22-.72,3.92-.11,7.9-.5,11.51-1.26.46-.09.88-.23,1.3-.36.44-.12.79-.3,1.17-.46.2-.07.35-.17.48-.26.14-.1.3-.17.43-.27.24-.2.53-.49.8-.82,1.1-1.36,2.08-3.1,2.98-4.84,2.17-4.22,3.61-9.07,4.85-13.79.67-2.58,1.24-5.2,1.56-7.8.08-.65.14-1.29.17-1.93.02-.3.03-.68.02-.9,0-.14,0-.28,0-.43-.02-.29-.06-.59-.18-.87-.11-.28-.39-.53-.7-.49l-.04.02c-.31.19-.51.52-.74.83l-.37.56-.64,1.06c-.85,1.43-1.66,2.91-2.48,4.38-2.47,4.48-4.84,9.06-7.91,13.28-.62.81-1.26,1.62-2.06,2.36-.4.37-.84.73-1.4,1.03-.28.15-.59.28-.95.35-.19.04-.35.06-.48.07l-.41.04c-2.04.13-3.97.12-5.95.08-.87-.02-1.72-.02-2.59-.07-3.24-.21-4.28-.59-4.84-1.55-.13-.22-.3-.44-.36-.64-.18-.67,1.14-1.01,3.45-.98,1.72,0,3.47.02,5.23.02.88,0,1.76-.01,2.64-.02.86-.01,1.8-.02,2.52-.08.07,0,.2-.02.2-.02,0,0,0,0,.02-.01.03,0,.11-.05.19-.1.19-.11.44-.31.69-.54.51-.48,1.04-1.1,1.54-1.77,1.01-1.34,1.97-2.85,2.88-4.39,1.36-2.29,2.66-4.68,3.96-7.08.66-1.2,1.26-2.44,1.9-3.66l.97-1.85.5-.93.58-1.03.08.04Z"/><path class="cls-1" d="M397.01,361.23c.5.19.98.3,1.49.56l.75.37c.12.05.29.17.47.3.16.12.34.26.48.39.52.54.84,1.05,1.1,1.54.26.49.46.96.65,1.43.69,1.86,1.1,3.66,1.45,5.46.24,1.32.55,2.62.7,3.93.56,4.64.73,9.28.7,13.91-.05,2.05-.03,4.12-.16,6.16-.09,1.31-.2,2.62-.4,3.93-.24,1.3-.66,2.58-1.16,3.81-.33.76-.37.63-.48-.09-.08-.72-.52-2.05-.67-3.52-.14-5.18-.15-10.33-.1-15.6,0-3.15-.51-6.4-1.02-9.56-.28-1.73-.62-3.46-1.05-5.12-.22-.83-.47-1.65-.78-2.39-.29-.73-.72-1.49-1.03-1.71-.05-.08-.36-.19-.54-.29-.21-.11-.42-.22-.66-.29l-.7-.25-.75-.19c-1-.25-2.06-.38-3.13-.5-3.25-.3-6.62-.37-9.95-.4-2.59-.02-5.15.1-7.75,0-.57-.01-1.14-.02-1.71-.07-2.14-.15-2.78-.61-3.09-1.46-.07-.2-.18-.4-.2-.58-.05-.31.16-.56.57-.75.41-.19,1.02-.33,1.77-.3,4.53.03,9.25.06,14,.1,1.8.03,3.61.07,5.48.21,1.86.15,3.76.32,5.77.89l-.02.08Z"/><path class="cls-1" d="M241.17,326.26c-1.65.44-3.31.87-5.18,1.11-.44.08-.98.08-1.5.09-.24.02-.56-.03-.89-.09-.31-.07-.66-.1-.91-.24-.53-.25-1.09-.51-1.44-.82-.4-.3-.8-.59-1.12-.92-.5-.46-.99-.91-1.42-1.39-.46-.46-.89-.94-1.27-1.45-1.39-1.78-2.6-3.64-3.69-5.56-1.11-1.91-2.08-3.89-2.96-5.91-.35-.91-.77-1.8-1.09-2.72l-.52-1.37c-.16-.46-.3-.93-.45-1.39-.41-1.18-.65-2.42-.89-3.66-.15-1.25-.34-2.51-.09-3.78.12-.78.31-.66.71-.03.44.63,1.01,1.71,1.38,3,.12.58.34,1.14.53,1.71.18.57.38,1.12.6,1.68.21.56.39,1.13.61,1.68l.69,1.66c.99,2.19,1.96,4.41,3.07,6.6,1.34,2.61,3.22,5.07,5.2,7.22l.82.87.86.79c.29.26.58.43.87.67.15.13.27.15.4.23.13.05.26.17.38.19.12.01.24.04.37.07.13.03.34,0,.5,0,.33.02.73-.04,1.11-.09.77-.1,1.58-.26,2.38-.46,1.98-.47,3.99-1.04,5.99-1.6,1.53-.42,3.06-.85,4.64-1.19,1.57-.34,3.15-.68,4.82-.77.32-.03.65-.05.99-.02.34.02.67,0,1.01.05l1.06.22c.35.09.67.23.97.36,1.2.55,2.28,1.19,3.31,1.96.46.33.91.68,1.33,1.08.78.76,1.22,1.43,1.37,2.01.12.58-.04,1.05-.34,1.37-.14.15-.26.31-.39.37-.22.12-.48-.03-.79-.17-.37-.15-.74-.37-1.15-.8-1.31-1.22-3.15-2.46-4.82-3.23-.4-.2-.71-.19-1.04-.29l-.64-.02c-.21-.02-.43-.02-.68,0-.48.03-.96.06-1.48.16-.51.06-1.02.15-1.55.27-3.13.64-6.35,1.69-9.64,2.62l-.03-.07Z"/><path class="cls-1" d="M280.46,233.13c-.15,1.11-.31,2.21-.53,3.31-.09.4-.08.81-.19,1.2-.35,1.4-.81,2.77-1.3,4.12-.2.61-.44,1.2-.68,1.8-.15.38-.28.78-.51,1.12-.25.34-.61.63-.94.9-.22.17-.3.07-.43-.23-.11-.3-.39-.85-.47-1.34-.01-.11-.04-.22-.04-.32l.06-.27c.04-.18.08-.36.11-.55.07-.37.14-.73.21-1.1.21-.72.52-1.41.84-2.14.38-.87.42-1.85.58-2.8.17-1.04.38-2.09.52-3.14.09-.65.17-1.3.22-1.96.07-.99.15-2,.08-2.98-.06-.77-.28-1.51-.46-2.24-.04-.16-.1-.32-.13-.48-.14-.6.15-.83.75-1.05.14-.05.28-.11.42-.15.46-.12.92.08,1.22.53.64,1.37.82,2.89.86,4.4.03,1.12-.05,2.25-.12,3.37h-.07Z"/><path class="cls-1" d="M272.18,189.13c.21-.95.25-1.93.39-2.9.09-.98.09-1.97.16-2.95,0-.72-.1-1.44-.1-2.17-.07-2.55-.27-5.14-.76-7.68-.19-1.14-.61-2.22-.9-3.32-.23-.69-.48-1.38-.7-2.09-.22-.7-.37-1.44-.56-2.18-.1-.47-.01-.45.33-.18.33.27,1.07.73,1.72,1.42,1.82,2.64,2.8,5.73,3.17,8.89.09.95.26,1.9.38,2.86l.22,1.44c.06.48.09.97.12,1.45.03.53.07,1.06.08,1.6l-.04,1.6c0,1.07-.15,2.13-.24,3.19-.04.65-.19,1.3-.29,1.95-.11.65-.2,1.3-.37,1.94-.23.97-.45,1.95-.8,2.89-.16.47-.3.95-.47,1.42l-.57,1.39c-.25.74-.61,1.43-.92,2.15-.29.73-.68,1.42-1.15,2.07-.21.28-.36.6-.61.86-.95.93-1.43,1.05-2.12.65-.15-.08-.3-.14-.41-.22-.33-.22-.44-1.1-.03-1.8,1.09-2.2,2.25-4.26,3.06-6.69.27-.91.6-1.79.79-2.75.1-.47.24-.93.32-1.41l.22-1.44h.08Z"/><path class="cls-1" d="M167.98,247.53c1.43.82,3.11,1.34,4.86,1.52.64.09,1.28-.01,1.93,0,2.1-.04,4.46-.77,6.45-2.02.87-.57,1.68-1.25,2.38-2.01.86-1.01,1.51-2.12,2.02-3.36.16-.39.35-.33.54.09.19.4.44,1.27.16,2.16-.54,1.54-1.47,2.89-2.58,4.02-1.17,1.07-2.52,1.91-3.98,2.48-.87.35-1.76.7-2.7.97-.94.26-1.99.41-2.91.42-2.09.04-4.2-.3-6.16-1.07-1.2-.49-2.35-1.12-3.36-1.94-1.56-1.21-2.77-2.81-3.66-4.51-.39-.65-.65-1.33-.99-2.01-.24-.69-.57-1.39-.71-2.12-.08-.32-.18-.63-.24-.96-.16-1.22.07-1.63.82-1.88.17-.06.34-.13.51-.17.57-.1,1.11.34,1.33,1.09.64,2.24,1.4,4.33,2.67,6.1.93,1.3,2.18,2.39,3.66,3.13l-.03.07Z"/><path class="cls-1" d="M256.5,217.95c.7-1.78,1.61-3.44,2.69-4.99.4-.56.75-1.16,1.21-1.68.82-.92,1.71-1.76,2.79-2.48,1.09-.71,2.28-1.19,3.49-1.48,1.07-.24,2.14-.5,3.21-.49.68,0,1.37-.05,2.03.18.67.17,1.29.54,1.9.83.37.22.28.28-.09.43-.19.08-.45.2-.76.35-.15.08-.32.18-.49.28-.09.06-.17.08-.26.16-.08.01-.17.06-.26.09l-.46.16c-.15.06-.3.13-.45.13-.29.04-.58.09-.86.15l-.84.18c-.28.01-.55.06-.83.09-1.1.15-2.14.42-3.17.85-.61.25-1.16.67-1.69,1.2-.52.52-.99,1.1-1.46,1.68-1.03,1.28-1.92,2.72-2.63,4.25-.43.94-.8,1.92-1.05,2.91-.19.75-.31,1.51-.32,2.23,0,.19,0,.35.02.45.01.12.04.23.07.34.07.22.21.43.43.52.03.01.05.03.08.03.34.1.7-.06.9-.3.05-.05.11-.12.13-.17l.21-.27c.15-.2.29-.43.44-.66.13-.22.24-.45.39-.68.27-.42.49-.69.75-.81.29-.1.57-.08.91.03.16.05.31.09.45.15.23.11.36.31.43.59.07.27.11.64-.06.98-.33.78-.7,1.6-1.41,2.45-.1.12-.15.19-.32.34-.16.16-.32.3-.49.41-.33.25-.69.45-1.07.59-.77.29-1.6.24-2.37,0-1.08-.43-1.88-1.44-2.12-2.69-.04-.21-.09-.43-.12-.64l-.04-.48c0-.28-.01-.57,0-.84.03-.55.1-1.06.19-1.56.19-1,.47-1.94.79-2.85l.07.02Z"/><path class="cls-1" d="M276.5,222.43c.4.41.9.75,1.45,1.05.2.1.43.13.63.24.74.36,1.55.56,2.38.84.37.1.75.18,1.13.21.49.05.98.1,1.49.21.16.04.14.1.02.22-.12.11-.35.34-.64.46-.51.19-1.03.38-1.57.48-.54.12-1.09.14-1.62-.05-.63-.2-1.32-.2-1.98-.38-.72-.19-1.42-.51-2.1-.86-.4-.25-.81-.49-1.17-.8-.57-.43-1.02-1-1.52-1.51-.17-.21-.38-.4-.6-.59-.2-.2-.4-.4-.6-.62-.09-.1-.19-.18-.25-.29-.23-.41-.12-.62.55-.96.15-.08.3-.16.45-.22.51-.22,1.04-.25,1.28-.08.72.48,1.08,1.01,1.56,1.52.34.38.71.75,1.15,1.11l-.03.05Z"/><path class="cls-1" d="M265.97,273.32c-.16,1.21-.37,2.43-.7,3.67-.08.33-.17.58-.29.98-.18.48-.36,1-.58,1.45-.45.94-1.05,1.59-1.71,2.09-.27.17-.56.26-.87.33-.35.03-.62-.06-.88-.18-.52-.24-1.05-.76-1.51-1.43-.29-.42-.58-.88-.84-1.31l-.55-.92c-.31-.53-.61-1.05-.88-1.59-1.93-3.78-3.67-7.6-5.72-11.24-.45-.81-.93-1.6-1.44-2.38-.49-.78-.99-1.56-1.51-2.3-1.34-1.95-2.89-3.58-4.36-5.39-.52-.52-.49-.45.19-.37.34.05.86.11,1.51.23.61.17,1.22.53,1.8.99.97.87,1.82,1.83,2.63,2.79.79.98,1.58,1.96,2.24,3.02,1.32,2.12,2.48,4.3,3.55,6.53,1.28,2.66,2.84,5.31,4.26,7.91l.77,1.4c.08.14.16.28.27.4.05.06.13.14.2.1.06-.04.13-.08.18-.14.22-.21.36-.5.48-.81.02-.04.03-.07.05-.15l.08-.27c.06-.18.1-.36.15-.55.1-.37.17-.75.25-1.13.35-1.92.54-3.92.64-5.92.14-3.04.17-6.12,0-9.15-.12-2.36-.52-4.66-.75-6.99-.05-.51-.12-1.01-.16-1.53-.15-1.92.08-2.55.72-3.02.15-.11.29-.24.43-.31.24-.11.48.02.72.35.24.33.51.86.66,1.56,1.11,4.14,1.33,8.6,1.45,13.1.06,3.35-.04,6.72-.42,10.15h-.07Z"/><path class="cls-1" d="M259.37,313.87c-1.64-1.21-3.2-2.51-4.66-3.9-.55-.49-1.13-.94-1.64-1.47-.92-.91-1.76-1.89-2.61-2.85-.82-1-1.6-2.02-2.36-3.04-.7-.89-1.4-1.79-2.11-2.65-.46-.56-.87-1.15-1.27-1.75-.1-.15-.19-.3-.29-.46l-.21-.52c-.13-.34-.27-.68-.4-1.04-.15-.44-.09-.41.3-.23.2.09.49.21.85.34.2.08.39.15.57.22.1.04.19.09.31.12l.23.2c1.12.95,2.06,2.01,3.02,3.07.97,1.05,1.91,2.11,2.83,3.22,1.05,1.38,2.44,2.51,3.73,3.7l2.16,1.91c.76.59,1.47,1.25,2.25,1.81l1.42,1.07,1.48.98c.75.5,1.54.92,2.32,1.38.79.42,1.61.79,2.43,1.14.65.23,1.31.41,1.97.58.66.15,1.34.23,2,.38.29.08.57.12.86.18,1.07.25,1.37.53,1.49,1.28.03.17.07.33.08.49.03.51-.52.91-1.43.94-.68.03-1.37.06-2.05-.03-.67-.12-1.36-.22-2.03-.41-.66-.2-1.33-.41-1.99-.64-.65-.25-1.29-.55-1.93-.83-.95-.42-1.84-.96-2.75-1.46-.87-.56-1.76-1.09-2.6-1.68l.04-.07Z"/><path class="cls-1" d="M252.2,226.56c-.26.74-.5,1.49-.84,2.21-.29.73-.67,1.43-1.06,2.12-.25.52-.57,1.01-.91,1.48-1.27,1.62-2.84,2.98-4.57,3.97l-1.18.59-.58.31-.6.24c-.52.19-1.02.45-1.56.58-.27.06-.55.08-.83.1-.28.03-.55.04-.84-.02-.36-.06-.33-.19-.13-.55.2-.39.56-.98,1.06-1.28,1.84-.86,3.37-1.93,4.98-3.05.23-.18.46-.38.67-.58.22-.21.38-.47.56-.71.17-.25.36-.48.51-.75.15-.27.29-.54.45-.8.37-.55.62-1.19.96-1.78.25-.64.56-1.26.76-1.92l.39-1.23.29-1.26c.27-1.28.47-2.61.49-3.93,0-1.03-.22-2.04-.4-3.04-.04-.22-.1-.44-.13-.66-.03-.21-.03-.38-.02-.52.03-.15.11-.27.19-.37.09-.1.19-.18.33-.26.15-.07.33-.14.51-.19.17-.05.33-.12.47-.15.41-.11,1.18.19,1.48.82.65,1.88.73,3.96.52,6.04-.06.77-.21,1.55-.34,2.31-.18.77-.33,1.54-.56,2.3l-.07-.02Z"/><path class="cls-1" d="M167.16,293.49c-1.96,5.46-3.72,11-5.18,16.61-.52,2.05-.94,4.13-1.38,6.19-.83,3.63-1.46,7.31-2.03,10.99-.48,3.69-.93,7.4-1.07,11.13-.18,3.3-.11,6.63.08,9.91.33,4.21.78,8.38.88,12.67-.22,1.39,0,1.17-.6.14-.31-.51-.7-1.26-1.14-2.17-.21-.46-.47-.95-.67-1.5-.11-.27-.19-.55-.31-.83-.06-.29-.13-.59-.19-.9-.2-1.09-.45-2.17-.58-3.27l-.24-1.65-.15-1.65c-.11-2.21-.27-4.42-.22-6.64-.02-4.43.41-8.86,1.07-13.25.79-5.25,1.56-10.7,2.77-15.98,1.33-5.8,3-11.5,4.89-17.12,1.16-3.46,2.42-6.89,3.73-10.28,1.98-5.15,4.18-10.24,6.34-15.26,1.67-3.91,3.22-7.78,4.83-11.65.36-.85.67-1.7,1.04-2.55.66-1.58,1.16-2.59,1.64-3.25.47-.66.85-.99,1.33-1.2.22-.09.45-.24.64-.28.61-.13.58,1.39-.17,3.86-2.56,7.13-5.85,14.27-8.87,21.55-2.26,5.4-4.44,10.86-6.36,16.39l-.07-.02Z"/><path class="cls-1" d="M233.8,412.78c-5.74,1.47-11.85,2.27-17.86,1.61-6-.64-11.88-2.4-17.14-5.25-3.86-2.04-7.49-4.48-10.75-7.33-5.75-5.03-10.51-11.03-14.49-17.43-1.98-3.21-3.76-6.55-5.29-10-.77-1.72-1.46-3.49-2.07-5.29-.6-1.82-1.15-3.62-1.32-5.71,0-.21-.02-.59,0-.87.03-.29.11-.57.17-.86l.08-.19c.07-.04.09-.11.14-.16.09-.11.18-.21.28-.32.23-.18.46-.35.72-.5.3-.17.42-.24.61-.34l.53-.28c.71-.37,1.41-.71,2.11-1.05l4.21-2.01c2.8-1.33,5.59-2.66,8.34-4.02,7.54-3.68,14.86-7.79,22.45-11.34,2.43-1,2.26-.63.67,1.06-.8.83-1.92,2.05-3.47,3.2-1.53,1.18-3.4,2.44-5.54,3.62-4.8,2.65-9.75,5-14.69,7.35-2.48,1.15-4.95,2.3-7.43,3.45l-3.69,1.72c-1.12.52-2.82,1.4-2.43,1.22,0,.01-.01.03-.01.04v.1c0,.27.07.63.11.95.13.68.28,1.38.49,2.1.38,1.42.9,2.86,1.44,4.28,1.12,2.84,2.43,5.64,3.88,8.37,2.41,4.46,5.32,8.79,8.71,12.74,3.37,3.95,7.16,7.59,11.33,10.62,9.02,6.82,20.54,10.3,31.82,8.75,3.46-.38,6.91-1.22,10.26-2.25,3.37-1.01,6.62-2.39,9.79-3.93,4.79-2.37,9.35-5.24,13.63-8.48,4.28-3.24,8.28-6.85,12-10.68,5.79-5.96,10.75-12.46,15.42-19.21,1-1.51,1.99-2.98,3-4.5,3.74-5.64,5.05-7.4,6.67-8.08.36-.16.77-.42,1.03-.47.84-.18-.09,2.45-2.68,6.74-7.64,12.73-17.37,25.48-29.62,35.79-4.53,3.84-9.45,7.27-14.69,10.18-5.23,2.93-10.85,5.23-16.68,6.76l-.04-.08Z"/><path class="cls-1" d="M388.36,410.44c2.52-.1,5.03-.27,7.49-.58,1.23-.15,2.45-.34,3.63-.59,1.17-.25,2.34-.56,3.3-.98l.48-.25c.14-.08.28-.2.32-.21.09-.07.17-.16.21-.26.04-.11.03-.22-.02-.33-.05-.13-.05-.12-.27-.42-.69-.86-2-1.58-3.4-2.11-1.42-.53-2.96-.91-4.52-1.22-3.14-.62-6.4-.92-9.67-1.23-2.9-.27-5.84-.39-8.77-.63l-1.42-.15-.71-.09c-.27-.05-.64-.12-.89-.23-1.11-.44-1.9-1.12-2.62-1.85-.7-.75-1.24-1.61-1.68-2.52-.21-.45-.4-.93-.53-1.42-.09-.24-.09-.5-.11-.76-.02-.25-.04-.51,0-.76.07-.63.18-.88.2-.86.05.01.05.32.29.77.52.9,1.75,2.18,3.19,3.36.61.54,1.25,1.07,1.85,1.32.15.07.28.11.4.14.07.03.1,0,.14.02h.06s.16.02.16.02l1.37.07c1.88.08,3.75.16,5.63.24,1.9.08,3.82.15,5.75.33,1.93.19,3.86.42,5.81.77,2.32.42,4.71.83,7.13,1.62,1.21.41,2.44.91,3.6,1.74.58.42,1.14.9,1.63,1.55.53.76,1.01,1.7.98,2.65-.04,1.05-.61,2.01-1.41,2.71-.44.33-.78.59-1.12.75-.34.18-.69.36-1.02.49-1.35.55-2.67.89-3.99,1.17-2.63.53-5.25.82-7.85,1.03-3.21.25-6.42.35-9.61.41-4.85.06-9.7-.08-14.53-.37-1.94-.13-3.94-.49-5.79-1.29-1.86-.78-3.56-2.01-4.91-3.5-.6-.65-1.17-1.3-1.66-2.03-.9-1.35-1.33-2.3-1.49-3.02-.12-.74-.03-1.23.22-1.72.11-.22.2-.49.34-.66.23-.28.61-.22,1.11.15.49.37,1.15,1,1.72,1.88,1.76,2.6,3.86,4.67,6.43,5.72,1.29.54,2.68.82,4.18.94,1.67.11,3.37.18,5.08.24,5.07.14,10.21.17,15.28-.11v.09Z"/><g class="cls-2"><path class="cls-1" d="M88.37,223.99c-.08-.63-.19-1.24-.3-1.83-.06-.29-.12-.57-.2-.83l-.08-.28s-.04-.07-.07-.08c-.08-.02.06,0-.34-.07-.59-.1-1.22-.18-1.85-.24-2.55-.27-5.17-.43-7.78-.55-5.22-.23-10.48-.31-15.68-.1-1.88.08-3.76.22-5.59.45-.92.11-1.81.26-2.67.45-.41.1-.84.2-1.19.33-.2.06-.35.13-.47.19-.11.04-.12.06-.18.1h-.01c-.07-.01-.35.83-.48,1.57-.15.76-.26,1.58-.35,2.39-.19,1.63-.3,3.31-.39,4.98-.18,3.35-.25,6.73-.3,10.11-.09,6.76-.03,13.54.09,20.32.11,6.01.34,12.06.58,18.03.15,3.83.38,7.67.45,11.52l.1,5.77c.03.96-.02,1.92-.07,2.89-.06.96-.06,1.92-.17,2.89-.38,2.4-.21,2.08-.69.06-.26-1.01-.55-2.43-.95-4.16-.33-1.73-.56-3.75-.72-5.96-.29-3.91-.46-7.82-.62-11.74-.15-3.92-.3-7.84-.45-11.76-.25-7.85-.42-15.73-.36-23.65.03-4.03.04-8.14.15-12.28.05-2.07.13-4.16.29-6.26.08-1.05.18-2.11.35-3.19.09-.54.18-1.09.34-1.67.09-.31.15-.56.32-.95.17-.4.41-.76.7-1.08.24-.18.48-.37.73-.53l.69-.33c.4-.14.82-.3,1.2-.39.78-.21,1.53-.35,2.27-.47,2.74-.42,5.42-.57,8.11-.67,2.68-.09,5.36-.11,8.03-.08,5.36.09,10.66.25,16.06.86.42.05.84.11,1.28.19.27.06.63.1.89.23.28.12.59.2.8.43.42.44.71,1.02.88,1.6.14.45.24.87.33,1.3.34,1.69.53,3.33.69,4.98.32,3.29.49,6.57.64,9.85.43,9.93.47,19.89.61,29.73.06,3.82.16,7.61.26,11.39.12,3.78.22,7.54.25,11.32.02,1.67.07,3.29.06,4.97-.03,6.22-.27,8.2-1.25,9.53-.21.3-.41.7-.6.88-.6.59-1.34-1.95-1.5-6.51-.28-6.75-.57-13.69-.54-20.72,0-7.03-.01-14.16-.1-21.29-.06-5.3-.13-10.61-.28-15.9-.18-5.28-.35-10.63-1-15.72l.07-.02Z"/></g><g class="cls-2"><path class="cls-1" d="M122.25,272.3c-.02-3.75-.11-7.5-.28-11.2-.07-1.32-.26-2.73-.43-3.87-.02-.13-.02-.36-.2-.39-.07-.02-.16-.05-.32-.08l-.85-.11c-1.15-.13-2.35-.21-3.55-.28-2.4-.13-4.81-.2-7.23-.24-2.14-.03-4.3-.05-6.43-.01-1.37.03-2.74.05-4.11.08h-1.03s-1.03-.09-1.03-.09c-.69-.07-1.37-.15-2.06-.22-.86-.15-.75-.23-.03-.54.36-.16.86-.37,1.48-.61.31-.12.64-.25.99-.36.18-.07.36-.11.55-.18.19-.02.38-.04.58-.06,2.79-.22,5.59-.44,8.39-.57,1.4-.09,2.81-.05,4.22-.02,1.41.03,2.82.09,4.24.19,1.72.09,3.46.18,5.22.27l.68.05.36.04.5.07c.33.06.71.12,1.01.27.16.06.31.15.45.25.1.14.22.26.32.4.18.29.37.57.44.94.1.33.21.73.24.92.1.47.15.91.21,1.36.44,3.88.47,7.67.53,11.48.01,2.34.03,4.68.04,7.02.02,3.54-.04,7.1,0,10.61.04,2.73.2,5.41.25,8.11.01.6.05,1.18.04,1.78-.03,2.23-.24,2.94-.94,3.39-.16.1-.31.24-.46.3-.49.19-.94-.72-1.07-2.34-.43-4.8-.62-9.87-.67-14.96-.06-3.78-.07-7.57-.16-11.35h.07Z"/></g><g class="cls-2"><path class="cls-1" d="M60.95,239.25c0,2.81.29,5.63.14,8.44-.05.92.84,1.79,1.75,1.75.99-.04,1.7-.77,1.75-1.75.15-2.81-.13-5.63-.14-8.44,0-.92-.8-1.79-1.75-1.75s-1.75.77-1.75,1.75h0Z"/></g><g class="cls-2"><path class="cls-1" d="M75.41,239.34c0,2.81.29,5.63.14,8.44-.05.92.84,1.79,1.75,1.75.99-.04,1.7-.77,1.75-1.75.15-2.81-.13-5.63-.14-8.44,0-.92-.8-1.79-1.75-1.75s-1.75.77-1.75,1.75h0Z"/></g><g class="cls-2"><path class="cls-1" d="M387.64,238.4c0,3.1.32,6.21.15,9.3-.05.92.84,1.79,1.75,1.75.99-.04,1.7-.77,1.75-1.75.17-3.1-.15-6.2-.15-9.3,0-.92-.8-1.79-1.75-1.75s-1.75.77-1.75,1.75h0Z"/></g><g class="cls-2"><path class="cls-1" d="M403.57,238.5c0,3.1.32,6.21.15,9.3-.05.92.84,1.79,1.75,1.75.99-.04,1.7-.77,1.75-1.75.17-3.1-.15-6.2-.15-9.3,0-.92-.8-1.79-1.75-1.75s-1.75.77-1.75,1.75h0Z"/></g><g class="cls-2"><path class="cls-1" d="M438.68,205.82c0,3.1.32,6.21.15,9.3-.05.92.84,1.79,1.75,1.75.99-.04,1.7-.77,1.75-1.75.17-3.1-.15-6.2-.15-9.3,0-.92-.8-1.79-1.75-1.75s-1.75.77-1.75,1.75h0Z"/></g><g class="cls-2"><path class="cls-1" d="M459.54,205.93c0,3.1.32,6.21.15,9.3-.05.92.84,1.79,1.75,1.75.99-.04,1.7-.77,1.75-1.75.17-3.1-.15-6.2-.15-9.3,0-.92-.8-1.79-1.75-1.75s-1.75.77-1.75,1.75h0Z"/></g><g class="cls-2"><path class="cls-1" d="M439.28,234.5c0,3.1.3,6.21.15,9.3-.05.92.84,1.79,1.75,1.75.99-.04,1.7-.77,1.75-1.75.16-3.1-.14-6.2-.15-9.3,0-.92-.8-1.79-1.75-1.75s-1.75.77-1.75,1.75h0Z"/></g><g class="cls-2"><path class="cls-1" d="M459.35,234.61c0,3.1.3,6.21.15,9.3-.05.92.84,1.79,1.75,1.75.99-.04,1.7-.77,1.75-1.75.16-3.1-.14-6.2-.15-9.3,0-.92-.8-1.79-1.75-1.75s-1.75.77-1.75,1.75h0Z"/></g><g class="cls-2"><path class="cls-1" d="M439.23,261.55c0,3.1.3,6.21.15,9.3-.05.94.86,1.84,1.8,1.8,1.02-.05,1.75-.79,1.8-1.8.16-3.1-.14-6.2-.15-9.3,0-.94-.83-1.84-1.8-1.8s-1.8.79-1.8,1.8h0Z"/></g><g class="cls-2"><path class="cls-1" d="M459.3,261.66c0,3.1.3,6.21.15,9.3-.05.94.86,1.84,1.8,1.8,1.02-.05,1.75-.79,1.8-1.8.16-3.1-.14-6.2-.15-9.3,0-.94-.83-1.84-1.8-1.8s-1.8.79-1.8,1.8h0Z"/></g><g class="cls-2"><path class="cls-1" d="M387.64,263.1c0,3.1.32,6.21.15,9.3-.05.92.84,1.79,1.75,1.75.99-.04,1.7-.77,1.75-1.75.17-3.1-.15-6.2-.15-9.3,0-.92-.8-1.79-1.75-1.75s-1.75.77-1.75,1.75h0Z"/></g><g class="cls-2"><path class="cls-1" d="M403.57,263.2c0,3.1.32,6.21.15,9.3-.05.92.84,1.79,1.75,1.75.99-.04,1.7-.77,1.75-1.75.17-3.1-.15-6.2-.15-9.3,0-.92-.8-1.79-1.75-1.75s-1.75.77-1.75,1.75h0Z"/></g><g class="cls-2"><path class="cls-1" d="M61.18,271.69c0,2.81.29,5.63.14,8.44-.05.92.84,1.79,1.75,1.75.99-.04,1.7-.77,1.75-1.75.15-2.81-.13-5.63-.14-8.44,0-.92-.8-1.79-1.75-1.75s-1.75.77-1.75,1.75h0Z"/></g><g class="cls-2"><path class="cls-1" d="M75.63,271.78c0,2.81.29,5.63.14,8.44-.05.92.84,1.79,1.75,1.75.99-.04,1.7-.77,1.75-1.75.15-2.81-.13-5.63-.14-8.44,0-.92-.8-1.79-1.75-1.75s-1.75.77-1.75,1.75h0Z"/></g><g class="cls-2"><path class="cls-1" d="M99.03,265.82c.09,1.06.15,2.13.15,3.2,0,.85-.02,1.7-.01,2.56.01.92.8,1.79,1.75,1.75s1.76-.77,1.75-1.75c0-.85.02-1.7.01-2.56,0-1.07-.06-2.14-.15-3.2-.04-.47-.17-.89-.51-1.24-.3-.3-.8-.53-1.24-.51-.88.04-1.83.77-1.75,1.75h0Z"/></g><g class="cls-2"><path class="cls-1" d="M112.59,265.91c.09,1.05.13,2.1.11,3.15-.01.87-.03,1.74.03,2.61.06.91.76,1.79,1.75,1.75.9-.04,1.81-.77,1.75-1.75-.06-.87-.04-1.74-.03-2.61.02-1.05-.02-2.1-.11-3.15-.04-.47-.17-.89-.51-1.24-.3-.3-.8-.53-1.24-.51-.88.04-1.83.77-1.75,1.75h0Z"/></g><g class="cls-2"><path class="cls-1" d="M99.26,284.61c0,1.93.24,3.83.14,5.76-.05.92.84,1.79,1.75,1.75.99-.04,1.7-.77,1.75-1.75.1-1.92-.14-3.83-.14-5.76,0-.92-.8-1.79-1.75-1.75s-1.75.77-1.75,1.75h0Z"/></g><g class="cls-2"><path class="cls-1" d="M112.82,284.7c.09,1.06.08,2.12.02,3.18s0,2.02.18,3.04c.07.41.46.85.8,1.05.38.22.93.31,1.35.18s.83-.4,1.05-.8c.23-.44.26-.86.18-1.35-.02-.13-.04-.27-.06-.4l.06.47c-.1-.79-.08-1.58-.04-2.37.05-1,.05-1.99-.03-2.98-.04-.47-.17-.89-.51-1.24-.3-.3-.8-.53-1.24-.51-.88.04-1.83.77-1.75,1.75h0Z"/></g><g class="cls-2"><path class="cls-1" d="M376.41,222.64s-.09.04-.11.08l-.02.1-.07.3-.11.89c-.08.59-.14,1.2-.18,1.84-.1,1.25-.18,2.52-.23,3.8-.13,2.55-.2,5.12-.26,7.69-.05,2.05.01,4.1-.03,6.15-.12,7.23-.2,14.46-.22,21.7,0,3.21.08,6.44.17,9.62.07,2.04.14,4.09.21,6.14.02,2.05,0,4.1-.09,6.15-.14,1.28-.35,1.12-.79.05-.43-1.06-1.02-3.03-1.26-5.39-.5-8.36-.82-16.71-.76-25.15.08-5.05-.16-10.3-.17-15.46,0-2.84,0-5.68.06-8.53.05-2.85.13-5.68.36-8.59l.11-1.16c.01-.18.08-.44.12-.65l.17-.79c.07-.25.26-.44.37-.67.17-.19.36-.37.55-.54.22-.14.44-.28.66-.41.22-.1.39-.17.58-.25.74-.29,1.45-.47,2.15-.62,1.41-.3,2.8-.49,4.18-.64,5.34-.55,10.68-.55,15.95-.56,4.1,0,8.12-.07,12.19.08.9.03,1.77.04,2.68.11,3.35.26,4.39.64,4.98,1.59.13.22.32.44.38.65.21.71-1.18,1.05-3.58.99-7.13-.15-14.66-.34-22.19-.19-2.79.06-5.59.17-8.35.4-1.37.12-2.74.26-4.06.48-.66.11-1.31.23-1.91.38-.31.07-.6.16-.86.25-.14.04-.27.09-.37.14l-.23.09-.04-.07Z"/></g><path class="cls-1" d="M274.26,137.74c-1.16-4.35-3.64-8.47-6.74-11.9-1.14-1.25-2.44-2.35-3.77-3.29-1.12-.84-2.5-1.43-3.84-2.08l-2.1-.77c-.71-.23-1.44-.37-2.17-.57-2.92-.63-5.98-.75-8.97-.33-2.67.35-5.27,1.23-7.66,2.39-1.5.81-2.98,1.69-4.26,2.8-.69.5-1.29,1.08-1.94,1.64l-.85.93c-.32.29-.64.58-.93.91-.8.79-.65.75-.5-.24-.04-1.09.57-3,2.05-4.71,5.68-5.51,13.93-7.56,21.54-6.38,2.29.3,4.56.97,6.79,1.74,1.09.47,2.17.91,3.24,1.48.54.3,1.07.61,1.55.97.5.33.97.7,1.42,1.08,3.96,3.35,7,7.57,9.06,12.26,1.23,2.9,2.02,6.04,2.09,9.23.02.6.04,1.21-.04,1.81-.06.61-.08,1.2-.19,1.82-.22,1.26-.66,2.47-1.31,3.57-.65,1.09-1.52,2.09-2.62,2.84-1.1.73-2.46,1.16-3.81,1.14-3.95-.25-7.47-2.15-10.1-4.85-.58-.59-1.15-1.17-1.63-1.84-.91-1.23-1.37-2.12-1.58-2.8-.21-.68-.13-1.17.1-1.65.11-.22.19-.47.32-.64.46-.55,1.49.23,2.74,1.8,1.91,2.28,3.96,4.41,6.41,5.6.61.29,1.23.55,1.89.73.32.09.66.17.99.24l.5.09c.12,0,.25.02.37.03.96.03,1.86-.36,2.68-1.17.58-.62,1.1-1.41,1.42-2.3.16-.44.29-.9.37-1.36.07-.49.1-1.07.16-1.6.12-2.18-.16-4.41-.77-6.58l.08-.03Z"/><path class="cls-1" d="M218.04,175.47c-1.04.55-2.11,1.07-3.27,1.38-.57.17-1.17.3-1.76.39l-.9.11c-.35.02-.79.03-1.16-.03-1.59-.23-2.69-1.03-3.55-1.64-.88-.64-1.64-1.23-2.4-1.65-.56-.3-1.12-.49-1.7-.6-.58-.05-1.16-.06-1.77.05-2.12.27-3.96,1.82-4.97,3.89-.49,1.03-.81,2.17-.81,3.28-.02,1.12.26,2.27.76,3.32.9,1.88,2.53,3.44,4.43,4.28,1.23.57,2.58.82,3.94.98.68.09,1.37.13,2.07.16.18.02.35,0,.53.03.18.04.36.09.54.13.37.1.74.14,1.13.29.5.21.73.3.73.35,0,.06-.22.13-.55.52-.34.37-.85.92-1.56,1.48-.71.47-1.63.69-2.63.7-1.78.02-3.57-.44-5.27-1.14-1.68-.73-3.29-1.86-4.51-3.26-1.2-1.43-2.11-3.13-2.53-4.98-.43-1.84-.34-3.87.29-5.59.72-2.06,1.92-3.97,3.67-5.4.87-.71,1.89-1.27,2.97-1.61,1.09-.33,2.22-.45,3.36-.35,1.25.12,2.47.54,3.49,1.11,1.03.56,1.9,1.25,2.71,1.79.81.54,1.55.93,2.19.91.09,0,.15.01.26,0l.35-.05c.23-.04.46-.05.69-.11.46-.1.91-.21,1.36-.38,2.21-.77,4.22-2.22,5.95-3.96,2.63-2.64,4.75-5.92,6.28-9.37,1.18-2.7,1.9-5.52,2.34-8.34.09-.62.14-1.23.21-1.86.29-2.29.56-2.97,1.36-3.51.18-.12.34-.29.5-.36.48-.28,1.24.74,1.38,2.69.13,2.87-.45,5.73-1.28,8.52-.86,2.78-2.05,5.5-3.56,8.08-1.12,1.91-2.41,3.75-3.93,5.43-.75.85-1.58,1.64-2.45,2.4-.9.73-1.85,1.43-2.88,2.02l-.05-.07Z"/><path class="cls-1" d="M242.09,151.31c1.62.28,3.31.43,4.95.29.6-.03,1.17-.24,1.74-.34,1.94-.42,3.89-1.58,5.44-3.15.68-.71,1.26-1.52,1.76-2.36.62-1.1,1.01-2.26,1.71-3.37.29-.33.49-.25.82.2.31.44.7,1.29.5,2.12-.44,1.42-1.09,2.78-1.95,4-.9,1.19-1.98,2.24-3.25,3.07-1.49.95-3.11,2.05-4.96,2.47-1.96.46-3.93.56-5.86.36-1.19-.11-2.36-.33-3.51-.61-1.75-.43-3.43-1.11-5.03-1.96-1.23-.67-2.5-1.33-3.61-2.33-.24-.21-.47-.45-.69-.7-.42-.46-.56-.86-.56-1.19,0-.33.16-.59.46-.88.14-.13.27-.27.42-.38.51-.35,1.2-.22,1.72.2.81.63,1.55,1.24,2.45,1.73.2.14.43.26.66.38l.67.38c.48.22.93.48,1.44.67,1.46.62,3.06,1.1,4.7,1.33v.08Z"/><path class="cls-1" d="M156.48,191.79c2.49-4.27,3.59-9.33,4.18-14.5.6-5.2.66-10.53,1.34-16.02.55-4,1.43-7.91,2.68-11.71,2.25-6.67,5.5-13.07,10.03-18.55,4.5-5.47,10.42-9.91,17.15-12.26,5.95-2.09,12.34-2.89,18.58-2.18,3.99.5,7.94,1.64,11.55,3.5,1.78.97,3.46,2.13,4.97,3.49.78.64,1.46,1.42,2.11,2.19.31.41.62.81.92,1.23.26.46.57.85.77,1.34.13.3.23.57.32.79.07.23.09.45.11.6.03.32,0,.45-.06.44-.17-.01-.37-.62-1.11-1.33-.73-.71-1.82-1.63-3.33-2.45-1.45-.87-3.16-1.81-5.07-2.68-3.28-1.71-6.84-2.91-10.52-3.41-3.67-.55-7.43-.54-11.15.02-7.47.94-14.48,4.4-20.02,9.71-3.34,3.15-6.09,7.09-8.29,11.32-2.2,4.24-3.87,8.81-5.07,13.44-.66,2.55-1.16,5.14-1.46,7.73-.28,2.61-.43,5.29-.59,7.98-.34,5.37-.67,10.9-2.25,16.27-.46,1.65-1.1,3.26-1.82,4.84-.74,1.57-1.63,3.05-2.6,4.48-1.98,2.82-4.33,5.3-6.78,7.59-3.7,3.48-7.72,6.56-11.13,10.07-1.69,1.77-3.19,3.68-4.31,5.79-1.11,2.1-1.83,4.39-1.84,6.69-.07,3.59,1.72,6.97,4.51,9.06,1.37,1.08,3,1.8,4.69,2.26,1.69.46,3.45.64,5.23.54,1.57-.09,3.12-.37,4.71-.71,2.96-.66,4.92-1.26,6.34-1.53,1.42-.29,2.32-.26,3.11-.03.36.1.81.17,1.04.3.77.41-1.38,1.97-5.85,3.49-3.32,1.09-6.87,2.05-10.78,2.02-1.95-.05-3.92-.37-5.83-.99-1.9-.68-3.72-1.67-5.33-3-3.22-2.65-5.31-6.89-5.28-11.19.03-2.12.38-4.24,1.15-6.15.69-1.94,1.72-3.69,2.86-5.31,1.7-2.4,3.72-4.46,5.77-6.34,2.03-1.86,4.1-3.61,6.11-5.37,3.99-3.5,7.73-7.13,10.17-11.49l.08.03Z"/><path class="cls-1" d="M220.92,237.58c-.15,2.03-.56,4.11-1.39,6.05-.82,1.96-2.06,3.7-3.55,5.16-1.08,1.06-2.27,2.05-3.62,2.75-4.86,2.45-10.46,2.28-15.19.44-2.11-.82-4.11-1.9-5.91-3.21-2.31-1.66-4.35-3.88-5.28-6.61-.29-.84-.13-.78.57-.38.76.37,2.04,1.02,3.2,1.92.94.91,2.06,1.56,3.03,2.38.51.38,1.04.73,1.57,1.08.56.3,1.08.68,1.66.93,2.26,1.12,4.67,2.05,7.23,2.32,1.53.21,3.12.07,4.64-.34,1.54-.36,2.93-1.05,4.22-1.93,2.85-1.93,4.88-4.96,5.52-8.44.44-2.13.43-4.39.24-6.66-.15-1.72-.38-3.46-.61-5.22l-.32-2.65c-.04-.45-.09-.88-.12-1.35-.02-.48-.05-.95-.01-1.43.14-2.95,1.3-5.86,3.46-7.99.47-.47.97-.9,1.53-1.28,1.06-.68,1.86-.93,2.45-.98.58-.07.97.12,1.3.42.15.14.33.28.43.43.32.56-.44,1.15-1.62,1.91-1.75,1.15-3.13,2.77-3.91,4.66-.39.94-.62,1.94-.67,2.95,0,.25-.03.5,0,.76.01.25.01.49.06.81.06.6.13,1.21.21,1.82.45,3.65,1.2,7.52.97,11.66h-.08Z"/><path class="cls-1" d="M232.41,214.98c-3.35-1.22-6.32-3.11-9.02-5.21-.5-.38-1-.75-1.48-1.15-.48-.4-.98-.78-1.42-1.21-1.58-1.53-3.07-3.14-4.4-4.88-.69-.85-1.29-1.77-1.92-2.66-.55-.95-1.18-1.84-1.65-2.83l-.68-1.28c-.23-.43-.41-.88-.62-1.32-.2-.44-.43-.87-.61-1.32l-.53-1.36c-.25-.57-.43-1.17-.6-1.77-.15-.61-.42-1.19-.45-1.82-.07-.63-.13-1.25-.17-1.88,0-.31.05-.63.1-.95.07-.32.07-.63.19-.94.38-.77.25-.65.74-.03.26.31.54.73.91,1.21.28.49.62,1.04.82,1.65,1.1,4.4,3.24,8.53,5.88,12.48,1.57,2.38,3.77,4.44,5.98,6.34,2.43,2.09,5.1,3.94,7.98,5.29,1.77.79,3.67,1.4,5.61,1.83,2.94.66,6,1.05,9,1.01,2.33-.05,4.62-.45,6.7-1.12.46-.15.87-.35,1.3-.5.79-.31,1.23-.53,1.59-.6.38-.06.69,0,1.1.1.19.05.4.05.57.1.3.08.43.34.32.86-.12.48-.52,1.17-1.24,1.67-1.04.75-2.16,1.25-3.3,1.59-1.14.35-2.3.58-3.46.73-2.33.3-4.67.31-7,.13-3.46-.27-6.9-.93-10.26-2.08l.02-.07Z"/><path class="cls-1" d="M287.6,219.8c-.31-1.67-.75-3.41-1.3-4.93-.58-1.51-1.48-2.98-2.5-4.34-.74-1-1.64-1.86-2.53-2.71-1.57-1.49-3.38-2.74-5.36-3.4-.49-.2-1-.26-1.5-.39-.51-.04-1-.13-1.56-.11-1.09,0-2.19.1-3.28.31-1.94.35-3.81,1.1-5.46,2.1-1.05.66-2.03,1.4-2.88,2.26l-1.24,1.33c-.4.46-.76.96-1.12,1.49-.63.59-.59.55-.76-.28-.07-.22-.07-.46-.09-.75.01-.28.03-.6.08-.95.03-.36.13-.73.26-1.11.07-.2.14-.4.21-.6.11-.17.24-.35.37-.52.94-1.21,2.06-2.28,3.32-3.1,1.28-.79,2.63-1.4,4.02-1.87,1.39-.47,2.83-.77,4.29-.92,1.45-.14,2.94-.16,4.51.16,3.63.81,6.77,2.86,9.18,5.4,1.32,1.4,2.48,2.94,3.44,4.62.46.85.91,1.71,1.25,2.64.35.92.56,1.82.84,2.73.54,2.25.95,4.53,1.09,6.83.27,3.47.07,6.96-.3,10.36-.29,2.65-.58,5.25-1.07,7.84-.11.57-.2,1.13-.33,1.7-.49,2.11-.93,2.69-1.76,2.93-.19.05-.39.14-.56.15-.57.05-.84-.94-.6-2.48.72-4.54,1.6-9.21,1.84-13.94.19-3.5.11-7.03-.57-10.44l.07-.02Z"/><path class="cls-1" d="M261.7,229.42c-1.38-.83-1.93-2.67-1.6-4.62.03-.23.07-.51.11-.67.04-.15.07-.31.11-.45.08-.29.17-.58.27-.86.19-.56.41-1.1.65-1.62.34-.76.65-1.53,1.06-2.24.73-1.25,1.56-2.42,2.49-3.53.47-.55.96-1.09,1.52-1.61.28-.26.58-.52.95-.76l.3-.18.26-.13c.18-.09.35-.17.53-.24,1.25-.54,2.54-.82,3.84-.95.83-.08,1.67-.05,2.51.09.83.13,1.66.45,2.31,1.04.3.57.31.33-.2.49-.25.09-.58.18-.94.32-.37.16-.75.29-1.14.31-.69.05-1.38.21-2.05.37-.67.12-1.34.3-1.96.51-.63.15-1.3.39-1.77.61-.15.06-.42.25-.67.46-.26.21-.53.45-.79.71-1.28,1.24-2.21,2.96-3.1,4.57-.48.89-.92,1.81-1.24,2.74-.36,1.14-.41,1.3-.37,1.87.02.16.07.31.15.45.08.14.22.28.38.24.3-.05.55-.28.8-.5l.28-.27.46-.51.96-1.13c.63-.79,1.26-1.57,1.89-2.35.5-.62.96-1.25,1.55-1.88.31-.32.61-.63,1.14-.92.26-.15.56-.22.85-.28.2-.04.32-.07.49-.12.29-.08.6-.2.98-.28.69-.15,1.35-.12,1.76.1.42.21.56.57.53.96-.01.18-.02.36-.08.5-.1.25-.33.39-.53.53-.22.16-.35.27-.62.37-.41.14-.99.43-1.81.67l-.32.08s-.02.02-.04.03c-.02.03-.01.03-.04.08l-.45.47c-.78.84-1.65,1.99-2.54,3.1l-1.03,1.27-.55.64-.69.77c-.72.77-1.51,1.48-2.3,1.83-.77.32-1.53.39-2.31-.01l.02-.07Z"/><path class="cls-1" d="M240.18,284.9c-.81-3.63-1.5-7.29-2.2-10.97-.25-1.34-.6-2.67-.81-4.02-.8-4.76-1.36-9.6-1.48-14.46-.05-1.08-.09-2.16-.05-3.24.01-1.08.02-2.16.04-3.23.12-1.37.15-2.76.37-4.12.28-1.35.59-2.71,1.34-3.95.47-.77.21-.7.35.05.05.37.33.94.47,1.58.08.32.19.67.24,1.02.03.35.05.72.03,1.1-.15,5.39-.09,10.72.22,16.22.17,3.29.93,6.66,1.55,9.99l2.22,11.02c.44,2.27.87,4.55,1.31,6.82.3,1.73.6,3.47.9,5.2.24,1.74.56,3.47.78,5.2.17,1.35.4,2.67.6,4,.16,1.34.32,2.67.47,4.01.08.59.12,1.17.14,1.77-.06,2.23-.25,2.93-.7,3.41-.1.11-.2.25-.3.31-.32.21-.66-.69-.97-2.27-.09-.59-.25-1.17-.29-1.77-.05-.59-.14-1.19-.24-1.78-.16-1.19-.33-2.4-.49-3.61-.43-2.42-.77-4.87-1.27-7.32-.67-3.64-1.47-7.3-2.29-10.95l.07-.02Z"/><path class="cls-1" d="M295.93,274.82c.21-4.57.23-9.16-.06-13.71-.11-1.66-.34-3.31-.54-4.94-.16-1.25-.33-2.49-.57-3.71-.12-.61-.24-1.22-.4-1.81-.08-.3-.14-.6-.24-.88l-.13-.43c-.04-.14-.1-.31-.1-.36-.06-.14-.14-.24-.29-.34-.25-.15-.57-.29-.92-.41-.7-.25-1.5-.42-2.3-.57-1.6-.3-3.27-.48-4.93-.63-2.61-.23-5.25-.28-7.87-.3-3.36-.04-6.75.23-10.12-.63-1.04-.43-.88-.39.02-.79.45-.19,1.09-.6,1.85-.79.76-.22,1.65-.42,2.62-.48.43-.03.86-.06,1.29-.08h1.29s2.59,0,2.59,0c1.73.02,3.46.06,5.2.14,1.74.08,3.49.2,5.25.4,1.76.21,3.52.47,5.36,1.02.54.18,1.07.34,1.66.65.15.07.29.14.45.25.18.13.4.25.54.4.33.29.55.67.74,1.06l.44,1.28.34,1.21c.22.81.41,1.62.58,2.43.34,1.63.6,3.26.79,4.88.53,4.71.67,9.43.63,14.13-.03,2.89-.15,5.79-.33,8.67-.27,4.37-.79,8.75-1.43,13.06-.27,1.68-.5,3.35-.82,5.01-.31,1.66-.67,3.33-1.24,4.99-.24.73-.52,1.45-.86,2.17-.67,1.34-1.44,2.1-2.08,2.52-.35.19-.64.3-.89.36-.29.04-.53.02-.75-.03-.2-.05-.43-.07-.55-.14-.21-.13-.13-.44.06-.88.1-.19.2-.49.31-.81.12-.29.27-.68.44-1.07.48-1.21.94-2.5,1.29-3.88.38-1.38.74-2.78,1.03-4.24.61-2.91,1.1-5.93,1.49-8.98.56-4.53.96-9.14,1.12-13.75h.08Z"/><path class="cls-1" d="M213.74,349.24c-1.86-.98-3.56-2.14-5.18-3.39-1.62-1.25-3.15-2.6-4.58-4.03-2.89-2.84-5.41-6-7.7-9.29-1.66-2.41-3.24-4.88-4.6-7.46-4.78-9.13-7.68-19.15-8.72-29.32-.46-4.52-.49-9.13,0-13.63.6-5.78,2.19-11.5,4.89-16.6.88-1.57.93-1.28.79.28-.08.78-.2,1.87-.36,3.16-.12,1.31-.36,2.79-.73,4.35-.32,1.38-.56,2.78-.84,4.16-.27,1.38-.5,2.77-.66,4.17-.34,2.79-.46,5.6-.39,8.42.19,5.63.93,11.34,2.23,16.94,1.56,6.72,4.47,13.37,8.04,19.44,3.94,6.64,8.88,12.84,15.04,17.45,1.9,1.4,3.91,2.65,6.05,3.55,2.14.89,4.37,1.53,6.62,1.33,3.45-.19,6.93-1.4,10.24-2.83,3.33-1.44,6.49-3.27,9.58-5.17,4.78-3,9.19-6.37,13.6-9.81.96-.77,1.91-1.52,2.88-2.29,1.82-1.41,3.05-2.32,3.99-2.84.96-.51,1.61-.68,2.23-.68.28,0,.62-.05.83,0,.35.09.22.51-.3,1.21-.52.7-1.41,1.69-2.72,2.78-7.66,6.53-16.17,13.06-25.84,18.13-3.62,1.83-7.42,3.48-11.67,4.29l-.79.16-.83.07-1.66.12c-.55.05-1.15-.04-1.72-.06-.56-.08-1.12-.15-1.67-.26-2.19-.46-4.2-1.28-6.08-2.26l.03-.07Z"/><path class="cls-1" d="M336.9,327.76c5.46,5.5,10.63,11.25,15.6,17.16,4.96,5.91,9.73,11.99,14.24,18.26,3.29,4.59,6.41,9.28,9.2,14.28.74,1.35,1.46,2.73,2.08,4.21.31.75.6,1.51.8,2.42.13.55.2,1.27.09,1.87-.08.63-.44,1.18-.89,1.61l-1.44,1.17c-.41.34-.83.67-1.25.99-.85.64-1.68,1.3-2.54,1.91-1.71,1.25-3.45,2.45-5.2,3.61-3.51,2.33-7.11,4.52-10.79,6.59-3.68,2.05-7.42,4-11.4,5.6-.49.21-1.01.38-1.52.56-.52.18-1.02.36-1.58.49-.55.13-1.07.3-1.71.34l-.5.05c-.18.01-.37.05-.57,0-.4-.04-.77-.22-1.13-.41-.61-.37-1.01-.7-1.44-1.07-.43-.36-.82-.74-1.21-1.11-.77-.75-1.5-1.52-2.22-2.31-5.91-6.58-11.3-13.54-16.59-20.46-3.38-4.45-6.65-9-9.84-13.61-1.59-2.31-3.15-4.63-4.66-6.99-1.53-2.35-2.87-4.82-4.19-7.3-.81-1.55-1.05-2.29-.93-2.29.13-.01.64.69,1.57,1.84.92,1.16,2.25,2.78,3.91,4.7,1.61,1.95,3.4,4.29,5.3,6.87,3.35,4.58,6.81,9.09,10.27,13.59,3.42,4.53,6.89,9.03,10.46,13.43,1.78,2.2,3.59,4.38,5.45,6.49.93,1.05,1.87,2.09,2.83,3.08.48.49.97.97,1.45,1.41.24.22.49.44.72.62.12.1.23.18.34.26.11.09.24.15.24.17.05.02.05.06.15.03l.3-.04c.13-.02.24,0,.39-.04.61-.17,1.2-.26,1.85-.51,1.26-.41,2.55-.94,3.82-1.5,2.56-1.12,5.08-2.42,7.57-3.76,3.79-2.05,7.54-4.34,11.21-6.77,1.84-1.22,3.66-2.47,5.43-3.79.9-.65,1.77-1.32,2.64-2,.44-.34.87-.68,1.29-1.03l1.08-.9c.2-.11.21-.36.17-.55-.02-.07-.08-.4-.17-.65-.08-.26-.18-.53-.28-.81-.43-1.1-.99-2.22-1.57-3.32-1.17-2.21-2.53-4.36-3.93-6.48-8.54-12.69-18.13-24.83-28.52-36.16-6.42-6.95-13.14-13.66-20.52-19.49-2.8-2.19-5.71-4.26-8.77-5.99-3.06-1.68-6.31-3.18-9.65-3.33-.83-.1-1.69.02-2.53.03-.85.14-1.7.19-2.54.41-.84.18-1.69.38-2.52.65-.84.23-1.66.55-2.48.85-3.27,1.26-6.41,2.91-9.45,4.71-9.44,5.69-17.78,12.72-26.46,19.46-1.91,1.49-3.78,2.96-5.77,4.41-7.34,5.43-10.5,6.21-12.56,6.29-.48,0-1.08.07-1.35.05-.47-.06.17-.42,1.5-1.32,1.33-.91,3.39-2.33,6.03-4.24,7.87-5.63,15.48-12.29,23.7-18.49,4.1-3.12,8.35-6.16,12.86-8.93,4.53-2.73,9.31-5.29,14.77-6.72,2.01-.56,4.18-.8,6.38-.8l1.67.11c.55.05,1.12.16,1.66.26,1.08.24,2.13.54,3.12.91,3.98,1.48,7.43,3.61,10.71,5.9,6.52,4.61,12.32,9.94,17.88,15.44l-.05.08Z"/><g class="cls-2"><path class="cls-1" d="M94.46,305.47l-14.53-.04c-1.77,0-3.53.09-5.3.06l-18.68-.28c-2.76,0-5.54,0-8.28,0-3.53.02-7.05.13-10.6-.43-1.1-.29-.93-.26.01-.53.47-.14,1.11-.29,1.92-.5.4-.1.83-.2,1.29-.29.23-.05.46-.08.71-.14.24-.02.49-.03.74-.05,3.59-.16,7.17-.37,10.77-.45,3.6-.04,7.21-.04,10.83.04,4.34.1,8.84-.15,13.28-.21l14.63-.04c3,0,6.01-.02,9-.03,4.54-.03,9.11-.03,13.62-.14,3.51-.09,6.94-.34,10.41-.51.76-.04,1.51-.1,2.28-.12,2.86-.07,3.77.12,4.39.92.14.18.32.35.4.52.27.57-.89,1.14-2.97,1.31-6.18.57-12.71.75-19.27.85-4.87.04-9.77.09-14.65.13v-.07Z"/></g><g class="cls-2"><path class="cls-1" d="M474.98,187.85c0-.05-.04-.05-.08-.06h-.06s-.47-.07-.47-.07l-2.42-.23c-1.63-.14-3.27-.25-4.91-.36-3.28-.21-6.57-.39-9.86-.54-6.58-.3-13.17-.51-19.75-.54-2.4,0-4.79.03-7.17.13-2.36.11-4.79.23-6.93.6-.4.08-.38.08-.49.1-.14.02-.2.16-.24.28,0,.01-.08.27-.13.48-.05.21-.09.45-.14.68-.16.94-.27,1.95-.35,2.95-.17,2.02-.25,4.08-.32,6.14-.12,4.13-.13,8.28-.12,12.43.02,8.31.15,16.62.27,24.94.1,7.54.2,15.13.3,22.62.03,9.62,0,19.31-1.13,28.89-.39,2.98-.45,2.57-.63.02-.19-2.55-.71-7.23-.87-12.75-.06-4.89-.23-9.79-.36-14.69-.09-4.9-.19-9.8-.28-14.71-.21-9.82-.29-19.67-.29-29.58,0-4.86.01-9.8.02-14.77.03-2.49.07-5,.2-7.53.07-1.27.16-2.54.33-3.84.08-.65.2-1.31.38-2.03.26-.94.73-2,1.69-2.39l.65-.22c.21-.07.48-.12.6-.15.3-.06.6-.12.9-.16.59-.09,1.16-.16,1.73-.22,1.13-.11,2.25-.18,3.36-.23,6.74-.28,13.4-.13,20.08.06,6.67.21,13.33.53,20,.97,2.05.14,4.1.29,6.17.51.39.05,1.37.12,2.05.33.35.1.58.37.82.59l.22.48c.07.16.09.37.14.55l.38,1.81c.11.53.13,1.04.2,1.56.53,4.16.61,8.26.76,12.38.24,12.45-.11,24.92-.42,37.24-.21,9.58-.42,18.97-.63,28.44-.05,2.08-.11,4.12-.16,6.23-.29,7.79-.62,10.25-1.57,11.89-.21.37-.43.86-.63,1.08-.68.72-1.12-2.48-1.05-8.19.16-16.93.85-34.74,1.19-52.62.14-6.64.2-13.28.14-19.92-.03-3.32-.12-6.63-.28-9.91-.13-1.62-.16-3.3-.37-4.88l-.28-2.4c-.06-.38-.15-.74-.22-1.11-.06-.26-.03-.15-.04-.2v-.04s.06-.06.06-.06Z"/></g><g class="cls-2"><path class="cls-1" d="M434.04,290.24l-19.49-.28c-2.37-.02-4.74.04-7.11,0-8.35-.14-16.71-.29-25.06-.3-3.71,0-7.43.05-11.11.1-2.36.03-4.73.14-7.1.1l-3.55-.04c-1.18,0-2.37-.15-3.55-.21-1.48-.12-1.28-.22-.04-.55.69-.18,1.56-.42,2.56-.69,1.06-.25,2.32-.44,3.68-.57,2.41-.23,4.82-.34,7.24-.44,2.41-.11,4.83-.18,7.25-.25,4.84-.05,9.69-.03,14.56.08,5.82.13,11.88-.05,17.84-.05,6.55.07,13.1.14,19.65.21,4.03.05,8.06.11,12.09.16,6.1.06,12.23.18,18.29.16,4.71-.01,9.32-.2,13.98-.31,1.02-.03,2.03-.06,3.06-.09,3.83-.05,5.05.18,5.87.93.19.17.43.34.54.5.37.55-1.2,1.07-4,1.24-8.32.5-17.1.54-25.91.52-6.54-.05-13.11-.1-19.67-.15v-.07Z"/></g><path class="cls-1" d="M252.4,166.81c.16,1.41.69,2.95,1.35,4.42.25.54.59,1.03.86,1.57.99,1.87,1.99,3.81,3.25,5.59.56.78,1.16,1.55,1.8,2.26.41.45.84.89,1.26,1.34.38.49.68,1.06,1.05,1.57.21.34.06.46-.4.48-.23.01-.54,0-.9-.03-.36-.03-.78-.09-1.15-.25-1.11-.77-2.09-1.68-3.01-2.63-.89-.99-1.65-2.09-2.31-3.25-.81-1.38-1.83-2.69-2.59-4.16-.83-1.61-1.54-3.3-2-5.13-.27-1.13-.42-2.32-.31-3.57.1-.94.41-1.93,1.06-2.75.64-.8,1.46-1.33,2.27-1.72,1.27-.6,2.54-1.05,3.88-1.28.3-.04.58-.12.89-.13,1.13-.04,1.52.24,1.63,1.06.02.19.06.37.05.56-.04.62-.46,1.04-1.1,1.2-.97.23-1.95.49-2.85.79-.88.31-1.69.7-2.09,1.12-.17.15-.25.3-.35.44-.05.08-.08.19-.13.28-.02.12-.07.22-.1.35-.11.5-.11,1.16,0,1.85l-.08.02Z"/><path class="cls-1" d="M234.86,175.5c1.78,3.29,5.25,5.97,9.08,6.12,1.78.07,3.98-.45,5.19-1.86,1.11-1.29,1.2-3.02.73-4.6-.59-1.97-1.79-3.7-3.05-5.29-.46-.58-1.46-.48-1.94,0-.58.58-.46,1.36,0,1.94.34.43.81,1.09,1.16,1.65.19.3.37.61.54.93.08.15.16.31.24.46.03.07.06.13.09.2.2.41-.04-.11.06.13.12.29.22.59.3.9.03.12.06.25.09.38,0,.04.05.3.03.12-.02-.16,0,.09,0,.12,0,.14.01.27,0,.41,0,.08,0,.15-.02.23,0-.01.04-.25,0-.09-.03.12-.06.25-.1.37,0,.03-.08.19-.01.04.08-.18-.06.09-.08.13-.03.05-.06.09-.09.14-.11.16.15-.15,0-.01-.09.08-.16.17-.25.25-.15.14.16-.1-.02.01-.06.03-.11.07-.17.11-.08.05-.16.09-.24.13-.04.02-.2.1-.07.04-.72.31-1.4.43-2.1.43-.74,0-1.31-.1-2.08-.36-.59-.2-1.24-.54-1.83-.93-1.3-.86-2.36-2.08-3.12-3.47-.84-1.56-3.21-.17-2.37,1.39h0Z"/><path class="cls-1" d="M258.9,166.66c.11.2.2.41.29.61.04.08.12.2-.04-.1.03.05.04.11.06.16.05.14.11.28.16.42.19.54.36,1.1.48,1.66.06.28.1.56.15.84.04.21-.03-.35,0-.02,0,.07.01.13.02.2.02.16.03.33.03.49.01.27,0,.55,0,.82,0,.08-.01.16-.02.24-.02.22,0-.09.01-.09.01,0-.08.4-.09.45-.03.11-.06.23-.1.34-.02.06-.04.11-.06.16-.09.27.12-.2.02-.05-.07.1-.12.23-.18.33-.02.03-.07.13-.09.14.11-.05.18-.2,0-.02-.08.08-.17.15-.24.24-.15.16.04-.03.08-.06-.05.03-.1.07-.15.1-.06.04-.13.07-.2.11-.04.03-.23.11-.05.03.21-.1-.08.03-.1.03-.08.03-.16.04-.24.07-.09.03-.32.04.03.01-.07,0-.13.01-.19.02-.13,0-.26,0-.4,0-.25-.01.02,0,.06.01-.09-.02-.17-.03-.26-.05-.18-.04-.34-.1-.52-.15-.07-.02-.3-.12-.03,0-.07-.03-.14-.06-.21-.1-.14-.07-.28-.14-.41-.22-.16-.09-.31-.18-.46-.28-.07-.04-.13-.09-.2-.14-.03-.02-.32-.23-.21-.15.13.1-.08-.06-.1-.08-.1-.08-.19-.16-.28-.24-.16-.14-.31-.28-.46-.42-.29-.28-.56-.59-.83-.9-.03-.03-.18-.23-.08-.09s-.11-.15-.13-.19c-.11-.15-.21-.3-.31-.46-.09-.15-.18-.3-.26-.45-.03-.06-.06-.12-.09-.18-.16-.32.07.19-.03-.06-.27-.69-.92-1.17-1.69-.96-.66.18-1.23,1-.96,1.69.62,1.59,1.72,2.98,3.03,4.08s3.02,2.17,4.82,2.09c1.6-.07,3.09-1.01,3.76-2.48s.64-3.05.4-4.6c-.22-1.45-.7-2.9-1.38-4.2-.34-.66-1.26-.86-1.88-.49-.67.39-.84,1.22-.49,1.88h0Z"/><path class="cls-1" d="M250.02,195.14c1.88,3.08,6.26,4.19,9.35,2.28.61-.38.9-1.25.49-1.88s-1.23-.9-1.88-.49c-.14.08-.28.17-.42.24-.04.02-.09.04-.13.06-.09.04-.06.03.11-.04-.04.03-.13.05-.18.07-.17.06-.34.11-.51.15-.08.02-.16.04-.23.05-.05,0-.33.06-.1.02s-.05,0-.1,0c-.08,0-.16.01-.24.01-.16,0-.32,0-.48,0-.08,0-.16,0-.24-.02-.05,0-.1,0-.14-.01-.11-.01-.06,0,.13.02-.1.04-.37-.07-.48-.09-.16-.04-.31-.08-.47-.13-.08-.03-.15-.05-.23-.08-.19-.07-.12,0,.01.01-.26-.03-.63-.32-.85-.46-.06-.04-.19-.11-.24-.17.05.06.19.16.05.04s-.26-.23-.39-.36c-.06-.06-.11-.12-.16-.18-.03-.03-.21-.25-.08-.08s-.04-.06-.06-.09c-.05-.08-.11-.16-.16-.25-.37-.61-1.25-.9-1.88-.49s-.89,1.22-.49,1.88h0Z"/><path class="cls-1" d="M233.19,170.38c1.22-1.09,2.35-2.19,3.76-2.99s3.15-.94,4.65-.72c.33.05.65.14.97.22.27.07,0-.01-.03-.02.02,0,.16.08.16.09,0,0-.25-.24-.1-.07-.25-.28-.31-.6-.22-.95.07-.26.26-.48.39-.56.37-.2.3-.11.14-.08.55-.11-.02-.02-.21-.03-1.24-.03-2.46-.13-3.69,0-2.39.23-4.64.99-6.68,2.26-1.5.94-.12,3.32,1.39,2.37,1.87-1.17,3.97-1.84,6.02-1.94.74-.04,1.49-.01,2.23.02.55.03,1.12.09,1.66-.03.81-.18,1.44-.91,1.45-1.76,0-1.09-.95-1.7-1.88-1.99-1.9-.58-4.39-.57-6.23.16-2.23.87-3.96,2.51-5.71,4.08-.55.5-.5,1.44,0,1.94.55.55,1.39.5,1.94,0h0Z"/><path class="cls-1" d="M288.03,120.99c.14.23-.11.45-.57.67-.15.07-.61.1-.68.04-.14-.13-.28-.25-.39-.39-.07-.08-.47-1.44-.62-1.91-.15-.45-.21-.92-.25-1.38-.06-.94-.06-1.88-.02-2.82,0-.21.04-.42.11-.62.24-.7.31-1.4.34-2.12,0-.12.04-.24-.04-.37-.15-.21.15-2.15.28-2.38.34-.62.61-1.14.92-1.71.04-.08.03-.18.18-.23.32-.11.34-.3.43-.47.12-.24.24-.48.43-.69.09-.11.27-.19.41-.28.13-.08.39.07.42.12.06.14.23.09.36.12.04,0,.1.02.13.04.06.04.45,1.65.44,1.8,0,.02-.05.55-.1,1.11-.03.56-.09,1.13-.09,1.25,0,.12-.09.23-.15.35-.04.05-.11,1.71-.12,1.77-.09.33-.03.68-.31.99-.06.06-.05.13-.06.2-.03.59-.18,1.16-.29,1.75-.06.3-.04.6-.06.9,0,.05-.04.11-.06.16-.02.07-.06.14-.06.2.01.72-.19,1.43-.11,2.15,0,.16-.25.97-.21,1.16.01.11-.31.48-.25.57Z"/><path class="cls-1" d="M290.78,125.98c-.17.19-.43.14-.74-.02-.1-.05-.24-.3-.2-.37.07-.14.15-.29.23-.42.05-.08,1.1-.98,1.47-1.3.35-.31.73-.57,1.12-.81.8-.46,1.58-1.01,2.45-1.36.19-.08.39-.14.6-.17.71-.11,1.38-.35,2.04-.61.11-.04.23-.07.31-.18.13-.2,1.99-.73,2.25-.72.64.01,1.26-.05,1.89-.01.09,0,.18-.04.27.05.22.2.4.13.59.12.26-.02.53,0,.8.03.13.02.28.13.41.21.12.07.1.4.07.44-.1.12.01.26.04.39,0,.04.02.1.02.14-.01.07-1.33.88-1.48.93,0,0-.14.04-.34.1-.19.07-.45.14-.72.21-.53.16-1.08.33-1.18.38-.11.05-.25.03-.37.02-.07-.02-1.6.6-1.66.62-.34.07-.63.25-1.02.17-.08-.02-.14.02-.2.04-.55.22-1.12.35-1.69.52-.29.08-.57.19-.86.29-.05.02-.11,0-.17.02-.07,0-.15.01-.21.04-.67.26-1.38.44-2.01.79-.15.07-.95.26-1.11.36-.09.05-.52.02-.58.1Z"/></svg>