<?xml version="1.0" encoding="UTF-8"?><svg id="Layer_1" xmlns="http://www.w3.org/2000/svg" width="520" height="520" viewBox="0 0 520 520"><defs><style>.cls-1,.cls-2{fill:#0056FF;}.cls-3{fill:#0056FF;}.cls-4{opacity:.4;}.cls-5{opacity:.25;}.cls-2{opacity:.1;}</style></defs><path class="cls-1" d="M233.11,192.26c.48-.15,1-.22,1.45-.22.16,0,.32-.06.48-.03.57.09,1.09.26,1.57.4.22.06.43.09.64.12.27.03.54.04.79.21.08.05.04.27-.06.49-.1.22-.26.46-.41.49-.55.07-1.05.12-1.54,0-.3-.08-.59.07-.86.13-.31.04-.59.08-.86.17-.17.06-.34.13-.49.22-.22.15-.46.3-.59.53-.09.18-.03.42.04.59.01.04.05.08.05.11.01.11-.13.12-.75.13h-.42c-.48.02-.87-.1-.98-.37-.31-.78.06-1.65.56-2.18.39-.41.89-.65,1.36-.84l.03.05Z"/><path class="cls-1" d="M234.14,193.13c.43-.21.89-.35,1.36-.41.17-.04.32-.1.49-.11.6-.04,1.19-.01,1.75.07.25.04.5.08.74.12.31.05.62.11.89.31.08.06.02.21-.1.37-.12.16-.3.35-.46.37-.56.07-1.03.24-1.56.12-.33-.05-.63.12-.93.22-.34.1-.66.24-1,.37-.21.08-.41.18-.6.3-.29.18-.58.38-.78.64-.15.21-.21.49-.26.74-.02.05-.01.12-.03.17-.06.19-.2.18-.67.01l-.32-.12c-.36-.14-.59-.37-.59-.6,0-.69.38-1.3.86-1.75.35-.35.77-.62,1.2-.85l.02.04Z"/><path class="cls-1" d="M230.56,197.57c-.21-.07-.44-.16-.68-.16-.09,0-.16.04-.25.05-.33,0-.66.11-1,.24-.15.06-.27.17-.39.28-.14.15-.26.31-.45.44-.06.04-.18-.02-.28-.14-.11-.12-.22-.32-.19-.48.14-.53.42-1.12.99-1.3.32-.11.59-.34.92-.45.36-.12.75-.17,1.12-.16.23,0,.46.05.68.1.34.07.65.2.96.3.25.08.53.09.8.17.06.02.13.02.18.05.21.11.19.26-.09.63l-.19.26c-.23.28-.48.46-.61.48-.42.07-.65,0-.92-.09-.19-.06-.39-.14-.6-.17v-.04Z"/><path class="cls-2" d="M255.68,308.68s-17.26-3.91-14.34-5.25c2.92-1.34-.6-6.13,1.73-7s-3.73-4.72,0-4.77,7.76-.11,7.76-.11c0,0-7.19-7.28-3.39-6.56,3.81.71,15.72,6.58,18.36,2.98,2.64-3.6,6.63-14.88,7.71-12.21,1.08,2.67,2.38,14.31,2.38,14.31l-11.96,13.08-8.25,5.53Z"/><path class="cls-2" d="M210.39,222.59s.46,1.15-1.16-7.42c-1.88-9.95-7.82-19.65-7.82-19.65,0,0-.74-8.52,0-10.67.74-2.14,5.97-11.95,7.47-14.73,1.51-2.78,8.71-7.67,6.59-1.78s-5.71,14.05-6.25,15.58,4.28-3.79,8.48-3.97,5.53.93,7.73,2.64c2.2,1.71,4.93,12.38,2.55,15.73s-3.74,4.25-4.24,1.59.83-.04-.81,5.43l-1.64,5.48s-2.79,5.28,1.89,8.59c4.68,3.31-12.81,3.19-12.81,3.19Z"/><path class="cls-2" d="M214.13,115.54s-5.56,5.04-9.19,16.59c-3.63,11.56-2.28,20.12-1.81,23.16s5.54,12.94,7.26,12.04,7.6-4.8,6.53-1.44c-1.08,3.36-2.07,5.43-2.07,5.43,0,0,6.95,4.13,12.06,5.17,5.12,1.04,12.49.57,18.2-2.06,5.71-2.64,12.64-11.81,14.36-14.05s10.26-2.17,12.83-6.19c2.58-4.02,6.02-11.11,3.58-12.05s-4.14-7.15-8.28-2.82c-4.14,4.33-4.14,11.9-6.78,7.17-2.64-4.73-.75-9.06-.19-11.69s4.51-9.55,3.29-9.11c-1.22.45-3.78,6.48-14.07-1.05-10.3-7.54-14.74-12.55-15.25-13.56-.51-1.01,1.81.55-6.32,1.41-8.12.85-14.16,3.04-14.16,3.04Z"/><g class="cls-5"><path class="cls-3" d="M235.44,418.17l-.81.37c-3.67,1.64-7.41,3.14-11.19,4.47-3.79,1.3-7.63,2.43-11.51,3.34-3.88.87-7.79,1.48-11.68,1.69-.97.02-1.95.12-2.9.07-.96-.05-1.92-.04-2.87-.1l-2.82-.31c-.98-.16-1.96-.33-2.93-.52-7.66-1.52-15.12-4.21-21.35-8.68-3.1-2.23-5.86-4.9-8.15-7.92-1.15-1.51-2.17-3.11-3.06-4.78-.45-.83-.86-1.69-1.25-2.56l-.56-1.32-.76-1.97c-.34-.95-.81-1.79-1.47-2.19-.32-.3-.79-.19-1.22-.22-.44,0-.89.02-1.34.06-.47.06-.85.09-1.36.23l-.93.24-1.49.39-5.87,1.58c-3.87,1.02-7.71,1.89-11.5,2.2-3.78.27-7.54.02-10.91-1.26-3.37-1.26-6.38-3.45-8.57-6.27-2.2-2.82-3.58-6.27-3.83-9.78-.27-3.51.62-7.05,2.5-10.03.94-1.5,2.13-2.85,3.48-4.05.65-.62,1.4-1.15,2.13-1.7l1.16-.76c.4-.28.69-.41,1.07-.6,1.45-.7,3.21-1.08,5.09-1.41.95-.16,1.92-.29,2.97-.44l.8-.12.96-.18c.89-.21,1.92-.49,2.68-.96.77-.47,1.35-1.11,1.71-1.91.35-.78.36-1.77.19-2.51-.02-.19-.1-.39-.21-.59-.1-.2-.18-.4-.32-.6-.29-.38-.61-.82-.88-1.14l-1.21-1.47c-1.26-1.53-2.44-3.05-3.45-4.64-2.04-3.15-3.43-6.61-3.38-9.97.02-3.35,1.54-6.53,3.97-9.23,2.45-2.77,5.47-4.85,8.91-6.26h.01c.81-.34,1.56-.66,2.14-.9.59-.22.99-.4,1.09-.48.8-.6,1.65-1.18,2.54-1.7.78-.41,1.59-.75,2.42-1.09.82-.36,1.67-.65,2.53-.89,1.72-.48,3.51-.58,5.26-.29.39.06,0-.03-1.13-.32l-4.31-1.05c-1.46-.1-2.95-.22-4.43-.09-1.55.11-4.5.51-7.56,1.64-2.27.89-4.47,2.04-6.5,3.46-2.04,1.45-3.84,3.1-5.47,5.01-1.61,1.91-3,4.15-3.85,6.66-.89,2.5-1.09,5.25-.76,7.84.35,2.59,1.2,5.03,2.32,7.22,1.11,2.21,2.48,4.21,3.92,6.07.72.93,1.47,1.83,2.21,2.69l.39.46h0s0,0,0,0l-.37.06-.77.1-1.65.18c-1.14.12-2.32.28-3.54.5-1.21.25-2.45.6-3.69,1.09-.62.26-1.24.54-1.84.89-.62.35-1.06.68-1.6,1.02-.52.33-1.01.7-1.5,1.09-.49.37-.98.76-1.44,1.19-3.75,3.26-6.63,7.85-7.54,12.92-.96,5.05-.04,10.36,2.38,14.79,2.38,4.46,6.18,8.11,10.68,10.34,2.25,1.12,4.65,1.9,7.1,2.33,2.44.42,4.89.53,7.29.42,4.82-.22,9.39-1.29,13.79-2.43l6.51-1.73,1.22-.31.3.78c1.74,4.43,4.26,8.64,7.41,12.25,3.14,3.63,6.92,6.66,10.97,9.13,4.05,2.48,8.41,4.36,12.88,5.78,2.23.71,4.49,1.3,6.77,1.8,1.14.24,2.27.47,3.43.67,1.2.15,2.41.33,3.61.44,4.81.37,9.53-.08,14.13-.85,1.34-.19,2.56-.52,3.56-.74,1-.23,1.74-.47,2.08-.63,1.12-.51,2.25-.98,3.35-1.51.92-.45,1.22-.74.91-.84l-1-.33c-.09-.03.21-.17.81-.38,1.79-.61,3.55-1.3,5.31-2,1.44-.57,2.13-.98,1.98-1.05-.41-.22,2.71-1.57,7.74-3.87.72-.33,1.44-.64,2.15-1,1.53-.75,2.66-1.35,3.13-1.69.47-.34.26-.34-.6-.04-.76.25-.5.05.61-.55,2.35-1.29,2.68-1.65.75-.92-.66.26-1.31.54-1.98.78-.64.24-.83.25-.52.04.31-.2,1.09-.61,2.08-1.13,1.86-.92,3.74-1.8,5.59-2.76,1.49-.8,2.48-1.35,2.39-1.42-.07-.04-1.2.41-2.73,1.17l-3.46,1.57c-.89.36-1.77.76-2.64,1.19-.87.43-1.78.81-2.67,1.23"/></g><g class="cls-5"><path class="cls-3" d="M394.84,307.71c.15.04.3.08.44.13,3.96,1.17,7.7,3.06,10.91,5.56,3.21,2.52,5.86,5.65,7.6,9.27,3.41,7.2,3.44,16.05-1.09,22.62-2.22,3.48-5.29,6.79-7.82,10.97-1.25,2.09-2.35,4.47-2.89,7.09-.1.66-.21,1.32-.28,1.98-.05.67-.07,1.33-.06,1.98.02,1.29.17,2.51.33,3.67.32,2.32.76,4.39.76,6.31.05,1.94-.2,3.9-.71,5.81-1.02,3.81-3.08,7.41-5.86,10.3-2.76,2.92-6.21,5.08-10.06,6.4-1.92.62-3.88,1.23-5.92,1.53-2.04.33-4.11.42-6.2.4h0c-.99,0-1.83-.02-1.98.06-.56.27-1.13.45-1.71.69-1,.3-2.02.47-3.02.48-.5,0-1,0-1.49-.07-.48-.1-.94-.25-1.39-.45-.2-.09-.01.04.52.43.34.23.65.53,1.01.7l1.07.57c.71.41,1.46.74,2.2,1.15.77.48,2.36.78,4.09,1.08,2.61.38,5.27.38,7.93.14,2.65-.25,5.32-.78,7.83-1.78,5.06-1.88,9.69-5.22,13.06-9.47,3.4-4.24,5.72-9.43,6.3-14.97.07-.69.09-1.39.13-2.08,0-.7-.02-1.4-.04-2.1-.08-1.39-.27-2.7-.46-3.93-.38-2.47-.71-4.67-.47-6.59.23-1.94.96-3.87,2.07-5.76,1.12-1.9,2.54-3.77,4.05-5.7,1.5-1.93,3.1-3.96,4.53-6.25,1.44-2.28,2.63-4.93,3.31-7.62,2.76-10.85-1.15-22.69-9.25-30.09-1.16-1.07-2.3-1.85-2.73-2-.69-.26-1.41-.45-2.1-.66-.58-.18-.88-.1-.86.15.02.27.04.54.05.81,0,.07-.17,0-.5-.15l-1.44-.68-1.47-.61c-.81-.31-1.27-.37-1.27-.23-.02.42-1.79-.21-4.67-1.03l-1.24-.33c-.89-.22-1.59-.3-1.91-.29-.32.01-.25.15.19.39.39.2.19.27-.46.12-1.41-.23-1.69-.08-.67.37.35.15.69.32,1.03.5.33.15.4.24.2.26-.21.03-.65-.1-1.21-.23-1.05-.28-2.11-.51-3.18-.73-.87-.14-1.47-.21-1.46-.1.01.07.62.32,1.49.53l1.89.56c.47.16.94.32,1.42.48.47.19.95.32,1.44.45"/></g><g class="cls-5"><path class="cls-3" d="M284.15,426.05l.25.1c2.27.94,4.64,1.63,7.05,2.12,2.42.41,4.86.78,7.31.84,1.21.1,2.42.04,3.64.06,1.21-.07,2.42-.12,3.62-.27,2.41-.24,4.79-.7,7.14-1.22,4.68-1.14,9.25-2.76,13.55-4.91,4.3-2.13,8.42-4.67,12.11-7.76,3.59-3.18,7.04-6.66,9.31-10.95h0c.27-.5.49-.93.5-1.02l.13-.96c.26-1.04.5-2.04.83-2.98.04-.1-.04-.01-.22.25-.45.67-.89,1.32-1.43,1.92-.27.32-.74.94-1.3,1.58-.39.49-.81.97-1.24,1.43-.42.47-.85.93-1.31,1.36-.89.88-1.74,1.8-2.66,2.65-1.82,1.72-3.8,3.28-5.85,4.72-4,3.01-8.39,5.52-13,7.48-4.61,1.96-9.45,3.37-14.38,4.09-2.46.37-4.94.54-7.42.59-2.48.05-4.96-.07-7.41-.44-.71-.1-1.35-.12-1.56-.09l-1.04.2c-.29.06-.42.15-.37.28l.16.41s-.08.05-.26.03c-.54-.05-1.08-.07-1.61-.15-.44-.06-.68-.05-.66.03.04.19-.97.18-2.51-.3l-.66-.2c-.47-.14-.84-.23-1.02-.24-.18,0-.14.06.09.2.21.12.1.14-.26.04-.75-.25-.92-.21-.39.12.18.12.37.22.56.32.18.1.22.15.1.14-.11-.01-.37-.07-.68-.2l-1.73-.74c-.47-.2-.79-.31-.8-.26,0,.04.3.24.77.47l1.03.52c.51.27,1.06.51,1.62.72"/></g><g class="cls-5"><path class="cls-3" d="M315.01,336.87l-.03-.1c-.71-1.7-1-3.68-.7-5.62.34-1.91,1.05-3.73,2.26-5.37,1.18-1.63,2.74-3.05,4.51-4.2,1.76-1.16,3.68-2.14,5.76-2.88,2.04-.85,4.19-1.61,6.41-2.22h0c.26-.07.48-.16.51-.2.12-.13.25-.26.38-.37.45-.34.92-.6,1.4-.77.05-.02,0-.03-.17-.04-.4-.03-.81-.07-1.22-.13-.22-.03-.62-.05-1.05-.05-1.3.03-2.6.1-3.92.22-1.31.15-2.66.24-3.94.64-2.58.7-5.2,1.71-7.48,3.33-2.3,1.57-4.38,3.63-5.86,6.16-1.52,2.55-2.2,5.57-1.97,8.56.02.43.15.81.26.91.18.17.36.34.55.5.16.13.31.16.43.09l.39-.21s.08.02.13.11c.15.26.26.52.43.76.13.2.24.28.32.24.21-.11.55.29.93.95l.17.28c.12.2.24.33.33.37.09.04.14-.02.14-.15,0-.12.08-.11.19.02.23.27.37.25.35-.04v-.29c-.02-.09.02-.14.07-.11.05.02.12.11.19.22.12.22.24.44.38.65.11.17.21.27.26.22.04-.04.03-.2-.05-.39-.05-.14-.12-.27-.16-.42-.06-.22-.15-.43-.21-.65"/></g><path class="cls-1" d="M310.73,317.61c-.27-.91-.4-1.87-.42-2.76-.01-.33-.06-.64-.04-.97.06-1.14.34-2.21.6-3.25.1-.46.2-.92.31-1.38.12-.58.25-1.17.47-1.73.07-.17.17-.13.28.05.1.18.23.49.22.84-.03,1.22-.04,2.4-.18,3.56-.07.69.02,1.41.1,2.1.08.76.21,1.49.46,2.18.15.43.33.85.55,1.25.34.6.74,1.19,1.29,1.6.43.31.95.43,1.42.5.1.02.21,0,.31.04.35.13.44.28.44.88,0,.13.01.27,0,.4-.01.44-.27.78-.74.86-1.39.19-2.72-.67-3.6-1.65-.68-.74-1.16-1.61-1.51-2.51l.05-.02Z"/><path class="cls-1" d="M311.32,320.82c-.21-.37-.37-.74-.49-1.12-.05-.13-.13-.25-.16-.39-.11-.49-.14-.99-.11-1.46,0-.21,0-.41,0-.62,0-.26-.02-.54.16-.77.05-.07.29,0,.53.12.23.11.48.25.49.36.04.38.11.72.08,1.13-.02.25.16.45.27.67.12.24.26.47.42.69.1.13.2.27.33.38.18.18.38.34.61.43.19.06.41,0,.59-.04.04,0,.09-.04.11,0,.11.12.13.3.12.71v.28c-.03.3-.14.56-.35.74-.34.35-.63.25-.93.24-.29-.06-.6-.14-.83-.34-.35-.27-.63-.62-.87-.97l.03-.03Z"/><path class="cls-1" d="M311.51,315.49c-.2-.97-.35-1.94-.4-2.92-.02-.36-.11-.7-.11-1.06-.01-1.26.07-2.5.21-3.72.09-.54.13-1.08.2-1.62.04-.69.26-1.37.54-2.01.09-.2.2-.15.33.05.13.2.35.56.44.96.16.7.14,1.35.19,2.02.06.66-.01,1.32-.08,1.99-.08.81.11,1.63.22,2.44.13.89.27,1.78.45,2.66.12.54.25,1.1.41,1.61.24.72.62,1.47,1.17,1.99.42.42,1.01.56,1.36.52.08-.02.15-.04.2-.07.1-.03.18.02.29.12.11.08.23.24.42.48l.26.31c.27.33.27.84-.31,1.22-.43.28-.99.31-1.49.26-.51-.06-.95-.24-1.35-.46-.78-.45-1.32-1.06-1.77-1.7-.67-.93-1.03-2.14-1.24-3.04l.05-.02Z"/><path class="cls-1" d="M256.74,423.43c-.66-.82-1.24-1.71-1.73-2.64-.18-.34-.38-.66-.53-1.02-.54-1.23-.89-2.55-1.04-3.87-.06-.59-.13-1.18-.16-1.77,0-.74-.11-1.6.46-2.26.16-.2.36-.08.58.18.11.13.24.3.37.48.06.09.13.19.17.27.02.09.03.17.02.26-.16,1.26-.08,2.64.11,4.02.13.84.5,1.65.91,2.41.44.85.96,1.65,1.56,2.4.37.46.77.91,1.2,1.32.65.62,1.35,1.22,2.11,1.7.6.37,1.26.6,1.87.92.14.06.28.12.41.19.49.28.59.49.56.87,0,.09,0,.18-.03.25-.06.26-.38.38-.84.33-.67-.11-1.35-.3-1.98-.61-.61-.33-1.2-.74-1.76-1.18-.83-.66-1.59-1.42-2.28-2.23l.03-.03Z"/><path class="cls-1" d="M252.17,421.67c-.17-.51-.31-1.03-.4-1.54-.05-.18-.11-.36-.12-.55-.01-.68.05-1.34.15-1.96.03-.28.05-.55.05-.82.02-.35.05-.7.29-1.01.07-.09.34-.02.61.12.27.14.59.33.63.49.19.59.19,1.1.12,1.69-.06.36.16.68.27,1.01.11.37.19.75.34,1.12.09.23.18.45.3.66.19.32.36.66.64.91.22.19.54.25.81.33.06.02.13.02.18.05.19.11.15.29-.14.84l-.2.38c-.23.42-.53.7-.81.7-.83.02-1.46-.45-1.95-.99-.39-.4-.61-.92-.84-1.4l.05-.03Z"/><path class="cls-1" d="M253.7,422.07c-.22-.58-.41-1.16-.53-1.75-.05-.21-.15-.41-.17-.63-.1-.78-.12-1.55-.1-2.3,0-.33-.03-.66-.07-.99-.04-.42-.14-.85.08-1.26.12-.25,1.69.18,1.75.56.09.72.16,1.42.1,2.19-.05.47.2.89.33,1.32.16.48.28.97.47,1.45.11.29.23.59.38.87.22.42.47.85.78,1.2.26.27.61.44.9.65.06.05.14.08.2.13.22.19.19.37-.09.81l-.19.3c-.23.33-.54.5-.84.44-.43-.08-.83-.25-1.2-.47-.33-.25-.66-.53-.9-.88-.38-.5-.66-1.06-.93-1.62l.05-.03Z"/><path class="cls-1" d="M307.16,328.02c.73-1.03,1.51-1.94,2.28-2.82.29-.32.53-.67.83-.98,1.05-1.1,2.15-2.13,3.27-3.13.5-.44,1-.88,1.5-1.31.6-.61,1.36-1.02,2.13-1.41.24-.12.23-.08.12.13-.12.21-.27.65-.53,1.09-.21.4-.5.71-.8,1.01l-.86.93c-.56.63-1.2,1.18-1.83,1.75-.77.67-1.39,1.54-2.04,2.34-.71.89-1.45,1.77-2.04,2.71-.37.58-.69,1.17-.96,1.78-.41.92-.69,1.91-.6,2.88.06.76.39,1.45.79,2,.09.12.2.22.29.34.18.2.24.37.25.54-.02.19-.07.37-.18.59-.05.1-.08.21-.13.3-.08.15-.22.23-.43.26-.21.03-.52,0-.77-.19-.75-.56-1.26-1.42-1.54-2.32-.28-.91-.34-1.87-.22-2.81.19-1.4.73-2.65,1.44-3.7l.04.02Z"/><path class="cls-1" d="M304.96,332.77c.04-.64.23-1.29.48-1.82.09-.2.16-.4.26-.59.39-.65.86-1.2,1.33-1.72.21-.24.4-.46.6-.7.25-.3.5-.61.82-.84.19-.15.4.45.16.82-.45.64-.89,1.26-1.36,1.85-.28.35-.44.8-.58,1.22-.17.46-.29.92-.3,1.38-.02.29,0,.58.07.86.08.43.2.87.47,1.21.21.26.51.41.79.5.06.02.12.03.18.04.21.08.24.18.19.6l-.03.28c-.04.31-.24.53-.57.52-.95-.07-1.78-.84-2.16-1.66-.15-.31-.26-.63-.33-.96-.05-.33-.07-.67-.05-.99h.04Z"/><path class="cls-1" d="M307.62,330.08c.17-1.21.61-2.41,1.2-3.42.21-.38.4-.76.65-1.11.88-1.23,2.04-2.17,3.17-3.04.5-.39,1-.77,1.5-1.15.65-.47,1.36-.85,2.1-1.17.23-.1.28.04.2.3-.08.25-.27.66-.59.99-.28.29-.55.59-.83.87l-.89.75c-.57.5-1.15,1-1.74,1.52-.68.62-1.2,1.43-1.69,2.21-.54.87-.97,1.78-1.17,2.76-.14.6-.19,1.23-.17,1.85.03.94.21,1.9.64,2.73.33.65.88,1.12,1.41,1.51.11.09.24.17.36.25.43.31.49.55.41,1-.02.1-.02.21-.05.3-.08.31-.44.45-1.03.35-1.64-.52-2.79-2.16-3.24-3.78-.38-1.22-.42-2.5-.28-3.73h.05Z"/><path class="cls-1" d="M116.76,352.11c.37.87.81,1.73,1.35,2.5.19.29.45.52.66.79.76.95,1.64,1.83,2.67,2.49.46.3.96.53,1.47.71.66.23,1.34.25,1.98.69.19.3.16.34-.08.72-.24.35-.71.79-1.2.76-.84-.13-1.67-.38-2.43-.75-.77-.37-1.43-.92-2.01-1.51-.69-.72-1.49-1.35-2.11-2.13-.69-.85-1.25-1.8-1.72-2.76-.29-.59-.55-1.2-.78-1.81-.36-.93-.57-1.9-.82-2.83-.19-.73-.45-1.43-.57-2.16-.03-.16-.07-.32-.08-.48-.09-.61.1-.83.29-.99.05-.04.09-.08.14-.11.14-.08.35.14.61.54.26.61.61,1.21.83,1.82.24.61.49,1.22.73,1.84.4.89.71,1.8,1.11,2.66l-.04.02Z"/><path class="cls-1" d="M116.43,350.11c.37.96.8,1.9,1.33,2.78.19.32.44.61.64.92.7,1.12,1.48,2.22,2.46,3.15.43.41.89.8,1.37,1.15.31.22.63.42.95.64.16.1.28.3.43.42.15.12.31.23.47.36.2.16.15.2-.09.22-.12.01-.29.02-.5.03-.2-.01-.45.02-.73.03-.82-.25-1.58-.66-2.31-1.11-.7-.5-1.29-1.13-1.82-1.8-.61-.82-1.39-1.55-1.91-2.45-.59-.97-1.08-2.01-1.48-3.06-.25-.65-.46-1.3-.65-1.97-.29-1-.49-2.02-.68-3.03-.15-.78-.33-1.55-.38-2.34-.02-.17-.04-.34-.04-.52-.02-.65.1-.86.33-1,.05-.03.1-.07.15-.09.16-.06.35.19.46.65.19.7.37,1.36.55,2.03.15.68.31,1.36.49,2.04.27,1,.58,2,.98,2.95l-.04.02Z"/><path class="cls-1" d="M185.98,347.6c-.49.48-1.06.9-1.62,1.22-.2.12-.39.27-.6.38-.75.36-1.53.6-2.28.83-.33.1-.66.23-.97.37-.42.12-.82.32-1.31.21-.15-.03-.18-.17-.14-.42.05-.21.11-.68.33-.81l.56-.36c.19-.1.4-.15.6-.23.4-.13.81-.25,1.23-.34.5-.12.92-.44,1.35-.7.47-.29.92-.6,1.3-.98.24-.23.47-.48.66-.75.29-.41.55-.86.66-1.34.07-.38,0-.76-.06-1.1-.01-.08-.05-.15-.04-.22.03-.28.12-.39.52-.55l.26-.11c.29-.1.58-.01.79.27.32.42.39.94.41,1.45-.03.51-.18,1-.38,1.45-.3.67-.74,1.25-1.21,1.77l-.03-.03Z"/><path class="cls-1" d="M183.05,347.93c-.56.64-1.16,1.1-1.76,1.56-.22.16-.41.36-.64.5-.8.53-1.63.99-2.46,1.44-.37.2-.73.41-1.09.63-.45.3-.97.48-1.53.54-.17.02-.21-.16-.16-.41.06-.25.17-.57.39-.77.38-.36.85-.55,1.29-.81.45-.25.91-.49,1.38-.73.57-.28,1.05-.73,1.55-1.12.54-.44,1.08-.89,1.54-1.37.28-.29.54-.63.63-.9.15-.53.2-1.21.05-1.76-.11-.45-.44-.78-.71-1.06-.06-.06-.13-.11-.19-.17-.2-.24-.19-.44-.09-.76.02-.08.04-.15.06-.22.07-.22.35-.35.78-.25.61.17,1.1.66,1.38,1.23.28.56.41,1.19.43,1.79.01.45-.04.89-.13,1.31-.03.18-.17.6-.29.78-.13.22-.26.42-.4.58l-.03-.02Z"/><path class="cls-1" d="M184.74,347.11c-.17.15-.35.31-.51.45-.06.05-.07.14-.15.18-.27.15-.54.28-.78.43-.1.07-.18.15-.26.24-.09.11-.16.25-.36.27-.11.02-.66-.64-.64-.81.09-.28.19-.52.45-.67.16-.08.16-.29.25-.42.12-.13.25-.27.37-.41.07-.09.15-.17.22-.27.1-.14.21-.28.25-.45.02-.14-.03-.3-.05-.44,0-.03-.02-.07-.02-.1,0-.11.16-.09.61.04l.3.08c.32.1.61.25.7.38.25.38.23.7.06.96-.11.2-.26.37-.4.54l-.04-.02Z"/><path class="cls-1" d="M265.35,285.72c.67-.34,1.25-.95,1.7-1.72.17-.28.27-.59.41-.9.5-1.07.82-2.29,1.2-3.53.17-.55.33-1.11.53-1.65.13-.35.26-.71.45-1.04.21-.32.49-.6.79-.84.19-.15.28-.03.33.24.04.26.12.71.07,1.09-.48,1.21-.74,2.56-1.25,3.97-.29.84-.45,1.8-.82,2.69-.41.97-1,1.94-1.86,2.67-.53.45-1.17.78-1.8.99-.97.32-1.95.38-2.86.48-.71.06-1.38.26-2.02.39-.14.03-.27.08-.41.11-.5.13-.7.05-.95-.25-.06-.07-.12-.13-.17-.19-.15-.19-.04-.56.38-.84,1.25-.81,2.73-1,3.93-1.12.91-.08,1.71-.21,2.35-.59l.02.04Z"/><g class="cls-4"><path class="cls-3" d="M235.99,310.69l-.11-.25c-2.46-4.18-5.83-7.67-9.53-10.49-3.66-2.81-7.64-5.03-11.67-6.97-4.03-1.93-8.17-3.55-12.12-5.22-.98-.42-1.96-.84-2.86-1.29-.89-.44-1.79-.93-2.35-1.38-.11-.1-.28-.22-.3-.27-.04-.05-.04-.02-.11-.12l-.22-.32-.88-1.3c-.57-.9-1.19-1.78-1.79-2.68-1.2-1.79-2.39-3.61-3.56-5.44l-.87-1.37-.94-1.34-1.84-2.69h0c-.29-.43-.56-.77-.64-.8-.32-.13-.62-.27-.93-.41-.47-.28-.92-.57-1.32-.89-.2-.16-.4-.32-.58-.5-.16-.18-.3-.38-.41-.59-.05-.09-.05.03-.03.36,0,.43.11.8.2,1.18l.26,1.15c.07.42.36,1.11.68,1.86,1.9,4.51,4.27,8.73,6.67,12.99.59,1.08,1.27,2.09,1.97,3.16l.27.4c.09.13.3.38.45.56.35.43.64.63.98.93.31.24.62.45.93.67l.89.55c2.34,1.3,4.58,2.22,6.81,3.2,4.44,1.9,8.77,3.79,12.84,6.07,2.03,1.13,3.99,2.36,5.84,3.7,1.86,1.33,3.61,2.76,5.17,4.35.44.47.89.83,1.1.88.35.08.69.18,1.02.28.28.09.47.05.56-.11l.27-.52s.11-.01.24.09c.39.32.81.62,1.17.97.31.28.52.38.59.29.19-.24.98.32,1.88,1.55.13.18.27.34.39.53.25.4.48.68.62.78.14.1.2.02.16-.25-.04-.23.08-.2.27.11.41.64.62.69.5.08l-.12-.63c-.04-.2-.02-.28.08-.2.09.07.23.29.37.59.27.55.46,1.13.68,1.7.14.48.2.81.28.76,0-.02.1-.44-.02-.94-.08-.38-.19-.74-.28-1.11-.17-.55-.36-1.12-.61-1.65"/></g><g class="cls-4"><path class="cls-3" d="M251.78,309.96h-.06c-.5.14-1.01.25-1.51.33-.48.16-.96.31-1.44.42-1.9.42-3.8.46-5.34-.19-.39-.15-.75-.36-1.11-.59-.39-.19-.77-.43-1.15-.73-.19-.15-.38-.3-.56-.47-.19-.16-.42-.3-.62-.47-.42-.32-.84-.68-1.25-1.06h0c-.1-.09-.2-.15-.23-.15-.14,0-.27,0-.39,0-.38-.04-.69-.13-.95-.25-.03-.01-.04.02-.02.1.03.21.05.42.05.64,0,.12.04.32.11.52.39,1.21.81,2.54,1.74,3.63.45.54.92,1.15,1.58,1.55.64.41,1.31.78,2.02,1.03,1.42.54,2.9.72,4.3.7,1.41-.02,2.78-.22,4.08-.54.19-.05.34-.15.36-.27l.12-.53c.03-.15.02-.28-.04-.4l-.18-.38s0-.07.03-.11l.3-.35c.08-.09.11-.19.07-.27-.09-.2.07-.47.39-.67l.14-.09c.1-.06.16-.14.18-.21.01-.07-.02-.13-.1-.16-.07-.03-.07-.1,0-.16.14-.13.12-.26-.04-.32l-.17-.06c-.05-.02-.08-.06-.07-.1.01-.04.06-.09.12-.12l.37-.17c.1-.05.15-.11.13-.17-.02-.05-.12-.08-.23-.07l-.25.03c-.13.01-.25.04-.38.06"/></g><g class="cls-4"><path class="cls-3" d="M235.84,283.65l.15-.11c1.33-.93,2.57-1.97,3.87-2.92,1.28-.98,2.62-1.87,3.9-2.85,2.58-1.87,5.23-3.62,7.97-5.24,2.7-1.68,5.46-3.26,8.3-4.7,1.41-.74,2.87-1.39,4.3-2.09,1.43-.71,2.87-1.38,4.33-2,1.46-.62,2.94-1.19,4.45-1.69.75-.26,1.51-.47,2.27-.72.75-.29,1.5-.56,2.27-.82h0c.36-.12.67-.24.71-.28.18-.16.35-.31.54-.45.64-.41,1.32-.67,2.02-.82.08-.02,0-.03-.23-.04-.57-.04-1.14-.1-1.72-.15-.31-.04-.88-.06-1.49-.05-.93.01-1.85.06-2.78.12-.91.15-1.82.33-2.72.52-1.8.39-3.59.87-5.35,1.41-1.76.56-3.52,1.12-5.21,1.82-1.68.73-3.36,1.47-5.01,2.28-3.29,1.62-6.56,3.32-9.59,5.39-1.53,1.01-3.04,2.06-4.52,3.15-.75.53-1.46,1.11-2.2,1.66-.71.58-1.4,1.19-2.09,1.79-.39.36-.7.72-.76.88l-.26.81c-.07.22-.05.37.07.43l.38.19s0,.08-.07.19l-.71.91c-.19.25-.26.41-.19.45.18.12-.21.7-.99,1.49l-.34.33c-.24.24-.41.44-.46.55-.05.11.02.13.19.05.15-.07.14.01-.03.2-.37.4-.36.53.01.33l.39-.2c.13-.06.18-.06.14.01-.04.07-.16.2-.33.34l-.95.82c-.26.22-.42.39-.37.42.03.02.26-.09.54-.29l.63-.44c.32-.23.64-.46.96-.69"/></g><path class="cls-1" d="M306.1,287c-2.78-3.86-6.12-3.86-18.54-3.36-12.43.51-14.87,7.4-24.72,14.84-9.36,7.08-16.92,23.52-17.64,25.11l.85.66s-2.54,6.7-3.48,8.77c-.94,2.07-2.99,9.7-3.84,7.44-.86-2.26-.56-5.15,1.48-10.26,1.21-3.03,4.46-7.94,4.99-8.09l-8.56-5.79s-17.06-14.55-29.93-21.3c-12.87-6.75-30.02-5.48-35.31-3.46-5.29,2.02-10.71,7.96-11.47,11.91-.75,3.95,3.38,14.35,6.03,20.78,2.65,6.43,22.26,22.75,22.42,22.75,0,0,9.95,1.27,14.12,2.07,4.17.8,10.49,4.77,10.49,4.77,0,0,4.35-5.76,9.96-9.52,5.6-3.77,13.22-4.52,19.04-4.11,5.82.41,14.51,3.35,20.17,5.65,2.21.9,9.3,4.72,9.3,4.72,0,0,7.95-9.04,11.67-12.29,3.72-3.24,18.89-2.99,18.89-2.99l6.43-12.44s2.07-10.92,2.07-16.74-1.64-15.27-4.42-19.12ZM222.2,340.21l-3.01-5.94s-6.35-9.58-8.8-11.8c-2.44-2.23-10.54-7.52-10.54-7.52,0,0,6.1-.72,11.18,3.21,6.14,4.75,10.08,11.17,12.17,15.8,2.3,5.08-1,6.25-1,6.25Z"/><path class="cls-1" d="M194.3,290.53c-.96-.64-1.9-1.34-2.73-2.19-.3-.31-.63-.6-.89-.95-.95-1.22-1.6-2.58-2.12-3.94-.22-.61-.44-1.21-.66-1.82-.33-.75-.38-1.59-.49-2.4-.02-.26.02-.23.18-.06.15.17.5.48.78.87l.36.52c.12.17.17.37.26.55l.48,1.1c.34.72.61,1.46.93,2.19.38.87,1.02,1.63,1.67,2.31.72.76,1.55,1.43,2.44,2.06.55.38,1.12.75,1.7,1.09.89.51,1.8,1,2.75,1.4.72.33,1.47.59,2.2.89.16.07.32.12.48.2.6.25.72.53.78.74.01.05.04.11.04.15.01.14-.29.18-.81.18-.72-.12-1.45-.26-2.19-.44-.37-.09-.74-.18-1.11-.3-.35-.15-.7-.3-1.05-.46-1.04-.48-2.06-1.05-3.04-1.66l.02-.03Z"/><path class="cls-1" d="M194.77,289.69c-1.12-.99-2.11-2.13-2.96-3.3-.31-.43-.65-.84-.94-1.28-.99-1.57-1.85-3.18-2.67-4.82-.37-.72-.72-1.46-1.05-2.19-.47-.92-.74-1.94-.97-2.95-.07-.32.02-.3.24-.11.22.2.65.56,1.01,1.03.68.83,1.12,1.74,1.67,2.61.45.91.9,1.83,1.37,2.77.55,1.12,1.33,2.16,2.06,3.17.81,1.12,1.67,2.18,2.67,3.1.62.57,1.26,1.11,1.96,1.6,1.05.73,2.17,1.42,3.34,1.96.91.44,1.88.68,2.8,1.06.21.08.41.15.61.24.38.16.61.31.75.49.14.16.2.32.22.5.01.08.03.17.03.24,0,.22-.4.31-1.05.29-1.84-.27-3.64-.99-5.4-1.91-1.3-.68-2.56-1.51-3.73-2.46l.03-.04Z"/><path class="cls-1" d="M240.05,313.85c-.75-.83-1.35-1.77-1.85-2.74-.18-.35-.36-.7-.5-1.07-.47-1.3-.79-2.62-.98-3.94-.08-.59-.17-1.16-.25-1.74-.11-.74-.18-1.48-.22-2.23-.01-.23.02-.21.11-.02.09.18.28.51.44.92.26.71.52,1.42.79,2.13.13.35.25.7.38,1.05.08.35.17.71.26,1.08.2.87.62,1.69,1.02,2.47.45.86.92,1.71,1.54,2.45.37.46.8.89,1.26,1.27.69.58,1.46,1.1,2.31,1.44.66.26,1.35.35,2.01.51.15.03.3.05.44.08.54.17.7.4.8.66.02.06.06.12.07.18.04.17-.21.34-.71.52-.37.12-.72.09-1.1.1-.37-.02-.76,0-1.11-.12-.72-.2-1.42-.5-2.09-.88-.98-.56-1.87-1.28-2.65-2.1l.03-.03Z"/><path class="cls-1" d="M236.73,312.57c-.09-4.38,3.8,2.99,7.52,2.88,3.74-.11,7.09-4.37,8.21-6.4s-1.11,4.96-1.11,4.96l-5.3,10.24-4.77-2.9-4.63-5.03.09-3.75Z"/><path class="cls-1" d="M232.39,311.85c-.53-.33-.97-.73-1.44-1.11-.17-.14-.36-.24-.52-.39-.57-.52-1.12-1.06-1.66-1.59-.23-.24-.48-.47-.72-.7-.31-.29-.62-.58-.86-.95-.07-.11.02-.19.2-.22.18-.03.45-.03.67.08.76.42,1.51.79,2.09,1.42.36.36.85.58,1.28.85.48.3.96.6,1.44.9.29.19.58.37.88.52.45.23.92.44,1.4.51.37.05.74-.05,1.05-.17.07-.03.13-.07.2-.09.12-.05.2-.05.29.03.09.1.18.24.29.43l.15.25c.07.14.1.28.08.44-.02.15-.08.37-.22.44-.85.56-1.96.49-2.82.22-.66-.2-1.24-.51-1.78-.82l.02-.04Z"/><path class="cls-1" d="M236.09,314.21c-.25-.09-.48-.19-.7-.3-.08-.03-.16-.03-.23-.07-.26-.16-.49-.35-.7-.53-.09-.07-.2-.12-.3-.16-.13-.05-.28-.08-.34-.27-.03-.1.56-.84.68-.87.21,0,.38,0,.53.17.09.11.23.03.34.04.12.01.26.03.39.04.08,0,.17.02.25.02.12,0,.26.02.37-.06.08-.06.1-.24.14-.35,0-.02,0-.06.02-.08.05-.04.16.11.45.52l.2.29c.22.32.36.62.37.82-.03.54-.36.74-.69.8-.25.06-.51.05-.76.02v-.05Z"/><path class="cls-1" d="M232.21,310.69c-.51-.31-1.01-.64-1.5-.96-.18-.12-.38-.2-.55-.33-.6-.47-1.17-.96-1.72-1.47-.23-.24-.48-.45-.73-.67-.32-.27-.63-.55-.86-.91-.07-.11.03-.21.21-.27.19-.06.48-.11.7-.03.77.33,1.6.5,2.15,1.14.36.34.84.5,1.28.74.47.26.94.54,1.43.78.3.15.6.3.91.43.46.19.92.39,1.38.42.36.03.7-.13.94-.29.05-.04.1-.08.15-.12.17-.1.27.03.6.56l.21.32c.21.32.3.85,0,1.09-.89.73-2.08.62-2.92.37-.66-.2-1.19-.49-1.72-.76l.02-.05Z"/><path class="cls-1" d="M238.34,269.68c.33-.61.7-1.1,1.06-1.58.13-.17.21-.37.35-.54.25-.29.51-.57.78-.84.29-.25.58-.5.86-.74.25-.22.47-.45.7-.68.28-.3.57-.6.96-.78.12-.06.23.09.3.31.07.22.11.53,0,.73-.39.7-.73,1.39-1.25,1.97-.31.35-.51.79-.73,1.21-.26.45-.53.9-.73,1.34-.13.27-.24.54-.29.81-.11.41-.18.81-.03,1.17.11.28.43.42.62.51.04.02.09.02.13.05.06.04.07.1.03.26-.03.14-.07.32-.14.57l-.08.34c-.09.35-.36.67-.83.71-.61-.07-1.21-.42-1.54-.91-.36-.48-.56-1.05-.63-1.64-.11-.87.11-1.65.41-2.28l.06.02Z"/><path class="cls-1" d="M235,272.96c.33-.33.66-.65.96-.99.11-.12.17-.28.28-.4.39-.44.88-.82,1.26-1.26.17-.19.31-.41.44-.62.16-.28.3-.57.58-.79.09-.07.27.05.43.23.16.18.32.45.28.64-.17.66-.37,1.3-.79,1.83-.25.32-.34.74-.55,1.09-.22.39-.47.77-.71,1.14-.14.24-.32.45-.47.69-.23.35-.49.69-.65,1.07-.13.3-.12.66-.17,1-.01.07,0,.16-.02.23-.07.26-.29.24-.9-.03l-.41-.18c-.45-.21-.8-.53-.84-.77-.11-.71.14-1.25.45-1.77.23-.39.51-.74.76-1.11l.05.03Z"/><path class="cls-1" d="M237.33,274.57c-.12-.02-.24-.04-.35-.05-.04,0-.06.04-.1.03-.15-.03-.32-.07-.46-.09-.06,0-.11.03-.15.08-.05.06-.06.18-.2.06-.09-.07-.71-1.43-.65-1.49.11-.1.26-.13.48,0,.13.08.18-.04.27-.05.1-.02.21-.02.31-.03.07,0,.14,0,.19-.01.09-.01.2,0,.27-.07.05-.05.06-.18.09-.28,0-.02,0-.06.02-.07.04-.05.11.05.32.45l.15.28c.16.31.28.59.29.7.03.34-.06.44-.18.5-.09.05-.19.06-.29.08l-.02-.04Z"/><path class="cls-1" d="M213.61,272.26c-.19-.49-.41-.98-.68-1.45-.09-.18-.23-.31-.33-.49-.34-.62-.73-1.22-1.22-1.75-.19-.27-.43-.48-.67-.7-.32-.26-.63-.52-.94-.84-.09-.1-.04-.17.12-.22.15-.05.43-.12.7-.07.9.22,1.89.53,2.4,1.35.34.45.8.8,1.17,1.23.4.48.71,1.03,1,1.58.18.34.33.69.49,1.03.24.52.41,1.08.63,1.6.17.41.44.78.65,1.19.05.09.11.17.13.27.05.18.02.31-.11.42-.11.11-.27.18-.51.26-.11.04-.21.07-.31.1-.33.09-.69,0-.99-.17-.58-.57-.73-1.22-1-1.86-.18-.48-.35-.98-.58-1.46l.04-.03Z"/><path class="cls-1" d="M215.75,274.21c0-.21,0-.42-.03-.63,0-.08-.07-.13-.07-.2-.03-.27-.05-.56-.12-.83-.03-.12-.11-.21-.19-.29-.11-.11-.27-.17-.22-.39.02-.14,1.21-.92,1.37-.79.26.24.44.55.45.95,0,.24.19.38.27.57.09.21.16.44.22.66.04.14.08.27.11.41.04.21.06.44.13.63.04.16.16.28.22.44.01.03.04.06.04.1.02.13-.07.21-.38.32l-.21.08c-.23.08-.45.09-.59.04-.2-.08-.38-.15-.54-.23-.17-.08-.29-.17-.34-.29-.09-.17-.19-.33-.2-.54l.04-.02Z"/><path class="cls-1" d="M201.76,263.07c-.87-.91-1.61-1.97-2.17-3.1-.2-.42-.41-.82-.55-1.24-.49-1.51-.72-2.99-1.04-4.43-.14-.64-.32-1.27-.51-1.9-.14-.39-.22-.81-.3-1.22-.05-.42-.21-.81,0-1.3.03-.28.02-.24.2-.06.07.09.35.18.54.32.19.14.34.33.46.55.46.76.69,1.58.91,2.4.23.82.42,1.66.57,2.5.18,1,.59,1.96,1,2.84.45.97,1,1.88,1.73,2.69.43.51.94.97,1.46,1.4.81.64,1.68,1.25,2.62,1.71.74.34,1.49.63,2.25.93.17.07.33.14.49.22.3.16.47.31.56.49.1.17.13.32.12.51,0,.08,0,.17,0,.24-.03.23-.38.34-.95.38-.78-.06-1.55-.24-2.32-.48-.77-.23-1.46-.67-2.17-1.09-1.04-.65-2.03-1.43-2.94-2.33l.03-.04Z"/><path class="cls-1" d="M201.7,262.04c-1.02-1.11-1.49-2.48-1.86-3.67-.14-.44-.31-.86-.43-1.29-.45-1.54-.88-3.07-1.36-4.6-.21-.68-.47-1.34-.66-2.02-.28-.86-.54-1.73-.73-2.62-.06-.28.05-.28.27-.1.21.18.56.52.81.98.42.83.93,1.62,1.23,2.5.31.87.59,1.75.84,2.65.3,1.07.77,2.13,1.15,3.2.42,1.18.78,2.34,1.44,3.24.4.55.93,1.02,1.54,1.45.93.63,1.91,1.31,2.89,1.91.76.48,1.59.81,2.33,1.31.17.1.33.2.5.31.61.41.71.69.68,1.03,0,.08,0,.16-.02.23-.06.23-.43.25-.97.11-.76-.28-1.59-.5-2.31-.91-.73-.39-1.45-.82-2.17-1.26-1.05-.64-2.13-1.35-3.18-2.41l.03-.03Z"/><path class="cls-1" d="M212.5,255.1c.02.32.06.62.17.89.04.11.14.16.18.26.17.32.4.76.79,1.06.16.16.39.19.57.34.25.16.51.3.74.56.07.09,0,.27-.16.47-.15.19-.4.44-.6.46-.18.03-.37.06-.56.08-.09,0-.19.02-.28,0-.08-.03-.16-.07-.24-.11-.32-.16-.64-.37-.9-.68-.31-.35-.75-.6-1.02-1.03-.3-.45-.49-.96-.6-1.44-.07-.3-.1-.6-.13-.88-.04-.44-.03-.86-.06-1.27,0-.32-.09-.63-.11-.94,0-.07-.02-.13-.01-.2.06-.25.28-.32.59-.36l.21-.03c.22-.01.44.1.65.28.25.27.35.54.5.79.06.13.12.25.18.38.05.12.04.24.05.36.03.35.03.69.09.99h-.05Z"/><path class="cls-1" d="M206.28,230.94c.03-1.04.07-2.12.32-3.23.09-.4.16-.82.33-1.22.58-1.43,1.87-2.54,3.19-3,.59-.22,1.17-.4,1.75-.54.37-.1.74-.18,1.12-.24.37-.09.77.03,1.15.08.24.05.22.18.06.41-.17.2-.46.67-.83.85-.69.21-1.35.44-1.96.7-.3.13-.6.27-.87.42-.29.12-.57.25-.84.41-.67.38-1.01,1.1-1.25,1.85-.27.84-.38,1.8-.4,2.79-.02.61-.02,1.22.01,1.84.06.93.11,1.87.23,2.8.09.72.32,1.4.42,2.12.03.16.06.31.08.47.06.59,0,.8-.25.97-.05.04-.1.09-.15.11-.15.09-.42-.11-.6-.52-.63-1.2-1.02-2.53-1.31-3.91-.19-1.03-.21-2.09-.24-3.15h.04Z"/><path class="cls-1" d="M214.36,221.22c.24-.03.49-.05.74-.11.26-.03.52-.09.77-.16.19-.04.34-.17.53-.23.67-.21,1.36-.47,1.98-.85.3-.14.57-.33.83-.52.33-.26.64-.53,1.05-.72.13-.06.26.08.34.31.08.23.15.59.03.83-.22.42-.45.85-.74,1.22-.07.1-.14.19-.23.28-.09.07-.19.14-.29.2-.2.13-.41.24-.63.33-.53.23-.95.65-1.47.93-.57.3-1.17.55-1.82.7-.39.1-.79.17-1.19.22-.61.09-1.22.07-1.83.09-.47,0-.96.08-1.45.04-.11,0-.22,0-.32-.04-.37-.16-.44-.37-.32-.89.03-.12.05-.24.08-.35.11-.38.36-.67.63-.8.39-.2.71-.27,1.02-.34.31-.11.59-.08.89-.1.44,0,.91-.02,1.38-.11l.02.06Z"/><path class="cls-1" d="M220.57,217.14s1.95-2.38,7.43-1.91,8.51-1.09,7.97,1.69c-.54,2.78-5.3,3.68-7.27,3.98s-7.16,0-7.16,0l-.96-3.76Z"/><path class="cls-1" d="M210.37,166.72c-.63-.13-1.24-.35-1.79-.64-.2-.1-.42-.16-.61-.29-.66-.45-1.21-1.01-1.66-1.6-.2-.27-.38-.53-.58-.8-.23-.35-.34-.78-.34-1.22,0-.14.12-.17.32-.15.19.02.53.05.74.14.17.1.37.17.52.26.12.11.23.22.35.33.25.2.41.48.61.77.24.35.65.49,1.01.67.4.2.82.37,1.26.46.27.06.56.1.85.11.43,0,.88-.01,1.29-.18.32-.11.58-.35.83-.56.06-.04.1-.11.16-.13.11-.06.22-.05.35.03.12.07.24.17.38.32l.19.19c.18.2.25.51.18.89-.19.44-.52.72-.88.98-.18.12-.38.23-.58.32-.21.06-.43.12-.64.15-.65.11-1.31.08-1.96-.01v-.05Z"/><path class="cls-1" d="M251.6,175.34c-.33-.38-.73-.71-1.21-.94-.17-.09-.37-.09-.55-.16-.65-.21-1.4-.47-2.18-.39-.34.02-.68.13-.99.26-.4.18-.8.36-1.26.51-.15.04-.27-.11-.31-.37-.05-.26-.05-.68.16-.94.74-.95,1.95-1.43,3.13-1.38.7.02,1.43-.06,2.14.13.77.19,1.51.56,2.13,1.02.39.28.74.61,1.06.95.49.52.87,1.12,1.24,1.71.3.45.65.9.9,1.42.06.11.11.23.13.35.07.47-.12.65-.7.79-.13.03-.27.07-.4.09-.45.07-.85-.04-1.08-.23-.75-.54-.98-1.05-1.33-1.61-.25-.41-.53-.83-.89-1.16l.04-.05Z"/><path class="cls-1" d="M248.98,175.52c-.85.16-1.68.39-2.58.69-.32.11-.62.29-.96.39-1.18.36-2.42.68-3.69.89-.57.09-1.14.17-1.71.26-.72.07-1.54.25-2.21-.3-.19-.24-.11-.43.13-.83.12-.21.27-.42.42-.62.16-.22.32-.38.47-.39,1.14-.15,2.24-.51,3.6-.61.81-.09,1.54-.54,2.33-.85.86-.34,1.78-.69,2.74-.97.58-.18,1.18-.32,1.79-.45.92-.18,1.87-.25,2.83-.29.74-.03,1.52-.12,2.32,0,.18.02.36.03.53.09.34.07.46.34.53.53.06.21.03.43-.06.71-.04.13-.08.26-.13.37-.17.37-.58.63-.98.76-1.08.18-1.88.09-2.94.24-.76.09-1.57.24-2.4.44l-.02-.06Z"/><path class="cls-1" d="M245.72,177.87c-1.48.37-2.99.64-4.49.82-.55.07-1.09.19-1.64.23-1.95.09-3.89-.07-5.8-.29-.85-.09-1.69-.18-2.53-.27-.54-.05-1.07-.14-1.6-.28-.53-.11-1.04-.31-1.51-.67-.29-.22-.23-.26.09-.44.16-.09.4-.25.66-.37.27-.15.57-.26.86-.24,1.06-.04,2.09.07,3.13.14,1.03.07,2.06.14,3.12.22,1.26.11,2.56-.18,3.83-.31,1.4-.16,2.8-.4,4.18-.74.85-.2,1.7-.46,2.59-.72,1.35-.39,2.79-.69,4.33-.64,1.18.06,2.41.23,3.56.92.25.16.5.31.73.53.39.42.55.8.51,1.11-.01.15-.04.28-.13.4-.09.13-.22.24-.34.34-.12.09-.22.19-.31.25-.28.16-1.01.07-1.4-.09-1.09-.58-2.35-.97-3.87-.77-1.17.13-2.49.52-3.95.94l-.02-.06Z"/><path class="cls-1" d="M249.62,178.78c-.36-.32-.77-.59-1.26-.79-.18-.08-.37-.1-.55-.16-.65-.23-1.35-.39-2.08-.45-.32-.03-.65-.02-.97-.01-.41.02-.83.07-1.26-.01-.13-.03-.13-.22-.04-.43.09-.21.28-.46.52-.52.42-.11.86-.2,1.3-.25.44-.02.9,0,1.35.08.54.1,1.11.07,1.68.18.61.12,1.23.33,1.8.64.35.18.68.4.99.64.48.36.87.83,1.25,1.29.27.37.69.7.84,1.19.04.1.09.2.1.31.07.41-.07.57-.47.68-.09.03-.17.06-.26.07-.27.05-.6-.05-.77-.21-.26-.25-.61-.39-.73-.61-.16-.21-.33-.43-.52-.65-.29-.31-.58-.67-.96-.96l.02-.04Z"/><path class="cls-1" d="M233.53,90.35c-.64-.58-8.89-8.9-17.61-5.04-8.72,3.86-14.38,8.3-14.48,12.9-.1,4.6-.11,9.53,4.24,12.24,4.35,2.71,7.95,4.39,11.25,4.36,3.3-.03,15.16-3.33,15.16-3.33,0,0,2.89,7.27,8.46,10.02,5.57,2.75,11.82,4.06,16.8,4.78,4.98.72,6.58-.58,6.58-.58,0,0-5.56,6.54-6.06,11.7-.5,5.15-1.59,10.09,1.83,9.76s8.04-5.78,8.04-5.78c0,0,4.32-1.38,5.78,2.44,1.46,3.83.61,9.17,0,9.92s-5.95,3.53-7.32,2.97-5,.59-5,.59c0,0-7,14.66-8.34,19.69s-1.86,15.34,2.83,18.51c4.7,3.17,13.07,1.15,15.7.99,2.63-.15,11.46.45,16.73,4.16,5.28,3.7,8.52,9.42,8.52,9.42,0,0,4.64-4.79,5.36-9.63.72-4.84,2.85-17.52,2.91-18.37s-.14-27.54-1.98-35.47c-1.84-7.93-5.99-21.4-9.02-26.93-3.02-5.52-13.52-19.1-18.87-23.54s-21.87-6.7-21.87-6.7c0,0-11.06,3.89-12.34,4.94-1.28,1.05-3.33,3.09-3.33,3.09l-3.95-7.11Z"/><path class="cls-1" d="M242.57,263.74c1.23-.86,2.43-1.74,3.72-2.5l1.9-1.17,1.95-1.07c.94-.54,1.87-1.08,2.84-1.55,3.43-1.65,6.96-3.03,10.55-4.16l2.37-.81c.79-.27,1.57-.56,2.36-.8,1.01-.32,2.03-.64,3.04-.95,1-.35,2.12-.34,3.19-.43.68-.02.6.03.14.43-.48.35-1.22,1.42-2.32,1.93-3.96,1.67-7.94,3.11-11.98,4.54-2.45.78-4.8,2.07-7.13,3.26-1.29.64-2.52,1.38-3.78,2.07-1.2.78-2.47,1.48-3.62,2.33l-2.16,1.54-2.05,1.68c-1.03.85-1.96,1.82-2.95,2.73-.9.99-1.81,1.97-2.62,3.02-.6.84-1.16,1.69-1.71,2.55l-1.42,2.69c-.22.38-.37.8-.56,1.21-.34.76-.69,1.19-.98,1.48-.29.29-.64.37-1.04.39-.18,0-.36.05-.5.04-.44-.01-.71-.91-.3-2.16,1.2-3.69,3.5-7.19,6.26-10.21l.76-.86.82-.8,1.65-1.58c1.16-.98,2.31-1.98,3.52-2.89l.05.05Z"/><path class="cls-1" d="M191.26,236.5c-1.11-3.52-2.17-7.11-2.88-10.81-.23-1.36-.56-2.71-.71-4.04-.57-4.73-.87-9.62-.01-14.44.35-2.14.95-4.28,1.92-6.27.17-.31.31-.64.49-.94l.6-.89c.37-.62.88-1.13,1.38-1.65.45-.57,1.11-.93,1.71-1.3.57-.43,1.3-.59,1.99-.77.87-.19.76-.07.33.6-.22.33-.46.88-.82,1.33-.15.27-.3.56-.48.84-.08.14-.18.27-.27.42-.11.12-.24.21-.34.35-.35.48-.77.89-1.08,1.39l-.45.76c-.16.24-.3.5-.41.79-.22.56-.54,1.06-.71,1.65-.2.57-.42,1.14-.55,1.75-.64,2.4-.87,4.99-1.01,7.63-.18,3.18.4,6.5.89,9.78.54,3.54,1.46,7.05,2.56,10.54.66,2.15,1.39,4.3,2.13,6.45,1.11,3.26,2.16,6.58,3.08,9.91.7,2.59,1.42,5.15,1.86,7.82.07.59.17,1.17.23,1.77.09,1.11-.02,1.85-.16,2.37-.15.51-.39.81-.75,1.03-.16.1-.33.24-.49.29-.54.19-1.02-.7-1.28-2.21-.8-4.48-1.79-9.07-3.32-13.7-1.09-3.44-2.33-6.9-3.51-10.43l.07-.03Z"/><path class="cls-1" d="M236.42,191.97c1.03.06,2.1.08,3.17-.01.39-.04.77-.15,1.16-.19,1.38-.14,2.8-.3,4.17-.66.61-.15,1.18-.42,1.77-.63.37-.15.73-.32,1.11-.45.19-.07.4-.09.61-.13.1-.03.22-.02.34-.01.12,0,.21-.03.32-.05.27-.04.27.02.16.27-.05.13-.15.28-.2.58-.08.26-.2.51-.36.74-1.36,1.18-3.03,1.79-4.76,2.11-1.04.16-2.04.61-3.11.78-1.16.19-2.34.31-3.53.32-.73.04-1.47-.04-2.2-.06-1.11-.12-2.23-.29-3.33-.63-.43-.12-.87-.21-1.3-.38l-.66-.22c-.22-.1-.42-.22-.64-.34-.19-.11-.38-.2-.56-.32-.57-.59-.59-.94-.13-1.47.11-.12.21-.25.32-.35.4-.35.94-.44,1.31-.3,1.12.39,2.11.7,3.37.95.9.23,1.92.34,2.95.4v.07Z"/><path class="cls-1" d="M231.54,193.85l2.9,2.26c.35.28.75.48,1.09.77,1.22,1.01,2.45,2.02,3.72,2.96.54.45,1.13.84,1.71,1.22.72.54,1.42,1.11,2.07,1.77.2.21.11.29-.2.35-.3.05-.86.16-1.41.07l-1.41-.3c-.46-.13-.87-.34-1.29-.52-.86-.35-1.59-.93-2.31-1.53-.85-.73-1.91-1.19-2.87-1.8-1.05-.66-2.04-1.42-3.05-2.16l-1.85-1.36-1.26-.91c-.41-.27-.68-.69-.84-1.14-.1-.25-.13-.37-.19-.5-.05-.13-.11-.23-.17-.32-.34-.5-.87-.58-1.71-.74-.18-.04-.38-.05-.57-.11-.74-.19-1.01-.69-.81-1.37.05-.16.09-.31.17-.45.32-.4.59-.75,1.08-.86.35-.03.76-.04,1.21,0,.23.02.47.05.75.12.29.08.58.18.89.33.6.29,1.22.79,1.64,1.41.38.57.64,1.4.57,1.16h0c.72.52,1.45,1.05,2.17,1.57l-.04.07Z"/><path class="cls-1" d="M200.7,152.69c-.39-2.44-.47-5.02-.18-7.46.11-.89.16-1.78.33-2.66.61-3.08,1.6-6,2.61-8.87.44-1.28.84-2.57,1.25-3.83.55-1.62.8-3.32,1.91-4.76.38-.44.47-.34.74.21.32.56.78,1.58.59,2.56-.45,1.71-.91,3.39-1.47,5.04-.58,1.64-1.18,3.26-1.79,4.88-.73,1.94-1.06,4.07-1.37,6.12-.33,2.27-.43,4.51-.17,6.78.18,1.39.43,2.79.81,4.15.56,2.07,1.31,4.12,2.31,6.02.77,1.48,1.78,2.79,2.8,4.05.23.27.46.54.69.82.41.52.66.89.74,1.21.06.35-.02.64-.2.99-.08.16-.15.33-.24.46-.16.22-.41.3-.75.24-.33-.06-.78-.23-1.16-.6-2.31-2.19-4.09-5.08-5.39-8.15-.97-2.29-1.68-4.7-2.14-7.17l.07-.02Z"/><path class="cls-1" d="M227.45,189.62c.03.08.05.19.11.33.08.15.14.04.19.01.06-.05.1-.13.13-.24.03-.12-.03-.29-.04-.4-.14-.66-.59-1.4-1.25-1.95-.65-.55-1.53-1.04-2.39-1.35-.74-.23-1.58-.28-2.4-.13-1.05.2-2.13.53-3.2,1-.33.15-.31.1-.13-.17.19-.26.5-.84,1.08-1.32,1.01-.82,2.29-1.38,3.74-1.48.7-.06,1.53.15,2.13.38.62.23,1.24.51,1.8.93.67.49,1.35,1.03,1.9,1.74.28.35.52.75.71,1.16.18.34.38,1.06.43,1.62.12,1.14-.1,2.17-.44,3-.17.42-.38.79-.64,1.05-.13.13-.28.21-.43.3-.04.02-.08.04-.12.07-.02.02-.06-.01-.07.06h-.08c-.08-.01-.15-.04-.2-.08-.13-.1-.23-.21-.34-.32-.25-.29-.62-.42-1.17-1.3-.13-.2-.26-.44-.39-.62-.11-.13-.17-.12-.25-.18-.08-.04-.16-.1-.24-.13l-.28-.04c-.57-.07-1.23,0-1.87.21-.65.18-1.3.48-1.9.84-.94.57-1.72,1.35-2.45,2.13-.16.17-.29.36-.45.53-.62.57-.86.61-1.45.45-.14-.03-.28-.03-.4-.05-.21-.04-.35-.16-.41-.47-.03-.17-.02-.33.02-.49.04-.17.1-.37.19-.54.25-.57.61-1.01.99-1.45.38-.43.8-.83,1.25-1.21.9-.75,1.91-1.4,3.08-1.9.87-.37,1.84-.64,2.98-.63.27-.02.58.03.87.07.15.02.29.04.44.08l.43.16.42.16c.1.04.09.04.09.04h0s.02.05.02.05v.08Z"/><path class="cls-1" d="M219.08,211.73c.65-1.3,1.27-2.31,1.83-3.33.19-.38.3-.77.44-1.15.27-.67.45-1.34.53-2.06.07-.74.07-1.49-.06-2.22-.12-.65-.33-1.29-.63-1.88-.21-.37-.39-.77-.59-1.18-.09-.21-.21-.4-.27-.63-.06-.24-.11-.49-.19-.72-.08-.31-.1-.24.15-.13.13.05.34.1.62.16.13.03.31.04.45.1.13.06.26.13.37.22,1.75,1.19,2.64,3.58,2.43,5.71-.08,1.24-.11,2.66-.55,3.87-.23.67-.51,1.3-.82,1.89l-.97,1.68c-.37.66-.72,1.29-.84,1.9-.22.97-.05,2.1.3,3.23.26.88.66,1.78.8,2.82.04.22.06.46.07.69-.08.88-.45,1.1-.95,1.14-.12,0-.24.03-.35.02-.37-.03-.62-.41-.8-.88-.2-.7-.32-1.32-.56-2.03-.23-.71-.5-1.51-.75-2.45-.19-.69-.33-1.49-.29-2.34.02-.42.08-.85.18-1.29.11-.41.24-.79.39-1.13l.06.02Z"/><path class="cls-1" d="M240.4,231.83c.09,1.2.22,2.4.4,3.59.07.43.21.85.29,1.28.26,1.53.55,3.07.9,4.6.16.68.41,1.33.67,1.96.31.83.55,1.69.68,2.6.03.29-.19.35-.56.26-.36-.1-.94-.32-1.3-.74-.3-.38-.62-.75-.87-1.16-.2-.43-.38-.86-.55-1.3-.33-.88-.6-1.78-.77-2.72-.16-1.13-.6-2.22-.85-3.35-.28-1.24-.48-2.49-.65-3.74-.11-.77-.2-1.54-.28-2.32-.13-1.17-.19-2.34-.3-3.53-.08-.92-.27-1.86-.24-2.86,0-.22,0-.44.02-.66.2-.81.53-1.01,1.22-.93.16.02.32.03.47.06.51.12.81.54.91,1.02.24,1.41.29,2.76.49,4.34.13,1.19.25,2.39.38,3.58h-.07Z"/><path class="cls-1" d="M234.86,183.82c.04.4.07.81.11,1.21.02.14.09.26.1.41.03.51-.06,1.04-.08,1.54,0,.22.03.43.07.63.08.26.11.53-.05.83-.05.09-.3.12-.61.1-.29-.02-.68-.07-.8-.19-.35-.44-.5-.9-.48-1.42.01-.32-.18-.58-.26-.88-.08-.33-.17-.66-.25-.99-.05-.2-.11-.41-.18-.61-.09-.31-.16-.63-.34-.9-.13-.21-.44-.31-.61-.49-.03-.04-.09-.07-.11-.12-.08-.18.03-.33.5-.68l.31-.24c.36-.26.72-.39.97-.35.82.06,1.09.54,1.37.99.19.35.34.72.41,1.12l-.06.03Z"/><path class="cls-1" d="M241.14,183.53c-.08.33-.16.67-.23,1-.02.12,0,.24-.04.36-.14.43-.31.84-.43,1.26-.06.18-.08.37-.09.55,0,.23.02.47-.17.7-.06.07-.36.04-.68-.04-.31-.08-.66-.21-.7-.34-.15-.47-.25-.92,0-1.37.13-.27,0-.56.01-.84.01-.31.07-.62.1-.93.02-.19.04-.39.05-.58,0-.29.04-.59-.03-.87-.06-.22-.24-.42-.38-.62-.03-.05-.07-.09-.08-.14-.04-.18.12-.26.71-.38l.4-.08c.46-.08.85-.06,1.03.06.55.35.63.8.65,1.26.01.34-.04.68-.07,1.02h-.06Z"/><path class="cls-1" d="M245.84,183.96c-.18.25-.36.52-.49.79-.05.1-.04.2-.09.31-.19.36-.37.73-.47,1.11-.05.17-.04.34-.03.5.02.21.09.42-.05.65-.07.14-1.18.09-1.32-.17-.17-.47-.25-.95-.09-1.44.1-.29-.01-.59,0-.89.02-.33.07-.65.13-.97.03-.2.11-.39.16-.58.08-.29.2-.58.23-.88,0-.24-.07-.49-.04-.72,0-.05-.01-.11,0-.16.07-.18.24-.19.76-.08l.35.08c.39.1.7.26.84.43.19.24.35.47.46.68.07.2,0,.37-.03.56-.06.27-.18.52-.26.79h-.06Z"/><path class="cls-1" d="M301.36,235.06l-.12,2.75-.23,2.74c-.13,1.83-.35,3.64-.56,5.46-.13,1.33-.25,2.66-.46,3.97-.72,4.64-1.7,9.24-3,13.76-.54,2.01-1.16,4.01-1.74,5.99-.39,1.27-.86,2.52-1.33,3.77-.47,1.24-1.08,2.45-1.94,3.51-.65.61-.52.54-.63-.27-.06-.41-.09-.96-.16-1.62,0-.64.14-1.31.35-2.02.36-1.27.68-2.55,1.1-3.78.34-1.27.68-2.54,1.05-3.8.62-2.56,1.3-5.11,1.98-7.7.82-3.1,1.14-6.42,1.54-9.66.23-1.78.37-3.58.57-5.37.12-1.8.26-3.59.35-5.39.07-2.22.19-4.44.14-6.65.01-1.68-.06-3.36-.15-5.04-.05-1.68-.26-3.35-.45-5-.35-2.57-.96-5.04-1.62-7.49-.14-.54-.29-1.07-.43-1.61-.55-2-.45-2.72.1-3.36.12-.15.23-.32.35-.43.38-.34,1.14.34,1.82,1.81,1.92,4.4,2.77,9.39,3.23,14.35.28,3.7.4,7.42.31,11.12h-.08Z"/><path class="cls-1" d="M276.03,239.39c-.2.77-.42,1.54-.64,2.3-.08.28-.09.56-.18.84-.32.97-.71,1.91-1.12,2.83-.17.41-.3.84-.41,1.26-.08.27-.19.53-.3.79-.14.25-.33.48-.53.71-.13.14-.29.06-.48-.16-.18-.21-.49-.59-.56-.94-.02-.29-.03-.58-.02-.86.05-.27.09-.54.16-.81.12-.53.27-1.06.49-1.57.3-.61.31-1.31.45-1.97.15-.73.31-1.46.44-2.19.08-.45.16-.91.21-1.36.07-.69.2-1.39.17-2.08-.03-.54-.23-1.07-.37-1.59-.03-.12-.09-.23-.11-.34.02-.43.24-.58.92-.71.16-.03.31-.07.46-.09.51-.07.97.09,1.23.42.67.98.64,2.07.62,3.15-.03.8-.2,1.6-.34,2.38h-.07Z"/><path class="cls-1" d="M237.67,273.78c3.2-2.29,6.52-4.34,9.9-6.27,1.23-.7,2.43-1.47,3.69-2.12,4.46-2.28,9.11-4.19,13.86-5.76,2.12-.67,4.25-1.35,6.4-1.9.69-.17,1.38-.34,2.08-.5.7-.13,1.41-.22,2.13-.3,1.43-.12,2.87-.21,4.3.03.89.16.76.37.03.78-.73.44-1.99,1.12-3.47,1.55-.66.18-1.32.38-1.98.6-.65.21-1.32.35-1.98.55-1.32.37-2.64.79-3.95,1.23-2.61.91-5.24,1.85-7.9,2.82-3.18,1.18-6.23,2.96-9.28,4.61-3.35,1.83-6.64,3.79-9.79,5.93-1.94,1.32-3.84,2.7-5.63,4.2-1.33,1.14-2.68,2.31-3.72,3.6-.25.32-.48.65-.62.95-.11.22-.15.49-.06.74.17.85.37,1.73.58,2.59.66,2.68,1.58,5.25,2.35,7.91.17.59.36,1.16.51,1.76.27,1.12.38,1.89.33,2.45-.09.58-.29.92-.59,1.2-.13.13-.25.29-.36.36-.2.12-.4-.04-.68-.4-.29-.36-.62-.92-.84-1.68-.75-2.27-1.61-4.64-2.39-7.09-.38-1.23-.76-2.48-1.15-3.72l-.54-1.91-.29-1.13c-.07-.31-.08-.64-.09-.96.02-.32.11-.63.18-.95.18-.55.32-.78.49-1.1.16-.29.33-.55.5-.8.34-.48.68-.92,1.03-1.33.71-.81,1.42-1.56,2.19-2.23,1.52-1.36,3.09-2.59,4.68-3.78l.05.06Z"/><path class="cls-1" d="M283.08,266.66c-.25.94-.5,1.89-.68,2.86-.07.35-.05.71-.12,1.07-.21,1.25-.59,2.5-.76,3.78-.09.57-.1,1.14-.11,1.7,0,.73-.05,1.46-.28,2.18-.08.23-.37.2-.7,0-.33-.19-.75-.55-.86-.97-.22-.75-.25-1.51-.25-2.26,0-.76.05-1.52.2-2.27.16-.91.09-1.86.22-2.79.14-1.02.32-2.04.53-3.05.13-.62.27-1.24.41-1.86.23-.93.52-1.86.72-2.78.16-.72.16-1.47.3-2.19.03-.16.05-.32.1-.47.19-.57.41-.71,1-.66.13.01.27.01.4.04.44.08.73.42.78.88.22,1.38-.05,2.65-.26,3.95-.18.96-.35,1.92-.58,2.87h-.07Z"/><path class="cls-1" d="M212.87,270.59l-1.76-1.15-1.82-1.05c-1.2-.73-2.48-1.32-3.73-1.96-.92-.47-1.91-.76-2.84-1.19-3.33-1.43-6.77-2.67-10.3-3.61-1.56-.45-3.17-.76-4.75-1.04-1.02-.22-2.04-.43-3.05-.65-1.03-.17-2.04-.44-3.06-.74-.64-.2-.55-.17.01-.27.28-.05.68-.16,1.18-.28.49-.14,1.07-.25,1.68-.27,1.09-.04,2.18-.02,3.28-.02.55-.02,1.08.1,1.62.17l1.61.27c2.15.36,4.28.9,6.32,1.71.62.23,1.24.44,1.88.64.63.22,1.26.44,1.89.66,1.28.41,2.55.88,3.78,1.4,1.37.53,2.68,1.22,4.01,1.85,1.31.67,2.6,1.39,3.87,2.12l2.31,1.44c.77.48,1.49,1.04,2.23,1.54,2.25,1.56,4.32,3.39,6.38,5.17.77.73,1.55,1.43,2.34,2.11.78.7,1.51,1.46,2.26,2.2.33.33.67.63.96,1.01,1.12,1.34,1.25,1.94.86,2.66-.09.16-.16.35-.26.48-.18.23-.47.27-.83.16-.37-.11-.82-.36-1.25-.79-2.58-2.51-5.16-5.19-8.08-7.56-1.07-.89-2.18-1.74-3.3-2.59-1.16-.79-2.27-1.65-3.49-2.36l.03-.06Z"/><path class="cls-1" d="M269.26,286.88c-.52.93-1.38,1.87-2.47,2.39-.26.14-.56.25-.86.34-.3.09-.57.12-.85.17-.53.06-1.04.07-1.52.04-1.91-.11-3.59-.53-5.26-.95-1.22-.32-2.43-.59-3.61-.94-1.6-.48-3.18-.98-4.75-1.39-1.01-.24-.99-.26-1.39-.34-.32-.05-.74-.15-1.07.06-.21.16-.05.4.05.55.12.17.28.32.45.47.16.14.35.28.54.41.33.21.77.47,1.17.68.81.46,1.64.88,2.48,1.26,1.09.48,2.2.9,3.31,1.32l.83.3.82.36c.55.22,1.1.44,1.67.68.71.28.65.29-.03.59-.34.13-.86.4-1.48.52-.32.08-.66.13-1.02.18-.18.02-.36.02-.56.05-.18-.03-.36-.05-.55-.09-2.27-.43-4.35-1.31-6.36-2.35-.51-.25-.98-.59-1.46-.91l-1.04-.75c-.41-.3-.79-.63-1.12-.95-.15-.16-.35-.32-.46-.49l-.33-.49c-.19-.32-.36-.62-.49-.92-.1-.3-.18-.59-.17-.89-.02-.3.14-.66.28-.98.32-.35.57-.62.96-.78.39-.15.83-.26,1.36-.28.55-.03,1.18.03,1.82.12l.96.17.78.17c.76.18,1.53.37,2.29.55,1.5.38,3.01.76,4.51,1.14,1.63.42,3.25.84,4.85,1.1,1.57.25,3.29.44,4.25-.17,1.33-.78,1.9-2.82,2.24-4.79.28-1.49.45-3.05.94-4.66.26-.79.6-1.63,1.25-2.36.17-.17.34-.35.54-.49.21-.17.46-.3.7-.42.25-.11.51-.18.77-.25.27-.03.53-.1.8-.11h.27c.41-.01.81.21,1.07.52.27.31.45.69.59,1.1.3.93.38,1.43.51,2.07.23,1.23.4,2.42.58,3.6.08.52.2,1.02.24,1.53.1.95.18,1.53.13,1.96-.07.44-.19.71-.4,1.02-.09.14-.15.31-.23.43-.14.2-.41.18-.78-.13-.36-.31-.79-.87-1.03-1.63-.62-1.71-.85-3.43-1.1-5.1-.13-.83-.25-1.66-.41-2.37-.04-.1-.06-.04-.07-.05,0,0,0,.01,0,.02-.06.03-.26.23-.41.49-.53.91-.81,2.58-1.09,4.24-.32,1.69-.54,3.52-1.58,5.47l-.06-.03Z"/><path class="cls-1" d="M246.19,293.18l-.31-.02c-.09,0-.04-.02-.07-.02l-.09-.03c-.07-.02-.15-.04-.25-.06-.18-.02-.49-.08-.71.08h0c-.09.16.2.25.23.34.06.08.14.17.25.26.06.05.12.1.2.15.04.02.07.06.11.08l.33.18c.96.5,1.96.97,2.97,1.4.9.38,1.81.77,2.72,1.1.58.22,1.18.41,1.76.67.58.26,1.15.55,1.71.85.35.2.27.28-.11.37-.37.08-1.06.27-1.82.26-1.32-.08-2.6-.31-3.89-.55-.65-.1-1.26-.35-1.87-.59-.61-.24-1.22-.51-1.81-.81l-.54-.26-.63-.28c-.62-.25-1.23-.53-1.8-.83-1.19-.59-2.01-1.31-2.36-2.02-.19-.35-.26-.75-.18-1.27.36-.8.9-1.09,1.68-1.38.76-.29,1.91-.34,2.99-.26l2.06.17,1.62.18c1.63.2,3.25.48,4.86.69,1.25.16,2.49.21,3.74.35.28.03.55.04.82.09,1.02.21,1.29.55,1.38,1.11.02.13.05.26.05.39,0,.41-.48.65-1.24.73-2.22.05-4.49-.27-6.77-.52-1.69-.19-3.39-.4-5.06-.49v-.06Z"/><path class="cls-1" d="M246.71,298.79c-.13-.05-.29-.11-.49-.15-.1-.02-.21-.04-.31-.03-.12.01-.12.08-.21.1.02.07-.02.12.01.18.04.08.3.16.34.23.09.13.28.3.61.51l.13.08s.21.1.31.15l.73.34c.49.23.98.45,1.48.66.89.36,1.79.72,2.69,1.01.58.2,1.17.35,1.75.57.57.24,1.13.48,1.72.73.36.16.29.24-.06.37-.35.11-1.03.38-1.78.42-1.32.01-2.6-.17-3.88-.38-.65-.09-1.26-.3-1.87-.52-.61-.22-1.22-.44-1.8-.76-.11-.07-.52-.23-.79-.36l-.9-.39c-.6-.26-1.17-.52-1.74-.79l-.8-.41-.7-.43c-.2-.14-.42-.29-.61-.43-.15-.14-.35-.29-.46-.43-.56-.63-.88-1.14-1.03-1.91-.1-.38.12-1.01.46-1.2.3-.22.67-.31,1.03-.4.87-.2,2.2-.14,3.69.12,1.13.19,2.32.48,3.42.77.78.2,1.56.4,2.34.6,1.2.3,2.42.42,3.62.71.26.06.52.11.78.19.96.29,1.22.57,1.25,1.2,0,.14.03.29.02.42-.03.44-.54.7-1.29.67-2.24-.02-4.43-.59-6.63-1.06l-.61-.14c-.07-.02-.02,0-.04-.02,0,0-.01-.02-.03-.03-.03-.03-.1-.07-.19-.1l-.14-.09Z"/><path class="cls-1" d="M245.28,303.45c-.1-.03-.27-.06-.45,0-.09.02-.17.08-.22.14-.03.07-.01.12.01.17.05.07.24.08.3.14.06.05.14.11.25.18.08.04.07.06.25.11l.59.18c.8.21,1.59.51,2.4.72.72.18,1.46.36,2.19.49.94.2,1.9.27,2.79.79.28.15.21.3-.08.52-.15.11-.35.25-.59.4-.24.16-.51.27-.79.27-.99.04-1.98.06-2.98,0-.99-.1-1.97-.31-2.93-.63-.29-.11-.58-.21-.88-.3l-1.23-.34c-.96-.27-1.9-.6-2.52-1.03-.36-.23-.55-.5-.76-.77-.17-.28-.36-.59-.3-1.02.1-.87.71-1.39,1.4-1.68.82-.4,2.08-.49,3.29-.43.21,0,.5.03.64.05l.47.05.94.12c.62.09,1.24.17,1.85.26.95.13,1.91.12,2.84.25.21.03.41.04.61.08.76.13.96.36,1.07.8.02.1.06.2.07.29.02.15-.06.28-.22.4-.16.12-.41.24-.7.25-1.76.24-3.5-.05-5.22-.19-.64-.06-1.27-.12-1.89-.15-.11-.02-.07-.04-.15-.05l-.07-.05Z"/><path class="cls-1" d="M214.55,330.11c-.9-1.5-1.9-2.94-2.95-4.35-.37-.53-.82-.99-1.21-1.49-1.39-1.8-2.92-3.52-4.67-5.01-.75-.69-1.61-1.24-2.43-1.83-.55-.34-1.11-.67-1.65-1.03-.55-.34-1.11-.67-1.65-1.05-.34-.23-.22-.37.18-.4.4-.03,1.11,0,1.84.28,2.54,1.07,4.89,2.61,6.91,4.5,1.21,1.13,2.55,2.22,3.74,3.43.64.67,1.27,1.37,1.85,2.1.55.75,1.13,1.48,1.65,2.26l.96,1.42.9,1.46c.92,1.47,1.69,3.03,2.52,4.53.6,1.19,1.4,2.27,1.97,3.48.13.27.28.51.37.8.09.26.15.48.19.67.02.2-.03.37-.07.52-.09.3-.27.51-.54.72-.12.09-.23.2-.35.27-.38.23-.97-.04-1.58-.62-1.43-1.85-2.27-3.98-3.41-6.04-.4-.77-.83-1.53-1.25-2.31-.46-.75-.87-1.52-1.37-2.25l.06-.04Z"/><path class="cls-1" d="M276.8,335.5c1.37-1.5,2.82-2.95,4.13-4.53.48-.58.9-1.19,1.38-1.77,1.7-2.03,3.28-4.16,4.87-6.29.69-.96,1.29-1.98,1.89-2.98.41-.63.77-1.29,1.16-1.93l.6-.96c.19-.33.5-.59.74-.89.34-.36.34-.29.36.16.01.23.05.56.1.97.02.39-.05.82-.2,1.24-.52,1.5-1.06,3-1.86,4.35-.77,1.37-1.57,2.73-2.58,3.96-1.2,1.47-2.19,3.17-3.36,4.71-1.29,1.68-2.64,3.33-4.07,4.9-.88.97-1.81,1.9-2.72,2.83-1.39,1.41-2.9,2.72-4.35,4.06-.58.5-1.14,1.03-1.7,1.55-.55.53-1.18.98-1.78,1.47-.27.2-.51.45-.81.61-1.11.65-1.55.7-2.09.26-.12-.1-.26-.19-.36-.31-.33-.38-.11-1.01.53-1.6l.72-.65.7-.7c.47-.47.97-.88,1.43-1.37.47-.48.98-.9,1.47-1.35l1.47-1.4c.73-.69,1.43-1.43,2.17-2.13.7-.75,1.41-1.48,2.09-2.24l.06.05Z"/><path class="cls-1" d="M114.15,334.87c1.75-3.38,4.2-6.3,7.01-8.7l1.53-1.32c.54-.4,1.08-.81,1.64-1.18,3.98-2.59,8.53-4.11,13.13-4.76.51-.06,1.02-.19,1.54-.2l1.55-.09c1.03-.11,2.07,0,3.09,0,.66-.02,1.32.13,1.98.2.66.07,1.32.17,1.95.42.63.22,1.26.43,1.87.68.6.29,1.11.79,1.66,1.13.68.44.48.56-.27.62-.38.03-.92.12-1.54.23-.59.03-1.26.11-1.93.05l-.89-.09c-.29-.04-.6.01-.89-.03-.59-.04-1.17-.11-1.76-.14-1.19.04-2.36,0-3.54.18-1.18.08-2.36.32-3.55.47l-1.77.39c-.3.07-.6.12-.89.19l-.88.26c-2.84.78-5.49,2.44-7.89,4.23-2.66,1.96-5.01,4.35-6.78,7.14-.26.44-.58.84-.8,1.3l-.67,1.37-.34.69c-.1.23-.17.46-.26.7-.19.46-.31.94-.43,1.43-.74,2.95-.73,6.17-.1,9.21.52,2.36,1.52,4.55,2.71,6.55.24.45.57.84.84,1.28.98,1.62,1.18,2.19.75,3.11-.1.21-.17.44-.29.62-.2.3-.54.38-.99.24-.44-.14-1.04-.48-1.59-1.09-1.71-1.75-2.93-3.97-3.86-6.3-.92-2.35-1.46-4.87-1.63-7.45-.15-1.91-.04-3.87.31-5.81.33-1.94,1.05-3.92,1.91-5.6l.08.04Z"/><path class="cls-1" d="M293.58,432.55c6.17.19,12.37-.34,18.43-1.61,1.1-.25,2.21-.48,3.3-.78,1.08-.34,2.15-.68,3.24-.99l1.44-.41c.47-.15.93-.34,1.4-.51l2.8-1.04c.95-.31,1.83-.77,2.74-1.18l2.72-1.25c.89-.45,1.74-.96,2.62-1.44.86-.5,1.76-.94,2.59-1.5l2.47-1.68c.83-.56,1.66-1.11,2.42-1.77,2.8-2.17,5.38-4.67,7.62-7.38l2.1-2.66c.69-.89,1.27-1.87,1.93-2.79,1.34-1.84,2.43-3.81,3.84-5.67.87-1.16.82-.99.59.25-.12.62-.23,1.53-.46,2.61-.12.54-.22,1.14-.41,1.75-.2.6-.53,1.16-.86,1.76l-1.82,3.16c-.66,1.02-1.46,1.94-2.19,2.92l-1.13,1.44c-.37.49-.82.9-1.23,1.35l-2.54,2.63c-3.59,3.29-7.51,6.26-11.88,8.43-.64.35-1.28.7-1.92,1.05-.66.31-1.33.62-2,.93-.67.32-1.33.63-2,.95l-1,.48-1.03.41c-1.38.55-2.77,1.1-4.15,1.65-1.42.44-2.84.88-4.25,1.32-6.27,1.73-12.74,2.65-19.22,2.82-1.99.01-3.99.1-5.98-.08l-2.98-.17c-.99-.06-1.98-.23-2.97-.34-6-.65-11.91-2.14-17.55-4.15-2.2-.78-4.34-1.66-6.45-2.6-2.1-.97-4.15-2.07-6.13-3.31-.85-.58-1.73-1.08-2.55-1.73-3.06-2.35-3.73-3.48-3.68-4.67.01-.27-.02-.58.04-.79.11-.35.53-.36,1.2-.1.34.13.72.34,1.15.62.43.28.94.6,1.46.99,6.36,4.57,13.87,8.09,21.9,10.26,2.98.8,6.01,1.46,9.09,1.88,1.54.18,3.08.42,4.62.56l4.66.26v.08Z"/><path class="cls-1" d="M422.62,342.97c-1.76,4.27-4.17,8.37-7.03,11.96-1.41,1.81-2.89,3.49-4.17,5.17-.32.42-.63.84-.92,1.27l-.43.64c-.04.1-.07.09-.1.25-.08.24-.12.66-.12,1.12,0,.46.03.96.09,1.48.34,3.04,1.12,6.34,1.35,9.68.49,5.89-.36,12.16-3.17,17.52-1.38,2.68-3.15,5.12-5.24,7.24-2,2.21-4.46,3.98-7.01,5.47l-1.76.91c-.58.32-1.22.51-1.82.77-1.21.54-2.49.85-3.75,1.22-2.56.58-5.16.98-7.76.95-6.63-.01-13.37-1.66-18.91-5.24-1.7-1.15-1.34-1.18.38-.81.44.08.94.22,1.52.34.6.12,1.25.24,1.97.38.7.17,1.47.32,2.26.53.79.22,1.63.41,2.5.63,3.07.79,6.22,1.2,9.34,1.23,3.12.07,6.22-.36,9.17-1.25,2.94-.9,5.71-2.29,8.2-4.13l1.78-1.49c.61-.48,1.1-1.1,1.66-1.64,1.14-1.08,2.07-2.35,2.99-3.61,2.15-3.08,3.53-6.73,4.05-10.55.52-3.84.22-7.79-.33-11.74-.29-2.19-.72-4.35-.94-6.75-.05-.6-.07-1.23-.03-1.92.08-.69.14-1.44.63-2.29.67-1.07,1.33-1.98,2.05-2.9,1.42-1.81,2.86-3.48,4.17-5.23,1.31-1.74,2.51-3.55,3.56-5.46,1.28-2.33,2.44-4.82,3.26-7.31.82-2.48,1.25-5.09,1.19-7.7-.05-1.98-.38-3.94-.9-5.86-.59-1.9-1.33-3.77-2.33-5.52-1.97-3.49-4.65-6.62-7.77-9.15-4.84-3.93-10.66-6.57-16.61-7.29-1.31-.17-2.59-.16-3.88-.11-2.41.12-3.86.6-4.96.78-.52.15-.96.22-1.37.23-.4.02-.74.02-1.1-.04-.32-.05-.73-.05-.98-.15-.43-.16-.28-.64.45-1.44.72-.8,2.17-1.71,4.22-2.32,3.04-.87,6.27-.93,9.38-.47,3.11.48,6.14,1.45,9,2.78,5.72,2.67,10.85,6.8,14.71,12.03.74.95,1.35,2,2,3.03.57,1.08,1.17,2.14,1.62,3.28.96,2.25,1.69,4.63,2,7.09.73,4.89-.11,10.06-2.01,14.44l-.09-.02Z"/><path class="cls-1" d="M298.27,205.12c1.24-3.01,2.35-6.11,3.07-9.2.36-1.49.55-3.17.81-4.79.27-1.63.43-3.27.63-4.91.72-6.56,1-13.17.8-19.77-.02-1.21-.07-2.41-.17-3.61-.09-1.2-.16-2.4-.27-3.6-.28-2.39-.49-4.79-.87-7.16-.54-4.21-1.44-8.36-2.41-12.48-1.11-4.09-2.29-8.17-3.88-12.1-3.06-7.89-7.11-15.46-12.53-21.95-4.78-5.74-10.77-10.64-17.63-13.31-4.35-1.72-9.15-2.17-13.74-1.44-2.29.37-4.53,1.06-6.63,2.04-2.1.99-4.06,2.26-5.88,3.75-2.16,1.95-2.32,1.41-.94-.91.76-1.08,1.91-2.68,3.81-4.06,1.85-1.42,4.35-2.75,7.28-3.48,5.18-1.31,10.7-1,15.74.71,5,1.72,9.46,4.54,13.4,7.86,7.82,6.76,13.55,15.51,17.61,24.8,2.47,5.55,4.53,11.4,6.12,17.41,1.57,6.01,2.67,12.18,3.29,18.33.68,6.76.84,13.57.53,20.35-.05,1.7-.18,3.39-.33,5.08-.11,1.69-.3,3.38-.5,5.06-.17,1.69-.42,3.37-.67,5.04-.23,1.65-.51,3.41-.97,5.07-.72,2.71-1.64,5.33-2.68,7.9l-.8,1.92c-.3.67-.49,1.14-.98,2.18-.41.91-.89,1.82-1.34,2.71l-.69,1.33-.35.67-.17.33c-.05.05-.1.06-.15.09-.41-1.02-.83-2.06-1.29-3.12-.22-.55-.45-1.01-.69-1.46-.23-.44-.48-.96-.69-1.33-.7-1.16-1.43-2.31-2.29-3.35-3.69-4.77-9.28-8.07-15.31-8.39-.75-.03-1.5-.01-2.25-.02-.73.02-1.45.11-2.19.26-1.47.28-2.95.75-4.47,1.18-1.52.43-3.09.84-4.76,1-.84.07-1.7.06-2.57-.05-.85-.14-1.68-.35-2.48-.67-2.48-1-4.53-2.85-5.89-5.08-.67-1.12-1.23-2.33-1.49-3.6-.12-.63-.32-1.27-.37-1.91l-.13-1.91c.04-5.08,1.52-9.84,3.42-14.32.83-1.99,1.75-3.87,2.78-5.78,3.93-7,6.09-8.68,7.65-9.57.38-.19.82-.48,1.07-.55.43-.12.18.5-.55,1.7-.7,1.24-1.82,3.14-3.28,5.56-2.11,3.62-3.99,7.45-5.47,11.43-.69,2-1.36,4.01-1.75,6.06-.25,1.02-.35,2.04-.49,3.05-.07.51-.04,1.01-.07,1.51l-.03.75c0,.25.04.48.06.73.09,1.96.61,3.72,1.61,5.25.99,1.53,2.43,2.72,4.01,3.43,1.62.76,3.2.87,5.23.5,2-.36,4.14-1.05,6.51-1.59.71-.17,1.46-.3,2.23-.4.39-.04.8-.08,1.18-.09h1.12c.75,0,1.49,0,2.24.1.74.1,1.5.12,2.23.31,2.96.55,5.81,1.73,8.31,3.37,2.5,1.64,4.66,3.73,6.46,6.04.91,1.14,1.71,2.41,2.43,3.62.11.22.12.24.14.3.03,0,.04-.06.09-.13l.05-.11.38-.85.73-1.72h.08Z"/><path class="cls-1" d="M260.96,145.55c.51.1.69.05,1-.12.32-.19.73-.71,1.13-1.35.41-.64.85-1.4,1.45-2.18.59-.77,1.42-1.62,2.55-2.08,1.59-.69,3.64-.52,4.95.36,1.19.73,2.05,1.71,2.72,2.75.67,1.05,1.11,2.2,1.37,3.4.27,1.19.21,2.54,0,3.63-.05.57-.27,1.15-.4,1.71-.21.56-.41,1.12-.71,1.65-.51.94-1.2,1.8-2.03,2.5-.85.66-1.79,1.22-2.8,1.52-1.28.43-2.62.58-3.92.45-1.3-.12-2.57-.45-3.65-1.17-.6-.63-.45-.62.32-.94.2-.11.41-.15.65-.23.24-.08.5-.17.78-.24.54-.15,1.12-.21,1.71-.24,1.05-.02,2.05-.17,2.97-.39.91-.26,1.7-.68,2.32-1.27.62-.59,1.12-1.35,1.46-2.27.09-.23.14-.48.21-.72.07-.24.15-.49.18-.75l.13-.79c.05-.27.04-.47.07-.71,0-1.14-.44-2.41-1.15-3.44-.69-1.04-1.71-1.84-2.6-2.04-.98-.22-1.92.19-2.81,1.35-.45.57-.87,1.27-1.38,2-.52.71-1.13,1.54-2.14,2.11-.29.19-.65.28-.99.39-.34.08-.69.09-1.03.12-.32-.03-.65-.06-.96-.11l-.87-.25c-.63-.21-1.28-.64-1.7-1.17-.41-.53-.71-1.1-.89-1.66-.54-1.72-.5-3.38-.36-4.98.16-1.6.47-3.16.88-4.68.63-2.36,1.34-4.67,2.49-6.88.25-.49.54-.95.87-1.4.3-.42.61-.74.86-1,.29-.24.54-.4.78-.52.46-.23.81-.26,1.14-.2.15.02.31.02.4.06.31.12-.06.9-.6,2.1-1.79,3.42-3.23,7.46-3.81,11.52-.2,1.49-.28,3.02-.04,4.27.11.62.32,1.14.52,1.4.11.1.17.19.27.22,0,.02.17.06.3.1.13.03.28.1.38.1v.07Z"/><path class="cls-1" d="M252.24,171.88c-2.56,1.9-5.44,3.24-8.35,4.28-.53.21-1.07.37-1.6.56-.53.19-1.08.35-1.63.48-1.94.47-3.92.76-5.91.84-1.99.09-3.98.02-5.94-.29-.87-.1-1.73-.31-2.6-.46-.85-.23-1.72-.38-2.55-.67-1.07-.34-2.12-.77-3.13-1.25-.97-.56-2.03-1.01-2.75-1.95-.17-.36-.22-.55-.17-.62.06-.07.25-.06.65-.15.81-.19,1.92-.13,3.01.3.47.22.97.38,1.45.55.48.18.97.34,1.47.47.98.32,1.97.6,2.97.83,2.01.47,4.1.71,6.22.77,2.56.09,5.19-.53,7.69-1.3,2.75-.85,5.46-1.99,7.88-3.54,1.49-.96,2.88-2.08,4.15-3.33,1.91-1.91,3.61-4.09,4.98-6.45,1.08-1.83,1.88-3.77,2.72-5.72.19-.43.34-.86.54-1.29.35-.8.73-1.26,1.04-1.55.16-.14.32-.24.5-.3.2-.05.4-.06.6-.07.19,0,.37-.04.51-.02.41.02.78,1,.38,2.24-1.19,3.67-3.06,7.35-5.49,10.81-1.8,2.57-4.04,4.94-6.61,6.88l-.05-.05Z"/><path class="cls-1" d="M248.9,127.12c-2.08-.63-4.11-1.43-6.04-2.46-.7-.37-1.44-.7-2.11-1.14-1.17-.8-2.28-1.7-3.28-2.72-.99-1.03-1.82-2.21-2.52-3.44-.63-1.09-1.19-2.23-1.56-3.41-.24-.76-.41-1.54-.51-2.33-.13-.79.11-1.6.26-2.37.12-.48.29-.4.62-.02.21.25.44.52.65.76.12.15.26.31.41.48.07.08.12.17.21.25.03.09.07.18.1.28.94,2.63,1.99,4.94,3.77,7.13,1.04,1.33,2.57,2.3,4.1,3.18,1.67.99,3.51,1.78,5.4,2.4,1.17.39,2.36.71,3.58.95,1.84.36,3.72.64,5.59.64,1.45,0,2.87-.28,4.26-.56.31-.07.6-.15.91-.2.57-.1.96-.04,1.25.09.3.2.51.44.7.76.09.15.19.28.25.42.1.23.05.46-.12.75-.18.28-.47.69-.92.86-1.31.6-2.74.8-4.18.95-1.44.13-2.91.12-4.38,0-2.18-.17-4.34-.59-6.45-1.16l.02-.08Z"/><path class="cls-1" d="M200.7,106.82c-.6-1.21-.94-2.54-1.17-3.87-.16-1.34-.2-2.71.02-4.04.39-2.66,1.48-5.15,3.03-7.22,1.11-1.54,2.39-2.9,3.85-4.08,2.68-2.04,5.87-3.22,9.06-3.68,3.21-.45,6.46-.24,9.55.6,2.71.79,5.37,1.96,7.57,3.73,1.42,1.12,2.7,2.46,3.67,4.01.46.79.79,1.65,1.06,2.51.11.44.26.86.32,1.31.06.44.21.86.16,1.32-.21,1.15.07.93-.43.12-.26-.4-.59-.96-1.05-1.58-.47-.61-1.05-1.27-1.67-1.94-.97-1.25-2.06-2.38-3.36-3.27-1.29-.88-2.69-1.62-4.15-2.21-2.95-1.11-6.15-1.8-9.41-1.73-1.95.02-3.93.47-5.75,1.24-1.84.79-3.44,1.9-4.91,3.28-1.62,1.48-2.93,3.28-3.76,5.27-.83,1.98-1.18,4.18-.78,6.3.41,2.62,1.91,5.04,3.89,6.93,1.48,1.4,3.38,2.41,5.39,3.07,2.02.67,4.15.99,6.28,1.05,3.31.04,6.57-.56,9.55-1.77.65-.27,1.29-.54,1.91-.88.59-.28,1.07-.51,1.46-.74.4-.2.76-.31,1.06-.41.57-.22,1-.23,1.45-.12.21.05.45.07.62.15.28.13.26.44-.03.93-.29.49-.85,1.18-1.75,1.8-2.69,1.83-5.9,2.94-9.2,3.44-3.31.5-6.76.46-10.13-.29-2.51-.53-5.02-1.46-7.24-3.05-.53-.43-1.09-.85-1.58-1.31-.46-.49-.95-.93-1.37-1.46-.85-1.04-1.63-2.16-2.2-3.41l.06-.04Z"/><path class="cls-1" d="M199.61,186.48c.47-2.39,1.26-4.59,2.18-6.73.94-2.12,2.02-4.17,3.22-6.14.87-1.44,1.76-2.87,2.78-4.23.98-1.3,2.04-2.54,3.26-3.7.62-.57,1.27-1.13,2.05-1.61.16-.09.49-.28.79-.42.29-.13.6-.2.89-.3.3-.07.6-.09.89-.09.28.05.56.06.85.14.44.16.85.46,1.12.85.11.21.23.41.28.65.03.11.07.22.09.34v.37c.03.96-.37,2.13-.59,2.66-.53,1.3-1.16,2.49-1.78,3.67-1.22,2.28-2.42,4.56-3.44,6.85-.65,1.47-1.24,2.96-1.7,4.45-.22.74-.41,1.49-.55,2.22-.15.73-.19,1.43-.31,2.18-.13.49-.17.77-.23.78-.06,0-.18-.18-.62-.54-.85-.68-1.67-2.79-1.11-4.8.85-3.57,2.49-6.59,4.06-9.57.79-1.48,1.62-2.94,2.36-4.38.37-.72.73-1.44,1-2.12.09-.23.09-.21.12-.28l.07-.14c.03-.09.07-.2.05-.31-.02-.09-.08-.17-.17-.19-.11-.05-.24-.04-.37,0-.06.02-.14.05-.17.07-.13.05-.32.19-.48.29-.68.44-1.34,1.04-1.97,1.67-1.25,1.28-2.41,2.74-3.46,4.25-2.52,3.63-4.69,7.6-6.07,11.78-.42,1.29-.74,2.6-.88,3.91-.16,1.29-.04,2.61.19,3.94.73,4.04,2.21,8.03,3.95,11.8,1.36,2.94,3.02,5.72,4.19,8.84.26.68.52,1.36.73,2.07.4,1.32.52,2.22.48,2.87,0,.64-.21,1.04-.48,1.37-.12.15-.23.34-.34.43-.36.31-1.04-.68-1.63-2.47-.8-2.68-1.9-5.25-3.2-7.91-1.29-2.66-2.66-5.47-3.76-8.4-.82-2.17-1.55-4.4-2.06-6.73-.25-1.17-.45-2.36-.53-3.62-.09-1.26.03-2.58.25-3.77h.06Z"/><path class="cls-1" d="M202.49,178.24c-1.14-.86-2.28-1.72-3.44-2.57-.42-.31-.89-.54-1.31-.86-1.48-1.11-2.93-2.26-4.37-3.43-.64-.51-1.33-.97-2.01-1.41-.44-.28-.87-.58-1.27-.91-.4-.34-.8-.68-1.06-1.21-.09-.44-.06-.4.4-.57.23-.09.52-.16.86-.24.32-.05.63-.02.91.1,1.01.38,1.89.94,2.77,1.52.88.58,1.74,1.19,2.55,1.88.95.86,2.15,1.44,3.24,2.16l3.57,2.42,2.2,1.5c1.12.74,2.2,1.57,3.34,2.26.89.54,1.85.93,2.78,1.4.21.1.42.18.62.3.73.44.83.77.49,1.56-.08.18-.14.37-.23.54-.31.57-.9.82-1.51.62-1.8-.57-3.42-1.55-5.03-2.58-1.2-.75-2.35-1.61-3.53-2.43l.04-.07Z"/><path class="cls-1" d="M224.64,183.5c.25.04.29-.32-.02-.71l-.13-.13c-.06-.06-.13-.11-.2-.16l-.41-.3c-.29-.17-.57-.36-.86-.52-1.02-.59-2.2-.91-3.41-.91-1.21,0-2.48.37-3.66.94-1.06.51-2,1.26-2.89,2.03-.59.49-1.03,1.1-1.6,1.61-.53.54-1.09,1.08-1.56,1.72-.3.39-.35.34-.41-.15-.04-.25-.06-.6-.06-1.05,0-.44.05-.97.27-1.45,1.55-3.36,4.9-5.59,8.71-6.07,1.14-.13,2.35-.11,3.49.13,1.15.22,2.29.63,3.25,1.29.28.16.51.38.77.56.27.19.43.37.83.74.34.32.59.67.87,1.01.3.33.5.68.69,1.03.77,1.38,1.12,2.69,1.07,3.86-.03.36-.07.7-.16,1.08-.04.19-.07.36-.14.57l-.09.29-.04.15s-.03-.01-.05-.02c-.24-.25-.51-.51-.86-.55-.2,0-.42.04-.72.33l-.8-.83-.69-.69c-.25-.27-.41-.37-.59-.51-.17-.12-.36-.29-.52-.38-.31-.12-.62-.33-.91-.35-.16-.04-.32-.05-.48-.05-.16-.02-.32.02-.49.03-.17.02-.38.08-.57.12-.39.08-.77.2-1.15.32-1.43.49-2.67,1.33-3.69,2.29-.23.2-.43.43-.66.64-.79.81-1.25.89-1.93.75-.16-.03-.32-.04-.46-.09-.44-.12-.57-.88-.09-1.91.41-.71.92-1.38,1.52-1.98.62-.57,1.32-1.06,2.06-1.48.74-.41,1.52-.75,2.32-1.02.4-.13.8-.25,1.21-.35.42-.09.74-.2,1.38-.27.36-.05.74-.03,1.1-.01l.27.04.14.02h.03s-.07,0-.04,0h0s0,0,0,0c0,0,0,.02.02.03.03.02.12.18.19.2l.14.16Z"/><path class="cls-1" d="M225.73,199.39s.07-.01.12-.03c-.03.04.12-.11.19-.24.08-.13.18-.25.25-.38.31-.53.56-1.12.67-1.74.09-.45.06-.91.04-1.37-.03-.81-.2-1.64-.56-2.43-.11-.46-.94-.98-1.75-1.2-.73-.25-1.55-.28-2.32-.15-.49.1-.97.25-1.46.42-.46.2-1.04.34-1.46.71-.3.2-.25.19-.1-.08.08-.13.15-.36.28-.61.07-.13.12-.29.2-.45.04-.09.08-.18.12-.26.07-.06.12-.13.19-.2.9-1.07,2.34-1.43,3.68-1.52,1.38-.06,2.77.31,3.97,1.51.17.16.36.46.49.68l.26.54c.19.35.32.74.47,1.11.24.77.44,1.59.42,2.41,0,.9-.16,1.79-.45,2.63-.15.42-.33.82-.54,1.21-.24.41-.4.69-.83,1.23-.96,1.12-2.16,1.73-3.34,1.51-.44-.09-.88-.22-1.22-.5-.2-.11-.29-.34-.33-.51-.03-.18-.03-.36,0-.55.04-.36.14-.8.32-1.3l.25-.75.04-.19v-.09s.01-.1.01-.15c0-.16-.08-.3-.17-.42-.06-.05-.1-.1-.18-.14l-.11-.06-.05-.03h-.03s0-.02,0-.02h0s0,0,0,0c.85-1.32.24-.37.42-.66h0s-.01.02-.01.02c-.01.02-.03.04-.03.07-.02.05,0,.08,0,.15,0,.09,0,.18,0,.27,0,.09.03.17.05.26.03.07,0,.03,0,.05-.02.02-.04.03-.08.06-.07.04-.17.11-.26.18-.18.13-.37.29-.55.44-.16.14-.29.3-.44.44-.58.48-.68.46-1.42.22-.15-.04-.3-.06-.42-.09-.21-.05-.36-.19-.47-.53-.12-.34.03-.71.26-1.07.35-.55.78-.95,1.27-1.31.24-.18.5-.35.8-.5.15-.08.32-.16.54-.23l.2-.06.11-.03.19-.03h.19s.11-.02.11-.02c.09,0,.19.02.28.04.19.04.38.11.54.2.13.08.07.05.12.08.74.47,1.48,1.4,1.51,2.43.01.26.03.51-.02.78-.02.12,0,.04-.01.07h0s0,0,0,0c-.01-.03-.07.13.03.11l.02.07Z"/><path class="cls-1" d="M204.69,228.78c-.07-.54-.11-1.09-.14-1.65l-.03-.42c-.02-.14.02-.46.03-.68.04-.48.03-.97.1-1.43l.2-.63c.12-.17.22-.4.39-.53.32-.3.74-.5,1.19-.66.43-.16.98-.28,1.37-.36l.84-.15c2.18-.35,4.29-.58,6.4-.84,1.54-.19,3.06-.46,4.58-.65,2.69-.33,5.37-.7,8-1.16,1.32-.23,2.62-.5,3.87-.86.31-.09.62-.19.92-.29.27-.09.68-.25.75-.28.28-.12.58-.26.82-.49.11-.1.2-.23.24-.37.06-.14.01-.3-.12-.38-.24-.17-.53-.24-.82-.31-.14-.03-.29-.06-.45-.08l-.82-.11c-.58-.07-1.16-.12-1.74-.15-1.5-.07-3.01-.05-4.52-.02-1.51.01-3,.18-4.5.18-.93.03-.94-.36-.23-1.06.69-.73,2.18-1.61,4.04-1.8,1.64-.18,3.27-.25,4.92-.15.82.04,1.65.11,2.49.23.5.06,2.59.36,3.7.97.59.31,1,.7,1.26,1.15.14.23.2.51.24.81.08.29.02.6-.03.88-.23,1.13-1.17,2.1-2.45,2.81-.33.16-.64.35-.98.49-.22.09-.42.17-.62.25-.41.15-.82.28-1.22.4-.81.24-1.62.43-2.42.6-3.84.79-7.75,1.48-11.62,2.02l-6.35.82c-1.05.14-2.1.29-3.1.48l-.57.11c-.11.02-.23.05-.34.08-.1.04-.26.07-.28.19-.02.11-.04.23-.03.35v.22s0,.06,0,.13l.02.24.06.96.16,1.93c.14,1.29.29,2.59.48,3.88.55,3.91,1.26,7.84,2.3,11.62.82,2.93,1.89,5.74,3.12,8.42.29.58.59,1.14.86,1.73.54,1.04.79,1.82.99,2.32.08.26.13.49.13.71-.02.23-.07.46-.11.65-.04.18-.04.38-.07.5-.05.2-.27.13-.79-.07-.29-.08-.54-.28-.83-.54-.15-.13-.3-.27-.45-.43-.13-.17-.27-.35-.42-.55-1.79-2.32-2.83-5.05-3.82-7.76-.97-2.74-1.73-5.56-2.37-8.41-.95-4.24-1.79-8.48-2.32-12.85h.08Z"/><path class="cls-1" d="M198.62,267.05c5.47,1.56,10.84,3.46,16.04,5.79,1.9.84,3.82,1.67,5.66,2.66l2.41,1.37,2.35,1.52c.76.57,1.52,1.12,2.26,1.72l1.07.98.53.49c.17.18.31.4.47.59.31.4.62.79.91,1.2.24.44.53.86.74,1.28l.62,1.28.55,1.29c.68,1.72,1.29,3.44,1.83,5.18.96,3.08,1.88,6.19,2.64,9.29.47,2,1.02,3.98,1.32,6.02.15,1.02.24,2.05.34,3.07.05.51.05,1.03.05,1.55,0,.52.09,1.02.03,1.55-.24,1.31-.05,1.11-.55.09-.28-.5-.48-1.24-.97-2.09-.4-.86-.82-1.87-1.18-2.98-.16-.49-.33-.98-.47-1.47l-.36-1.5-.76-2.98c-.54-1.98-1.08-3.96-1.63-5.94-.56-1.97-1.16-3.93-1.82-5.86-.66-1.91-1.37-3.85-2.27-5.51-.14-.23-.27-.48-.43-.7l-.55-.61-.55-.61-.65-.59c-.82-.82-1.87-1.5-2.85-2.21-2.1-1.31-4.3-2.54-6.59-3.6-4.97-2.43-10.22-4.41-15.54-6.08-3.28-1.05-6.61-1.91-9.96-2.67-1.28-.25-2.55-.53-3.83-.76l-1.93-.32-.85-.14-.55-.07-1.11-.14-.28-.03c-.12,0-.1.14-.08.22.04.18.12.35.2.52.16.33.34.66.52.99l.8,1.42c2.01,3.53,4.12,6.97,5.71,10.79.35.84.7,1.67.97,2.56,1.01,3.32.68,4.62-.06,5.35-.17.17-.34.39-.5.48-.52.28-1.04-.98-1.67-3.12-.98-3.22-2.58-6.42-4.31-9.62-.87-1.6-1.8-3.2-2.74-4.83-.72-1.26-1.43-2.53-2.15-3.79-.21-.42-.38-.83-.49-1.21-.09-.37-.11-.7-.08-.99.03-.29.1-.53.2-.76.05-.12.11-.23.21-.37.05-.07.11-.15.15-.19.02-.06.16-.03.24-.05l3.23-.3,1.62-.15c.15,0,.35.03.5.05l.4.06.54.08c1.43.22,2.86.44,4.27.74,2.84.54,5.63,1.24,8.41,1.98v.08Z"/><path class="cls-1" d="M161.91,296.5c.64-.92,1.44-1.66,2.21-2.43.82-.7,1.65-1.35,2.51-1.99,1.79-1.16,3.67-2.18,5.67-2.86,3.98-1.42,8.18-1.85,12.26-1.7,2.97.15,5.95.41,8.81,1.08,5.08,1.11,9.94,2.9,14.6,5.03,4.66,2.14,9.15,4.62,13.42,7.41,3.8,2.47,7.51,5.11,11,7.97,2.22,1.86,4.39,3.8,6.37,5.96,1.93,2.18,3.81,4.52,4.82,7.34.15.97.21,1.36.17,1.35-.05,0-.27-.39-.95-.85-.67-.5-1.56-1.15-2.58-1.92-.55-.37-1.05-.84-1.58-1.32-.56-.47-1.13-.98-1.68-1.54-7.97-7.92-17.31-14.77-27.51-20.16-6.11-3.23-13-5.55-19.89-6.67-3.78-.61-7.64-.79-11.38-.25-3.73.53-7.36,1.81-10.36,4.07-1.9,1.34-3.47,3.01-4.57,4.97-1.1,1.96-1.65,4.21-1.68,6.5l-.02.65.04.66c.04.44.05.87.1,1.31.15.87.25,1.75.49,2.61.39,1.74,1.01,3.43,1.7,5.09,1.43,3.31,3.28,6.46,5.35,9.42,3.26,4.59,7.07,8.63,11.12,12.42.89.83,1.8,1.61,2.72,2.42,1.71,1.5,2.84,2.47,3.57,3.23.71.78,1.04,1.35,1.22,1.94.08.27.23.58.25.8.03.37-.41.4-1.28.11-.84-.31-2.09-.92-3.46-1.99-4.1-3.11-7.89-6.76-11.41-10.79-3.49-4.04-6.75-8.43-9.34-13.33-1.91-3.63-3.46-7.59-3.98-11.91-.25-2.16-.15-4.41.35-6.6.47-2.21,1.51-4.3,2.86-6.09l.07.04Z"/><path class="cls-1" d="M302.64,286.52c-2.32-1.65-5.14-2.67-8.08-2.9-2.95-.25-6.01.19-8.96,1.07-2.15.67-4.23,1.59-6.26,2.62-3.6,1.77-6.98,4.07-10.08,6.67-1.55,1.29-3,2.71-4.44,4.19-1.44,1.47-2.8,3-4.14,4.57-2.34,2.79-4.52,5.76-6.47,8.81-2.52,3.93-4.5,8.12-7.27,11.98-.89,1.2-.83,1.02-.71-.29.06-.66.12-1.61.29-2.72.09-.56.16-1.18.34-1.79.2-.6.42-1.24.72-1.86.26-.55.51-1.12.79-1.66l.9-1.61c.62-1.06,1.24-2.12,1.9-3.15,1.31-2.07,2.69-4.1,4.18-6.06,3.01-3.88,6.32-7.52,10-10.84,4.45-3.98,9.48-7.66,15.11-10.13,3.09-1.34,6.36-2.34,9.77-2.72,3.39-.38,6.95-.07,10.19,1.21l1.45.68.72.34c.23.13.46.28.69.42.46.28.91.56,1.33.9.43.32.86.64,1.24,1.02,1.58,1.44,2.87,3.17,3.87,5.02,1.52,2.81,2.34,5.9,2.8,8.98.41,3.09.52,6.2.33,9.26-.27,4.76-.96,9.42-2.31,13.98-.29,1.01-.59,1.99-.98,2.98-1.43,3.68-2.49,4.63-3.63,4.88-.26.06-.54.17-.74.17-.34,0-.41-.41-.29-1.12.12-.71.42-1.72.94-2.95,1.45-3.7,2.54-7.69,3.25-11.79.7-4.09,1.04-8.32.74-12.46-.24-3.07-.85-6.1-2.01-8.84-1.14-2.75-2.9-5.14-5.23-6.8l.04-.07Z"/><path class="cls-1" d="M247.93,342.97c-3.21-.62-6.49-.89-9.79-.77-1.2.05-2.39.23-3.57.38-2.09.26-4.15.68-6.15,1.32-1.99.66-3.94,1.5-5.77,2.57-1.64.94-3.14,2.13-4.52,3.41-1.82,1.61-3.44,3.42-5.31,5.07-.67.44-.75.26-.69-.53.09-.77.35-2.15,1.23-3.35.39-.53.81-1.03,1.24-1.54.42-.51.86-1.01,1.33-1.48.92-.96,1.96-1.8,3.03-2.61,2.14-1.6,4.53-2.96,7.09-3.82,3.06-1.02,6.26-1.98,9.5-2.31,3.54-.35,7.11-.28,10.61.18,2.15.31,4.29.72,6.38,1.31,3.17.87,6.25,2.12,9.13,3.67,2.25,1.17,4.44,2.46,6.43,4.1l.67.52c.21.19.42.38.62.58.38.38.68.7.91.99.22.3.36.57.46.81.19.48.15.87-.06,1.3-.09.2-.17.41-.3.58-.42.54-1.37.24-2.37-.7-3.15-2.68-6.72-5.05-10.75-6.77-2.97-1.28-6.12-2.27-9.36-2.84v-.08Z"/><path class="cls-1" d="M198.84,350.1c-1.18-.27-2.38-.49-3.6-.66l-.91-.12-.88-.07c-.58-.07-1.18-.04-1.77-.05-.87.03-1.73.16-2.6.28-3.08.37-6.17,1.26-9.07,2.59-1.29.58-2.54,1.28-3.72,2.05-1.53.99-2.84,2.2-4.57,3-.57.22-.56.14-.42-.43.06-.29.17-.69.31-1.19.17-.46.47-.9.84-1.33,2.85-2.73,6.35-4.79,10.19-5.85,2.28-.65,4.62-1.45,7.06-1.75,1.34-.13,2.69-.23,4.05-.12,1.36.07,2.63.27,3.94.47,1.6.27,3.18.65,4.74,1.1,2.36.7,4.64,1.67,6.8,2.81,1.69.87,3.36,1.72,4.93,2.8.35.22.7.45,1.03.71,1.25.94,1.38,1.54,1.09,2.31-.07.18-.12.37-.21.52-.15.26-.42.37-.78.36-.36-.01-.82-.12-1.25-.43-2.69-1.68-5.36-3.42-8.32-4.71-2.18-.98-4.49-1.73-6.88-2.22v-.07Z"/><path class="cls-1" d="M318.5,317.33c3.06-1.34,6.34-2.22,9.66-2.51.61-.03,1.21-.08,1.82-.13l.91-.07.91.03,1.6.09c.53.04,1.06.14,1.58.21.52.08,1.05.14,1.57.25l1.54.37c1.02.22,2.07.55,3.06.95.98.42,1.93.86,2.84,1.38,1.62.91,3.23,1.85,4.65,3.03.91.76,1.79,1.57,2.52,2.51.72.96,1.28,2.05,1.67,3.16.23.7.13.62-.32.18-.41-.47-1.42-1.09-2.46-1.79-1.76-1.33-3.61-2.46-5.48-3.58-1.89-1.1-3.91-1.98-5.92-2.69-2.54-.81-5.37-.94-8.07-.83-2.99.11-5.97.71-8.81,1.75-.88.32-1.72.72-2.59,1.07-.83.44-1.67.85-2.48,1.33-2.46,1.45-4.76,3.23-6.78,5.24-.77.8-1.51,1.62-2.15,2.51l-.98,1.32-.91,1.37c-.27.4-.51.81-.79,1.2-.99,1.5-1.54,1.81-2.51,1.64-.22-.04-.46-.06-.66-.13-.68-.23-.72-1.18-.12-2.46,1.87-3.74,4.76-7.19,8.17-10.1,2.55-2.15,5.42-3.97,8.49-5.39l.04.08Z"/><path class="cls-1" d="M282.93,337c2.81-1.32,5.77-2.22,8.77-2.75,1.09-.2,2.18-.43,3.28-.52,3.9-.31,7.79.02,11.55.78,1.67.36,3.33.75,4.95,1.21,1.04.31,2.13.62,3.14,1.17.5.28.98.61,1.43,1,.22.19.43.4.63.62.19.22.33.5.48.75.32.68.04.71-.64.6-.75-.08-1.79-.15-2.76-.49-.89-.29-1.77-.67-2.76-.92-.99-.26-2-.51-3.01-.73-2.03-.41-4.06-.87-6.14-1.15-2.5-.37-5.13-.1-7.67.25-2.79.41-5.55,1.09-8.16,2.19-1.6.67-3.16,1.47-4.63,2.41-2.2,1.45-4.31,3.14-5.98,5.18-1.31,1.58-2.27,3.36-3.07,5.17-.18.4-.35.79-.52,1.19-.33.74-.61,1.21-.87,1.51-.29.29-.61.41-1.02.46-.19.02-.38.07-.55.07-.29-.01-.48-.21-.59-.59-.1-.37-.15-.94.02-1.59.41-1.96,1.27-3.86,2.39-5.62,1.11-1.76,2.48-3.39,4-4.85,2.25-2.19,4.89-3.96,7.68-5.37l.04.07Z"/><path class="cls-1" d="M344.99,270.86c2.39.23,4.76.69,7.07,1.33,2.31.62,4.57,1.45,6.73,2.45,1.59.71,3.16,1.47,4.65,2.36,5.23,3.21,9.63,7.59,13.07,12.55,1.52,2.21,2.94,4.51,3.98,6.97.69,1.57,1.27,3.2,1.69,4.87l.27,1.27.13,1.29c.07.86.09,1.73-.11,2.59-.22,1.07-.28.9-.7.05-.45-.87-1.33-2.31-1.88-4.01-.9-3.08-2.46-5.93-4.12-8.69-1.66-2.77-3.68-5.36-5.9-7.79-1.34-1.45-2.89-2.75-4.52-3.95-1.65-1.18-3.4-2.24-5.17-3.21-3.92-2.09-8.16-3.6-12.58-4.33-2.71-.46-5.48-.66-8.24-.53-4.18.16-8.39.85-12.24,2.41-2.99,1.21-5.64,2.98-7.91,5.08-.49.48-.95.96-1.41,1.46-1.72,1.84-2.28,2.4-3.34,2.36-.24,0-.51.03-.72-.02-.36-.08-.5-.42-.41-.98.04-.28.14-.62.3-1,.16-.38.41-.78.7-1.23,1.78-2.61,4.28-4.82,7.07-6.53,2.8-1.72,5.9-2.95,9.08-3.77,2.36-.6,4.79-1.02,7.22-1.15,1.21-.12,2.43-.09,3.64-.12,1.22.05,2.43.06,3.64.2v.09Z"/><path class="cls-1" d="M184.77,432.29c3.11.69,6.29,1.08,9.47,1.36,1.59.06,3.17.22,4.78.17h2.4s2.4-.15,2.4-.15l1.75-.12c.58-.06,1.16-.15,1.75-.22,1.16-.17,2.33-.26,3.49-.46,4.11-.56,8.17-1.44,12.19-2.49,1-.28,1.99-.6,2.98-.9,1-.3,1.99-.61,2.96-.98l2.93-1.06,2.86-1.23,1.27-.55,1.23-.64,2.45-1.29c.8-.46,1.56-.97,2.34-1.45.78-.49,1.56-.96,2.28-1.53.93-.71,1.88-1.39,2.79-2.13l2.63-2.31c.83-.82,1.61-1.68,2.44-2.5.82-.83,1.56-1.72,2.37-2.59,1-1.08,1.17-.77.81.52-.18.65-.47,1.56-.9,2.65-.49,1.04-1.3,2.08-2.23,3.19-3.45,3.73-7.6,6.71-11.96,9.16-4.37,2.48-9.04,4.35-13.85,5.75-5.74,1.65-11.77,3.21-17.84,3.96-6.65.81-13.49.94-20.13-.07-2.05-.25-4.08-.68-6.11-1.08-2.01-.5-4.02-.99-5.99-1.65-5.99-1.86-11.7-4.83-16.57-8.8-3.77-3.08-7.07-6.74-9.38-11.09-.26-.47-.52-.94-.78-1.42-.24-.48-.42-.99-.62-1.5-.36-.95-.64-1.74-.85-2.41-.14-.69-.21-1.26-.24-1.73-.06-.94.12-1.53.47-2.02.16-.23.29-.51.46-.65.54-.46,1.56.92,2.4,3.47,1.51,3.72,3.56,7.24,6.23,10.32,2.66,3.08,5.92,5.72,9.54,7.85,5.42,3.09,11.48,5.32,17.78,6.52v.09Z"/><path class="cls-1" d="M108.91,406.15c-5.16-3.24-9.33-8.12-11.49-13.86-.76-2.09-1.41-4.26-1.57-6.5-.56-7.89,2.64-15.72,8.28-20.95,2.49-2.32,5.43-4.22,8.66-5.34.5-.22,1.05-.3,1.58-.45.53-.12,1.06-.29,1.6-.37l1.64-.18.82-.08.82.02c.55,0,1.1.06,1.64.1.54.06,1.07.21,1.61.32.53.13,1.07.2,1.57.4.51.2.99.45,1.48.67,1.21.59.92.74-.26.9-.59.09-1.4.19-2.32.3-.46.07-.95.13-1.46.17-.25.03-.51.02-.77.05-.26.04-.53.08-.8.1-7.64.22-14.63,5.12-18.37,12.1-.3.51-.59,1.04-.79,1.6-.22.56-.47,1.11-.66,1.68l-.48,1.76c-.19.58-.21,1.2-.32,1.8-.37,2.41-.26,4.88.19,7.26,1,5.24,4.02,10.1,8.25,13.57,1.28,1.09,2.7,2.02,4.16,2.87,1.49.81,3.03,1.5,4.65,2.04,2.43.85,5,1.34,7.59,1.57,2.59.23,5.21.22,7.78-.11,4.01-.45,7.82-1.67,11.46-3.2.81-.32,1.56-.73,2.36-1.09,2.92-1.4,3.87-1.79,4.95-1.36.24.09.54.16.73.29.32.21.26.61-.15,1.14-.41.52-1.16,1.22-2.26,1.85-6.47,3.93-14.5,6.09-22.65,5.91-3.02-.07-6.06-.46-9.03-1.25-2.96-.82-5.84-2.04-8.47-3.66l.04-.08Z"/><path class="cls-1" d="M252.73,173.59c0-.2-.05-.45-.07-.57-.02-.06-.08-.06-.1-.14-.07-.25-.26-.54-.52-.68-.11-.08-.23-.07-.33-.04-.13.05-.15.15-.41.06-.08-.03-.42-.32-.67-.69-.26-.37-.41-.9-.2-1.1.36-.34.83-.55,1.29-.6.46-.08.89.11,1.22.34.39.29.85.37,1.23.67.2.16.37.38.51.59.12.2.23.41.31.62.11.26.18.51.25.76.12.37.12.75.22,1.08.05.26.35.47.37.73.01.06.04.11.04.16-.02.22-.18.31-.68.44l-.33.09c-.37.08-.71.06-.94-.05-.3-.16-.69-.3-.78-.48-.14-.17-.23-.34-.31-.49-.13-.22-.1-.46-.17-.64l.06-.03Z"/><path class="cls-1" d="M252.3,177.93c.19.67.19,1.37.19,2.01-.01.23.04.46,0,.69-.09.81-.28,1.56-.54,2.28-.1.32-.18.64-.25.95-.09.4-.21.8-.38,1.19-.06.12-.12.09-.2-.03-.08-.12-.21-.35-.24-.59-.09-.86-.22-1.68-.13-2.46.11-.47,0-.96-.06-1.41-.06-.5-.14-1-.28-1.47-.07-.3-.17-.58-.3-.86-.2-.41-.45-.83-.81-1.13-.28-.23-.66-.33-1-.41-.08-.02-.15-.04-.21-.08-.22-.16-.22-.34-.03-.88l.12-.36c.15-.4.44-.67.78-.69.53-.07.98.11,1.37.37.4.26.74.6,1.04.98.44.56.75,1.22.99,1.89l-.05.02Z"/><path class="cls-1" d="M245.2,323.59c-.03.08-.05.12-.05.12l-1.84-1.6,1.89,1.48Z"/><path class="cls-1" d="M211.66,129.65c-.67,1.87-1.43,3.78-1.46,5.79-.02,1,.18,2.06.73,2.91.68,1.05,1.71,1.69,2.88,2.08.64.21,1.37-.25,1.54-.87.19-.68-.23-1.32-.87-1.54-.12-.04-.24-.08-.36-.13.21.09-.14-.07-.18-.1-.1-.05-.19-.11-.28-.17-.03-.02-.3-.22-.17-.11s-.15-.14-.17-.16c-.07-.07-.13-.14-.19-.21.13.15.05.07-.02-.05-.05-.08-.09-.16-.14-.24-.04-.07-.13-.33-.03-.03-.03-.09-.06-.17-.09-.26-.05-.18-.09-.36-.12-.54.06.32,0,.03,0-.04,0-.1-.01-.19-.01-.29,0-.22,0-.43.02-.64,0-.1.02-.2.03-.3,0-.09-.04.2.01-.08.04-.23.08-.45.13-.67.1-.42.21-.83.34-1.24.25-.82.55-1.62.84-2.43.23-.64-.26-1.37-.87-1.54-.69-.19-1.31.24-1.54.87h0Z"/><path class="cls-1" d="M225.58,132.77c-.46,1.39-1.17,2.72-1.41,4.18-.28,1.71.11,3.31,1.49,4.44,2.52,2.07,5.8,1.33,8.22-.5,1.46-1.1,2.69-2.47,3.63-4.04s-1.47-2.91-2.37-1.39c-.15.25-.31.5-.47.74-.22.32-.26.37-.51.67-.4.48-.84.93-1.31,1.34s-.73.61-1.3.95c-.6.36-.81.45-1.41.62-.12.03-.25.07-.38.09-.09.02-.37.05-.13.03-.27.03-.53.02-.8.01-.21,0,.21.04,0,0-.06-.01-.12-.02-.18-.03-.12-.03-.24-.06-.36-.1-.08-.02-.34-.14-.14-.04-.13-.07-.27-.14-.39-.22-.06-.04-.29-.2-.24-.16.05.04-.18-.16-.23-.21s-.1-.1-.15-.16c0,0-.15-.18-.07-.08s-.05-.09-.05-.09c-.04-.08-.09-.15-.13-.24.09.2-.03-.17-.05-.23-.04-.15,0,0,0,.04,0-.07-.01-.13-.01-.2,0-.14,0-.27,0-.41,0-.07,0-.14.02-.21-.02.15,0,.02.01-.06.29-1.41.94-2.69,1.39-4.04.23-.7-.27-1.5-.96-1.69-.75-.21-1.46.25-1.69.96h0Z"/><path class="cls-1" d="M240.89,124.85c-2.1-1.53-4.36-3.02-7.03-3.2-.69-.05-1.46-.03-2.03.41-.74.57-.86,1.61-.35,2.39.83,1.25,2.38,1.18,3.68,1.47,1.49.33,2.68.8,3.96,1.56.56.33,1.4.15,1.71-.45s.15-1.35-.45-1.71c-1.25-.74-2.61-1.32-4.01-1.69-.66-.17-1.32-.27-1.99-.37-.16-.02-.31-.05-.47-.08-.06-.01-.46-.18-.25-.06-.07-.03-.13-.07-.2-.11.06.03.1.07.13.14.08.21.06.44-.06.66-.5.3-.64.41-.41.34.09-.02.06-.02-.09,0,.08,0,.15-.01.23-.01.17,0,.35,0,.52,0,.05,0,.52.06.31.02.15.02.3.05.44.08.31.07.62.16.93.27.35.13.36.13.72.31,1.22.59,2.33,1.38,3.43,2.18.53.39,1.42.11,1.71-.45.34-.65.12-1.3-.45-1.71h0Z"/><path class="cls-1" d="M220.5,161.29c1.77,1.26,4.15,1.23,6.07.35s3.16-2.62,3.94-4.48c.28-.67-.3-1.54-.96-1.69-.8-.18-1.39.25-1.69.96.08-.18.01-.04-.03.06-.04.09-.09.18-.14.27-.08.16-.18.32-.27.48s-.2.31-.3.46c-.14.21.06-.05-.04.06-.05.06-.1.13-.16.19-.25.29-.53.56-.83.8.15-.12.03-.02-.06.04-.07.05-.13.09-.2.13-.17.11-.35.21-.53.29-.02.01-.25.11-.11.05.16-.06-.15.05-.18.06-.17.06-.35.11-.53.14-.1.02-.2.04-.3.06.13-.02.14-.01,0,0-.2.01-.41.02-.61.01-.08,0-.16-.01-.24-.02-.37-.03.14.05-.05,0-.17-.05-.35-.08-.53-.13,0,0-.34-.12-.17-.06s-.16-.08-.16-.08c-.18-.09-.35-.2-.51-.32-.59-.42-1.56-.12-1.88.49-.37.71-.13,1.43.49,1.88h0Z"/><path class="cls-1" d="M222.2,130.1c-.85,1.8-1.87,3.3-2.86,4.82-.36.55-.66,1.14-1.03,1.67-.65.94-1.31,1.87-1.9,2.8-.15.23-.29.46-.42.69-.14.23-.26.46-.36.68-.13.24-.17.4-.25.59-.02.2-.09.41-.07.6-.03.72.44,1.43,1.09,2.03.42.39.86.81,1.34,1.23.45.47.91.99,1.3,1.62.23.43,0,.46-.45.45-.45-.03-1.22.07-2-.13-.63-.27-1.3-.58-1.94-1.06-.58-.54-1.17-1.2-1.58-2.08-.41-.87-.59-1.98-.38-2.92.24-1.04.67-1.7,1.07-2.29.98-1.42,1.77-2.87,2.67-4.24.98-1.5,1.98-2.97,2.81-4.49.49-.91.98-1.92,1.06-2.74.07-.54-.16-1.26-.52-1.84-.37-.61-.93-1.14-1.54-1.56-.96-.68-2.16-.9-3.2-1.02-.23-.01-.46,0-.68,0-.79.08-1.05-.29-1.45-.76-.09-.11-.2-.21-.27-.32-.12-.18-.12-.37.03-.64.08-.13.19-.29.35-.45.16-.14.36-.27.6-.36,1.43-.4,2.95-.27,4.28.26,1.34.53,2.57,1.38,3.59,2.56.74.88,1.37,2.03,1.54,3.38.03.36.01.75-.01,1.12-.05.32-.13.6-.19.9-.17.54-.34,1.06-.54,1.51l-.06-.02Z"/></svg>