<?xml version="1.0" encoding="UTF-8"?><svg id="Layer_76" xmlns="http://www.w3.org/2000/svg" width="520" height="520" viewBox="0 0 520 520"><defs><style>.cls-1,.cls-2,.cls-3,.cls-4,.cls-5,.cls-6{fill:#0056FF;}.cls-2{opacity:.2;}.cls-3{opacity:.6;}.cls-4{opacity:.55;}.cls-5{opacity:.75;}.cls-6{opacity:.35;}</style></defs><path class="cls-1" d="m140.4,441.9c-12.09-1.57-14.67-23.42-14.67-23.07l1.83,19.46,12.84,3.6Z"/><path class="cls-1" d="m189.32,315.79c-5.89-.03-11.78-.31-17.65-.85-2.14-.18-4.29-.36-6.42-.63-7.51-1.05-14.99-2.61-22.17-5.22-3.17-1.2-6.32-2.51-9.29-4.19-.93-.57-1.86-1.16-2.77-1.78-.85-.7-1.77-1.32-2.56-2.11l-1.18-1.19c-.39-.4-.68-.88-1-1.34l-.92-1.39c-.24-.51-.4-1.06-.59-1.58-.4-1.33-.31-1.13.63-.39.98.74,2.74,1.85,4.49,3.27.38.33.71.7,1.13,1l1.22.91c.78.65,1.72,1.1,2.56,1.68.85.57,1.8,1.02,2.69,1.54.92.49,1.88.9,2.82,1.36,3.83,1.71,7.9,3.04,12.05,4.2,4.98,1.38,10.35,2.06,15.62,2.65,5.8.64,11.65,1,17.5,1.12,3.6.06,7.21.07,10.82-.06,5.46-.18,10.95-.51,16.33-1.18,4.18-.53,8.24-1.33,12.29-2.24.89-.21,1.75-.45,2.66-.6,3.32-.74,4.48-.57,5.33-.27.19.07.44.12.56.2.21.13,0,.35-.56.71-.56.34-1.44.91-2.65,1.34-3.58,1.34-7.41,2.1-11.29,2.79-3.88.67-7.85,1.16-11.83,1.53-5.91.54-11.87.76-17.82.8v-.07Z"/><path class="cls-2" d="m121.79,342.8s15.3,8.3,18.61,9.26c3.31.96,3.76,5.18,8.34,5.26s16.33-.97,18.43.67c2.1,1.64,37.65,1.28,45.16,0,7.51-1.28,25.46-3.69,29.48-4.89s22.59-10.67,22.59-10.67l-2.9,48.16s-18.71,9.82-32.55,12.69-43.37,5.47-56.49,4.95c-25.08-1-49.79-17.64-49.79-17.64l-.88-47.78Z"/><path class="cls-1" d="m121.13,357.71c.03-5.3.09-10.6.31-15.89.08-1.93.05-3.87.16-5.79.34-6.8.88-13.6,1.51-20.38.15-1.5.29-3.01.41-4.52.13-1.51.32-3.01.46-4.5.17-1.92.41-3.84.67-5.76.29-1.91.82-3.8,1.42-5.65.53-1.12.51-.96.77.12.26,1.08.6,3.01.54,5.22-.81,7.75-1.61,15.5-2.43,23.33-.48,4.7-.56,9.61-.74,14.44-.18,5.31-.35,10.62-.44,15.93-.07,3.27-.09,6.54-.07,9.81.02,4.95.09,9.93.32,14.84.2,3.82.55,7.55.9,11.31.07.83.13,1.64.2,2.47.16,3.1.07,4.1-.31,4.81-.09.16-.16.37-.25.47-.28.33-.68-.91-1.12-3.17-.69-3.35-1.03-6.82-1.33-10.34-.3-3.52-.51-7.11-.67-10.69-.12-2.67-.18-5.34-.26-8.01l-.11-8.02h.07Z"/><path class="cls-1" d="m281.51,127.41c-.24.32-.03.05.03-.02.07-.08.14-.15.21-.22.13-.13.27-.24.41-.36-.29.24,0,.01.06-.03.09-.06.18-.12.28-.18.17-.1.33-.2.51-.29.19-.1.39-.18.58-.28.09-.04.06-.03-.1.04.06-.02.12-.05.19-.07.09-.04.19-.07.28-.1.4-.14.81-.26,1.23-.34.08-.02.52-.15.56-.1-.21.03-.24.03-.09.01.05,0,.09-.01.14-.01.1-.01.21-.02.31-.03.17-.01.34-.01.51-.01.07,0,.51-.02.55.04-.03-.03-.37-.07-.08,0,.07.02.14.03.2.05s.13.04.19.06c.32.09-.21-.13-.04-.02.04.03.1.07.15.09.2.09-.3-.13-.11-.08.04,0,.08.11.11.11-.13,0-.21-.33-.08-.06.33.64,1.28.88,1.88.49.66-.42.84-1.19.49-1.88-.93-1.82-3.58-1.65-5.25-1.33-2.12.4-4.19,1.43-5.52,3.16-.44.57-.11,1.56.49,1.88.73.38,1.41.12,1.88-.49h0Z"/><path class="cls-4" d="m215.62,392.25s-2.36-12.61-7.54-11.31c-5.19,1.3-10.82,3.49-10.82,3.49,0,0-.7,14.69,3.18,13.56s15.18-5.74,15.18-5.74Z"/><path class="cls-4" d="m143.6,279.59s-14.47,2.16-16.87,8.85c-2.39,6.69-2.24,11.3,13.03,15.98,15.27,4.68,45.36,9.61,66.44,8.54,21.08-1.07,48.09-11.28,52.77-15.47,11.57-10.36-20.39-19.06-20.39-19.06,0,0-20.4-4.83-25.83-3.57s-7.57,10.94-19.12,14.29c-11.55,3.36-25.24,6.65-31.65,4.73s-16.2-9.04-17.37-11.68c-1.17-2.64-1.02-2.61-1.02-2.61Z"/><path class="cls-6" d="m407.11,389l23.31.17s15.86-28.92,19.51-29.52c3.65-.6,4.5,5.11,3.29,8.41-1.22,3.3-11.8,28.72-15.47,31.01s-29.34,4.65-29.34,4.65l-1.29-14.73Z"/><path class="cls-1" d="m410.23,394.78c.04.74.1,1.48.23,2.21.04.27.16.51.21.78.17.94.37,1.9.64,2.84.13.42.32.81.53,1.18.14.24.29.47.37.75.1.26.17.54.12.9-.02.22-.16.27-.49.29-.16.01-.38.02-.64.01-.23-.02-.43-.08-.57-.19-.25-.2-.5-.41-.63-.68-.16-.26-.32-.52-.45-.79-.27-.54-.5-1.12-.61-1.73-.12-.74-.48-1.41-.68-2.13-.21-.79-.36-1.6-.48-2.41-.08-.5-.13-1-.19-1.49-.08-.75-.08-1.51-.18-2.25-.08-.57-.27-1.13-.4-1.7-.03-.13-.07-.25-.09-.38.06-.48.26-.63.83-.73.13-.02.26-.05.39-.07.43-.04.81.14,1.05.46.6.95.68,1.93.83,2.91.11.73.17,1.46.25,2.19h-.06Z"/><path class="cls-3" d="m420.25,370.47s-8.98-10.52-7.12,18.58c0,0-9.23,3.92-8.88-1.09.35-5.01.14-37.92,9.66-42.93,0,0,2.64,6.79,3.68,12.63,1.04,5.84,2.67,12.82,2.67,12.82Z"/><path class="cls-1" d="m264.9,326.02c2.37-5.12,10.14-10.06,14.4-13.19,11.76-8.63,25.02-14.95,38.39-20.65,1.45-.62,2.94-1.24,4.51-1.39,1.84-.17,3.7.31,5.55.23,3.32-.15,6.34-2.11,9.66-2.37,4.26-.33,8.61,2.17,12.69.89.74-.23,1.53-.7,1.65-1.46.13-.82-7.75-5.1-10.76-6.36,3.74-2.73,10.21-2.02,14.32.11,12.7,6.57,21.66,18.48,29.93,30.14,4.77,6.72,9.46,13.49,13.95,20.4,2.14,3.29,3.27,5.72,4.06,9.57-13.94,3.63-27.32,4.65-43.45,6.26-2.73.27-1.77.29-2.51,0-.93-.37-15.58-18.35-16.36-18.49-1.02-.18-35.95,22.84-37.64,23.52-6.27,2.54-38.3.89-38.76.37-.39-.44.18-27.17.36-27.56Z"/><path class="cls-1" d="m263.39,356.64s33.17,1.77,40.32,2.02,70.21-7.14,70.21-7.14c0,0,38.24-8.25,38.32-5.51.08,2.74-4.1,2.32-4.96,12.14-.86,9.82-1.82,35.45,3.96,44.55,0,0-.64-.32-3.17,1.13-2.53,1.45-23.66,3.56-28.2,4.19s-51.38,5.78-61.26,7.43c-10.54,1.76-58.09,2.82-58.09,2.82,0,0,3.18-39.59,2.86-42.79s0-18.83,0-18.83Z"/><path class="cls-1" d="m332.89,290.16s5.11-2.18,7.21-1.44c2.1.75-4.12-2-4.12-2l-3.09,3.44Z"/><path class="cls-1" d="m246.91,199.53s3.82,2.26,3.6,2.74,0-2.74,0-2.74h-3.61Z"/><path class="cls-1" d="m251.99,193.47s3.05,2.01,3.09,2.99,3.18-3.01.52-3.08-3.62.1-3.62.1Z"/><path class="cls-1" d="m257.45,212.25c-6.46,10.94-13.53,8.14-17.03,4.05l1.9,4.22s4.65,3.99,7.47,2.39,5.45-5.15,5.45-5.15l2.21-5.52Z"/><path class="cls-1" d="m270.54,310.96s8.12,3.37,14.26-1.4c4.41-3.43-5.99,5.88-8.57,4.77-2.59-1.11-5.68-3.37-5.68-3.37Z"/><path class="cls-1" d="m314.69,283.1s-2.53-1.61-7.99.64c-5.07,2.09,9.37-5.14,9.31-1.86-.06,3.28-1.32,1.21-1.32,1.21Z"/><path class="cls-1" d="m316.7,291.31s-2.14-5.82-.36-10.25c1.14-2.84-3.16,8.53-3.1,10.58s3.45-.33,3.45-.33Z"/><path class="cls-1" d="m148.28,286.72c-1.63-2.03-2.92-4.32-3.83-6.72-.35-.87-.68-1.75-.93-2.65-.82-3.2-.99-6.47-.84-9.68.08-1.42.16-2.85.31-4.25.05-.91.22-1.8.39-2.69.09-.44.18-.89.36-1.31.18-.42.37-.83.56-1.26.25-.52.34-.41.52.11.11.34.23.71.35,1.06.06.22.15.45.19.69.02.24.01.48,0,.73l-.08,1.33c-.02.44-.13.88-.15,1.32-.07.88-.2,1.75-.24,2.63-.15,1.76-.15,3.51-.14,5.28.06,2.12.59,4.27,1.27,6.31.73,2.24,1.77,4.39,3.16,6.31.84,1.19,1.8,2.3,2.88,3.3,1.61,1.52,3.47,2.83,5.46,3.81,1.55.76,3.19,1.23,4.83,1.6.36.09.72.12,1.08.21,1.35.26,1.73.48,1.97,1.12.05.15.13.29.16.43.11.46-.55.82-1.69.81-3.32-.18-6.76-1.28-9.73-3.22-2.21-1.42-4.21-3.19-5.88-5.23l.04-.04Z"/><path class="cls-1" d="m160.87,251.68s6.14-.67,4.69,1.95c-1.06,1.92,4.69-4.66,4.69-4.66l-9.38,2.71Z"/><path class="cls-1" d="m216.01,219.33c.7.84,1.43,1.67,2.21,2.45.28.29.61.52.9.8,1.01.99,2,2.04,3.13,2.93.49.41,1.04.73,1.56,1.08.34.22.69.43,1.02.67.17.11.34.23.5.36.17.11.27.34.41.51.16.24.07.34-.26.47-.16.07-.39.16-.66.25-.25.07-.5.05-.74-.03-1.68-.55-3.07-1.63-4.32-2.85-.74-.74-1.65-1.33-2.41-2.07-.84-.81-1.63-1.67-2.4-2.54-.47-.54-.92-1.09-1.37-1.64-.69-.83-1.31-1.72-1.98-2.55-.51-.65-1.11-1.23-1.64-1.86-.12-.14-.25-.26-.34-.42-.35-.58-.34-.85,0-1.23.08-.09.15-.18.23-.26.28-.25.7-.19,1.1.12,1.18.92,2.01,2.13,2.97,3.26.69.85,1.38,1.72,2.12,2.54l-.04.04Z"/><path class="cls-1" d="m227.6,207.1c.51.18,2.06,4.17,2.06,4.17l1.84-2.56-3.9-1.61Z"/><path class="cls-1" d="m225.28,219.74s12.72,10.33,10.88,14c-1.84,3.67-13.2-6.32-13.2-6.32l2.32-7.68Z"/><path class="cls-1" d="m234.78,182.24s-2.3,1.57.8,3.14c1.06.54,3.51-.36,6.23,0,4.96.66,13.27,4.01,13.27,4.01l-13.27-8.95-5.58-7.35-1.46,9.16Z"/><path class="cls-1" d="m292.51,139.9s-.61,13.27-2.91,18.58c-2.31,5.31-8.84,19.64-12.79,22.97-3.95,3.33-6.26,5.6-6.26,5.6l1.87,2.88s10.91,4.01,17.19,2.62c6.28-1.39,20.34-9.45,21.65-10.61s-5.18-10.2-6.55-15.57c-1.37-5.37-1.31-25.96.25-29.64s-12.45,3.17-12.45,3.17Z"/><path class="cls-1" d="m293.71,139.61s12.31-5.14,16.58-9.49c6.41-6.54,10.73-36.01-14.4-41.55,0,0-12.55.19-18.98,5.69,0,0-6.36-15.4-17.94-17.54-11.17-2.07-25.49-1.06-33.76,4.04-14.31,8.83-17.25,16.54-30.15,31.94-12.9,15.41-21.9,26.94-25.42,30.2-3.52,3.26-7.65,8.65-7.65,8.65,0,0-1.04,5.8,5.02,13.7,6.06,7.91,22.91,16.73,31,18.28,8.09,1.55,23.48,2.33,29.48-1.34l3.05-14.71h3.27s-2.78-13.16-2.42-13.22-7.58.5-11.06-6.11c-3.49-6.62-.56-11.09,2.64-11.69,3.2-.59,6.92-1.18,9.07,2.14,2.15,3.32,3.89,8.29,5.77,7.43s4.89-5.58,6.59-9.31c1.7-3.72,8.58-17.81,14.52-18.5s19.76-5.5,19.76-5.5c0,0,4.61,1.9,7.04,6.27,2.42,4.37,5.86,11.25,5.92,15.49.06,4.24,2.09,5.12,2.09,5.12Z"/><path class="cls-1" d="m256.29,437.4s19.93-8.15,20.38-14.08c.42-5.46-16.14-5.06-16.14-5.06l-4.24,19.15Z"/><path class="cls-1" d="m125.73,416.98c-1.47.04-19.78,3.99-19.29,9.66,1.32,15.44,56.28,24.16,56.28,24.16,0,0-34.07-9.95-34.45-17.13-.27-5.14-2.54-16.69-2.54-16.69Z"/><path class="cls-1" d="m209.19,409.5c-7.65.89-15.34,1.29-23.03,1.21-2.81,0-5.61-.06-8.41-.2-9.87-.68-19.7-2.28-29.14-5.31-4.16-1.39-8.36-2.88-12.21-4.98-1.27-.6-2.47-1.36-3.68-2.09-.6-.38-1.23-.7-1.79-1.13l-1.71-1.26c-1.17-.81-2.17-1.82-3.19-2.8-1.06-.94-1.93-2.07-2.8-3.18-1.02-1.44-.68-1.38.66-.62.68.37,1.52.98,2.55,1.67,1.1.62,2.25,1.45,3.53,2.31,1.16.73,2.22,1.58,3.42,2.25,1.2.66,2.35,1.4,3.59,1.99,1.25.57,2.46,1.22,3.73,1.75,1.29.49,2.53,1.08,3.81,1.58,5.14,2.02,10.54,3.47,16.03,4.67,6.58,1.42,13.62,1.96,20.52,2.21,7.59.28,15.22.07,22.81-.64,4.66-.48,9.33-1.03,13.94-1.9,6.99-1.26,13.95-2.92,20.59-5.27,5.14-1.86,10-4.19,14.53-6.99,1.02-.59,1.91-1.32,2.9-1.95,3.53-2.53,4.59-3.35,5.91-3.34.3,0,.65-.06.88,0,.39.09.35.53-.1,1.28-.46.73-1.25,1.87-2.59,2.92-3.85,3.3-8.36,5.9-13.08,8.07-4.72,2.18-9.7,3.89-14.75,5.3-7.5,2.12-15.18,3.56-22.89,4.52l-.02-.08Z"/><path class="cls-1" d="m127.87,344.8c.67.41,1.36.82,2.1,1.15.27.13.56.17.83.3.94.48,1.93.93,2.95,1.28.45.18.92.3,1.38.41.59.15,1.18.35,1.75.67.18.1.12.27-.08.48-.2.2-.56.5-.93.58-1.33.31-2.62.15-3.83-.42-.72-.33-1.55-.39-2.31-.65-.83-.31-1.65-.67-2.45-1.09-.49-.24-.96-.53-1.44-.79-.71-.43-1.4-.9-2.09-1.34-.53-.35-1.16-.56-1.66-.95-.12-.08-.23-.15-.33-.25-.37-.37-.38-.61-.08-1.1.07-.11.13-.23.2-.33.25-.35.65-.49,1.04-.41.29.07.57.13.85.19.28.06.56.13.78.25.49.21.95.45,1.38.74.64.43,1.3.85,1.98,1.24l-.03.06Z"/><path class="cls-1" d="m255.38,349.39c-1.5.68-3.01,1.31-4.55,1.88-.55.22-1.09.47-1.66.65-2,.64-4.03,1.17-6.06,1.61-.9.2-1.8.4-2.69.62-.57.14-1.14.27-1.73.33-.58.08-1.2,0-1.79-.05-.39-.12-.34-.11-.08-.4.13-.15.32-.33.54-.55.11-.11.23-.22.37-.33.06-.06.14-.1.2-.17l.23-.1c.28-.1.55-.23.82-.34.27-.11.56-.17.84-.25l1.67-.47c1.11-.33,2.25-.54,3.4-.81,1.38-.28,2.7-.92,4.03-1.45,1.46-.58,2.91-1.21,4.32-1.92.87-.43,1.73-.87,2.58-1.35,1.28-.73,2.56-1.49,3.72-2.37.45-.35.87-.73,1.28-1.12.4-.4.78-.82,1.2-1.19.19-.16.35-.34.55-.49.72-.57,1.07-.62,1.62-.3.13.07.26.14.37.22.37.28.33.82-.07,1.44-.3.45-.6.91-.95,1.33-.38.39-.76.77-1.18,1.13-.83.71-1.72,1.39-2.65,2.01-1.37.93-2.82,1.75-4.3,2.51l-.03-.06Z"/><path class="cls-1" d="m200.95,395.39c2.01.14,4.32-.18,6.49-.66.8-.19,1.56-.49,2.35-.71.95-.29,1.9-.6,2.76-1,.45-.19.83-.41,1.22-.64l.47-.35c.14-.11.17-.21.31-.3.16-.21.19-1.11-.02-1.92-.28-1.21-.84-2.43-1.43-3.59-.7-1.54-1.53-3.04-1.86-4.83-.17-.52-.08-.49.31-.19.21.14.42.39.92.55.41.21.78.53,1.15.9,1.12,1.25,2.07,2.62,2.75,4.21.36.78.69,1.61.92,2.55.06.23.11.47.15.73.04.25.08.51.08.81.05.51-.12,1.36-.45,2-.24.37-.54.78-.82,1.01-1.1.95-2.13,1.43-3.18,1.97-1.05.53-2.11.94-3.19,1.29-2.38.72-4.81,1.16-7.33,1.32l-1.18.02c-.4,0-.81-.05-1.21-.07-.42-.06-.83-.13-1.26-.23l-.74-.26c-.25-.1-.48-.25-.68-.43-.3-.28-.53-.63-.71-.98-.17-.32-.27-.62-.37-.92-.19-.6-.31-1.19-.4-1.77-.19-1.16-.26-2.31-.3-3.45-.06-1.77-.14-3.52.12-5.34.06-.4.11-.8.22-1.2.21-.74.46-1.23.75-1.49.33-.26.65-.32,1.04-.27.18.02.36.03.5.08.25.09.39.31.48.62.08.3.15.7.06,1.13-.21,1.3-.28,2.73-.27,4.17,0,1.44.09,2.93.32,4.33.08.52.19,1.03.31,1.5.11.44.32.94.38,1.1,0,0,0,.02,0,.03,0,0,.01.02,0,0-.01,0-.03-.01.06.03.33.09.78.16,1.28.18v.08Z"/><path class="cls-1" d="m433.89,398.24c1.77-.2,3.53-.41,5.3-.64.65-.09,1.28-.24,1.92-.32,2.29-.24,4.59-.48,6.87-.71,1.02-.11,2.03-.28,3.04-.4.65-.09,1.3-.2,1.96-.25.66-.06,1.34-.07,2.01.08.42.09.35.5.02.98-.34.5-.88,1.01-1.59,1.17-1.25.22-2.52.5-3.8.73-1.29.18-2.59.35-3.92.44-1.59.11-3.18.58-4.78.88-1.76.32-3.53.59-5.31.88l-3.28.51c-1.65.27-3.33.48-4.97.8-1.28.24-2.5.68-3.78.98-.28.07-.55.17-.84.21-1.07.16-1.44-.1-1.73-.95-.06-.2-.15-.39-.19-.59-.14-.67.24-1.28.96-1.59,2.13-.83,4.43-1.18,6.78-1.55,1.76-.25,3.53-.5,5.29-.74l.02.08Z"/><path class="cls-1" d="m422.8,391.53c-1.43,0-2.86-.08-4.28-.17-.52-.04-1.04,0-1.55-.05-1.83-.19-3.63-.45-5.43-.72-.79-.16-1.6-.23-2.38-.33-1.02-.11-2.04-.2-3.02-.54-.31-.11-.22-.43.09-.75.31-.32.85-.66,1.43-.67,2.07,0,4.1-.03,6.14.39,1.22.21,2.51.12,3.76.12,1.38.03,2.76,0,4.15,0,.85-.02,1.71-.04,2.56-.1,1.29-.08,2.6-.16,3.87-.38.99-.17,1.93-.54,2.9-.78.21-.05.42-.14.63-.18.8-.15,1.09,0,1.38.72.07.16.15.32.19.49.17.55-.09,1.08-.66,1.36-.84.4-1.73.77-2.65.96-.92.2-1.87.33-2.83.43-1.42.15-2.86.2-4.3.24v-.07Z"/><path class="cls-1" d="m444.17,384.46c2.59-4.92,4.83-10.11,6.3-15.43.52-1.93.84-3.92.95-5.78.05-.81.03-1.62-.1-2.28-.04-.27-.13-.53-.38-.7-.11-.1-.27-.1-.39-.02-.12.07-.23.16-.35.26l-.09.08-.22.23-.43.48c-.29.33-.57.66-.85,1.01-2.23,2.8-4.28,5.86-6.32,8.89-1.78,2.73-3.58,5.47-5.35,8.18-2.27,3.48-4.58,7.03-7.66,9.95-1,.87-.97.63-.51-.41.44-1.07,1.22-2.96,2.41-5,2.17-3.61,4.35-7.22,6.52-10.84,2.22-3.62,4.51-7.21,7.09-10.72.78-1.05,1.56-2.11,2.44-3.17l.34-.4.42-.47c.37-.4.77-.79,1.2-1.1.43-.31.88-.53,1.35-.62.48-.12,1,.03,1.45.22.92.41,1.69,1.19,2.12,2.19.1.26.22.5.3.76.08.31.15.51.17.7.08.4.13.78.17,1.16.12,1.51,0,2.92-.21,4.28-.48,2.99-1.32,5.82-2.28,8.6-.97,2.77-2.1,5.47-3.33,8.11-1.53,3.25-3.22,6.42-5.16,9.46-1.48,2.3-3.08,4.54-5.09,6.54-1.02.98-2.12,1.95-3.65,2.53-.87.29-1.46.31-2.13.45l-1.97.35c-4.08.73-8.09,1.6-12.24,2.04-.91.1-1.81.22-2.73.27-3.43.17-4.52-.14-5.23-1.08-.16-.22-.37-.43-.46-.65-.3-.74,1.08-1.27,3.49-1.5,3.58-.34,7.19-.83,10.88-1.45,1.85-.32,3.72-.65,5.59-.97l2.84-.51.36-.06.18-.03c.05-.01.05-.01.08-.02.07,0,.18-.06.29-.09.24-.1.52-.26.81-.46.88-.62,1.79-1.55,2.64-2.56.85-1.01,1.66-2.11,2.43-3.25,1.53-2.29,2.94-4.72,4.22-7.21l.08.03Z"/><path class="cls-1" d="m347.96,335.73c.92,1.09,1.79,2.21,2.68,3.31.32.4.7.75,1.01,1.16,1.11,1.44,2.19,2.89,3.32,4.3.51.61,1.03,1.23,1.56,1.81.67.76,1.44,1.44,1.93,2.38.15.29-.07.45-.49.48-.43.04-1.11,0-1.56-.39-.81-.68-1.6-1.37-2.35-2.1-.72-.76-1.37-1.59-1.99-2.44-.74-1.03-1.71-1.9-2.57-2.85l-2.82-3.14c-.57-.65-1.16-1.28-1.75-1.91-.91-.94-1.81-1.9-2.8-2.74-.77-.65-1.65-1.15-2.49-1.69-.18-.12-.39-.21-.57-.34-.64-.51-.7-.83-.35-1.53.08-.16.15-.33.24-.48.31-.5.88-.66,1.48-.42,1.75.74,3.2,2.04,4.59,3.38,1.03,1,1.99,2.08,2.96,3.14l-.05.05Z"/><path class="cls-1" d="m272.19,313.22c-.73-.46-1.43-.95-2.12-1.46-.25-.19-.52-.33-.77-.52-.83-.72-1.62-1.5-2.31-2.36-.29-.41-.63-.76-.89-1.2-.4-.5-.62-1.22-.49-1.91.04-.21.29-.17.59-.04.32.14.65.28.84.47.5.73,1.14,1.51,1.9,2.34.44.51,1.09.82,1.69,1.18.65.4,1.32.8,2.01,1.14.42.22.86.42,1.3.61.67.28,1.34.56,2.05.7.55.09,1.12.02,1.64-.03.12-.01.23-.04.35-.04.41-.03.52.16.61.86.02.16.05.32.06.48.05.54-.16.98-.57,1.11-1.21.4-2.44.18-3.55-.2-.83-.28-1.62-.66-2.38-1.08l.02-.05Z"/><path class="cls-1" d="m294.31,307.26c-2.62,1.54-5.23,3.12-7.74,4.85-.92.63-1.8,1.31-2.7,1.97-3.23,2.25-6.4,4.6-9.5,7.04-1.36,1.11-2.7,2.26-3.97,3.45-1.63,1.53-3.28,3.04-5.23,4.24-.6.38-.68.16-.48-.49.1-.33.26-.77.48-1.28.11-.26.23-.53.38-.8.07-.14.16-.27.23-.42.1-.12.2-.24.31-.37,1.53-1.74,3.22-3.3,4.98-4.8,1.74-1.52,3.55-2.96,5.43-4.34,2.25-1.64,4.46-3.51,6.75-5.2,2.55-1.82,5.13-3.6,7.8-5.24,1.62-1.04,3.31-1.98,4.98-2.96,2.57-1.4,5.18-2.75,7.82-3.97.51-.24,1.01-.49,1.51-.75l1.52-.72,1.52-.73,1.56-.66c.46-.19.9-.4,1.37-.58,1.78-.56,2.41-.53,3,.19.13.16.29.3.38.47.31.54-.25,1.31-1.44,1.82-3.53,1.59-7.2,3.19-10.86,5-2.73,1.31-5.4,2.8-8.04,4.34l-.04-.06Z"/><path class="cls-1" d="m377.63,297.81c1.48,1.61,2.79,3.36,4.15,5.06.68.85,1.28,1.76,1.92,2.63.63.88,1.28,1.75,1.86,2.67.86,1.33,1.85,2.56,2.65,3.92,2.92,4.73,5.41,9.66,8.03,14.48,1.17,2.14,2.37,4.27,3.57,6.36,1.57,2.67,3.19,5.32,4.46,8.18.38.9.16.89-.56.38-.75-.5-2-1.5-3.1-2.93-1.88-2.58-3.57-5.28-5.25-7.98-1.6-2.75-3.13-5.53-4.63-8.34-1.78-3.38-4.03-6.62-6.14-9.87-2.34-3.55-4.85-6.98-7.57-10.23-.82-1.01-1.74-1.95-2.6-2.93-.86-.99-1.79-1.91-2.73-2.82l-2.12-2.08-2.24-1.97c-.75-.64-1.47-1.33-2.26-1.93-.79-.6-1.58-1.19-2.36-1.79-.61-.46-1.23-.9-1.86-1.34l-1.94-1.19c-1.3-.78-2.58-1.57-3.9-2.32-.59-.32-1.18-.61-1.76-.94-2.13-1.29-2.67-1.92-2.65-3,0-.25-.03-.51.02-.73.16-.74,1.34-.71,3.05.07,1.27.57,2.52,1.22,3.78,1.89,1.22.73,2.44,1.49,3.66,2.28.61.4,1.21.8,1.82,1.2l1.76,1.32c1.16.9,2.37,1.75,3.49,2.72l2.49,2.17,1.24,1.09,1.18,1.16,2.35,2.33c.77.79,1.49,1.63,2.24,2.44l-.06.06Z"/><path class="cls-1" d="m361.87,280.68c-3.17-2.86-6.88-5.37-10.72-7.4-1.41-.74-2.88-1.32-4.32-1.84-1.29-.46-2.52-.79-3.76-.81-1.26-.03-2.56.19-3.85.57-2.58.78-5.1,2.13-7.57,3.56-2.21,1.27-4.32,2.76-6.57,4.03-1.45.8-2.95,1.59-4.58,2.13-1.6.56-3.4.86-5.11.52-1.06-.25-.85-.36.01-.59.89-.24,2.24-1.02,3.8-1.76,2.79-1.37,5.35-3.37,8.23-5.07,2.84-1.75,5.75-3.62,9.13-4.82,2-.71,4.18-1.35,6.52-1.34,1.16,0,2.35.18,3.42.48,1.08.28,2.1.66,3.08,1.08,4.31,1.88,8.2,4.36,11.86,7.19,1.12.88,2.21,1.81,3.24,2.83.52.5,1.01,1.05,1.49,1.63.24.32.44.56.7.98.25.44.5.9.6,1.38.11.45.1.92-.07,1.35l-.16.31-.23.25c-.12.19-.35.28-.53.43-.56.29-1.18.53-1.82.58-.53.06-1.05.04-1.54-.02-.99-.13-1.9-.4-2.78-.73-1.74-.65-3.34-1.49-4.92-2.3-1.45-.75-2.89-1.48-4.33-2.08-.72-.3-1.44-.56-2.14-.75l-.52-.11-.59-.1c-.26-.05-.54-.14-.64-.16-.1-.02-.16-.03-.25-.01-.11.02-.34.09-.62.22-.27.12-.56.26-.86.41-2.25,1.14-3.12,1.4-3.94,1.08-.19-.07-.41-.12-.56-.21-.47-.31.22-1.25,1.84-2.42.6-.44,1.25-.82,1.96-1.2.37-.18.73-.37,1.24-.52.52-.17,1.3-.25,1.92-.06.34.09.39.1.51.13.05,0,.06,0,.15.02l.34.06c.46.08.87.19,1.28.32.81.25,1.55.55,2.27.87,2.86,1.28,5.46,2.84,8.07,3.9.88.36,1.75.64,2.54.78.39.06.76.09,1.08.07.22-.03.13,0,.15-.01h.01s.03,0,.03-.02v-.03s.02.03-.03-.05c-.06-.09-.13-.19-.21-.29-.61-.81-1.44-1.63-2.3-2.4l.04-.06Z"/><path class="cls-1" d="m322.83,289.45c1.13.29,2.33.44,3.54.4.44,0,.87-.1,1.31-.16,1.55-.17,3.1-.58,4.57-1.25.63-.34,1.27-.68,1.81-1.14.76-.51,1.39-1.18,2.24-1.61.31-.09.48.14.57.6.09.46,0,1.09-.39,1.52-.71.74-1.5,1.42-2.43,1.9-.89.53-1.87.92-2.88,1.2-1.2.32-2.41.76-3.68.94-1.39.17-2.79.16-4.17-.04-.4-.05-.8-.13-1.19-.23-.2-.05-.39-.09-.59-.15-.17-.05-.2-.07-.31-.11-.02-.02-.05-.01-.07,0l-1.54.57c-.58.21-1.15.42-1.71.65-.87.36-1.66.86-2.47,1.3-.18.09-.34.21-.52.29-.66.32-.89.26-1.33-.21-.1-.11-.22-.21-.31-.32-.33-.36-.21-.92.28-1.32,1.41-1.19,3.08-1.79,4.73-2.4l1.16-.41.56-.2,1.1-.45.68.27.45.14c.2.05.4.11.61.16v.06Z"/><path class="cls-1" d="m164.6,296.03s23.9,2.78,29.03.66c5.13-2.12-5.49-5.56-5.49-5.56l-23.54,4.9Z"/><path class="cls-1" d="m170.67,251.41c-.86.75-1.73,1.51-2.64,2.23-.32.27-.61.58-.96.83-1.21.89-2.49,1.7-3.88,2.32-.59.31-1.21.57-1.8.87-.4.15-.78.35-1.2.46-.43.07-.87.08-1.3.08-.27-.01-.28-.24-.14-.58.14-.33.4-.84.76-1.1.31-.27.67-.38,1.01-.56.34-.16.66-.38,1-.55.67-.38,1.34-.76,2.03-1.15.87-.42,1.56-1.17,2.3-1.82.82-.72,1.63-1.47,2.43-2.25.49-.48.98-.96,1.46-1.46.73-.75,1.51-1.48,2.19-2.28.54-.61.96-1.33,1.48-1.98.11-.14.21-.3.34-.43.25-.24.43-.37.64-.38.22.01.43.11.69.29.12.08.24.15.34.24.17.15.27.33.32.56.05.23.06.51-.06.72-.63,1.33-1.59,2.41-2.59,3.54-.73.84-1.55,1.63-2.39,2.42l-.05-.04Z"/><path class="cls-1" d="m228.63,215.69c-.53.91-1.06,1.84-1.55,2.8-.18.35-.29.73-.46,1.08-.64,1.24-1.2,2.51-1.77,3.8-.25.57-.43,1.17-.6,1.76-.23.76-.48,1.51-.88,2.22-.13.22-.34.14-.55-.13-.2-.27-.46-.74-.46-1.21.02-.42.03-.84.08-1.26.08-.4.18-.81.28-1.21.22-.8.47-1.59.87-2.33.46-.89.69-1.91,1.08-2.85.43-1.04.9-2.06,1.42-3.06.34-.61.66-1.22,1.01-1.82.52-.92,1.11-1.8,1.68-2.69.21-.36.42-.71.63-1.07.2-.37.41-.74.68-1.08.12-.15.22-.31.35-.45.54-.5.86-.47,1.34-.09.11.09.22.16.31.26.29.3.37.82.19,1.22-.15.28-.28.6-.42.89-.17.26-.33.55-.5.83-.36.57-.72,1.14-1.08,1.71-.53.88-1.09,1.77-1.58,2.71l-.06-.03Z"/><path class="cls-1" d="m239.49,210.54c-1.22.15-2.44.12-3.61-.03-.43-.05-.86-.05-1.27-.15-1.47-.35-2.82-.91-4.13-1.46-.59-.23-1.17-.46-1.74-.7-.36-.15-.74-.27-1.09-.46-.35-.2-.68-.43-1.01-.67-.2-.16-.12-.29.15-.44.27-.14.76-.38,1.25-.39.84.04,1.61.25,2.39.41.74.27,1.46.55,2.17.87.86.38,1.82.45,2.73.55,1,.14,2.01.2,3.01.1.63-.04,1.21-.16,1.88-.32.98-.23,1.96-.43,2.77-.86.63-.34,1.04-.87,1.28-1.39.06-.11.08-.25.13-.36.1-.21.19-.34.36-.39.2-.04.45-.02.79.04.16.03.31.04.46.07.25.06.45.18.6.38.15.2.3.5.2.79-.18.89-.75,1.81-1.51,2.42-.76.62-1.6,1-2.38,1.25-.58.2-1.15.33-1.7.45l-.81.17-.9.17v-.06Z"/><path class="cls-1" d="m250.47,204.81c-.67.58-1.45,1.03-2.24,1.26-.28.11-.56.23-.86.26-1.05.14-2.05.04-2.98-.14-.42-.05-.83-.14-1.23-.22-.52-.09-1.05-.15-1.47-.58-.13-.12-.06-.27.13-.47.1-.1.23-.22.37-.34.15-.14.3-.22.44-.2.49.04.97,0,1.44.04.46.01.92.12,1.38.18.56.11,1.11-.12,1.61-.27.55-.17,1.12-.37,1.57-.74.16-.1.29-.22.41-.35.14-.12.26-.26.36-.41.35-.43.6-.98.73-1.54.03-.23.02-.46,0-.68-.04-.23-.09-.46-.1-.67,0-.1-.04-.19-.04-.29-.02-.18.03-.3.17-.4.13-.09.3-.15.54-.21.11-.03.22-.06.33-.08.35-.07.7.08.95.41.53.98.45,2.17.01,3.27-.34.81-.82,1.59-1.49,2.21l-.04-.04Z"/><path class="cls-1" d="m254.66,199.95c-.96.48-1.96.7-2.89.73-.34.02-.66.09-.99.06-1.16-.09-2.21-.32-3.23-.58-.45-.13-.91-.2-1.35-.27-.57-.13-1.13-.29-1.69-.51-.18-.07-.15-.17,0-.32.16-.14.46-.43.82-.55.31-.1.62-.19.93-.27.3-.06.61-.06.9-.07.3,0,.59,0,.88.01.28.04.57.12.85.19.67.19,1.37.06,2.01,0,.71-.06,1.38-.16,2-.4.36-.15.75-.35,1.09-.62.5-.39.94-.86,1.08-1.41.1-.44-.08-.87-.28-1.25-.05-.09-.12-.16-.15-.24-.14-.32-.03-.47.65-.86l.44-.25c.48-.26,1.06-.28,1.35.09.43.53.7,1.27.71,2.09.01.81-.25,1.67-.69,2.35-.65,1.02-1.51,1.65-2.39,2.15l-.04-.05Z"/><path class="cls-1" d="m308.29,170.43c.82,2.26,1.76,4.48,2.79,6.68l.79,1.65.42.88c.24.5.47,1.01.63,1.51.07.25.11.49.12.73,0,.12-.05.23-.1.35l-.02.04c-.07-.01.09.02.08.02h0s0,.01,0,.01v.02s-.06.08-.06.08l-.1.15-.39.6c-.1.21-.39.37-.57.56l-1.75,1.51-2.24,1.72c-.77.54-1.56,1.04-2.36,1.54-2.87,1.65-5.92,2.94-9.07,3.88-3.16.91-6.44,1.38-9.71,1.45-2.91.12-5.84-.23-8.65-.85-.89-.26-1.8-.46-2.68-.75l-2.6-1.02c-1.63-.9-3.29-1.78-4.56-3.17-.82-.82-.59-.83.42-.63.5.11,1.25.17,2.01.43.78.23,1.71.41,2.61.79,1.61.63,3.24,1.22,4.93,1.56.83.24,1.69.33,2.54.45.43.05.85.14,1.28.19l1.29.1c3.45.27,6.97-.02,10.44-.74,4.17-.87,8.22-2.91,11.8-5.36.52-.31.96-.71,1.45-1.06.47-.37.97-.71,1.41-1.11l.67-.6.29-.23.13-.12s.1-.08.07-.14c-.03-.11-.08-.22-.13-.33l-1.47-3.08c-.53-1.14-1.04-2.3-1.53-3.47-1.2-2.87-2.22-5.82-3.05-8.83-1.26-4.55-1.96-9.28-2.07-13.98-.09-3.65.09-7.28.87-10.87.17-.79.34-1.56.57-2.34,1.06-2.83,1.77-3.58,2.62-3.88.2-.07.41-.18.57-.19.56-.05.44,1.2.02,3.24-1.37,5.98-1.95,12.28-1.15,18.66.57,4.72,1.78,9.41,3.5,13.94l-.07.04Z"/><path class="cls-1" d="m247.96,133.29c-1.3,2.33-2.44,4.76-3.64,7.25-.6,1.25-1.23,2.51-2.04,3.79-.41.63-.87,1.29-1.49,1.93-.15.16-.36.31-.55.46-.19.15-.38.3-.64.41-.24.1-.52.27-.81.33l-.89.14c-.43.04-.88-.03-1.29-.17-.41-.17-.79-.38-1.11-.63-.62-.49-.98-1.02-1.3-1.5-.63-.97-1.07-1.88-1.51-2.74-.77-1.52-1.57-2.89-2.65-3.84-1.06-.96-2.4-1.44-3.91-1.48-.75-.02-1.59.08-2.18.24-.31.11-.61.25-.9.41-.26.21-.56.37-.78.65-.96,1-1.57,2.51-1.72,4.08-.32,2.78.64,5.83,2.61,7.66,1.36,1.25,2.86,2.28,4.52,2.64.83.2,1.73.3,2.67.31.47-.02.95.02,1.44.04.49.04.98-.02,1.49.04.64.1.93.16.93.22,0,.07-.29.19-.75.55-.47.36-1.16.78-2.06,1.29-.91.43-2.08.75-3.47.71-1.22-.06-2.49-.43-3.61-.96-.57-.26-1.09-.58-1.59-.91-.48-.35-.93-.72-1.34-1.09-.42-.36-.87-.89-1.29-1.34-.35-.51-.75-1-1.04-1.55-.29-.54-.59-1.08-.78-1.66-.24-.56-.39-1.14-.53-1.73-.55-2.33-.46-4.78.34-7.12.44-1.15,1.03-2.31,2-3.25.92-.94,2.17-1.69,3.49-1.92l.59-.12.52-.05c.34-.04.7-.05,1.05-.05.71-.02,1.44.06,2.17.19,1.46.29,2.9.96,4.03,1.94,2.29,1.95,3.37,4.59,4.5,6.62.3.56.65,1.05.92,1.32.24.27.44.29.7.24.19-.07.66-.24,1.02-.69.39-.38.74-.92,1.07-1.46,1.31-2.25,2.4-4.84,3.63-7.32,1.51-3.08,3.21-6.12,5.29-8.9,3.11-4.25,7.24-7.8,11.89-10.23,3.61-1.87,7.43-3.21,11.39-3.97.87-.17,1.73-.33,2.62-.38.83-.06,1.51-.1,2.09-.11.57.01,1.04.05,1.42.12.77.14,1.21.35,1.56.67.16.14.37.28.46.42.31.44-1,.97-3.29,1.29-.84.16-1.69.32-2.54.48-.85.17-1.68.41-2.53.56-1.68.37-3.35.83-4.99,1.39-.83.24-1.61.63-2.43.92-.8.33-1.57.74-2.36,1.09-1.51.84-3.02,1.71-4.39,2.78-4.14,3.09-7.41,7.31-9.96,12.01l-.07-.03Z"/><path class="cls-1" d="m224.33,191.56c1.38-3.48,2.22-7.34,2.78-11.2.2-1.42.29-2.85.45-4.29l.44-3.82.24-1.92.35-2.5c.02-.24.1-.47.2-.65.1-.19.22-.36.41-.5.39-.28.85-.34,1.33-.33.94-.01,2,.4,2.69.96.63.5,1.1,1.09,1.49,1.69.4.6.7,1.24.96,1.88.91,2.27,1.34,4.63,1.41,7,.02,1.51-.04,3.07-.51,4.57-.23.75-.52,1.49-.94,2.17-.39.71-1.09,1.22-1.76,1.63-.92.43-.76.31-.43-.43.07-.2.13-.44.18-.71,0-.32.09-.57.07-.92.07-.62.2-1.26.35-1.96.52-2.5.57-5.29-.04-7.9-.3-1.3-.74-2.57-1.36-3.61-.31-.51-.67-.96-1.04-1.26-.13-.12-.16-.15-.24-.21-.07-.05-.16-.09-.26-.11-.06-.01-.13-.03-.18,0-.05.04-.06.09-.08.15-.04.16-.07.34-.11.53-.1.83-.2,1.77-.28,2.66-.16,1.81-.29,3.65-.48,5.48-.42,4.02-1.08,8.07-2.27,12-.75,2.43-1.76,4.77-2.96,7-1.84,3.37-4.2,6.4-6.6,9.26-1.84,2.23-3.65,4.43-5.48,6.64-.4.48-.81.94-1.24,1.41-.81.84-1.37,1.38-1.85,1.66-.53.25-.92.32-1.31.3-.18,0-.38.02-.51-.01-.23-.05-.25-.31-.13-.78.12-.47.33-1.18.85-1.88.75-1.05,1.45-2.16,2.29-3.17.82-1.02,1.67-2.03,2.51-3.03,1.71-2,3.39-4.04,5.03-6.06,2.41-3.02,4.57-6.21,5.96-9.76l.06.02Z"/><path class="cls-1" d="m265.32,189.91c1.01-.32,2.02-.74,2.75-1.21.66-.4.92-.82.93-1.54l2.09,1.34-.57.18c-.93.27-1.84.58-2.78.76-1.65.32-3.33.52-5,.61-1.69.02-3.37-.02-5.04-.27-.74-.06-1.48-.25-2.22-.35-.74-.13-1.46-.35-2.19-.52-.9-.36-1.84-.59-2.68-1.1l-.64-.36c-.19-.15-.39-.28-.56-.48-.18-.16-.33-.38-.46-.6-.14-.21-.3-.39-.45-.58-.35-.49-.28-.44.27-.37.28.03.66.08,1.19,0,.26-.04.47.02.72.03.13,0,.25.01.39,0,.11.04.22.07.33.12,3.09,1.33,6.53,1.72,10.11,1.76,2.15.06,4.39-.41,6.54-.93.69-.17,1.41-.35,2.04-.55l1.62-.51.1,1.62c.07,1.17-.36,2.52-1.22,3.35-.88.89-1.74,1.26-2.62,1.69-1.52.69-3.08,1.14-4.65,1.5-2.38.55-4.81.79-7.23.86-1.88.03-3.76.12-5.66-.21-.42-.05-.83-.15-1.25-.25-.77-.19-1.26-.44-1.53-.74-.27-.32-.33-.68-.33-1.06,0-.17-.03-.33-.02-.46.03-.21.22-.34.58-.51.37-.19.82-.26,1.3-.14,2.95.42,6.02.59,9.2.29,2.34-.22,4.72-.64,6.91-1.42l.03.07Z"/><path class="cls-1" d="m147.52,255.57c-1.07,2.95-2.09,5.94-2.69,8.99-.61,3.03-1.03,6.12-.81,9.11.22,2.96,1.06,5.86,2.55,8.4,1.47,2.55,3.62,4.69,6.11,6.36,1.8,1.25,3.84,2.17,5.94,2.87,2.1.72,4.3,1.19,6.52,1.44.98.16,1.97.17,2.95.24.99-.02,1.97.05,2.97-.05.99-.08,1.99-.11,2.98-.27.99-.13,1.99-.26,2.97-.48,3.95-.76,7.82-2.01,11.57-3.57,7.5-3.15,14.52-7.54,20.96-12.6,5.71-4.52,10.96-9.7,15.58-15.24,2.97-3.56,5.65-7.37,8.03-11.33.61-.98,1.15-2,1.71-3.01.57-1,1.12-2.01,1.64-3.04,1.06-2.05,1.85-4.19,2.82-6.3.67-1.31.97-1.9,1-1.85.04.05-.11.74-.05,2.04.03,2.57-.75,7.4-3.38,12.35-2.39,4.32-5.23,8.34-8.3,12.15-3.07,3.81-6.42,7.38-10.01,10.7-7.17,6.63-15.19,12.42-24.06,16.76-5.31,2.54-10.96,4.77-16.96,5.96-2.99.6-6.05.99-9.16.96-3.1-.03-6.19-.46-9.17-1.31-3.27-.93-6.44-2.35-9.21-4.41-2.78-2.03-5.14-4.71-6.7-7.81-1.58-3.09-2.35-6.55-2.4-9.95-.05-3.4.41-6.74,1.23-9.96,1.97-7.94,5.47-15.31,9.43-22.32,6.12-10.57,13.7-20.3,22.25-28.87,3.33-3.33,6.77-6.48,10.46-9.35,3.67-2.87,7.55-5.5,11.74-7.66.94-.45,1.83-.96,2.79-1.36.96-.39,1.92-.79,2.89-1.19,1.87-.58,3.41-1.11,4.77-1.32.67-.13,1.28-.24,1.83-.34.56-.04,1.07-.07,1.53-.09,1.82-.13,2.89.18,3.71.54.38.17.86.33,1.07.49.35.27-.26.52-1.6.75-.33.05-.71.11-1.13.16-.42.05-.88.18-1.39.27-.5.09-1.05.18-1.63.29-.58.13-1.19.31-1.84.46-7.72,2.01-14.94,6.41-21.53,11.63-1.67,1.28-3.26,2.7-4.87,4.08-1.55,1.46-3.14,2.88-4.64,4.42-1.54,1.49-2.98,3.09-4.45,4.65-1.42,1.62-2.86,3.21-4.21,4.89-8.1,9.88-15.2,20.85-19.76,32.74h-.08Z"/><path class="cls-1" d="m194.57,231.93c-2.71,2.33-5.49,4.6-8.33,6.79-1.04.8-2.02,1.67-3.08,2.43-3.73,2.72-7.7,5.14-11.81,7.29-1.83.95-3.68,1.87-5.59,2.65-2.42,1.02-5.1,1.77-7.79,1.47-.83-.1-.71-.17-.07-.56.38-.25.81-.53,1.27-.82.25-.18.53-.36.82-.54.14-.09.29-.16.44-.27.16-.05.31-.15.48-.21,4.58-2.02,9.07-4.33,13.63-6.91,2.72-1.54,5.29-3.58,7.85-5.51,2.83-2.13,5.6-4.34,8.32-6.63,1.68-1.41,3.32-2.85,4.95-4.32,2.45-2.23,4.9-4.5,7.19-6.87,1.78-1.84,3.4-3.77,5.06-5.68.36-.42.7-.85,1.12-1.23,1.51-1.44,2.13-1.77,2.87-1.7.17.02.36,0,.49.05.45.14.17,1.04-.65,2.37-1.17,2.03-2.72,3.78-4.25,5.62-1.54,1.82-3.23,3.55-4.94,5.26-2.55,2.54-5.22,4.98-7.91,7.39l-.06-.06Z"/><path class="cls-1" d="m247.51,221.31c.32.06.66.04,1.01.05.34-.06.75-.03,1.05-.14.32-.08.66-.15.97-.33.33-.12.63-.34.94-.55.24-.13.42-.37.62-.57.21-.19.4-.41.59-.64,1.43-1.53,2.54-3.57,3.43-5.68.41-.94.74-1.91,1.04-2.89.19-.63.34-1.27.56-1.9.23-.62.49-1.24.78-1.86.19-.38.4-.26.61.15.2.41.47,1.14.44,1.93-.33,2.72-.94,5.49-2.42,7.98-.86,1.48-1.6,3.15-2.87,4.54-.37.37-.7.75-1.14,1.06l-.63.48-.71.4c-.45.29-1,.42-1.51.6-.52.14-1.03.21-1.55.27-1.3.11-2.66-.15-3.83-.69-1.81-.82-3.06-2.25-4.24-3.54-.9-1.03-1.85-1.97-2.71-2.96-.19-.22-.4-.41-.57-.64-.64-.85-.63-1.25-.19-1.88.1-.15.19-.3.3-.43.37-.43,1.02-.38,1.72.12,1.94,1.55,3.3,3.57,4.81,5.06.56.52,1.12,1.02,1.7,1.35.59.31,1.17.57,1.82.61v.07Z"/><path class="cls-1" d="m122.32,379.9c-.31-7.69-.54-15.38-.7-23.07-.06-2.81-.19-5.61-.21-8.42-.06-9.9.12-19.8.58-29.69.2-4.39.39-8.81.78-13.16.21-2.8.51-5.6.99-8.39.2-1.39.54-2.78.82-4.16.17-.69.37-1.37.58-2.05.2-.68.42-1.35.71-2.01.81-1.6.68-1.37.66.16.02.39-.03.83-.04,1.35,0,.53,0,1.11,0,1.74-.07,1.25-.09,2.74-.28,4.3-.24,2.81-.43,5.62-.64,8.44-.16,2.83-.33,5.65-.49,8.48-.32,5.67-.56,11.37-.77,17.1-.26,6.86-.01,14.01.09,21.03.12,7.72.31,15.46.6,23.18.18,4.76.37,9.51.63,14.26.37,7.2.76,14.43,1.33,21.56.45,5.54,1.07,10.96,1.68,16.42.14,1.2.28,2.38.42,3.59.45,4.5.49,5.94-.1,6.98-.13.24-.26.54-.41.69-.52.5-1.1-1.3-1.6-4.59-1.49-9.75-2.47-20.1-3.27-30.5-.59-7.72-1.04-15.49-1.41-23.25h.07Z"/><path class="cls-1" d="m206.35,360.6c-2.59.16-5.18.25-7.77.32-.94.04-1.88.13-2.83.14-3.33.03-6.66-.12-9.97-.26-1.47-.03-2.95-.06-4.41-.09-.94-.03-1.88-.04-2.82-.09-.94-.1-1.87-.27-2.8-.51-.57-.25-.48-.46.04-.9.51-.43,1.44-1,2.51-1.17.95-.08,1.89-.11,2.84-.15.94-.03,1.89-.11,2.83-.05,1.89.05,3.78.14,5.69.27,2.29.16,4.66-.08,6.99-.15,2.57-.08,5.13-.19,7.7-.36,1.58-.11,3.16-.21,4.73-.38,2.39-.23,4.78-.48,7.13-.89,1.82-.34,3.57-.87,5.32-1.37.39-.11.76-.24,1.15-.34,1.45-.38,1.97-.21,2.47.57.11.18.25.35.33.53.28.59-.2,1.32-1.26,1.74-3.14,1.24-6.6,1.9-10.08,2.39-2.59.36-5.2.61-7.81.82v-.08Z"/><path class="cls-1" d="m275.67,260.76l-2.22-11.78c-.28-1.43-.65-2.83-.92-4.26-.99-5.02-2.07-10.02-3.45-14.92-.68-2.15-1.37-4.32-2.28-6.36-.29-.65-.52-1.34-.84-1.98l-.94-1.93c-.54-1.34-1.38-2.49-1.97-3.82-.38-.82-.14-.86.56-.42.35.23.85.55,1.36,1.03.51.47,1.12,1.05,1.53,1.8,1.67,2.57,2.99,5.34,3.99,8.19,1.09,2.83,1.89,5.74,2.53,8.7.77,3.53,1.8,7.13,2.59,10.71.87,3.94,1.67,7.89,2.45,11.84.48,2.43.97,4.85,1.49,7.27.8,3.66,1.6,7.33,2.61,10.9.41,1.38.85,2.74,1.31,4.08.5,1.33,1,2.65,1.5,3.98.21.59.47,1.14.7,1.73.84,2.17.9,2.93.3,3.7-.14.18-.26.39-.41.52-.52.45-1.34-.27-2.11-1.85-1.19-2.33-2.08-4.84-2.98-7.39-.81-2.57-1.59-5.19-2.23-7.84-1.01-3.93-1.82-7.91-2.66-11.86l.07-.02Z"/><path class="cls-1" d="m328.22,337.79c-2.13,1.11-4.26,2.28-6.33,3.54-.76.45-1.46,1-2.22,1.46-2.67,1.65-5.32,3.35-7.91,5.13-1.15.79-2.3,1.61-3.42,2.43l-2.16,1.58c-.75.5-1.53.94-2.33,1.36-.5.26-.57.03-.37-.49.21-.51.64-1.38,1.36-2.12,1.36-1.21,2.74-2.39,4.15-3.55,1.42-1.15,2.93-2.17,4.48-3.18,1.86-1.19,3.62-2.67,5.47-3.96,2.04-1.42,4.14-2.77,6.27-4.06,1.33-.77,2.67-1.53,4.03-2.24,2.05-1.12,4.2-2.06,6.3-3.05,1.65-.73,3.22-1.61,4.92-2.27.37-.14.73-.33,1.12-.42,1.46-.38,1.98-.26,2.46.53.11.18.24.36.32.54.27.64-.18,1.33-1.11,1.79l-1.04.49-1.04.52c-.7.33-1.43.57-2.14.91-.71.32-1.44.61-2.17.92-.73.32-1.45.65-2.18.97-2.15,1.01-4.33,2.04-6.44,3.23l-.04-.07Z"/><path class="cls-1" d="m354.84,356.09c-7.59.99-15.2,1.89-22.82,2.66-2.78.28-5.55.64-8.34.86-9.82.77-19.68,1.3-29.55,1.16-4.38-.02-8.78-.15-13.13-.36l-4.19-.29c-1.4-.13-2.79-.33-4.18-.51-1.39-.17-2.77-.48-4.15-.74-.34-.07-.69-.13-1.03-.22-.34-.1-.68-.21-1.01-.32l-2.01-.66c-1.67-.54-1.34-.82.2-1,1.54-.14,4.31-.53,7.41-.11,11.09,1.11,22.33,1.26,33.7,1.04,6.81-.09,13.87-.83,20.81-1.49,7.63-.73,15.26-1.61,22.88-2.6,4.69-.6,9.38-1.26,14.05-1.94,7.09-1.05,14.21-2.12,21.23-3.3,5.46-.92,10.78-2.01,16.2-2.9,1.2-.2,2.36-.41,3.58-.56,2.26-.29,3.77-.37,4.86-.24,1.07.1,1.72.39,2.2.83.22.2.51.39.62.59.36.67-1.37,1.1-4.55,1.66-4.75.74-9.67,1.68-14.67,2.56-5,.89-10.1,1.73-15.21,2.56-7.59,1.22-15.25,2.35-22.89,3.42l-.02-.08Z"/><path class="cls-1" d="m353.89,413.8c-7.8.89-15.61,1.72-23.42,2.52-2.85.29-5.69.66-8.54.92-10.06.9-20.13,1.64-30.22,2.19-4.48.24-8.98.49-13.43.64-2.86.06-5.74.1-8.62-.04-2.88-.16-5.8-.36-8.62-1.45-.43-.19-.72-.41-.89-.56-.17-.15-.22-.24-.18-.28.09-.11.54.04,1.31.02.76.02,1.81,0,3.08-.05,1.27-.06,2.75-.13,4.36-.08,11.47-.02,23.09-.8,34.78-1.5,7-.41,14.25-1.33,21.39-2.06,7.85-.81,15.7-1.66,23.54-2.58,4.83-.56,9.65-1.14,14.47-1.75,7.3-.93,14.64-1.86,21.86-2.95,5.61-.85,11.09-1.88,16.61-2.89,1.21-.23,2.4-.45,3.63-.68,4.55-.8,6.01-.83,7.13-.2.26.14.58.27.75.42.59.52-1.23,1.48-4.53,2.2-9.85,2.16-20.33,3.75-30.87,5.22-7.83,1.09-15.71,2.06-23.57,3.02l-.02-.07Z"/><path class="cls-1" d="m148.4,355.23c1.93.5,4.18.42,6.49.27,2.33-.16,4.76-.43,7.32-.27,1.86.12,3.84.46,5.6,1.43,1.63.9,2.84,2.29,3.7,3.69.87,1.4,1.5,2.84,2.14,4.21.63,1.37,1.26,2.7,2.06,3.85.81,1.12,1.82,2.15,2.99,2.97,2.08,1.48,4.59,2.35,7.12,2.77,1.63.26,3.3.29,4.96.17,1.66-.07,3.33-.3,4.98-.71,1.03-.24.98-.02.22.56-.38.3-.95.68-1.68,1.06-.36.21-.77.4-1.22.56-.45.17-.92.36-1.44.46-1.83.36-3.72.44-5.6.28-1.88-.16-3.77-.56-5.53-1.33-1.76-.75-3.44-1.78-4.87-3.11-.73-.66-1.37-1.4-1.96-2.21-.55-.81-1.02-1.64-1.42-2.47-.97-1.97-1.79-3.97-2.92-5.62-.56-.82-1.19-1.54-1.91-2.08-.17-.15-.36-.26-.56-.37-.18-.12-.38-.23-.61-.31-.43-.19-.86-.38-1.33-.49-2.01-.62-4.3-.54-6.62-.36-2.33.19-4.74.52-7.25.49-1.55-.04-3.14-.24-4.68-.75-1.54-.49-3-1.41-4.12-2.59-1.75-1.8-2.63-4.04-3.52-6.05-.87-2.06-1.77-3.95-3.13-5.54-2.11-2.51-4.92-4.24-7.9-5.27-.66-.22-1.32-.38-2-.55-2.51-.6-3.31-.87-3.86-1.67-.12-.18-.3-.37-.37-.54-.26-.56.92-1.12,3.15-1.04,6.55.45,13.22,4.95,16.17,11.5,1.09,2.27,1.87,4.46,3.01,6.04.56.79,1.2,1.43,1.98,1.9.39.23.79.46,1.25.61.23.08.44.19.67.26l.72.19v.08Z"/><path class="cls-1" d="m238.99,342.53c-.64.46-1.24,1.02-1.8,1.66-.28.32-.56.64-.75.94-.21.32-.43.67-.62,1.05-.79,1.52-1.41,3.28-2.01,5.03-.45,1.28-.8,2.61-1.27,3.92-.42,1.15-.85,2.36-1.44,3.5-.56,1.13-1.18,2.23-1.87,3.28-1.38,2.11-3.04,4.05-4.96,5.67-1.7,1.45-3.55,2.71-5.48,3.74-.62.33-1.25.64-1.89.94-.65.26-1.3.54-1.97.74-1.32.48-2.71.72-4.08.9-.86.11-.77-.03-.15-.48.38-.27.81-.58,1.27-.92.26-.19.54-.41.84-.6.31-.17.64-.36.98-.53.62-.29,1.22-.6,1.8-.94l1.78-.92c1.16-.65,2.29-1.34,3.34-2.14,2.13-1.55,3.96-3.45,5.61-5.56.96-1.28,1.8-2.71,2.45-4.25.67-1.46,1.11-3.12,1.63-4.76.56-1.81,1.15-3.64,1.86-5.45.37-.91.75-1.82,1.23-2.72.25-.45.51-.9.84-1.34.31-.44.65-.79.97-1.19.85-.92,1.82-1.76,2.92-2.42,1.1-.66,2.32-1.12,3.55-1.37,1.88-.39,3.74-.32,5.51-.24,1.78.08,3.52.2,5.2.06,2.63-.18,5.04-1.1,7.12-2.51.45-.34.89-.65,1.32-1.01,1.68-1.24,2.25-1.63,3.06-1.49.18.03.39.03.54.09.49.17.2,1.16-.95,2.46-.83.98-1.86,1.83-3,2.57-1.13.74-2.39,1.36-3.73,1.78-2.68.88-5.53.95-8.11.85-1.92-.06-3.74-.18-5.39.01-1.65.18-3.09.71-4.35,1.67l-.05-.05Z"/><path class="cls-1" d="m196.49,381.25c-.14-2.18.19-4.23.86-6.24.25-.73.5-1.48.94-2.17.73-1.19,1.9-2.42,3.56-2.84,1.58-.39,3.22.16,4.34.98,1,.76,1.78,1.67,2.45,2.62.86,1.21,1.44,2.64,1.38,4.19-.03.49-.24.41-.59.11-.23-.19-.47-.38-.68-.55-.14-.11-.29-.22-.42-.34-.07-.06-.13-.13-.21-.18l-.17-.21c-.18-.26-.4-.51-.59-.76l-.32-.35c-.08-.13-.18-.25-.28-.37-.37-.49-.78-.93-1.2-1.33-.21-.19-.42-.38-.64-.52-.2-.19-.41-.3-.62-.46-.42-.25-.83-.39-1.29-.47-1.12-.19-2.08,1.02-2.72,2.39-.75,1.51-1.18,3.32-1.29,5.1,0,.3-.02.61,0,.91l.02.42c0,.09.01.16.02.25.01.13.01.28.12.37.1.09.23.13.37.15.11.02.23.02.34.02.15,0,.39-.01.59-.03.42-.04.84-.1,1.27-.18.86-.15,1.72-.35,2.58-.58,1.33-.37,2.59-.9,3.94-1.3.3-.09.59-.19.91-.26.59-.12,1.01-.14,1.31-.03.31.14.48.35.6.67.05.14.12.28.13.42.03.23-.08.43-.25.62-.17.19-.42.4-.78.5-1.06.34-2.21.75-3.41,1.12-1.2.36-2.45.73-3.74,1.06-.85.21-1.71.4-2.71.5-.17.01-.72.06-1.1.01-.21-.01-.41-.03-.6-.08-.2-.03-.38-.1-.56-.17-.73-.28-1.26-.93-1.43-1.68l-.12-.68c-.05-.23-.05-.45-.07-.56h.06Z"/><path class="cls-1" d="m208.05,389.72c-.26.62-.49,1.07-1.2,1.63-.25.19-.73.44-1.23.34-.4-.07-.72-.3-.91-.55-.18-.24-.24-.45-.28-.62-.08-.36-.08-.7-.03-1.01.04-.28.08-.54.15-.79.09-.32.23-.67.56-.82.11-.05.27.14.43.36.16.22.36.46.36.55,0,.35.12.58.08.84,0,.04,0,.08.02.1,0,.02.03,0,0,.02-.08.06-.14.12-.19.17-.04.05-.07.09-.09.11v.02s-.01,0-.01,0h0s0,0,0,0l.05-.1h0s0,0,0,0h0s0,0,0,0c-.01.02-.02.04-.02.06-.02.08,0,.1-.02.04-.01-.04-.08-.18-.2-.3-.2-.18-.1-.1-.09-.14.05-.04.12-.13.17-.23.06-.09.12-.3.15-.46.02-.12.03-.22.03-.28,0-.03,0-.04,0-.05h0s0,0,0,0h0s0,0,0,0h0s.25-.27.25-.27h0s0,0,0,0c0-.02-.06.12-.04.22,0,.11.04.1-.04-.02-.04-.05-.09-.11-.14-.15-.11-.07-.13-.05-.11-.05.01,0,.05-.01.07-.03-.1.05-.28.16-.41.25-.24.16-.47.3-.72.25-.24-.02-.53-.32-.53-.79.03-.69.37-1.12.67-1.4.32-.27.68-.46,1.15-.5.45-.05,1.09.08,1.6.53.35.31.55.65.68,1,.32,1.04.05,1.57-.06,2.03h-.06Z"/><path class="cls-1" d="m171.63,138.41c4.37-4.08,8.48-8.39,12.16-13.05,1.82-2.32,3.55-4.79,5.33-7.24l5.32-7.36c2.61-3.57,5.18-7.18,7.98-10.64,4.92-6.08,10.26-11.97,16.6-16.79,3.17-2.39,6.57-4.54,10.24-6.13,3.66-1.61,7.57-2.68,11.54-3.15,3.52-.42,7.09-.38,10.59.04,3.49.43,6.97,1.12,10.29,2.39,4.25,1.59,8.26,4.3,11.06,7.97,1.41,1.82,2.51,3.83,3.47,5.86.93,2.05,1.74,4.12,2.33,6.26.57,2.73.52,2.34-.82.38-1.4-1.92-3.6-5.66-6.52-9.39-1.27-1.67-2.61-3.24-4.21-4.53-1.6-1.28-3.38-2.32-5.28-3.18-3.82-1.62-8.12-2.51-12.4-2.87-4.28-.32-8.59-.05-12.74,1-1.03.28-2.07.55-3.08.92-1.03.31-2.02.74-3.02,1.14-1.97.88-3.93,1.84-5.78,3.01-4.49,2.71-8.57,6.33-12.34,10.29-3.77,3.97-7.23,8.29-10.57,12.67-3.68,4.8-7.21,9.76-10.77,14.69-1.78,2.46-3.55,4.97-5.5,7.37-1.93,2.4-3.98,4.7-6.1,6.93-2.61,2.74-5.35,5.34-8.13,7.87l-4.15,3.78c-1.34,1.26-2.74,2.55-3.68,3.9-.16.25-.3.5-.36.7-.07.17-.06.31-.03.69.04.66.08,1.32.23,1.97.22,1.31.68,2.6,1.17,3.86,1.05,2.51,2.59,4.85,4.36,6.98,3.58,4.26,8.01,7.78,12.73,10.69,7.39,4.46,15.56,7.35,23.96,8.33.93.08,1.84.15,2.76.21.92,0,1.84.07,2.77.05.86-.03,1.65-.01,2.37-.07.72-.05,1.37-.09,1.97-.13,1.19-.12,2.15-.22,2.94-.3.8-.08,1.44-.11,1.98-.09.54-.02.98.01,1.4.08.38.06.87.09,1.11.19.41.16-.04.55-1.25,1.15-1.2.61-3.22,1.28-5.9,1.67-3.98.53-8.07.44-12.12-.13-4.05-.56-8.07-1.59-11.95-3.03-7.77-2.89-15.15-7.19-21.36-13.03-2.3-2.18-4.4-4.59-6.2-7.29-1.8-2.68-3.3-5.73-3.85-9.15-.1-.42-.11-.86-.14-1.29l-.05-.65-.02-.36c0-.15.02-.37.04-.54.02-.36.17-.78.28-1.07.12-.26.25-.56.39-.77.27-.46.55-.83.82-1.18,1.11-1.37,2.25-2.42,3.38-3.5,2.27-2.11,4.53-4.12,6.71-6.2l.06.05Z"/><path class="cls-1" d="m280.49,179.82c-1.97,2.33-4.24,4.43-6.76,6.17-1.26.87-2.59,1.65-3.96,2.32l-.51.26-.61.25c-.41.16-.8.26-1.2.37-.79.19-1.57.33-2.34.41-2.26.25-4.5.25-6.71-.06-7.77-1.03-15.12-5.12-19.85-11.31-2.12-2.71-3.84-5.74-5.06-8.91-1.51-4.07-2.69-8.37-2.35-12.72.29-1.37.16-1.16.72-.09.64,1.07,1.5,3,2.12,5.28.29,1.01.48,2.04.82,3.03l.46,1.49.55,1.46c.17.49.36.97.59,1.44l.6,1.43c.47.91.88,1.86,1.43,2.73,2.01,3.59,4.83,6.69,8.21,9.13,4.07,2.91,9.31,4.45,14.42,4.69,1.41.07,2.82.04,4.19-.15.68-.1,1.36-.22,1.98-.42.32-.08.6-.21.89-.32l.94-.48c2.52-1.29,4.85-2.97,6.92-4.94,2.57-2.41,4.68-5.29,6.49-8.35,2.69-4.67,4.63-9.82,5.89-15.06.96-4.08,1.44-8.18,1.71-12.31.04-.91.08-1.8.12-2.72.15-3.39.28-4.45,1.07-5.19.17-.17.34-.39.5-.49.53-.35,1.15,1.08,1.18,3.65.13,7.62-1.15,15.66-3.72,23.38-1.92,5.72-4.7,11.29-8.65,16.05l-.06-.04Z"/><path class="cls-1" d="m320.59,106.86c.59,3.38.7,6.91.05,10.34-.64,3.43-2.05,6.71-4.04,9.53-1.45,2.06-3.12,3.94-5.03,5.52-2.98,2.47-6.33,4.38-9.81,5.89-1.75.75-3.53,1.39-5.36,1.92-.46.13-.92.26-1.38.37l-.73.17c-.36.08-.71.17-1.07.24-.7.13-1.46.24-1.88-.03l-.15-.12-.08-.07s-.02-.03-.04-.04h0c-.2.2-.06.04-.1.09h0s0-.03,0-.03l-.12-.42-.24-.84-.08-1.95-.1-1.38c-.26-3.6-1.18-7.15-2.5-10.46-.87-2.12-1.92-4.16-3.17-6.08l-1.92-2.83c-.34-.45-.69-.91-1.06-1.35-.38-.43-.77-.84-1.13-1.29-.83-1.23-.73-1.12.58-.71.36.07.7.27,1.11.48.41.21.87.47,1.33.8.47.32,1,.67,1.49,1.11.25.22.51.44.77.67.22.27.44.54.66.82,2.31,3.08,4.1,6.54,5.17,10.22.58,1.82.97,3.7,1.28,5.59.11.95.28,1.89.32,2.85l.1,1.43v.16s0,.05,0,.05v.1s-.02.21-.02.21c-.1.24.12.19.32.19,1.1-.23,2.2-.52,3.3-.85,5.38-1.63,10.62-4.7,14.55-8.78,2.17-2.23,3.92-4.84,5.02-7.72,1.12-2.88,1.55-6,1.4-9.13-.08-1.92-.4-3.85-.85-5.74-.46-1.93-1.03-3.7-2-5.33-2.96-4.95-8.19-8.52-13.75-10.26-4.35-1.35-8.94-1.56-13.23-.64-.95.19-1.85.48-2.76.78-1.7.55-2.79.99-3.59,1.24-.82.23-1.37.25-1.93.12-.25-.06-.56-.07-.75-.16-.32-.14-.22-.52.25-1.13.23-.32.57-.66,1.03-1.01.44-.37,1.01-.73,1.67-1.08,3.95-2.13,8.68-2.85,13.29-2.5,4.62.36,9.21,1.77,13.3,4.15,3.04,1.75,5.82,4.08,7.98,7,1.08,1.46,1.98,3.07,2.63,4.81.34.9.56,1.71.79,2.54.21.84.4,1.68.56,2.54l-.07.02Z"/><path class="cls-1" d="m222.13,226.45c2.08,1.65,4.28,3.17,6.58,4.43.84.47,1.73.8,2.58,1.18,1.49.62,3.14,1.13,4.42.93.14-.05.31-.05.43-.11.09-.05.13-.02.21-.1.14-.12.19-.26.21-.51.05-.65-.13-1.47-.34-2.25-.43-1.4-1.14-2.76-1.95-4.02-.51-.82-1.12-1.58-1.68-2.37-.55-.81-1.1-1.61-1.66-2.43-.34-.52-.07-.67.56-.54.63.13,1.67.53,2.55,1.35.78.73,1.38,1.61,2,2.48.62.87,1.15,1.81,1.65,2.78.47.99.9,2.02,1.14,3.18.05.3.11.58.13.91l.03.48-.02.53c0,.19-.03.41-.1.64-.07.22-.1.45-.22.64-.12.19-.2.41-.36.56l-.48.45c-.22.13-.56.3-.73.38-.2.09-.41.12-.61.18-.41.13-.79.12-1.18.17-.75,0-1.48-.05-2.16-.18-1.37-.26-2.64-.69-3.84-1.22-2.62-1.18-4.99-2.72-7.25-4.38-1.39-1.02-2.73-2.11-4.03-3.23-1.97-1.7-3.82-3.55-5.57-5.45-1.34-1.49-2.7-2.95-3.83-4.64-.25-.37-.5-.73-.71-1.13-.41-.73-.59-1.27-.66-1.67-.04-.41.03-.68.19-.93.07-.11.13-.25.21-.33.27-.26.81.22,1.48,1.13,1.98,2.71,4.46,5.24,7.01,7.75,1.9,1.86,3.91,3.66,6.04,5.27l-.04.05Z"/><path class="cls-1" d="m314.17,281.6h-.03s-.09-.03-.09-.03c-.02,0-.04,0-.06,0l-.38.07c-.61.09-1.22.27-1.82.41-.61.14-1.22.33-1.83.52-.61.18-1.22.39-1.82.61-.93.32-1.82.76-2.74,1.11-3.26,1.28-6.49,2.74-9.79,4.08-1.46.59-2.93,1.21-4.41,1.76-.95.36-1.91.7-2.9.98-.5.13-1,.25-1.5.36-.51.09-1.04.06-1.55.09-.64.02-.58-.23-.12-.65.23-.21.56-.48.94-.76.39-.24.85-.51,1.38-.68,3.75-1.23,7.29-3.16,11.14-4.65,2.28-.92,4.55-2.17,6.9-3.16,1.29-.54,2.6-1.07,3.96-1.51.67-.24,1.35-.44,2.04-.62.35-.09.68-.2,1.04-.27l1.14-.23c.71-.17,1.4-.23,2.1-.32l1.01.16c.16.04.36.02.48.1.16.11.21.32.24.46.1.62-.1,1.42-.46,2.27l-.92,2.15c-.25.59-.49,1.17-.71,1.76-.44,1.18-.81,2.38-1.02,3.59-.34,1.88-.19,3.77.39,5.38.13.36.3.68.46,1.01.61,1.22.79,1.61.38,2.38-.09.17-.16.36-.26.52-.32.51-1.23.36-2.1-.75-1.27-1.65-1.87-3.85-1.87-5.93-.02-2.1.44-4.11,1.06-5.99.46-1.4,1.04-2.74,1.61-4.01.01,0,.04-.03.06-.06.04-.04.03-.07,0-.07l.06-.08Z"/><path class="cls-1" d="m351.96,285.66c.66.42,1.14.91,1.36,1.48.14.27.17.62.17.96-.04.34-.11.65-.29.92l-.12.21-.18.18-.37.36-.36.36-.5.28c-.33.16-.65.4-.99.5l-1,.29c-.26.09-.44.11-.62.13l-.55.09c-.37.07-.73.06-1.09.07-1.27-.03-2.49-.2-3.65-.57-1.17-.32-2.28-.77-3.36-1.26-.95-.46-1.89-.94-2.76-1.52-.57-.35-1.11-.76-1.61-1.21-.23-.25-.46-.5-.68-.76-.21-.26-.39-.56-.57-.84-.22-.35-.09-.37.28-.24.18.07.43.17.7.29.27.12.62.23.92.41,2.15,1.26,4.5,1.99,6.86,2.79,1.43.41,3.01.48,4.45.37.86-.1,1.37-.19,1.65-.31.16-.07.35-.16.49-.3.17-.14.16-.39.01-.51-.37-.33-.63-.46-1.86-.92-1.55-.57-3.15-1.17-4.74-1.85-1.22-.54-2.52-1.02-3.7-2.04-.26-.22-.52-.45-.74-.74-.41-.54-.53-1.01-.5-1.35.03-.34.25-.58.59-.78.16-.09.32-.19.48-.25.59-.19,1.11.09,1.5.44,1.09,1.06,2.93,1.99,5.04,2.85l2.43.96,1.28.51.44.18.5.22c.4.18.78.36,1.12.58l-.05.05Z"/><path class="cls-1" d="m404.08,369.27c.27-4.5.74-9,1.72-13.48.37-1.63.71-3.29,1.34-4.91.56-1.42,1.22-2.85,2.31-4.18.56-.66,1.27-1.25,2.2-1.66.58-.26,1.13-.33,1.71-.33.57.09,1.09.37,1.51.76.24.17.39.43.59.64.19.25.25.38.38.57.21.36.4.71.56,1.06.33.7.58,1.41.82,2.11.46,1.4.83,2.81,1.16,4.22.58,2.5,1.09,5.01,1.52,7.5.58,3.2.91,6.46.79,9.73-.07,1.03-.3.87-.59.03-.29-.84-.81-2.35-1.17-4.15-.67-3.19-1.25-6.39-2.04-9.54-.38-1.57-.8-3.14-1.27-4.67-.47-1.52-.98-3.06-1.64-4.36-.1-.18-.2-.39-.31-.54l-.21-.33c-.08-.11-.2-.24-.36-.24-.16.02-.24.02-.57.26-.27.21-.51.5-.78.81-1.02,1.31-1.7,3.18-2.26,5.02-1.2,4.11-1.77,8.52-2.13,12.92-.21,2.71-.33,5.44-.34,8.17-.01,4.13.11,8.29.58,12.36.38,3.16,1.03,6.23,1.82,9.22.18.66.39,1.29.58,1.94.73,2.4.9,3.09.41,3.95-.11.19-.19.42-.31.58-.39.54-1.48-.23-2.32-2.1-2.42-5.52-3.22-11.63-3.66-17.72-.31-4.53-.32-9.08-.13-13.63h.08Z"/><path class="cls-1" d="m232.99,443.31c3.42-.92,6.79-1.99,10.1-3.18,3.3-1.19,6.55-2.55,9.5-4.25,1.44-.85,2.87-1.82,3.8-2.85.12-.13.23-.25.31-.37.1-.12.18-.24.23-.35.07-.08.12-.25.18-.42l.17-.5c.13-.31.2-.79.31-1.17.1-.41.2-.81.27-1.25.65-3.42,1.02-7,1.37-10.55.5-5.2.77-10.44,1.1-15.67,1.14-18.45,1.72-36.96,1.89-55.46.06-8.21-.1-16.47-.37-24.6-.18-5.23-.45-10.46-.81-15.67-.18-2.61-.32-5.22-.55-7.81-.25-2.59-.41-5.2-.88-7.75-.63-3.14-.56-2.79.62-.22.25.65.55,1.45.88,2.38.28.93.64,1.98.98,3.15.62,2.33,1.19,5.1,1.59,8.12,1.13,10.73,1.59,21.46,1.69,32.2.12,10.75-.02,21.51-.43,32.31-.51,12.91-.78,26.36-1.67,39.57-.26,3.63-.52,7.26-.89,10.89-.37,3.64-.75,7.25-1.49,10.96-.11.47-.18.92-.33,1.42-.18.51-.28.99-.54,1.52-.56,1.09-1.29,1.85-2.02,2.54-1.5,1.33-3.1,2.36-4.73,3.28-3.28,1.83-6.69,3.26-10.14,4.54-8.53,3.06-17.34,5.09-26.21,6.56-13.45,2.17-27.21,2.82-40.71,1.82-10.48-.79-20.78-2.4-30.76-5.65-2.19-.72-4.34-1.45-6.49-2.35-4-1.65-6.5-3.06-8.18-4.15-1.66-1.13-2.49-1.99-3-2.92-.24-.42-.59-.9-.67-1.22-.14-.54.61-.5,2.07.02,1.46.51,3.64,1.49,6.42,2.72,16.58,7.28,35.76,10.4,54.95,10.13,14.26-.21,28.64-2.08,42.42-5.85l.04.09Z"/><path class="cls-1" d="m228.19,311.33c-10.39,2.01-20.92,3.05-31.46,3.25-3.85.09-7.69.09-11.52-.06-6.76-.29-13.51-.88-20.2-1.92-6.69-1.04-13.34-2.53-19.75-4.85-5.67-2.04-11.24-4.71-15.99-8.5-1.52-1.14-3.13-2.52-4.13-4.47-.49-.97-.79-2.12-.71-3.28.06-1.16.53-2.24,1.14-3.12,1.24-1.78,2.93-2.96,4.65-3.92.86-.48,1.77-.86,2.7-1.19.92-.32,1.85-.62,2.81-.79,1.2-.19,1.73-.18,1.71-.1-.02.09-.58.27-1.47.75-.89.48-2.13,1.18-3.48,2.18-1.34.96-2.9,2.14-4.07,3.58-.52.63-.89,1.31-1.09,1.95-.2.64-.2,1.24-.03,1.87.17.63.54,1.27,1.05,1.89.5.62,1.09,1.19,1.82,1.75,2.83,2.37,6.09,4.25,9.47,5.86,3.4,1.59,6.93,2.97,10.59,4.05.91.29,1.82.57,2.75.8l2.78.74c1.87.42,3.74.89,5.64,1.24,4.53.91,9.22,1.49,13.97,1.84,4.74.35,9.53.54,14.28.58,10.43.17,20.88-.59,31.19-2.22,6.34-1.03,12.64-2.36,18.77-4.23,4.62-1.42,9.22-3.11,13.35-5.47,1.02-.6,2.01-1.24,2.9-1.97.9-.71,1.69-1.53,2.2-2.4.26-.48.41-.77.37-1.13-.02-.3-.23-.8-.48-1.24-.53-.91-1.28-1.79-2.1-2.59-2.61-2.49-5.79-4.4-9.07-5.96-3.3-1.55-6.75-2.77-10.28-3.76-1.56-.43-3.09-.79-4.68-1.14-2.94-.66-4.9-1.06-6.25-1.46-1.35-.4-2.11-.82-2.7-1.39-.27-.26-.63-.53-.78-.76-.51-.75,2.1-1.2,6.66-.55,6.74.97,13.63,2.81,20.17,6.02,3.25,1.63,6.45,3.55,9.28,6.26.7.69,1.39,1.41,2.02,2.27.32.43.62.88.91,1.4.28.53.54,1.07.74,1.86.23.86.17,1.76-.09,2.59-.17.44-.29.72-.43,1.03l-.48.79c-.32.54-.7.91-1.06,1.36-.38.37-.75.77-1.14,1.1-2.32,1.99-4.78,3.31-7.28,4.49-2.5,1.17-5.04,2.13-7.6,3-5.12,1.73-10.33,3.01-15.57,4.08l-.03-.08Z"/><path class="cls-1" d="m250.48,265.89c.15,1.12.34,2.25.6,3.37.09.41.27.79.37,1.2.33,1.44.69,2.9,1.19,4.31.21.63.52,1.22.78,1.83.41.74.68,1.55.79,2.46.02.29-.13.33-.48.26-.35-.07-.95-.23-1.36-.58-1.29-1.34-1.88-3.07-2.35-4.82-.25-1.06-.78-2.06-1.09-3.12-.34-1.17-.62-2.35-.85-3.55-.14-.74-.26-1.47-.37-2.21-.19-1.12-.25-2.26-.38-3.37-.09-.87-.31-1.71-.42-2.59-.03-.19-.08-.38-.08-.58-.01-.72.17-.95.83-1.07.15-.03.3-.06.45-.08.51-.04.93.26,1.08.75.44,1.45.62,2.92.86,4.42.09.55.16,1.11.21,1.68.09.56.15,1.13.26,1.68l-.06.02Z"/><path class="cls-1" d="m268.67,140.13c.15,1.37.51,2.71.77,4.06.06.32.12.65.17.98,0,.05.03.25,0-.01,0,.07.02.14.02.21.02.19.04.38.05.57.02.3.02.6,0,.89,0,.08-.01.16-.02.24,0-.04.06-.27,0-.06-.04.14-.06.29-.1.43-.02.07-.05.14-.07.2-.06.16.16-.25,0-.03-.06.09-.12.19-.17.29-.13.24.13-.14.01-.02-.05.05-.1.1-.15.15-.04.04-.09.08-.13.11.25-.21.02-.03-.04,0-.07.04-.14.07-.21.11-.17.09.29-.08-.02,0-.14.04-.27.08-.41.12.01,0-.35.06-.18.04s-.2.02-.19.02c-.19.01-.38,0-.57,0-.25-.02-.07-.01-.01,0-.1-.02-.19-.04-.29-.06-.18-.04-.35-.1-.52-.16-.23-.08-.1-.03-.05-.01-.1-.04-.19-.09-.29-.14-.21-.11-.42-.23-.63-.36-.67-.43-1.25-.97-1.84-1.62-1.36-1.53-2.34-3.45-2.77-5.46-.14-.66-.91-1.04-1.54-.87-.68.19-1.02.88-.87,1.54.48,2.22,1.56,4.28,2.98,6.04,1.24,1.55,2.95,3.01,4.92,3.46,1.76.4,3.82-.01,4.91-1.56.92-1.31.83-3.03.62-4.53-.12-.84-.29-1.66-.47-2.49-.09-.41-.18-.82-.26-1.23-.04-.19-.07-.38-.1-.58-.01-.06-.02-.12-.03-.18-.04-.23.03.26-.01-.11-.07-.67-.52-1.25-1.25-1.25-.62,0-1.32.57-1.25,1.25h0Z"/><path class="cls-1" d="m283.68,140.47c.02.13.04.26.06.39,0,.06.03.25,0-.04,0,.05.01.1.02.15.03.28.07.56.09.85.05.52.08,1.03.1,1.55s.02,1,0,1.5c-.01.23-.03.46-.05.69-.01.12-.03.24-.04.36-.01.14.02-.11.02-.11-.01.09-.02.17-.04.26-.07.41-.16.82-.29,1.21-.03.08-.06.16-.09.24-.05.16.12-.24-.01.03-.08.16-.17.31-.26.47-.16.25.12-.11,0,0-.05.05-.09.11-.14.16-.03.03-.06.05-.09.08-.07.08-.12.03.01,0,.1-.03.11-.07.03-.03-.05.03-.1.07-.15.09s-.28.12-.06.04-.02,0-.07.02c-.04.01-.22.03-.24.05.01-.02.34-.02.14-.02-.05,0-.11,0-.16,0-.04,0-.29.02-.31-.02-.01-.02.29.06.15.02-.06-.02-.12-.02-.19-.04-.12-.03-.24-.06-.35-.1-.1-.03-.43-.16-.16-.05-.61-.27-1.18-.63-1.72-1.02s-1.39-.09-1.71.45c-.37.63-.1,1.31.45,1.71,1.77,1.28,4.4,2.39,6.21.54,1.47-1.51,1.64-3.98,1.63-5.97,0-1.39-.16-2.78-.37-4.15-.1-.67-.94-1.04-1.54-.87-.71.2-.98.87-.87,1.54h0Z"/><path class="cls-1" d="m255.08,165.68c.05,1.64.73,3.17,1.84,4.36s2.62,1.92,4.24,2.09c.65.07,1.28-.62,1.25-1.25-.03-.74-.55-1.18-1.25-1.25-.26-.03.28.05.04,0-.08-.02-.17-.03-.25-.05-.15-.03-.31-.07-.46-.12-.07-.02-.14-.05-.21-.07-.08-.03-.3-.14.03.02-.13-.06-.26-.12-.39-.19s-.25-.14-.38-.22c-.06-.04-.12-.08-.18-.12-.03-.02-.29-.21-.11-.08s-.04-.03-.07-.06c-.07-.06-.13-.11-.19-.17-.11-.1-.21-.2-.31-.31s-.19-.22-.29-.33c.24.26.07.09.02.02-.04-.06-.08-.12-.12-.18-.09-.13-.17-.27-.24-.41-.07-.13-.12-.31-.21-.42l.07.16s-.04-.09-.05-.14c-.03-.07-.05-.14-.07-.21-.05-.14-.09-.28-.12-.42s-.04-.29-.08-.43c.1.35.02.12,0,0,0-.09-.01-.17-.01-.26-.02-.65-.56-1.28-1.25-1.25s-1.27.55-1.25,1.25h0Z"/><path class="cls-1" d="m271.13,125.62c-3.27-5.18-10.85-2.27-14.45,1.01-1.31,1.19.64,3.13,1.94,1.94.15-.14.31-.27.47-.41.24-.2-.15.11.09-.06.1-.07.2-.14.3-.21.43-.3.88-.58,1.35-.83,1.06-.58,1.84-.92,3.02-1.23.62-.16.99-.23,1.46-.26.27-.02.55-.02.82-.01.13,0,.27.02.4.03-.24-.03.09.02.16.03.96.2,1.54.58,2.06,1.39.94,1.49,3.32.11,2.37-1.39h0Z"/><path class="cls-1" d="m281.06,151.81c.38,1.83.69,3.7.75,5.66.02.71.07,1.45-.06,2.2-.16,1.31-.86,2.82-2.04,3.69-1.18.88-2.56,1.13-3.8,1.18-1.12.05-2.21-.05-3.26-.22-.67-.12-1.35-.23-2-.42-.65-.2-1.27-.5-1.86-.83-.37-.22-.23-.43.2-.61.42-.17,1.15-.41,1.89-.38,1.28.19,2.54.35,3.74.36,1.2.06,2.35-.01,3.29-.39.57-.23.97-.71,1.24-1.26.24-.56.33-1.28.36-2.02.05-1.64-.23-3.41-.61-5.15-.24-1.07-.52-2.14-.84-3.21-.49-1.61-.97-3.24-1.59-4.8-.48-1.22-1.11-2.35-1.67-3.55-.12-.27-.27-.52-.37-.79-.38-1.04-.26-1.49.36-1.88.14-.09.28-.19.43-.25.51-.2,1.02.07,1.43.71,1.16,1.95,2.11,4.22,2.93,6.57.62,1.74,1.11,3.55,1.55,5.39l-.06.02Z"/><path class="cls-1" d="m427.37,114.38c-4.62-.39-6.87-4.53-5.72-7.54,1.45-3.8,5.58-4.29,8.01-3.89l-2.28-2s-4.81-.38-6.5,1.38-3.32,5.58-2.53,7.79c.79,2.21,3.3,4.7,3.3,4.7l5.71-.44Z"/><path class="cls-1" d="m400.07,85.16c-3.05-.29-6.02-2.34-7.1-5.27-.4-1.04-.66-2.14-.63-3.23.04-1.93.7-3.82,1.9-5.3,1.16-1.45,2.71-2.53,4.39-3.19,1.51-.56,3.13-.78,4.71-.65,1.01.1,2.03.3,2.96.73.92.43,1.84.95,2.44,1.79.39.5.11.63-.52.61-.31-.01-.72-.03-1.14-.1-.41-.1-.85-.18-1.28-.38-.78-.3-1.58-.49-2.4-.57-.82-.06-1.64,0-2.44.16-1.59.37-3.12,1.08-4.39,2.23-1.56,1.33-2.14,3.56-1.85,5.57.16,1.1.59,2.16,1.31,3,.71.83,1.69,1.5,2.78,1.85,1.34.46,2.85.47,4.28.13,1.08-.27,2.16-.7,3.08-1.32.89-.6,1.61-1.47,2.07-2.45.72-1.53.71-3.34.04-4.66-.12-.31-.35-.54-.52-.81-.76-.91-1.06-1.15-.98-1.9.02-.17,0-.35.04-.51.05-.27.26-.41.63-.41.18,0,.4.04.66.12.24.1.5.26.79.45.8.63,1.5,1.49,1.91,2.5.4,1,.56,2.09.51,3.17-.13,2.14-1.05,4.21-2.66,5.73-1.25,1.17-2.6,1.81-4.04,2.29-1.44.47-3,.65-4.54.5v-.06Z"/><path class="cls-1" d="m433.39,106.03c.74,2.8.02,5.81-1.82,7.93-.67.77-1.46,1.47-2.38,1.91-1.65.78-3.44.93-5.13.65-1.7-.33-3.28-1.16-4.44-2.38-1.02-1.09-1.78-2.42-2.15-3.84-.24-.9-.36-1.85-.29-2.78.02-.47.08-.93.21-1.37.06-.22.1-.45.19-.66.09-.21.21-.41.31-.62.28-.5.52-.31.77.23.27.56.52,1.4.5,2.24-.14,3.08,1.7,5.74,4.44,6.84.82.31,1.78.37,2.71.23.92-.14,1.76-.52,2.49-1.04,1.62-1.13,2.58-3.23,2.46-5.31-.06-1.27-.52-2.53-1.36-3.5-1.23-1.49-3.33-2.31-5.31-2.34-1.49.03-2.87.88-3.61,1.98l-.21.38c-.05.13-.11.26-.17.39-.35.98-.44,1.29-1.12,1.58-.15.06-.3.16-.45.21-.26.08-.49,0-.68-.3-.19-.29-.32-.79-.23-1.44.23-1.94,1.64-3.71,3.46-4.57.91-.45,1.92-.71,2.96-.73.26,0,.52.02.78.03.24.02.46.06.69.09.46.05.92.18,1.37.29,1.36.38,2.69,1.09,3.78,2.11,1.1,1.01,1.88,2.36,2.3,3.76l-.06.02Z"/><path class="cls-1" d="m386.34,111.03c-1.11-.74-2.09-1.73-2.76-2.93-.34-.59-.58-1.25-.75-1.92-.14-.68-.2-1.37-.15-2.05.07-.99.27-1.96.7-2.82.76-1.52,1.99-2.75,3.45-3.53,1.46-.74,3.05-1.12,4.66-1,1.42.1,2.82.55,3.98,1.38,1.48,1.02,2.65,2.71,2.66,4.51,0,.56-.31.5-.79.18-.24-.16-.54-.38-.81-.62-.25-.26-.53-.52-.72-.85-.76-1.12-1.87-1.9-3.15-2.21-.63-.17-1.3-.21-1.98-.19-.68.02-1.38.13-2.07.37-1.64.49-2.9,2.03-3.38,3.65-.59,1.79-.06,3.78,1.38,5.15.87.84,2,1.47,3.21,1.76,1.85.5,3.84.2,5.28-1.04,1.13-.92,1.81-2.3,1.84-3.54.03-.28-.05-.53-.06-.79-.18-.94-.29-1.23.16-1.82.1-.13.18-.29.28-.41.18-.2.42-.25.72-.11.15.07.32.19.49.35.15.18.3.41.45.69.38.84.53,1.83.44,2.78-.12.95-.44,1.85-.91,2.67-.95,1.61-2.45,2.87-4.27,3.52-1.4.49-2.84.55-4.17.32-1.35-.21-2.63-.71-3.77-1.44l.03-.05Z"/><path class="cls-6" d="m397.71,107.33c-1.31,2.91-4.73,4.2-7.64,2.89-5.02-2.27-4.07-10.44,1.59-10.92,4.34-.36,7.91,3.92,6.05,8.03Z"/><path class="cls-1" d="m394.32,107.9c.54-.55,1.01-1.31,1.31-2.07.11-.28.13-.57.18-.86.1-.51.15-1.04.12-1.59-.04-.55-.18-1.11-.41-1.64-.2-.47-.5-.92-.82-1.33-.21-.27-.45-.51-.68-.76-.24-.24-.47-.5-.66-.83-.12-.21-.06-.25.2-.28.19-.02.39-.04.54-.05.22,0,.42.07.62.18.68.41,1.32.92,1.86,1.55.5.66.89,1.44,1.06,2.28.21.99.45,2.06.28,3.11-.2,1.15-.63,2.16-1.21,3.1-.37.58-.81,1.11-1.31,1.59-.78.71-1.76,1.2-2.77,1.5-.78.23-1.59.44-2.43.46-.18,0-.36.01-.55,0-.67-.09-.83-.35-.74-1.04.02-.16.03-.32.07-.47.12-.52.48-.89.85-.94,1.13-.19,1.97-.31,2.76-.67.58-.27,1.14-.7,1.66-1.27l.05.03Z"/><path class="cls-5" d="m406.69,78.56c-1.07,3.42-4.97,5.38-8.37,4.28-3.5-1.13-5.41-4.89-4.28-8.38s4.89-5.41,8.38-4.28c3.33,1.08,5.26,4.9,4.31,8.24-.01.05-.03.1-.04.14Z"/><path class="cls-1" d="m396.46,73.98c-.21.45-.35.96-.47,1.49-.12.53-.19,1.14-.2,1.57.02.35.11.68.2,1.02.3,1.22,1.15,2.43,2.31,3.3.5.41,1.09.7,1.69.94.79.27,1.55.48,2.37.92.26.17.23.21-.02.43-.25.26-.76.63-1.36.66-.26,0-.52.03-.78-.02-.25-.04-.49-.12-.74-.19-.49-.15-.97-.33-1.42-.57-.93-.44-1.71-1.17-2.36-1.98-.74-.98-1.55-2.06-1.86-3.37-.15-.7-.16-1.5-.07-2.13.07-.64.19-1.3.38-1.95.23-.8.57-1.58,1.04-2.29.73-1.07,1.77-1.87,2.83-2.47.82-.47,1.64-.95,2.51-1.28.19-.07.38-.17.57-.23.74-.19,1.01-.08,1.26.49.06.13.13.26.17.39.14.45-.08.89-.53,1.12-1.35.68-2.71,1.19-3.75,1.97-.77.57-1.35,1.27-1.71,2.19l-.05-.02Z"/><path class="cls-1" d="m415.39,95.71l1.51,2.85.77,1.43.19.36.11.2c.06.1.11.21.16.32l.57,1.25c.53,1.17.99,2.32.23,2.88-.3.21-.48.46-1.15.51l-.83.13c-.28.04-.6.03-.9.05l-.9.04c-.14,0-.31-.02-.42-.01h-.27s-1.06-.02-1.06-.02c-1.41-.03-2.81-.09-4.2-.15-1.24-.05-2.48-.04-3.7-.03-1.57.03-3.14.09-4.71-.24-.49-.1-.43-.47-.01-.9.41-.43,1.17-1.02,2.08-1.09,1.6-.19,3.2-.18,4.8-.2,1.59,0,3.18.03,4.78.1.48.02.96.02,1.44,0l.96-.05.48-.04.24-.02c.12.01.03-.13.03-.18-.05-.15-.12-.31-.19-.48-.04-.08-.08-.18-.12-.27l-.37-.69-1.58-2.86-1.93-3.54c-.98-1.79-1.88-3.63-2.84-5.42-.74-1.4-1.63-2.7-2.36-4.13-.16-.32-.34-.62-.47-.95-.48-1.24-.35-1.75.36-2.25.16-.11.32-.25.49-.33.57-.29,1.22.05,1.74.79,1.51,2.23,2.75,4.72,4.11,7.24,1,1.87,2,3.78,3.06,5.66l-.07.04Z"/><path class="cls-1" d="m69.05,139.58c4.09-2.2,8.23.06,8.9,3.2.85,3.97-2.34,6.64-4.6,7.63l3,.43s4.24-2.3,4.7-4.69c.45-2.39-.26-6.49-2.13-7.91-1.87-1.42-5.33-2.14-5.33-2.14l-4.55,3.48Z"/><path class="cls-1" d="m108.14,165.99c-.2,1.29-.76,2.55-1.58,3.58-.82,1.03-1.98,1.84-3.22,2.23-.9.3-1.83.48-2.76.42-1.63-.12-3.19-.75-4.41-1.81-1.17-1.05-2.02-2.4-2.47-3.85-.36-1.3-.47-2.69-.19-4.01.33-1.67,1.38-3.41,3.03-4.02.51-.18.56.13.44.68-.06.28-.14.62-.25.95-.13.31-.25.65-.46.93-.33.53-.57,1.1-.7,1.71-.11.61-.12,1.24-.04,1.87.2,1.25.67,2.5,1.5,3.56.98,1.3,2.76,1.81,4.36,1.65,1.79-.13,3.35-1.31,4.02-3.04.4-1.05.5-2.26.27-3.43-.17-.89-.5-1.76-.96-2.55-.42-.73-1.11-1.3-1.9-1.65-1.23-.57-2.7-.47-3.83-.02-.25.11-.47.24-.68.38-.78.5-.96.66-1.68.48-.16-.04-.33-.05-.48-.1-.26-.08-.4-.27-.4-.61-.01-.34.17-.79.57-1.25,1.24-1.32,3.11-1.9,4.87-1.8,1.78.06,3.62.81,4.95,2.29.26.26.45.58.67.88.17.29.33.56.46.85.29.57.5,1.19.68,1.8.33,1.25.45,2.57.25,3.89h-.06Z"/><path class="cls-1" d="m68.55,149.86c-2.15-1.95-3.19-4.86-2.8-7.64.15-1.01.42-2.02.96-2.9.96-1.55,2.37-2.66,3.95-3.34,1.6-.65,3.38-.82,5.02-.42,1.45.36,2.81,1.06,3.89,2.04.7.63,1.31,1.35,1.76,2.17.23.4.43.82.57,1.26.07.22.17.43.2.66.04.23.05.46.08.69.04.57-.27.54-.78.22-.54-.32-1.19-.89-1.64-1.61-1.56-2.66-4.55-3.88-7.45-3.31-.86.19-1.7.66-2.39,1.28-.7.62-1.2,1.4-1.52,2.23-.74,1.83-.4,4.12.83,5.79.74,1.04,1.81,1.84,3.04,2.19,1.84.58,4.05.12,5.73-.93,1.24-.84,1.92-2.3,1.95-3.63l-.03-.43c-.03-.14-.05-.28-.07-.42-.24-1.01-.33-1.32.08-1.93.09-.14.17-.3.27-.42.17-.21.41-.26.73-.12.32.14.7.49.98,1.08.86,1.75.64,4.01-.4,5.72-.52.87-1.22,1.64-2.08,2.23-.21.15-.45.27-.67.4-.22.11-.42.2-.63.3-.41.21-.87.34-1.31.5-1.34.42-2.85.55-4.32.29-1.47-.24-2.86-.95-3.98-1.9l.04-.05Z"/><path class="cls-1" d="m104.4,123.67c1.33.02,2.69.31,3.91.95.61.31,1.16.73,1.68,1.2.49.49.92,1.04,1.25,1.63.48.86.84,1.79.95,2.75.19,1.69-.17,3.39-.97,4.84-.82,1.41-1.94,2.6-3.36,3.38-1.24.69-2.67,1.07-4.09,1.01-1.8-.04-3.7-.83-4.69-2.33-.3-.47-.01-.59.56-.58.29,0,.66.02,1.02.08.35.08.73.15,1.07.32,1.25.52,2.61.58,3.85.13.63-.2,1.21-.53,1.77-.92.56-.39,1.09-.86,1.53-1.44,1.11-1.3,1.32-3.28.84-4.9-.48-1.83-2.01-3.2-3.97-3.56-1.19-.23-2.48-.15-3.65.27-1.82.59-3.32,1.93-3.86,3.75-.44,1.38-.26,2.91.39,3.98.13.25.33.42.48.63.66.69.91.87.86,1.61,0,.16,0,.34-.02.5-.04.27-.21.44-.55.49-.17.02-.37.02-.61-.03-.22-.07-.48-.18-.75-.33-.78-.5-1.44-1.24-1.88-2.1-.42-.86-.64-1.8-.69-2.73-.08-1.87.49-3.74,1.67-5.28.9-1.17,2.08-2.01,3.32-2.54,1.25-.56,2.59-.83,3.95-.85v.06Z"/><path class="cls-1" d="m96.89,132.97c-.49-3.15,1.68-6.1,4.83-6.59,5.45-.84,9.11,6.53,4.62,10.02-3.44,2.67-8.76,1.03-9.45-3.43Z"/><path class="cls-1" d="m99.42,130.65c-.15.75-.13,1.65.03,2.45.06.29.21.55.31.82.19.48.44.95.76,1.4.33.44.76.83,1.24,1.15.43.29.92.5,1.41.66.32.11.65.18.98.27.34.07.67.16,1.01.34.21.11.18.18-.02.35-.15.12-.3.24-.43.34-.18.12-.39.17-.61.18-.79.02-1.61-.05-2.41-.29-.78-.28-1.53-.72-2.13-1.33-.72-.71-1.5-1.48-1.92-2.45-.46-1.07-.65-2.15-.68-3.26,0-.68.08-1.37.23-2.05.27-1.02.82-1.97,1.5-2.77.53-.62,1.09-1.23,1.78-1.71.15-.09.3-.21.46-.29.61-.29.88-.16,1.19.47.07.14.15.29.2.43.18.51.08,1-.2,1.25-.85.78-1.48,1.33-1.95,2.06-.34.54-.58,1.21-.7,1.97h-.06Z"/><path class="cls-4" d="m97.16,165.65c-.91-2.82.59-5.95,3.19-6.76,2.67-.83,5.56.86,6.46,3.76s-.53,5.93-3.2,6.76c-2.54.79-5.47-.93-6.42-3.65-.01-.04-.03-.08-.04-.12Z"/><path class="cls-1" d="m104.74,166.79c.22-.41.43-.84.56-1.31.15-.47.24-.95.26-1.38,0-.33-.07-.66-.13-.99-.19-1.19-.88-2.35-1.85-3.25-.44-.39-.93-.74-1.47-.97-.7-.29-1.39-.55-2.12-.99-.22-.17-.19-.21.06-.37.25-.19.73-.49,1.26-.46,1.85.15,3.62,1.28,4.61,2.92.6.95,1.21,1.99,1.39,3.18.11.64.08,1.32-.03,1.94-.1.61-.28,1.2-.51,1.77-.29.7-.67,1.37-1.15,1.97-.74.9-1.77,1.58-2.88,1.93-.86.27-1.76.43-2.66.4-.2-.02-.39-.01-.59-.04-.72-.13-.9-.36-.87-.9,0-.12,0-.25.03-.37.08-.4.44-.65.88-.64.66,0,1.27,0,1.84-.1.57-.08,1.09-.23,1.56-.5.7-.39,1.32-1.04,1.76-1.86l.04.02Z"/><path class="cls-1" d="m84.52,151.86l-2.12-1.96-.86-.8c-.3-.3-.6-.59-.83-.9-.24-.31-.39-.63-.49-.94-.1-.28-.17-.7.04-.94l.3-.61c.05-.1.08-.2.16-.3l.37-.29c.49-.38,1-.77,1.51-1.11l.26-.18.2-.13.4-.25.8-.49,1.61-.95,3.22-1.84c.95-.54,1.86-1.14,2.76-1.74,1.14-.78,2.27-1.59,3.61-2.07.42-.15.57.19.5.75-.07.56-.31,1.42-.94,1.91-1.08.93-2.28,1.69-3.45,2.47-1.18.77-2.39,1.5-3.62,2.19-.74.41-1.44.9-2.12,1.43l-1.01.8-.25.2c-.1.09-.08.06-.13.09-.05.05-.11.09-.18.13l-.45.3c-.08.07.02.15.05.22.05.07.1.13.16.2l.18.21.1.11.24.22,1.06.95,2.66,2.35c1.36,1.18,2.68,2.42,4.04,3.58,1.06.91,2.23,1.67,3.31,2.57.24.2.49.38.71.59.82.82.86,1.29.41,2.01-.1.17-.2.34-.31.49-.4.5-1.1.51-1.82.1-2.1-1.25-3.92-2.91-5.85-4.56-1.43-1.25-2.86-2.5-4.29-3.74l.05-.06Z"/><path class="cls-1" d="m70.29,322.89l-.83-.05-.37-.02-.06-.02c-.08-.03-.22-.07-.34-.08-.02.06-.04.15-.04.25,0,.08,0,.1.05.24.06.27.13.54.19.81.37,1.94.85,3.92,1.29,5.92.2.89.48,1.76.68,2.65.27,1.13.6,2.29.46,3.51-.04.38-.33.36-.73.11-.39-.25-.97-.69-1.17-1.29-.37-1.07-.86-2.12-1.17-3.23-.32-1.11-.62-2.24-.85-3.42-.24-1.41-.79-2.81-1.1-4.28l-.17-.85c-.06-.33-.11-.66-.16-.99l-.27-1.94,3.57.05,2.95.12c1.49.05,2.98.15,4.46.15,1.15,0,2.28-.16,3.42-.24.25-.02.5-.06.75-.06.47,0,.78.04.99.19.21.19.32.43.4.77.04.16.09.31.11.46.03.25-.05.47-.23.68-.18.21-.45.43-.79.47-2.02.39-4.14.4-6.27.34-1.58-.06-3.17-.12-4.75-.18v-.07Z"/><path class="cls-1" d="m64.63,340.98c.4-1.45,1.24-2.76,2.32-3.72.38-.37.77-.72,1.23-.99,1.61-.96,3.55-1.14,5.3-.79.39.07.77.22,1.16.31.37.15.75.29,1.09.5.42.29.9.52,1.19.97.32.4.59.83.61,1.39.01.34-.16.37-.61.39-.22,0-.56.06-.81.03-.26-.02-.51-.04-.71-.1-.34-.13-.61-.27-.89-.39-.12-.08-.29-.1-.42-.16-.14-.06-.26-.15-.41-.18-.56-.24-1.22-.33-1.94-.41-.88-.06-1.74.39-2.47.88-.83.53-1.53,1.29-1.95,2.22-.15.28-.24.58-.32.89-.1.33-.15.58-.14.89.01.93.34,1.97.91,2.82.45.66,1.09,1.13,1.72,1.48.13.09.29.12.42.19.51.22.57.47.57,1.03,0,.13.01.26,0,.38-.01.4-.42.71-1.1.64-1.95-.41-3.43-1.96-4.27-3.7-.32-.66-.55-1.37-.68-2.16-.06-.39-.09-.81-.06-1.26.02-.45.12-.77.19-1.16h.06Z"/><path class="cls-5" d="m94.72,325.75c-1.14,3.48-4.41,6.24-8.83,4.79-5.1-1.67-6.76-8.26-2.8-11.97,2.11-1.98,5.1-3.09,7.9-1.78,3.81,1.78,4.95,5.24,3.73,8.96Z"/><path class="cls-1" d="m81.54,322.55c.14-.4.29-.79.49-1.15.18-.38.38-.73.61-1.06.2-.34.47-.68.75-1.01.28-.31.57-.61.87-.87.44-.39.85-.79,1.33-1.11,1.72-1.03,3.67-1.7,5.7-1.64.89.07,1.8.08,2.65.42.28.08.54.21.79.35.25.14.52.26.73.46.22.19.41.4.58.63.15.24.3.49.43.73.16.31-.04.4-.44.43-.41.03-1.05.07-1.58.06-.81-.25-1.53-.26-2.26-.36-.76-.06-1.55.04-2.44.09-1.07.1-2.05.78-2.92,1.41-1.01.7-1.72,1.56-2.27,2.69-.32.67-.56,1.39-.63,2.13-.15,1.12.01,2.31.54,3.34.41.81,1.09,1.41,1.76,1.94l.46.33c.52.47.57.8.42,1.37-.03.13-.05.26-.09.38-.12.37-.62.55-1.34.4-2.02-.66-3.56-2.62-4.24-4.82-.48-1.65-.49-3.5.06-5.12l.07.02Z"/><path class="cls-1" d="m94.03,333.16c-3.12,1.56-6.79,1.32-9.61-.31-.53-.28-1-.66-1.49-.98-.46-.38-.88-.81-1.28-1.25-1.34-1.66-1.98-3.76-2.01-5.73-.11-1.97.41-4.01,1.51-5.64.96-1.46,2.32-2.6,3.8-3.37.97-.46,1.98-.87,3.04-.99,1.06-.09,2.12-.04,3.13.21.63.14.5.35-.03.63-.54.26-1.46.72-2.41,1.1-.84.37-1.68.55-2.41,1.02-.73.43-1.38.95-1.93,1.54-.55.59-.95,1.29-1.29,2.01-.35.72-.59,1.51-.67,2.36-.09.5.01,1.03.02,1.55.01.26.12.5.18.75.08.24.11.51.24.73.25.45.43.93.78,1.31.17.19.28.42.48.59.19.17.37.34.55.52.86.71,1.88,1.26,3,1.54,1.12.26,2.3.3,3.43.05,1.38-.33,2.63-1.12,3.53-2.26,1.42-1.69,2.01-4.18,1.42-6.37-.23-.85-.64-1.63-1.16-2.29-.55-.65-1.2-1.17-1.91-1.57-.33-.15-.64-.31-.98-.41-.31-.13-.56-.22-.79-.29-.22-.09-.38-.23-.53-.32-.29-.2-.46-.45-.59-.81-.06-.16-.15-.32-.19-.48-.06-.26.08-.47.41-.64.33-.16.88-.33,1.58-.26,2.05.23,4.11,1.46,5.46,3.26.69.9,1.18,1.93,1.53,3.01.33,1.09.45,2.24.43,3.38-.07,1.7-.57,3.39-1.45,4.88-.89,1.46-2.14,2.85-3.75,3.62l-.04-.07Z"/><path class="cls-1" d="m75.07,349.42c-2.48,1.17-5.29.8-7.42-.41-.8-.43-1.55-.96-2.18-1.63-1.08-1.2-1.81-2.77-1.89-4.37-.14-1.56.21-3.15.98-4.51.7-1.18,1.71-2.23,2.93-2.81,1.54-.8,3.34-.99,4.88-.47.49.15.36.45-.06.82-.21.19-.5.39-.81.61-.31.22-.65.47-1,.55-.64.14-1.19.41-1.69.69-.23.17-.47.31-.67.5-.23.14-.42.34-.62.52-.74.78-1.27,1.84-1.39,3.08-.17,1.52.61,2.98,1.81,3.99,1.28,1.14,3.16,1.77,4.87,1.43,1.02-.2,2.09-.8,2.88-1.56,1.22-1.15,1.76-2.97,1.22-4.61-.37-1.29-1.33-2.29-2.39-3.03-.25-.15-.47-.31-.73-.45-.43-.31-.69-.57-.87-.79-.17-.24-.21-.5-.21-.84,0-.15-.02-.31,0-.44.04-.42.69-.66,1.71-.4.35.13.75.22,1.09.42.33.21.67.42,1,.65.31.26.62.53.92.81.28.31.55.63.81.97.99,1.39,1.57,3.21,1.41,5.07-.12,1.38-.68,2.73-1.51,3.82-.85,1.08-1.93,1.83-3.05,2.43l-.03-.06Z"/><path class="cls-1" d="m329.8,87.17c.18.27-.12.52-.68.8-.18.09-.73.14-.82.06-.17-.15-.34-.31-.47-.47-.09-.09-.54-1.77-.67-2.36-.15-.57-.17-1.14-.17-1.71.02-1.16.07-2.34.29-3.48.04-.26.12-.51.24-.74.4-.81.63-1.66.85-2.52.04-.14.1-.28.04-.45-.15-.3.75-2.56.99-2.8.54-.6,1.02-1.22,1.56-1.79.07-.08.1-.21.28-.21.42,0,.51-.22.67-.4.22-.24.46-.47.76-.65.15-.09.39-.11.59-.15.18-.04.47.27.48.34.03.19.26.22.4.32.05.03.12.07.15.11.05.08-.09,2.01-.13,2.17,0,.03-.26.58-.52,1.16-.24.59-.48,1.2-.5,1.34-.03.14-.16.23-.27.34-.08.04-.55,1.89-.56,1.96-.18.35-.18.76-.57,1.05-.08.06-.09.14-.11.22-.15.66-.42,1.29-.62,1.95-.11.33-.12.69-.19,1.03-.01.06-.07.12-.1.18-.04.08-.08.15-.09.23-.1.82-.35,1.64-.28,2.48,0,.19-.31,1.11-.26,1.34.01.12-.37.56-.29.67Z"/><path class="cls-1" d="m338.84,96.09c-.07.23-.36.12-.81-.16-.14-.09-.46-.46-.46-.55,0-.18.01-.36.05-.52,0-.1.81-1.11,1.13-1.44.28-.34.63-.59.99-.82.74-.44,1.51-.88,2.33-1.2.18-.07.37-.12.57-.12.68-.02,1.31-.17,1.95-.36.11-.03.22-.03.31-.16.08-.11.57-.25,1.08-.3.51-.04,1.03-.02,1.15.03.58.23,1.15.41,1.7.66.08.03.17,0,.22.15.12.34.29.32.46.38.23.07.45.19.65.34.1.08.16.28.23.45.06.15-.13.6-.18.64-.14.12-.12.36-.17.55-.02.07-.04.15-.06.2-.07.1-1.34.63-1.44.62-.01-.01-.42,0-.84,0-.42.04-.86.08-.95.12-.09.03-.18-.04-.28-.09-.05-.03-1.28.26-1.32.26-.27-.03-.5.11-.81-.11-.06-.04-.11-.02-.16-.01-.44.11-.91.1-1.38.16-.24.03-.45.14-.68.2-.04.01-.1,0-.14,0-.06,0-.12,0-.17.01-.52.22-1.1.34-1.55.7-.11.07-.78.19-.89.31-.06.05-.51-.05-.53.04Z"/><path class="cls-1" d="m133.13,382.89c.11.31,0,.59-.25.86-.08.08-.33.1-.38.02-.09-.17-.18-.34-.25-.52-.04-.11-.39-1.86-.51-2.46-.12-.58-.19-1.16-.25-1.74-.12-1.19-.24-2.38-.32-3.57-.02-.26-.02-.53,0-.8.05-.91.01-1.82-.05-2.73-.01-.15,0-.31-.07-.45-.11-.24-.18-2.71-.09-3.03.13-.79.23-1.58.35-2.37.02-.11,0-.23.07-.33.17-.23.15-.48.17-.72.03-.34.1-.68.18-1.01.04-.17.13-.33.21-.49.07-.15.26-.05.28,0,.06.16.16.04.24.03.03,0,.07,0,.09,0,.02,0,.12.5.23,1.02.12.52.18,1.05.19,1.16,0,.03.02.74.04,1.49.03.75.07,1.53.09,1.69.02.17-.02.33-.04.5-.02.08.08,2.33.08,2.42-.02.47.04.93-.09,1.4-.03.09-.02.19-.01.28.03.8,0,1.6-.01,2.41,0,.41.03.82.04,1.23,0,.07-.01.15-.02.22,0,.09-.02.19-.01.28.06.97.05,1.94.17,2.91.02.22-.02,1.3.02,1.55.02.14-.12.63-.07.76Z"/><path class="cls-1" d="m140.09,385.1c.03.21-.05.38-.16.54-.04.05-.14.05-.17-.01-.05-.13-.09-.26-.12-.35-.02-.07-.23-1.21-.33-1.6-.09-.37-.17-.75-.19-1.13l-.22-2.3c-.02-.17-.02-.34,0-.51.04-.59,0-1.17-.08-1.75-.01-.1-.01-.2-.07-.29-.1-.15-.17-1.74-.14-1.94.07-.51.11-1.02.17-1.54,0-.07-.02-.15.04-.22.14-.16.11-.32.11-.47,0-.22.02-.44.06-.66.02-.11.1-.22.16-.33.06-.1.28-.05.3-.02.07.1.17.01.26,0,.03,0,.07,0,.09,0,.06,0,.46,1.25.46,1.39,0,.03.17,1.83.19,2.07.02.11-.01.22-.03.33,0,.05.15,1.52.13,1.58-.02.3.02.61-.09.92-.02.06-.02.12-.02.18.01.52-.03,1.05-.06,1.57-.01.27,0,.53,0,.8,0,.05-.02.1-.02.15,0,.06-.02.12-.02.18,0,.63-.03,1.27-.04,1.9,0,.15-.12.85-.11,1.01,0,.09-.11.41-.09.49Z"/><path class="cls-1" d="m149.17,388.42c.07.26-.04.48-.24.68-.06.07-.26.07-.3,0-.07-.14-.14-.28-.2-.42-.03-.09-.32-1.49-.45-1.96-.12-.46-.21-.92-.29-1.38-.15-.94-.37-1.88-.48-2.83-.03-.21-.04-.43-.03-.64.03-.74-.03-1.47-.11-2.22-.01-.12-.01-.25-.08-.37-.12-.19-.21-2.22-.14-2.48.12-.65.21-1.3.34-1.94.02-.09,0-.19.08-.27.19-.18.17-.38.2-.58.04-.27.08-.55.19-.81.05-.13.17-.25.27-.38.09-.11.35-.02.37.03.07.13.21.04.32.04.04,0,.09,0,.12,0,.08.03.43,1.6.4,1.76,0,.01,0,.16-.01.38,0,.22,0,.51,0,.81,0,.59.03,1.21.03,1.34.01.13-.03.26-.06.4-.02.06.12,1.84.13,1.91-.01.37.06.74-.06,1.11-.02.07-.01.15,0,.22.06.64.05,1.28.06,1.93,0,.33.03.66.04.99,0,.06-.01.12-.02.18,0,.08-.02.15-.02.23.05.79.02,1.58.09,2.37.02.18-.08,1.06-.05,1.27.01.12-.13.51-.1.61Z"/><path class="cls-1" d="m246,385.07c.05.2-.1.36-.34.5-.08.05-.3.03-.34-.02-.07-.11-.13-.22-.19-.34-.03-.07-.23-1.17-.33-1.54-.09-.36-.14-.72-.17-1.08v-2.18c-.01-.16,0-.32.04-.48.12-.55.12-1.1.09-1.65,0-.09,0-.19-.06-.27-.09-.15-.14-1.63-.11-1.82.1-.48.15-.96.22-1.44,0-.07-.02-.14.05-.21.17-.15.13-.3.13-.45,0-.21.03-.41.07-.62.02-.1.12-.21.19-.32.07-.1.33-.07.36-.04.09.09.2,0,.31-.01.04,0,.08-.01.11-.01.07,0,.62,1.18.61,1.32,0,.03.19,1.76.22,2,.02.1-.02.21-.05.32,0,.07.11,1.47.11,1.52-.02.29.03.59-.12.88-.03.06-.02.12-.02.17,0,.5-.06,1-.12,1.5-.03.25-.02.51-.03.76,0,.05-.03.09-.04.14-.01.06-.04.11-.04.17,0,.6-.14,1.2-.16,1.8,0,.14-.22.79-.22.95,0,.09-.21.38-.18.46Z"/><path class="cls-1" d="m253.54,381.6c.05.23-.08.43-.28.6-.06.06-.26.05-.29-.02-.06-.13-.11-.26-.16-.4-.03-.18-.2-1.38-.27-1.83-.07-.43-.11-.86-.13-1.28l-.16-2.59c0-.19.02-.38.05-.57.11-.64.11-1.29.04-1.93-.01-.11,0-.22-.07-.32-.1-.17-.25-1.88-.25-2.1.05-.56.11-1.13.13-1.7,0-.08-.03-.16.03-.25.15-.19.09-.36.08-.54-.02-.24-.04-.49-.02-.73,0-.12.08-.26.13-.39.05-.12.3-.11.33-.08.1.09.19-.02.29-.05.03-.01.08-.02.1-.02.06,0,.79,1.33.81,1.49,0,.02.13.55.27,1.1.15.56.21,1.15.24,1.27.02.13-.01.26-.03.39,0,.06.2,1.76.18,1.83-.02.35.04.71-.11,1.05-.03.07-.02.14-.02.21,0,.6-.05,1.2-.15,1.79-.05.3-.06.6-.09.91,0,.05-.03.11-.05.16-.02.07-.04.14-.05.2-.06.71-.19,1.42-.21,2.13-.01.16-.19.94-.19,1.13,0,.11-.17.45-.15.54Z"/></svg>