<svg xmlns="http://www.w3.org/2000/svg" width="520" height="520" viewBox="0 0 520 520"><defs><style>.cls-1{fill:#0056FF;}</style></defs><title>Notioly New</title><g id="_149.Doctor" data-name="149.Doctor"><path class="cls-1" d="M270.41,379.82l-3.45-.68c-.42-.08-.84-.1-1.26-.19-1.45-.3-2.9-.64-4.35-.89a12.93,12.93,0,0,0-2-.16h-1.25a5.33,5.33,0,0,1-1.24-.24c-.26-.08-.23-.45,0-.84a2,2,0,0,1,1.15-1,19,19,0,0,1,5.25.55c1,.27,2.12.32,3.16.5l3.44.6c.71.11,1.41.23,2.11.31a21.34,21.34,0,0,0,3.19.19,11.8,11.8,0,0,0,2.37-.44l.51-.15a1.12,1.12,0,0,1,.72.12,1.78,1.78,0,0,1,.42.52c0,.09.11.18.15.26a.54.54,0,0,1-.05.47,1.22,1.22,0,0,1-.49.6,2.93,2.93,0,0,1-1.14.48,7.11,7.11,0,0,1-1.2.25,15.72,15.72,0,0,1-2.47.12,30.6,30.6,0,0,1-3.62-.36Z"/><path class="cls-1" d="M236.82,381.58a19.58,19.58,0,0,1-4.26.83c-.52,0-1,.11-1.56.11a28.78,28.78,0,0,1-5.38-.63c-.77-.14-1.55-.25-2.3-.31a13.17,13.17,0,0,0-2.61,0c-.22,0-.47-.27-.38-.74a1.54,1.54,0,0,1,1.35-1.15,11.57,11.57,0,0,1,3.24.25c1,.17,2,.39,2.94.58a13.48,13.48,0,0,0,3.59.1,18.34,18.34,0,0,0,3.88-.61,17,17,0,0,0,2.29-.84l.85-.38c.3-.15.61-.29.92-.42a18.39,18.39,0,0,1,1.89-.66,20.47,20.47,0,0,1,3-.72c.23,0,.45-.08.68-.09a1.48,1.48,0,0,1,.9.23.91.91,0,0,1,.36.53c0,.1.07.19.09.26s-.31.62-.86.81a33.11,33.11,0,0,0-4.79,1.29l-.85.35-.92.42a17.18,17.18,0,0,1-2,.82Z"/><path class="cls-1" d="M307.78,110.37a11.8,11.8,0,0,1-1.95,2.76c-.3.28-.59.58-.9.84a8.5,8.5,0,0,1-4,1.61l-.94.1c-.31,0-.63,0-.94,0a8.56,8.56,0,0,1-2.36-.32c-.47-.13.28-.6,1.13-.48a10.55,10.55,0,0,0,4.51-.33,5.82,5.82,0,0,0,2.33-1.51l.55-.54.47-.61a10.61,10.61,0,0,0,.85-1.32,15.66,15.66,0,0,0,.77-1.78,13.52,13.52,0,0,0,.74-2.86,15.61,15.61,0,0,0,.1-2.26v-.5c0-.62.1-.82.33-1a1.19,1.19,0,0,1,.15-.09c.16-.07.31.18.41.66a10.58,10.58,0,0,1-.15,4.4,14.7,14.7,0,0,1-1.11,3.21Z"/><path class="cls-1" d="M266.31,122.27a16,16,0,0,1-4.82-2.4,16.7,16.7,0,0,1-1.51-1.25,17.14,17.14,0,0,1-3.77-5.64,24.15,24.15,0,0,1-1-2.8,16.91,16.91,0,0,1-.8-3.72c-.08-.78.79.11,1.09,1.48a25.8,25.8,0,0,0,2.73,6.94,13.07,13.07,0,0,0,3,3.41,14.51,14.51,0,0,0,4.35,2.46,15.75,15.75,0,0,0,3,.7,14.19,14.19,0,0,0,4.69-.21,9.8,9.8,0,0,0,3.21-1.42l.59-.45c.71-.58.88-.77,1.28-.76a2.62,2.62,0,0,1,.28,0c.13,0,.19.15.16.37a1.89,1.89,0,0,1-.42.87,7.18,7.18,0,0,1-3,2.17,11.86,11.86,0,0,1-3.62.84,16,16,0,0,1-5.47-.56Z"/><polygon class="cls-1" points="365.84 145.74 363.44 149.51 363.91 150.32 366.96 146.23 365.84 145.74"/><path class="cls-1" d="M364,157.32,380,134.16l4.51,5-8.42,10.92s-1.28-.82-3.89,1a84.23,84.23,0,0,0-7.08,6.17Z"/><path class="cls-1" d="M264.12,440.15c-.81-4.7-1.53-9.41-2.2-14.13-.26-1.72-.53-3.44-.75-5.16-.84-6.07-1.43-12.17-2-18.27-.21-2.71-.52-5.42-.71-8.12-.13-1.72-.27-3.45-.38-5.19s-.13-3.47-.16-5.2c0-1.08.17-.94.42,0a25.91,25.91,0,0,1,.71,4.55c.6,7,1.22,14.05,1.94,21.13.23,2.12.51,4.28.79,6.44s.61,4.34.91,6.5l1.05,7.11,1.13,7.09c.51,2.91,1,5.82,1.54,8.71.81,4.39,1.69,8.79,2.66,13.12.75,3.36,1.63,6.62,2.53,9.9l.63,2.14c.75,2.69,1,3.53.83,4.22a3.26,3.26,0,0,1-.1.46c-.17.34-.72-.69-1.43-2.64a168.68,168.68,0,0,1-4.75-18.42c-1-4.71-1.86-9.45-2.68-14.19Z"/><path class="cls-1" d="M229.57,440.61c-.73-4.54-1.51-9.09-2.29-13.63l-.91-5c-1-5.84-2-11.69-2.88-17.57-.4-2.6-.81-5.22-1.21-7.8l-.69-5c-.22-1.68-.33-3.36-.4-5-.05-1.05.24-.93.63-.08a14.8,14.8,0,0,1,1.19,4.33c.89,6.76,2.06,13.49,3.05,20.32.61,4.08,1.48,8.29,2.23,12.45.83,4.57,1.65,9.15,2.4,13.74.46,2.82.92,5.65,1.34,8.48.66,4.29,1.19,8.62,1.71,12.89.37,3.33.79,6.59,1,9.9.05.73.15,1.44.16,2.18.06,2.73,0,3.61-.42,4.19a2.2,2.2,0,0,1-.25.39c-.3.26-.58-.85-.74-2.82-.47-5.86-1.06-12-1.9-18.18-.63-4.59-1.3-9.19-2.08-13.77Z"/><path class="cls-1" d="M328.22,245.57a16.26,16.26,0,0,0,4.27,1.6,7.87,7.87,0,0,0,1.61.08,10.84,10.84,0,0,0,5.5-1.86,17.72,17.72,0,0,0,2.12-1.62c.86-.76,1.65-1.59,2.49-2.37.52-.5.46.65-.44,1.68a16.13,16.13,0,0,1-5.85,4.31,11.18,11.18,0,0,1-4.46,1,12.81,12.81,0,0,1-4.81-1.24,27,27,0,0,1-2.68-1.37,35.3,35.3,0,0,1-3.76-2.53,30,30,0,0,1-2.66-2.26,5.64,5.64,0,0,1-.53-.56,2.4,2.4,0,0,1-.57-.86.75.75,0,0,1,0-.55.66.66,0,0,1,.08-.21c.12-.19.5,0,1,.46a39.61,39.61,0,0,0,4.73,3.88,29.42,29.42,0,0,0,4,2.4Z"/><path class="cls-1" d="M274.3,232.28l-.41,5.24-.13,1.92c-.23,2.27-.51,4.48-.77,6.73-.13,1-.25,2-.37,3a23.13,23.13,0,0,1-.72,3.78c-.22.77-.47-.33-.32-1.77.33-2.55.4-5.14.75-7.75.2-1.57.3-3.18.4-4.78l.33-5.28.22-3.25c.12-1.65.24-3.3.37-4.93.09-1.27.13-2.53.27-3.78,0-.28.05-.55.1-.83.2-1,.36-1.34.62-1.51a1.45,1.45,0,0,1,.19-.12c.18-.07.27.38.26,1.13,0,2.25-.21,4.57-.39,6.93-.12,1.75-.24,3.52-.37,5.28Z"/><path class="cls-1" d="M337.1,204.48l2.5-4.95s2.45-3.05,1.93-6.52S337.1,204.48,337.1,204.48Z"/><path class="cls-1" d="M354.45,203.11c-1-.7-1.93-1.39-2.86-2.12-.34-.27-.7-.5-1-.78q-1.74-1.46-3.37-3.05l-1.46-1.38a8.22,8.22,0,0,1-1.67-1.95c-.14-.24,0-.33.34-.31a2.3,2.3,0,0,1,1.16.45c1.26,1.11,2.47,2.3,3.72,3.48a22.62,22.62,0,0,0,2.49,1.93c.93.69,1.87,1.36,2.84,2,.6.39,1.22.74,1.84,1.09a19.69,19.69,0,0,0,2.86,1.45,8.08,8.08,0,0,0,2.31.48c.15,0,.31,0,.45,0,.52,0,.58.13.89.38a1.63,1.63,0,0,0,.22.17.3.3,0,0,1,.06.42,1.16,1.16,0,0,1-.66.54,4.85,4.85,0,0,1-2.68,0,13.41,13.41,0,0,1-2.34-.88,18.76,18.76,0,0,1-3.13-1.84Z"/><path class="cls-1" d="M354.69,203.75l2.62-8.32s6.08,4.73,6,10.36C363.19,209.65,354.69,203.75,354.69,203.75Z"/><path class="cls-1" d="M227.12,285.34c-.47.56-1,1.06-1.51,1.59s-1.07,1-1.6,1.49c-.41.34-.79.7-1.21,1a22.6,22.6,0,0,1-4.83,2.86c-.73.38-1.55.62-2.31.94l-1.56.39a6.75,6.75,0,0,1-1.62,0c-.34,0-.28-.29,0-.59a2.23,2.23,0,0,1,1.22-.79,26.08,26.08,0,0,0,5.48-2.23,8.47,8.47,0,0,0,1.56-1c.51-.37,1-.79,1.47-1.2a30.27,30.27,0,0,0,3-2.88c.59-.62,1.12-1.3,1.65-2a20.21,20.21,0,0,0,2.06-3.3,10.46,10.46,0,0,0,.84-2.78,4.17,4.17,0,0,1,.1-.6c.14-.73.31-.95.77-1.11l.25-.12c.2-.08.59.27.68,1a7,7,0,0,1-.48,3,17,17,0,0,1-1.3,2.72,26,26,0,0,1-2.62,3.61Z"/><path class="cls-1" d="M204.45,237.54c-.1.23-.16.4-.26.69s-.27.86-.4,1.28c-.26,0-.53.06-.65.09l-.18.06s0,0-.08,0a.93.93,0,0,0-.27-.07l-.19,0-.28,0-.19,0a1.26,1.26,0,0,0-.4-.29.75.75,0,0,0-.2-.1c-.14,0-.26-.12-.41-.15a8.81,8.81,0,0,0-4,0,14.08,14.08,0,0,0-1.83.49c-.77.23-1.54.49-2.35.65-.26.05-.28-.09-.14-.32a2.46,2.46,0,0,1,.86-.84,8.2,8.2,0,0,1,2.38-1,10.7,10.7,0,0,1,2.59-.42,9.11,9.11,0,0,1,3.37.24,1.76,1.76,0,0,1,.35.15l.12.08a.76.76,0,0,1,.24.26.54.54,0,0,0,.06.11l0-.09.08-.21.11-.27c.21-.61.49-1.32.76-2,.42-1,.92-2,1.41-2.9.39-.73.7-1.5,1.14-2.21.09-.15.18-.32.28-.47.39-.56.69-.61,1-.51a1.55,1.55,0,0,1,.23.06.36.36,0,0,1,.18.32,1.17,1.17,0,0,1-.09.62c-.55,1.31-1.28,2.55-1.93,3.87-.48,1-.94,2-1.32,3Z"/><path class="cls-1" d="M251.42,236.26a.63.63,0,0,0,0-1.25.63.63,0,0,0,0,1.25Z"/><polygon class="cls-1" points="210.31 290.78 209.1 295.38 214.97 293.78 210.31 290.78"/><path class="cls-1" d="M273.05,264.19a3.77,3.77,0,0,1-3.29,3.39,3.39,3.39,0,0,1-3.23-3.07,3.62,3.62,0,0,1,2.48-3.29,3.55,3.55,0,0,1,2.81.35A2.82,2.82,0,0,1,273.05,264.19Z"/><path class="cls-1" d="M272.47,476.27s.73,11.26,2.42,10.1,0-7.62,0-7.62,20,7,23.9,6.1c0,0,7.74-1,6.29-2.88s-24.4-7.49-30.71-5.7Z"/><path class="cls-1" d="M234.37,474.43s-.76,11.09.56,11.31c1.86.32.75-8.38,1.16-8.11S261,492.06,264.58,488c0,0-1.52-3.9-11.39-7.27S234.37,474.43,234.37,474.43Z"/><path class="cls-1" d="M198.93,333.42s-8.46,34.06-5.51,36.37,3.51,1.36,17.2,4.15c0,0,16.45,1.53,18.95,1.55s20.79-5.38,21.32-4.22,25.21,2.22,29.27.68c6.1-2.31,12.2-9.53,17.15-9.8a26.47,26.47,0,0,0,8-1.55s-10.89-28.34-12.08-33.71c0,0-14.44,6.43-18,5.17,0,0,.69,4.44-4.23,6.46,0,0-27.49,7.12-55,1Z"/><path class="cls-1" d="M246.47,58c-.1-.11,5.69-6.91,6.13-7.41A55.29,55.29,0,0,1,262.81,41c6.73-4.69,15.06-7.94,23.23-7.11,6.41.65,17.57,4.23,19.12,11.76,0,0,9.52-1.36,16.26,5.17s3,27.81-11.52,34.68c0,0-16.52,11.15-39.45,4.87-13.1-3.59-18.4-6.91-20.54-9.09,0,0-1.64,15.94-6,21.64l-4.37,5.71s-6.45-3-10.17,2.22-.8,12,2.2,14.23,5.18,4.44,11.65,4.17c0,0,7,23.32,30.2,26.05,0,0,17.25,3.89,24.82-10l.14-2.93s5,5.24,7.08,7.66,5.26,9.27-.72,12.17c0,0-8.53,5.09-15.29,3.67,0,0,2,11-3.16,13.41s-13.59,5.16-27.2-6.3c-1-.83-10.31-8.82-12.3-12.15,0,0-13.57-1.66-26.65,10.71,0,0-18.89,1-28.62-8.94s-16.94-10.58-9.83-26.53c0,0,8.53-6.25,9.11-16S189,81,200.18,66.65s24-14.91,34.5-13S246.46,58,246.47,58Z"/><path class="cls-1" d="M289.84,154.1c-4.58,2.55-10,3-14.88,2.34-.9-.12-1.81-.2-2.7-.39a20,20,0,0,1-2.66-.57,34.75,34.75,0,0,1-8.85-3.59,40.21,40.21,0,0,1-4-2.58c-.64-.47-1.23-1-1.84-1.51a17.77,17.77,0,0,1-1.77-1.59,35,35,0,0,1-2.88-3.09l-1.34-1.62c-.45-.54-.8-1.15-1.21-1.72-.48-.75-1-1.47-1.47-2.25L245,135.16l-.62-1.2c-.17-.41-.31-.84-.46-1.26l-.84-2.54c-.33-1.06,0-1,.67-.27a20.93,20.93,0,0,1,2.67,3.85,38.39,38.39,0,0,0,2.66,4.51c.51.7.92,1.48,1.48,2.15l1.64,2a38.94,38.94,0,0,0,7.84,6.91c.88.58,1.83,1.07,2.76,1.6s2,.88,3,1.32,2,.72,3.1,1,2.1.59,3.17.75a25.85,25.85,0,0,0,13.94-.7,19.18,19.18,0,0,0,3.86-1.89,19.5,19.5,0,0,0,3.35-2.73,27.57,27.57,0,0,0,6.54-11.4,44.37,44.37,0,0,0,1.68-10.06c.05-.75.06-1.48.09-2.24.11-2.78.23-3.63.83-4.28.13-.15.24-.34.35-.44.35-.36,1.07.85,1.21,3a40.25,40.25,0,0,1-3.67,19.44,25,25,0,0,1-10.31,11.44Z"/><path class="cls-1" d="M228.64,122.65a12.68,12.68,0,0,1-1.9-8.21,8.66,8.66,0,0,1,1-3.1,8.21,8.21,0,0,1,4.39-3.53,9.31,9.31,0,0,1,5.38-.06,14.72,14.72,0,0,1,4.24,1.78,9,9,0,0,1,4,4.29c.24.6-.23.66-.85.45A6.55,6.55,0,0,1,242.8,113a12.11,12.11,0,0,0-4.26-2.6,10.77,10.77,0,0,0-4.8-.64,4.86,4.86,0,0,0-2.58,1.16c-.21.12-.34.35-.52.52a4.81,4.81,0,0,0-.47.56,5.58,5.58,0,0,0-.67,1.28A9,9,0,0,0,230,120a12.35,12.35,0,0,0,2.45,3.67,13.32,13.32,0,0,0,5.7,3.59,14.12,14.12,0,0,0,5.16.54l1.14-.1c1.42-.07,1.89,0,2.29.5a2.2,2.2,0,0,1,.28.34c.21.39-.34.85-1.46,1.17a15.46,15.46,0,0,1-10.7-1.3,16,16,0,0,1-6.23-5.7Z"/><path class="cls-1" d="M249.39,90.72c-.24.84-.41,1.69-.7,2.52s-.53,1.65-.86,2.46c-.24.58-.41,1.19-.65,1.78a36.51,36.51,0,0,1-3.31,5.8c-.28.4-.55.81-.82,1.23l-.9,1.16a12,12,0,0,1-2.63,2.69c-.32.24-.51-.06-.54-.56a2.59,2.59,0,0,1,.53-1.71,12.63,12.63,0,0,0,1.08-1.42c.32-.51.74-.94,1.07-1.44.65-1,1.37-2,2-3,.2-.3.38-.62.56-1l.44-1c.29-.7.57-1.4.8-2.12s.57-1.55.78-2.35.48-1.59.67-2.4c.27-1,.48-2,.66-3a32.94,32.94,0,0,0,.52-4.64,27.57,27.57,0,0,0-.23-3.54c0-.25-.08-.5-.1-.76a2.67,2.67,0,0,1,.1-1,1,1,0,0,1,.43-.52c.1-.07.18-.16.28-.22s.32-.07.52.09a2.06,2.06,0,0,1,.54.83,16.31,16.31,0,0,1,.62,7c-.06.88-.2,1.74-.31,2.61s-.31,1.73-.49,2.59Z"/><path class="cls-1" d="M321.82,76.05a24.57,24.57,0,0,1-1.54,2,23,23,0,0,1-1.7,1.86l-.88.9-.95.82c-.64.54-1.25,1.11-1.91,1.61A42,42,0,0,1,310.69,86c-.72.4-1.42.85-2.16,1.21l-2.24,1c-1.08.55-2.23.9-3.34,1.35a24.36,24.36,0,0,1-3.43,1.08,25,25,0,0,1-3.08.72c-1,.18-2.07.38-3.11.53a55.2,55.2,0,0,1-6.29.41,54.78,54.78,0,0,1-6.27-.25c-1,0-2.06-.28-3.1-.41s-2.07-.25-3.08-.53a74.06,74.06,0,0,1-10.65-3l-3.3-1.25-3.2-1.5a41.59,41.59,0,0,1-6.09-3.56c-1.2-.84-.85-1,.45-.8a25.63,25.63,0,0,1,5.86,2l3.18,1.45c1.05.5,2.17.83,3.25,1.27,2.15.91,4.4,1.49,6.62,2.19a68.72,68.72,0,0,0,13.79,2.2,45.33,45.33,0,0,0,16.86-2.55,38.57,38.57,0,0,0,15.78-9.87A29.42,29.42,0,0,0,323.19,68a26.92,26.92,0,0,0,1.8-8.52,18.31,18.31,0,0,0-1.48-8.41,13.83,13.83,0,0,0-9.95-7.48,17.29,17.29,0,0,0-2.78-.33c-1.75-.08-2.89.09-3.72.08a4.24,4.24,0,0,1-1.83-.33,4.45,4.45,0,0,1-.64-.26c-.24-.16,0-.44.6-.87a7.43,7.43,0,0,1,3.18-1.09,17.89,17.89,0,0,1,6.7.4,17.47,17.47,0,0,1,6.24,3.06,15.63,15.63,0,0,1,2.58,2.5l1.06,1.5c.33.51.58,1.06.87,1.6a20.38,20.38,0,0,1,1.76,6.87,30.22,30.22,0,0,1-5.7,19.38Z"/><path class="cls-1" d="M264.67,35.37a37.94,37.94,0,0,1,11-4.66c.7-.16,1.39-.38,2.11-.52s1.43-.25,2.14-.36a13.57,13.57,0,0,1,1.91-.18l1.92-.11,1.93.07.95,0c.32,0,.64.08,1,.12l1.9.27,1.87.45a14.37,14.37,0,0,1,1.83.57,13.75,13.75,0,0,1,1.78.71,22.28,22.28,0,0,1,5.76,3.59c.27.24.55.47.82.72l.75.8a12,12,0,0,1,1.36,1.72,10.56,10.56,0,0,1,1.64,4.07c.15.92-.17.8-.67.18-.24-.32-.52-.75-.92-1.23s-.81-1-1.23-1.65a18.4,18.4,0,0,0-6-5.26,26.91,26.91,0,0,0-7.66-2.79,26,26,0,0,0-10.16.3c-.94.12-1.84.44-2.76.65-.46.12-.92.21-1.37.36l-1.34.45c-.91.27-1.76.7-2.64,1s-1.72.82-2.56,1.27a48.09,48.09,0,0,0-5.91,3.83,51.51,51.51,0,0,0-7.79,7.33,47.78,47.78,0,0,0-4.72,6.68c-.31.51-.59,1-.89,1.55-1.14,1.92-1.56,2.49-2.32,2.64a2.52,2.52,0,0,1-.5.11c-.49,0-.38-1,.29-2.57a47,47,0,0,1,9.15-12.73,53.85,53.85,0,0,1,9.34-7.51Z"/><path class="cls-1" d="M189,121.47c1.51-9.25-.18-19.11,1-28.95a76.72,76.72,0,0,1,1.84-10.63,52.06,52.06,0,0,1,7.77-17.37,34.83,34.83,0,0,1,6.54-7l1.94-1.43.49-.36.52-.3,1.05-.6a28.28,28.28,0,0,1,4.34-2.07,29.43,29.43,0,0,1,8.34-1.8,42.37,42.37,0,0,1,8.43.15,31,31,0,0,1,10.42,3,18.4,18.4,0,0,1,4.51,3.13,15.29,15.29,0,0,1,3.19,4.47c.46,1,.51,1.55.39,1.56s-.48-.44-1.06-1.16a17.9,17.9,0,0,0-2.63-2.65,29.66,29.66,0,0,0-4.32-2.82,30,30,0,0,0-9.77-3,39.42,39.42,0,0,0-10.35-.11,29.47,29.47,0,0,0-5,1,23.91,23.91,0,0,0-2.38.93,14.07,14.07,0,0,0-2.32,1.1A28.59,28.59,0,0,0,203.89,63a38.22,38.22,0,0,0-6.76,10.86,63.51,63.51,0,0,0-3.75,12.56A80.55,80.55,0,0,0,192,100.74c0,4.84.23,9.74,0,14.69-.06,1.52-.16,3-.34,4.56a24.48,24.48,0,0,1-.87,4.58,20.7,20.7,0,0,1-4.75,8c-1.58,1.77-3.25,3.2-4.36,5a11.52,11.52,0,0,0-1.73,6.08,14.15,14.15,0,0,0,1.66,6.21,25.48,25.48,0,0,0,3.81,5.38,40,40,0,0,0,7.85,6.61,52.66,52.66,0,0,0,9,4.79c1.38.59,2.77,1.05,4.2,1.52a57.38,57.38,0,0,0,5.69,1.41c.31.06.59.13.84.19a5.33,5.33,0,0,1,.68.15c.42.1.75.22,1.06.32a6.13,6.13,0,0,1,.84.3c.31.17-.11.4-1.19.67a15,15,0,0,1-5,0,48.25,48.25,0,0,1-17.88-7.68,46,46,0,0,1-7.7-6.51,24.44,24.44,0,0,1-5.58-8.86,14.11,14.11,0,0,1-.36-8.2,16.06,16.06,0,0,1,4.23-6.93,31.1,31.1,0,0,0,4.51-5.31,16.34,16.34,0,0,0,2.32-6.25Z"/><path class="cls-1" d="M301.71,114.71c.37-.12.76-.2,1.11-.33l1-.46c.3-.19.57-.43.86-.63a7,7,0,0,0,.76-.78,9.92,9.92,0,0,0,1.93-4.16,11.17,11.17,0,0,0,.24-1.75c.06-.59.05-1.19.06-1.78a17.71,17.71,0,0,0-1-6.23l-.28-.72L306,97.2a3.52,3.52,0,0,0-.37-.57.83.83,0,0,0-.11-.15l-.15-.06a9.83,9.83,0,0,0-3-.49,27.64,27.64,0,0,0-5.78.62c-2.45.5-4.81,1.33-7.24,1.89-.75.19-.85-.24-.4-.94A5.37,5.37,0,0,1,290,96.32a5,5,0,0,1,1.83-1,37.44,37.44,0,0,1,7.9-1.62,21.82,21.82,0,0,1,4.19.06,9.39,9.39,0,0,1,2.23.57,3.12,3.12,0,0,1,.8.38l.49.67a5.25,5.25,0,0,1,.57,1,21,21,0,0,1,1.89,10,14.67,14.67,0,0,1-1.35,5.47,9.41,9.41,0,0,1-3.88,4.26,12.93,12.93,0,0,1-3.31,1.16l-1.74.21-1.75-.07a11.68,11.68,0,0,1-4.89-1.91,17.08,17.08,0,0,1-3.65-3.6,24.44,24.44,0,0,1-3.67-6.84c-.16-.55-.35-1.08-.49-1.65a7.64,7.64,0,0,1-.25-2.26,1.94,1.94,0,0,1,.47-1.06,2.34,2.34,0,0,1,.3-.32c.32-.21.79.58,1.2,2,1.23,4.07,3.26,8.27,6.41,11a9.16,9.16,0,0,0,3.95,2.08,8.87,8.87,0,0,0,2.19.25,10.13,10.13,0,0,0,2.24-.4Z"/><path class="cls-1" d="M271.41,124.34a15.68,15.68,0,0,1-3.56.12,14.86,14.86,0,0,1-3.48-.78,15.8,15.8,0,0,1-5.8-3.83,19,19,0,0,1-3-3.95,17.68,17.68,0,0,1-2.47-8.41c0-.39,0-.77.09-1.17a4.91,4.91,0,0,1,.13-.65l.09-.42a2.61,2.61,0,0,1,.27-.31l.44-.48a3,3,0,0,1,.4-.4l.85-.73a22.69,22.69,0,0,1,3.71-2.21,35.11,35.11,0,0,1,7.11-2.49,25.61,25.61,0,0,1,4.8-.7,12.14,12.14,0,0,1,4.9.71c1,.38.59.85-.34,1.14a15.09,15.09,0,0,1-4,.58,28.12,28.12,0,0,0-8.84,1.68,27.39,27.39,0,0,0-4.14,1.83,17,17,0,0,0-1.88,1.18l-.83.68-.36.37c-.09.09-.13.08-.15.14s0,0,0,.1a2.5,2.5,0,0,0,0,.29,4.07,4.07,0,0,0-.06.62,7.15,7.15,0,0,0,0,1.3,13.41,13.41,0,0,0,.6,2.66,19,19,0,0,0,2.56,5,15.7,15.7,0,0,0,4.36,4.2,11.67,11.67,0,0,0,5.67,1.83,13.41,13.41,0,0,0,3.72-.34c.6-.17,1.23-.33,1.79-.55a9.7,9.7,0,0,0,1.63-.85,9,9,0,0,0,3.45-4.28,14.47,14.47,0,0,0,.6-5.67,23.53,23.53,0,0,0-.45-3.25c-.11-.53-.23-1.06-.37-1.59l-.49-1.77a2.3,2.3,0,0,1-.05-.94,2,2,0,0,1,.51-.8,4,4,0,0,1,.81-.59,6.75,6.75,0,0,1,.69-.36,11.62,11.62,0,0,1,2.1-.73c2.66-.57,3.81-.06,4.18.72a1.11,1.11,0,0,1,.16.55c-.14.51-.79.4-2.44.71a12.36,12.36,0,0,0-2.63.77c-.2.09-.4.17-.59.27l-.23.13,0,0a.12.12,0,0,0,0,.17l0,0,.08.3.18.68c.12.45.22.91.32,1.37.19.93.35,1.87.45,2.83a22.27,22.27,0,0,1-.08,5.93,11,11,0,0,1-3.64,6.5,11.8,11.8,0,0,1-3.19,2,17.74,17.74,0,0,1-3.47,1Z"/><path class="cls-1" d="M293.93,114.81A21.87,21.87,0,0,1,295,117.1a7.93,7.93,0,0,1,.61,2.73,3.67,3.67,0,0,1-.66,2.38l-.38.42c-.11.11-.22.18-.33.28a8.27,8.27,0,0,1-.66.51,8.52,8.52,0,0,1-1.5.85,7.19,7.19,0,0,1-3.37.56,12.89,12.89,0,0,1-2.83-.53,17.63,17.63,0,0,1-1.69-.57,7.41,7.41,0,0,1-1.48-.94c-.28-.24-.06-.57.4-.84a2.75,2.75,0,0,1,1.78-.38,21.58,21.58,0,0,0,3,.88,6.94,6.94,0,0,0,2.76.06,4,4,0,0,0,1.57-.81,8.29,8.29,0,0,0,.7-.63,1.44,1.44,0,0,0,.31-.49,2.76,2.76,0,0,0,0-1.65,11.19,11.19,0,0,0-.81-2c-.42-.83-.9-1.64-1.41-2.45-.78-1.22-1.56-2.46-2.41-3.66a22.65,22.65,0,0,1-1.9-2.9,5.5,5.5,0,0,1-.32-.74,1.92,1.92,0,0,1-.07-1.14.84.84,0,0,1,.39-.53,1.2,1.2,0,0,1,.25-.13c.27-.07.51.26.91.72.52.71,1.14,1.43,1.77,2.19s1.19,1.61,1.81,2.46a45.77,45.77,0,0,1,2.61,4Z"/><path class="cls-1" d="M309.73,157.22a11.64,11.64,0,0,1-4.38,5l-1,.66c-.34.19-.67.38-1,.56a26.34,26.34,0,0,1-7.66,2.23c-1.16.16-2.33.3-3.49.37a18.92,18.92,0,0,1-2.26,0,8,8,0,0,1-2.23-.57c-.45-.18-.28-.43.16-.66a6.34,6.34,0,0,1,.84-.34,3.63,3.63,0,0,1,1.09-.27,47.85,47.85,0,0,0,8.41-1,16,16,0,0,0,4.81-2,11.26,11.26,0,0,0,4-3.73,6.23,6.23,0,0,0,1-3.1,5.69,5.69,0,0,0-.53-2.4,12.07,12.07,0,0,0-1.44-2.23c-.88-1.11-2-2.09-2.84-3.35-.19-.28-.39-.56-.56-.86-.54-1.18-.39-1.7.08-2.12.1-.09.17-.19.24-.25s.94.1,1.41.71a44.57,44.57,0,0,1,4.88,6.19,8.53,8.53,0,0,1,1.12,3.52,7.43,7.43,0,0,1-.64,3.66Z"/><path class="cls-1" d="M218.76,174.57a158,158,0,0,0-24.13,28c-2.55,3.72-4.9,7.58-7.15,11.48-2,3.44-3.86,7-5.52,10.54a77.28,77.28,0,0,0-4.22,11,35.46,35.46,0,0,0-1.16,5.69,14.11,14.11,0,0,0,.31,5.49A51.1,51.1,0,0,0,182,257.33,111.82,111.82,0,0,0,195,274c3,3.32,6.29,6.46,9.63,9.48s6.7,6,10.32,8.63c2.27,1.59,1.79,1.77-.54,1a17.85,17.85,0,0,1-2.06-.85c-.77-.36-1.67-.75-2.58-1.27a35.27,35.27,0,0,1-5.92-4.12A137.4,137.4,0,0,1,193.74,277a125,125,0,0,1-9.07-10.79,86.65,86.65,0,0,1-7.62-12L175.52,251c-.42-1.15-.85-2.26-1.25-3.45a13.27,13.27,0,0,1-.5-3.9,22.65,22.65,0,0,1,.32-3.71,50.18,50.18,0,0,1,2.23-8.42c.94-2.74,2.06-5.41,3.26-8.05a139.26,139.26,0,0,1,8.22-15.28A176.1,176.1,0,0,1,211,178.27a90.88,90.88,0,0,1,18.15-14.74,39.13,39.13,0,0,1,8.18-3.68,19.9,19.9,0,0,1,9-.8,2,2,0,0,1,1.35.68l.79.85L250,162.2q1.47,1.62,3,3.18a83.86,83.86,0,0,0,6.34,5.9,44.54,44.54,0,0,0,11.11,7c4,1.67,8.41,2.35,12.33.94a6.66,6.66,0,0,0,3.81-3.19,13.63,13.63,0,0,0,1.43-4,29.13,29.13,0,0,0,.46-2.95,26.51,26.51,0,0,1,.4-3.4c.07-.36.09-.85.16-1.08.1-.39.44.11.87,1.45a15.16,15.16,0,0,1,.37,6.4,13.51,13.51,0,0,1-2.47,6.11,8.7,8.7,0,0,1-2.7,2.33l-.82.41c-.27.11-.53.19-.8.29a10,10,0,0,1-1.62.47,17.33,17.33,0,0,1-6.69.19,25.72,25.72,0,0,1-6.32-1.93,48.28,48.28,0,0,1-10.92-7,95.44,95.44,0,0,1-9.3-8.9L246,161.61l-.65-.1-1-.07a15.09,15.09,0,0,0-2.12.08,25.73,25.73,0,0,0-8.39,2.56,66.8,66.8,0,0,0-15,10.53Z"/><path class="cls-1" d="M208.78,230.22a37.4,37.4,0,0,0-2.66,5.83c-.27.73-.47,1.49-.71,2.23l-.22.77c-.12.42-.21.84-.3,1.26l-.34.16-.24.15c-.16.08-.25.22-.36.14a5,5,0,0,0-1.08,0c-.28-.14-.58-.32-.81-.42l-.5-.17a8.65,8.65,0,0,0-1.06-.2,11.25,11.25,0,0,0-2.25,0,15.76,15.76,0,0,0-3.58.76c-1.51.43-3,1-4.53,1.45-.48.14-.5-.07-.22-.46a5.74,5.74,0,0,1,1.71-1.48,24.09,24.09,0,0,1,2.3-1.08,23.16,23.16,0,0,1,2.47-.69,12.07,12.07,0,0,1,5.32-.05,7.32,7.32,0,0,1,.76.23l.18.06.07,0a.71.71,0,0,1,.15.08,1.26,1.26,0,0,1,.28.19c.06.09.05,0,.07-.07l0-.19,0-.19a.81.81,0,0,0,0-.14l.06-.31c.09-.41.2-.81.3-1.22a33.2,33.2,0,0,1,2.47-6.34c.62-1.25,1.3-2.47,2-3.65.52-.92,1.17-1.75,1.76-2.63s1.27-1.67,1.93-2.48c.53-.62,1-1.26,1.52-1.89s1.07-1.21,1.63-1.8a7.69,7.69,0,0,1,.76-.75,3.84,3.84,0,0,1,1.19-.78,1.28,1.28,0,0,1,.83.05,2.2,2.2,0,0,1,.34.13c.15.09.16.28.09.56a2.56,2.56,0,0,1-.52,1c-1.8,2.12-3.73,4.2-5.44,6.51a39.61,39.61,0,0,0-3.46,5.4Z"/><path class="cls-1" d="M200.32,247c-.73.1-1.47.2-2.19.35-.27.05-.51.16-.78.22a17.31,17.31,0,0,0-2.73.77,6,6,0,0,0-1.1.57,7,7,0,0,1-1.31.86c-.16.06-.38-.22-.5-.59a1,1,0,0,1,.18-1.05,8.3,8.3,0,0,1,3.25-1.5c.7-.16,1.36-.47,2-.66s1.52-.37,2.28-.51l1.41-.24c.71-.13,1.42-.2,2.12-.34.55-.11,1.07-.31,1.6-.46l.35-.11c.45-.08.6,0,.75.48a2,2,0,0,1,.1.32.7.7,0,0,1-.37.83,11,11,0,0,1-2.88.78c-.73.12-1.48.2-2.21.33Z"/><path class="cls-1" d="M221,268.85c-.63-.71-1.23-1.43-1.84-2.16s-1.22-1.44-1.79-2.18c-.42-.55-.89-1.05-1.3-1.61-1.45-1.94-2.86-3.9-4.28-5.86-.63-.87-1.27-1.73-1.9-2.59a25,25,0,0,1-2.22-3.47c-.19-.38,0-.39.28-.16a8.34,8.34,0,0,1,1.29,1.28c1.7,2.17,3.54,4.24,5.25,6.43,1,1.32,2.25,2.56,3.4,3.82s2.48,2.81,3.75,4.2c.79.84,1.55,1.71,2.36,2.52a51.18,51.18,0,0,0,3.78,3.6,25.25,25.25,0,0,0,3.23,2.24c.24.14.48.26.72.41.85.58,1,.81,1.1,1.35a2.15,2.15,0,0,1,.05.34c0,.35-.51.45-1.45.29a9.92,9.92,0,0,1-1.85-.74c-.56-.32-1.1-.68-1.65-1a24.44,24.44,0,0,1-3-2.48c-.7-.66-1.37-1.35-2-2.05s-1.31-1.4-2-2.1Z"/><path class="cls-1" d="M322.56,201.45c-1.47-3.13-2.86-6.27-4.37-9.33-.55-1.12-1.16-2.2-1.74-3.29-1-1.93-2.12-3.82-3.28-5.69a57.93,57.93,0,0,0-3.71-5.4,28.6,28.6,0,0,0-4-4.17,23.53,23.53,0,0,0-3-2.11,25,25,0,0,0-3.25-1.59c-.69-.28-.53-.6.22-.74a5.44,5.44,0,0,1,3.44.69,24,24,0,0,1,6.21,5,44.44,44.44,0,0,1,4.72,6.26c1.63,2.63,3.46,5.31,5,8.12,1.65,3.07,3.14,6.21,4.65,9.32.93,1.91,1.87,3.82,2.85,5.69a64.38,64.38,0,0,0,4.94,8.2,34,34,0,0,0,4.9,5.32c.4.34.81.66,1.21,1,1.49,1.26,1.93,1.7,1.89,2.48a3,3,0,0,1,0,.52c-.12.5-1,.31-2.32-.52-3.86-2.53-6.89-6.42-9.43-10.42a94.49,94.49,0,0,1-5-9.29Z"/><path class="cls-1" d="M339.66,198.17l-1.21,3.15c-.15.38-.25.79-.4,1.17-.54,1.36-1.09,2.72-1.69,4.07l-.75,1.8a7.75,7.75,0,0,1-1.27,2.21c-.18.2-.4,0-.53-.36a1.54,1.54,0,0,1,0-1.21c.7-1.41,1.26-2.95,1.95-4.48a27.14,27.14,0,0,0,1-2.93c.35-1.08.7-2.16,1.09-3.24l.73-2c.38-1,.79-2,1.22-3a16.55,16.55,0,0,1,1.1-2.29c.11-.16.21-.33.33-.48.54-.52.85-.56,1.15-.41a1.36,1.36,0,0,1,.21.1c.19.15.14.51,0,.91-.56,1.34-1.07,2.58-1.6,3.87-.43,1-.84,2-1.23,3.1Z"/><path class="cls-1" d="M365.55,161.15a29.82,29.82,0,0,1,4.86-4,15.39,15.39,0,0,1,2-1.23,5.65,5.65,0,0,1,2.33-.63,2.37,2.37,0,0,1,.63,0,3.57,3.57,0,0,1,.55.11,6.77,6.77,0,0,1,1.08.34,6.59,6.59,0,0,1,3.28,2.89c.16.28.31.57.44.86a5.28,5.28,0,0,1,.34,1,12,12,0,0,1-.85,6.34c-.34.5-.47.19-.61-.24a6.59,6.59,0,0,1-.5-2c-.06-.71,0-1.41,0-2.11,0-.34,0-.68-.05-1a4,4,0,0,0-.1-.68,6,6,0,0,0-2.13-2.75,3.34,3.34,0,0,0-1-.49,3.41,3.41,0,0,0-.55-.14,1.59,1.59,0,0,0-.5,0,6.1,6.1,0,0,0-2.06.81A27.67,27.67,0,0,0,368,161.7c-.44.41-.88.83-1.28,1.26l-.27.3a1.46,1.46,0,0,0-.16.19,1.87,1.87,0,0,0-.25.41h0a.4.4,0,0,0,.3.57,1.91,1.91,0,0,0,.75,0,5.56,5.56,0,0,0,.57-.15l.65-.2c.43-.15.85-.33,1.27-.51a33.14,33.14,0,0,0,3.74-2.06c.27-.16.52-.34.8-.48,1.05-.53,1.44-.6,1.88-.35.09.06.21.11.28.17.23.22,0,.71-.72,1.26a20.49,20.49,0,0,1-3.37,2.18,24.42,24.42,0,0,1-3.88,1.69,8.48,8.48,0,0,1-1.22.31,4,4,0,0,1-1.68.05,2,2,0,0,1-1.21-.7,1.51,1.51,0,0,1-.34-.65,3.57,3.57,0,0,0-.1-.35l0-.35.22-1,.59-1a2.34,2.34,0,0,1,.3-.45l.21-.26c.15-.18.3-.33.45-.49Z"/><path class="cls-1" d="M364.47,156.47l.3-.46c.09-.13.16-.18.24-.28s.3-.36.46-.51c.31-.33.62-.64.95-.94.64-.61,1.31-1.17,2-1.71.5-.4,1-.83,1.5-1.19a17.26,17.26,0,0,1,3-1.68,6.79,6.79,0,0,1,.9-.29l.48-.11.58,0a6.26,6.26,0,0,1,1.81.47,7.46,7.46,0,0,1,2.63,1.79,5.48,5.48,0,0,1,1.12,1.73,4.55,4.55,0,0,1,.2,2c-.06.41-.29.33-.6,0a13,13,0,0,1-1.1-1.23,7.42,7.42,0,0,0-.9-1.17,6.49,6.49,0,0,0-1.17-.9,4.48,4.48,0,0,0-2.61-.7,5.85,5.85,0,0,0-1.88.81c-.63.38-1.23.83-1.84,1.26a28.1,28.1,0,0,0-3.75,3.21l-.32.36-.16.18-.09.11a1.5,1.5,0,0,0-.28.46.38.38,0,0,0,.16.47,1.11,1.11,0,0,0,.6.06l.16,0,.26,0c.18,0,.36-.09.55-.14a16.22,16.22,0,0,0,2.18-.78c1.12-.47,2.17-1.06,3.28-1.58a6.41,6.41,0,0,1,.76-.32c1-.33,1.52-.26,1.76.18a.43.43,0,0,1,.06.3.82.82,0,0,1-.11.17c-.05.06,0,.11-.1.17a1.68,1.68,0,0,1-.57.39,41.47,41.47,0,0,1-6.08,2.83c-.35.12-.7.24-1.07.33l-.58.16a4.91,4.91,0,0,1-1,.14,2.05,2.05,0,0,1-2.37-2,5.67,5.67,0,0,1,.21-.81,2,2,0,0,1,.38-.74Z"/><path class="cls-1" d="M380.42,135.29a9.41,9.41,0,0,0-1.59-1,4.27,4.27,0,0,0-.78-.3,1.58,1.58,0,0,0-.34-.07l-.08,0a.13.13,0,0,0-.09,0l-.14.13c-.21.23-.42.49-.64.76-.43.54-.86,1.12-1.28,1.69-.61.84-1.16,1.74-1.76,2.6-2.11,3.05-4.18,6.15-6.14,9.31-.86,1.41-1.66,2.86-2.4,4.3-.24.47-.46.94-.67,1.4-.1.23-.2.46-.28.68a1,1,0,0,0-.06.44,3.34,3.34,0,0,0,.27,1.16,4.63,4.63,0,0,0,.53,1s0,.09.09.14a.29.29,0,0,1,0,.2.61.61,0,0,1-.62.53,2.42,2.42,0,0,1-1.51-.57,2.93,2.93,0,0,1-1.11-1.88,4,4,0,0,1,0-1.29l.09-.37L362,154l0-.12.18-.43c.23-.55.47-1,.72-1.54.5-1,1-2,1.59-2.89,1.12-1.87,2.31-3.69,3.58-5.48,1.52-2.13,2.87-4.49,4.38-6.7.84-1.22,1.68-2.42,2.64-3.61a11.94,11.94,0,0,1,.82-.92,2.05,2.05,0,0,1,1.54-.64,3.24,3.24,0,0,1,.44,0,3.43,3.43,0,0,1,.34.06,4,4,0,0,1,.64.17,7.28,7.28,0,0,1,1.13.5,15.06,15.06,0,0,1,4.37,3.67,7.71,7.71,0,0,1,.86,1.3,1.79,1.79,0,0,1,.09,1.85c-.43.6-.67.87-1,1.24l-.86,1.06-1.72,2.11c-1.33,1.64-2.55,3.32-3.88,4.95-.29.35-.56.72-.87,1.07-1.15,1.3-1.7,1.56-2.39,1.38a2.44,2.44,0,0,1-.45-.12c-.42-.2-.24-1,.5-2,2.21-2.93,4.68-5.95,7.14-9l1.3-1.62s0,0,0,0a6.6,6.6,0,0,0-.74-1,13.12,13.12,0,0,0-2-1.92Z"/><path class="cls-1" d="M379.7,131.22a16,16,0,0,1,5.57,4.31c.87.95,2.28-.47,1.41-1.41a18,18,0,0,0-6.45-4.83c-1.19-.48-1.71,1.45-.53,1.93Z"/><path class="cls-1" d="M381.71,129.39a15,15,0,0,1,4.36,3.26c.87,1,2.28-.46,1.42-1.41a16.52,16.52,0,0,0-4.77-3.57c-1.14-.59-2.15,1.13-1,1.72Z"/><path class="cls-1" d="M383.76,127.78a41,41,0,0,0,3.58,2.57c1.06.72,2.06-1,1-1.73a35.55,35.55,0,0,1-3.17-2.25c-1-.84-2.39.57-1.42,1.41Z"/><path class="cls-1" d="M387.08,128.23c1.15-1.68,2.22-3.41,3.3-5.13.6-.95-.91-1.83-1.51-.88-1.08,1.72-2.15,3.44-3.3,5.12-.64.94.88,1.81,1.51.89Z"/><path class="cls-1" d="M363.05,157.89c-1,1.55-2,3.07-3.13,4.54-.77,1,1,2,1.72,1,1.1-1.47,2.14-3,3.13-4.54.7-1.09-1-2.09-1.72-1Z"/><path class="cls-1" d="M379.48,167.12a9.37,9.37,0,0,1,1.75,4.1l-.05-.17a4.09,4.09,0,0,1-.15,2.73,9.72,9.72,0,0,1-1.1,2,21.33,21.33,0,0,1-2.85,3.19,35.52,35.52,0,0,1-3.48,2.91,36.41,36.41,0,0,1-5.68,3.36,23.67,23.67,0,0,1-3.09,1.23,15.33,15.33,0,0,1-1.65.42c-.29,0-.56.11-.86.13a6.12,6.12,0,0,1-.73.05h-.15c-.05,0-.07.06-.11.1l-.22.34c-.21.36-.42.74-.62,1.13a64.29,64.29,0,0,0-2.74,6.25c-.51,1.36-1,2.74-1.39,4.12a34,34,0,0,0-1.05,4.14c-.11.82-.52.77-.88-.06a6.88,6.88,0,0,1,0-4.1,61.42,61.42,0,0,1,2.43-6.95c.47-1.13,1-2.24,1.54-3.35.28-.55.56-1.1.88-1.65l.24-.42.13-.21c.06-.1.16-.23.23-.34s.32-.48.58-.57l.19-.07h0s0-.12,0-.07h.06l.1,0,.4-.07c.54,0,.7,0,1,0s.52-.07.78-.11a16.17,16.17,0,0,0,1.6-.39,30.19,30.19,0,0,0,9.27-5.32,28.52,28.52,0,0,0,3.82-3.62,11.4,11.4,0,0,0,1.43-2.09,2.9,2.9,0,0,0,.39-2l0-.07v0a9.56,9.56,0,0,0-.3-1.17,6.62,6.62,0,0,0-1.77-2.87,5.71,5.71,0,0,0-1.38-.94,2.71,2.71,0,0,0-.39-.17,1.56,1.56,0,0,0-.34-.12,1.87,1.87,0,0,0-.7,0,16.67,16.67,0,0,0-5,2.1,17,17,0,0,0-2.25,1.57,9.07,9.07,0,0,0-.93.93,2.21,2.21,0,0,0-.55,1,.44.44,0,0,0,.16.46,1.28,1.28,0,0,0,.66.28,4,4,0,0,0,1.79-.4c1.26-.54,2.43-1.35,3.84-2a4.73,4.73,0,0,1,2.15-.49,2.33,2.33,0,0,1,1.79.94,4,4,0,0,1,.56,1,3.86,3.86,0,0,1,.28,1.55c0,.16-.22.08-.58-.22s-.8-.91-1.31-1.38a1,1,0,0,0-1.11-.17,6.36,6.36,0,0,0-1.53.63,39.75,39.75,0,0,1-3.62,1.92,5.13,5.13,0,0,1-2.6.44,3.14,3.14,0,0,1-1.57-.73,1.67,1.67,0,0,1-.34-.39,1.71,1.71,0,0,1-.28-.5,2,2,0,0,1-.13-.56,1.62,1.62,0,0,1,0-.54,3.27,3.27,0,0,1,.6-1.5,6.18,6.18,0,0,1,.8-1,14.47,14.47,0,0,1,1.72-1.46,23,23,0,0,1,5.74-3,8.45,8.45,0,0,1,1.76-.4,3.28,3.28,0,0,1,1.24.09,6,6,0,0,1,.87.35,7.63,7.63,0,0,1,2.82,2.24Z"/><path class="cls-1" d="M362.1,207.86a5.73,5.73,0,0,1-1.86-.28,12.13,12.13,0,0,1-1.53-.59,25.16,25.16,0,0,1-2.76-1.5c-.64-.4-1.3-.78-1.9-1.22a45.3,45.3,0,0,1-6-5.17c-.81-.84-1.62-1.69-2.37-2.58a11.59,11.59,0,0,1-2.34-3.83c-.15-.45.07-.47.45-.22a6.72,6.72,0,0,1,1.45,1.34,47.06,47.06,0,0,0,5.92,6.43,30.46,30.46,0,0,0,4.37,3.23,20.5,20.5,0,0,0,5.26,2.57,2.51,2.51,0,0,0,1.43,0,1.08,1.08,0,0,0,.51-1,6.61,6.61,0,0,0-.62-2.49,18.27,18.27,0,0,0-1.29-2.43,36.19,36.19,0,0,0-2.57-3.44c-.19-.26-.39-.49-.58-.75-.7-1-.75-1.42-.55-1.86a1.12,1.12,0,0,1,.14-.29c.21-.24.67,0,1.34.56.45.47.91,1,1.35,1.45s.85,1,1.26,1.6a27.48,27.48,0,0,1,2.21,3.6,10.8,10.8,0,0,1,1.12,3.26,3.63,3.63,0,0,1-.31,2.2,2.67,2.67,0,0,1-.89,1,2.51,2.51,0,0,1-1.28.41Z"/><path class="cls-1" d="M328.42,246.48a10.75,10.75,0,0,0,5.77,1.39,12.17,12.17,0,0,0,5.61-2.44,28.39,28.39,0,0,0,3.53-3.16,72.16,72.16,0,0,0,10.16-13.8c1.27-2.22,2.43-4.52,3.53-6.81,1.39-2.95,2.67-6,4.11-8.91.46-.92.69-.67.65.25a13.89,13.89,0,0,1-1.06,4.29c-1.28,3.1-2.63,6.19-4.18,9.2a77.66,77.66,0,0,1-5.28,8.71c-1.17,1.67-2.4,3.36-3.7,5a45.68,45.68,0,0,1-4.19,4.74,20.54,20.54,0,0,1-5.81,4.05,11.14,11.14,0,0,1-3.55.93,10.49,10.49,0,0,1-3.64-.42,22.85,22.85,0,0,1-7.56-4.16,55.49,55.49,0,0,1-9-9.17,64.73,64.73,0,0,1-5.61-8.05c-.36-.63-.72-1.24-1-1.91a10,10,0,0,1-1-2.73,2.26,2.26,0,0,1,.11-1.38,2,2,0,0,1,.21-.46c.29-.33.84.62,1.74,2.27a72.65,72.65,0,0,0,10.1,14.25,37.16,37.16,0,0,0,10.06,8.26Z"/><path class="cls-1" d="M294.2,243.6c.55-3.49,1.16-7,1.78-10.45.22-1.27.38-2.55.63-3.81.82-4.46,1.81-8.89,2.68-13.34.39-2,.73-4,1-5.93.22-1.26.37-2.53.61-3.79l.34-1.88c.12-.63.25-1.25.33-1.85.13-.75.45-.69.75,0a7.71,7.71,0,0,1,.42,3.52c-.12,1.31-.3,2.62-.52,3.91l-.66,3.88q-.69,3.87-1.51,7.74c-.67,3.08-1.1,6.34-1.67,9.51-.61,3.49-1.22,7-1.78,10.49-.34,2.15-.68,4.31-1,6.47-.21,1.63-.42,3.27-.64,4.91s-.35,3.28-.48,4.91c-.08,1.27-.13,2.53-.16,3.78s0,2.5,0,3.75c0,.55,0,1.09,0,1.64,0,2-.14,2.7-.61,3.17a3.07,3.07,0,0,1-.32.31c-.36.22-.7-.61-.92-2.15a62,62,0,0,1,.24-14.19c.36-3.55.86-7.09,1.38-10.62Z"/><path class="cls-1" d="M217,237.13q-.28,1.43-.63,2.82c-.08.34-.12.69-.22,1-.37,1.19-.8,2.34-1.26,3.49-.18.51-.37,1-.53,1.54a6.37,6.37,0,0,1-.83,1.91c-.26.36-1.26-.69-1-1.4.43-1.28.83-2.55,1.36-3.83a14.14,14.14,0,0,0,.6-2.45c.22-.9.42-1.81.59-2.72.1-.57.2-1.13.27-1.7a20.6,20.6,0,0,0,.24-2.6c0-.67-.15-1.33-.16-2,0-.15,0-.29,0-.43.05-.55.19-.72.59-.85l.27-.09c.3-.06.57.16.75.57a7.8,7.8,0,0,1,.43,3.83c-.07,1-.21,1.93-.36,2.89Z"/><path class="cls-1" d="M228.44,287.66c-.78.71-1.51,1.48-2.34,2.13a25.25,25.25,0,0,1-2.55,1.83c-.66.39-1.24.89-1.93,1.22a23.83,23.83,0,0,1-3.7,1.53c-.63.19-1.25.43-1.9.58l-1.93.41c-1.13.3-2.29.41-3.42.62-.37,0-.73.13-1.1.17l-1.11.06a10.89,10.89,0,0,1-2.21-.12c-.46-.07-.39-.44,0-.88a3.18,3.18,0,0,1,1.83-1.12c1.42-.11,2.78-.51,4.18-.66.7-.09,1.36-.31,2.06-.44a20.56,20.56,0,0,0,2.06-.49,18.8,18.8,0,0,0,4.71-2.18l1.21-.77.6-.39.56-.44,1.13-.89a14,14,0,0,0,1.06-1,23.85,23.85,0,0,0,2.37-2.64,19.27,19.27,0,0,0,2.62-4.68,13.11,13.11,0,0,0,.73-4,5.89,5.89,0,0,1,0-.84c.12-1,.24-1.33.9-1.68.13-.08.24-.17.34-.22.28-.17.95.22,1.25,1.22a9.28,9.28,0,0,1-.12,4.32,13.53,13.53,0,0,1-.64,2.08,14.83,14.83,0,0,1-.88,2,25.24,25.24,0,0,1-3.7,5.27Z"/><path class="cls-1" d="M189.21,313.47l2.57-6.69c.32-.81.57-1.65.9-2.45,1.15-2.84,2.32-5.67,3.37-8.54.48-1.27.86-2.57,1.23-3.86a51.33,51.33,0,0,1,1.55-4.94c.21-.5.62-.32.94.23a3.75,3.75,0,0,1,.37,2.5,54.6,54.6,0,0,1-3.36,10.17c-.85,2-1.47,4.1-2.22,6.15L192,312.78c-.51,1.38-1,2.77-1.5,4.16-.72,2.11-1.46,4.22-2,6.36-.44,1.66-.77,3.32-1.15,5-.08.36-.16.72-.26,1.08-.39,1.34-.68,1.73-1.22,1.91a1.9,1.9,0,0,1-.36.12c-.37.05-.56-.58-.5-1.64a35.87,35.87,0,0,1,1.83-9.41c.7-2.31,1.51-4.6,2.31-6.88Z"/><path class="cls-1" d="M302.45,320.9a13.84,13.84,0,0,0,1-1l.11-.12,0,0,0,0a.16.16,0,0,0,0-.09.93.93,0,0,0,0-.22c0-.1,0-.21,0-.32s-.08-.46-.14-.7c-.11-.48-.24-1-.38-1.47-.59-2-1.31-4-2-6-.53-1.48-1.15-2.93-1.68-4.41-1.86-5.23-3.68-10.52-5.08-15.94-.63-2.41-1.24-4.83-1.68-7.28-.57-3.11-1-6.44,0-9.64.34-1,.71-.69,1,.19a21.21,21.21,0,0,1,.73,4c.4,6.07,2.31,12.17,4.09,18.31,1.07,3.68,2.63,7.38,4,11.07.77,2,1.54,4.07,2.26,6.14.37,1,.72,2.08,1,3.16.16.54.31,1.08.43,1.65a6.2,6.2,0,0,1,.16,2.05,2.27,2.27,0,0,1-.69,1.32,7.11,7.11,0,0,1-.77.78,20.34,20.34,0,0,1-1.61,1.36,38.52,38.52,0,0,1-3.41,2.31,69.65,69.65,0,0,1-20.32,7.66,20.28,20.28,0,0,1-2.07.33,7.91,7.91,0,0,1-2.77,0,1.86,1.86,0,0,1-1.24-.73,2.77,2.77,0,0,1-.36-.46c-.24-.48.78-1.1,2.56-1.37,2.66-.49,5.33-1,8-1.76a66.94,66.94,0,0,0,7.95-2.68,43.37,43.37,0,0,0,10.79-6.14Z"/><path class="cls-1" d="M236.67,340.54c4.08.24,8.2.25,12.31.12a72.21,72.21,0,0,0,12.12-1.38,55.21,55.21,0,0,0,8.54-2.54,16.59,16.59,0,0,0,2.13-.86,5.88,5.88,0,0,0,.87-.52,1.55,1.55,0,0,0,.44-.45.53.53,0,0,0,0-.27,2.3,2.3,0,0,0-.16-.53,16,16,0,0,0-.72-1.43,26.22,26.22,0,0,1-1.24-3.33c-.69-2.2-1.24-4.41-1.76-6.62-1-4.43-1.88-8.88-2.61-13.36-.77-4.68-1.42-9.42-1.87-14.12-.28-3-.49-6.06-.48-9.12a37.34,37.34,0,0,1,.26-4.6,19.29,19.29,0,0,1,1-4.56c.38-.93.71-1.26.84-1.15s.15.63.11,1.43c-.09,1.62,0,4.43,0,7.82A128.49,128.49,0,0,0,268,303.25c.84,6.06,1.84,12.13,3.13,18.16.49,2.29,1.06,4.59,1.76,6.85a31.3,31.3,0,0,0,1.18,3.26c.21.44.56,1,.85,1.62a4.7,4.7,0,0,1,.35,1.13,2.62,2.62,0,0,1-.14,1.45,4.39,4.39,0,0,1-2,1.93,16.73,16.73,0,0,1-2.05.93l-2,.72q-1,.39-2,.72c-8.12,2.75-16.73,3.12-25.09,3.06a113,113,0,0,1-15.48-1.17A98.41,98.41,0,0,1,215,339.48c-3.78-1-7.5-2.35-11.1-3.67-2.82-1-5.67-1.81-8.52-2.54-1.43-.36-2.86-.7-4.29-1a13.22,13.22,0,0,0-1.33-.21,2.22,2.22,0,0,0-.82.05.14.14,0,0,0-.07.22.82.82,0,0,0,.14.26,2.07,2.07,0,0,0,.68.58l.26.15.63.31c.43.2.84.37,1.22.52l1.88.76a6.82,6.82,0,0,1,2.06,1.17,5.38,5.38,0,0,1,.58.53c.18.26-.23.35-1.14.33a16.5,16.5,0,0,1-4.13-.74c-.45-.14-.91-.3-1.36-.48-.23-.08-.46-.19-.68-.29a4.5,4.5,0,0,1-.48-.22l-.51-.31-.52-.31-.45-.36a3.79,3.79,0,0,1-.79-.75l-.34-.39a4.23,4.23,0,0,1-.23-.41,5.22,5.22,0,0,1-.41-.86,3.93,3.93,0,0,1-.06-1,1.68,1.68,0,0,1,.52-.84,3.06,3.06,0,0,1,1.92-.63,14.92,14.92,0,0,1,3,.31l.93.17.86.18c2.27.49,4.51,1.09,6.74,1.75s4.45,1.36,6.7,2.18l3.24,1.17c1.09.35,2.17.74,3.27,1.06a97.6,97.6,0,0,0,24.26,4.25Z"/><path class="cls-1" d="M275.3,231.8l-.91,6.2-.25,2.28c-.42,2.65-.65,5.31-1.08,8-.19,1.19-.37,2.39-.62,3.57a14,14,0,0,1-1.51,4.41c-.25.43-.42.25-.48-.21a6.45,6.45,0,0,1,.15-2c.72-2.91.75-6,1.23-9.06.26-1.85.34-3.84.54-5.73.23-2.1.47-4.2.76-6.3l.52-3.86c.27-1.95.55-3.91.82-5.85.19-1.51.26-3,.5-4.51a8.37,8.37,0,0,1,.17-1c.31-1.21.58-1.56,1-1.73a1.45,1.45,0,0,1,.31-.11c.31,0,.47.51.48,1.41a33.4,33.4,0,0,1-.2,4.1c-.18,1.37-.36,2.76-.54,4.15l-.87,6.25Z"/><path class="cls-1" d="M272.73,267.66a5.57,5.57,0,0,1-2.75,1.13,5.92,5.92,0,0,1-2.81-.46,5.68,5.68,0,0,1-.92-.47,3.64,3.64,0,0,1-.83-.63,4.87,4.87,0,0,1-1.44-3.35,9,9,0,0,1,.09-.91,4.89,4.89,0,0,1,.25-.85,4.43,4.43,0,0,1,.89-1.51,5.62,5.62,0,0,1,2.51-1.67,4,4,0,0,1,3.73.44c.33.26,0,.62-.46.93a3.63,3.63,0,0,1-1.39.66,4.17,4.17,0,0,0-2.08.64,3.09,3.09,0,0,0-1.26,1.75,2.31,2.31,0,0,0,1.06,2.51,3.4,3.4,0,0,0,3.32.51,3.28,3.28,0,0,0,1.6-1.52,3.33,3.33,0,0,0-.15-3.34,2.61,2.61,0,0,0-2.11-1.11,4.29,4.29,0,0,1-.5.07,1.52,1.52,0,0,1-.73,0,1.43,1.43,0,0,1-.57-.38,3,3,0,0,1-.26-.24.44.44,0,0,1,0-.52,1.44,1.44,0,0,1,.65-.72,4.09,4.09,0,0,1,3.93.16,5.1,5.1,0,0,1,2.28,3.4,5.36,5.36,0,0,1-.24,3,6.08,6.08,0,0,1-1.75,2.46Z"/><path class="cls-1" d="M282,200.58a30.35,30.35,0,0,1-12.69-1.65c-.75-.21-1.45-.55-2.18-.81l-1.08-.42c-.35-.16-.69-.35-1-.52a38.58,38.58,0,0,1-12.36-10.27l-2.12-2.86c-.67-1-1.24-2-1.87-3a16.56,16.56,0,0,1-1.09-2l-1-2a17.33,17.33,0,0,1-.81-2.11c-.23-.71-.46-1.42-.7-2.13-.27-.9,0-.86.59-.24a16.35,16.35,0,0,1,2.29,3.25c.77,1.27,1.44,2.59,2.23,3.82l1.24,1.83.61.92c.22.29.46.57.68.86L254,185c.42.6.95,1.11,1.42,1.67s.93,1.14,1.47,1.64l1.58,1.55a31.43,31.43,0,0,0,9.1,5.71A29.75,29.75,0,0,0,279.12,198a27.53,27.53,0,0,0,3.63-.22,24.33,24.33,0,0,0,3.51-.87,15.5,15.5,0,0,0,4.73-2.6,13.49,13.49,0,0,0,3.36-4.19,17.29,17.29,0,0,0,1.71-8.06c0-.6-.08-1.2-.08-1.82-.07-2.28-.06-3,.54-3.65a3.06,3.06,0,0,1,.38-.41c.39-.32,1.09.56,1.52,2.37a18.83,18.83,0,0,1,0,8.55,17.42,17.42,0,0,1-4.26,8,16.93,16.93,0,0,1-5.67,3.9,22.43,22.43,0,0,1-6.5,1.6Z"/><path class="cls-1" d="M252.23,213.84a17.73,17.73,0,0,1,6.31-4.12c.81-.35,1.58-.73,2.39-1a41.32,41.32,0,0,0,8-3.4,11.9,11.9,0,0,0,1.49-1.13c.42-.44.85-.88,1.23-1.35l.62-1a2.49,2.49,0,0,0,.27-.51l.26-.52a14.88,14.88,0,0,0,.94-2.19c.21-.46.55-.36.84.15a3.68,3.68,0,0,1,.37,1.07,2.85,2.85,0,0,1,0,1.5,14.42,14.42,0,0,1-.45,1.41l-.77,1.26a7.31,7.31,0,0,1-.91,1.15,5.94,5.94,0,0,1-1.06,1,16.77,16.77,0,0,1-4.85,2.7c-2,.76-4,1.62-5.93,2.42a21.31,21.31,0,0,0-5.8,3.21,6.44,6.44,0,0,0-.7.68c-.21.25-.46.46-.66.73a13.22,13.22,0,0,0-1.1,1.69,12.23,12.23,0,0,0-1.66,5.84,8.93,8.93,0,0,0,1.23,4.34c.17.28.38.52.54.8.72,1,.87,1.33.59,2a3,3,0,0,1-.18.45.56.56,0,0,1-.67.25,2.25,2.25,0,0,1-1.14-.65,9.59,9.59,0,0,1-2.55-4.51,12.4,12.4,0,0,1-.13-5.32,15.63,15.63,0,0,1,1.23-3.74,14.53,14.53,0,0,1,2.21-3.26Z"/><path class="cls-1" d="M252.31,231.33a2.08,2.08,0,0,0-2,.12,3.55,3.55,0,0,0-1.53,1.88,2.48,2.48,0,0,0,0,1.59,1.73,1.73,0,0,0,.9,1,2.21,2.21,0,0,0,1.49.36.83.83,0,0,0,.5-.19.61.61,0,0,0,.19-.51c0-.23-.06-.32-.12-.36a.54.54,0,0,0-.45,0,.59.59,0,0,0-.4.76.53.53,0,0,0,.75.33,1.1,1.1,0,0,0,.47-.55.7.7,0,0,0,0-.7.77.77,0,0,0-1.3,0c-.23.32-.52.24-.54-.35a1.35,1.35,0,0,1,.66-1.06,1.73,1.73,0,0,1,2,.22,2.22,2.22,0,0,1,.73,2,2.63,2.63,0,0,1-1,1.81,2.46,2.46,0,0,1-2.44.23,2.21,2.21,0,0,1-1-.88,2.72,2.72,0,0,1-.32-1.24,2.41,2.41,0,0,1,1.15-2.09,2.58,2.58,0,0,1,2.33-.24,2,2,0,0,1,1,.94,2.24,2.24,0,0,1,.26,1.12,2.61,2.61,0,0,1-.76,2,3.21,3.21,0,0,1-2.13.77,4.15,4.15,0,0,1-2-.39,4,4,0,0,1-.89-.51,3.22,3.22,0,0,1-.77-.75c-.11-.15-.23-.29-.33-.45l-.22-.5a3.39,3.39,0,0,1-.26-1,5.27,5.27,0,0,1,1.32-4,5,5,0,0,1,3.73-1.91,4.17,4.17,0,0,1,1.32.18,5.84,5.84,0,0,1,1.16.46,6.58,6.58,0,0,1,1.94,1.49,4.7,4.7,0,0,1,1.15,3.6,5.94,5.94,0,0,1-1.53,3.32,5.86,5.86,0,0,1-2.34,1.63,5.13,5.13,0,0,1-2.93.19,5.76,5.76,0,0,1-1.23-.42,3.14,3.14,0,0,1-1.28-1,1,1,0,0,1-.12-.89,2.58,2.58,0,0,1,.1-.38c.16-.33.86-.23,1.62.12a3.68,3.68,0,0,0,3.18.11,3.74,3.74,0,0,0,2-2.26,2.41,2.41,0,0,0-.19-2,3.8,3.8,0,0,0-1.9-1.46Z"/><path class="cls-1" d="M340.18,204.91l-1-.66c-.11-.08-.25-.13-.37-.22a9.52,9.52,0,0,1-1.11-1.09c-.15-.18-.33-.32-.49-.49a1.17,1.17,0,0,1-.5-.72c0-.19,1.21-.68,1.36-.52a8.43,8.43,0,0,1,.85,1.09,2.21,2.21,0,0,0,.73.54c.29.19.59.37.9.55l.6.31c.31.14.6.34.93.46s.54.1.79.24l.17.08c.19.15.2.27.09.54l-.07.18a.63.63,0,0,1-.45.34,2.52,2.52,0,0,1-1.45-.13,4.83,4.83,0,0,1-1-.47Z"/><path class="cls-1" d="M340.63,200.37a5,5,0,0,1-.61-.61c-.07-.08-.17-.13-.23-.22a4.23,4.23,0,0,1-.44-.95,1.11,1.11,0,0,0-.22-.34c-.11-.14-.28-.23-.22-.46s1.33-.68,1.43-.55a1.37,1.37,0,0,1,.29.85c0,.21.17.28.27.4a2.66,2.66,0,0,0,.36.4,1.66,1.66,0,0,0,.3.22,1.69,1.69,0,0,0,.52.26,1.51,1.51,0,0,0,.51-.06l.11,0c.13,0,.14.13,0,.57l-.07.3a.85.85,0,0,1-1.36.66,4.91,4.91,0,0,1-.69-.4Z"/><path class="cls-1" d="M229.12,374.76a11.61,11.61,0,0,0,3.23-.05,32.44,32.44,0,0,0,3.37-.75c2.27-.61,4.55-1.36,6.87-2.07a44.69,44.69,0,0,1,7.23-1.79l1-.09h.92c.61,0,1.22,0,1.83,0,1.23,0,2.45,0,3.67.08,3.57.17,7.1.54,10.55.85a63.18,63.18,0,0,0,9.12.22c.77,0,1.53-.08,2.29-.14l.57-.05.28,0,.22-.05.44-.09a3.36,3.36,0,0,0,.47-.17,17,17,0,0,0,3.71-2.26c2.42-1.83,4.7-3.94,7.31-5.77a11.81,11.81,0,0,1,4.49-2.16,6.45,6.45,0,0,1,1.26-.11l1.17,0c.77,0,1.54,0,2.3-.06a13.76,13.76,0,0,0,2.18-.22,1.28,1.28,0,0,0,.55-.19.36.36,0,0,0,.09-.49l-.14-.49c-.07-.23-.14-.45-.22-.68l-.5-1.38c-.36-.91-.72-1.82-1.11-2.72-.77-1.81-1.59-3.6-2.39-5.39-1.43-3.21-2.86-6.43-4.05-9.77-.3-.84-.59-1.68-.83-2.53s-.5-1.71-.69-2.59a22.72,22.72,0,0,1-.66-5.35c.12-2.29.54-1.86.94-.05s1.4,4.93,2.73,8.66,2.85,7.22,4.46,10.81c.81,1.79,1.63,3.58,2.41,5.42.4.9.77,1.84,1.14,2.78l.53,1.44c.09.23.16.48.24.73l.34,1.13a4.89,4.89,0,0,0,0,.54V360c-.05,0,0,.08,0,.12l0,.26a2.09,2.09,0,0,1-.22.48c-.12.13-.22.28-.35.4l-.44.31c-.16.09-.34.15-.51.23a4.6,4.6,0,0,1-1,.28,18.7,18.7,0,0,1-2.59.25l-2.44.07-1.19,0h-.29l-.21,0-.42.06a12.87,12.87,0,0,0-3.82,2.07c-1.26.92-2.5,1.93-3.77,2.94a53.49,53.49,0,0,1-5.34,4,9.52,9.52,0,0,1-3.46,1.39c-1.15.11-2.24.22-3.37.27a77.86,77.86,0,0,1-13.42-.48c-2.4-.24-4.79-.44-7.19-.52-1.19,0-2.39-.05-3.59,0l-1.79,0a14.17,14.17,0,0,0-1.68.19,60.36,60.36,0,0,0-6.89,1.87c-2.31.73-4.62,1.49-7,2.12a21.45,21.45,0,0,1-4.61.74,28.57,28.57,0,0,1-4.6-.45c-3-.48-5.9-1.12-8.8-1.52a32.55,32.55,0,0,0-3.32-.27c-1.13-.07-2.27-.13-3.4-.22-2.27-.18-4.54-.41-6.8-.74a44.86,44.86,0,0,1-6.73-1.45,16.15,16.15,0,0,1-3.25-1.37,5.77,5.77,0,0,1-2.63-2.71,3.85,3.85,0,0,1-.27-1.55c0-.46,0-.93.1-1.36.08-.89.19-1.75.3-2.62.23-1.72.5-3.43.78-5.14.56-3.41,1.16-6.8,1.85-10.19.31-1.49.58-3,1-4.45,1.35-5.54,2.17-7.27,3.08-8.25a4.46,4.46,0,0,1,.68-.56c.14-.06.18,0,.16.25s-.12.48-.21,1c-.25.95-.55,2.54-1,4.54-1.19,6-2.31,12.23-3.29,18.54l-.69,4.73c-.11.79-.21,1.58-.29,2.35-.05.4-.06.74-.08,1.09v.25a.66.66,0,0,1,0,.14,1.27,1.27,0,0,0,.06.28c.18.72,1.34,1.58,2.66,2.13a24.24,24.24,0,0,0,4.35,1.33,93.08,93.08,0,0,0,14.19,1.61c.58,0,1.25.06,1.89.13s1.27.14,1.89.23c1.24.19,2.45.4,3.65.63,2.39.43,4.77.91,7.07,1.15Z"/><path class="cls-1" d="M228.18,437.47c-.78-4.87-1.6-9.75-2.42-14.62l-1-5.33c-1-6.28-2.06-12.56-2.95-18.87-.42-2.79-.85-5.6-1.26-8.38-.25-1.78-.51-3.58-.76-5.36a51.72,51.72,0,0,1-.35-5.42c0-1.13.4-1,1-.11a12.5,12.5,0,0,1,.89,1.88A10.9,10.9,0,0,1,222,384c1,7.24,2.21,14.44,3.17,21.78.59,4.38,1.56,8.89,2.35,13.35.88,4.9,1.75,9.81,2.56,14.73.47,3,.95,6.07,1.43,9.1.72,4.59,1.3,9.24,1.89,13.82.43,3.57.95,7.06,1.24,10.62.07.78.18,1.54.21,2.33.07,2.95-.09,3.89-.66,4.51a2.3,2.3,0,0,1-.39.42c-.44.28-.85-.91-1.08-3-.66-6.25-1.38-12.82-2.31-19.43-.71-4.89-1.44-9.82-2.29-14.73Z"/><path class="cls-1" d="M240.88,436.92c.32-5.16.73-10.31,1.14-15.45.14-1.87.24-3.75.42-5.62l1.85-19.8c.27-2.92.45-5.87.62-8.78.18-3.74.34-7.49.77-11.21.13-1.16.53-1,.92,0a14.87,14.87,0,0,1,.76,5c-.29,7.67-.94,15.3-1.76,23-.5,4.59-.75,9.38-1.1,14.08-.41,5.17-.81,10.35-1.15,15.52-.2,3.18-.41,6.37-.53,9.55-.09,2.41-.22,4.83-.25,7.25,0,1.2,0,2.41-.07,3.61s0,2.41,0,3.6c0,.93,0,1.86.07,2.78l.18,2.75L243,466l.29,2.73c.08.81.19,1.59.25,2.4.35,3,.32,3.94-.18,4.67a2.79,2.79,0,0,1-.34.49c-.4.36-.93-.82-1.38-3-1.26-6.59-1.41-13.63-1.37-20.65,0-2.6.08-5.21.2-7.82s.23-5.22.37-7.82Z"/><path class="cls-1" d="M262.45,437.74q-.63-3.86-1.18-7.73c-.39-2.58-.74-5.17-1.09-7.75-.27-1.88-.59-3.76-.81-5.65-.86-6.65-1.42-13.33-2-20-.25-3-.5-5.94-.74-8.88q-.21-2.84-.38-5.69c-.07-1.9-.1-3.8-.07-5.7,0-1.18.33-1,.71,0a18.3,18.3,0,0,1,1,5c.69,7.67,1.37,15.34,2.06,23.08.22,2.32.52,4.67.81,7l1,7.1,1.1,7.78,1.2,7.76c.53,3.18,1,6.36,1.62,9.53.85,4.8,1.76,9.62,2.81,14.35.82,3.67,1.8,7.23,2.8,10.81.21.79.48,1.54.69,2.33.82,2.94,1,3.87.63,4.69a3,3,0,0,1-.25.54c-.33.42-1.06-.66-1.89-2.79a160,160,0,0,1-5.26-20.17q-1.55-7.74-2.82-15.54Z"/><path class="cls-1" d="M275.29,437.28c0-5,.14-10.08.27-15.12.05-1.84,0-3.68.09-5.52.25-6.48.64-12.95,1.08-19.42.19-2.87.39-5.75.58-8.6a72.41,72.41,0,0,1,1.4-10.95c.24-1.12.53-.92.78.09a21.78,21.78,0,0,1,.47,4.91c0,1.86-.13,3.71-.24,5.57s-.17,3.71-.26,5.58c-.21,3.72-.5,7.45-.77,11.2-.35,4.48-.3,9.17-.43,13.77-.13,5.06-.24,10.12-.29,15.18,0,3.12-.06,6.24,0,9.35,0,4.72.06,9.46.29,14.13.17,3.64.52,7.19.93,10.74.08.79.21,1.54.3,2.33a30.1,30.1,0,0,1,.31,3.05,3.23,3.23,0,0,1-.3,1.42c-.07.17-.12.4-.2.55s-.39.16-.83-.41a8.06,8.06,0,0,1-.54-1,11.09,11.09,0,0,1-.43-1.45c-1.34-6.47-1.69-13.27-2-20.11-.23-5.08-.23-10.18-.25-15.27Z"/><path class="cls-1" d="M259.64,481.93c1.53.84,3.05,1.71,4.54,2.7l.56.39.43.31.46.35a5.69,5.69,0,0,1,1.42,1.51,1.94,1.94,0,0,1,.25,1.61c-.08.29-.29.42-.5.61a2.21,2.21,0,0,1-.67.5l-.37.13a11.35,11.35,0,0,1-1.57.44,4.47,4.47,0,0,1-.8.14l-.54.06a12.26,12.26,0,0,1-2.1,0,24.76,24.76,0,0,1-6.81-1.87,57.59,57.59,0,0,1-6.15-3c-1.76-1-3.5-2-5.2-3.05a48.12,48.12,0,0,1-6.28-4.4c-.61-.51-.38-.67.36-.57a11.68,11.68,0,0,1,3.3,1.11c1.16.59,2.26,1.25,3.37,1.91l3.34,1.91c2.22,1.27,4.46,2.51,6.77,3.6a19.63,19.63,0,0,0,8.79,2.05,3.81,3.81,0,0,0,.59,0l.38,0a2.39,2.39,0,0,0,.45-.09A2.59,2.59,0,0,0,264,488c.15-.05.12-.22.05-.31a2.38,2.38,0,0,0-.53-.52l-.19-.15-.39-.27-.81-.53c-.55-.34-1.11-.67-1.68-1-1.86-1.05-3.78-2-5.73-2.92-3-1.37-6-2.65-9-3.73-2.37-.84-4.78-1.42-7.18-2l-1.58-.41a9.91,9.91,0,0,1-2-.76,2,2,0,0,1-.77-.91c-.06-.15-.17-.29-.2-.4s.13-.29.56-.45a3.8,3.8,0,0,1,1.81-.1c1.14.14,2.28.31,3.43.52s2.28.56,3.41.9c2.28.67,4.55,1.44,6.78,2.34a106.26,106.26,0,0,1,9.74,4.56Z"/><path class="cls-1" d="M236.73,487.3a2.24,2.24,0,0,1-.68.65,1.78,1.78,0,0,1-1.07.26,1.85,1.85,0,0,1-1-.39,2.27,2.27,0,0,1-.55-.65,5.61,5.61,0,0,1-.58-2.11c-.06-.48-.14-.93-.16-1.39,0-1.6.18-3.15.32-4.7.07-.68.09-1.37.1-2.05a11,11,0,0,1,.19-2.58c.06-.25.51-.23.94,0a1.52,1.52,0,0,1,.83,1.22,44.08,44.08,0,0,1-.46,5.27,16.09,16.09,0,0,0,0,3.18,8.28,8.28,0,0,0,.19,1.63,2.37,2.37,0,0,0,.21.61c.1.14.06.12.07.13s.12,0,.24-.28a3.55,3.55,0,0,0,.26-.9,14.53,14.53,0,0,0,.11-3.24c-.06-.86-.29-1.68-.42-2.54,0-.19-.07-.37-.08-.57,0-.72.22-1,.68-1.15a.74.74,0,0,1,.32,0,1.06,1.06,0,0,1,.81.68,12.43,12.43,0,0,1,.68,4.78,14.79,14.79,0,0,1-.14,1.95,5.59,5.59,0,0,1-.74,2.26Z"/><path class="cls-1" d="M297.79,477.65c1.69.51,3.37,1,5.06,1.69l.63.26.33.14.54.24a7.3,7.3,0,0,1,1.84,1.14,2.29,2.29,0,0,1,.82,1.46,1.27,1.27,0,0,1-.05.44.51.51,0,0,1-.07.17l-.18.15L306,484l-.5.44a1.91,1.91,0,0,1-.56.42,3.09,3.09,0,0,1-.73.35l-.72.29a10.16,10.16,0,0,1-2,.52,22.71,22.71,0,0,1-7-.2,50.18,50.18,0,0,1-6.61-1.61c-1.91-.56-3.8-1.21-5.67-1.85a46.55,46.55,0,0,1-7-3c-.7-.36-.5-.57.23-.62a10.94,10.94,0,0,1,3.42.38c1.25.32,2.45.74,3.66,1.14s2.41.78,3.63,1.14c2.41.77,4.83,1.48,7.28,2a18.63,18.63,0,0,0,8.88-.09l.49-.19.2-.06a3.29,3.29,0,0,0,.42-.21l.22-.13a.16.16,0,0,0,0-.22,1.32,1.32,0,0,0-.37-.29,4.73,4.73,0,0,0-.45-.23l-1.14-.47c-.8-.3-1.61-.57-2.43-.83-2-.61-4.08-1.15-6.15-1.62-3.15-.7-6.34-1.31-9.52-1.71-2.47-.32-4.92-.38-7.37-.47l-1.61-.07a9.43,9.43,0,0,1-2.12-.31,1.93,1.93,0,0,1-.94-.73c-.09-.13-.22-.25-.28-.34s.07-.32.45-.56a3.75,3.75,0,0,1,1.73-.49c1.13-.1,2.28-.17,3.43-.2s2.32.06,3.49.15c2.33.17,4.69.45,7,.85,3.48.61,6.94,1.41,10.37,2.37Z"/><path class="cls-1" d="M276.69,488.1a2,2,0,0,1-1.67,1,1.81,1.81,0,0,1-1-.32,2.31,2.31,0,0,1-.56-.58,5.78,5.78,0,0,1-.77-2,10.93,10.93,0,0,1-.31-1.32c-.19-1.55-.2-3.07-.26-4.58,0-.67-.09-1.33-.17-2a12.4,12.4,0,0,1-.21-2.48c0-.23.46-.32.93-.16a1.43,1.43,0,0,1,1,1,33.41,33.41,0,0,1,.25,5.18,17.76,17.76,0,0,0,.38,3.09,9.25,9.25,0,0,0,.36,1.57,2.88,2.88,0,0,0,.27.58l.08.1s0,0,0,.08,0-.1,0-.06.13,0,.23-.26a3.07,3.07,0,0,0,.16-.87,12.45,12.45,0,0,0-.28-3.13c-.17-.81-.51-1.57-.75-2.38-.05-.18-.12-.35-.16-.53-.12-.69.06-1,.49-1.21a.8.8,0,0,1,.31-.1,1,1,0,0,1,.92.53,11.71,11.71,0,0,1,1.31,4.54,13.48,13.48,0,0,1,.1,1.93,5,5,0,0,1-.56,2.35Z"/><path class="cls-1" d="M359.63,147.89c-.21-.19-.43-.39-.64-.6l-.36-.41a5.39,5.39,0,0,1-.37-.6,2.06,2.06,0,0,1-.17-1.28,1.78,1.78,0,0,1,.81-.95,5.61,5.61,0,0,1,1.37-.62,7.41,7.41,0,0,1,4.42.15,6.13,6.13,0,0,1,1.72,1,3.87,3.87,0,0,1,1.37,2.08c.07.25-.29.35-.72.33a1.53,1.53,0,0,1-1.1-.42,4.51,4.51,0,0,0-5.51-1.43c-.11,0-.23.1-.3.12l-.13,0c-.08,0-.22.08-.21.19a.55.55,0,0,0,.07.3l.09.15c.06.07.13.17.21.25a9.17,9.17,0,0,0,1.38,1.22l1.17.88a5.74,5.74,0,0,1,1.18,1.06,4.25,4.25,0,0,1,.8,2.39c0,.18,0,.35,0,.52-.06.63-.18.77-.49.9l-.22.1c-.24.1-.48-.22-.56-.69a9.8,9.8,0,0,0-.37-1.76,1.74,1.74,0,0,0-.32-.59,1.52,1.52,0,0,0-.22-.22l-.36-.27c-.78-.56-1.7-1.14-2.58-1.86Z"/><path class="cls-1" d="M352.84,165c-.34-2-.64-4-1.63-5.51a12.14,12.14,0,0,0-1.52-1.46,5.35,5.35,0,0,1-.82-1,2.87,2.87,0,0,1-.45-1.53,3.12,3.12,0,0,1,.44-1.5,5.76,5.76,0,0,1,.5-.59c.19-.15.4-.29.6-.42a5.06,5.06,0,0,1,4.74.35,8.73,8.73,0,0,1,2.93,2.66,8.11,8.11,0,0,1,1.6,4.61c0,.51-.32.48-.76.15a5.25,5.25,0,0,1-1.37-1.64,7.47,7.47,0,0,0-.49-.93l-.24-.46-.29-.42a4.67,4.67,0,0,0-.61-.78,5.7,5.7,0,0,0-.7-.69c-.24-.22-.51-.38-.76-.57a5.07,5.07,0,0,0-.84-.42,3.42,3.42,0,0,0-1.71-.3,1,1,0,0,0-1,.9c-.06.33.55.92,1.33,1.56a6.69,6.69,0,0,1,1.25,1.37,8.91,8.91,0,0,1,.84,1.58,16.59,16.59,0,0,1,.92,3.28c.08.46.14.92.2,1.38l.07.69.07.77a1.85,1.85,0,0,1,0,.23c-.06.07-.05.15-.08.22l-.16.43-.3.58a25.81,25.81,0,0,0-2.24,5.43,13.25,13.25,0,0,0-.4,4.35c0,.31.06.61.09.91a5.83,5.83,0,0,1,.09.7c0,.2,0,.36,0,.51a1.57,1.57,0,0,1-.23.68,2.94,2.94,0,0,1-.17.26c-.1.11-.24.07-.44-.11a3,3,0,0,1-.73-1,9,9,0,0,1-.43-4.55,21.11,21.11,0,0,1,1.12-4.39c.29-.84.59-1.67.93-2.48l.53-1.21.25-.54,0,0-.19-1.11Z"/><path class="cls-1" d="M254.24,339.65a58.25,58.25,0,0,0,8.1-1.58c1.33-.37,2.63-.79,3.93-1.27s2.66-.9,3.89-1.44a9.43,9.43,0,0,0,1.31-.66,3.81,3.81,0,0,0,.53-.38,1,1,0,0,0,.26-.29,3.61,3.61,0,0,0-.15-1c-.11-.46-.22-.93-.36-1.4-2-6.87-4.31-13.77-5.55-20.92-.57-3.15-1.06-6.34-1.46-9.5A70.77,70.77,0,0,1,264,289c.06-1.28.36-1.1.66,0a30,30,0,0,1,.86,5.33c.29,4.11.83,8.21,1.47,12.3.33,2.05.66,4.09,1.05,6.12s.88,4.05,1.39,6.07c.62,2.42,1.36,4.86,2.13,7.31l1.15,3.7a30,30,0,0,1,1,3.85,2.38,2.38,0,0,1-.05.94,3,3,0,0,1-.89,1.07,6.62,6.62,0,0,1-.95.61,13.93,13.93,0,0,1-1.93.89c-.64.26-1.3.49-1.94.71l-1.91.68a51.53,51.53,0,0,1-8,2.14,69.21,69.21,0,0,1-10.44,1.08,105.28,105.28,0,0,1-15.8-.8c-2-.25-4-.48-6-.8-1-.16-2-.29-3-.46l-3-.54c-.87-.17-1.73-.31-2.6-.52-3.22-.78-4.21-1.18-4.8-1.72a5,5,0,0,1-.39-.36c-.24-.33,1.14-.29,3.51.14l2.65.51c.89.14,1.79.29,2.68.46l2.7.51,2.74.43c3.66.6,7.4,1,11.14,1.33a84,84,0,0,0,16.7-.3Z"/><path class="cls-1" d="M276.29,189.43a23.16,23.16,0,0,1-6.77-1.6l-1.19-.45c-.38-.17-.76-.36-1.13-.55a33.91,33.91,0,0,1-7.14-5.09c-1-.86-1.89-1.76-2.81-2.65l-1.71-1.78a8.52,8.52,0,0,1-1.36-2.07c-.24-.45,0-.57.57-.46a3.84,3.84,0,0,1,2.11,1l1.64,1.77,1.69,1.71,1.74,1.67c.61.53,1.2,1.09,1.81,1.61a23.54,23.54,0,0,0,5.05,3.06,23.24,23.24,0,0,0,6.19,1.9,18.37,18.37,0,0,0,4,.16,18,18,0,0,0,5.88-1.38,6.93,6.93,0,0,0,3-3.18c.15-.29.27-.59.4-.9.45-1.14.71-1.47,1.18-1.63.11,0,.21-.09.29-.11.25-.07.49.55.27,1.56a9.29,9.29,0,0,1-2.26,4.19,8,8,0,0,1-2.07,1.55c-.2.1-.4.18-.6.27l-.56.2-1.13.39a20.72,20.72,0,0,1-7,.85Z"/><path class="cls-1" d="M262.85,377.16a82.1,82.1,0,0,0-8.82-.9c-.73,0-1.47-.06-2.21-.05a21.18,21.18,0,0,0-2.14.05,23.12,23.12,0,0,0-4.2.92c-2.06.61-4.1,1.38-6.18,2.06a53.84,53.84,0,0,1-5.64,1.59,14.2,14.2,0,0,1-3,.35,25.63,25.63,0,0,1-3-.26c-3.85-.53-7.6-1.38-11.37-1.79-1.63-.18-3.37-.13-5.08-.22s-3.43-.14-5.14-.32a33.55,33.55,0,0,1-6.53-1.23,17.52,17.52,0,0,1-5.94-3.11c-1.08-.9-.66-1.07.48-.69s3,1.11,5.28,1.83c4,1.33,8.42,1.52,12.81,1.76,1.13.06,2.16.06,3.37.15s2.28.25,3.4.43c2.23.36,4.42.8,6.61,1.2,1.31.24,2.63.45,3.95.57a10.12,10.12,0,0,0,1.9,0l1-.12,1-.19c2.6-.58,5.19-1.53,7.79-2.39,1.43-.48,2.87-1,4.34-1.38a21.41,21.41,0,0,1,4.6-.89,71,71,0,0,1,9.12.41c3.72.38,7.37,1,11,1.35a56.51,56.51,0,0,0,8.33.11c.68-.06,1.43-.06,2-.18a7.43,7.43,0,0,0,1.85-.61,16,16,0,0,0,3.38-2.21c1.66-1.34,3.14-2.89,4.86-4.27a20.31,20.31,0,0,1,5.76-3.3,17.55,17.55,0,0,1,2.87-.75,11.55,11.55,0,0,1,3.93,0,3.25,3.25,0,0,1,1.63.75,3.47,3.47,0,0,1,.43.43c.25.47-1.21.43-3.63.55a17.4,17.4,0,0,0-10,4.06c-1.46,1.18-2.91,2.61-4.53,3.92a14.92,14.92,0,0,1-5.77,3.19,9.07,9.07,0,0,1-1.3.19l-1.15.08c-.77.06-1.54.08-2.31.09-1.54.05-3.08,0-4.62-.08-3.08-.19-6.11-.64-9.09-1.05Z"/><path class="cls-1" d="M358.29,163.31a6.45,6.45,0,0,1,2.89,2.15c.72,1.06,2.45.06,1.73-1a8.2,8.2,0,0,0-3.61-2.87,1,1,0,0,0-1.37.36,1,1,0,0,0,.36,1.37Z"/><path class="cls-1" d="M275.94,108.66a11.19,11.19,0,0,0,.26,2.65,1.2,1.2,0,0,0,1.47.84,1.22,1.22,0,0,0,.84-1.47,8.53,8.53,0,0,1-.17-2c.05-1.54-2.35-1.54-2.4,0Z"/><path class="cls-1" d="M272.24,111.18c.87-.44,1.72-.91,2.59-1.33.64-.31,2.25-1.25,3-1,.36.12.33.21.3.67a4,4,0,0,1-.34,1.52c0,.06-.56.79-.27.66s0,0-.19-.38a4.56,4.56,0,0,1-.6-1.26c-.34-1.5-2.65-.87-2.32.64s1.8,3.86,3.69,3.26,2.67-3.49,2.38-5.27c-.77-4.7-7.24-.73-9.45.4-1.37.7-.16,2.78,1.21,2.07Z"/><path class="cls-1" d="M293.13,105.19a10.76,10.76,0,0,0-.24,2.66,1.22,1.22,0,0,0,2.43,0,9,9,0,0,1,.16-2,1.24,1.24,0,0,0-.85-1.5,1.23,1.23,0,0,0-1.5.85Z"/><path class="cls-1" d="M290.35,106.72c.78-.25,4.53-1.58,4.84-.67s-.66,1.82-1,2.35c0,0,.25.52,0,.06-.08-.15-.16-.31-.23-.48a3.43,3.43,0,0,1-.28-1,1.2,1.2,0,0,0-2.4,0c0,1.3.72,3.42,2.09,3.89,2.05.7,3.58-1.78,4.05-3.42s.07-3.43-1.76-3.89-4.12.31-5.92.87c-1.46.47-.84,2.78.64,2.32Z"/><path class="cls-1" d="M268.22,89.56A20,20,0,0,0,251.92,96c-1.27,1.36.77,3.41,2.05,2,4-4.23,8.54-5.85,14.25-5.61,1.87.08,1.86-2.82,0-2.9Z"/><path class="cls-1" d="M285,136a7.93,7.93,0,0,0,10.41-2.59c.9-1.26-1.18-2.46-2.07-1.21a5.43,5.43,0,0,1-7.12,1.73c-1.39-.66-2.61,1.41-1.22,2.07Z"/><path class="cls-1" d="M252.64,105.63a61,61,0,0,1-11.34,3.68c-1.51.35-.87,2.66.64,2.32a64.67,64.67,0,0,0,11.91-3.93c1.41-.63.19-2.7-1.21-2.07Z"/><path class="cls-1" d="M413.23,234.78c-.9-3.58-1.65-7.16-2.38-10.75-.27-1.31-.59-2.6-.84-3.91l-.24-1.26-.12-.62-.06-.31,0-.14v-.06h0a.54.54,0,0,1,.17,0,4,4,0,0,0,.46-.14l.23-.09s.05,0,.08,0,0-.05,0,0l1,.2L409,228.82l-.72,3.48a4.58,4.58,0,0,1-.14.56h-1.76l-1.6,0c-2.68-.1-5.41-.1-8.08-1.09-.84-.35-.47-.81.33-1.11a7.53,7.53,0,0,1,3.51-.4c1.3.16,2.62.25,3.94.33l1.86.08s0,0,.06,0l.87-3.7,1-4c.49-1.88.89-3.82,1.29-5.77l0-.11,0-.07a1.1,1.1,0,0,1,.16-.26,1,1,0,0,1,.76-.36,1,1,0,0,1,.76.35.72.72,0,0,1,.16.25l0,0,0,.07,0,.08,0,.08,0,.14.06.26.11.51.22,1c.14.67.28,1.34.41,2,.73,3.6,1.47,7.19,2.32,10.75.27,1.1.54,2.19.83,3.27l.34,1.24c.08.28.17.56.26.85h0q.11.33.24.66l.15.33c.08,0,.1-.16.14-.24q.21-.61.39-1.29l.19-.69.31-1.21.6-2.47c.23-1,.47-2.08.69-3.09.63.15,1.34.32,1.92.42.34.07.47.07.72.11l.64.09c.87.1,1.74.16,2.6.19.55,0,1.1,0,1.65,0,2.05-.09,2.66-.12,3.22.36a3.19,3.19,0,0,1,.38.32c.32.36-.5,1-2.16,1.26a20.65,20.65,0,0,1-4.38.16c-.73-.05-1.47-.13-2.21-.24-1-.17-.76-.11-.83-.1s0,0,0,.08l-.35,1.49-.72,3-.38,1.46-.42,1.57c-.15.51-.3,1-.47,1.45a1.69,1.69,0,0,1-.57.76c-.38.35-.63.28-1,.28a3.61,3.61,0,0,1-.54-.14.9.9,0,0,1-.31-.24l-.15-.19-.15-.26a25.78,25.78,0,0,1-1.42-3.82l-.41-1.38-.3-1.09Z"/><path class="cls-1" d="M101,185.35c1.21-2.69,2.33-5.45,3.41-8.23l1.11-3.07.38-1,.2-.5.1-.25,0-.14,0-.08,0-.06,0-.08,0,0,0,0a.94.94,0,0,1,.45-.38,1.07,1.07,0,0,1,.7-.06,1.11,1.11,0,0,1,.52.33,1.08,1.08,0,0,1,.22.42l0,.07v.12l.39,9.43.07,1.28.05.81c0,.05,0,.1,0,.15H109l.31,0,1.12.09c2.13.12,4.31.1,6.32,0,.6,0,.7.5.21,1.14a3.92,3.92,0,0,1-3,1.25c-1.16,0-2.31-.06-3.44-.16l-.85-.08-1.16-.14L106.9,186c-.18,0-.13-.16-.15-.28l0-.41-.06-.82-.06-1.27,0-.83,0-1.67c0-1.12,0-2.24-.05-3.36,0-1.59-.1-3.22-.22-4.85l1-.06s0,0,0,0a.08.08,0,0,0,0,0l.14.08.28.14.38.15,0,0v0l0,.09-.07.19-.14.38-.29.79-.57,1.58q-1.59,4.24-3.34,8.43c-.35.82-.67,1.56-1.07,2.44a27.57,27.57,0,0,1-1.66,3.27,2.65,2.65,0,0,1-.25.35,3,3,0,0,1-.63.58,1.85,1.85,0,0,1-.29.22c-.06.07-.13-.05-.15-.08l-.09-.15a5.63,5.63,0,0,1-.65-2c-.13-1-.25-2-.35-3l-.24-2.1-.07-.51,0-.3a2.1,2.1,0,0,0-.1-.5l-.59.1-.13,0-.28,0-.57.06c-.75,0-1.5.08-2.27.07-.49,0-1,0-1.47-.07-1.86-.25-2.42-.65-2.6-1.3a1.93,1.93,0,0,1-.1-.45c0-.47.76-.53,1.94-.41a24.41,24.41,0,0,0,3.21.08c.55,0,1.1,0,1.65-.1l1.33-.13,1.77-.25c.21,1.82.43,3.67.64,5.52,0,0,0,.1,0,.09l0,0c0-.05,0,.16.24-.53Z"/><path class="cls-1" d="M420.39,141.93c-.06-.18.21-.17.69,0a2,2,0,0,1,.62.32,3.53,3.53,0,0,1,.21.34c0,.07-.08.8-.09,1.06a2.15,2.15,0,0,1-.19.67c-.19.42-.34.86-.5,1.3a.69.69,0,0,1-.17.26,1.89,1.89,0,0,0-.45,1c0,.06,0,.11,0,.18a2.77,2.77,0,0,1-.25,1.13,6,6,0,0,0-.52.82s0,.09-.1.11-.19.16-.22.25a2.18,2.18,0,0,1-.18.38.78.78,0,0,1-.26.16.76.76,0,0,1-.41,0c-.08-.07-.23,0-.35,0h-.13a3.55,3.55,0,0,1-.44-1s.08-1.23.1-1.42.06-.13.1-.2.12-1,.14-1.06.07-.41.3-.54c.05,0,.05-.07.06-.11a4,4,0,0,1,.42-.95,3,3,0,0,0,.19-.5s0-.05.07-.07a.43.43,0,0,0,.09-.1c.13-.39.38-.73.48-1.14,0-.1.4-.42.42-.53S420.42,142,420.39,141.93Z"/><path class="cls-1" d="M422.8,146.53c.09-.15.19.1.35.57a2.08,2.08,0,0,1,.1.69,1.79,1.79,0,0,1-.21.36,2.06,2.06,0,0,1-.49.2l-.68.16a2.25,2.25,0,0,1-.82,0,14.09,14.09,0,0,1-1.52-.41,1,1,0,0,1-.29-.18,2.88,2.88,0,0,0-1-.57c-.06,0-.11-.06-.19,0a2.63,2.63,0,0,1-1.13-.54c-.21-.28-.44-.52-.65-.79,0,0-.09,0-.08-.13s-.07-.24-.14-.31a1.26,1.26,0,0,1-.27-.33.72.72,0,0,1,0-.31.66.66,0,0,1,.24-.33c.1,0,.14-.18.21-.28l.07-.11a3.64,3.64,0,0,1,1,0l.52.22a5.73,5.73,0,0,0,.59.2c.06,0,.09.09.13.14s.83.25.85.25.33.09.41.32a.07.07,0,0,0,.08,0,4.49,4.49,0,0,1,.76.38,2.77,2.77,0,0,0,.41.12l.06.06s.05.06.08.06a2.58,2.58,0,0,0,.94.16c.07,0,.38.22.47.19S422.76,146.58,422.8,146.53Z"/><path class="cls-1" d="M146,263.31c-.06-.18.21-.17.69,0a2.54,2.54,0,0,1,.62.32c.08.13.16.25.21.35s-.09.8-.1,1.05a1.68,1.68,0,0,1-.19.67c-.18.43-.34.87-.49,1.3a1,1,0,0,1-.17.27,1.89,1.89,0,0,0-.45,1,.19.19,0,0,0,0,.18,3,3,0,0,1-.25,1.13,7.16,7.16,0,0,0-.53.82s0,.09-.09.11-.2.16-.23.25a1.37,1.37,0,0,1-.17.37c0,.07-.17.12-.26.17a.76.76,0,0,1-.41,0c-.08-.08-.23,0-.35-.05l-.13,0a3,3,0,0,1-.44-1s.08-1.22.09-1.41a.33.33,0,0,1,.11-.2s.12-1,.14-1.06c.07-.19.07-.41.3-.55,0,0,0-.07,0-.11a4.77,4.77,0,0,1,.43-.95c.08-.15.12-.33.19-.49s.05-.05.07-.07.07-.06.08-.1a9,9,0,0,0,.48-1.15c0-.09.41-.41.43-.52S146,263.39,146,263.31Z"/><path class="cls-1" d="M148.36,267.91c.09-.14.19.1.35.58a2,2,0,0,1,.09.69,1.39,1.39,0,0,1-.2.36,2.65,2.65,0,0,1-.49.2l-.69.16a2,2,0,0,1-.81,0,10.26,10.26,0,0,1-1.52-.41.92.92,0,0,1-.3-.18,2.81,2.81,0,0,0-1-.56c-.06,0-.11-.06-.2,0a2.59,2.59,0,0,1-1.12-.54c-.21-.28-.44-.52-.65-.79,0,0-.09,0-.08-.13a.26.26,0,0,0-.15-.31,1.76,1.76,0,0,1-.27-.33,1,1,0,0,1,0-.31c0-.1.2-.32.23-.33s.15-.19.22-.29l.07-.1a3.64,3.64,0,0,1,1,0l.51.21a4.44,4.44,0,0,0,.6.21c.06,0,.09.08.13.14s.82.24.85.25.32.09.4.31c0,.05.05.05.09.06a4.49,4.49,0,0,1,.76.38,3,3,0,0,0,.4.12s0,0,.06.06,0,.05.09.06a2.81,2.81,0,0,0,.94.16c.07,0,.38.21.47.19S148.32,268,148.36,267.91Z"/><path class="cls-1" d="M137.55,91.08c-.24-.1,0-.38.45-.79a2.22,2.22,0,0,1,.79-.37,2.59,2.59,0,0,1,.53.12,15.08,15.08,0,0,1,1.09,1.23,3.42,3.42,0,0,1,.58,1c.31.7.63,1.39.9,2.11a1.72,1.72,0,0,1,.11.51,5,5,0,0,0,.42,1.71c0,.09.05.19.16.26a5,5,0,0,1,.6,1.87c-.05.55-.05,1.08-.09,1.61,0,.07,0,.14-.05.23s-.15.34-.15.5a2.19,2.19,0,0,1,0,.67,1.21,1.21,0,0,1-.25.35.71.71,0,0,1-.5.07c-.13-.08-.29,0-.45,0l-.16,0a6.47,6.47,0,0,1-.91-1.18,1.74,1.74,0,0,1-.09-.27l-.19-.58c-.16-.42-.33-.86-.38-.94a.54.54,0,0,1,0-.31s-.58-1.28-.6-1.33c-.05-.27-.24-.5-.12-.84,0-.06,0-.11,0-.16a8.08,8.08,0,0,1-.41-1.4,5.79,5.79,0,0,0-.29-.68.75.75,0,0,1,0-.15.47.47,0,0,0,0-.17,10.19,10.19,0,0,0-.73-1.62c-.08-.11-.11-.81-.22-.94S137.65,91.12,137.55,91.08Z"/><path class="cls-1" d="M135.57,99.2c-.23.15-.39-.18-.44-.8a2.54,2.54,0,0,1,.15-.85,3.93,3.93,0,0,1,.32-.41s.26-.08.51-.17.53-.21.67-.28a2.55,2.55,0,0,1,.82-.27,11.42,11.42,0,0,0,1.75-.55,1.16,1.16,0,0,1,.42-.07,2.69,2.69,0,0,0,1.41-.46c.07,0,.16-.06.19-.18a5,5,0,0,1,1.43-.84,10.58,10.58,0,0,0,1.35-.32c.06,0,.1-.08.21,0s.34,0,.46,0a2.66,2.66,0,0,1,.56-.2,1.34,1.34,0,0,1,.4.08c.13,0,.31.36.31.41s.16.25.25.36a.91.91,0,0,1,.1.13,4.81,4.81,0,0,1-.68,1.36s-1.37,1.09-1.56,1.24a.62.62,0,0,1-.3.09c-.05,0-1.2.86-1.26.87-.28.11-.51.33-.87.24a.21.21,0,0,0-.17,0,6.22,6.22,0,0,1-1.46.47c-.26.06-.51.17-.76.25a.38.38,0,0,1-.15,0,.61.61,0,0,0-.19,0c-.3.09-.62.14-.93.21a5.35,5.35,0,0,0-1,.18c-.15.06-.9-.19-1.07-.14S135.65,99.13,135.57,99.2Z"/><path class="cls-1" d="M391,109.19c.16,0-.06.13-.47.42a2.38,2.38,0,0,1-.62.29,1.18,1.18,0,0,1-.4-.08,5,5,0,0,1-.6-.8,1.3,1.3,0,0,1-.22-.57c-.07-.4-.14-.78-.19-1.17a.5.5,0,0,1,0-.27,1.63,1.63,0,0,0,0-.9s0-.1-.07-.14-.11-.89,0-1c.14-.27.23-.54.35-.81,0,0,0-.08.1-.11a.29.29,0,0,0,.21-.24,2.08,2.08,0,0,1,.2-.35.6.6,0,0,1,.22-.14c.07,0,.25.05.27.07s.16,0,.24.06l.08,0s.48.56.53.63.21.82.28.92,0,.1,0,.15.25.68.24.71.08.27-.07.42,0,.06,0,.09a2.54,2.54,0,0,1,0,.73,2.25,2.25,0,0,0,.06.36.21.21,0,0,1,0,.07s0,.06,0,.09a3.22,3.22,0,0,0,.17.83c0,.07-.1.4-.05.45S390.91,109.17,391,109.19Z"/><path class="cls-1" d="M399.35,109.25c0,.17-.22.09-.7-.12a2.58,2.58,0,0,1-.61-.4,1.85,1.85,0,0,1-.18-.38,6,6,0,0,1,.26-1,1.7,1.7,0,0,1,.36-.63c.3-.36.6-.73.93-1.06a.55.55,0,0,1,.27-.17,2.17,2.17,0,0,0,.86-.62s.09-.08.08-.18.72-.79.89-.77c.36,0,.68-.12,1-.17.05,0,.07-.06.15,0a.35.35,0,0,0,.37.05,1.53,1.53,0,0,1,.43,0,1.22,1.22,0,0,1,.27.09.52.52,0,0,1,.18.29c0,.09.09.17.14.25a.47.47,0,0,1,.06.09,4.79,4.79,0,0,1-.12.49,3.88,3.88,0,0,1-.13.53l-.34.41a5.71,5.71,0,0,0-.35.5c0,.06-.1,0-.17.06s-.51.62-.53.64-.2.25-.45.2c0,0-.07,0-.09,0a3.23,3.23,0,0,1-.66.49,2,2,0,0,0-.29.29s-.06,0-.09,0-.08,0-.1,0c-.2.25-.5.43-.63.73,0,.07-.44.21-.46.3S399.32,109.18,399.35,109.25Z"/><path class="cls-1" d="M193.17,335s-9.13-2.2-5.34-4.09,7.57,1,7.57,1a4.48,4.48,0,0,0,0,4.66Z"/></g></svg>