<?xml version="1.0" encoding="UTF-8"?><svg id="Layer_1" xmlns="http://www.w3.org/2000/svg" width="520" height="520" viewBox="0 0 520 520"><defs><style>.cls-1,.cls-2,.cls-3,.cls-4,.cls-5{fill:#0056FF;}.cls-6{fill:#0056FF;}.cls-7{opacity:.2;}.cls-2{opacity:.15;}.cls-3{opacity:.3;}.cls-4{opacity:.45;}.cls-5{opacity:.4;}</style></defs><path class="cls-1" d="M264.8,491.93c-.49.05-.94-.02-1.35-.11-.42-.12-.8-.32-1.16-.43-.23-.07-.19-.15.08-.26.54-.22,1.09-.41,1.64-.51.34-.1,5.69-.49,7.5-.73,1.76-.22,3.52-.31,5.28-.36l10.75-.48c.8-.04,1.6-.05,2.39-.04,2.74.04,5.47-.07,8.21-.23.46-.03.92-.03,1.36-.13.72-.18,8.16-.44,9.12-.39,2.42.08,4.8.16,7.19.24.34.01.71-.02,1.02.08.73.22,1.46.18,2.2.19,1.03,0,2.06.1,3.08.2.51.05,1.01.21,1.51.31.45.1.2.34.04.38-.46.09-.09.22-.05.33.01.04.03.09,0,.12-.01.02-.39.08-.96.18-.57.08-1.33.18-2.1.29-1.55.19-3.18.33-3.5.34-.08,0-2.26.08-4.54.16-2.28.1-4.67.21-5.15.25-.51.04-1.02,0-1.53-.02-.24-.02-7.09.42-7.37.43-1.42.03-2.84.18-4.27.03-.28-.03-.57,0-.85.01-2.45.14-4.89.17-7.34.22-1.25.03-2.5.1-3.75.15-.23,0-.45-.01-.68-.02-.28,0-.57-.02-.85-.01-1.48.07-2.96.1-4.45.14l-2.22.06c-.74.01-1.48.02-2.23.03-.68.02-3.95-.22-4.74-.19-.44.01-1.89-.28-2.28-.24Z"/><path class="cls-1" d="M343.92,171.8c.6-.95,3.64-.1,4.35,1.89,1.58,4.46-2.71,8.23-5.22,8.23s5.84.05,6.8-4.63c.96-4.69-.28-8.84-.28-8.84,0,0-2.91-3.12-4.32-1.74-1.4,1.38-1.33,5.1-1.33,5.1Z"/><g class="cls-7"><path class="cls-6" d="M323.19,162.76c-.06,0-.11,0-.17-.02-1.55-.05-3.22-.71-4.57-1.75-1.31-1.01-2.44-2.56-3.28-4.25-1.64-3.4-2.46-7.6-3.25-11.68-.75-4.12-1.29-8.32-1.9-12.56-.61-4.24-1.38-8.51-2.44-12.76-1.11-4.22-2.38-8.55-4.88-12.28h0c-.28-.45-.55-.8-.63-.84-.36-.12-.67-.25-1.01-.37-1.01-.51-1.86-1.05-2.42-1.77-.06-.08-.04.03.03.33.1.37.18.74.25,1.12.1.36.18.73.25,1.09.1.37.21,1.11.51,1.8.2.53.42,1.05.61,1.59l.51,1.63,1.08,3.22c.36,1.07.62,2.19.93,3.28.25,1.12.53,2.23.75,3.35.92,4.51,1.44,9.14,2.12,13.81.65,4.67,1.3,9.41,2.36,14.14.52,2.35,1.1,4.75,2.05,7.16.94,2.39,2.26,4.8,4.28,6.79.59.59,1.22.97,1.47,1.02.4.09.8.14,1.19.19.33.04.5-.05.51-.21l.04-.54s.1-.03.27.03c.5.18,1,.34,1.51.45.42.08.65.07.65-.04.02-.29.93-.16,2.3-.09h.59c.42-.03.73-.08.86-.17.13-.08.08-.16-.14-.22-.19-.07-.11-.13.17-.19.6-.12.66-.3.2-.39-.16-.04-.31-.07-.46-.12-.15-.05-.19-.11-.11-.15.08-.03.25-.07.48-.09.42-.02.83-.11,1.23-.22.31-.12.52-.22.48-.29-.03-.05-.29-.05-.61.01-.25.02-.48.06-.72.05-.36.01-.74-.03-1.11-.08"/></g><g class="cls-7"><path class="cls-6" d="M330.44,167.33h-.04c-.41.1-.69.34-1,.52-.32.17-.57.41-.85.62-.55.4-1.09.74-1.64,1.01-.57.24-1.07.51-1.61.64-.56.16-1.13.15-1.72.15-.59,0-1.18-.13-1.71-.43h0c-.06-.04-.13-.05-.16-.04-.12.06-.24.11-.36.16-.36.11-.69.15-1.02.14-.04,0-.05.03-.05.1.01.17.02.36.04.54.01.1.08.25.17.41.61.88,1.51,1.57,2.5,2.01,1.01.4,2.09.53,3.18.48,1.13-.04,2.11-.38,3.03-.78.91-.42,1.77-.87,2.51-1.42.1-.09.15-.22.12-.32l-.14-.48c-.04-.13-.1-.25-.19-.35l-.28-.31s-.03-.07-.03-.11l.07-.36c.02-.1,0-.19-.06-.25-.15-.17-.15-.44,0-.66l.07-.09c.05-.07.07-.14.06-.2-.01-.06-.06-.11-.13-.13-.06-.02-.09-.08-.06-.13.07-.12.01-.23-.14-.26l-.15-.04c-.05-.01-.08-.04-.09-.08,0-.04.02-.07.06-.1l.25-.16c.07-.04.1-.09.06-.14-.03-.03-.12-.06-.21-.04l-.2.03c-.1.02-.2.04-.3.06"/></g><g class="cls-7"><path class="cls-6" d="M338.38,173.06l-.02.02c-.38.36-.84.61-1.29.89-.88.57-2.04.88-3.17.85-.58.02-1.11-.15-1.69-.19-.58-.08-1.08-.34-1.67-.55h0c-.07-.02-.15-.03-.18,0-.13.09-.26.16-.38.23-.37.18-.72.29-1.03.34-.03,0-.05.04-.04.11l.04.54c0,.1.06.26.14.41.58.79,1.41,1.34,2.27,1.81.22.1.44.21.67.3.23.07.47.12.71.17.48.11.96.16,1.45.19.97.06,1.95-.06,2.91-.31.48-.12.95-.31,1.42-.51.46-.22.92-.46,1.28-.84.11-.1.17-.23.15-.32l-.11-.43c-.03-.12-.1-.22-.18-.29l-.26-.23s-.03-.05-.03-.09l.05-.34c.01-.09-.01-.17-.07-.21-.15-.13-.16-.35-.06-.57l.04-.1c.03-.07.03-.14,0-.19-.03-.05-.08-.08-.14-.09-.05,0-.09-.05-.08-.11.01-.12-.07-.2-.19-.2h-.12s-.07-.02-.09-.05c-.02-.03-.02-.07,0-.1l.11-.19c.03-.05.02-.1-.02-.13-.04-.03-.11-.03-.16,0l-.12.07c-.06.03-.11.07-.16.12"/></g><path class="cls-4" d="M260.17,70.75c.29.63,31.95-34.41,67.12-34.41,32.83,0,38.86,14.95,44.89,20.6,6.02,5.65,19.86,29.05,23.99,48.75,4.13,19.71-3.12,12.37-3.12,12.37,0,0-2.15-13.09-21.35-15.89-19.2-2.8-27.11-.1-27.11-.1,0,0-7.18-12.73-17.34-16.69s-16.25-6.1-26.79-2.8c-10.54,3.29-12.09.13-14.66-1.51-2.57-1.65-10.53-9.62-16.72-9.59-6.19.03-8.92-.74-8.92-.74Z"/><path class="cls-1" d="M337.74,33.97c-.2-.22-.38-.46-.53-.72-.08-.13-.14-.27-.21-.4-.07-.15-.14-.32-.18-.48-.06-.24-.16-.45-.17-.69,0-.82.24-1.55.71-2.13.21-.25.41-.5.66-.72.31-.28.78-.52,1.21-.35.14.05.1.36.06.7-.05.33-.05.71-.06.78-.09.24.01.45-.35.74-.2.19-.08.46-.05.66.02.12.04.21.07.33.05.14.11.28.2.42.11.17.23.34.4.48.25.22.54.44.88.55.27.08.57.06.86.08.06,0,.13,0,.19,0,.23.06.26.22.18.73l-.06.35c-.08.39-.27.69-.49.77-.33.13-.67.18-1.01.18-.34,0-.66-.14-.98-.28-.48-.22-.95-.55-1.38-.97l.04-.04Z"/><path class="cls-1" d="M300.81,456.94c-.99.05-1.97.09-2.96.14-.36.02-.71.08-1.07.09-1.27.02-2.54.03-3.81-.05-.56-.02-1.13,0-1.68.02-.71.08-1.44-.05-2.15-.25-.22-.07-.19-.17,0-.34.19-.16.53-.47.93-.63.36-.17.71-.2,1.07-.23.36-.03.71-.07,1.07-.1.72-.05,1.43-.1,2.16-.04.87.08,1.77-.08,2.66-.13l2.93-.18c.6-.05,1.2-.09,1.8-.15.91-.09,1.82-.18,2.71-.34.69-.13,1.35-.38,2.02-.57.15-.03.29-.08.44-.1.56-.09.77.01.97.4.05.09.1.18.14.27.12.3-.06.62-.45.84-.29.16-.59.32-.89.46-.31.11-.63.2-.95.28-.64.16-1.3.27-1.96.37-.98.14-1.98.23-2.97.32v-.04Z"/><path class="cls-1" d="M310.51,481.93c-.61.53-1.28.95-1.95,1.33-.24.14-.47.29-.72.41-.89.4-1.77.73-2.63,1.11-.38.17-.75.37-1.11.57-.47.25-.88.61-1.48.6-.2-.02-.23-.13-.21-.4,0-.31.08-.71.32-.9.93-.56,1.89-1.05,2.93-1.42.62-.22,1.18-.6,1.74-.91.62-.35,1.23-.69,1.77-1.12.33-.26.65-.54.92-.86.41-.48.77-1.03.95-1.63.15-.47.12-.95.05-1.39-.01-.1-.05-.19-.06-.28-.02-.35.16-.51.39-.67.06-.04.11-.08.17-.11.17-.1.43,0,.7.34.55,1.05.27,2.35-.22,3.37-.37.77-.93,1.45-1.54,2l-.03-.03Z"/><path class="cls-1" d="M323.03,339.22c.94-.05,1.9-.03,2.87.05.36.06.72.03,1.07.12,1.26.29,2.54.87,3.36,2.14.31.57.49,1.17.47,1.78-.02.39-.1.79-.31,1.14-.2.35-.56.64-.94.73-.24.06-.24-.12-.2-.38.07-.25.04-.6.03-.81.04-.4-.16-.82-.3-1.16-.09-.17-.19-.31-.29-.42-.12-.1-.34-.29-.52-.43-.46-.43-1.21-.5-1.91-.6-.78-.12-1.63-.13-2.47-.09-.52.03-1.05.08-1.58.16-.8.11-1.61.22-2.39.45-.61.18-1.16.48-1.75.69-.13.05-.25.11-.39.15-.5.14-.7.07-.93-.32-.05-.09-.11-.17-.16-.26-.15-.3-.03-.63.3-.88.48-.35.99-.7,1.54-.96.56-.24,1.14-.44,1.73-.62.88-.26,1.81-.44,2.76-.53v.05Z"/><path class="cls-1" d="M279.26,277.78l-14.3,1.18s-.45-5.64-3.6,6.02c-3.15,11.66-19.61,76.14-19.61,76.14,0,0-14.72,56.07-15.86,62.3s-4.07,14.06,0,19.27,18.95,8.55,23.23,9.26c4.28.71,23.47,4.14,28.27,4.14s29.88-3.24,37.84-4.78,23.21-7.37,24.75-8.62c1.54-1.26.77-7.79.77-7.79l-10.6-49.46-8.15-32.12-4.09-14.3s-34.31,0-43.63,2.67c-9.32,2.67-9.32-3.58-8.07-11.74s6.63-25.33,6.63-25.33l6.43-26.83Z"/><path class="cls-1" d="M237.18,247.57c.94.08,1.88.13,2.83.15.35,0,.69-.05,1.04-.04,1.22,0,2.46.08,3.7.05.55,0,1.1-.04,1.64-.09.35-.02.69-.09,1.05-.08.36.02.72.07,1.07.12.22.04.2.09.03.24-.17.14-.47.45-.85.66-1.38.49-2.8.75-4.27.72-.87,0-1.77.14-2.66.16-.98.02-1.97,0-2.95-.04-.61-.03-1.21-.07-1.82-.11-.92-.06-1.83-.19-2.74-.26-.71-.07-1.42-.04-2.13-.08-.16,0-.31,0-.47-.03-.58-.09-.73-.26-.73-.78,0-.12,0-.24,0-.36.04-.4.34-.66.76-.69,1.23-.07,2.45.08,3.7.19.93.09,1.86.19,2.81.22v.05Z"/><path class="cls-1" d="M198.12,192.91c-.69.21-1.4.38-2.12.5-.26.04-.51.13-.78.14-.94.02-1.87-.06-2.76-.24-.4-.07-.79-.16-1.17-.26-.49-.13-.98-.31-1.39-.63-.13-.1-.05-.2.13-.27.18-.06.45-.13.71-.08.92.2,1.82.2,2.75.24.56.03,1.13-.17,1.68-.3.62-.12,1.23-.3,1.84-.52.37-.14.75-.28,1.11-.46.55-.27,1.12-.51,1.63-.86.4-.26.72-.63,1.08-.95.08-.06.16-.14.25-.19.34-.2.51-.16.82.15.07.07.14.14.21.21.21.25.23.57.06.85-.13.2-.25.4-.4.59-.16.16-.33.32-.51.46-.36.29-.75.55-1.16.79-.6.37-1.29.63-1.97.87l-.02-.04Z"/><path class="cls-1" d="M209.12,189.14c-.56-.45-1.08-.79-1.67-.74-.26,0-.5.09-.76.15-.93.17-1.91.59-2.82,1.13-.4.24-.78.53-1.15.82-.23.19-.47.39-.73.55-.26.17-.52.33-.86.4-.2.05-.18.03-.13-.16.03-.1.05-.25.09-.43.04-.17.13-.32.24-.46.37-.53.88-.91,1.36-1.32.5-.4,1.04-.77,1.64-1.07.71-.34,1.43-.83,2.29-1.01.45-.11.96-.16,1.51-.09.53.09.99.3,1.4.54.5.31.94.66,1.33,1.04.61.56,1.13,1.19,1.67,1.78.41.46.91.84,1.28,1.31.09.1.18.19.26.3.29.4.3.58.1.9-.05.07-.08.15-.14.21-.17.21-.47.2-.81,0-.48-.32-1.01-.6-1.39-1-.39-.39-.77-.78-1.12-1.19-.53-.59-1.05-1.19-1.61-1.62l.02-.03Z"/><path class="cls-1" d="M258.04,301.5c-.74,2.71-1.53,5.41-2.36,8.09-.29.98-.56,1.97-.89,2.94-1.14,3.42-2.35,6.82-3.58,10.21-.52,1.51-1.05,3.03-1.56,4.53-.72,1.91-1.3,3.87-2.29,5.68-.3.57-.36.45-.37-.12,0-.37,0-.78,0-1.18.03-.48.13-1.01.29-1.58,1.07-4.02,2.53-7.9,3.96-11.83.88-2.34,1.56-4.86,2.31-7.3.84-2.68,1.68-5.37,2.45-8.08.48-1.66.94-3.33,1.37-5.01.66-2.54,1.28-5.1,1.8-7.65.37-1.99.66-3.95,1.01-5.92.07-.43.14-.86.22-1.3.14-.81.25-1.34.38-1.71.15-.36.28-.57.42-.72.07-.07.13-.17.18-.21.09-.07.14.07.18.38.04.31.1.79.05,1.4-.1,1.8-.28,3.65-.5,5.52-.3,1.85-.65,3.72-1.05,5.59-.59,2.77-1.27,5.53-1.99,8.27h-.04Z"/><path class="cls-1" d="M264.72,270.63c-.13.87-.26,1.74-.27,2.59,0,.31.03.62.05.92.06,1.07.36,2.13,1.05,2.95.3.37.69.67,1.11.89.55.26,1.17.41,1.79.34.2-.02.19.03.03.13-.15.11-.47.26-.89.28-1.45,0-2.96-.89-3.52-2.3-.35-.8-.62-1.66-.72-2.52-.1-.94-.07-1.87-.01-2.78.04-.56.09-1.12.14-1.68.08-.84.23-1.68.33-2.52.08-.65.08-1.3.14-1.95.01-.14,0-.29.03-.43.08-.53.22-.67.65-.69.1,0,.2-.02.29,0,.32.02.53.29.54.68.02,1.15-.16,2.31-.32,3.48-.13.87-.25,1.74-.38,2.62h-.03Z"/><path class="cls-1" d="M262.66,276.88c.02-.19.05-.38.1-.55.01-.06,0-.13.03-.19.08-.22.19-.41.3-.59.05-.08.08-.16.12-.25.04-.11.08-.23.21-.28.07-.03.51.4.5.48-.04.16-.07.29-.19.43-.07.09-.03.2-.04.3,0,.11-.01.23,0,.34,0,.07,0,.14.03.21.02.1.03.22.1.31.06.07.17.09.26.11.02,0,.05,0,.06,0,.06.03,0,.09-.21.33l-.15.16c-.17.18-.34.3-.44.28-.31-.04-.5-.27-.6-.52-.08-.18-.1-.38-.1-.58h.03Z"/><path class="cls-1" d="M279.44,272.09c-.26.74-.57,1.46-.98,2.15-.14.25-.28.51-.44.74-.61.81-1.36,1.52-2.2,2.06-.36.26-.78.44-1.18.62-.52.22-1.09.37-1.66.32-.18-.01-.16-.15-.04-.31.12-.16.33-.38.58-.5.46-.2.87-.47,1.26-.76.4-.26.82-.52,1.23-.84.49-.38.83-.93,1.16-1.46.37-.58.65-1.22.89-1.9.14-.41.27-.84.36-1.27.14-.65.26-1.33.29-2,.03-.52-.06-1.05-.09-1.57,0-.12-.03-.23-.03-.34,0-.43.11-.56.48-.64.09-.02.17-.04.26-.05.29-.03.52.15.6.48.27.96.2,1.97.07,3-.11.76-.29,1.53-.52,2.29h-.03Z"/><path class="cls-1" d="M308.43,279.29c-1.71-.53-3.41-1.11-5.07-1.76-.61-.22-1.23-.42-1.84-.67-2.12-.88-4.17-1.93-6.17-3.03-.89-.48-1.81-.93-2.68-1.42-1.1-.67-2.32-1.17-3.18-2.24-.25-.36-.22-.3.18-.31.43-.06,1.19-.13,1.86.16,2.41.98,4.68,2.16,6.98,3.39,1.38.74,2.91,1.28,4.39,1.85,1.63.64,3.28,1.24,4.96,1.77,1.03.33,2.07.64,3.12.9,1.59.41,3.19.79,4.8,1.03,1.25.18,2.5.24,3.74.31l.82.04c1.02.09,1.33.3,1.52.76.04.11.1.21.12.32.07.34-.37.6-1.15.7-2.31.18-4.74.01-7.13-.47-1.78-.33-3.54-.78-5.28-1.27v-.05Z"/><path class="cls-1" d="M337.13,274.75c-.6,1.24-1.38,2.42-2.36,3.44-.35.38-.72.75-1.14,1.04-1.49,1.07-3.21,1.65-4.92,1.94-.76.14-1.53.18-2.29.21-.97.03-1.95-.05-2.89-.28-.29-.07-.24-.16.03-.27.26-.09.73-.23,1.27-.27.95-.07,1.87-.21,2.77-.42.9-.17,1.79-.36,2.67-.65,1.05-.34,2-1.01,2.81-1.76.92-.8,1.7-1.78,2.32-2.88.39-.67.71-1.39.99-2.13.41-1.12.75-2.29.92-3.47.14-.92.13-1.83.11-2.74l-.03-.6c-.01-.75.04-.98.38-1.17.08-.04.15-.1.23-.13.26-.1.5.2.62.79.31,1.72.23,3.59-.13,5.41-.28,1.35-.73,2.67-1.32,3.94h-.04Z"/><path class="cls-1" d="M293.28,248.36c-.06,1.13-.19,2.25-.35,3.36-.07.4-.06.82-.15,1.22-.32,1.41-.74,2.79-1.2,4.13-.19.6-.41,1.19-.61,1.78-.14.38-.26.76-.42,1.12-.12.38-.46.69-.69,1.02-.17.2-.21.15-.29-.1-.06-.18-.12-.37-.17-.52-.04-.13-.08-.24-.11-.34-.02-.06-.03-.12-.05-.18,0-.06.01-.11.02-.17.13-.78.25-1.56.38-2.34.17-.76.44-1.49.69-2.25.32-.9.34-1.89.48-2.84.15-1.05.27-2.1.32-3.16.03-.65.05-1.31.03-1.96-.03-.95-.17-1.91-.5-2.79-.27-.68-.72-1.25-1.19-1.75l-.32-.31c-.35-.42-.4-.63-.19-1.08.05-.1.08-.21.14-.31.17-.32.59-.39,1.08-.13,1.45.81,2.39,2.4,2.87,4,.33,1.22.31,2.5.29,3.6h-.05Z"/><path class="cls-1" d="M295.37,246.07c1-.45,2.05-.41,2.91-.31.32.04.63.04.93.11,1.04.26,1.98.57,2.94.96.42.16.86.27,1.28.39.55.13,1.07.43,1.57.73.15.1.11.16-.06.24-.17.07-.5.24-.85.29-.62.12-1.17.05-1.74-.02-.56-.07-1.11-.16-1.66-.32-.64-.24-1.37-.26-2.01-.33-.7-.08-1.37-.1-1.96.07-.36.09-.72.24-1.03.48-.47.36-.9.88-1.17,1.49-.21.48-.26,1.01-.34,1.54-.02.12-.03.23-.06.34-.13.42-.3.52-.79.5-.11,0-.22,0-.33-.02-.36-.05-.61-.3-.66-.68-.18-1.11.14-2.24.76-3.38.47-.83,1.24-1.65,2.22-2.13l.03.05Z"/><path class="cls-1" d="M304.04,247.43c.77.43,1.55.84,2.27,1.35.27.18.56.3.82.49.46.34.9.67,1.36,1.04.47.36.91.8,1.26,1.31.32.44.62.94.76,1.47.2.66.17,1.46-.27,2.02-.14.17-.21.08-.26-.13-.05-.21-.17-.5-.25-.77-.26-1.04-1.09-1.45-1.94-2.17-.51-.46-1.28-.72-1.94-1.06-.74-.37-1.47-.77-2.21-1.16-.46-.24-.92-.47-1.39-.67-.71-.31-1.43-.63-2.18-.83-.58-.15-1.19-.16-1.78-.24-.13-.01-.26,0-.39-.03-.48-.1-.59-.29-.55-.9,0-.14,0-.28.03-.42.06-.46.35-.79.75-.85.59-.08,1.19-.08,1.78,0,.59.09,1.15.27,1.72.46.84.29,1.65.67,2.45,1.05l-.02.05Z"/><path class="cls-1" d="M275.62,202.83c-.43.49-.85.99-1.28,1.48-.16.18-.28.39-.45.56-.58.62-1.19,1.21-1.79,1.8-.27.26-.53.52-.79.79-.17.17-.32.35-.51.5-.2.14-.41.26-.63.38-.14.07-.17,0-.18-.17,0-.17,0-.49.1-.76.48-.84,1.05-1.57,1.77-2.2.43-.38.73-.9,1.07-1.36.38-.51.77-1.03,1.15-1.54.23-.33.49-.64.74-.97.38-.49.81-.95,1.24-1.42.34-.36.64-.77,1.05-1.12.09-.08.17-.17.27-.23.37-.24.56-.18.8.2.06.09.12.17.16.26.15.31.12.64-.04.81-.48.56-.97,1.01-1.5,1.6-.39.43-.79.9-1.17,1.4l-.03-.02Z"/><path class="cls-1" d="M330.32,178.19c-.77-.31-1.67-.72-2.41-1.46-.27-.27-.58-.56-.77-1.01-.18-.39-.24-.92-.09-1.37.12-.47.41-.8.62-1.01.39-.33.77-.66,1.16-.99.33-.29.61-.62.9-.93.37-.41.72-.83,1.21-1.15.15-.1.31.07.41.34.1.27.16.68,0,.96-.53,1.02-1.2,1.94-2.05,2.7-.26.22-.33.39-.29.4.03.02.03.05.12.21.21.36.74.75,1.37,1.01.39.17.82.31,1.25.43.66.17,1.34.34,2.02.38.53.03,1.07-.09,1.58-.18.11-.02.22-.06.34-.07.41-.05.54.14.66.74.03.14.06.28.08.41.07.46-.1.87-.46,1.04-1.06.42-2.16.37-3.24.21-.81-.12-1.61-.34-2.42-.61v-.05Z"/><path class="cls-1" d="M319.48,168.72c.47-.45.98-.81,1.53-1.03.2-.08.37-.2.57-.27.7-.22,1.39-.32,2.04-.46.29-.05.57-.12.84-.2.35-.1.7-.2,1.08-.23.12,0,.16.11.13.29-.03.18-.12.45-.3.6-.64.53-1.35.82-2.08.93-.44.07-.8.33-1.17.54-.4.23-.78.45-1.12.73-.2.17-.39.36-.54.58-.21.31-.37.7-.37,1.09.01.3.18.58.35.76.04.04.08.08.11.12.1.15.04.26-.26.6l-.2.24c-.22.26-.55.36-.83.17-.86-.58-1.02-1.76-.81-2.66.14-.7.55-1.36.99-1.83l.03.03Z"/><path class="cls-1" d="M320.61,172.59c-.2-.46-.34-.93-.4-1.44-.02-.18-.07-.35-.07-.54,0-.32.06-.63.14-.93.08-.3.25-.57.4-.83.13-.23.28-.45.43-.65.19-.26.44-.51.76-.61.1-.03.15.08.18.24.02.16.04.38-.01.51-.22.47-.25.93-.4,1.37-.14.27-.08.59-.05.88.02.32.1.65.24.98.08.2.18.4.31.58.19.28.4.56.69.76.22.15.49.23.74.32.05.02.12.03.17.05.19.1.2.22.06.6l-.1.26c-.12.28-.33.46-.55.46-.64-.01-1.27-.29-1.7-.78-.34-.35-.62-.77-.86-1.21l.03-.02Z"/><path class="cls-1" d="M264.63,134.98c-.45.24-.91.45-1.4.61-.18.06-.35.13-.53.17-.65.12-1.3.13-1.94.03-.28-.04-.56-.13-.82-.21-.34-.11-.67-.29-.91-.56-.08-.08,0-.15.14-.2.14-.04.34-.09.51-.06.3.07.59.08.88.09.29,0,.57.07.88.08.37.03.74-.11,1.09-.24.39-.13.77-.31,1.14-.54.22-.14.45-.29.68-.44.34-.24.67-.5.96-.8.22-.24.39-.52.58-.78.04-.06.08-.12.13-.17.19-.19.3-.21.52-.1.05.03.1.05.14.07.15.1.19.28.12.48-.19.62-.59,1.11-1.03,1.61-.33.35-.7.71-1.13.98l-.02-.02Z"/><path class="cls-1" d="M269.45,180.04c.74-.84,1.54-1.61,2.47-2.28.33-.24.64-.52,1-.73,1.29-.68,2.69-1.1,4.11-1.27.62-.11,1.27-.08,1.89-.07l.6.05c.2.04.4.1.59.16.19.07.38.16.56.24.19.07.32.32.47.45.17.22.16.14-.07.22-.12.04-.29.15-.5.32-.2.13-.39.22-.59.27-.7.22-1.31.25-1.93.43-.62.09-1.27.13-1.95.24-.82.12-1.53.65-2.24,1.09-.79.48-1.52,1.08-2.19,1.78-.41.43-.81.88-1.16,1.38-.55.73-1.08,1.51-1.47,2.35-.31.65-.47,1.35-.68,2.04-.05.15-.07.31-.14.45-.26.53-.45.66-.9.63-.1,0-.2,0-.3-.02-.32-.05-.49-.38-.5-.86.01-1.41.5-2.77,1.11-4.11.45-.99,1.05-1.95,1.77-2.81l.05.03Z"/><path class="cls-1" d="M268.67,184.36c.36-1.21.91-2.39,1.63-3.44.26-.38.52-.77.84-1.11,1.13-1.18,2.49-2.16,4.03-2.68.68-.22,1.38-.4,2.08-.5.89-.18,1.88.03,2.65.49.24.15.19.14-.04.14-.24-.01-.68.11-1.13.26-.4.15-.78.21-1.16.3-.38.11-.76.23-1.12.38-.36.15-.72.31-1.07.49-.36.16-.73.32-1.09.5-.87.45-1.57,1.23-2.2,2.01-.69.86-1.31,1.8-1.73,2.86-.26.65-.47,1.32-.61,2.01-.21,1.05-.31,2.14-.22,3.21.06.83.27,1.63.48,2.42l.16.52c.18.65.12.88-.18,1.12-.07.05-.14.12-.21.16-.24.14-.54-.07-.78-.56-.62-1.45-.89-3.14-.87-4.83.02-1.26.16-2.53.5-3.77h.04Z"/><path class="cls-1" d="M292.3,105.12c-1.54-.48-9.45-.68-13.78,3.28-4.33,3.96-1.04,7.21,0,8.12s5.54,6.05,10.1,5.42c4.56-.63,7.45-1.15,7.45-1.15,0,0-1.98,3.72,1.11,6.87,3.09,3.15,6.75,4.65,6.75,4.65,0,0,2.41,5.87.92,8.96s-5.05,11.37-5.81,13.63-3.04,8.19-2.36,11.18,2.01,7.45,3.78,9.43,8.59,4.49,9.68,4.43,7.11-2.2,7.11-2.2l4-3.54s-4.52-3.95-4.52-6.03-4.42-5.38-4.42-5.38c0,0-3.23-3.86-4.2-7-.98-3.14-1.96-14.51-1.96-14.51,0,0-.58-13.58-1.29-13.61s-2.2-9.56-4.76-13.75c-2.56-4.19-7.8-8.79-7.8-8.79Z"/><path class="cls-1" d="M272.39,482.21c2.32-1.71,4.7-3.22,7.09-4.72.87-.54,1.7-1.15,2.58-1.67,1.55-.93,3.12-1.82,4.68-2.7l1.04-.59c.07-.05.17-.08.23-.15.04-.08.05-.17.06-.26l.02-.17.03-.32.04-.65.04-1.32c.02-1.57-.08-3.16-.24-4.71-.22-2-.62-3.95-.51-5.96.12-.66.27-.64.87-.24.32.2.66.53,1.04.94.35.42.62.95.78,1.54.06.26.14.52.19.79l.11.8c.07.53.12,1.06.17,1.59.09,1.06.16,2.12.19,3.18.03,1.06.04,2.12-.01,3.2l-.05.82-.03.42-.03.29-.04.35c-.12.44-.17.92-.46,1.25-.27.34-.72.58-1.08.8-2.24,1.22-4.36,2.68-6.54,4.02-2.38,1.47-4.75,2.96-7.03,4.55-1.39.98-2.78,2-3.97,3.13l-.35.35-.21.22c-.13.14-.25.29-.35.46-.1.17-.19.36-.14.56.05.2.25.3.44.34.33.09.61.12,1.1.18.58.06,1.16.1,1.74.12,1.99.04,3.95-.19,5.86-.51.42-.06.82-.18,1.23-.25,1.53-.3,1.92-.33,2.51.26.13.12.29.23.39.36.17.21.15.47-.09.8-.23.35-.71.61-1.33.84-1.85.6-3.76.87-5.69.96-.96.05-1.94.05-2.91.03-.49,0-.98,0-1.48-.03l-.38-.02c-.13,0-.21,0-.47-.04-.44-.06-.89-.08-1.32-.18-.48-.14-1.01-.24-1.42-.46-.39-.28-.75-.62-.97-1.12-.22-.49-.27-1.02-.19-1.53.09-.52.31-1.04.63-1.56.18-.25.35-.51.56-.74l.3-.36.25-.26c1.01-1.03,2.05-1.86,3.09-2.67l.05.05Z"/><path class="cls-1" d="M284.54,490.41l-1.19-.27-.79-.47-.4-.23c-.12-.08-.19-.2-.29-.3-.15-.24-.31-.56-.35-.87-.06-.3-.02-.6.03-.89.13-.58.44-1.19.93-1.78l.35-.44.41-.42c.25-.27.6-.61.73-.71,1.36-1.21,2.74-2.25,4.13-3.28,1.08-.8,2.11-1.65,3.2-2.41,1.91-1.35,3.84-2.67,5.66-4.04l.66-.51.32-.26.15-.15c.2-.23.39-.64.51-1.12.25-.96.31-2.08.3-3.19,0-2-.29-4.05-.64-6.05-.45-2.58-1.17-5.13-1.09-7.87,0-.85.18-.76.63-.14.28.38.6.81.94,1.27.18.27.41.55.58.87.16.32.3.66.42,1.03.79,2.61,1.37,5.29,1.78,8.07.2,1.39.31,2.82.19,4.32-.05.75-.15,1.52-.36,2.33-.23.8-.56,1.71-1.4,2.53-.42.38-.71.58-1.07.86l-1.02.77c-.67.5-1.35,1-2.03,1.51-1.34.99-2.69,1.99-4.03,2.98-1.48,1.07-2.95,2.14-4.35,3.25-.35.28-.7.56-1.03.85-.32.27-.74.65-.8.7-.26.26-.66.55-.68.98.02.14.16.2.27.23l.37.1c.18.06.38.08.58.1l.5.06c.19.03.39.03.6.03h1.2c.4,0,.81-.04,1.22-.06,3.3-.24,6.64-1,9.83-1.98,2.49-.78,4.84-1.82,7.2-2.87.51-.24,1.02-.47,1.54-.71,1.94-.85,2.62-.96,3.34-.47.17.11.36.21.49.34.43.43-.17,1.25-1.57,2.03-4.15,2.31-8.84,4.09-13.76,5.35-1.84.45-3.7.83-5.63,1.06-.47.08-.97.09-1.46.13-.49.04-.97.08-1.48.07-.5,0-1,.01-1.5,0l-.86-.08c-.45-.04-.91-.07-1.31-.17l.03-.07Z"/><path class="cls-1" d="M311.64,465.8l.77,5.91c.1.72.27,1.42.35,2.15.27,2.55.49,5.11.57,7.68.06,1.14.15,2.28.27,3.4.05.73.07,1.45.08,2.18,0,.36-.03.73-.06,1.1,0,.18-.06.37-.13.55-.07.18-.12.36-.2.55-.24.45-.3.39-.68.02-.26-.25-.53-.52-.78-.76-.26-.31-.42-.68-.5-1.08-.14-.71-.3-1.42-.4-2.13l-.22-2.15c-.13-1.44-.26-2.88-.28-4.35,0-1.76-.43-3.55-.68-5.33l-.85-5.89-.56-3.63c-.29-1.83-.53-3.69-.89-5.5-.27-1.41-.7-2.77-1.03-4.16-.08-.3-.13-.61-.16-.92-.04-.59-.03-.98.08-1.27.13-.29.31-.48.58-.64.12-.07.23-.17.35-.21.19-.08.39-.02.61.16.22.18.5.48.66.88.25.6.59,1.19.76,1.81.19.62.35,1.25.52,1.88.32,1.27.59,2.57.86,3.87.39,1.94.74,3.9,1.05,5.87l-.07.02Z"/><path class="cls-1" d="M199.13,189.04c-.32-.46-.64-.93-.95-1.39-.12-.17-.28-.29-.39-.47-.36-.65-.6-1.37-.91-2-.13-.29-.3-.54-.45-.81-.23-.31-.38-.68-.45-1.1-.02-.13.1-.19.31-.2.2,0,.53,0,.74.11.67.47,1.19.99,1.59,1.62.22.4.68.61.96.96.33.38.67.77,1.01,1.15.21.24.43.48.66.7.35.34.67.73,1.06,1.03.31.23.71.34,1.08.51.08.04.18.06.25.1.14.08.18.19.11.37-.06.17-.18.36-.38.62l-.27.35c-.31.37-.71.61-1.06.67-.81-.09-1.36-.5-1.89-.98-.39-.35-.7-.8-1.06-1.22l.04-.05Z"/><path class="cls-1" d="M271.73,249.94c-1.08,1.46-2.5,2.93-4.45,3.73-.35.14-.69.25-1.03.38-.34.09-.69.18-1.03.23-2.45.28-4.84-.25-6.88-1.4-.88-.54-1.77-1.09-2.49-1.84-.87-.97-1.73-2.09-1.74-3.45-.04-.41.25-.43.73-.29.24.07.54.18.84.3.3.13.62.26.8.49.16.2.33.39.53.55.2.16.35.36.56.49.21.13.35.33.54.48.19.15.38.3.57.45.8.56,1.7,1.01,2.71,1.36,1.21.44,2.61.23,3.81-.09.67-.19,1.25-.42,1.79-.84.56-.38,1.09-.88,1.57-1.46.6-.7,1.13-1.51,1.6-2.35.69-1.29,1.33-2.67,1.75-4.1.33-1.11.41-2.27.54-3.41.03-.25.02-.5.08-.75.22-.91.48-1.15,1.31-1.21.18-.01.36-.04.53-.04.56,0,1.06.51,1.13,1.27.17,1.15-.01,2.26-.22,3.39-.23,1.12-.58,2.24-.99,3.34-.63,1.64-1.45,3.24-2.51,4.78l-.07-.04Z"/><path class="cls-1" d="M284.89,199.7l2.18-6.63c.27-.81.45-1.64.72-2.45.98-2.85,1.97-5.7,2.95-8.55.42-1.27.82-2.56,1.17-3.84.48-1.63.73-3.36,2.12-4.71.38-.43.4-.35.6.18.1.27.28.66.53,1.14.18.46.24.95.21,1.45-.64,3.41-1.7,6.68-3,9.95-.78,1.95-1.21,4.09-1.82,6.15-.66,2.26-1.41,4.51-2.19,6.74l-1.43,4.13c-.72,2.08-1.5,4.16-2.19,6.23-.53,1.62-.9,3.25-1.35,4.88-.1.36-.18.72-.3,1.07-.23.65-.4,1.08-.68,1.31-.34.21-.65.29-1.01.31-.17,0-.34.04-.48.02-.25-.03-.41-.2-.54-.52-.12-.32-.33-.81-.17-1.29.58-2.96,1.59-5.91,2.5-8.91.7-2.22,1.43-4.45,2.11-6.69l.08.02Z"/><path class="cls-1" d="M271.77,207.76c-.85,1.05-1.74,2.06-2.71,3.01-.34.36-.66.73-1.04,1.05-1.33,1.13-2.77,2.12-4.31,2.94-.65.41-1.37.71-2.05,1.04-.46.18-.91.38-1.37.54-.5.07-1,.09-1.52.02-.32-.06-.29-.12-.12-.43.17-.32.45-.93.83-1.31.37-.27.75-.49,1.12-.72.37-.23.72-.51,1.09-.74.77-.41,1.54-.83,2.34-1.29.97-.52,1.7-1.42,2.49-2.21l1.29-1.35c.4-.48.83-.93,1.21-1.43.48-.6.96-1.22,1.38-1.87.66-.97,1.3-1.98,1.8-3.04.37-.83.58-1.73.81-2.6.05-.19.1-.38.17-.57.27-.68.55-.82,1.27-.72.16.02.33.04.49.07.53.13.84.58.82,1.19,0,.91-.24,1.77-.56,2.6-.31.84-.71,1.65-1.15,2.45-.66,1.18-1.43,2.31-2.24,3.4l-.06-.04Z"/><path class="cls-1" d="M351.56,174.58c-.06,1.59-.46,3.31-1.42,4.71-.19.25-.36.5-.53.75-.18.25-.4.45-.62.66-1.53,1.35-3.57,2.18-5.53,2.12-.87,0-1.71-.08-2.52-.22-.51-.13-1.02-.28-1.5-.48-.48-.19-.94-.44-1.34-.81-.25-.22-.19-.26.13-.37.16-.06.38-.14.66-.25.26-.09.54-.13.82-.13.49.02.98,0,1.44-.02.46-.02.89.05,1.32.03.86-.01,1.65-.1,2.48-.24.98-.2,1.89-.99,2.54-1.74.74-.83,1.16-1.91,1.28-3.11.09-.74.05-1.52-.07-2.3-.18-1.18-.49-2.39-1-3.51-.38-.88-.94-1.66-1.46-2.46-.12-.18-.25-.34-.35-.52-.32-.71-.25-1.04.25-1.51.12-.11.22-.23.34-.32.4-.31.94-.23,1.44.18.75.61,1.26,1.41,1.79,2.22.24.42.49.84.69,1.3.18.46.36.92.51,1.41.44,1.43.72,2.98.72,4.6h-.07Z"/><path class="cls-1" d="M345.19,148.55c-.57-5.71-2.18-11.33-4.72-16.52-.94-1.89-2.04-3.69-3.21-5.45-4.07-6.23-9.5-11.63-15.84-15.67-2.82-1.79-5.86-3.24-8.98-4.28-2.01-.67-4.07-1.09-6.13-1.48-2.07-.37-4.15-.53-6.28-.8-1.35-.31-1.2-.29-.08-.89.28-.18.62-.31,1.03-.48.4-.16.86-.35,1.38-.5,1.03-.29,2.26-.39,3.58-.29,2.34.14,4.63.69,6.83,1.42,2.2.72,4.34,1.63,6.38,2.7,4.08,2.13,7.85,4.81,11.19,7.96,3.99,3.75,7.84,8.01,10.75,12.82,3.19,5.27,5.43,11.12,6.56,17.16.71,3.71,1,7.5.9,11.27-.08,2.86-.41,5.71-.97,8.51-.56,2.79-1.37,5.6-2.75,8.18-1.06,2-2.47,3.86-4.28,5.32-1.79,1.45-4.02,2.54-6.5,2.72-1.08.07-2.15,0-3.22-.28-.99-.26-1.77-.63-2.38-1-.6-.4-1.02-.81-1.31-1.2-.59-.76-.71-1.37-.65-1.9.04-.25.05-.53.13-.7.33-.58,1.31.49,3.29,1.23,2.96,1.29,6.33.55,8.89-1.62,2.61-2.14,4.22-5.45,5.17-9.1,1.41-5.5,1.81-11.38,1.16-17.11l.08-.02Z"/><path class="cls-1" d="M258.04,132.11l.15-.25.23-.22.45-.42c.15-.11.37-.27.45-.33l.31-.2c.4-.25.8-.48,1.2-.71.29-.16.54-.38.83-.54,1.03-.54,2.08-1.02,3.11-1.54.46-.22.87-.53,1.32-.76.29-.15.54-.36.86-.45.34-.07.7-.1,1.1-.03.25.04.2.01.13.24-.03.12-.06.31-.08.58-.03.24-.08.48-.17.68-.83,1.1-2.04,1.57-3.25,2.1-.74.29-1.35.84-2.01,1.27l-1.08.71-.52.36-.24.18s-.09.05-.13.08c-.11.07-.22.15-.32.25-.11.11-.08.26-.05.39.04.3.58,1.07,1.13,1.59.45.42,1.03.7,1.57,1.02.12.07.26.12.37.2.19.18.29.33.27.53-.04.22-.15.45-.34.73-.09.13-.17.25-.26.37-.15.19-.34.31-.56.41-.21.1-.49.19-.68.12-1.2-.36-2.1-1.24-2.96-2.3-.16-.21-.31-.42-.46-.66-.05-.1-.21-.29-.28-.5-.1-.19-.2-.39-.28-.59-.07-.2-.12-.4-.17-.6-.03-.2-.03-.41-.04-.61-.03-.42.16-.79.36-1.13l.06.02Z"/><path class="cls-1" d="M297.25,130.93c-.71-.88-1.22-1.86-1.59-2.85-.13-.36-.33-.69-.41-1.07-.15-.66-.23-1.32-.25-1.98,0-.66.09-1.31.19-1.94.09-.57.17-1.14.32-1.71.21-.72.73-1.44,1.46-1.76.23-.09.33.11.4.43.06.32.23.78.26,1.08,0,.26.06.53.09.77-.02.23-.04.48-.05.73-.02.5-.02,1.08-.06,1.65-.07.71.21,1.39.45,2.04.24.73.58,1.43,1.03,2.06.28.39.59.75.96,1.05.56.46,1.19.89,1.91,1.06.55.14,1.14.01,1.65-.12.11-.03.22-.09.33-.11.4-.03.57.28.8.98l.16.48c.15.53.02,1.06-.43,1.42-1.38.79-3.09.53-4.5-.09-1.06-.48-1.97-1.25-2.74-2.1l.05-.06Z"/><path class="cls-1" d="M321.33,171.65c.33.26.71.46,1.09.65.38.21.8.36,1.23.46.32.08.64.04.96.07,1.15.1,2.42-.13,3.56-.74.51-.25.98-.6,1.39-1,.51-.53,1.05-1.04,1.63-1.59.19-.17.37-.04.52.28.14.32.29.9.11,1.41-.62,1.8-2.22,3.21-4.11,3.66-1.11.29-2.23.69-3.44.69-1.3-.03-2.59-.34-3.7-.97-.69-.38-1.32-.85-1.88-1.38-.86-.81-1.49-1.85-1.95-2.91-.35-.81-.75-1.6-.98-2.42-.04-.18-.1-.35-.11-.54-.08-.67.21-.91.79-1.12.14-.05.27-.11.4-.14.44-.11.89.11,1.23.53.2.32.39.63.58.93.12.3.25.59.37.88.23.56.46,1.06.72,1.47.4.63.93,1.24,1.64,1.69l-.04.06Z"/><path class="cls-1" d="M297.75,174.1c-1-1.73-1.75-3.58-2.19-5.51-.45-1.95-.55-3.94-.4-5.87.11-1.41.26-2.81.62-4.15.62-2.36,1.43-4.63,2.42-6.8.97-2.19,2.11-4.23,2.99-6.31.83-1.84,1.35-3.79,1.66-5.7.2-1.23.23-2.47.14-3.7-.03-.62-.09-1.24-.16-1.86l-.18-.93-.1-.99c-.06-.86-.16-.71.37-.18.64.46,1.72,1.54,2.27,3.17.78,2.91.54,6.04-.43,8.74-.86,2.74-2.33,5.2-3.6,7.5-1.52,2.8-2.62,5.94-3.13,9.05-.29,1.71-.4,3.44-.24,5.13.15,1.69.62,3.35,1.31,4.93.85,1.94,2.06,3.72,3.59,5.17,1.17,1.08,2.51,1.97,3.98,2.56.36.16.75.25,1.12.38.38.09.77.19,1.15.25.75.12,1.53.11,2.3.02,2.42-.33,4.63-1.58,6.45-3.11.41-.33.75-.72,1.12-1.08.69-.68,1.08-1.15,1.48-1.41.42-.24.78-.31,1.23-.29.2,0,.42-.02.59,0,.29.05.41.3.42.81.02.51-.19,1.21-.71,1.91-1.52,2.12-3.67,3.78-6.15,4.88-1.24.55-2.58.95-4.01,1.14l-1.08.09h-1.11s-1.13-.14-1.13-.14l-1.05-.23c-2.06-.5-3.97-1.53-5.6-2.81-1.61-1.31-2.96-2.89-4.01-4.62l.06-.04Z"/><path class="cls-1" d="M269.11,186.6c-.01.74.06,1.5.17,2.26.12.73.29,1.45.56,2.15.18.52.5.98.74,1.48.9,1.73,2.14,3.35,3.74,4.54.38.22.74.49,1.15.64l.6.28.62.2c.26.1.54.16.82.2l.83.15c.28.05.56.12.85.19.29.04.58.09.88.13.38.07.37.26.08.57-.29.29-.88.87-1.7,1.04-.18.04-.36.08-.54.11l-.54-.02c-.36-.03-.73-.01-1.08-.09-.72-.11-1.43-.26-2.09-.57-1.31-.63-2.45-1.52-3.37-2.57-1.08-1.27-2.19-2.57-2.95-4.08-.42-.82-.73-1.7-1-2.58-.23-.92-.39-1.79-.47-2.69-.1-1.11-.1-2.23.03-3.35.2-1.69.79-3.33,1.55-4.81.59-1.16,1.21-2.29,2.02-3.31.17-.23.34-.45.53-.66.72-.78,1.15-.8,1.76-.41.14.09.29.17.41.28.4.34.42.98.02,1.55-1.14,1.72-2.27,3.33-2.89,5.13-.48,1.32-.75,2.74-.69,4.23h-.07Z"/><path class="cls-1" d="M270.22,222.02c-.11.07-.28.24-.4.52l-.09.21c-.04.08-.06.14-.06.16-.02.06-.07.14-.05.18v.07s.03.04.05.07c.02.05.05.1.11.17.13.26.5.57.91.83.41.27.9.47,1.39.69.44.2.91.31,1.39.4.31.04.62.09.92.22.31.11.6.25.91.52.19.17.11.26-.1.47-.15.16-.3.32-.42.45-.16.16-.36.28-.55.33l-.53.12c-.18.04-.34,0-.52-.01-.34-.03-.69-.07-1.03-.14-.69-.1-1.38-.4-2.01-.83-.74-.51-1.72-.82-2.42-1.89-.4-.56-.5-1.38-.38-2.02.13-.57.3-1.04.61-1.56.38-.61,1.02-1.17,1.76-1.38,1.11-.28,2.04,0,2.89.2.66.17,1.33.25,1.96.4.14.03.28.04.41.09.24.08.38.17.44.32.05.17.04.38,0,.68-.02.14-.03.27-.06.4-.05.22-.15.39-.31.54-.15.14-.39.26-.59.24-1.25-.04-2.29-.39-3.15-.5-.3-.03-.57-.05-.71-.02-.17.01-.19.04-.3.09l-.05-.04Z"/><path class="cls-1" d="M269.22,226.62s-.07-.05-.12-.06c-.04,0-.07.03-.11.06-.02.02-.03.04-.05.06,0,.01-.02.02-.02.04l-.05.17c-.06.22-.11.46-.14.68-.04.33.02.64.04.86,0,.09.02.21.1.28.07.05.03.04.22.13l.47.21c.65.28,1.33.53,2.02.77.61.21,1.25.32,1.85.53.79.21,1.59.43,2.33.75.21.09.21.31-.05.56-.26.24-.74.54-1.24.57-.45.01-.89.02-1.33,0-.44-.01-.88,0-1.29-.15-.83-.22-1.66-.49-2.47-.86-.24-.11-.49-.21-.75-.3l-.42-.15c-.2-.06-.4-.16-.59-.26-.77-.38-1.16-1.44-1.21-2.03-.08-.73-.03-1.38.09-2.03.16-.77.41-1.83,1.16-2.17.23-.11.5-.11.75-.15.27,0,.54.02.8.04l.63.09.54.1c1.09.2,2.13.49,3.19.69.82.16,1.65.19,2.49.31.18.03.37.03.55.1.17.06.3.12.41.19.11.09.17.22.22.32.1.21.14.42.12.65,0,.1,0,.2-.02.29-.07.26-.4.46-.96.72-1.47.16-2.93-.2-4.41-.44l-1.62-.3-.79-.13-.33-.04-.03-.02v-.06Z"/><path class="cls-1" d="M205.34,230.55c2.34,3.35,5.13,6.35,8.36,8.9.56.5,1.2.9,1.82,1.32l1.85,1.28c4.27,2.88,9.49,4.35,14.79,4.84,2.36.21,4.75.14,7.1-.08.75-.07,1.51-.16,2.26-.28.75-.09,1.51-.18,2.26-.3.76-.09,1.51-.21,2.26-.33.37-.07.76-.07,1.15-.09l1.16-.06c.98-.03.89.12.19.66-.43.33-.93.72-1.48,1.14-.64.4-1.42.74-2.31.97-3.13.87-6.39,1.14-9.65,1.19-3.26.02-6.58-.32-9.76-1.27-1.9-.57-3.82-1.19-5.7-2-1.85-.83-3.72-1.83-5.29-3.02-3.59-2.49-6.88-5.48-9.63-8.89-1.73-2.07-3.18-4.34-4.58-6.6-2.09-3.45-3.88-7.03-5.92-10.38-1.57-2.62-3.39-4.99-5.26-7.31-.42-.51-.85-.99-1.25-1.51-1.55-1.9-1.94-2.58-1.64-3.55.05-.21.07-.44.14-.6.2-.5,1.39-.18,2.7,1.17,4.05,3.86,7.17,8.96,9.99,13.97,2.1,3.73,4.07,7.44,6.5,10.77l-.06.05Z"/><path class="cls-1" d="M185.62,162.12c-.12-.12-.23-.26-.35-.37l-.16-.15-.03-.03s-.07-.08-.12-.1c-.1-.08-.27-.03-.28.11-.01.07-.02.11,0,.23v.04s.03.12.03.12l.06.27.14.55c.2.74.45,1.5.68,2.29.17.58.36,1.16.52,1.8.08.31.15.65.2,1l.03.28c.01.13.02.25.01.38,0,.26-.01.52-.07.76-.1.43-.27.85-.58,1.17-.31.31-.67.53-1.16.68-.26.1-.39.15-.57.2l-.51.06c-.34.04-.68.07-.99.02-1.3-.08-2.4-.53-3.4-1.03-2.01-1.01-3.68-2.32-5.33-3.63-1.45-1.16-2.92-2.32-4.36-3.32-.45-.32-.92-.59-1.4-.81-.46-.22-1.02-.4-1.2-.37-.26-.02-.42.23-.4.46,0,.06,0,.14,0,.21v.12s.02.2.02.2c.01.27-.02.56.02.86.03.74-.02.69-.54.2-.13-.12-.31-.26-.48-.45-.05-.05-.08-.1-.15-.14-.03-.06-.08-.11-.13-.17-.09-.11-.18-.22-.27-.47-.51-.76-.45-2.5.84-2.98.52-.19,1.17-.24,1.68-.15.3.02.45.08.65.13.2.05.36.12.54.18.69.25,1.29.56,1.89.92,1.15.68,2.05,1.48,3,2.23,1.87,1.51,3.65,3.04,5.55,4.28,1.12.73,2.4,1.3,3.54,1.35.3.06.53-.05.8-.06.07,0,.12-.04.18-.06l.05-.02s.1-.03.14-.07c.09-.08.12-.21.13-.32,0-.08,0-.07,0-.24-.02-.15-.03-.29-.06-.46-.26-1.42-.84-2.98-1.26-4.61-.16-.62-.59-2.24-.19-3.27.16-.53.59-.99,1.13-1.17.54-.2,1.13-.13,1.68.04l.51.21c.16.09.32.21.48.31.33.19.62.49.8.64.4.39.75.79,1.09,1.2.66.82,1.23,1.68,1.79,2.54.83,1.31,1.58,2.66,2.29,4.01.7,1.37,1.43,2.68,2.04,4.16.91,2.27,1.49,4.66,1.41,7.17-.02.55-.04,1.09-.14,1.65-.16,1.03-.54,1.66-.83,2.06-.16.2-.3.34-.46.43-.2.08-.39.12-.56.15-.15.03-.3.09-.39.1-.23.06-.51-.95-.29-2.15.25-1.85.24-3.77-.16-5.67-.2-.95-.47-1.88-.83-2.79-.18-.45-.39-.9-.6-1.34l-.74-1.43c-.74-1.42-1.5-2.82-2.31-4.17-.81-1.34-1.68-2.66-2.64-3.7l.04-.05Z"/><path class="cls-1" d="M161.41,167.1c-.29-.36-.56-.75-.83-1.15-.2-.29-.41-.68-.6-1.01-.16-.35-.29-.7-.38-1.04-.16-.68-.08-1.26.2-1.81.31-.55.9-.91,1.5-1.04.43-.1.86,0,1.32.1.47.17.97.39,1.44.69l.47.3.36.25.7.51c.46.35.9.7,1.35,1.06.88.72,1.72,1.48,2.56,2.24.74.65,1.54,1.37,2.25,1.93.5.35.84.6,1.36.78.54.14,1.16.52,1.71.89.35.25.28.27-.1.43-.39.11-1.08.69-1.89.68-.71-.04-1.8-.35-2.34-.86-.59-.46-1.08-.92-1.52-1.31-.93-.83-1.89-1.68-2.83-2.56-.55-.54-1.17-1.02-1.8-1.47-.32-.23-.64-.44-.96-.65l-.49-.31c-.13-.07-.27-.19-.44-.19-.16,0-.35.08-.39.25-.04.16,0,.32.06.48.03.08.07.16.11.25.05.1.06.12.19.33.55.85,1.22,1.67,1.93,2.44,1.09,1.17,2.23,2.32,3.51,3.26,1.01.76,2.03,1.4,3.09,1.88l.72.3c.44.2.74.34.92.52.17.2.23.4.25.65,0,.11.03.23.03.33-.01.17-.14.28-.37.35-.23.07-.57.12-.95,0-1.13-.26-2.33-.79-3.37-1.45-1.02-.66-1.97-1.3-2.95-2.12-1.4-1.18-2.67-2.46-3.87-3.9l.04-.04Z"/><path class="cls-1" d="M158.37,171.52c-.63-.8-1.18-1.65-1.65-2.59l-.22-.47-.23-.58c-.14-.39-.24-.77-.29-1.14-.09-.73.02-1.34.38-1.86.3-.45.89-.73,1.38-.76.37,0,.73.05,1.13.23.42.21.84.49,1.24.83.19.15.43.36.56.48l.34.32,1.3,1.27c.86.84,1.72,1.65,2.62,2.41.79.69,1.65,1.29,2.53,1.79.58.3,1.14.63,1.72.93.29.15.59.27.88.43.29.17.59.34.9.48.39.2.35.17-.04.26-.28.07-.57.15-.83.22-.36.11-.79.17-1.2.07-.38-.06-.74-.16-1.11-.25l-.55-.16-.51-.24c-.67-.33-1.31-.71-1.92-1.11-1.24-.79-2.28-1.81-3.27-2.83-.59-.62-1.21-1.2-1.85-1.75l-.41-.34-.16-.13c-.11-.08-.22-.17-.36-.23h-.02c-.15-.08-.36,0-.4.16-.05.15-.02.31.02.48.02.08.05.17.08.26l.06.14.14.29c.2.38.42.76.66,1.13.61.91,1.32,1.78,2.13,2.53.61.57,1.27,1.09,1.98,1.49.34.2.73.38,1.14.57l1.19.57c1.23.58,2.48,1.11,3.64,1.34.26.05.51.07.77.1.47.06.78.07,1.01.2.23.16.37.33.5.59.06.12.14.23.17.34.07.18,0,.36-.21.54-.2.18-.55.4-1.01.41-1.39.12-2.85-.35-4.01-.87-1.19-.51-2.29-1.06-3.41-1.57-1.99-.89-3.56-2.35-4.86-3.92l.04-.04Z"/><path class="cls-1" d="M174.64,186.48l-4.29-1.55-2.12-.76c-.71-.24-1.53-.56-2.23-.9-1.05-.5-2.09-.99-3.06-1.61-1.37-.88-2.69-1.84-3.92-2.97-.17-.16-.27-.26-.48-.47-.24-.23-.44-.47-.65-.71-.38-.48-.74-.98-.92-1.47-.2-.49-.3-.95-.26-1.41.03-.46.23-.93.57-1.31.4-.33.78-.39,1.22-.38.43.01.93.13,1.45.32.59.23,1.22.53,1.74.77l1.17.53c.78.34,1.56.65,2.34.92,1,.36,2.02.56,3.02.75.5.12,1,.19,1.51.25.25.03.51.04.77.05.26.02.53.07.8.09.68.06.65.12.15.6-.25.22-.63.63-1.16.86-.53.25-1.2.47-1.92.51-1.07.1-2.07-.19-3.05-.42-.97-.27-1.91-.58-2.8-.98l-1.3-.61-.59-.29c-.05-.03-.1-.06-.1-.07-.06-.05-.18-.21-.39-.23-.16.03-.21.16-.19.31,0,.07.04.14.09.22l.08.12s.03.04.05.06l.15.16c.45.45.95.88,1.47,1.28,1.06.8,2.23,1.49,3.39,2.14,1.3.72,2.57,1.31,4,1.75l4.32,1.5c1.77.6,3.53,1.21,5.31,1.7,1.32.38,2.75.67,4.14,1.13,1.39.45,2.75.99,4.06,1.66,2.02,1.03,3.94,2.36,5.46,4.12.34.38.66.76.96,1.17,1.04,1.58,1.04,2.25.69,2.86-.08.14-.15.31-.25.41-.34.36-1-.13-1.82-1.07-1.18-1.43-2.37-2.78-3.83-3.85-1.44-1.08-3.09-1.92-4.89-2.56-.67-.24-1.35-.45-2.04-.65l-2.18-.55c-1.53-.39-3.02-.85-4.49-1.33v-.06Z"/><path class="cls-1" d="M237.72,311.46c1.91-3.83,3.8-7.67,5.61-11.55.66-1.41,1.24-2.86,1.88-4.28,2.27-5,4.52-10.02,6.48-15.15.87-2.27,1.68-4.58,2.38-6.89.42-1.49.91-2.96,1.37-4.44.25-.74.43-1.49.75-2.21.33-.72.62-1.45.9-2.18.37-.91.33-.79.4.06.04.43.11,1.04.22,1.8.04.37.16.8.17,1.23-.01.42-.04.87-.11,1.32-.12.8-.25,1.61-.39,2.41l-.21,1.2-.32,1.17c-.43,1.56-.9,3.1-1.41,4.64-1.01,3.07-2.34,6.02-3.69,8.96-1.64,3.51-3.12,7.24-4.78,10.82-1.83,3.93-3.75,7.82-5.7,11.69-1.21,2.37-2.42,4.75-3.63,7.12-.92,1.79-1.84,3.59-2.75,5.39l-1.34,2.7-.32.67-.24.53c-.06.13-.11.26-.15.4-.02.07-.05.14-.04.21.03.06.08.11.14.15.19.12.4.18.61.24l1.02.27c.75.19,1.51.38,2.27.61,1.52.45,3.05,1.03,4.48,1.94.63.4,1.24.84,1.78,1.4,1,1.04,1.44,1.94,1.6,2.59.09.32.08.61.05.84-.07.25-.22.47-.34.66-.12.17-.2.37-.28.46-.15.17-.37.01-.84-.27-.27-.13-.45-.34-.63-.59-.2-.25-.42-.53-.66-.84-1.47-1.8-3.65-3.02-6.2-3.9-.64-.23-1.29-.44-1.98-.65l-1.23-.41c-.66-.23-1.35-.5-1.74-.96-.1-.11-.19-.23-.27-.36-.09-.12-.16-.27-.17-.43-.06-.28-.1-.56-.07-.88.08-.33.18-.66.32-.99.12-.33.3-.72.34-.83l.93-2.02c1.87-3.93,3.83-7.78,5.7-11.67l.06.02Z"/><path class="cls-1" d="M329.18,319.91c-.64-2.49-1.3-4.99-2.08-7.46-.27-.91-.65-1.78-.93-2.68-.98-3.19-2.05-6.38-3.01-9.61-.44-1.43-.97-2.83-1.44-4.23-.56-1.82-1.22-3.62-1.44-5.55-.07-.6.08-.57.5-.18.21.19.5.47.82.82.31.35.6.78.85,1.27,1.85,3.43,3.22,7.03,4.37,10.78.62,2.26,1.61,4.5,2.38,6.78.85,2.5,1.63,5.04,2.34,7.59.43,1.58.83,3.16,1.2,4.76.58,2.41.99,4.87,1.44,7.29.14.95.32,1.88.51,2.82.18.93.3,1.88.44,2.83.06.42.15.83.15,1.25.03,1.58-.27,2.09-.94,2.41-.16.07-.31.17-.46.21-.51.13-.97-.5-1.26-1.59-.64-3.23-1.03-6.58-1.76-9.95-.25-1.25-.54-2.5-.81-3.76-.33-1.25-.6-2.51-.97-3.75l.07-.02Z"/><path class="cls-1" d="M332.12,401.17c-1.2-5.27-2.44-10.54-3.79-15.79-.48-1.92-1.07-3.81-1.56-5.72-1.64-6.78-3.35-13.56-4.92-20.37-.7-3.02-1.47-6.04-2.22-9.03-.94-3.84-2-7.67-2.31-11.65-.11-1.24.11-1.12.71-.18.3.47.71,1.13,1.19,1.94.44.81.83,1.8,1.15,2.88.59,1.92,1.14,3.86,1.66,5.8.53,1.94,1.06,3.88,1.59,5.82.52,1.95,1.04,3.89,1.56,5.84.51,1.95.95,3.93,1.42,5.91,1.07,4.74,2.63,9.56,3.9,14.37,1.39,5.29,2.73,10.61,3.98,15.94.79,3.28,1.51,6.58,2.24,9.87.52,2.5,1.03,5.01,1.55,7.52.48,2.51.95,5.02,1.43,7.51.35,1.94.76,3.85,1.15,5.76.37,1.92.73,3.83,1.1,5.75.17.85.31,1.68.44,2.53.43,3.19.36,4.23-.48,5.01-.18.18-.35.4-.52.51-.56.37-1.41-.85-1.86-3.14-.67-3.4-1.39-6.87-2-10.41-.7-3.52-1.32-7.11-2.06-10.69-1.04-5.32-2.19-10.65-3.43-15.96l.08-.03Z"/><path class="cls-1" d="M272.27,279.83c-.96.09-1.91.16-2.87.19-.35.02-.69.1-1.04.09-1.23-.01-2.47-.15-3.69-.34-.55-.06-1.08-.13-1.63-.19-.34-.06-.69-.12-1.04-.2-.35-.06-.66-.29-.88-.73-.13-.27-.1-.26.15-.49.13-.11.33-.35.53-.54.1-.09.21-.22.31-.28.09-.04.18-.06.27-.05,1.24-.02,2.42.23,3.72.48.77.17,1.58,0,2.38-.06.88-.07,1.77-.14,2.65-.27.54-.08,1.09-.16,1.63-.28.82-.17,1.65-.35,2.42-.65.6-.24,1.13-.65,1.67-.99.12-.07.24-.15.36-.21.47-.22.72-.05,1.09.52.09.13.18.26.25.39.25.45.22.94-.07,1.3-.22.25-.46.48-.72.69-.27.18-.54.34-.83.47-.58.28-1.19.48-1.82.65-.93.26-1.89.42-2.84.57l-.02-.06Z"/><path class="cls-1" d="M317.35,100.47c-.6,2.29-1.29,4.57-1.95,6.87-.24.84-.4,1.7-.65,2.54-.88,2.95-1.85,5.89-2.88,8.8-.45,1.29-.82,2.61-1.2,3.92-.24.84-.48,1.68-.76,2.5-.16.41-.25.84-.5,1.21-.26.37-.53.75-.76,1.13-.32.47-.46.34-.67-.2-.11-.27-.23-.65-.42-1.12-.08-.23-.21-.49-.24-.74,0-.24.01-.48.07-.73.2-.86.38-1.73.59-2.59l.73-2.54c.51-1.69,1.04-3.37,1.67-5.05.79-1.99,1.22-4.17,1.81-6.27.66-2.31,1.29-4.63,2.01-6.94l1.33-4.26c.67-2.15,1.41-4.29,2.02-6.43.47-1.67.84-3.33,1.26-5,.1-.37.17-.73.28-1.1.21-.67.36-1.11.61-1.38.32-.24.59-.34.88-.41.13-.03.26-.08.37-.09.18-.01.28.14.41.45.12.31.31.8.17,1.29-.55,3.03-1.44,6.1-2.34,9.19-.6,2.31-1.23,4.62-1.81,6.94h-.07Z"/><path class="cls-1" d="M367.63,99.63c3.03.65,6.01,1.57,8.88,2.74.53.2,1.06.41,1.58.63.53.21,1.05.43,1.55.7,3.57,1.82,6.86,4.25,9.53,7.23.62.63,1.16,1.34,1.75,2.01.53.71,1.09,1.4,1.54,2.16.62.94,1.2,1.92,1.65,2.96.18.54.38,1.07.52,1.62.11.56.18,1.13.26,1.68.08.7-.07.64-.57.21-.31-.27-.66-.57-1.01-.87-.19-.18-.44-.35-.66-.55-.2-.21-.4-.43-.58-.67-.68-.83-1.13-1.76-1.8-2.56-.31-.42-.61-.83-.96-1.22-.36-.38-.61-.83-.97-1.21-1.31-1.6-2.77-3.09-4.38-4.49-1.92-1.69-4.35-2.9-6.75-3.99-2.64-1.2-5.43-2.18-8.29-2.88-1.76-.43-3.55-.78-5.35-1.03-2.73-.36-5.52-.57-8.26-.45-2.13.09-4.2.49-6.24.92-.45.11-.89.21-1.33.32-1.68.29-2.24.25-2.81-.52-.12-.16-.27-.29-.36-.43-.28-.4.25-1.31,1.53-1.76,3.77-1.43,8.01-1.76,12.2-1.7,3.12.08,6.24.46,9.32,1.05v.08Z"/><path class="cls-1" d="M272.99,74.48c-.58-.22-1.15-.48-1.74-.67l-1.81-.52-.91-.26-.93-.18-1.86-.35c-.91-.13-1.84-.11-2.76-.22-3.25-.2-6.57-.27-9.85.31-1.45.24-2.87.67-4.27,1.07l-2.67.91c-.85.39-1.8.58-2.73.84-.59.14-.62-.09-.31-.6.16-.25.4-.59.72-.96.16-.19.34-.38.53-.57.1-.1.21-.18.31-.29.12-.07.24-.15.36-.22.89-.49,1.83-.86,2.76-1.28.92-.46,1.91-.69,2.9-.95.49-.12.98-.26,1.48-.36l1.51-.23c1.01-.15,2.02-.29,3.05-.29,1.22-.04,2.45-.18,3.71-.17l1.88-.04c.63.03,1.25.07,1.87.12,2.74.18,5.43.83,8.06,1.58,1.58.6,3.18,1.14,4.67,1.94,2.32,1.08,4.39,2.63,6.39,4.19.74.66,1.46,1.31,2.22,1.95.73.66,1.36,1.42,2.05,2.15l.45.48c.14.17.26.35.38.53.22.34.4.64.52.89.12.26.16.5.18.71.04.41-.07.71-.31,1.03-.11.14-.2.31-.32.42-.39.36-1.17.06-1.99-.69-2.08-2.42-4.27-4.83-7.01-6.71-.48-.38-1.04-.66-1.55-1-.53-.31-1.02-.7-1.59-.94-1.12-.54-2.21-1.15-3.41-1.53l.02-.07Z"/><path class="cls-1" d="M302.16,59.3c1.94-2.21,3.96-4.34,6.08-6.37.76-.76,1.49-1.53,2.29-2.25,2.81-2.52,5.84-4.77,8.92-6.9,1.36-.95,2.69-1.98,4.15-2.83.93-.54,1.88-1.11,2.93-1.46,1.06-.31,2.16-.52,3.25-.58.69-.02.61.2.14.61-.48.41-1.28,1.14-2.18,1.86l-.61.46-.64.39c-.42.26-.84.55-1.25.83l-1.23.9-1.28.87c-1.72,1.21-3.44,2.43-5.17,3.66-2.05,1.5-3.98,3.33-5.85,5.14-2.08,1.97-4.12,3.99-6.02,6.14-1.18,1.32-2.33,2.66-3.41,4.06-1.65,2.11-3.26,4.27-4.66,6.54-.55.88-1.04,1.78-1.5,2.69-.48.9-.9,1.83-1.36,2.74-.21.4-.4.79-.63,1.19-.84,1.45-1.36,1.8-1.96,1.91-.14.02-.29.07-.41.07-.39,0-.4-.78-.13-2.06.45-1.87,1.21-3.66,2.12-5.4.88-1.76,1.89-3.48,2.97-5.15,1.62-2.48,3.47-4.83,5.38-7.1l.06.04Z"/><path class="cls-1" d="M347.64,73.48c.04-2.53,0-5.06-.19-7.59-.07-.92-.23-1.83-.32-2.76-.31-3.25-.78-6.48-1.71-9.57-.4-1.38-.97-2.71-1.64-3.95-.43-.8-.94-1.55-1.43-2.31-.48-.76-.97-1.53-1.51-2.28-.32-.48-.06-.65.56-.55.61.1,1.64.48,2.44,1.32,1.38,1.52,2.38,3.32,3.2,5.16.83,1.84,1.36,3.79,1.68,5.75.39,2.35.94,4.72,1.25,7.1.33,2.61.52,5.24.6,7.87.05,1.62.03,3.24,0,4.85-.05,2.45-.25,4.9-.4,7.32-.12,1.88-.11,3.75-.27,5.62-.06.41-.1.81-.18,1.22-.31,1.51-.62,1.95-1.33,2.16-.16.05-.31.12-.46.13-.47.06-.83-.64-.87-1.76-.04-.83-.08-1.67-.13-2.51.02-.83.09-1.67.13-2.51.11-1.68.21-3.38.32-5.08.14-2.53.24-5.08.2-7.62h.07Z"/><path class="cls-1" d="M340.18,31.04c-.13-.37-.4-.73-.75-.89-.13-.07-.29-.02-.44-.07-.56-.09-1.38.02-2.04.46-.3.19-.48.5-.61.8-.06.2-.1.39-.19.58-.04.1-.04.2-.13.31-.04.05-.11.11-.19.18-.07.07-.07.13-.11.2-.09.18-.18.2-.43.09-.14-.05-.25-.14-.61-.27-.31-.13-.46-.35-.51-.58-.24-.86.15-1.7.56-2.36.45-.66,1.08-1.17,1.79-1.46.85-.31,1.73-.7,2.74-.64,1.1.06,2.12.65,2.78,1.4.42.47.72,1,.93,1.54.33.83.4,1.69.4,2.54,0,.66.07,1.37-.12,2.1-.03.16-.07.33-.16.47-.29.56-.69.53-1.31.1-.15-.1-.29-.19-.42-.3-.42-.36-.73-.87-.78-1.13-.11-.43-.15-.7-.15-.98,0-.28,0-.56-.02-.85-.03-.42-.08-.88-.27-1.21l.06-.04Z"/><path class="cls-1" d="M316.05,29.92c11.73-.52,23.7,1.42,34.35,6.58,3.9,1.81,7.6,4.02,11.05,6.54,3.07,2.2,5.87,4.73,8.57,7.33,2.67,2.64,5.14,5.46,7.47,8.39,4.59,5.91,8.53,12.28,11.74,19,2.89,5.94,5.26,12.17,7.05,18.49,1.12,4.07,1.95,8.24,2.33,12.49.14,2.13.16,4.27-.03,6.41-.06.53-.07,1.07-.17,1.6l-.42,1.57c-.08.26-.12.52-.18.78l-.21.78c-.17.51-.23,1.04-.47,1.53-1.2,2.41-.92,2.06-.71-.14.01-1.11.17-2.66-.26-4.52-.21-.93-.21-1.91-.35-2.95-.15-1.05-.24-2.14-.41-3.29-.39-4.07-1.17-8.13-2.23-12.14-1.01-4.01-2.3-7.97-3.81-11.85-3.01-7.77-6.98-15.2-11.72-22.15-5.71-8.29-13.38-15.73-22.07-21.14-4.76-2.99-9.9-5.4-15.3-7.01-5.41-1.61-11.02-2.56-16.67-2.86-3.48-.15-6.98-.1-10.47.19-3.48.32-6.95.83-10.38,1.55-10.38,2.22-20.45,6.2-29.62,11.47-7.12,4.13-13.55,9.06-19.54,14.5-1.3,1.22-2.57,2.42-3.84,3.69-2.38,2.33-3.88,3.93-5.04,4.96-1.21.99-1.96,1.52-2.71,1.83-.34.15-.74.38-.98.43-.4.09-.24-.46.36-1.56.6-1.11,1.65-2.78,3.31-4.66,9.7-11.29,22.68-20.82,37.12-27.32,5.37-2.4,10.95-4.4,16.68-5.87,5.74-1.45,11.62-2.39,17.55-2.73l.02.09Z"/><path class="cls-1" d="M326.88,86.59c-.7-.34-1.39-.71-2.1-1.03l-2.16-.92-2.22-.8c-.74-.24-1.44-.47-2.2-.62-.55-.13-1.1-.22-1.66-.28-.56-.08-1.12-.14-1.69-.2-4-.49-8.14-.4-12.2.17-1.8.27-3.59.69-5.31,1.24-1.11.33-2.18.79-3.28,1.15-1.08.41-2.17.79-3.34,1.03-.73.15-.83-.25-.49-1,.17-.38.44-.86.82-1.38.39-.49.94-.87,1.58-1.18,4.63-1.98,9.64-2.92,14.66-2.99,3-.02,6.12-.21,9.2.21,1.68.2,3.4.6,5.02,1.13.79.28,1.6.53,2.38.83l2.34.95c1.88.87,3.74,1.79,5.5,2.89,2.68,1.64,5.14,3.64,7.37,5.83,1.72,1.71,3.39,3.46,4.77,5.52.32.44.6.9.88,1.38.48.9.71,1.55.72,2.05-.05.53-.24.88-.57,1.21-.15.15-.28.32-.42.43-.25.18-.55.11-.94-.1-.39-.22-.81-.6-1.15-1.16-2.07-3.29-4.64-6.45-7.78-9.13-2.31-2-4.93-3.73-7.73-5.13l.03-.07Z"/><path class="cls-1" d="M258.73,166.78c-.96-1.52-1.7-3.18-2.21-4.9l-.21-.64-.13-.66-.25-1.31c-.21-.88-.21-1.74-.3-2.61-.06-1.27-.15-2.54-.03-3.81.19-2.23.65-4.43,1.35-6.53.72-2.1,1.64-4.1,2.71-6,.94-1.7,1.98-3.33,3.03-4.93.74-.98,1.5-1.94,2.31-2.86.42-.45.9-.84,1.36-1.25.23-.2.47-.39.71-.59.24-.19.56-.31.8-.5.64-.44.53-.39.27.22-.21.66-.5,1.96-1.09,3.23-.62,1.05-1.29,2.04-1.88,3.08-.63,1-1.36,1.94-1.97,2.95-1.27,1.99-2.42,4.04-3.38,6.21-1.15,2.6-1.61,5.56-1.67,8.44-.05,3.19.4,6.38,1.76,9.23l.65,1.31.81,1.21.41.61c.15.19.32.37.48.56l.97,1.11c2.07,2.15,4.66,3.84,7.42,5.02,2.15.93,4.41,1.43,6.67,1.78.5.09.99.11,1.49.18,1.85.2,2.38.45,2.78,1.19.09.17.21.33.27.49.09.27-.06.51-.43.72-.38.21-.99.41-1.75.38-4.49-.06-9.11-1.45-13.2-3.93-3.02-1.85-5.8-4.3-7.79-7.36l.05-.04Z"/><path class="cls-1" d="M297.31,106.23c2.47,2.63,4.07,5.74,5.25,8.86,1.18,3.14,1.97,6.33,2.61,9.53.46,2.33.94,4.65,1.26,6.99.57,4.12.97,8.23,1.42,12.31.48,4.07.88,8.16,2.03,11.94,1.02,3.34,2.87,6.45,5.64,8.25.9.57,1.87,1.03,2.87,1.37,1.01.32,2.05.49,3.08.57,2.08.09,4-.44,5.91-1.54.6-.35.93-.49.98-.42.06.08-.09.39-.32,1.05-.25.65-.76,1.52-1.66,2.49-.96.84-2.41,1.47-4.02,1.62-1.43.16-2.84-.05-4.17-.4-1.34-.34-2.6-.91-3.79-1.6-1.19-.69-2.28-1.55-3.24-2.58-.98-1.01-1.71-2.13-2.36-3.29-1.29-2.33-2.05-4.81-2.56-7.26-.51-2.46-.77-4.87-1-7.28-.53-5.76-1.28-11.65-2.2-17.38-.5-3.15-1.14-6.27-2.01-9.3-.86-3.03-1.99-5.97-3.58-8.59-.99-1.6-2.18-3.06-3.59-4.23-.68-.55-1.42-.98-2.25-1.29-.83-.29-1.71-.48-2.61-.56-2.73-.19-5.63.51-7.94,2-1.13.75-2.16,1.76-2.83,2.88-.67,1.14-.9,2.36-.43,3.5.72,1.8,2.59,3.15,4.5,4.08,1.94.95,4.08,1.53,6.22,1.84.95.13,1.88.18,2.83.2,1.76.03,2.86-.13,3.65-.16.79-.04,1.28.03,1.79.24.23.09.53.15.71.26.31.18.2.59-.42,1.1-.62.51-1.76,1.03-3.26,1.27-2.23.35-4.48.25-6.7-.13-2.22-.4-4.4-1.08-6.53-2.14-1.06-.54-2.1-1.18-3.07-2.02-.96-.84-1.89-1.89-2.5-3.28-.29-.7-.5-1.47-.55-2.29-.05-.81.08-1.61.3-2.33.45-1.45,1.23-2.61,2.09-3.59,1.27-1.44,2.91-2.61,4.62-3.37,1.72-.77,3.55-1.2,5.42-1.33,1.87-.11,3.79.08,5.65.72.92.36,1.84.77,2.66,1.38.44.29.77.6,1.12.9.36.29.67.62.99.95l-.05.06Z"/><path class="cls-1" d="M287.39,221.17c.5,2.21.56,4.26.46,6.25-.1,1.99-.33,3.92-.53,5.8-.07.68-.12,1.37-.13,2.01-.03.65,0,1.28.08,1.64.04.27.25.66.55,1.04.28.39.67.77,1.07,1.14.83.74,1.79,1.41,2.78,2.04,1.99,1.28,4.15,2.39,6.35,3.39,1.97.87,4.01,1.63,6.03,2.33,1.3.44,2.62.84,3.94,1.24.66.21,1.3.46,1.95.69.16.07.33.1.48.2l.46.29c.31.19.63.34.95.5.79.42.7.34-.08.47-.39.07-.95.18-1.68.45-.7.17-1.47.14-2.3.05-2.84-.61-5.63-1.38-8.34-2.41-2.69-1.09-5.34-2.34-7.86-3.9-1.51-.94-3.05-1.91-4.52-3.15-.73-.64-1.45-1.34-2.05-2.31-.15-.23-.27-.53-.4-.79-.1-.29-.21-.64-.24-.91-.09-.58-.08-1.08-.07-1.56.1-2.07.4-3.94.59-5.84.2-1.89.33-3.76.21-5.57-.06-1.09-.31-2.24-.66-3.07-.11-.24-.5-.61-.92-.93-.43-.32-.9-.62-1.39-.9-.74-.42-1.52-.81-2.27-1.11-.67-.25-1.57-.39-2.41-.5-.86-.11-1.73-.17-2.59-.18-.43,0-.86,0-1.28.02l-.63.04c-.21.02-.43.04-.52.06-.34.05-.66.14-.94.27-.28.13-.52.34-.56.65.03.45.53.64.86.75.18.06.35.1.51.14l.24.05.54.14c.58.13,1.15.26,1.73.4,2.18.54,2.97.97,3.16,1.79.05.17.12.37.1.51-.08.44-.88.49-2.46.23-.63-.1-1.26-.2-1.89-.3-.67-.11-1.26-.2-2.04-.38-.59-.15-1.2-.32-1.76-.55-.27-.12-.54-.24-.83-.36-.28-.12-.48-.29-.69-.44-.84-.63-1.17-1.43-1.1-2.5.18-1.91,2.11-3.02,4.57-3.41l.68-.09.52-.06c.35-.03.69-.06,1.03-.07.68,0,1.35.01,2.02.06,1.04.07,2.06.19,3.12.4.52.11,1.14.24,1.75.49.55.22,1.03.45,1.5.7.94.5,1.83,1.04,2.74,1.74.46.37.91.73,1.42,1.38.24.3.51.85.58,1.1.1.28.2.57.28.85l-.07.03Z"/><path class="cls-1" d="M270.13,234.83c.63.22,1.39.35,2.22.5l.66.12.46.09c.18.05.35.11.53.16.68.23,1.31.68,1.5,1.39.11.23.15.5.21.75.05.24.14.55.13.68.04.33.07.67.06.98,0,1.1-.03,2.11.06,3.1.07.99.34,1.9.71,2.75.15.39.41.71.68,1.03.11.18.3.28.45.42.16.14.28.32.46.43l.68.47c.23.16.5.24.75.41.25.15.5.33.77.44.27.13.55.26.83.35.35.13.3.2-.04.27-.17.04-.41.05-.72.14-.31.07-.69.19-1.08.16-.36,0-.71-.05-1.06-.11-.35-.08-.69-.21-1.05-.33-.71-.24-1.39-.68-1.87-1.28-.54-.55-.95-1.22-1.27-1.9-.29-.7-.43-1.42-.51-2.12-.18-1.65-.31-3.31-.39-4.72l-.03-.42c0-.08-.01-.15-.03-.23-.02-.17-.19-.24-.33-.29-.04-.02-.08-.02-.12-.03l-.27-.05-.6-.1-1.28-.21c-1.07-.21-2.25-.5-3.29-1.32-.19-.15-.37-.34-.55-.52-.17-.22-.33-.45-.44-.7-.23-.49-.32-.99-.34-1.47-.02-.96.18-1.87.63-2.7.31-.6.92-1.44,1.79-1.65.41-.11.96-.1,1.25-.1.34,0,.66.03.98.06.28.03.56.04.82.13.49.15.8.3.99.5.18.22.26.45.29.73.01.13.05.26.05.37,0,.19-.12.34-.34.47-.22.13-.54.28-.9.29-.54.05-1.08.11-1.57.09-.24,0-.49,0-.69.03-.15,0-.1.02-.12.03,0,.01-.02.02-.02.03-.03.08.05-.03-.1.3-.1.26-.22.59-.26.9-.06.49.03.79.09.86.19.25.64.53,1.28.72l-.02.07Z"/><path class="cls-1" d="M312.39,249.47c.1.6.18,1.23.22,1.89,0,.24.12.46.09.71-.07.87-.35,1.73-.67,2.48-.14.34-.22.69-.4,1-.19.41-.34.84-.89,1.02-.16.06-.35-.09-.59-.35-.12-.13-.26-.3-.4-.47-.15-.18-.25-.34-.24-.44.06-.37-.06-.75.08-1.03.05-.15.11-.29.19-.43.06-.15.13-.29.22-.45.21-.38.04-.8.02-1.22-.02-.47-.04-.97-.14-1.5-.05-.32-.12-.65-.2-.98-.13-.5-.25-1.03-.42-1.55-.14-.4-.42-.77-.58-1.23-.04-.1-.1-.19-.12-.3-.03-.41.21-.55.8-.63.14-.02.27-.04.41-.05.45-.03.86.1,1.1.26.58.48.83.97,1.12,1.62.17.48.3,1.05.46,1.62l-.06.02Z"/><path class="cls-1" d="M331.33,279.3c1.6-.52,2.85-1.84,3.71-3.61.84-1.78,1.33-3.86,1.59-5.99.53-4.28.29-8.77-.19-13.19-.36-3.24-.97-6.46-1.58-9.67-2.22-11.33-5.51-22.52-9.74-33.31-1.91-4.77-4.07-9.5-6.68-13.81-.83-1.39-1.72-2.74-2.72-3.93-.97-1.13-2.25-2.2-3.51-3.14-1.28-.93-2.62-1.77-4.06-2.33-.71-.29-1.45-.5-2.2-.64-.74-.16-1.51-.27-2.28-.27-.97,0-1.41.03-1.42-.14,0-.13.42-.46,1.29-.8.85-.32,2.22-.74,3.88-.55,1.64.17,3.53.8,5.26,1.89,1.56.97,2.91,2.02,4.28,3.28,1.39,1.36,2.39,2.8,3.37,4.27,1.9,2.95,3.39,6.04,4.82,9.15,2.81,6.24,5.12,12.66,7.09,19.21,2.34,7.83,4.71,16.02,6.15,24.3.78,4.55,1.35,9.15,1.43,13.82.04,2.33-.06,4.68-.38,7.03-.36,2.34-.92,4.72-2.14,6.92-.74,1.35-1.81,2.61-3.18,3.48-1.34.88-3.04,1.34-4.48,1.38l-2.19.15c-.73.03-1.45-.04-2.18-.06-1.46,0-2.88-.26-4.31-.44-4.31-.7-8.47-2.01-12.47-3.61-4-1.61-7.87-3.5-11.58-5.62-1.53-.86-3.02-1.76-4.48-2.72-.73-.47-1.46-.96-2.17-1.5-.36-.25-.71-.53-1.06-.84-.15-.14-.39-.31-.61-.55l-.61-.73c-.29-.47-.26-1.06-.14-1.63l.16-.75.14-.58.57-2.25,1.15-4.44c.33-1.38.66-2.73.99-4.12,1.22-5.15,1.52-6.7,2.44-7.75.21-.24.4-.57.59-.72.62-.54,1.16,1.84.51,5.81-.43,2.77-1.04,5.53-1.7,8.28-.34,1.37-.68,2.74-1.02,4.13l-.5,2.04-.11.49c-.03.11-.02.11-.02.11v.02s0,.05.02.06l.03.02s.02,0,.04.03l.14.12c.25.22.5.43.82.65.59.44,1.19.88,1.85,1.3.63.43,1.28.85,1.95,1.25.66.41,1.33.82,2.01,1.2,2.71,1.57,5.53,3,8.42,4.27,4.06,1.81,8.27,3.27,12.52,4.31,1.07.24,2.13.52,3.21.64,1.07.16,2.15.35,3.22.37l1.61.09c.54.03,1.05-.05,1.58-.06l1.58-.09c.45-.07.87-.14,1.26-.28l.03.07Z"/><path class="cls-1" d="M213.15,189.95c2.14,3.82,4.14,7.64,6.28,11.38.78,1.36,1.64,2.67,2.45,4,1.42,2.34,2.89,4.7,4.58,6.67,1.8,2.03,3.77,3.9,6,5.3,1.98,1.26,4.24,1.97,6.55,2.18,1.49.1,3.01.07,4.54-.04l1.15-.1c.39,0,.78-.03,1.17-.05.78-.05,1.56-.09,2.37-.07,1,.03.88.08.13.54-.75.49-2.13,1.5-3.98,1.93-.82.17-1.66.29-2.5.4l-1.28.12-1.31-.02c-1.75-.07-3.54-.39-5.23-.99-1.7-.59-3.23-1.55-4.61-2.58-1.4-1.03-2.61-2.23-3.76-3.45-.66-.74-1.38-1.47-2.04-2.3-.66-.8-1.27-1.62-1.87-2.45-1.19-1.65-2.32-3.33-3.36-5.04-2.3-3.75-4.4-7.58-6.55-11.37-.66-1.16-1.32-2.33-2-3.47-.34-.57-.68-1.13-1.04-1.68l-.37-.55c-.1-.14-.2-.28-.33-.41-.06-.05-.13-.12-.22-.1-.24.06-.45.21-.68.34-.19.12-.67.44-1.04.71l-2.37,1.69c-1.58,1.15-3.16,2.3-4.73,3.45-2.55,1.86-4.99,3.78-7.63,5.51-.58.38-1.15.77-1.76,1.12-1.13.66-1.94.99-2.58,1.08-.31.05-.57.06-.81,0-.24-.06-.46-.16-.66-.28-.18-.11-.4-.18-.52-.29-.38-.3.28-1.35,1.77-2.38,4.5-2.96,9.1-6.38,13.78-9.87l2.99-2.21.78-.55.86-.58.7-.45c.26-.14.52-.31.78-.43.53-.28,1.04-.3,1.56-.35.39.16.77.23,1.12.45.37.15.66.53.97.84.28.37.57.75.82,1.12l.43.66c.53.85,1.02,1.68,1.51,2.51l-.06.05Z"/><path class="cls-1" d="M225.16,444.72c-.41-.35-.79-.78-1.18-1.17l-.54-.66c-.1-.12-.17-.19-.28-.36-.12-.19-.23-.38-.34-.57-.22-.4-.27-.69-.4-1.05-.09-.33-.13-.62-.2-.93-.08-.59-.15-1.16-.15-1.7-.06-2.17.16-4.17.42-6.16.54-3.97,1.33-7.83,2.17-11.68,1.7-7.68,3.66-15.27,5.66-22.84,1.46-5.52,2.87-11.06,4.38-16.55,5.35-19.39,10.85-38.71,15.9-58.15,2.24-8.63,4.29-17.35,6.24-25.97,1.24-5.54,2.39-11.11,3.51-16.68,1.11-5.58,2.23-11.15,3.34-16.71.68-3.47.77-2.99.75.04-.01,1.51-.07,3.66-.18,6.26-.07,1.3-.12,2.71-.27,4.2-.17,1.48-.38,3.05-.65,4.67-3.77,23.02-9.71,45.54-16.05,68.08-3.83,13.47-7.54,27.57-11.28,41.39-2.05,7.6-4.08,15.2-5.96,22.83-.94,3.81-1.84,7.64-2.66,11.47-.81,3.83-1.56,7.68-1.99,11.51-.12,1.18-.22,2.35-.23,3.5,0,.57.02,1.14.08,1.67.06.53.18,1.04.33,1.37.05.07.07.13.12.22l.26.32c.18.21.34.43.54.62.38.41.8.78,1.23,1.15.88.71,1.82,1.38,2.83,1.97,4.04,2.35,8.64,3.84,13.27,5.02,7.06,1.72,14.33,2.67,21.61,3.24,7.29.55,14.6.68,21.84.42,11.26-.43,22.3-1.77,33.06-4.39,2.36-.59,4.64-1.27,6.96-2.02,4.3-1.41,6.97-2.64,8.84-3.49.94-.42,1.68-.75,2.31-1.02.65-.24,1.18-.42,1.7-.54.47-.11,1.03-.37,1.35-.4.53-.08.23.65-1.01,1.93-1.22,1.29-3.53,2.85-6.68,4.32-4.7,2.14-9.68,3.62-14.74,4.8-5.07,1.17-10.25,2.02-15.49,2.64-10.47,1.23-21.17,1.57-31.86,1.14-7.94-.35-15.9-1.11-23.79-2.65-3.94-.8-7.87-1.74-11.73-3.06-1.93-.67-3.85-1.43-5.72-2.38-1.87-.94-3.7-2.07-5.36-3.55l.04-.07Z"/><path class="cls-1" d="M269.34,310.97c1.12-4,2.23-8,3.23-12.03.38-1.47.64-2.96,1-4.43,1.27-5.18,2.47-10.39,3.47-15.63.48-2.32.81-4.68,1.14-7.01.18-1.5.41-2.99.64-4.49.11-.75.22-1.5.35-2.24.12-.75.36-1.48.57-2.22.37-.91.4-.78.7.05.16.42.34,1.01.55,1.72.17.71.24,1.53.22,2.41-.07,1.56-.15,3.12-.28,4.67-.16,1.55-.4,3.09-.62,4.63-.45,3.09-1.08,6.15-1.86,9.19-.9,3.64-1.57,7.48-2.43,11.21-.96,4.1-2.01,8.18-3.1,12.24-.68,2.5-1.36,4.99-2.05,7.49-1.03,3.78-2.15,7.55-3.14,11.31-.77,2.92-1.36,5.83-2.03,8.74-.15.64-.26,1.28-.43,1.92-.31,1.19-.56,1.96-.86,2.46-.33.5-.68.74-1.13.89-.2.07-.41.17-.58.2-.3.04-.49-.22-.62-.71-.13-.5-.16-1.24,0-2.12.92-5.28,2.39-10.7,3.87-16.14,1.11-4.03,2.22-8.08,3.34-12.13h.07Z"/><path class="cls-1" d="M314.36,339.95c-4.12-.12-8.26-.1-12.4.03-1.51.05-3.02.2-4.52.26-5.32.24-10.65.6-15.94,1.2-2.35.27-4.69.65-6.98,1.12-1.47.3-2.93.66-4.37,1.04-.72.18-1.43.41-2.16.55-.73.14-1.46.27-2.19.42-.9.2-.92-.03-.35-.77.29-.35.72-.86,1.31-1.35.29-.25.61-.52.98-.73.37-.18.78-.35,1.21-.48,3.06-.9,6.14-1.51,9.24-2,3.09-.49,6.21-.82,9.35-.98,3.75-.21,7.62-.69,11.45-.91,4.21-.24,8.43-.35,12.65-.35,2.6,0,5.2.07,7.8.2,1.97.1,3.95.26,5.93.52.99.13,1.98.29,2.98.52.5.12,1,.25,1.5.42.5.17,1.02.38,1.55.77.18.11.33.29.49.44.54.63,1.04,1.41,1.14,2.44.1,1.04-.39,2.04-.95,2.68-1.15,1.32-2.5,2.03-3.82,2.72-.62.31-1.21.61-1.84.87-2.33.92-3.03,1.01-3.85.42-.18-.12-.39-.2-.53-.31-.47-.31.25-1.5,1.92-2.23,1.73-.85,3.52-1.65,4.9-2.62.69-.46,1.19-1.06,1.2-1.25.01-.09,0-.07-.04-.21-.04-.12-.21-.39-.39-.61-.02,0,0,0-.04-.01-.02-.03-.14-.08-.22-.12-.22-.1-.48-.2-.78-.29-.6-.18-1.29-.33-1.99-.45-3.88-.63-8.09-.81-12.22-.87v-.07Z"/><path class="cls-1" d="M275.58,187.47c-.2.44-.4.9-.5,1.38-.04.18-.03.36-.06.53-.13.63-.24,1.3-.15,1.96.02.3.14.57.23.85.16.34.36.65.45,1.04.02.12-.2.26-.47.31-.28.05-.63.02-.8-.19-.54-.74-.91-1.64-.91-2.57,0-.55-.15-1.11-.11-1.67.06-.61.16-1.21.34-1.79.09-.36.24-.7.36-1.05.21-.52.48-1,.71-1.5.18-.39.26-.83.43-1.25.04-.09.06-.19.12-.27.2-.3.39-.3.88.03.11.07.23.14.33.22.36.27.57.61.54.87-.05.76-.39,1.25-.68,1.82-.23.41-.46.83-.65,1.28h-.05Z"/><path class="cls-1" d="M281.32,187.61c-.2.36-.39.75-.49,1.16-.05.15-.02.3-.05.46-.12.54-.21,1.12-.18,1.71,0,.26.11.5.19.74.13.3.31.57.35.93,0,.11-.22.25-.5.32-.28.07-.65.07-.81-.11-.53-.63-.91-1.41-.93-2.25,0-.49-.14-.98-.15-1.48,0-.55.08-1.09.21-1.62.07-.33.18-.64.28-.96.16-.48.42-.92.6-1.38.15-.36.19-.78.32-1.18.03-.09.04-.19.08-.27.17-.3.38-.27.95.15l.39.29c.42.34.69.73.71.95.04.67-.17,1.07-.38,1.53-.15.34-.37.66-.54,1.03h-.06Z"/><path class="cls-1" d="M310.37,249.96c.07.18.12.37.17.54.02.06.07.1.08.17.02.25,0,.49-.02.7,0,.09.02.17.05.25.04.1.1.2,0,.33-.05.07-.94.13-1.03.09-.12-.11-.2-.2-.15-.38.04-.11-.1-.14-.13-.21-.04-.09-.08-.18-.11-.27-.03-.06-.05-.12-.09-.16-.06-.07-.11-.17-.2-.19-.08-.02-.2.07-.3.13-.02.01-.05.04-.07.05-.06.02-.02-.1.16-.59l.12-.33c.14-.38.3-.67.41-.74.34-.2.6-.07.79.11.14.13.24.31.34.47l-.03.03Z"/><path class="cls-2" d="M130.58,81.31c.09-.28,2.17-12.57-1.54-14.71-2.29-1.31-4.28,4.24-4.28,4.24,0,0-12.71-7.82-15.91-4.9-1.62,1.48,5.05,4.58,4.55,5.7-.38.85-9.96,5.72-9.95,8.86,0,2.32,8.71,1.09,13.41.51,5.27-.66,8-1.08,10.26.64,2.26,1.72,3.46-.34,3.46-.34Z"/><path class="cls-1" d="M127.6,79.21c-.1-.43-.23-.86-.4-1.27-.06-.15-.16-.28-.23-.43-.23-.52-.42-1.1-.73-1.61-.13-.23-.3-.43-.47-.62-.23-.24-.48-.46-.64-.78-.05-.1.1-.24.31-.34.21-.09.51-.15.68-.03.6.43,1.15.96,1.5,1.62.21.39.53.74.75,1.14.24.44.44.9.62,1.36.11.28.21.58.31.89.14.48.21,1,.16,1.57-.05.43-.09.91-.39,1.35-.07.09-.13.2-.23.27-.37.29-.61.2-.81-.23-.05-.1-.09-.2-.13-.3-.1-.35-.11-.66-.13-.79-.1-.4-.05-.46-.03-.78,0-.24-.04-.6-.17-1.01l.04-.02Z"/><path class="cls-1" d="M130.16,82.75c-.45-.99-.98-1.95-1.55-2.88-.2-.35-.48-.63-.7-.96-.77-1.16-1.55-2.37-2.53-3.37-.43-.45-.93-.84-1.42-1.19-.31-.24-.65-.44-.98-.64-.34-.2-.62-.49-.94-.75-.19-.18-.11-.33.18-.48.15-.08.35-.16.6-.22.24-.05.57-.16.79-.03,1.77.63,3.17,1.86,4.23,3.28.64.85,1.44,1.61,2.05,2.49.68.97,1.27,1.99,1.82,3.02.32.65.66,1.28.95,1.94.47.98.86,2,1.28,2.99.16.39.37.75.54,1.13l.5,1.15c.07.17.14.34.19.52.1.33.11.56.01.75-.08.18-.21.31-.42.43-.09.06-.18.12-.27.16-.28.13-.68-.05-1.04-.44-.38-.62-.76-1.25-1.1-1.89-.3-.65-.57-1.33-.87-2-.43-.99-.86-2.01-1.37-2.97l.05-.03Z"/><path class="cls-1" d="M129.98,58.72c.93.59,1.63,1.36,2.03,2.17.46.79.72,1.6.95,2.4.13.58.35,1.15.41,1.74.28,2.06.19,4.08-.07,6.07-.12.88-.19,1.76-.34,2.63-.12.55-.19,1.11-.37,1.66-.11.56-.5,1.05-.81,1.53-.28.27-.29.21-.46-.15-.09-.18-.19-.42-.3-.71-.06-.16-.11-.31-.16-.45-.03-.08-.04-.16-.09-.24,0-.07,0-.15,0-.22.14-2.14.42-4.22.6-6.38.12-1.29-.09-2.63-.34-3.89-.27-1.38-.73-2.74-1.54-3.65-.26-.24-.55-.5-.81-.6-.27-.1-.5-.1-.78.02-.42.19-.87.65-1.23,1.18-.37.53-.67,1.14-.91,1.77-.38.98-.54,2.03-.72,3.06-.04.23-.05.46-.1.68-.07.42-.17.69-.36.85-.16.17-.36.25-.62.3-.12.02-.23.06-.34.08-.34.05-.67-.4-.77-1.11.03-2.05.47-4.14,1.53-6.22.42-.77.89-1.58,1.83-2.29.47-.34,1.11-.66,1.84-.71.72-.06,1.44.14,1.94.43l-.02.05Z"/><path class="cls-1" d="M103.87,82.96c-.28-.16-.56-.32-.83-.56-.28-.21-.52-.48-.73-.78-.44-.56-.74-1.25-.8-2.06-.07-.8.16-1.58.47-2.17.32-.6.7-1.06,1.1-1.46,1.61-1.55,3.34-2.41,5.07-3.26l1.88-.88.32-.15c.07-.03.15-.06.24-.09l.18-.06s.17-.06.09-.1l-.23-.22-.33-.32c-.38-.32-.75-.65-1.12-1-.74-.69-1.46-1.41-2.13-2.24-.65-.84-1.32-1.76-1.56-3.08-.08-.65-.05-1.42.28-2.04.13-.34.34-.59.54-.84.18-.27.49-.48.77-.68.31-.22.65-.31.97-.45.32-.07.64-.15.96-.19.31-.02.62-.04.92-.05l.88.05c1.15.13,2.24.4,3.29.73,2.68.85,5.17,2.39,6.92,4.59.54.69.36.68-.36.42-.35-.14-.87-.28-1.47-.45-.32-.08-.64-.16-.97-.24-.17-.04-.34-.1-.53-.12-.16-.07-.33-.14-.49-.21-.59-.25-1.19-.49-1.8-.69-.3-.11-.61-.2-.91-.28-.29-.12-.59-.22-.89-.31-1.18-.38-2.4-.65-3.47-.68-.28-.03-.49.03-.74.03-.11.01-.19.05-.29.06l-.15.03-.09.05s-.15.04-.17.07c-.02.03-.05.05-.11.05-.08.1-.24.2-.26.28-.11.14-.19.35-.1.79.13.43.37.94.7,1.44.48.71,1.13,1.38,1.82,2.03.35.32.71.64,1.09.94.06.05.28.23.43.35l.5.39,1.01.77.52.55c.11.17.14.31.21.47.04.17.17.28.14.49-.06.17-.14.3-.25.44-.34.61-1.61,1.11-2.65,1.55l-1.47.63-1.23.57c-.81.39-1.6.81-2.34,1.27-.74.46-1.43.98-1.95,1.54-.52.58-.77,1.15-.65,1.63.16.7.79,1.27,1.75,1.58.95.31,2.05.41,3.15.45,3.37.04,6.85-.48,10.3-.79,2.69-.24,5.37-.58,8.23-.11.63.11,1.26.24,1.89.5,1.18.47,1.88,1.08,2.22,1.6.16.27.27.49.29.72.01.24-.03.45-.11.65-.07.19-.12.39-.22.51-.17.22-.47.19-.85.06-.37-.14-.8-.39-1.34-.68-1.66-.84-3.94-.94-6.25-.87-2.33.09-4.78.27-7.27.49-1.86.15-3.74.3-5.69.32-.97.04-1.97.05-3.01-.05-1.04-.11-2.14-.27-3.31-.88l.02-.06Z"/><path class="cls-5" d="M56.9,127.13s7.84,1,13.77-2.16c5.62-3,6.33-4.17,6.56-4.03,1.77,1.09,2.21,4.4,2.2,5.76-.02,2.69,10.19-2.68,12.82-3.01,1.22-.15-2.77,5.88-4.72,7.48-2.79,2.29,6.61,5.03,8.38,6.52,2.15,1.81-11.71,6.95-21.19,3.26-11.35-4.42-17.83-13.81-17.83-13.81Z"/><path class="cls-1" d="M81.26,116.32c-.16.51-.32,1.02-.47,1.52-.06.18-.07.37-.13.55-.2.63-.4,1.25-.48,1.88-.05.28-.02.56-.04.84,0,.18.07.34-.03.54-.02.18-.04.33-.08.58-.02.13-.04.12-.13.04-.08-.08-.31-.22-.49-.42-.65-.76-.44-1.68-.23-2.45.14-.47.16-.97.26-1.44.12-.5.24-1.01.36-1.52.07-.31.14-.61.19-.92.08-.46.14-.93.11-1.38-.04-.35-.18-.68-.33-.97-.03-.07-.07-.13-.1-.19-.12-.24-.02-.35.34-.56l.24-.14c.26-.14.57-.12.74.1.49.65.63,1.52.58,2.29-.02.58-.14,1.14-.27,1.67h-.04Z"/><path class="cls-1" d="M61.2,128.82c-1.32-.45-2.64-.94-3.91-1.54-.47-.2-.95-.37-1.4-.62-1.59-.85-3.09-1.87-4.45-3.02-.62-.49-1.23-.98-1.84-1.47-.75-.66-1.53-1.31-1.97-2.27-.15-.29-.02-.35.33-.35.18,0,.42.01.7.03.29.01.58.08.8.24.41.28.85.5,1.24.78.37.31.76.59,1.14.88.37.3.76.59,1.14.87.38.3.76.59,1.15.88.9.75,2.04,1.19,3.11,1.7,1.19.53,2.41,1.04,3.68,1.44.77.27,1.57.48,2.36.68,1.21.29,2.43.58,3.67.72.96.13,1.93.04,2.88.13.21.01.42,0,.63.03.39.04.64.13.81.3.17.16.25.34.31.6.03.12.06.23.07.34.04.36-.32.66-.94.87-.89.12-1.81.27-2.72.19-.91-.07-1.83-.19-2.75-.37-1.37-.24-2.73-.62-4.08-1v-.06Z"/><path class="cls-1" d="M85.1,123.13c-.42.12-.84.23-1.28.34-.47.11-.77.18-1.61.3-.38.03-.77.06-1.13.02-.19,0-.35-.07-.53-.1-.15-.08-.29-.17-.42-.3-.14-.11-.22-.27-.36-.37-.06-.17-.12-.34-.17-.51-.11-.35-.18-.7-.18-1.11v-.47c-.02-.12,0-.24,0-.36.02-.23.02-.48.05-.71.05-.46.12-.91.2-1.35.16-.87.36-1.72.55-2.54.14-.6.26-1.19.35-1.77l.05-.3v-.11c.02-.07.03-.15.03-.23,0-.06,0-.12,0-.19-.02-.06-.02-.17-.09-.18-.06,0-.12.04-.18.07-.12.06-.24.14-.37.23l-2.31,1.82c-1.64,1.28-3.3,2.55-5.05,3.69-1.64,1.07-3.31,2.12-5.05,3.03-2.2,1.18-4.65,2.17-7.22,2.11-.81-.1-.68-.04-.09-.39.29-.19.71-.44,1.18-.78.24-.16.48-.37.75-.54.27-.16.56-.32.87-.46.55-.25,1.07-.57,1.61-.81.54-.25,1.08-.52,1.62-.8,1.07-.56,2.11-1.19,3.14-1.84,2.05-1.33,4.08-2.74,6.12-4.2.95-.68,1.87-1.42,2.8-2.19.16-.14.65-.54,1.03-.81.4-.28.79-.57,1.16-.76.38-.19.7-.26,1.02-.25.15,0,.38.07.48.22.12.13.27.24.34.41.39.81.52,1.86.35,3.04-.04.4-.07.51-.11.76l-.12.65-.26,1.27c-.18.83-.35,1.65-.47,2.46-.07.4-.1.8-.14,1.19-.03.38-.02.85-.02.93.02.16,0,.42.22.44.19.03.34.01.58-.03.9-.18,1.94-.49,2.92-.79l3-.96c1.06-.34,2.12-.67,3.24-.92.3-.06.53-.11.9-.17.39-.05.79-.08,1.16-.05.36.06.72.15.98.41.27.27.27.65.32,1-.02.35,0,.7-.05,1.03-.03.27-.05.52-.1.77-.07.5-.18,1-.29,1.49-.59,2.47-1.57,4.89-3.33,6.92-.42.41-.78.88-1.28,1.22-.87.7-1.58.98-2.08,1.09-.56,0-.9-.12-1.21-.33-.14-.1-.3-.18-.39-.29-.15-.18-.07-.42.18-.75.25-.31.61-.75,1.15-1.1,1.52-1.03,2.71-2.51,3.6-4.23.46-.86.8-1.79,1.09-2.75.15-.48.26-.97.35-1.45.05-.24.09-.49.11-.73.01-.13,0-.06.01-.08h0s0,0,0,0h0s.16-.04-.36.06c-.74.15-1.54.37-2.34.6l-4.9,1.52-.02-.05Z"/><path class="cls-1" d="M86.24,143.04c-2.94.36-5.93.32-8.84-.21-1.06-.18-2.12-.38-3.15-.71-3.65-1.18-6.87-3.25-9.61-5.7-1.23-1.08-2.43-2.19-3.54-3.34-1.49-1.43-2.7-3.13-3.87-4.82-.36-.53-.23-.52.25-.23.47.3,1.39.81,2.32,1.54,3.26,2.6,6.16,5.38,9.48,7.66.98.7,2.07,1.27,3.2,1.75,1.14.45,2.31.82,3.5,1.1,2.62.63,5.35.81,8.07.59,1.67-.13,3.34-.43,4.97-.86,1.23-.33,2.47-.74,3.62-1.22.34-.13.69-.29,1.02-.47.17-.09.33-.18.48-.29.06-.06.19-.11.15-.2-.05-.08-.14-.13-.22-.18-.25-.17-.52-.31-.77-.44l-.38-.18-.18-.08-.33-.18c-.91-.47-1.79-.99-2.65-1.58-.38-.25-.77-.51-1.14-.81-.67-.59-1.07-1.04-1.24-1.49-.16-.44-.09-.82.06-1.15.06-.15.1-.3.16-.39.11-.16.32-.13.69-.08.37.05.81.19,1.27.49.71.42,1.44.85,2.22,1.26.78.41,1.57.83,2.35,1.31l.98.61,1.16.74c.31.26.73.52.95.79l.42.81c.07.12.13.25.18.37.03.06.06.12.05.2v.06s0,.03,0,.03h0s.07,0-.07,0h0s0,.02,0,.02l-.03.11-.21.78c-.13.56-.92,1.06-1.7,1.5-.6.33-1.25.63-1.89.91l-.65.26-.53.2c-.71.26-1.43.48-2.15.68-1.45.4-2.92.7-4.4.91v-.06Z"/><path class="cls-2" d="M410.57,341.06c1.31,1.69,11.72,9.56,14.95,7.98.49-.24-2.68-5.57-2.02-6.82,2.43-4.58,15.45-7.79,15.81-10.5.18-1.33-14.47-.42-13.33-4.41s2.97-8.66,1.66-9.15c-2.99-1.13-10.09,5.52-12.73,9-2.41,3.17-6.15,11.57-4.34,13.9Z"/><path class="cls-1" d="M409.9,337.5c.1-.71.29-1.38.51-2.01.08-.23.12-.47.21-.69.3-.79.69-1.54,1.07-2.28.16-.34.32-.66.48-.99.2-.42.41-.84.69-1.22.09-.12.15-.06.19.09.03.15.05.41-.03.66-.29.89-.52,1.78-.86,2.65-.2.52-.31,1.09-.44,1.64-.15.6-.28,1.2-.33,1.79-.04.37-.05.73-.02,1.09.05.54.16,1.08.42,1.54.21.36.55.6.87.78.07.03.15.07.22.1.25.13.24.28.07.75l-.11.32c-.13.33-.45.57-.81.45-1.05-.36-1.73-1.38-2.01-2.39-.21-.77-.21-1.56-.14-2.27h.04Z"/><path class="cls-1" d="M414.22,342.3c-.61.08-1.16.23-1.74.34-.54.18-1.13.3-1.65.53-.38.17-.76.35-1.13.55l-1,.51c-.33.17-.63.41-.95.62-.66.39-1.2.95-1.79,1.46-.52.46-.86,1.09-1.29,1.62-.29.33-.49.74-.75,1.11-.29.35-.66.65-1.03.96-.25.19-.44.04-.61-.34-.16-.37-.4-1.04-.3-1.64.6-1.95,2.15-3.45,3.81-4.65.54-.32,1.01-.73,1.52-1.09.53-.33,1.04-.74,1.61-1.01,1.24-.61,2.56-1.04,3.87-1.3.8-.17,1.61-.29,2.39-.41,1.2-.18,2.37-.3,3.45-.63.41-.14.82-.29,1.17-.52.18-.11.36-.21.54-.31.17-.1.32-.24.49-.35.14-.1.27-.22.42-.3.47-.43.76-.39,1.29-.08.12.07.25.13.35.2.35.23.41.75.04,1.3-.26.42-.62.75-1,1.08-.38.35-.79.62-1.24.84-.89.44-1.82.69-2.7.88-1.31.29-2.58.42-3.75.67l-.02-.06Z"/><path class="cls-1" d="M438.76,339.73c-1.75.61-3.48,1.21-5.12,1.92-.81.36-1.61.72-2.36,1.13-.73.39-1.46.9-1.91,1.31,0,.02-.02.04-.04.05-.06.07-.08.15-.08.24-.02.14.01.42.06.67.1.53.3,1.13.52,1.73.2.57.45,1.15.7,1.74l.9,1.98c.47.99.88,2.01.77,2.73-.03.19-.05.36-.17.55-.11.21-.3.21-.5.27l-1.15.3c-.45,0-.91-.04-1.36-.06-.45-.03-.95-.05-1.18-.08-.59-.05-1.17-.1-1.76-.17-1.17-.12-2.35-.33-3.51-.56-2.2-.49-4.42-1.19-6.4-2.32-.65-.34-1.24-.78-1.85-1.19-.57-.46-1.16-.9-1.67-1.43l-.76-.79c-.23-.29-.41-.61-.61-.92-.19-.31-.4-.61-.56-.93-.16-.33-.28-.68-.42-1.01-.31-.85-.23-.75.45-.32.34.21.86.47,1.42.8.29.16.6.32.9.51.16.08.29.21.48.27.14.11.28.23.42.35,1.91,1.8,4.21,2.98,6.68,3.86,1.24.42,2.55.72,3.88.96.67.11,1.35.22,2.04.3.34.05.69.08,1.04.12.33.04.79.08.79.1.11.03.22.03.36.08l.37.04c.08.02.12-.04.1-.1,0-.06-.02-.11-.04-.17-.04-.11-.09-.22-.14-.34l-.08-.17-.23-.44c-.73-1.42-1.53-2.86-2.01-4.6-.14-.53-.25-1.1-.25-1.77,0-.75.24-1.59.79-2.15,1.27-1.33,2.6-2.01,3.96-2.73,1.37-.66,2.75-1.2,4.13-1.72l3.38-1.2,1.66-.59.82-.31.58-.24c.21-.09.43-.19.64-.32.1-.07.21-.14.27-.24.08-.1.03-.23-.04-.32-.11-.21-.3-.36-.48-.53l-.3-.22c-.1-.08-.17-.13-.38-.24-1.45-.86-3.1-1.5-4.77-1.96-2.6-.67-5.29-.92-7.86-.64-.56.07-1.11.14-1.66.27-2.02.44-2.61.54-3.34.13-.16-.09-.36-.15-.49-.25-.21-.16-.16-.42.15-.79.16-.19.38-.4.66-.63.28-.24.67-.36,1.09-.55,2.55-.97,5.34-1.1,8.03-.84,2.71.3,5.39.93,7.98,2.1.48.21.96.45,1.44.73l.4.22c.18.09.38.26.55.4l1.09.87c.55.64,1.16,1.3,1.2,2,.14.32.05.76-.07,1.09-.12.34-.31.64-.59.92-.5.59-1.34,1.03-2.18,1.45-.49.28-.66.29-.9.41l-.7.27-2.75,1.01-.03-.07Z"/><path class="cls-1" d="M415.18,324.37c2.01-1.88,4.18-3.47,6.49-4.88.84-.51,1.67-1.06,2.59-1.48.41-.18.82-.36,1.25-.52l.66-.23.36-.1c.16-.05.34-.09.51-.12.69-.16,1.36-.17,1.95-.02.58.15,1.12.57,1.33,1.14.22.55.18,1.2.02,1.83-.1.31-.16.64-.29.94l-.3.66c-.41.79-.84,1.53-1.29,2.25-.77,1.27-1.54,2.55-2.3,3.82-.48.81-.93,1.62-1.37,2.44-.49.79-1.02,1.55-1.43,2.37-.27.51-.4.42-.52-.14-.13-.56-.24-1.65.02-2.8.33-.97.78-1.84,1.2-2.74.43-.88.87-1.76,1.37-2.57.48-.81.96-1.63,1.44-2.44.44-.74.97-1.84,1.01-1.79.09-.13.16-.38,0-.49-.15-.09-.35-.06-.53-.02-.03,0-.32.09-.57.2-.25.09-.5.21-.75.32-.5.24-1.01.49-1.51.77-2.2,1.19-4.31,2.68-6.24,4.33-1.17,1.03-2.3,2.13-3.21,3.34-.66.89-1.25,1.98-1.83,3.02-.57,1.06-1.09,2.13-1.51,3.23-.66,1.72-.97,3.48-1.27,5.28-.07.4-.1.8-.18,1.2-.41,1.47-.76,1.91-1.39,2.11-.15.05-.29.11-.42.13-.44.05-.68-.64-.74-1.79-.05-.86.03-1.71.14-2.58.12-.87.27-1.77.49-2.66.47-1.78,1.17-3.53,1.99-5.17.3-.61.62-1.21.95-1.8l.51-.88.26-.44.31-.48c.83-1.26,1.79-2.3,2.78-3.29l.05.04Z"/><path class="cls-3" d="M161.6,288.56c-6.34,1.37-13.41-18.52-16.14-17.37-1.83.77-.64,8.26-3.11,9.63-2.72,1.51-8.88.5-10.29,1.55-2.3,1.72,5.26,5,9.01,6.66,3.76,1.67,1.44,4.87-.85,5.73s3.2,2.59,8.47,1.51c5.27-1.08,12.89-7.72,12.89-7.72Z"/><path class="cls-1" d="M156.81,293.34c-.4.33-.81.64-1.21.93-.15.11-.27.24-.42.35-.54.35-1.09.68-1.64.99-.25.13-.5.27-.74.41-.31.18-.62.36-.99.43-.11.02-.16-.11-.16-.29,0-.18.04-.44.18-.59.48-.52.91-1.06,1.57-1.33.38-.19.66-.53.97-.81.35-.31.7-.61,1.03-.94.21-.2.4-.4.59-.61.28-.32.56-.64.74-1.01.13-.29.13-.61.1-.85-.01-.05-.04-.1-.04-.14-.02-.15.07-.15.5-.33l.29-.12c.32-.14.63-.08.77.26.33.99-.08,1.81-.47,2.42-.31.47-.66.87-1.04,1.23l-.03-.03Z"/><path class="cls-1" d="M153.51,288.28c1.17.15,2.36.2,3.55.11.43-.03.89-.15,1.33-.19.79-.08,1.57-.17,2.32-.32.76-.13,1.49-.31,2.18-.62.61-.27,1.16-.68,1.65-1.14.67-.57,1.14-1.3,2.04-1.77.25-.17.27-.11.27.19,0,.15,0,.36.02.65,0,.14.03.31,0,.45-.04.13-.09.26-.16.38-.91,1.81-2.94,3.17-4.95,3.6-1.21.25-2.39.54-3.55.71-1.29.18-2.66.25-3.98.18-.82-.05-1.63-.14-2.43-.27-1.22-.2-2.41-.52-3.57-.89-.9-.28-1.82-.49-2.71-.84-.2-.07-.39-.14-.58-.24-.68-.38-.81-.67-.69-1.17.03-.12.05-.24.09-.35.14-.36.57-.49,1.1-.37.81.13,1.54.39,2.3.59.76.21,1.52.41,2.29.61,1.13.31,2.29.56,3.48.66v.05Z"/><path class="cls-1" d="M136.57,280.43c.96.13,1.85.13,2.64-.07.78-.19,1.5-.65,2.13-1.21,0-.05.04-.05.05-.1.05-.1.1-.24.15-.39.1-.3.18-.64.25-.99.14-.7.25-1.43.35-2.17.09-.66.15-1.32.21-1.99l.09-1.01.15-1.38c.11-.86.22-1.81.55-2.31.18-.23.39-.32.59-.47.03-.02.05-.04.1-.05h.01s0,0,0,0c-.03-.06.06.14-.06-.14h0s0,0,0,0h.03s.06,0,.06,0h.24c.16-.02.32-.04.47-.02.3.11.61.18.9.33.29.18.59.34.88.54l.82.78c.14.13.26.28.38.43l.32.41c.6.83,1.1,1.68,1.54,2.53.91,1.7,1.62,3.46,2.41,5.13.44.96.92,1.75,1.56,2.59.61.82,1.28,1.59,2,2.29,1.86,1.82,4.16,2.86,6.53,4.08.7.58.64.42-.15.61-.4.12-.95.15-1.64.18-.68,0-1.45-.16-2.24-.47-2.74-1.27-4.99-3.45-6.67-5.79-.41-.55-.88-1.29-1.2-1.92-.33-.64-.64-1.27-.93-1.9-.58-1.22-1.16-2.45-1.75-3.68-.38-.79-.83-1.55-1.33-2.22-.08-.11-.07-.1-.1-.14-.02-.03-.04-.06-.07-.09l-.15-.17c-.11-.1-.23-.2-.37-.26-.06-.03-.12-.03-.18-.05-.07-.02-.06.09-.08.14l-.05.37-.17,1.44c-.15,1.17-.3,2.35-.5,3.54-.1.59-.21,1.19-.36,1.8-.08.3-.15.62-.26.95-.09.28-.27.81-.6,1.13-1.04,1.23-2.58,2.05-4.15,2.29-2.62.4-4.95-.36-7.12-.62-.81-.11-1.62-.19-2.37-.1-.19.01-.29.05-.44.07-.15.02-.27.06-.37.1-.22.09-.42.29-.43.54-.02.24.08.48.19.69.1.2.36.57.6.88.51.63,1.1,1.22,1.73,1.77.98.84,2.05,1.63,3.14,2.12,1.14.52,2.35.89,3.58,1.16.54.12,1.09.19,1.64.29,1.03.17,1.72.26,2.19.43.47.2.75.42.96.71.1.13.23.26.29.38.1.2-.08.37-.5.54-.41.16-1.07.35-1.9.3-2.47-.06-5.09-.54-7.55-1.73-1.34-.67-2.34-1.45-3.39-2.32-.51-.44-1.01-.9-1.49-1.4-.24-.26-.48-.52-.71-.81-.23-.29-.44-.57-.72-1.01-.22-.4-.42-.82-.58-1.25-.19-.43-.24-.88-.16-1.3.05-.88.61-1.66,1.34-2.13.38-.25.8-.41,1.17-.51.2-.06.39-.11.59-.15l.3-.06.22-.02c.29-.03.59-.06.88-.08h.84c1.09.04,2.08.22,3.01.41.92.19,1.79.36,2.62.46v.07Z"/><path class="cls-1" d="M138.26,296.61c1.83.35,3.83.52,5.8.41.72-.04,1.42-.18,2.12-.27.62-.08,1.23-.19,1.79-.35.52-.14,1.19-.41,1.78-.63,1.21-.48,2.4-1.01,3.57-1.59,1.03-.52,2.02-1.15,2.94-1.83.59-.43,1.15-.91,1.71-1.38.57-.45,1.19-.86,1.77-1.32.37-.28.52-.08.49.43-.03.5-.22,1.4-.78,2.15-2.29,2.31-5.01,4.08-7.98,5.25-.91.37-1.82.74-2.74,1.12-1,.36-1.98.59-2.97.74-2.17.31-4.33.36-6.51.14-1.34-.15-2.68-.42-4-.94-1.18-.46-2.15-1.23-2.56-2.17-.08-.15-.11-.31-.15-.47,0-.16,0-.34.1-.45.16-.24.38-.44.66-.64.57-.4,1.42-.68,2.06-.99,1.36-.62,2.63-1.35,3.72-2.17.23-.18.45-.38.65-.57.72-.72.91-.73,1.49-.81.13-.01.26-.06.38-.07.2-.02.35.1.43.43.05.31-.02.83-.31,1.33-.95,1.38-2.23,2.19-3.47,2.93-.63.36-1.27.69-1.9,1-.11.05-.08.04-.09.05h-.01s0,.01,0,.01h0s-.02,0-.02,0c0,0-.01.02,0,.04.58.24,1.31.43,2.04.55v.07Z"/><path class="cls-2" d="M445.64,156.71c-2.06,1.58-2.99,5.6-2.99,11.71,0,3.09,3.09,6.32,4.5,7.71.42.41.48-7.11,2.41-8.5,2.65-1.91,9.77,2.07,12.04,5.65.76,1.2-.12-7.26-.72-8.67-1.16-2.72,6.66.95,8.77,2.45,2.54,1.81-2.32-5.73-6.49-8.09-8.38-4.76-14.85-4.31-17.52-2.26Z"/><path class="cls-1" d="M444.76,157.59c-.4.57-.7,1.12-.93,1.81-.09.25-.12.5-.2.76-.29.89-.49,1.84-.7,2.78-.1.42-.16.85-.22,1.27-.04.27-.06.55-.13.82-.08.27-.18.54-.28.8-.07.16-.1.14-.16-.02-.06-.15-.21-.44-.3-.76-.1-.57-.09-1.12-.12-1.69,0-.28,0-.56.02-.85.03-.28.09-.56.15-.84.16-.67.16-1.39.29-2.09.14-.77.37-1.56.71-2.31.21-.45.44-.89.72-1.31.42-.64.96-1.21,1.56-1.72.47-.39.96-.82,1.57-1.09.13-.05.26-.14.41-.17.54-.14.73.05.84.58.03.12.06.24.07.37.04.4-.13.79-.35.93-.68.43-1.17.74-1.74,1.29-.4.4-.8.9-1.17,1.47l-.04-.02Z"/><path class="cls-1" d="M448.23,155.4c-.72-.74-1.5-1.42-2.35-2.04-.32-.21-.65-.4-.96-.61-1.1-.78-2.3-1.48-3.56-2.03-.56-.26-1.14-.45-1.73-.63-.75-.22-1.52-.4-2.26-.68-.23-.09-.17-.26.08-.41.24-.15.68-.31,1.14-.26,1.64.2,3.31.53,4.81,1.33.9.46,1.89.82,2.8,1.32.98.58,1.91,1.25,2.78,1.99.54.45,1.05.94,1.54,1.43.75.75,1.41,1.59,2.08,2.41.51.64,1.11,1.22,1.58,1.91.1.15.22.29.31.45.33.6.27.88-.22,1.24-.11.08-.22.17-.34.24-.4.23-.86.15-1.17-.19-.95-.98-1.67-2.07-2.52-3.14-.63-.79-1.3-1.57-2.05-2.28l.03-.04Z"/><path class="cls-1" d="M450.21,150.54c4.55-.63,9.23.66,12.91,3.1,1.35.88,2.65,1.83,3.8,2.94,2.02,1.96,3.74,4.18,5.1,6.65.17.32.32.6.49.98.23.5.44.99.57,1.48.14.48.2.95.16,1.35-.02.2-.07.4-.17.59-.09.22-.31.31-.5.4-.77.4-1.72.48-2.68.1-.24-.05-.46-.19-.69-.29-.21-.1-.49-.22-.61-.31-.31-.19-.61-.37-.89-.57-1.01-.68-1.96-1.4-2.92-1.87-.57-.24-.73-.3-1.03-.3-.14,0-.28.03-.4.08l-.18.09c-.07.03,0,.13,0,.19l.13.51.04.13.06.28.12.57c.15.76.29,1.53.37,2.32.18,1.54.19,3.27-.72,4.75-.28.45-.47.59-.52.55-.07-.05-.02-.3-.07-.72-.03-.42-.27-1-.48-1.63-.1-.32-.27-.66-.36-1.01-.08-.36-.15-.74-.2-1.14-.1-.71-.23-1.43-.39-2.15l-.25-1.09-.23-.91c-.08-.38-.19-.77-.21-1.13-.06-.38.1-.64.26-.85l.11-.16.05-.08.03-.05h0s-.22-.17-.11-.1h.01s.02-.03.02-.03l.4-.27.4-.27c.14-.08.31-.12.47-.18.32-.11.65-.21,1.02-.18.36,0,.71-.06,1.09.07l.55.13c.18.03.39.1.49.16l.66.3.59.32c.75.44,1.42.91,2.04,1.34.31.22.61.43.91.62l.44.27.1.07c.1.07.21.15.38.14.19-.02.12-.21.11-.37,0-.05-.02-.11-.04-.17-.09-.2-.18-.39-.29-.59-.2-.39-.43-.78-.67-1.16-.48-.76-1.02-1.5-1.6-2.21-1.17-1.41-2.5-2.71-3.91-3.85-3.09-2.51-6.83-4.28-10.8-4.4-1.21-.04-2.44.05-3.64.29-.6.11-1.2.27-1.79.44-.26.1-.47.21-.72.31-.22.13-.43.31-.65.46-1.23,1.11-2.03,2.87-2.51,4.67-.48,1.82-.69,3.72-.69,5.61.01,1.46.17,2.92.54,4.26.4,1.39.88,2.78,1.51,4,.28.54.59,1.04.94,1.51.64.88,1.15,1.34,1.48,1.73.34.37.47.72.55,1.11.04.18.12.37.12.52.01.25-.24.34-.77.3-.53-.04-1.29-.37-2.08-1.04-1.17-.99-2.05-2.29-2.7-3.63-.65-1.37-1.1-2.69-1.49-4.14-.38-1.53-.51-3.01-.55-4.51-.03-1.5.07-3,.31-4.5.36-2.22.97-4.5,2.5-6.61.79-1.03,1.9-2.01,3.32-2.49,1.09-.35,2.21-.61,3.36-.77l.02.06Z"/><path class="cls-1" d="M453.96,170.29c-1-.58-2.04-1.01-3.02-1.07-.34-.04-.75.1-.96.13h-.07c-.11,0-.21.08-.28.18-.09.14-.22.53-.31.85-.17.69-.35,1.44-.44,2.21-.09.71-.08,1.44-.04,2.16-.06.93.14,1.82-.28,2.82-.02.3-.14.28-.35.06-.1-.11-.31-.26-.55-.45-.11-.1-.28-.2-.38-.32-.08-.12-.15-.25-.19-.39-.16-.49-.31-.98-.43-1.48-.1-.5-.1-1-.12-1.51-.01-1.01.05-2.04.33-3.08.15-.49.26-.98.46-1.54.22-.69.7-1.39,1.39-1.73.21-.07.43-.16.62-.21l.49-.1c1.64-.26,3.15.2,4.42.77.79.36,1.52.8,2.23,1.25,1.07.68,2.05,1.46,3.06,2.13.78.52,1.64.92,2.42,1.24.17.07.34.11.49.16.26.09.36.15.35.27,0,.16,0,.37.15.68.07.14.18.26.29.38.18.19.27.43.02.74-.22.28-.79.46-1.2.39-1.25-.18-2.01-.63-2.82-1.07-.78-.45-1.49-.95-2.19-1.43-1.04-.71-2.04-1.44-3.08-1.97l.03-.06Z"/><path class="cls-5" d="M422.9,204.29c-.86-.75-4.57-.18-7.82-.03-5.7.26-13.32,7.51-12.73,8.12.92.97,5.91-1.42,8.28-.6.3.1-1.46,10.13-.04,9.91,1.27-.19,5.76-6.43,7.86-6.31,2.53.14,5.77,6.11,5.79,7.21s1.29-4.56,1.45-8.12.3-7.48-2.79-10.18Z"/><path class="cls-1" d="M427.42,215.25c-.28.69-.58,1.36-.87,2.03-.11.24-.17.5-.28.74-.2.42-.38.84-.63,1.3-.24.45-.58.93-1.09,1.22-.42.26-.95.43-1.47.31-.68-.15-1.2-.85-.95-1.52.1-.19.18-.09.27.06.1.16.29.29.43.39.52.4,1-.12,1.5-.77.32-.43.45-1.14.68-1.75.24-.67.49-1.35.73-2.02.14-.42.29-.83.41-1.25.19-.63.37-1.28.45-1.92.07-.5,0-1.01-.04-1.5-.01-.11-.04-.22-.04-.32,0-.4.1-.53.53-.62.1-.02.2-.05.29-.06.33-.05.61.13.71.46.29.98.19,2.04,0,3.05-.15.75-.37,1.48-.61,2.19h-.04Z"/><path class="cls-1" d="M421.01,202.23c.75-.67,1.54-1.29,2.38-1.81.3-.2.58-.42.89-.6,1.11-.6,2.23-1.13,3.37-1.59.51-.19,1-.43,1.49-.64.31-.14.62-.29.94-.42.31-.15.68-.16,1.02-.23.22-.03.24.09.15.32-.1.22-.25.68-.56.93-.58.38-1.16.75-1.74,1.11-.29.17-.59.34-.88.51-.3.15-.63.27-.94.41-.76.31-1.43.85-2.09,1.33-.74.52-1.45,1.07-2.14,1.66-.42.36-.82.76-1.2,1.17-.56.64-1.12,1.29-1.54,2.03-.34.57-.51,1.21-.74,1.82-.05.13-.07.28-.13.41-.21.49-.41.58-.96.45-.13-.03-.26-.05-.38-.09-.41-.13-.63-.48-.57-.92.17-1.29.82-2.49,1.6-3.6.57-.83,1.27-1.58,1.99-2.3l.04.03Z"/><path class="cls-1" d="M401.11,208.78c1.07-1.84,2.38-3.53,3.97-5,.58-.53,1.19-1.05,1.88-1.47,1.24-.75,2.48-1.22,3.75-1.67,1.28-.43,2.57-.8,3.9-1.01,1.18-.19,2.36-.34,3.54-.4,1.51-.13,3.06.06,4.5.55.45.15.34.35-.09.55-.43.18-1.16.44-1.97.52-.72.07-1.42.11-2.13.16-.71.07-1.41.16-2.11.29-1.39.27-2.79.54-4.2.91-.85.21-1.67.56-2.48.94-.83.39-1.51.82-2.22,1.34-1.53,1.12-2.92,2.53-4.07,4.14-.36.49-.69,1-1,1.52-.15.26-.3.53-.44.79l-.16.32-.1.22c-.09.21-.18.43-.23.66,0,.06-.02.12,0,.18.04.04.11,0,.16,0,.11-.02.22-.04.34-.07.13-.01.27-.06.41-.1l.21-.06.35-.12c.48-.17.95-.36,1.43-.56,1.36-.55,2.73-1.23,4.33-1.48.35-.05.7-.11,1.07-.11,1.39.05,1.83.42,1.85,1.1,0,.15.03.31.01.44-.08.45-.64.68-1.34.67-1.07.03-2.17.3-3.37.61-.6.16-1.2.36-1.85.57l-.99.31-.51.15-.26.07-.13.04s-.15.02-.22.05c-.7.24-1.37.29-2,.43-.15,0-.32,0-.46-.02-.11-.04-.25-.07-.34-.13-.09-.07-.16-.1-.25-.2-.12-.11-.18-.21-.24-.31-.21-.41-.18-1.06.05-1.8.13-.37.27-.74.42-1.12.04-.09.07-.21.1-.26l.07-.15.14-.3c.19-.4.4-.79.61-1.18l.04.02Z"/><path class="cls-1" d="M423.72,224.81c-.34-.04-.51-.11-.79-.33-.25-.23-.55-.53-.78-1.14-.24-.56-.45-1.19-.66-1.79l-.31-.84-.22-.57c-.46-1.18-.99-2.39-1.68-3.15-.12-.14-.25-.24-.36-.32-.06-.03-.09-.05-.16-.06-.06-.01-.12-.01-.17.03l-.07.05-.04.03-.13.11c-1.26,1.08-2.56,2.32-3.95,3.42-.7.56-1.43,1.1-2.25,1.57-1.03.6-2.56,1.09-3.27.2-.21-.36-.18-.9-.09-1.47l.29-1.44c.14-.74.28-1.49.41-2.23.15-.94.23-1.89.22-2.82,0-.46-.04-.92-.11-1.37-.03-.22-.08-.44-.14-.66-.05-.22-.05-.46-.11-.69-.13-.58-.12-.55.38-.23.22.18.67.42.91.87.28.43.51.99.61,1.61.18,1.1.18,2.18.11,3.23-.04.53-.08,1.05-.16,1.56l-.31,1.5c-.04.19-.04.14-.05.17l-.03.06c-.04.06,0,.11.05.12.02,0,.05.01.09,0h.06s.03-.01.03-.01l.14-.07c.39-.21.78-.47,1.17-.74.94-.66,1.83-1.48,2.7-2.35l1.32-1.32c.23-.22.45-.44.71-.67.38-.35.8-.68,1.31-.71.56-.02,1.09.11,1.61.42.4.25.73.55.99.85.54.61.92,1.25,1.26,1.89.33.64.62,1.29.87,1.95.1.26.14.37.18.52l.15.45c.09.25.15.52.29.78.05.09.1-.02.13-.05l.11-.15c.06-.11.14-.21.19-.33.13-.24.24-.49.35-.76l.09-.23.13-.39.27-.88c.16-.59.32-1.19.44-1.8.25-1.21.42-2.44.43-3.64-.02-1.86-.35-3.79-.82-5.54-.1-.39-.25-.76-.36-1.14-.44-1.4-.47-1.88-.07-2.45.09-.13.16-.28.25-.38.27-.33,1.03.04,1.67,1.17.89,1.68,1.29,3.59,1.52,5.45.1.94.19,1.84.18,2.88-.02,1-.11,1.97-.26,2.93-.18,1.16-.43,2.29-.76,3.42-.08.28-.17.56-.26.84l-.2.59-.3.74-.3.73-.34.66c-.22.47-.46.83-.7,1.21l-.17.23-.18.13-.36.25c-.24.11-.42.11-.69.14v-.06Z"/><path class="cls-1" d="M278.68,124.18c.18-.06.36-.12.55-.16.09-.02.19-.04.28-.06.24-.05-.15,0,0,0,.39,0,.76-.05,1.15-.02.1,0,.2.02.3.03-.22-.02-.04,0,.07.01.19.03.37.07.56.12s.37.1.55.16c.1.03.2.07.3.1.04.01.35.15.09.03.35.16.69.33,1.01.54.09.06.17.11.26.17.03.02.29.24.07.05.16.13.31.26.46.4.13.13.25.26.38.4.08.1.12.16.02.02.06.08.11.16.17.24.11.17.2.34.29.51.13.23-.06-.2.03.06.03.09.07.19.1.28.2.64.87,1.06,1.54.87.63-.17,1.08-.89.87-1.54-1.19-3.77-6.03-5.91-9.71-4.65-.64.22-1.06.86-.87,1.54.17.62.9,1.09,1.54.87h0Z"/><path class="cls-1" d="M262.6,152.34c2.56,2.82,6.79,1.85,9.47-.22.55-.43.48-1.43,0-1.87-.58-.54-1.29-.46-1.87,0,.33-.26-.03.01-.11.07-.12.08-.23.15-.35.22-.27.16-.55.3-.83.44-.17.08-.1.08.02,0-.06.04-.15.06-.22.09-.15.06-.3.11-.45.15-.17.05-.34.1-.51.14-.13.03-.35.12-.48.09.13.03.22-.02.02,0-.08,0-.16.01-.24.02-.16,0-.32.01-.48,0-.08,0-.16,0-.24-.01-.21-.01-.1.04.02,0-.12.03-.36-.07-.47-.1-.16-.04-.31-.1-.46-.15.32.12.02,0-.04-.03-.07-.04-.15-.08-.22-.12s-.14-.09-.21-.14c-.2-.14.09.1-.02-.02-.14-.14-.29-.27-.43-.42-.47-.51-1.41-.51-1.87,0-.5.55-.5,1.32,0,1.87h0Z"/><path class="cls-1" d="M273.02,129.83c-.2,1.16-.44,2.45,0,3.59.5,1.28,1.72,2.12,3.03,2.44,3.01.72,6.01-1.31,7.88-3.5.46-.53.52-1.31,0-1.84-.47-.47-1.38-.54-1.84,0-.38.45-.79.87-1.23,1.25-.25.21-.38.32-.56.45-.25.18-.5.34-.76.49-.57.33-.8.44-1.42.59-.13.03-.25.06-.38.08-.37.07.21.01-.16.02-.13,0-.25.01-.38,0-.08,0-.17,0-.25-.01.12.02.13.02.03,0-.12-.02-.25-.05-.37-.08-.05-.01-.44-.15-.23-.06-.21-.09-.39-.21-.59-.32-.25-.14.13.14-.05-.03-.07-.07-.14-.17-.22-.22-.06-.07-.04-.04.07.09-.03-.05-.06-.09-.09-.14-.06-.03-.14-.38-.01.01-.05-.16-.09-.32-.13-.49.08.37.01.04,0-.06,0-.11,0-.23,0-.34,0-.21.03-.42.05-.63-.03.3,0-.05.02-.11.03-.16.05-.33.08-.49.12-.69-.19-1.4-.91-1.6-.63-.17-1.48.21-1.6.91h0Z"/><path class="cls-1" d="M76.19,148.77c-.19-.09-.31-.23-.42-.35-.04-.04,0-.08.05-.06.13.03.26.05.35.07.07.04,1.18.26,1.57.22.38,0,.73.03,1.08.08.71.07,1.42.09,2.13.04.16-.01.31,0,.46.04.53.11,1.07.09,1.59-.02.09-.02.18-.02.26-.1.14-.09,1.51-.43,1.69-.45.46-.02.93-.07,1.41-.1.07,0,.13-.06.21,0,.2.12.33.04.47,0,.2-.05.39-.12.61-.15.11-.02.24.03.37.06.12.02.2.28.18.32-.05.12.08.19.14.29.02.03.05.07.06.1.04.06-.93,1.09-1.08,1.14,0,0-.12.07-.29.15-.17.08-.4.2-.64.31-.49.18-1.02.34-1.12.37-.11.04-.24.02-.36.01-.05.03-1.59.33-1.66.31-.33,0-.65.06-.98-.09-.06-.03-.13-.02-.19-.02-.55,0-1.11-.09-1.64-.24-.29-.07-.55-.13-.82-.19-.05-.01-.09-.04-.14-.06-.06-.03-.12-.06-.18-.08-.32-.09-.63-.18-.93-.31-.31-.11-.61-.23-.9-.39-.14-.06-.73-.5-.87-.58-.08-.05-.32-.28-.39-.31Z"/><path class="cls-1" d="M78.48,154.42c-.12,0-.13-.15-.08-.38.02-.07.13-.26.17-.28.08-.03.15-.07.21-.09.04,0,.53.05.69.02.16-.01.31,0,.45.01.3.03.59.02.88-.01.06,0,.13,0,.19.03.21.08.44.06.65-.02.03-.01.07-.01.1-.08.05-.12.58-.27.67-.24.2.06.4.07.61.08.03,0,.05-.03.1.03.12.14.17.08.23.07.09-.02.17-.04.28-.03.05,0,.14.07.22.12.07.04.19.29.19.32,0,.09.1.19.16.28.02.03.04.08.06.1.05.06-.32.76-.4.78,0,.03-.89.46-1,.49-.05.03-.12,0-.18-.01-.02.03-.78.22-.82.2-.16-.01-.33.03-.49-.12-.03-.03-.06-.02-.1-.02-.27,0-.54-.09-.8-.18-.13-.04-.27-.06-.4-.09-.02,0-.04-.03-.07-.04-.03-.02-.05-.04-.08-.05-.31-.08-.59-.24-.89-.34-.07-.02-.33-.29-.41-.31-.05-.01-.1-.23-.15-.23Z"/><path class="cls-1" d="M130.02,301.31c-.13-.08-.14-.24-.06-.45.02-.06.16-.18.21-.17.09.02.19.05.27.08.05.03.68.47.93.58.22.12.44.25.64.38.42.26.86.5,1.32.69.1.05.19.11.28.17.3.23.65.38,1.02.47.06.01.12.04.2,0,.13-.03,1.1.16,1.21.25.28.19.58.33.88.48.04.02.1,0,.13.08.07.18.17.18.27.22.14.05.27.1.41.18.07.04.13.14.19.23.06.08,0,.31-.02.33-.07.07-.03.19-.03.29,0,.03,0,.08,0,.1,0,.05-.98.47-1.09.43-.03.02-1.4-.18-1.56-.22-.08,0-.15-.08-.22-.13-.04,0-1.09-.35-1.12-.39-.2-.12-.42-.19-.56-.42-.03-.04-.07-.06-.11-.08-.34-.19-.65-.44-.94-.69-.17-.13-.31-.24-.47-.36-.03-.02-.05-.06-.07-.08-.03-.04-.05-.08-.09-.1-.36-.29-.67-.64-1.01-.94-.08-.07-.35-.51-.44-.6-.05-.05-.09-.31-.15-.34Z"/><path class="cls-1" d="M128.12,307.25c-.11,0-.1-.15-.03-.36.02-.07.14-.23.18-.24.07-.02.15-.04.21-.05.04,0,.51.13.69.14.16.02.31.06.45.11.29.1.59.17.89.23.07.01.12.04.18.08.19.14.41.2.64.23.04,0,.07.02.12-.02.08-.06.68.03.75.09.17.14.36.23.55.33.03.02.06,0,.08.07.04.17.11.14.17.16.09.02.17.05.26.11.04.03.08.13.12.2.04.07,0,.32,0,.35-.05.08-.02.2-.02.3,0,.04,0,.08,0,.11,0,.07-.61.45-.68.43,0,0-.22,0-.46,0-.22,0-.46-.02-.53-.02-.05,0-.1-.05-.14-.08-.02,0-.72-.08-.75-.1-.13-.06-.29-.06-.38-.23-.02-.04-.05-.04-.07-.05-.23-.09-.43-.25-.64-.4-.1-.07-.22-.12-.32-.19-.02-.01-.03-.04-.05-.06-.02-.02-.04-.05-.06-.07-.25-.15-.47-.36-.72-.49-.06-.03-.25-.32-.32-.35-.04-.02-.06-.23-.1-.23Z"/><path class="cls-1" d="M99.26,86.34c-.19-.11-.21-.33-.15-.58.02-.08.18-.22.24-.2.12.03.25.06.36.1.06.04.96.57,1.32.64.32.12.63.22.93.34.63.22,1.27.37,1.91.43.14.02.27.07.41.12.46.2.96.24,1.45.18.08-.01.16,0,.24-.08.14-.09,1.39-.32,1.56-.31.49.02.88.04,1.31.07.07,0,.12-.05.2.03.2.16.32.08.45.05.19-.04.37-.09.59-.1.1,0,.25.05.38.09.12.03.22.29.21.34-.04.12.1.2.17.3.02.03.05.08.07.11.01.03-.18.33-.42.65-.24.3-.53.59-.6.63-.01.02-.46.26-.95.51-.51.18-1.06.3-1.17.33-.12.03-.24,0-.37-.03-.05.04-1.65.18-1.72.14-.33-.04-.67-.03-.97-.26-.06-.04-.13-.05-.19-.05-.55-.09-1.09-.28-1.59-.54-.27-.12-.52-.23-.77-.35-.05-.02-.08-.06-.13-.09-.05-.04-.1-.09-.16-.12-.59-.31-1.11-.71-1.64-1.09-.13-.08-.58-.67-.71-.77-.08-.06-.18-.41-.25-.45Z"/><path class="cls-1" d="M101.14,93.65c-.11,0-.15-.13-.14-.33,0-.06.07-.23.11-.25.07-.03.14-.06.2-.08.04,0,.58.01.77-.02.18-.02.35-.02.51,0,.34.01.68,0,1,.04.07,0,.14.03.21.06.24.12.49.13.74.1.04,0,.08,0,.13-.05.07-.08.74-.13.82-.1.22.08.44.17.67.24.03.01.06-.01.1.05.08.15.15.12.22.12.1,0,.2.02.3.06.05.02.11.1.17.16.05.06.07.28.06.31-.03.08.02.18.04.27,0,.03.01.07.02.1.01.06-.55.56-.62.56,0,0-.23.06-.48.13-.24.07-.5.09-.56.11-.06.01-.11-.03-.17-.05-.02,0-.77.06-.8.05-.15-.03-.31,0-.45-.15-.03-.03-.06-.03-.09-.03-.26-.02-.52-.12-.77-.21-.13-.05-.26-.05-.39-.1-.02,0-.04-.03-.06-.05-.03-.02-.05-.05-.08-.06-.3-.1-.58-.27-.87-.36-.07-.02-.34-.27-.42-.29-.04-.01-.13-.21-.17-.21Z"/><path class="cls-1" d="M427.14,227.49c-.05.12-.21.07-.42-.08-.07-.05-.21-.24-.21-.29,0-.09,0-.18.01-.26.01-.04.3-.54.36-.74.07-.18.16-.33.25-.48.19-.3.35-.62.48-.94.03-.07.08-.13.14-.18.22-.17.31-.43.4-.68.01-.04.04-.08,0-.15-.06-.11.18-.75.25-.82.2-.17.33-.36.5-.56.03-.03.01-.07.1-.07.21-.02.2-.1.24-.17.05-.09.11-.19.19-.28.04-.04.16-.08.25-.11.08-.03.34.03.36.06.07.06.2.04.31.06.04,0,.08.01.11.02.06,0,.44.8.42.88.05.03-.16,1.07-.18,1.19,0,.07-.07.11-.12.16,0,.03-.24.85-.27.88-.1.15-.13.33-.38.39-.05.01-.06.05-.08.08-.16.25-.4.45-.63.65-.11.1-.2.22-.31.33-.02.02-.05.03-.08.04-.03.02-.07.03-.09.05-.24.26-.55.45-.79.7-.05.06-.45.2-.51.26-.04.04-.29,0-.3.05Z"/><path class="cls-1" d="M432.54,228.96c.06.08-.12.06-.43-.02-.1-.02-.39-.14-.43-.17-.07-.06-.14-.11-.19-.16-.03-.03-.11-.36-.16-.48-.04-.11-.04-.21-.02-.3.03-.19.05-.38.08-.57,0-.04.03-.08.07-.11.14-.1.18-.24.18-.39,0-.03.02-.05-.04-.09-.09-.08-.03-.46.04-.49.17-.1.28-.16.42-.24.02-.01,0-.04.09-.02.2.03.18-.01.21-.04.04-.04.09-.08.17-.11.04-.01.16,0,.25.01.09,0,.37.12.39.14.08.06.22.09.34.13.04.01.09.03.12.05.07.03.45.5.43.53,0,.01-.02.48-.03.53,0,.03-.05.04-.09.05-.02,0-.04.38-.06.39-.06.06-.03.15-.21.16-.04,0-.04.02-.04.03-.04.12-.15.21-.25.32-.05.05-.06.12-.09.17,0,.01-.03.01-.05.02-.02,0-.04.02-.05.03-.06.14-.2.25-.21.41,0,.04-.23.13-.23.18,0,.02-.24.01-.21.05Z"/><path class="cls-1" d="M421.42,356.44c-.14-.02-.18-.18-.18-.39,0-.07.1-.22.14-.23.09-.01.18-.03.26-.03.05,0,.75.15,1,.15.24.01.46.04.68.08.46.04.87.18,1.31.24.1.02.19.05.28.09.32.15.66.19,1,.18.06,0,.11.01.17-.04.1-.07,1-.09,1.12-.07.3.08.59.12.9.16.04,0,.09-.02.13.04.11.14.2.1.29.09.13,0,.26-.01.4.01.07.01.15.09.23.14.07.05.1.29.08.32-.04.09.03.19.06.28,0,.03.02.07.02.1.02.07-.73.61-.84.61-.02.02-1.25.23-1.4.24-.07.01-.15-.02-.22-.04-.03,0-1.04.06-1.08.05-.21-.03-.42-.01-.61-.17-.04-.03-.08-.03-.12-.03-.35-.04-.69-.16-1.03-.28-.17-.06-.35-.1-.52-.14-.03,0-.06-.04-.09-.05-.04-.02-.07-.05-.11-.06-.4-.14-.76-.39-1.14-.56-.09-.04-.44-.38-.54-.42-.06-.03-.16-.26-.22-.27Z"/><path class="cls-1" d="M421.85,361.37c-.1,0-.11-.12-.08-.31.01-.06.1-.22.13-.24.06-.03.12-.06.18-.07.03,0,.45.05.6.04.14,0,.27.02.4.04.26.04.53.07.79.07.06,0,.11.02.17.04.19.08.39.09.59.05.03,0,.07,0,.1-.05.06-.06.57-.16.64-.13.18.06.36.08.54.12.03,0,.05-.02.08.03.08.11.13.08.19.07.08,0,.16,0,.24.01.04,0,.1.07.16.12.05.04.09.24.09.26-.02.07.04.15.07.23,0,.03.02.06.03.08.02.05-.39.52-.46.52,0,.02-.77.23-.86.25-.05.01-.1-.02-.14-.03-.02,0-.65.08-.67.06-.13-.02-.26,0-.38-.12-.02-.02-.05-.02-.08-.02-.22-.02-.43-.1-.64-.17-.11-.04-.22-.06-.32-.09-.02,0-.04-.02-.05-.04-.02-.01-.04-.03-.07-.04-.25-.07-.49-.2-.74-.27-.06-.01-.28-.22-.35-.24-.04-.01-.09-.19-.13-.18Z"/></svg>