<?xml version="1.0" encoding="UTF-8"?><svg id="Layer_1" xmlns="http://www.w3.org/2000/svg" width="520" height="520" viewBox="0 0 520 520"><defs><style>.cls-1{opacity:.35;}.cls-1,.cls-2,.cls-3,.cls-4{fill:#0056FF;stroke-width:0px;}.cls-2,.cls-5{opacity:.45;}.cls-3{opacity:.25;}</style></defs><path class="cls-3" d="M263.66,413.8s9.32-13.63,15.84-12.09c6.52,1.53,26.61,1.63,31.91,1.44,5.3-.2,18.45-.25,20.42,2.85,1.97,3.1,1.47,7.56-1.42,9.85-2.88,2.29-7.35,6.01-11.75,6.37-4.4.36-16.56-1.81-16.56-1.81l-17.23-3.13-22.49-2.01,1.28-1.47Z"/><path class="cls-3" d="M160.28,406s-9.6-.59-16.38,3.5c-6.78,4.08-9.91,6.46-3.26,9.13,6.65,2.67,28.01-2.29,28.01-2.29l13.95-4.71-17.15-5.62h-5.17Z"/><path class="cls-4" d="M179.15,412.08c-.84-.28-1.67-.59-2.49-.9-.3-.11-.61-.19-.91-.31-.52-.21-1.04-.46-1.55-.69-.5-.26-1-.52-1.5-.79-.45-.22-.89-.44-1.33-.66-.56-.3-1.1-.64-1.61-1.02-.16-.12-.12-.14.06-.14.18,0,.52,0,.89.06,1.31.18,2.47.64,3.64,1.13.69.33,1.46.52,2.2.75.81.26,1.63.52,2.45.75.51.14,1.02.28,1.53.39.77.18,1.56.37,2.34.46.31.03.61.03.92.03.31-.02.61-.03.91.01.13.01.26.01.4.03.49.06.64.29.72.63.02.08.05.16.05.23.03.24-.19.47-.59.63-1.16.44-2.36.28-3.54.07-.88-.16-1.75-.37-2.6-.63v-.04Z"/><path class="cls-4" d="M267.09,410.97c.7-.74,1.39-1.5,2.06-2.28.25-.28.45-.6.7-.88.86-1.01,1.77-1.97,2.61-3,.38-.45.72-.93,1.05-1.41.48-.58.97-1.16,1.53-1.68.18-.16.25-.07.26.18,0,.25-.01.68-.18,1.09l-.48,1.07c-.18.34-.43.64-.65.95-.46.62-.95,1.22-1.47,1.8-.62.69-1.15,1.5-1.76,2.24-.67.81-1.35,1.6-2.05,2.38l-1.3,1.43c-.67.71-1.34,1.43-2,2.13-.52.54-.92,1.19-1.47,1.69-.12.12-.23.24-.35.34-.48.39-.69.45-1,.31-.07-.03-.14-.06-.2-.09-.2-.13-.15-.45.08-.84.64-1.22,1.6-2.18,2.53-3.19.7-.75,1.41-1.49,2.09-2.26l.03.02Z"/><path class="cls-4" d="M203.92,352.1s-12-6.35-20.11-8.29c-4.61-1.1-23.94-4.6-34.64-3.22-10.69,1.38-23.78,6.37-26.92,11.85-3.14,5.48-5.78,15.6-4.87,18.92.91,3.32,4.32,10.84,7.21,13.74,2.9,2.9,15.2,11.31,15.2,11.31l23.24,9.59,34.5,6.22,57.51,7.1s22.44-19.93,22.84-23.37c.41-3.45-45.11-29.61-54.95-31.3-9.85-1.69-11.92-2.2-11.92-2.2,0,0,7.37-1.46,11.36-.44,14.67,3.76,41.61,17.51,48.01,22.02,6.4,4.52,9.22,8.09,9.22,10.73s-2.93,5.9-2.93,5.9c0,0,12.33,1.16,16.29,2.2,3.96,1.04,16.75-2.2,16.75-2.2,0,0,16.41-10.67,18.64-17.67,2.23-7,2.68-14.62,1.09-17.99-1.59-3.38-7-10.85-10.47-12.89-3.47-2.05-13.52-5.85-18.64-6.35-5.12-.5-19.1.91-24.25,2s-13.62,4.35-13.62,4.35c0,0-9.78,3.42-13.55,3.42-3.77,0-13.75-1.64-13.75-1.64l-7.69-6.68,2.08-1.45c-7.19,0-24.5,6.97-25.66,6.35Z"/><path class="cls-4" d="M215.35,340.43c-.45-.07-1.62,1.88-1.57,3.38.04,1.01,1.08,1.82,1.57,1.68,1.21-.34-7.58,1.71-7.58,1.71l7.58-6.77Z"/><path class="cls-4" d="M199.03,340.22c-.07.28,2.41,5.92.82,6.14-1.59.22,3.28,0,3.28,0l-4.09-6.14Z"/><path class="cls-4" d="M197.49,328.92s2.88,7.34,1.54,7.76c-1.34.42,3.18,3.53,3.18,3.53l-.87-6.39-3.85-4.9Z"/><path class="cls-4" d="M211.51,238.4c.42.13.82.3,1.21.47.14.06.29.08.43.15.48.26.95.53,1.36.87.19.14.38.26.58.38.25.14.46.37.63.64.05.09-.02.16-.16.24-.14.07-.37.19-.55.19-.32.02-.57-.06-.82-.14-.25-.08-.49-.17-.7-.36-.26-.21-.6-.23-.91-.32-.34-.1-.68-.21-1.04-.28-.22-.05-.43-.11-.65-.14-.33-.05-.68-.1-1.01-.06-.26.04-.5.2-.74.3-.05.02-.1.06-.15.08-.2.05-.28-.06-.42-.52l-.1-.31c-.1-.36-.06-.67.1-.82.47-.47,1.07-.57,1.66-.56.44,0,.87.08,1.3.16v.05Z"/><path class="cls-4" d="M254.89,235.48s-14.64,1.73-24.63-10.73c-.79-.98-3.12-2.57-5.42-3.39-2.64-.94-6.78-.25-8.81,2.2-2.83,3.4.47-4.4.47-4.4l12.22-5.95s4.84,8.1,6.47,10.21c2.78,3.62,19.7,12.06,19.7,12.06Z"/><path class="cls-4" d="M214.99,219.9s-13.1-6.69-15.59-22.13c-2.12-13.16,5.61-27.36,6.82-29.37,1.2-2.01,10.91-14.33,15.17-17.44s15.84-10.06,22.19-11.94c6.34-1.87,22.01-4.51,26.66-3.99s22.66,6.39,26.1,9.43c3.43,3.04,20.76,20.28,24.01,25.9s15.88,33.34,13.89,51.97c-2,18.63-4.64,37.93-4.77,43.24-.14,5.31.34,14.26,2.37,18.08,2.03,3.82,2.81,5.67,2.73,6.52-.37,3.86-9.5,7.52-9.5,5.85s-4.68,11.65-9.76,13.87-11.72.6-11.72.6c0,0-10.02-10.78-14.27-11.79s-15.43.07-20.7.25c-5.27.18-13.65-6.63-13.65-12.96,0-6.34,3.66-20.28,3.66-20.28,0,0,9.61-12.77,9.99-14.66.38-1.89,2.28-10.96,2.28-10.96l-.36-6.73s10.42-6.17,13.4-10.34,7.4-13.93,7.81-14.65,2.75-11.55,1.81-15.19c-.94-3.64-3.67-15.12-6.39-19.21s-6.1-8.96-8.43-8.56c-2.33.4-14.12-1.59-21.53.64-7.41,2.23-17,12.43-17,12.43l-2.22-2.87s-7.71-8.33-12.48-3.26c-2.27,2.41-5.07,3.63-4.11,8.2.96,4.58,2.92,8,4.11,8.99s3.23,3.65,3.23,3.65c0,0-1.55,5.96-1.23,9.39.32,3.43,1.23,10.64,1.23,10.64l-13.74,6.69Z"/><path class="cls-4" d="M328.34,367.74c-1.41-5.8-5.34-10.95-10.39-14.44-1.85-1.28-3.88-2.28-5.96-3.15-1.83-.77-3.75-1.33-5.71-1.82-1.97-.42-3.97-.79-6-1.01-4.05-.47-8.18-.54-12.28-.3-3.65.21-7.29.77-10.84,1.5-2.28.49-4.54,1.06-6.77,1.73-2.25.63-4.41,1.45-6.78,1.83-1.48.25-1.28.25-.27-.57.97-.87,2.8-2.64,5.47-3.47,9.28-3.28,19.23-4.5,29.11-3.72,2.95.27,5.97.6,8.97,1.23,3,.64,6,1.6,8.76,3,3.05,1.51,5.84,3.51,8.28,5.89,2.4,2.41,4.46,5.21,5.84,8.33,1.8,3.78,2.51,8.17,1.97,12.32-.4,3.16-1.43,6.2-2.88,8.98-1.42,2.8-3.25,5.34-5.25,7.68-3.14,3.62-6.63,6.85-10.77,9.35-.91.54-1.82,1.07-2.81,1.51-3.71,1.61-5.31,1.34-6.17.59-.2-.17-.45-.34-.56-.5-.18-.27.13-.54.74-.83.61-.34,1.53-.63,2.74-1.13,1.78-.7,3.52-1.7,5.2-2.8,1.69-1.1,3.32-2.35,4.87-3.7,3.09-2.71,5.92-5.85,8.07-9.37,1.58-2.61,2.85-5.41,3.46-8.34.19-.73.25-1.47.37-2.2.04-.74.13-1.48.09-2.21.01-1.48-.21-2.94-.57-4.38l.07-.03Z"/><path class="cls-4" d="M220.87,338.25c2.18-.7,4.38-1.34,6.61-1.81.81-.17,1.61-.43,2.43-.55,2.89-.51,5.8-.77,8.72-.85,1.29-.03,2.59-.06,3.87-.08,1.64,0,3.31,0,4.91.52.49.2.42.23-.03.46-.45.29-1.26.65-2.18.7-.82.11-1.64.12-2.45.13l-2.44.11c-1.63.12-3.26.19-4.91.25-.99.03-1.98.2-2.98.34-.99.2-1.99.4-2.98.6-2.16.48-4.33,1-6.44,1.71-1.31.4-2.58.91-3.86,1.41-.95.42-1.9.84-2.83,1.29-.91.49-1.85.95-2.71,1.5-.67.44-1.32.89-1.96,1.36l-1.82,1.5c-.27.21-.51.46-.77.69-.48.43-.84.66-1.17.73-.32.09-.57.05-.86-.06-.13-.05-.27-.09-.38-.15-.35-.21-.17-.83.45-1.64.99-1.11,2.18-2.05,3.41-2.99,1.27-.86,2.59-1.71,3.98-2.42,2.04-1.11,4.21-1.97,6.37-2.79l.02.05Z"/><path class="cls-4" d="M186.79,324.24c-1.29-1.46-2.71-2.8-4.07-4.21-1.45-1.31-2.87-2.66-4.37-3.92-1.11-.9-2.27-1.73-3.38-2.63-4.01-3.03-8.15-5.97-12.6-8.38-.98-.54-1.96-1.1-2.98-1.59-1.02-.47-2.04-.93-3.06-1.4-2.56-1.3-5.39-1.94-7.77-3.77-.71-.68-.64-.53.21-.63.42-.03,1.09-.27,1.77-.2.7.02,1.5.1,2.32.32.72.22,1.42.49,2.13.73l2.07.88c1.37.6,2.77,1.17,4.1,1.87,2.62,1.48,5.27,2.91,7.71,4.7.74.51,1.5,1.01,2.28,1.51.75.52,1.51,1.04,2.27,1.57l2.29,1.57c.77.52,1.48,1.12,2.21,1.68l2.38,1.89c.78.65,1.52,1.34,2.28,2.01.75.68,1.53,1.33,2.25,2.04l2.15,2.15c.44.44.89.87,1.31,1.33l1.25,1.39c.82.94,1.7,1.82,2.46,2.81,1.19,1.47,2.41,2.91,3.48,4.47.54.77,1.13,1.51,1.65,2.3.52.79,1.04,1.57,1.55,2.35.83,1.2,1.53,2.47,2.33,3.68.73,1.25,1.44,2.51,2.1,3.82.27.59.55,1.15.81,1.75.5,1.1.65,1.9.7,2.47.04.58-.11.95-.42,1.3-.14.16-.26.35-.4.45-.47.35-1.3-.4-1.93-1.92-2.05-4.46-4.7-8.94-7.72-13.23l-1.73-2.36c-.56-.8-1.22-1.53-1.83-2.3-1.2-1.55-2.54-2.98-3.86-4.44l.05-.05Z"/><path class="cls-4" d="M267.81,252.42c-.74.64-1.5,1.27-2.3,1.83-.29.2-.53.47-.84.65-1.06.68-2.26,1.15-3.45,1.5-.52.17-1.05.33-1.58.44-.35.05-.7.09-1.04.12-.35,0-.71-.1-1.05-.17-.21-.06-.18-.16,0-.34.17-.17.46-.51.78-.68,1.16-.57,2.19-1.02,3.34-1.51.35-.13.65-.38.97-.59l.89-.75c.65-.55,1.3-1.12,1.9-1.75.38-.38.73-.79,1.08-1.2.51-.64,1.03-1.29,1.43-2.01.15-.28.26-.58.35-.89.08-.31.16-.63.29-.91.05-.13.08-.26.14-.39.21-.47.56-.47,1.19-.3.15.04.3.07.43.12.46.16.76.55.82,1.04.07,1.39-.57,2.56-1.32,3.64-.58.79-1.28,1.5-1.97,2.2l-.05-.04Z"/><path class="cls-4" d="M189.67,250.9c-3.04,2.11-5.97,4.4-8.81,6.81-1.03.89-2,1.84-3.01,2.75-3.57,3.2-7.03,6.54-10.29,10.07-1.44,1.57-2.83,3.21-4.16,4.86-1.73,2.1-3.14,4.44-5.37,6.18-.45.2-.65.29-.67.26-.03-.03.08-.21.08-.65,0-.45.1-1.01.2-1.71.14-.67.43-1.38.83-2.08,1.62-2.33,3.38-4.53,5.22-6.69,1.89-2.11,3.88-4.13,5.96-6.07,2.5-2.31,4.91-4.89,7.5-7.22,2.85-2.55,5.81-4.98,8.88-7.26,1.88-1.41,3.84-2.74,5.81-4.02,3-1.94,6.15-3.67,9.34-5.22,2.48-1.22,4.95-2.39,7.58-3.27.57-.21,1.14-.41,1.74-.56.55-.14,1.02-.25,1.41-.32.4-.05.72-.06.99-.04.54.03.88.23,1.17.56.13.15.3.28.38.42.27.46-.52,1.19-2.03,1.59-2.22.73-4.45,1.56-6.68,2.5-2.23.95-4.44,2.04-6.62,3.22-3.23,1.77-6.39,3.75-9.42,5.93l-.04-.05Z"/><path class="cls-4" d="M216.9,222.05c-1.14,1.46-1.98,3.16-2.47,4.99-.1.33-.16.67-.2,1.01-.05.34-.1.68-.14,1.03-.38,2.41-.15,4.96.61,7.36.36,1.06.88,2.07,1.48,3.01.38.61.8,1.19,1.22,1.77.1.15.22.29.32.43l.26.48c.17.33.36.64.54.98.21.42-.05.62-.64.63-.56,0-1.64-.07-2.35-.71-.56-.61-1.09-1.26-1.57-1.95-.46-.7-.83-1.45-1.16-2.22-.66-1.54-1.08-3.19-1.22-4.86-.18-1.98-.38-4.06-.04-6.08.36-2.21,1.16-4.35,2.36-6.22.71-1.16,1.59-2.22,2.54-3.17,1.44-1.45,3.14-2.61,4.88-3.59,1.36-.75,2.7-1.51,4.15-2.07.33-.1.64-.22.97-.3.61-.2,1.07-.07,1.37-.02.32.08.51.23.69.44.08.1.18.19.23.28.17.3-.25.75-1.01,1.26-.56.39-1.15.62-1.72.94-.58.28-1.16.53-1.73.83-1.14.57-2.26,1.19-3.29,1.92-1.55,1.06-2.95,2.35-4.03,3.86l-.06-.04Z"/><path class="cls-4" d="M323.68,180.24c-1.81-3.77-3.83-7.43-6.13-10.93-2.32-3.48-4.84-6.83-7.59-10-5.56-6.26-11.71-12.16-18.86-16.35-1.32-.73-2.63-1.49-4.02-2.08-1.35-.68-2.78-1.18-4.18-1.71-2.86-.94-5.77-1.76-8.76-2.17-5.25-.86-10.65-.72-15.97-.03-2.67.34-5.31.89-7.94,1.49l-3.9,1.08-.98.27-.96.33-1.91.66c-5.07,1.81-10,4.09-14.57,6.96-4.56,2.88-8.79,6.28-12.52,10.17l-1.23,1.3-.62.65-.56.7-2.25,2.8-2.02,2.96-.5.74-.44.78-.89,1.56c-2.29,4.18-4.13,8.63-5.15,13.25-.37,1.47-.55,2.99-.83,4.48-.23,1.5-.31,2.99-.34,4.5-.04,3.01.32,6.04.93,9,.61,2.97,1.46,5.9,2.55,8.74.27.71.55,1.42.86,2.11.29.7.6,1.4.94,2.08.63,1.39,1.28,2.77,2,4.12,1.8,3.36,1.39,3.09-.91.65-1.12-1.24-2.71-3.06-4.14-5.58-1.45-2.5-2.87-5.63-3.85-9.21-.84-3.18-1.34-6.46-1.46-9.79-.05-1.66-.03-3.33.13-5,.12-1.69.49-3.27.76-4.9,1.28-6.45,3.8-12.64,7.28-18.2,6.99-11.16,17.66-19.62,29.53-24.91.9-.37,1.8-.74,2.71-1.12.9-.37,1.8-.77,2.74-1.07,1.86-.61,3.7-1.35,5.62-1.82,3.79-1.14,7.67-1.96,11.63-2.53,3.95-.55,7.98-.82,12.01-.57,4.02.24,8.02.93,11.86,2.11,8.47,2.57,16.07,7.49,22.39,13.45,1.62,1.44,3.14,3.01,4.67,4.54,1.47,1.6,2.98,3.16,4.35,4.86,1.43,1.64,2.73,3.38,4.05,5.11,1.25,1.78,2.54,3.53,3.67,5.39,5.75,9.03,9.87,19.09,12.13,29.54,1.65,7.93,2.32,16.04,2.15,24.12-.17,8.08-1.14,16.07-2.23,23.95-.83,6.15-1.92,12.17-2.3,18.18-.4,5.98-.01,12.04,2.21,17.44.84,2.37,2.51,4.27,3.76,7.07.56,1.29.88,2.78.69,4.16-.09.69-.29,1.33-.55,1.88-.26.56-.53,1.02-.88,1.46-.67.88-1.5,1.52-2.29,1.93-.79.42-1.54.61-2.19.75-2.61.41-3.95,0-5.05-.41-.5-.21-1.15-.42-1.43-.64-.49-.37.31-.69,2.1-.98.88-.16,2.02-.31,3.22-.62,1.2-.34,2.36-.85,3.1-1.94.62-.88.85-1.75.74-2.68-.13-.96-.62-2.04-1.28-3.18-.64-1.13-1.41-2.32-2.1-3.67-.18-.33-.33-.69-.5-1.04l-.41-1.04c-.27-.69-.54-1.38-.74-2.1-1.77-5.69-1.91-11.72-1.43-17.5.49-5.81,1.54-11.48,2.32-17.12.8-5.68,1.53-11.36,1.96-17.05.63-8.44.45-16.93-.85-25.27-1.28-8.33-3.78-16.46-7.38-24.07l.06-.05Z"/><path class="cls-4" d="M281.54,299.63c-3.44.25-7.16,1.26-11.25.97-2.02-.13-4.11-.68-5.9-1.58-1.82-.87-3.5-2.04-4.94-3.46-2.09-2.06-3.75-4.58-4.68-7.33-.84-2.42-1.22-4.94-1.25-7.44-.01-2.5.23-4.97.86-7.37.53-2.42,1.47-4.71,2.49-6.93,1.11-2.17,2.31-4.27,3.63-6.26,2.29-3.56,4.73-6.99,6.49-10.64,1.17-2.33,1.92-4.8,2.43-7.3.14-1.27.49-2.52.48-3.81.02-.64.12-1.29.15-1.94,0-.65-.05-1.3,0-1.97.23-1.68.2-1.49.88-.15.2.33.36.75.58,1.24.21.49.46,1.04.6,1.67.17.63.28,1.33.4,2.07.14.75.05,1.54.03,2.38-.02.74-.14,1.47-.32,2.18-.17.72-.32,1.44-.51,2.15-.48,1.38-.92,2.78-1.56,4.08-1.19,2.64-2.66,5.07-4.21,7.35-1.53,2.31-3.1,4.51-4.47,6.79-.73,1.12-1.31,2.29-1.96,3.45-.52,1.19-1.16,2.36-1.55,3.6-2.22,5.82-2.21,12.96.79,18.42,1.63,3,4.23,5.45,7.41,6.78,1.56.69,3.21,1.04,4.94,1.1,1.73.06,3.51-.16,5.33-.42,2.23-.32,4.55-.7,6.95-.72,2.36-.03,4.92.42,7.09,1.6,3.3,1.79,5.57,4.6,8.06,6.85,1.25,1.13,2.54,2.18,3.97,2.95,1.43.76,2.98,1.26,4.57,1.5,2.45.34,4.93-.29,7.08-1.47,2.16-1.19,4.03-2.89,5.57-4.82.33-.43.63-.88.95-1.32.28-.46.57-.92.85-1.38,1.01-1.76,1.43-2.98,1.87-3.8.38-.82.76-1.29,1.18-1.7.2-.18.4-.45.59-.58.32-.21.57.12.75,1.02.11.46.06,1,.03,1.7-.02.34-.11.69-.2,1.06-.08.38-.2.78-.36,1.18-.89,2.41-2.25,4.62-3.96,6.59-1.71,1.96-3.8,3.69-6.28,4.92-2.45,1.23-5.38,1.9-8.29,1.54-2.82-.3-5.56-1.51-7.78-3.12-3.35-2.38-5.68-5.43-8.35-7.39-1.33-.99-2.71-1.69-4.22-2-1.51-.34-3.24-.34-4.95-.2l-.02-.07Z"/><path class="cls-4" d="M219.78,319.37c.98.7,1.96,1.41,2.87,2.19.34.27.71.52,1.03.82,1.11,1.08,2.16,2.22,3,3.5.38.56.81,1.08,1.2,1.62.25.35.46.73.65,1.1.21.38.27.84.41,1.25.07.27.03.25-.21.14-.22-.13-.79-.23-1.21-.51-.32-.28-.7-.52-1.01-.8-.27-.31-.56-.6-.83-.9-.54-.61-1.1-1.19-1.59-1.85-.57-.82-1.44-1.4-2.21-2.04-.86-.7-1.75-1.38-2.69-1.99-.57-.39-1.17-.74-1.78-1.09-.93-.5-1.86-1.03-2.84-1.42-.76-.3-1.58-.44-2.38-.63-.17-.04-.36-.06-.53-.11-.65-.18-.75-.51-.66-1.16.02-.15.03-.31.07-.45.11-.48.53-.79,1.07-.81,1.55.1,3.05.64,4.5,1.32,1.09.48,2.12,1.12,3.16,1.76l-.03.05Z"/><path class="cls-4" d="M215.23,324.4c.75.47,1.5.95,2.25,1.46.27.18.58.3.84.51.93.71,1.77,1.55,2.57,2.38.35.37.74.71,1.07,1.09.21.25.43.49.63.74.19.27.35.55.49.84.09.19-.08.28-.36.29-.27,0-.69-.03-.98-.23-1.08-.68-1.98-1.41-2.88-2.24-.53-.52-1.28-.77-1.92-1.18-.72-.42-1.45-.85-2.21-1.25-.46-.25-.94-.5-1.41-.74-.73-.36-1.44-.75-2.2-1.04-.59-.22-1.23-.33-1.84-.5-.14-.04-.28-.06-.41-.11-.25-.09-.38-.21-.4-.42-.04-.19,0-.41.1-.72.04-.14.08-.28.13-.41.17-.43.55-.72,1-.8,1.18.06,2.22.48,3.25,1.02.77.38,1.53.83,2.31,1.25l-.02.05Z"/><path class="cls-4" d="M212.76,332.72l-.69-.25-.35-.12c-.06-.02-.14-.05-.2-.08l-.1-.04c-.2-.05-.53-.42-.52-.73,0-.28.06-.37.25-.58.2-.19.49-.23.65-.21h-.09s.6.07.6.07c.27.04.54.05.8.12.93.22,1.82.65,2.55,1.21.32.25.64.5.93.77.39.33.7.74.96,1.17.08.13.05.14-.09.09-.13-.05-.4-.14-.65-.28-.84-.57-1.59-1.09-2.44-1.46-.5-.25-1.1-.29-1.67-.32-.31-.01-.63-.02-.95,0h-.07c.07,0,.18,0,.29-.07.04-.04.14-.04.11-.15-.04-.12-.12-.21-.21-.27-.06-.06-.31-.12-.11-.07.11.01.22,0,.32-.07.05-.03.09-.08.13-.13.05-.06-.02-.09-.02-.13-.04-.07-.1-.13-.16-.16-.04-.03-.12-.06-.12-.06h.01s.03.01.03.01l.05.02.23.08.49.17c.4.15.81.29,1.21.44.61.23,1.21.48,1.82.73.47.2.97.32,1.46.6.11.06.22.1.33.2.39.3.42.6.16.84-.06.06-.12.12-.18.17-.24.15-.51.16-.68.09-.61-.25-1.4-.57-2.22-.87-.61-.23-1.23-.46-1.87-.66v-.03Z"/><path class="cls-4" d="M231.39,314.69c.07-.81-.07-1.7-.31-2.06-.06-.08-.11-.11-.19-.13-.02,0-.04,0-.05-.02-.32-.12-.74-.12-1.22.05-.47.17-.95.47-1.41.84-.41.33-.73.77-1,1.22-.09.15-.17.29-.25.45-.09.14-.2.28-.29.42-.23.27-.36.57-.89.75-.25.15-.21.13-.35-.12-.18-.27-.72-.92-.57-1.39.07-.43.18-.87.43-1.21.21-.37.46-.72.74-1.06.56-.66,1.23-1.29,2.13-1.65.93-.41,2.06-.86,3.34-.57l.37.17c.41.14.71.45.99.74.19.3.42.61.51.91.13.3.22.6.27.9.08.3.1.58.13.87.07.71.03,1.39-.04,2.07-.11,1.03-.41,2.01-.74,2.98-.24.76-.49,1.55-.93,2.31-.1.16-.23.31-.36.45-.24.28-.56.29-.76.29-.22,0-.4-.11-.6-.29-.09-.08-.19-.15-.26-.23-.23-.25-.27-.74-.2-1.16.08-.65.29-1.04.49-1.54.2-.48.4-.98.55-1.52.23-.8.41-1.65.42-2.49h.06Z"/><path class="cls-4" d="M191.05,318.91l-1.91-2.75c-.63-.92-1.37-1.76-2.05-2.65-.71-.86-1.37-1.77-2.12-2.6l-2.26-2.49c-1.07-1.24-2.34-2.28-3.49-3.44-4.14-4-8.55-7.8-13.41-10.96-1.05-.75-2.16-1.4-3.28-2.04-1.12-.64-2.23-1.29-3.35-1.89-1.46-.75-2.92-1.5-4.39-2.25-.74-.35-1.48-.72-2.21-1.1l-1.1-.57c-.36-.2-.71-.45-1.06-.66-.87-.58-.74-.55.16-.46.92.04,2.61.2,4.47.78,6.44,2.38,12.35,6.06,17.75,10.34.8.65,1.64,1.27,2.45,1.93.81.67,1.62,1.35,2.43,2.02,1.68,1.3,3.19,2.8,4.73,4.24.86.78,1.65,1.63,2.43,2.49l2.36,2.56c.75.88,1.47,1.8,2.2,2.69.72.91,1.49,1.78,2.14,2.74l2.48,3.49c.78,1.2,1.51,2.42,2.27,3.63l.85,1.38.76,1.43,1.52,2.86c.96,1.93,1.81,3.92,2.72,5.86.6,1.55,1.23,3.08,1.88,4.6.59,1.54,1.09,3.11,1.63,4.68.12.35.24.69.36,1.03.1.35.19.7.27,1.06.61,2.66.61,3.55-.06,4.26-.15.16-.28.36-.43.46-.48.34-1.28-.63-1.82-2.47-1.66-5.47-3.55-11.15-6.22-16.55-.43-1.03-.99-2-1.52-2.99l-1.59-2.96-1.77-2.86-.89-1.43c-.3-.47-.65-.92-.97-1.38l.05-.04Z"/><path class="cls-4" d="M225.38,333.19c1.6-.6,3.27-.97,4.9-1.44,1.67-.34,3.32-.76,5-.97l1.83-.32c.61-.09,1.23-.16,1.84-.21,4.35-.38,8.73-.27,13.03.39,1.92.29,3.82.76,5.62,1.14,1.17.23,2.31.41,3.44.48.57.04,1.13.02,1.7,0,.58,0,1.16-.04,1.75-.12.74-.08.72.12.18.6-.27.24-.66.55-1.2.87-.53.33-1.21.62-1.98.68-.68.07-1.37.09-2.04.06-.67-.03-1.31-.15-1.95-.25-1.25-.21-2.48-.51-3.63-.7-2.31-.48-4.69-.78-7.11-1.04-2.9-.23-5.94.05-8.89.41-3.24.45-6.49,1.06-9.63,2.03-.98.25-1.92.65-2.88.96-.97.31-1.89.72-2.82,1.13-2.84,1.17-5.53,2.71-8.07,4.4-.95.71-1.85,1.46-2.75,2.2-.88.77-1.67,1.62-2.52,2.42-.38.35-.71.72-1.05,1.11-1.33,1.37-1.93,1.64-2.68,1.52-.17-.02-.35-.02-.47-.05-.4-.1-.24-1.04.63-2.24,2.66-3.48,6.31-6.5,10.32-8.83,3-1.71,6.13-3.22,9.4-4.31l.03.06Z"/><path class="cls-4" d="M276.79,328.31c1.09-.3,2.15-.66,3.21-1.08.38-.16.72-.39,1.1-.55,1.33-.57,2.69-1.15,3.91-1.97.28-.16.52-.38.77-.59.25-.21.52-.39.74-.62.6-.57,1.12-1.18,1.89-1.64.24-.14.39.01.48.36.07.34.17.98-.08,1.47-.54.76-1.1,1.53-1.8,2.13-.35.31-.73.58-1.11.83-.38.26-.78.5-1.2.69-.5.24-.96.55-1.44.84-.47.3-.95.61-1.46.83-1.1.54-2.25.95-3.4,1.35-.71.24-1.43.44-2.14.65-1.09.3-2.19.55-3.28.81-.84.21-1.66.5-2.53.69-.19.04-.37.1-.57.13-.73.07-.97-.08-1.15-.67-.04-.14-.09-.27-.11-.4-.08-.46.18-.86.64-1.05,1.38-.55,2.78-1.04,4.26-1.37,1.09-.27,2.18-.55,3.26-.91l.02.06Z"/><path class="cls-4" d="M206.43,297.14c-.93-1.26-1.86-2.51-2.81-3.74-.47-.61-.95-1.22-1.43-1.79-.24-.28-.49-.56-.7-.77l-.12-.12h-.01s-.02.02.02-.04c.03-.05.06-.09.08-.11.05-.06.1-.13.14-.2.09-.13.17-.31.23-.41.06-.09.1-.2.12-.31.07-.14-.06-.17.1-.1h.02s0,0,0,0c.03,0-.22-.04-.11-.02h.01s.07.02.11.02c.07,0,.14,0,.21,0,.15-.02.22-.1.4-.19l.37-.13.18-.07h0s0,0,0,0c0,0,0,.02.03.06.19.37.53.86.85,1.3l.98,1.37c2.27,3.3,4.57,6.64,6.94,9.91,1.05,1.45,2.16,2.87,3.25,4.28,1.33,1.86,2.78,3.65,3.69,5.83.24.7.29.55-.2.16-.55-.34-1.58-.96-2.54-1.87-.81-.84-1.59-1.71-2.39-2.56-.77-.87-1.47-1.8-2.2-2.71-1.44-1.83-2.86-3.7-4.21-5.63-1.61-2.32-3.57-4.5-5.24-6.9l-.69-1.01-.34-.54c-.12-.21-.22-.36-.37-.72,0,.01-.14-.38-.12-.66-.01-.09.05-.41.21-.65.04-.09.24-.31.45-.41.1-.06.21-.1.32-.13.09-.02.13-.02.2-.03.13,0,.26,0,.38.03.11.02.12.03.18.06.09.03.22.09.25.12.1.06.2.13.25.17.25.2.4.36.56.52.3.32.57.64.83.95,1.03,1.26,1.97,2.54,2.92,3.82l3.46,4.72c1.75,2.37,3.47,4.78,5.28,7.09,1.4,1.79,2.9,3.45,4.37,5.14.32.37.66.72.97,1.11,1.14,1.44,1.39,1.99,1.14,2.71-.05.16-.08.34-.14.46-.19.39-1.08.14-2.06-.82-2.97-2.81-5.56-6.19-8.16-9.56-1.9-2.52-3.8-5.06-5.7-7.59l.05-.04Z"/><path class="cls-4" d="M160.16,419.53c-2.06.24-4.12.45-6.19.61-2.07.18-4.18.27-6.27.27-1.53,0-3.07.02-4.62-.13-1.36-.14-2.74-.35-4.12-.75-.69-.2-1.39-.46-2.08-.85-.68-.39-1.41-.91-1.89-1.77-.48-.87-.52-1.94-.25-2.77.26-.84.72-1.5,1.19-2.07.97-1.14,2.11-1.96,3.27-2.7,2.08-1.29,4.28-2.31,6.54-3.1,1.47-.46,2.98-.84,4.53-1.01.78-.07,1.57-.07,2.36.01.39.04.79.09,1.17.18.39.08.75.35,1.11.5.87.5.72.39-.09.45-.41.02-1,.37-1.63.5-.64.17-1.35.41-2.13.59-1.38.25-2.77.63-4.11,1.12-1.35.47-2.71.95-4,1.58-1.29.61-2.54,1.32-3.65,2.14-1.08.79-2.08,1.84-2.3,2.65-.09.46-.04.81.48,1.23.49.42,1.29.72,2.11.95,1.67.44,3.51.57,5.33.66,4.03.19,8.1-.14,12.19-.59,2.51-.28,5.02-.61,7.51-1.03,3.77-.64,7.55-1.4,11.24-2.35,2.87-.74,5.63-1.68,8.43-2.56.62-.19,1.21-.41,1.84-.6,2.32-.68,3.11-.71,3.8-.15.16.13.35.24.46.39.37.48-.46,1.19-2.12,1.82-4.94,1.86-10.27,3.44-15.75,4.68-4.07.92-8.22,1.63-12.37,2.18v-.07Z"/><path class="cls-4" d="M302.42,322.3c.32,1.51.64,3.01.9,4.53.11.55.26,1.09.32,1.65.22,1.98.34,3.96.4,5.93.01.87.12,1.74.14,2.61.02,1.11.17,2.22-.17,3.33-.1.34-.32.3-.65,0-.16-.14-.36-.35-.56-.59-.18-.24-.3-.53-.34-.84-.38-2.19-.54-4.34-.63-6.56-.03-1.33-.44-2.66-.72-3.98-.29-1.46-.59-2.93-.96-4.38-.22-.9-.46-1.8-.71-2.69-.4-1.35-.78-2.71-1.28-4.02-.39-1.02-.91-1.97-1.37-2.95-.1-.22-.22-.42-.31-.64-.3-.84-.21-1.17.38-1.58.13-.09.26-.2.4-.27.47-.25,1.01-.06,1.41.49,1.14,1.64,1.95,3.52,2.56,5.49.47,1.45.86,2.96,1.26,4.45l-.06.02Z"/><path class="cls-4" d="M265.1,314.41c-.42.63-.82,1.27-1.21,1.91-.14.24-.21.5-.35.74-.5.83-.95,1.7-1.34,2.59-.22.39-.33.8-.46,1.21-.14.53-.26,1.07-.47,1.6-.07.17-.27.13-.48-.04-.21-.17-.48-.48-.53-.83-.08-.61-.15-1.24-.12-1.86.01-.31.03-.62.12-.91.1-.29.24-.57.38-.84.35-.65.47-1.4.75-2.08.3-.75.67-1.47,1.06-2.17.24-.43.49-.86.73-1.28.36-.65.77-1.27,1.08-1.93.24-.51.33-1.1.5-1.65.04-.12.05-.25.11-.36.2-.42.44-.45,1.13-.16.16.07.32.12.47.2.52.25.83.65.82,1.02,0,1.13-.49,2.02-.98,2.92-.37.66-.78,1.3-1.15,1.95l-.06-.03Z"/><path class="cls-4" d="M137.62,322.96c.55-1.09,1.17-2.13,1.8-3.14l.42.65c.2.05.54-.05.61-.06.08-.06.07-.05.08-.05,0,0-.01.11.03.14.06.22.21.37.41.66.05.06.1.12.16.18l.08.08s0,0,0,0l-.02.02-.05.06c-.08.1-.18.25-.31.39-.92,1.03-1.66,2.38-2.36,3.7-.3.6-.5,1.24-.65,1.88-.14.83-.44,1.64-.61,2.51-.07.27-.15.24-.32.01-.16-.23-.48-.67-.61-1.23-.26-.99-.11-1.96.03-2.92.18-.95.42-1.89.96-2.71.62-1,.97-2.1,1.8-3.15.14-.16.26-.31.54-.53l.11-.08c.06-.04.14-.08.21-.12.06-.04.49-.22.92-.1.27.06.6.32.68.46.09.13.17.29.22.44.05.2.05.29.05.45v.3s-.14.25-.14.25c-.46.74-.9,1.49-1.3,2.26-.34.65-.66,1.3-.94,1.98-.42,1.02-.82,2.07-1.06,3.14-.2.83-.21,1.69-.27,2.54-.01.19,0,.37-.03.56-.09.69-.29.88-.95.94-.15.01-.3.04-.45.04-.5,0-.87-.35-.95-.91-.21-1.64-.04-3.37.46-5.03.36-1.23.86-2.43,1.4-3.6l.06.02Z"/><path class="cls-4" d="M127.42,410.46c1.33.02,2.6.01,3.67-.26v.84c.17.22.38.28.35.26-.04,0-.2.13-.36.41-.07.13-.19.32-.24.49-.02.06-.03.07-.03.06h0s0,0,0,0l-.11-.04c-.18-.06-.45-.12-.71-.17-.64-.13-1.34-.15-2.03-.24-2.45-.31-4.96-.52-7.46-.67-1.11-.05-2.23-.07-3.34-.09l-2.13-.02c-.71-.04-1.42-.12-2.14-.26-.44-.19-.38-.27,0-.59.38-.3,1.07-.7,1.88-.84,1.45-.13,2.9-.22,4.36-.26,1.46.02,2.92.09,4.39.23,1.76.18,3.59.1,5.42.26.53.05,1.06.1,1.62.21.28.06.56.11.9.23.17.06.35.11.66.33.1.09.18.14.3.32.11.14.21.43.2.7-.07.61-.31.72-.44.87l-.12.15-.25.07c-1.03.27-2.04.35-3.01.37-1.26.03-2.47-.05-3.64-.02-1.81.08-3.7.1-5.53.12-1.43.02-2.85.11-4.28.08-.32,0-.63,0-.94-.03-.59-.05-.97-.13-1.23-.28-.25-.17-.38-.38-.46-.67-.04-.13-.09-.26-.11-.39-.05-.39.48-.74,1.31-.78,2.47-.1,5-.11,7.59-.23.96-.05,1.93-.1,2.89-.15,1.04-.07,2.08-.05,3.04-.06v.06Z"/><path class="cls-4" d="M339.95,413.74l-2.44-.29s-.07,0-.06-.02v-.02s0,0,0,0h0s0,0,0,0h-.16s-.21.03-.21.03h0s0,0,0,0h0s0-.01,0-.01l-.03-.06s-.03-.09-.05-.16c-.02-.06-.03-.21,0-.28.02-.07.04-.12.07-.17.11-.17.23-.28.38-.39.24-.15.31-.29.59-.43.56-.24,1.24-.49,2.35-.73.56-.12,1.19-.23,1.98-.33l.6-.07.68-.05.64-.05.7-.04,2.27-.14c.73-.04,1.46-.07,2.19-.11.45-.02.96-.01,1.35,0l.89.02c.57.06,1.14.26,1.7.42.35.12.3.14,0,.29-.3.12-.84.57-1.47.85-.27.09-.57.11-.82.16l-.16.03c-.06.01-.02,0-.03,0h0s-.03-.02-.09-.04c-.14-.03-.46-.09-1.33-.13-.52-.02-.88,0-1.12.03-.25.03-.4.07-.77.11-.42.05-.92.09-1.44.24-.06.02-.13.05-.17.09-.03.04-.02.07-.02.08,0,.02,0,.03.02.05-.03.04,0,.03.02.04l.26.06c.25.05.53.1.97.14.63.06,1.31.16,2.34.16.81,0,1.82-.11,2.46-.18.15-.02.3-.05.41-.06.42-.02.43.13.53.71l.09.4c.08.46-.32.8-1.06.86-2.2.16-4.61-.11-6.95-.37-1.72-.21-3.44-.42-5.16-.63h.05Z"/><path class="cls-4" d="M273.44,229.65c4.22-2.38,7.86-5.81,10.76-9.8,2.9-3.99,5.11-8.53,6.49-13.3,1-3.48,1.48-7.11,1.34-10.63-.07-1.52-.36-3.17-.56-4.76-.3-1.59-.55-3.19-.96-4.75-.76-3.13-1.77-6.21-3.15-9.11-1.38-2.89-3.14-5.6-5.35-7.83-.53-.59-1.16-1.04-1.75-1.56-.64-.43-1.25-.92-1.94-1.24-1.37-.73-2.74-1.18-4.34-1.28-2.83-.26-5.74-.14-8.59.22-2.84.39-5.67,1-8.33,1.99-3.43,1.24-6.68,2.96-9.6,5.12l-1.08.83c-.37.27-.73.55-1.05.87-.67.61-1.32,1.25-2.02,1.84l-1.88,2c-.33.34-.58.64-1.04,1.08-.47.42-1.21.86-1.87.59-.38-.18-.65-.42-.74-.76-.12-.3-.16-.57-.18-.75.01-.37.05-.51.12-.5.07.01.16.18.3.4.15.21.3.53.67.58.18.02.38-.1.51-.24.07-.07.12-.15.17-.23.06-.09.14-.21.19-.33.3-.56.75-1.29,1.21-2.02.24-.37.49-.76.75-1.16.28-.39.6-.77.94-1.14.35-.38.71-.76,1.07-1.15.19-.19.38-.39.57-.58.21-.18.43-.35.65-.53,3.04-2.6,6.53-4.71,10.27-6.09,3.73-1.42,7.65-2.3,11.61-2.63,1.98-.19,3.97-.21,5.96-.13,1.01.05,1.98.12,3.06.3.54.13,1.09.25,1.62.41.51.2,1.02.39,1.52.6,1.96.92,3.61,2.25,5.06,3.7,1.47,1.45,2.66,3.1,3.74,4.8,1.29,2.03,2.29,4.23,3.24,6.44.86,2.25,1.65,4.54,2.22,6.89l.44,1.76.35,1.78c.26,1.18.43,2.37.6,3.57.18,1.17.35,2.43.36,3.67.05,1.24-.01,2.47-.12,3.69-.51,5.36-2.17,10.51-4.54,15.26-2.4,4.74-5.6,9.11-9.61,12.65-2.47,2.17-5.23,4.03-8.23,5.41-3,1.37-6.22,2.26-9.48,2.65-2.48.28-4.96.34-7.46.06-2.49-.3-4.92-.92-7.25-1.82-4.64-1.79-8.85-4.62-12.26-8.18-5.33-5.5-8.71-12.75-9.34-20.39-.04-.42-.07-.84-.11-1.25l-.03-1.25c-.04-.84,0-1.67.04-2.52.02-.79.13-1.5.2-2.15.07-.66.17-1.25.28-1.78.11-.53.22-1.01.31-1.45.12-.43.24-.81.36-1.15.44-1.38.97-2.09,1.53-2.6.25-.24.53-.56.73-.67.35-.19.46.34.4,1.45-.02.56-.13,1.24-.22,2.06-.06.41-.12.85-.19,1.32-.06.47-.12.98-.18,1.51-.81,6.29-.01,12.89,2.8,18.68,2.76,5.8,7.47,10.71,13.18,13.84,4.26,2.3,9,3.61,13.86,3.47,4.86-.09,9.67-1.37,13.89-3.81l.05.06Z"/><path class="cls-4" d="M227.24,173.36c-1.78.7-3.2,2.24-3.87,4.23-.12.36-.25.72-.29,1.11-.06.38-.15.75-.16,1.13-.17,1.33-.07,2.71.31,4.05.39,1.33,1.06,2.61,1.94,3.74.8.98,1.75,1.88,2.82,2.56.69.44,1.42.8,2.15,1.18.35.22.76.3,1.11.56.17.13.35.26.54.36.18.12.36.28.55.41.46.39.4.38-.13.62-.51.21-1.7,1.01-2.79.64-1.97-.48-3.74-1.59-5.25-2.95-1.43-1.46-2.56-3.24-3.18-5.19-.74-2.3-1.26-4.86-.73-7.31.24-1.34.78-2.6,1.45-3.8.74-1.17,1.7-2.19,2.83-2.98,1.41-.95,3.06-1.47,4.71-1.57,1.25-.06,2.49.11,3.68.45,1.18.38,2.28.95,3.29,1.66,1.54,1.12,2.85,2.7,3.52,4.53.15.4.31.79.4,1.2.34,1.53.13,2.03-.61,2.39-.17.08-.34.19-.52.24-.6.17-1.1-.38-1.39-1.3-.43-1.37-.94-2.6-1.7-3.57-.75-.96-1.8-1.79-3-2.29-.89-.4-1.87-.57-2.84-.59-.97-.03-1.95.17-2.81.57l-.03-.06Z"/><path class="cls-4" d="M213.68,309.36c2.69.46,5.12,1.51,7.34,2.8.81.48,1.64.91,2.38,1.47,2.66,1.92,4.96,4.24,6.96,6.75.89,1.11,1.78,2.23,2.61,3.37,1,1.51,2.02,3.06,2.38,4.9.11.57-.03.54-.51.26-.51-.28-1.37-.77-2.03-1.52l-.79-1.05-.84-1.01-1.58-2.08c-1.11-1.35-2.21-2.71-3.42-4-1.42-1.57-3.22-2.88-5.02-4.03-1.98-1.28-4.11-2.34-6.35-2.93-1.39-.31-2.78-.55-4.21-.43-2.15.16-4.31.77-6.19,1.87-1.47.85-2.7,2-3.78,3.24-.24.27-.45.56-.68.84-.89,1-1.31,1.21-2.05,1.05-.17-.03-.34-.05-.49-.1-.25-.09-.37-.31-.38-.65,0-.34.08-.82.38-1.31,1.7-2.96,4.72-5.24,8.13-6.57,2.55-.95,5.38-1.35,8.14-.93v.07Z"/><path class="cls-4" d="M220.17,346.12l-7.63,2.01-3.85.97-1.97.46c-.17.04-.32.08-.5.11l-.6.09-1.2.16c-.56-.06-1.25-.22-1.5-.35-.34-.14-.73-.27-1.03-.41-.62-.29-1.26-.57-1.85-.88-1.21-.6-2.37-1.23-3.54-1.86-2.33-1.26-4.62-2.57-6.91-3.87-3.33-1.91-6.69-3.77-9.99-5.72-11.63-6.89-23.15-13.95-34.74-20.88-5.14-3.07-10.37-6.07-15.55-8.98-3.33-1.86-6.7-3.68-10.05-5.5-1.67-.92-3.36-1.8-5.01-2.75-1.65-.95-3.31-1.86-4.85-3.02-.94-.77-1.33-1.15-1.25-1.25.09-.11.66.03,1.75.1,2.17.14,6.02.92,9.87,3.11,13.74,7.56,27.05,15.68,40.38,24.04,7.97,5,16.46,9.88,24.75,14.76,4.56,2.67,9.12,5.35,13.74,7.86,1.15.62,2.31,1.23,3.47,1.8.58.27,1.17.56,1.71.75.12.04.32.14.37.13.04,0,.07.02.11.03l.05.02h.03s.01.02.01.02v.23s.02.13.02.13v.06c0-.19,0,.52,0-.41h.03s.05-.01.05-.01l.1-.02.2-.03.41-.06c2.38-.44,5.02-1.22,7.54-1.89,6.27-1.73,12.53-3.55,18.83-5.24,9.53-2.59,19.15-5.03,28.7-7.27,7.42-1.76,14.72-3.43,22.22-4.64,1.66-.23,3.25-.59,4.95-.72,6.24-.68,8.33-.24,9.63.54.3.19.69.38.86.57.28.32-.21.63-1.32.88-.55.13-1.26.24-2.11.33-.84.1-1.82.14-2.93.32-1.64.2-3.3.41-4.96.61-1.66.28-3.33.55-5.01.83-1.68.24-3.36.63-5.05.94-1.69.33-3.39.63-5.09,1.02-6.81,1.41-13.69,3.09-20.57,4.78-2.55.66-5.11,1.31-7.66,1.97l-7.66,2.04c-5.11,1.39-10.23,2.78-15.34,4.16l-.03-.07Z"/><path class="cls-4" d="M247.18,339.66c-.64-.04-1.28-.03-1.87.05-.29.04-.57.1-.8.19-.1.03-.26.1-.29.12-.03,0-.07.03-.11.05-.11.08-.14.22-.09.34.01.05.04.11.07.16.03.04.01.02.07.09l.2.2c.29.27.64.52,1,.77.73.49,1.53.93,2.35,1.33.73.35,1.49.66,2.23,1,.48.21.96.41,1.44.64.47.25.86.68,1.33.92.28.18.19.23-.1.21-.15,0-.34-.06-.61-.03-.26.02-.57.06-.89.06-1.04-.21-2.09-.43-3.12-.76-1.01-.37-2.02-.8-3-1.37-.58-.34-1.2-.66-1.83-1.07-.18-.12-.28-.18-.52-.38-.22-.19-.39-.39-.56-.6-.32-.43-.51-.95-.45-1.47.08-.57.41-1.07.83-1.47.22-.19.45-.39.71-.51.21-.12.41-.19.62-.28.83-.28,1.62-.37,2.4-.4.96-.04,1.89.05,2.81.17,1.39.18,2.74.54,4.07.93,1.03.31,2.08.56,3.12,1.07.23.12.46.21.68.38.84.57.89,1.1.51,1.59-.09.11-.16.23-.26.32-.16.15-.38.2-.6.21-.21,0-.46,0-.67-.11-1.31-.63-3.01-1.22-4.74-1.66-1.29-.32-2.62-.58-3.92-.62v-.06Z"/><path class="cls-4" d="M241.03,341.78c-.28-.04-.55-.07-.83-.1-.26.04-.54.04-.79.11-.24.09-.51.11-.72.26l-.34.18c-.07.03-.1.06-.11.07l-.03.02s.04.03-.04-.04c-.06-.07-.21-.15-.24-.18-.03-.03-.08-.05-.14-.06,0,0,.03,0,.03,0,.01,0,.13,0,.18-.02.03-.02.2-.05.3-.1.06-.03,0-.02.04,0,0,.03.03.07.07.14.3.47,1,1.06,1.67,1.56.69.51,1.43.99,2.18,1.46.66.43,1.36.81,2.05,1.19.89.48,1.73,1.12,2.44,1.96.21.29.07.32-.24.3-.32-.03-.89,0-1.45-.11l-.75-.18c-.13-.03-.25-.06-.38-.08l-.35-.15c-.47-.19-.94-.39-1.41-.6-.96-.39-1.83-1-2.71-1.63-.52-.39-1.08-.74-1.65-1.14-.29-.2-.58-.42-.87-.69-.28-.27-.61-.59-.82-1.16-.12-.29-.17-.76-.06-1.18.06-.2.16-.39.26-.55.11-.13.23-.27.34-.38l.34-.25c.11-.06.2-.1.29-.14l.58-.26c.38-.17.81-.22,1.2-.32.4-.04.81-.06,1.2-.06.97.02,1.89.23,2.76.51,1.31.43,2.5,1.08,3.67,1.69.9.48,1.84.87,2.73,1.32.2.1.4.17.59.28.35.18.55.35.63.56.09.19.08.41.03.69-.02.13-.03.26-.06.37-.07.36-.61.59-1.26.43-1.78-.64-3.28-1.61-4.85-2.4-1.15-.58-2.32-1.09-3.46-1.27v-.05Z"/><path class="cls-4" d="M233.91,343.73c-.7-.11-1.34-.07-1.86.15-.14.04-.25.13-.38.18-.09.07-.27.19-.31.23-.01.02-.06.04-.04.03.02,0-.08-.04-.12-.05-.07-.02-.02-.01-.05-.02,0,0-.04,0-.02,0,.04,0,.08,0,.11,0,.08-.03.06,0,.06.01.02.17.43.57.82.91.72.65,1.63,1.25,2.56,1.81.92.58,1.88,1.12,2.87,1.63.87.45,1.79.84,2.7,1.21,1.13.55,2.37.9,3.34,1.86.31.28.2.37-.21.48-.28.07-.58.14-.84.2-.17.03-.36.09-.54.09-.17,0-.35-.04-.53-.09l-1.86-.56c-.61-.21-1.21-.48-1.8-.74-1.19-.53-2.37-1.12-3.51-1.84-1.35-.89-2.86-1.55-4.21-2.88-.35-.4-.74-.84-.93-1.6-.1-.37-.06-.84.09-1.23.17-.38.41-.66.64-.88.83-.73,1.93-1.13,2.95-1.16,1.26-.07,2.4.25,3.48.6,1.63.56,3.09,1.38,4.54,2.17,1.12.61,2.26,1.15,3.37,1.74.24.13.5.23.72.4.41.29.67.5.78.73.1.26.11.48.09.76-.01.12,0,.25-.02.36-.03.19-.16.3-.45.36-.26.06-.66.09-1.02-.06-1.15-.34-2.1-.94-3.1-1.47-.99-.56-1.96-1.12-2.95-1.65-1.45-.75-2.96-1.49-4.38-1.63v-.06Z"/><path class="cls-4" d="M265.54,349.37c-1.73,2.09-3.95,3.78-6.38,4.88-.3.14-.6.3-.91.42l-.94.33c-.63.21-1.24.46-1.88.59l-1.91.45-1.93.26c-1.87.24-3.66.39-5.53.44-3.26.04-6.62-.25-9.81-1.36-1.58-.54-3.12-1.32-4.49-2.24-1.36-.93-2.69-1.91-3.83-3.25-.19-.22-.36-.45-.53-.71-.17-.24-.31-.52-.49-.9-.33-.74-.33-1.53-.12-2.26.21-.6.76-1.06,1.39-1.19.16-.04.32-.07.48-.07.16-.02.33-.02.5,0,.17.01.34.01.5.05l.39.07c.97.2,1.85.5,2.7.82,1.74.66,3.41,1.4,5.04,2.18.82.38,1.62.8,2.4,1.26l1.17.67c.38.23.69.63,1.06.9.88.75.76.7-.3.72-.51-.03-1.38.22-2.21.03-.43-.06-.88-.15-1.35-.27-.23-.07-.47-.13-.71-.2-.23-.09-.47-.19-.7-.3-1.71-.81-3.4-1.62-5.08-2.3-.83-.33-1.68-.64-2.42-.81-.51-.11-.35-.08-.4-.09-.02,0-.04,0-.05,0-.01.01-.02.03-.02.06.01.04-.03-.03.05.12.05.13.17.27.25.41.4.57.98,1.14,1.6,1.67,1.27,1.07,2.69,2.07,4.16,2.82,1.85.92,3.97,1.45,6.14,1.68,2.18.22,4.41.18,6.64.04,1.22-.08,2.47-.16,3.64-.35.59-.1,1.2-.13,1.78-.28l1.74-.42c2.28-.68,4.42-1.75,6.22-3.27,2.26-1.84,3.83-4.37,5.03-7.12.23-.53.47-1.06.73-1.62l.24-.44c.08-.15.15-.29.32-.48.34-.41.55-.52.78-.71.93-.71,1.85-1.4,2.74-2.13.89-.72,1.75-1.47,2.53-2.27.19-.2.38-.4.55-.61l.25-.31.12-.16.07-.11c.18-.27.36-.57.33-.91-.03-.26-.26-.45-.5-.51-.24-.07-.49-.08-.74-.04-.67.07-1.55.32-2.32.61-1.59.61-3.09,1.37-4.5,2.36-.64.43-1.27.89-1.98,1.31-2.61,1.58-4.08,1.53-4.73.85-.16-.15-.34-.31-.4-.44-.11-.24.15-.41.57-.64.42-.25,1.04-.49,1.89-.96,1.27-.69,2.5-1.63,3.9-2.57,1.46-.97,3.01-1.76,4.71-2.37.43-.15.87-.29,1.33-.41.24-.05.46-.12.72-.15l.38-.06c.09-.02.37-.02.55-.03,1.61-.12,3.22.57,3.69,2.02.24.69.15,1.45-.14,2.19-.14.37-.35.74-.58,1.07l-.17.26-.12.16-.23.3c-.61.77-1.25,1.4-1.9,2.02-.96.9-1.96,1.72-2.95,2.52l-1.48,1.16-.35.28h0c.57.71-.78-.96-.63-.78h0s.04.07.04.07l.08.11.17.21c.12.14.25.26.39.38.02-.01.02-.03.03-.05l-.14.26c-.05.08-.1.2-.17.33-.5,1.02-1.03,2.27-1.67,3.44-.66,1.17-1.38,2.33-2.26,3.38l-.05-.03Z"/><path class="cls-4" d="M312.7,420.67c1.69.16,3.38.16,5.04-.06,1.58-.16,3.15-.74,4.74-1.44,3.11-1.42,6.19-3.34,8.33-5.82.77-.9,1.34-1.91,1.56-2.88.19-.98.02-1.87-.56-2.62-.53-.67-1.35-1.25-2.3-1.69-.94-.45-1.99-.78-3.07-1.05-2.16-.53-4.44-.79-6.72-.94-4.57-.31-9.21.07-13.9.29-4.15.23-8.35.41-12.52.29-2.67-.08-5.37-.26-8.03-.71l-1.99-.4c-.66-.15-1.31-.35-1.96-.53-1.29-.39-2.58-.84-3.76-1.51-1.49-.79-1.17-.91.28-.81,1.46.09,4.01.25,6.91.72,5.16.86,10.47.81,15.81.55,2.69-.12,5.38-.23,8.08-.35,2.7-.1,5.46-.24,8.25-.14,3.32.13,6.71.33,10.13,1.11,1.7.42,3.43.93,5.05,1.99.8.53,1.58,1.21,2.15,2.12.57.9.86,2.02.82,3.05-.03,1.16-.38,2.23-.86,3.16-.49.93-1.1,1.74-1.75,2.48-1.32,1.48-2.83,2.67-4.42,3.73-1.59,1.05-3.25,1.97-5,2.73-.87.38-1.77.72-2.71,1-.47.14-.95.26-1.45.35l-1.43.21c-4.74.53-9.39-.47-13.75-1.63-3.32-.87-6.61-1.89-9.86-2.62-3.23-.61-6.67-.87-10.02-1.1-5.24-.33-10.4-.31-15.58-.26-1.14.03-2.26.05-3.41.08-2.13.02-3.52.02-4.5-.1-.99-.16-1.56-.4-2.04-.77-.22-.16-.51-.32-.64-.47-.23-.27.08-.54.86-.85.78-.32,2.01-.61,3.6-.72,4.7-.37,9.52-.41,14.4-.32,4.89.13,9.82.35,14.84.95.93.11,1.87.26,2.86.45,1.03.2,1.89.45,2.8.68l5.33,1.5c3.51,1,6.96,1.96,10.38,2.26v.07Z"/><path class="cls-4" d="M234.39,418.55l-28.79-4.07-14.39-2.03c-4.8-.64-9.65-1.4-14.43-2.37-6.98-1.41-13.93-3.07-20.7-5.33-5.97-2-11.83-4.39-17.4-7.41-5.54-3.05-10.84-6.74-15.14-11.55-4.24-4.81-7.38-10.87-7.68-17.54-.06-3.3.58-6.54,1.72-9.57,1.14-3.02,2.73-5.95,5-8.33,3.84-4.35,9.07-7.19,14.43-8.96,2.7-.86,5.46-1.5,8.24-1.93,2.78-.4,5.57-.67,8.35-.75,7.15-.21,14.32.39,21.32,1.8,3.5.7,6.97,1.58,10.37,2.66,1.71.51,3.37,1.18,5.01,1.89,1.63.74,3.21,1.61,4.74,2.53,1.91,1.17,2.6,1.87,2.52,1.88-.11.05-1.04-.53-2.78-1.17-1.73-.67-4.35-1.18-7.44-1.84-3.08-.68-6.66-1.49-10.57-2.26-3.46-.7-6.96-1.18-10.46-1.59-3.5-.4-7.02-.61-10.52-.61-6.99.02-14.03.87-20.38,3.4-3.16,1.27-6.12,2.96-8.64,5.16l-.94.83c-.3.29-.57.61-.86.91l-.85.92c-.25.32-.52.63-.76.97-.97,1.33-1.81,2.79-2.49,4.33-1.36,3.08-2.17,6.46-2.13,9.78,0,.83.08,1.65.21,2.45.14.81.38,1.65.56,2.48.25.81.54,1.62.81,2.43.36.78.68,1.57,1.07,2.34,1.91,3.65,4.63,6.96,7.86,9.77,3.24,2.81,6.9,5.2,10.75,7.28,7.73,4.14,16.17,7.06,24.65,9.41,9.36,2.56,18.89,4.31,28.57,5.54l29,4.08,16.36,2.27,8.18,1.09,4.09.51,2.04.23,1.01.1c.33.03.69.05.84.06.13.04.25-.05.36-.11.07-.05.33-.22.5-.36.38-.28.77-.59,1.15-.9,3.47-2.85,6.82-5.94,10.06-9.1,1.62-1.59,3.21-3.2,4.73-4.86,1.52-1.66,3-3.37,4.25-5.16.59-.87,1.22-1.95,1.24-2.43.05-.16-.05-.32-.14-.44-.11-.14-.18-.21-.35-.39-.37-.36-.78-.72-1.22-1.06-1.72-1.38-3.59-2.65-5.48-3.88-3.79-2.44-7.67-4.74-11.61-6.91-6.13-3.37-12.36-6.4-18.69-9.14-6.33-2.74-12.76-5.17-19.33-7.2-2.9-.88-5.75-1.65-8.71-2.34-5.49-1.28-9.14-1.8-11.71-2.18-2.56-.38-4.04-.67-5.26-1.09-.55-.2-1.29-.35-1.63-.54-.57-.29.31-.67,2.43-.92,2.12-.25,5.48-.25,9.7.33,6.27.86,12.47,2.44,18.6,4.39,6.12,1.97,12.17,4.32,18.14,6.95,5.97,2.63,11.86,5.54,17.65,8.7,5.79,3.18,11.49,6.5,16.91,10.63.66.52,1.31,1.04,1.98,1.66.17.15.33.31.51.49.27.25.51.59.75.89.45.63.68,1.39.57,2.16-.03.38-.14.77-.24,1.14-.05.19-.13.37-.2.53l-.17.38c-.22.46-.46.85-.7,1.24-.48.76-.99,1.46-1.51,2.12-2.08,2.64-4.33,4.97-6.62,7.27-2.3,2.28-4.65,4.49-7.07,6.64-1.21,1.07-2.43,2.13-3.68,3.18-.62.52-1.26,1.04-1.92,1.55-.33.25-.67.51-1.03.77l-.33.23c-.16.11-.33.21-.51.27-.18.07-.35.16-.54.2l-.14.03c-.03.1-.09.04-.13.07l-.28.04-.98-.07c-.26-.01-.46-.04-.68-.07l-1.29-.14-2.55-.3-5.06-.65-10.1-1.35v-.07Z"/><path class="cls-4" d="M85.41,142.13c.01-.08.04-.06.02-.15-.01-.09-.08-.26-.15-.45-.11-.33-.29-.61-.51-1.4-.17-.68-.02-1.37.38-1.9.22-.25.48-.47.78-.62.15-.08.31-.15.47-.21l.31-.11c.54-.18,1.05-.44,1.6-.59l.45-.12-.62,1.51c.09-.04-.29-.35-.92-.65-.9-.44-1.64-1.29-1.48-2.25.08-.47.36-.89.7-1.24.28-.29.43-.44.64-.69.28-.32.52-.66.75-1.02l.3-.5.02-.04c.14.04.26.05.32.05.07,0,.09-.02.07,0,0,0,.04-.04.02-.01-.02.03-.04.13-.02.27,0,.04,0,.07.02.11-.05.07-.03.02-.04.04l-.04.02c-.05.03-.1.07-.14.11-.23.21-.64.46-.95.69-.35.23-.63.52-1.06.72-.37.15-.32.14-.32-.24-.03-.4.02-1.13.41-1.76.11-.17.23-.34.35-.51.06-.09.12-.17.2-.23l.28-.26c.17-.14.36-.27.57-.35.11-.03.21-.08.32-.11l.08-.02h.02s-.07,0-.03,0h.06c.08-.03.18-.04.28-.04.21,0,.48.03.76.17.29.14.5.37.65.61.15.25.22.56.22.79,0,.24-.04.42-.08.56-.21.59-.3.66-.43.9-.13.21-.27.41-.42.61-.29.4-.61.77-.94,1.13l-.25.25-.06.02s-.09.04-.13.09c-.03.03-.05.07-.05.12,0,.07.02.14.07.19.08.07.03.07.33.19.24.11.53.21.85.4.31.19.69.49.92.94l.52.99-1.08.4c-.35.13-.7.26-1.06.35l-1.14.3-.18.05-.1.04c-.07.03-.14.07-.19.13-.1.12-.1.3-.05.45.02.1.3.61.45.93.1.21.23.46.31.81.08.35.06.66.03.93l-.11,1.11-1-.49c-.61-.3-1.1-.84-1.38-1.33l-.34-.61c-.12-.21-.13-.24-.21-.37-.14-.19-.3-.43-.56-.49-.36-.04-.53.33-.67.6-.02.07-.26.49-.45.72-.21.27-.44.52-.7.73-.13.11-.27.21-.42.31-.16.09-.24.17-.57.28-.16.05-.4.08-.65,0-.25-.07-.45-.22-.57-.35-.25-.26-.33-.48-.4-.62-.13-.27-.26-.55-.33-.85-.12-.56-.1-.95.02-1.2.15-.25.36-.37.64-.44.13-.03.25-.07.36-.08.19,0,.35.09.51.26.16.17.33.38.4.62.11.35.31.74.47.95-.57.28-.73.49-.75.55-.01.03,0,0,0-.12-.03-.15-.04-.27-.28-.86.09-.07.24-.17.34-.27.11-.1.21-.22.3-.34.04-.06.08-.12.12-.19l.25-.47c.48-.96,1.19-1.59,2.13-1.66h.25c.61.01,1.16.28,1.64.74.24.22.46.49.67.77l.29.44.16.27c.18.32.32.57.43.71.1.16.16.24.28.33l-2.04,1.14.03-.18h.05Z"/><path class="cls-4" d="M83.33,130.42s-.02.03-.04.12c-.03.16-.06.33-.04.5.02.34.05.69,0,1.05l-.04.37c-.02.16-.03.32-.06.47-.06.3-.11.62-.23.88-.1.27-.25.51-.43.71-.1.09-.2.2-.32.26-.08.16-.18.18-.3.27-.71.38-1.56.2-2.4-.19l-.98-.47c-.23-.12-.61-.25-.63-.27-.21-.09-.5-.13-.78,0-.19.1-.33.33-.22.53.06.16.22.3.37.42.08.05.15.11.25.16.15.1.31.19.47.27l1.28.6c.21.12.44.18.64.34.2.16.4.33.62.48.27.21.23.28-.09.48-.16.1-.4.24-.7.4-.15.07-.32.18-.49.21-.16.02-.33.02-.49-.01-.5-.1-1.02-.2-1.48-.45-.49-.26-.82-.37-1.65-1.04-.36-.28-.64-.6-.88-.92l-.27-.5c-.05-.17-.11-.34-.15-.51-.02-.34-.04-.7.11-1.04.05-.18.15-.33.26-.47.1-.15.21-.29.34-.41.27-.24.59-.43.94-.56.46-.17.97-.24,1.49-.22.51,0,1.12.16,1.41.23.35.1.69.21,1,.32l.27.1.15.07c.1.04.25.13.36.05.11-.05.17-.18.21-.3l.05-.2.02-.11.04-.25c.03-.34.14-.69.21-1.04.05-.35.11-1.11.25-1.72.14-.62.36-1.15.67-1.56.23-.31.53-.55.9-.69.38-.1.82-.11,1.17.07.7.37,1.11,1.08,1.45,1.89.53,1.47.74,2.3.93,3.43.04.24.08.48.1.72.03.92-.27,1.29-1,1.3-.17,0-.33.01-.49-.01-.53-.12-.91-.45-1.01-.93-.16-.8-.32-1.58-.48-2.37-.04-.16-.11-.48-.11-.42-.01,0-.02,0-.03,0-.01,0-.02.01-.02.01.02,0-.04-.11-.08-.03l-.05-.02Z"/><path class="cls-4" d="M88.48,137.62l.65.13c.07.02.06.03.1.04.06.03.14.05.23.07.17.05.48-.01.51-.23,0-.15-.24-.2-.33-.26-.11-.07-.17-.11-.41-.21-.79-.26-1.72-.61-2.1-1.14-.41-.61.16-1.32.67-2.02l.91-1.19c.11-.16.22-.33.27-.52.06-.17.04-.42-.16-.48-.08-.03-.17-.02-.25,0-.3.09-.54.28-.74.41-.02.02-.17.1-.3.17l-.39.21-.39.21c-.13.06-.32.07-.47.12-.4.07-.41.07-.38-.4.03-.22,0-.64.14-.94.13-.32.32-.66.62-.93.58-.48,1.49-1.15,2.21-1.24.18-.03.37-.06.52-.05.17,0,.32,0,.47.04.3.04.51.24.81.37,1.03.9.93,2.2,0,3.61-.21.31-.5.71-.62.86-.13.16-.31.37-.4.46-.1.07-.17.1-.29.2-.04.04-.13.1-.1.15.02.04.06.07.11.1.11.06.17.08.38.14.56.14,1.27.32,1.85.53.55.24,1.05.51,1.32.84.32.35.58.75.56,1.31,0,.14-.04.27-.04.41l-.15.38c-.07.12-.13.24-.2.35-.09.09-.17.2-.27.28-.39.33-.85.51-1.4.6-.56.08-1.22.04-1.87-.04l-1.02-.15c-.25-.04-.5-.07-.73-.09-.11,0-.23-.02-.32-.02h-.07s-.04,0-.04,0h0s0,0,0,0c-.03-.33.06.74-.06-.74h0s0,0,0,0h0s-.01-.01.05.01c.11.03.12-.02.32-.04.08-.01.16-.03.24-.05l.12-.04s0,0,.01-.01v.04c.08.19.2.44.31.67.34.73.67,1.49.91,2.3.12.41.24.83.29,1.3.03.45.11,1.07-.42,1.68-.21.23-.49.34-.67.4-.2.09-.43.12-.67.14-.47,0-.96-.15-1.29-.38-.71-.46-1.12-1.05-1.48-1.63-.16-.26-.31-.51-.43-.78-.43-1.01-.36-1.39.15-1.76.12-.08.22-.18.34-.24.4-.2.88.08,1.22.68.26.44.53.86.81,1.23.27.36.59.66.73.7.1-.06-.04.22-.01.18,0-.04,0-.07-.01-.09,0,0,0-.05-.02-.1-.01-.07,0-.03,0-.04h0s0,0,0,0h0s.29.63.29.63h0s.07.11.05.09c.02.02-.09-.09-.32-.15-.12-.04-.25-.06-.44-.09-.04,0-.01-.01-.03-.03,0-.08-.03-.26-.09-.46-.15-.62-.49-1.36-.78-2.12-.16-.4-.31-.74-.51-1.28l-.05-.14-.02-.08-.04-.16-.02-.08v-.05s-.02-.16-.02-.16c0-.11,0-.22.02-.33l.03-.16c.02-.09.13-.4.32-.6.19-.22.47-.39.71-.45.11-.03.26-.05.3-.06h0s.03,0,.03,0h.06c.15,0,.33,0,.46.01.28.02.52.06.76.09v.05Z"/><path class="cls-4" d="M81.28,144.78c-.98.56-1.96.39-2.75-.19-.08-.12-.17-.25-.23-.36-.19-.31-.34-.61-.34-1.06-.02-.17.03-.39.06-.59.04-.2.06-.4.12-.6.09-.39.24-.84.33-1.01.18-.48.44-.91.67-1.36.22-.38.35-.8.59-1.18.29-.48.54-.99,1.13-1.34.19-.1.21.01.23.22.01.19.17.56.13.85-.07,1.1-.38,2.09-.86,3.03-.08.14-.14.28-.19.43-.04.08-.05.11-.06.17l-.06.34c-.01.09-.05.23.01.32.1.19.31.22.5.16.18-.06.36-.17.54-.33.42-.41.89-.95,1.21-1.52.26-.45.39-.96.54-1.45.03-.11.05-.22.09-.32.19-.36.44-.38.89-.31.1.02.2.02.28.04.26.05.55.35.6.77-.01,1.13-.53,2.09-1.12,3.02-.23.34-.48.68-.78,1-.09.12-.44.46-.69.68-.26.27-.56.42-.84.63v-.05Z"/><path class="cls-4" d="M400.94,310.73c-.29-.34-.7-.78-.96-1.55-.27-.69-.07-1.55.25-2.08.31-.54.72-.92,1.13-1.23.39-.28.72-.49.98-.67.19-.13.32-.26.4-.38,0,.03.03-.08.04-.11h0s.08-.02.12-.03c.08-.02.16-.05.23-.09.13-.07.17-.15.15-.11,0-.01-.03.14-.02.08,0,.05.01.24.05.4,0-.01-.12.02-.23.06-.44.13-.87.31-1.28.52l-.17.09-.27.17-.52.35c-.35.21-.64.32-.94.37-.3.05-.67-.04-.95-.24-.28-.2-.49-.49-.61-.81-.21-.56-.16-1.19.04-1.87.04-.15.11-.39.11-.44.02-.08.03-.16.03-.24,0-.16-.02-.29-.06-.36,0-.06-.01-.09-.03-.13l1.01-.18c-.28.4-.53.81-.8,1.23-.28.42-.57.84-.82,1.3-.19.32-.16.29-.18-.04,0-.32-.21-.99-.17-1.75.07-.55.19-1.1.35-1.64l.37-1.31,1.44.98c.47.32.8.84.85,1.29.08.44.05.82-.02,1.17l-.05.23h0s-.02.02-.02.02c-.01.01-.03.03-.05.05-.03.05-.06.14-.02.22.05.08.1.07.21.06.06-.02.04.02.19-.06l.54-.28c.37-.18.74-.35,1.12-.5.17-.06.4-.19.88-.21.47-.03,1.05.29,1.28.7.25.4.28.75.29,1.07,0,.32-.07.62-.21.93-.18.37-.37.56-.56.76-.19.19-.39.34-.58.48-.38.27-.74.45-1,.64-.25.17-.47.39-.59.59-.11.19-.13.35-.06.53.06.19.44.53.81.86.2.18.41.37.62.65.21.27.41.7.39,1.17,0,.11-.02.21-.04.32l-.16.97-.89-.44-1.77-.88-.88-.43c-.17-.08-.35-.16-.53-.14-.08.02-.15.04-.21.09-.13.1-.2.27-.23.43-.03.16-.03.28-.01.57l.15,1.71c.02.25.06.49.07.75.06.93-.18,1.23-.67,1.45-.12.05-.23.11-.35.14-.38.1-.72-.28-.89-.98-.13-.86-.2-1.74-.24-2.63,0-.24-.02-.42-.01-.71l.02-.21c0-.07.03-.21.04-.31.03-.21.09-.42.16-.62.27-.8.87-1.45,1.69-1.63.35-.09.72-.07,1.09,0,.34.08.83.28.94.31.86.31,1.73.63,2.58.97l-1.66,1.19c.12.05.26-.01.02.06l-.05.03-.12.05c-.07.03-.15.08-.21.12-.01-.02.01-.02-.02-.06-.06-.14-.29-.38-.56-.67l.03-.04Z"/><path class="cls-4" d="M399.36,301.76s-.03.02-.08.1c-.08.14-.17.29-.2.45-.09.33-.18.67-.36.99l-.16.34c-.07.14-.14.29-.21.42-.16.27-.31.55-.51.76-.19.22-.4.39-.64.53-.12.06-.25.12-.39.14-.12.12-.23.11-.37.15-.8.12-1.54-.33-2.2-.99l-.77-.77c-.18-.19-.49-.44-.51-.46-.17-.15-.43-.29-.73-.26-.21.03-.42.2-.38.42,0,.18.1.35.21.52.06.08.11.16.18.23.11.14.23.28.35.41l1.01,1c.16.18.35.31.49.54.13.22.27.45.42.66.18.28.12.34-.25.42-.19.04-.46.1-.79.14-.16.02-.36.06-.53.03-.15-.04-.31-.09-.45-.17-.44-.26-.9-.53-1.24-.92-.37-.41-.65-.62-1.2-1.53-.24-.38-.4-.78-.53-1.16l-.09-.56c0-.18,0-.36.03-.53.1-.33.2-.67.45-.94.11-.15.25-.26.4-.36.14-.11.29-.2.46-.28.33-.14.7-.21,1.07-.21.49,0,.99.09,1.48.29.48.17,1,.52,1.25.69.3.21.58.43.84.64l.22.18.12.11c.08.07.19.21.32.17.12-.01.22-.11.29-.21l.11-.17.06-.09.12-.22c.14-.31.36-.6.55-.91.17-.31.47-1.01.81-1.53.34-.54.73-.96,1.15-1.24.33-.21.69-.34,1.1-.35.15-.01.29.05.44.1.15.03.29.09.41.19.25.16.42.41.55.66.25.52.38,1.11.4,1.78,0,1.56-.07,2.42-.27,3.54-.04.24-.08.48-.15.72-.28.88-.69,1.12-1.38.89-.16-.05-.32-.1-.46-.17-.46-.29-.71-.73-.64-1.22.11-.81.23-1.6.34-2.4.02-.17.06-.49.04-.44-.01,0-.02,0-.03,0-.01,0-.02,0-.02,0,0,0,.01-.02,0-.02,0-.06-.03-.06-.07-.03l-.04-.04Z"/><path class="cls-4" d="M401.8,310.27l.51.31c.12.07.08.05.1.07l.03.03s.09.08.16.13c.12.08.35.19.52.07.04-.02.07-.05.09-.09.05-.14-.16-.26-.22-.36-.08-.1-.13-.16-.32-.33-.66-.51-1.42-1.15-1.59-1.78-.18-.72.59-1.19,1.31-1.68l1.25-.82c.19-.13.39-.3.5-.5.05-.1.07-.23,0-.33-.06-.1-.19-.15-.3-.16-.31-.02-.6.08-.84.14-.02.01-.19.04-.34.06l-.44.07-.44.07c-.15.02-.33-.04-.48-.05-.4-.07-.41-.07-.23-.51.1-.2.21-.61.45-.84.23-.26.53-.52.9-.67l.07-.03s.02-.06.04-.07h.06s.24-.06.24-.06l.48-.11c.32-.07.67-.23.97-.2.65-.05,1.12.13,1.51.33.21.09.33.25.48.41.16.15.29.36.39.58.18.47.16.93.02,1.35-.15.43-.44.87-.88,1.28-.39.39-1.02.81-1.35,1.02-.78.48-.61.29-.89.41-.05.02-.15.06-.14.11,0,.05.04.09.07.13.09.09.13.13.31.26.48.32,1.09.73,1.57,1.12.44.41.81.84.96,1.23.28.54.29,1.24-.14,1.87-.25.28-.52.52-.84.66-.32.11-.64.18-1,.16-.68,0-1.51-.31-2.3-.73l-.91-.48c-.23-.12-.45-.24-.66-.33-.1-.04-.21-.1-.3-.12l-.07-.03h-.03s0-.02,0-.02h0c.09-.32-.19.72.19-.72h0s0,0,0,0h0s0-.02.04.03c.09.06.12.02.31.07.08.01.16.02.24.03h.12s0,0,.01,0v.04c0,.2.03.48.05.73.08.8.13,1.62.09,2.48-.02.43-.05.86-.16,1.33-.12.43-.25,1.04-.96,1.45-.28.15-.57.16-.76.15-.22.02-.45-.04-.68-.1-.44-.15-.85-.46-1.09-.8-.52-.67-.7-1.36-.85-2.03-.06-.3-.13-.58-.15-.88-.07-1.09.13-1.43.73-1.61.14-.04.27-.09.4-.11.44-.05.8.37.92,1.04.1.5.21.99.35,1.43.13.43.33.82.46.9.12-.03-.12.19-.07.17.01-.03.02-.07.02-.09,0,0,0-.05.01-.1,0-.07,0-.03,0-.04h0s0,0,0,0h0s.06.69.06.69h0c0,.05.03.13.02.11.02.03-.06-.11-.25-.25-.1-.08-.21-.14-.38-.23-.04-.01-.01-.01-.01-.04.02-.07.06-.26.08-.47.06-.64-.01-1.44-.03-2.26-.01-.43-.04-.8-.05-1.37v-.15s0-.08,0-.08v-.16s.03-.08.03-.08v-.05s.05-.16.05-.16c.03-.1.07-.21.12-.3l.08-.14c.05-.08.26-.33.5-.45.25-.15.57-.21.82-.19.11,0,.26.04.3.05h0s.03.01.03.01l.06.02c.14.05.31.11.43.16.26.11.47.23.68.34l-.02.05Z"/><path class="cls-4" d="M392.63,314.61c-1.12.2-1.98-.29-2.53-1.09-.03-.14-.07-.29-.09-.41-.08-.35-.12-.69.04-1.11.04-.17.16-.36.25-.53.1-.18.19-.35.31-.52.22-.33.51-.71.65-.84.33-.39.72-.72,1.08-1.06.34-.29.6-.64.95-.91.43-.36.84-.75,1.51-.88.22-.03.19.08.15.29-.05.18-.02.59-.16.85-.43,1.01-1.05,1.84-1.82,2.57-.12.1-.22.22-.33.34-.06.06-.08.09-.12.14l-.17.3c-.04.09-.12.2-.09.3.03.21.22.31.42.31.19,0,.4-.04.62-.13.53-.24,1.16-.6,1.65-1.03.39-.34.69-.78.99-1.19.07-.09.12-.19.19-.28.3-.28.54-.21.94,0,.09.05.18.09.25.13.23.13.4.52.31.92-.39,1.06-1.19,1.79-2.07,2.47-.33.25-.68.48-1.07.68-.12.09-.57.28-.88.41-.33.17-.67.21-1,.32v-.06Z"/><path class="cls-2" d="M189.24,100.5c.01.12.02.24.02.36-.08,4.69-8.54,2.79-6.41-1.76,1.42-3.03,6.08-1.61,6.39,1.4Z"/><path class="cls-4" d="M452.15,213.57c.01.12.02.24.02.36-.08,4.69-8.54,2.79-6.41-1.76,1.42-3.03,6.08-1.61,6.39,1.4Z"/><path class="cls-2" d="M374.11,317.91c.01.1.02.2.01.3-.07,3.9-7.86,2.32-5.9-1.47,1.31-2.52,5.6-1.34,5.88,1.16Z"/><path class="cls-2" d="M74.14,280.01c.01.1.02.19.01.29-.07,3.79-7.99,2.25-5.99-1.42,1.33-2.45,5.69-1.3,5.98,1.13Z"/><path class="cls-4" d="M78.32,187.79c-.11-.02-.22-.05-.33-.08-4.21-1.24-.72-7.12,2.93-4.37,2.43,1.83.17,4.98-2.6,4.45Z"/><g class="cls-5"><path class="cls-4" d="M225.74,238.93c.08.11-.1.21-.39.31-.09.03-.37.05-.42.02-.09-.06-.18-.12-.26-.19-.04-.04-.36-.7-.49-.95-.14-.23-.17-.47-.18-.7-.01-.47-.03-.96,0-1.44,0-.11.04-.21.09-.3.19-.33.26-.68.29-1.05,0-.06.03-.12-.04-.2-.13-.14.12-1.13.28-1.2.29-.23.53-.46.79-.68.04-.03.03-.09.14-.07.26.03.27-.07.33-.14.08-.1.19-.19.32-.26.07-.03.22-.02.34-.01.11,0,.4.22.42.26.07.11.23.16.36.23.04.03.1.06.13.08.06.06.29.93.27.98-.02.01-.21.91-.18,1.02,0,.06-.06.09-.12.12-.03.02-.15.72-.16.74-.09.13-.06.28-.31.37-.05.02-.05.05-.06.08-.06.25-.21.47-.33.72-.06.12-.06.26-.1.39,0,.02-.04.04-.06.07-.02.03-.05.05-.06.08-.06.31-.16.62-.19.94-.01.07-.27.43-.26.52,0,.05-.25.22-.21.26Z"/></g><path class="cls-4" d="M241.28,247.8c.09.12-.15.17-.58.18-.14,0-.53-.05-.59-.09-.11-.08-.21-.15-.29-.23-.04-.04-.23-.69-.32-.92-.08-.22-.09-.44-.09-.64.01-.42.1-.84.17-1.25.02-.09.06-.18.13-.25.24-.26.33-.56.37-.88,0-.05.04-.1-.03-.18-.12-.13.14-.97.24-1.05.26-.2.45-.42.69-.62.03-.03.02-.08.13-.07.27.03.28-.06.34-.12.08-.09.18-.17.31-.24.07-.03.22-.02.35-.02.11,0,.43.19.46.22.08.1.26.14.39.2.05.02.11.05.14.07.07.05.46.9.45.96,0,0-.06.23-.1.46-.05.23-.09.47-.09.53,0,.06-.07.08-.13.12-.03.02-.1.72-.11.75-.08.12-.04.28-.3.35-.05.01-.05.04-.06.07-.05.24-.21.45-.34.68-.07.11-.07.24-.11.36,0,.02-.04.04-.06.06-.02.02-.06.04-.07.07-.05.3-.3.56-.3.86,0,.07-.32.35-.32.44,0,.05-.33.14-.29.19Z"/><g class="cls-5"><path class="cls-4" d="M253.15,249.9c.03.14-.19.09-.55-.05-.11-.05-.42-.25-.44-.3-.05-.11-.11-.21-.13-.3-.02-.06.12-.68.15-.9.03-.22.11-.4.2-.57.18-.35.36-.7.53-1.05.04-.08.1-.14.18-.19.27-.16.43-.41.53-.69.02-.05.05-.08,0-.17-.07-.15.37-.79.48-.83.28-.11.5-.25.75-.38.04-.02.03-.07.13-.04.24.08.25,0,.31-.06.08-.07.17-.14.29-.18.06-.02.2.01.33.03.11.02.4.24.43.27.07.1.24.17.36.24.04.03.1.06.13.09.08.05.23.94.18,1,0,0-.1.23-.21.46-.1.23-.21.47-.23.53-.01.06-.09.07-.15.09-.03,0-.3.72-.35.73-.13.1-.16.26-.43.25-.05,0-.06.03-.08.05-.15.21-.39.36-.6.52-.11.08-.18.2-.27.29-.02.02-.05.02-.08.03-.03.01-.07.02-.09.04-.19.24-.47.42-.62.7-.03.06-.41.21-.44.29-.02.04-.33.01-.32.07Z"/></g><path class="cls-1" d="M115.91,217.07s2.86-1.32,2.3,1.03-.85,3.67-.56,4.05,1.65,2.07.64,3.67c-1.01,1.6.61,7.36-1.94,5.8-2.55-1.56-5.13,1.99-6.22,2.3s-1.97-.24-1.22-2.57,1.22-4.3,1.22-4.3l-6.31.28s-.08-2.18,1.33-2.49c1.41-.31,4.6-1.07,4.6-1.07,0,0-3.87-4.61-3.68-5.94.2-1.33.57-1.48,1.23-1.78.66-.29,4.62,2.42,4.62,2.42,0,0,2.37,1.01,2.93.16s1.07-1.55,1.07-1.55Z"/><path class="cls-4" d="M111.63,228.19c-.2.82-.61,1.73-.98,2.59l-.19.48-.12.32c-.08.21-.15.41-.21.6-.04.13-.03.1-.05.14l-.03.07s-.03.09-.03.14c-.01.1.03.22.12.3.04.04.09.07.14.08.09.01.19-.05.25-.13l.23-.27c.38-.5.75-1.09,1.14-1.69l.33-.52.5-.7c.17-.23.36-.4.53-.6.19-.14.37-.34.58-.4.91-.39,1.64.71,2.36,1.53.5.61.9,1.11,1.35,1.59.2.22.43.45.71.56.14.05.3.07.42-.03.12-.09.16-.25.17-.4,0-.2-.05-.38-.1-.55l-.08-.24c-.04-.1-.08-.34-.13-.51l-.3-1.1-.16-.55c-.05-.19-.01-.42-.04-.62,0-.51,0-.52.54-.32.25.11.74.22,1.05.5.34.27.69.62.92,1.07.23.44.35.65.68,1.61.28.82.2,1.62.04,2.24-.19.61-.58,1.07-1.15,1.44-.6.31-1.23.35-1.85.15-.63-.18-1.28-.64-1.85-1.19-.14-.14-.28-.28-.41-.43l-.24-.28-.41-.52-.39-.52-.18-.26c-.05-.07-.15-.21-.13-.2-.02-.08-.06-.18-.12-.3-.04-.06-.09-.18-.16-.15-.06.02-.11.07-.16.12-.05.05-.09.11-.14.18l-.08.13-.18.33-.74,1.37-.21.35c-.07.12-.13.22-.26.4l-.35.49-.42.45c-.8.85-1.97,1.07-2.92.54-.46-.3-.83-.7-1.07-1.19-.2-.5-.29-1.07-.22-1.65,0-.29.1-.57.15-.86.06-.24.12-.41.18-.62l.21-.56c.08-.19.15-.39.17-.42l.3-.66c.07-.2.17-.42.21-.64-.19-.04-.4.03-.61.05l-.79.12c-.49.07-1.05.14-1.59.18-.29.02-.5.03-.88.03-.37,0-.74-.02-1.08-.1-.69-.12-1.33-.42-1.69-1-.12-.18-.18-.4-.22-.6-.16-.93.1-1.92.89-2.59.2-.16.38-.35.62-.47.22-.14.49-.3.67-.37.37-.18.74-.32,1.12-.44.37-.12.72-.23,1.1-.3,1.38-.24,1.84-.05,2.15.61.07.15.16.29.2.44.13.49-.37.95-1.23,1.18-.88.26-1.78.54-2.44.91-.12.13-.03.17,0,.18.03,0,.04-.01.04-.01-.1,0,.26,0,.46-.03l.73-.09c.27-.03.44-.08.81-.12l1.6-.27c1.05-.2,2.1-.26,2.31.28l.09.18.05.1.03.06h0c-.17.16.23-.2.19-.16h0s0,0,0,0h0s.02.03.02.03c.08.11.19.19.24.33.04.15.12.27.13.46l-.05.61s0,.05,0,.07l-.08.04Z"/><path class="cls-4" d="M104.95,218.88c-.11-.36-.18-.73-.27-1.08.01-.34-.04-.7.05-1.02.11-.65.54-1.17,1.01-1.59.19-.12.38-.22.59-.27.49-.14,1.04-.12,1.63.07.49.16,1.06.46,1.34.63.29.18.56.36.83.55.54.37,1.03.8,1.52,1.21.42.38.91.68,1.31,1.08.52.5,1.09.98,1.37,1.77.08.28-.06.25-.3.21-.23-.05-.71,0-1.06-.17l-.96-.41c-.16-.07-.33-.13-.48-.2l-.43-.27c-.57-.37-1.15-.72-1.68-1.17-.31-.27-.67-.48-1.04-.65l-.3-.13-.21-.08c-.12-.05-.26-.11-.41-.07-.21.12-.31.37-.27.63.03.12.05.27.1.39.07.2.23.47.36.7.43.71.96,1.42,1.59,2.02.49.47,1.08.8,1.65,1.15.12.08.26.14.38.22.24.12.28.36.31.51.03.17-.02.37-.12.61-.04.11-.07.22-.11.31-.12.28-.55.5-1.06.42-1.36-.4-2.4-1.33-3.38-2.35-.36-.39-.7-.8-1.01-1.26-.16-.22-.31-.47-.46-.72-.08-.12-.15-.25-.22-.39-.07-.15-.22-.41-.3-.61l.06-.02Z"/><path class="cls-4" d="M122.53,225.28c-.38-.15-.76-.38-1.19-.45-.44-.08-.88-.16-1.32-.34l-.76-.28c-.37-.16-.77-.3-1.09-.51-.33-.21-.62-.44-.84-.73-.1-.15-.2-.31-.25-.49l-.03-.14h0c.06-.03-.08.03-.07.02h0s0-.01,0-.01h0s-.01-.04-.01-.04l-.03-.05c-.04-.07-.06-.16-.09-.24-.14-.53-.05-1.03.16-1.54.1-.25.26-.5.41-.75.07-.12.16-.24.25-.36l.23-.29c.55-.68,1.06-1.29,1.39-1.89.17-.28.29-.63.32-.8.04-.16.03-.35-.04-.52-.07-.25-.34-.44-.61-.36-.12.03-.23.07-.34.13-.06.03-.1.06-.17.11-.09.07-.18.12-.27.2-.35.29-.7.62-1.01.98-.39.47-.76.97-1.15,1.45-.21.23-.36.51-.61.72-.25.21-.51.43-.75.67-.32.28-.39.22-.5-.23-.06-.23-.14-.55-.22-.95-.03-.2-.09-.44-.07-.64.04-.2.08-.4.18-.59.52-1.21,1.35-2.2,2.4-3.11.14-.11.26-.23.42-.33l.59-.4.77-.35c.26-.1.52-.13.78-.19.26-.04.51,0,.77,0,.24.06.5.1.72.23.46.23.78.65,1.08,1.04.27.52.46,1.08.46,1.68,0,.34-.02.74-.08,1.01-.06.28-.14.54-.22.79-.18.5-.4.93-.62,1.34-.23.41-.46.79-.7,1.15l-.33.5-.12.16c-.08.12-.24.28-.16.43.04.16.18.26.33.35.09.05.13.07.26.13l.61.24c.42.14.83.37,1.26.56.54.2,1.09.39,1.64.64l.41.19c.17.08.37.18.55.29.36.21.71.44.97.72.46.44.75,1,.79,1.6.03.4-.06.82-.28,1.17-.22.34-.54.6-.9.8-.35.21-.77.33-1.19.43-.21.06-.43.08-.64.11-.2.03-.35.04-.52.06-1.41.11-2.77.17-4.17.03-.31-.03-.62-.05-.93-.11-1.15-.25-1.51-.69-1.36-1.51.03-.19.06-.38.12-.55.25-.56.76-.86,1.42-.82,1.02.07,2.11.14,3.17.18.53.02,1.06.02,1.54-.01l.34-.03s0,0,0,0h0s0,0,.03,0c0,0,.02-.02.01-.04-.02-.02.03,0-.06-.05-.21-.11-.45-.22-.69-.33l.02-.06Z"/><path class="cls-2" d="M402.54,160.22c-.27-.58-3.18.04-2.99,3.26.19,3.21.45,4.91,0,6.23s-.65,1.69.48,2.26c1.13.56-.22,2.78.84,3.86s2.64-1.88,2.64-1.88l4.8,3.2-2.45-6.96s6.7-2.41,6.39-3.77-2.62-2.34-2.62-2.34l-5.55,1.49-1.53-5.33Z"/><path class="cls-4" d="M397.19,170.66c-.68.51-1.57.95-2.4,1.37l-.45.24-.29.17c-.2.11-.37.22-.54.33-.12.08-.09.05-.12.07l-.06.04s-.08.06-.12.09c-.07.07-.12.19-.1.3,0,.05.02.11.06.15.06.07.18.08.27.06l.35-.07c.61-.14,1.27-.36,1.95-.57l.59-.19.84-.22c.28-.07.53-.08.79-.13.24.02.5-.03.7.06.95.28.81,1.6.84,2.69,0,.79-.02,1.43.03,2.09,0,.24.03.5.12.73.07.22.26.46.52.4.12-.02.2-.11.28-.2.12-.15.2-.33.27-.49l.09-.24c.04-.11.15-.32.22-.48l.47-1.04.23-.53c.08-.17.26-.33.36-.5.32-.39.33-.4.62.1.12.24.43.64.49,1.06.09.42.13.92.02,1.41-.07.32-.13.59-.25.95-.06.13-.08.28-.12.42l-.18.4-.18.4-.24.33-.24.33-.27.26c-.18.19-.37.31-.56.42-.39.24-.78.27-1.24.34-.88-.05-1.61-.52-2.03-1.27-.22-.38-.38-.85-.47-1.34-.04-.25-.09-.5-.11-.76-.03-.25-.04-.56-.04-.66,0-.59.02-1.15.06-1.7.02-.37.04-.31.06-.39.02-.06.04-.13.06-.22,0-.07.04-.2-.02-.22-.06-.02-.13-.02-.2,0-.07,0-.15.03-.22.05l-.15.05-.34.14-1.44.59-.39.14c-.13.05-.24.09-.46.14l-.59.15-.61.07c-1.16.14-2.2-.43-2.59-1.45-.16-.53-.19-1.07-.07-1.6.17-.52.46-1.01.89-1.41.19-.22.44-.38.66-.57.2-.15.35-.24.53-.36l.52-.3c.18-.09.36-.2.4-.21.28-.14.59-.27.9-.45.08-.05.16-.09.23-.14.03-.03.09-.05.1-.09-.02-.04-.06-.06-.09-.08-.13-.09-.27-.17-.42-.26l-.69-.41c-.43-.26-.9-.56-1.34-.88-.24-.17-.41-.3-.7-.54-.28-.24-.55-.49-.77-.77-.45-.54-.75-1.17-.67-1.84.02-.26.16-.5.3-.71.12-.24.3-.42.48-.61.4-.33.87-.61,1.43-.67.27-.07.56-.03.85-.05.29.05.61.07.88.14.46.11.88.24,1.29.41.36.14.7.28,1.04.47,1.22.7,1.45,1.14,1.27,1.84-.04.16-.07.33-.13.46-.21.46-.89.49-1.7.12-.61-.27-1.22-.52-1.8-.69l-.42-.12c-.13-.02-.31-.07-.29-.05-.04.02-.06.04-.07.06-.04.1.06.11.04.1-.08-.06.21.16.38.27l.62.4.33.2.17.1c.06.03.08.06.23.15l1.41.82c.94.52,1.78,1.15,1.56,1.7l-.04.2-.03.12v.02s0,0,0,0h0c-.23.01.31,0,.25,0h0s0,.03,0,.03v.05c-.02.14.04.26-.04.41-.08.15-.05.29-.22.44-.15.15-.27.3-.44.44l-.08-.02Z"/><path class="cls-4" d="M397.99,159.22c.35-.81.76-1.6,1.45-1.95.15-.13.33-.17.51-.23.18-.06.35-.12.55-.12.19,0,.37-.06.56-.03.19.04.36.08.52.15.46.2.88.57,1.21,1.09.28.43.52,1.03.63,1.34.11.32.2.64.29.95.18.63.28,1.27.39,1.9.08.56.27,1.1.32,1.67.08.72.21,1.45-.07,2.24-.12.26-.21.15-.37-.03-.15-.19-.54-.46-.71-.8l-.48-.93c-.08-.15-.17-.31-.24-.46l-.16-.48c-.2-.65-.42-1.29-.54-1.97-.07-.41-.21-.8-.39-1.16l-.15-.29-.1-.2c-.07-.15-.21-.36-.42-.32-.19,0-.35.14-.47.31-.06.11-.13.24-.17.37-.08.2-.12.5-.17.76-.12.82-.17,1.71-.07,2.57.08.67.32,1.31.54,1.93.05.14.11.27.15.41.1.25-.02.46-.09.6-.09.15-.25.27-.48.39-.1.06-.19.12-.28.16-.27.14-.74.03-1.09-.35-.79-1.18-1-2.56-1.1-3.97-.03-.53-.02-1.06.02-1.62.01-.27.06-.56.1-.84.02-.14.05-.29.08-.44.04-.16.09-.46.16-.66l.06.02Z"/><path class="cls-4" d="M407.44,175.37c-.19-.36-.34-.77-.63-1.11-.28-.34-.58-.68-.8-1.1l-.41-.7c-.18-.36-.4-.72-.51-1.09-.12-.37-.2-.74-.18-1.1.02-.18.04-.37.12-.54l.06-.13h0c.06.02-.08-.03-.07-.03h0s0-.01,0-.01h0s0-.04,0-.04v-.06c.03-.08.07-.16.1-.24.23-.49.62-.83,1.11-1.08.24-.13.52-.22.79-.32.13-.05.28-.08.42-.12l.36-.08c1.14-.22,2.18-.43,2.86-.85.18-.12.22-.15.31-.25.08-.09.14-.2.18-.31.1-.24.01-.55-.24-.66-.1-.05-.22-.09-.34-.11-.06-.02-.12-.02-.2-.02-.11,0-.22-.03-.33-.02-.46,0-.93.03-1.4.12-.6.11-1.2.27-1.81.38-.31.05-.6.16-.93.16-.33,0-.67,0-1,.04-.43.02-.44-.08-.24-.5.1-.21.24-.51.44-.87.1-.17.21-.39.36-.54.15-.13.32-.26.51-.34.67-.33,1.37-.59,2.11-.7.74-.13,1.5-.2,2.34-.15.16.03.58.01.86.12.3.1.64.13.9.3.27.14.55.27.75.48.23.18.41.41.56.66.52,1.04.28,2.35-.45,3.28-.21.26-.49.55-.71.72-.22.18-.45.33-.68.47-.45.27-.9.46-1.34.64-.44.17-.86.31-1.27.44l-.57.17-.2.05c-.13.04-.36.06-.39.23-.07.15-.03.32.03.47.04.09.05.14.12.27l.31.57c.23.38.4.81.61,1.23.28.5.59.99.85,1.53l.2.41c.08.17.17.38.24.57.15.39.26.79.29,1.18.07.63-.06,1.25-.41,1.74-.24.33-.57.59-.96.72-.39.12-.8.12-1.2.04-.4-.07-.8-.24-1.19-.42-.2-.09-.38-.21-.57-.32-.18-.11-.3-.19-.44-.29-1.16-.82-2.24-1.64-3.23-2.63-.22-.22-.45-.43-.64-.68-.73-.93-.72-1.5-.08-2.03.15-.12.29-.26.45-.35.55-.27,1.13-.18,1.62.28.74.7,1.53,1.46,2.33,2.16.4.35.8.69,1.2.98l.28.2s0,0,0,0h0s0,0,.02.02c0,0,.03,0,.03-.02,0-.03.03.02-.01-.08-.09-.22-.2-.46-.33-.69l.05-.03Z"/><path class="cls-4" d="M257.46,194.2c1.09,3.07,3.24,5.83,6.25,7.2s6.63,1.12,9.46-.84c.66-.46.97-1.31.54-2.05-.38-.66-1.38-1-2.05-.54-1.05.73-2.29,1.27-3.42,1.34s-2.22-.12-3.17-.57c-2.22-1.05-3.89-3.01-4.71-5.34-.27-.76-1.02-1.27-1.85-1.05-.74.2-1.32,1.08-1.05,1.85h0Z"/><path class="cls-4" d="M282.07,202.02c-.15.07-.3.14-.45.21.19-.08-.24.09-.23.08-.28.1-.57.19-.86.27-.25.07-.51.12-.76.16-.11.02-.09.02.06,0-.07,0-.13.01-.2.02-.11,0-.22.02-.33.02-.26.01-.51,0-.77-.01-.06,0-.46-.07-.09,0-.12-.02-.24-.04-.36-.07-.21-.05-.42-.1-.63-.17-.04-.01-.4-.15-.2-.07s-.15-.07-.19-.09c-.19-.1-.37-.2-.55-.32-.1-.06-.19-.13-.29-.2.29.19,0,0-.06-.05-.18-.15-.35-.32-.51-.49-.07-.07-.13-.15-.2-.22-.03-.03-.27-.33-.15-.18s-.08-.11-.1-.14c-.07-.1-.14-.21-.2-.31-.13-.21-.25-.44-.37-.66-.06-.12-.11-.23-.16-.35.11.24-.01-.03-.05-.13-.1-.25-.18-.51-.25-.76-.23-.78-1.05-1.27-1.85-1.05s-1.28,1.07-1.05,1.85c.69,2.32,2.13,4.58,4.38,5.65,2.61,1.24,5.41.8,7.95-.4.73-.35.92-1.4.54-2.05-.44-.75-1.32-.89-2.05-.54h0Z"/><path class="cls-4" d="M272.53,181.97c-1.95-2.27-4.67-3.9-7.58-4.59-.83-.19-1.8.26-2,1.13-.19.83.25,1.79,1.13,2,.65.15,1.27.36,1.89.6.21.08,0-.03-.08-.04.08,0,.18.08.25.11.15.07.3.14.45.22.3.15.58.31.87.48.27.16.53.33.78.52.07.05.15.11.22.16.17.12,0,.01-.07-.05.11.12.26.21.38.31.52.44,1,.92,1.44,1.44.56.65,1.74.61,2.3,0,.63-.69.59-1.61,0-2.3h0Z"/><path class="cls-4" d="M281.01,187.78c.3,0,.59.01.89.04.14.01.28.02.41.04.08,0,.16.02.24.03-.24-.03-.26-.04-.08,0,.55.09,1.09.2,1.62.35.27.08.53.16.79.25.15.05.3.11.44.17.1.04.44.13.05.02.54.15,1.1.53,1.57.82.73.44,1.82.19,2.22-.58s.19-1.75-.58-2.22c-2.28-1.37-4.91-2.11-7.57-2.14-.85,0-1.66.75-1.62,1.62s.71,1.62,1.62,1.62h0Z"/><path class="cls-4" d="M251.39,215.18c.04,2.87,1.71,5.68,4.29,6.99.76.38,1.8.23,2.22-.58.39-.74.23-1.81-.58-2.22-.22-.11-.43-.23-.64-.37-.05-.03-.09-.06-.14-.09-.04-.03-.27-.2-.03-.02.21.17.05.04,0,0-.05-.04-.11-.09-.16-.13-.19-.16-.36-.34-.53-.52-.08-.09-.16-.19-.24-.28-.13-.15.21.29.1.13-.04-.06-.08-.11-.12-.17-.13-.19-.26-.39-.37-.6-.06-.11-.12-.22-.17-.33-.03-.06-.06-.13-.09-.19-.08-.18.13.35.07.16-.17-.48-.31-.96-.38-1.47l.06.43c-.03-.25-.05-.49-.05-.74-.01-.85-.74-1.66-1.62-1.62s-1.64.71-1.62,1.62h0Z"/><path class="cls-4" d="M273.22,203.96c-.19.81-.46,1.63-.58,2.48-.04.31-.02.62-.05.93-.15,1.09-.3,2.22-.29,3.36.01.5.09,1,.16,1.5.12.63.27,1.25.24,1.94-.01.22-.27.28-.62.21-.34-.07-.84-.26-1.07-.61-.38-.62-.71-1.27-.96-1.95-.16-.7-.25-1.42-.21-2.15.03-.87-.13-1.75-.13-2.63.04-.97.12-1.93.3-2.88.1-.58.26-1.16.39-1.73.21-.87.5-1.71.71-2.56.15-.67.16-1.37.26-2.06.02-.16.05-.3.1-.44.11-.26.23-.41.43-.47.24-.04.5,0,.86.09.16.04.32.07.47.12.25.08.45.22.64.4.18.18.38.42.39.63.13.64.1,1.22,0,1.77-.08.56-.23,1.09-.36,1.64-.21.8-.43,1.61-.6,2.43h-.08Z"/><path class="cls-4" d="M318.65,144.97c.14.22-.15.39-.67.54-.17.05-.67.02-.74-.04-.14-.12-.27-.25-.37-.37-.05-.08-.31-1.25-.44-1.64-.12-.38-.15-.76-.17-1.15-.04-.78-.12-1.55-.19-2.32-.02-.17,0-.34.04-.52.14-.59.1-1.19,0-1.77-.02-.1-.01-.2-.12-.29-.17-.15-.36-1.73-.31-1.95.13-.53.2-1.05.33-1.58.02-.08-.03-.15.09-.23.27-.18.21-.34.22-.5.01-.23.07-.46.15-.69.04-.12.19-.24.3-.36.1-.11.48-.1.53-.07.13.09.31-.02.46-.04.05,0,.12-.02.17-.02.08,0,1.09,1.21,1.07,1.36,0,.02.12.5.24,1,.09.51.19,1.04.22,1.14.03.11-.03.23-.06.35,0,.05.26,1.58.25,1.64-.02.32.08.64-.15.97-.05.06-.03.13-.03.19.04.55-.05,1.1-.11,1.65-.03.28,0,.56,0,.84,0,.05-.04.1-.05.15-.02.06-.05.13-.05.19.01.66-.12,1.32-.05,1.98.02.15-.26.87-.24,1.05.01.1-.35.41-.3.5Z"/><path class="cls-4" d="M324.85,149.03c-.01.23-.33.11-.83-.17-.16-.09-.55-.46-.57-.55-.04-.18-.07-.36-.07-.52,0-.09.54-1.11.76-1.46.19-.35.46-.62.74-.87.59-.49,1.18-.99,1.85-1.4.15-.09.31-.16.48-.18.61-.08,1.12-.34,1.66-.58.09-.04.19-.06.24-.2.08-.27,1.65-.7,1.88-.63.55.13,1.08.2,1.59.33.07.02.15-.03.22.11.17.33.32.28.47.3.21.03.42.1.63.22.1.06.2.25.29.4.08.14.01.62-.02.68-.09.15-.03.38-.03.59,0,.07,0,.16,0,.21,0,.06-.27.31-.53.55-.26.25-.51.5-.56.5-.03-.03-1.36.37-1.49.49-.07.05-.17-.01-.26-.05-.05-.03-1.02.5-1.06.51-.23.02-.39.22-.71.01-.06-.04-.1-.01-.14,0-.35.16-.77.19-1.17.29-.21.05-.37.17-.56.26-.03.02-.09,0-.13,0-.05,0-.11,0-.15.02-.41.25-.92.4-1.25.77-.08.07-.7.2-.77.32-.05.05-.5-.06-.5.04Z"/></svg>