<?xml version="1.0" encoding="UTF-8"?><svg id="Layer_1" xmlns="http://www.w3.org/2000/svg" width="520" height="520" viewBox="0 0 520 520"><defs><style>.cls-1{opacity:.2;}.cls-1,.cls-2,.cls-3{fill:#0056FF;stroke-width:0px;}.cls-2,.cls-4{opacity:.3;}.cls-5{opacity:.25;}.cls-6{opacity:.45;}</style></defs><path class="cls-3" d="M298.13,451.77c.09-.42-6.03.13-6.1,1.71-.1,2.15,14.18,5.23,16.88,4.4,2.7-.83-6.79-3.04-6.79-3.04l-3.99-3.07Z"/><path class="cls-3" d="M211.71,456.87s5.02-.29,6.18,1.31c1.51,2.09-15.66,6.96-18.43,6.15-1.29-.38,7.1-4.35,7.1-4.35l5.14-3.11Z"/><path class="cls-3" d="M277.9,157.79c-.17.36-.42.67-.69.93-.02.02-.04.04-.06.07l-.43.52-.52-.12c-.13-.03-.26-.05-.37-.12-.51-.32-.71-.81-.8-1.21-.04-.18-.1-.35-.14-.54-.07-.22-.11-.52.13-.7.08-.06.38.09.73.24.17.07.34.14.47.18.13.04.23.05.23.05.05,0,.08-.03-.03.14-.05.12.05.03.03.06v.02s-.82.33-.82.33c.06-.04.13-.1.19-.18.04-.06.08-.13.1-.21.02-.11.06-.25-.02-.35-.06-.08-.26-.08-.39-.05-.03,0-.08.03-.09.03-.06.01.06-.09.52-.58l.31-.34c.35-.39.69-.64.92-.6.65.12.95.72,1,1.25.04.41-.05.81-.18,1.19h-.05Z"/><path class="cls-3" d="M302.46,257.87c.83-.5,1.52-1.06,2.13-1.79.21-.27.38-.57.58-.86.73-1,1.3-2.17,1.73-3.4.2-.55.31-1.12.45-1.68.08-.36.16-.73.24-1.09.08-.37.19-.73.4-1.07.13-.22.24-.16.42.07.09.12.2.28.32.48.1.19.14.41.13.63-.04,1.57-.43,3.14-1.14,4.62-.43.87-.77,1.84-1.33,2.7-.63.93-1.43,1.76-2.33,2.43-.55.4-1.12.74-1.68,1.08-.86.51-1.76.93-2.64,1.37-.68.34-1.33.74-2.06,1.06-.16.07-.32.14-.48.2-.63.2-.9.11-1.09-.3-.04-.09-.1-.18-.12-.28-.09-.33.1-.62.46-.81,1.19-.65,2.28-1.24,3.42-1.86.86-.5,1.75-.98,2.57-1.51l.03.04Z"/><path class="cls-3" d="M246.05,230.88c.5-.09.98-.23,1.46-.39.48-.14.95-.32,1.42-.54.33-.17.62-.39.94-.59,1.12-.7,2.15-1.64,3.04-2.73.39-.49.73-1.01,1.04-1.55.21-.34.38-.7.6-1.04.22-.33.44-.64.69-1.01.15-.21.2-.15.21.09,0,.24.03.69-.08,1.16-.54,1.59-1.34,3.14-2.51,4.45-.71.76-1.42,1.61-2.29,2.28-.96.73-2.05,1.29-3.19,1.63-.7.22-1.41.38-2.11.5-1.07.18-2.14.28-3.2.34-.82.03-1.62.22-2.42.2-.18,0-.35.03-.53.02-.66,0-.87-.13-1.01-.55-.03-.1-.07-.19-.09-.28-.06-.32.21-.59.68-.72,1.42-.42,2.86-.74,4.27-.89,1.05-.09,2.08-.2,3.07-.44l.02.05Z"/><path class="cls-3" d="M248.3,231.61c.25-.13.49-.26.73-.39.09-.06.16-.1.25-.16.31-.17.63-.34.93-.52.13-.08.26-.17.39-.26.16-.12.32-.24.5-.33.11-.06.14.25-.03.41-.31.27-.62.53-.97.74-.21.13-.4.3-.6.46-.22.16-.45.32-.67.48-.14.1-.28.2-.42.29-.21.15-.42.29-.62.45-.15.13-.28.29-.41.44-.03.03-.05.07-.09.1-.12.11-.19.1-.35-.06l-.11-.11c-.11-.13-.14-.28-.08-.39.2-.32.5-.54.8-.75.24-.14.48-.28.72-.41h.01Z"/><path class="cls-3" d="M247.55,229.66c.95-.4,1.84-.93,2.65-1.59.29-.24.53-.55.82-.82,1-.96,1.94-2.12,2.92-3.26.46-.49.9-1.01,1.37-1.5.59-.65,1.38-1.13,2.21-1.43.26-.09.28.02.19.28-.1.25-.24.73-.48,1.13-.4.74-.86,1.35-1.33,2.02-.44.68-1,1.31-1.59,1.95-.71.76-1.28,1.72-2.06,2.55-.84.92-1.89,1.67-2.98,2.25-.67.37-1.37.65-2.07.91-1.07.39-2.17.63-3.25.87-.84.19-1.66.46-2.51.62-.19.04-.37.09-.56.11-.7.08-.94-.08-1.09-.68-.04-.14-.08-.27-.1-.41-.07-.47.2-.86.67-1,1.39-.45,2.8-.68,4.19-1.03,1.02-.26,2.03-.57,2.96-1.02l.03.05Z"/><path class="cls-1" d="M295.98,236.64c0,7.42-6.16,13.44-13.77,13.44-7.89,0-14.48-7.05-13.7-14.76.67-6.67,6.86-12.12,13.7-12.12,7.6,0,13.77,6.02,13.77,13.44Z"/><g class="cls-5"><path class="cls-3" d="M319.49,457.96c-2.67-.37-5.32-.86-7.94-1.54-.96-.24-1.92-.45-2.87-.78-1.66-.58-3.31-1.23-4.83-2.25-1.57-1-2.79-2.42-3.71-3.95-.8-1.37-1.43-2.83-1.83-4.33-.27-.96-.38-1.96-.43-2.96-.11-1,.25-1.99.43-2.94.15-.59.18-.5.27.02.05.26.11.62.27,1.05.07.21.16.44.26.68.05.12.08.24.15.36.01.12.05.25.07.38.14.92.39,1.81.67,2.67.24.87.53,1.73.92,2.54.76,1.62,1.81,3.11,3.16,4.24,1.64,1.33,4.02,2.04,6.26,2.66,2.5.68,5.08,1.16,7.68,1.51,1.6.21,3.21.37,4.83.47,2.44.15,4.91.21,7.33.02,1.88-.15,3.69-.56,5.41-1.08.37-.13.73-.26,1.08-.4,1.31-.48,1.72-.37,2.34-.05.14.08.31.13.43.2.21.13.25.36.1.72-.08.19-.2.4-.38.6-.18.22-.41.42-.69.6-.82.56-1.73.84-2.61,1.11-.89.27-1.8.45-2.71.6-1.82.29-3.66.39-5.5.4-2.73,0-5.45-.2-8.15-.52v-.06Z"/></g><path class="cls-3" d="M297.01,447.15c-.07-.91.05-1.83.28-2.69.08-.32.13-.64.24-.94.43-1.06,1.03-2.01,1.77-2.83.33-.36.66-.71,1-1.04.4-.47.99-.75,1.6-.89.19-.05.21.05.17.27-.05.21-.11.6-.25.91-.11.29-.29.48-.46.68-.17.2-.33.41-.48.62-.3.43-.63.83-.98,1.24-.41.51-.57,1.18-.74,1.81-.19.69-.28,1.41-.28,2.14,0,.45.03.91.12,1.35.13.67.33,1.36.69,1.95.27.46.69.82,1.08,1.16.08.08.19.13.26.22.27.32.29.49.06.9-.05.09-.1.19-.16.28-.19.29-.53.38-.91.22-1.1-.5-1.86-1.57-2.36-2.68-.38-.84-.59-1.75-.69-2.67h.05Z"/><path class="cls-3" d="M295.94,445.41c.02-.6.15-1.19.28-1.77.04-.21.04-.42.1-.63.22-.72.5-1.41.82-2.07.13-.29.24-.6.37-.88.17-.37.33-.75.66-1.03.1-.09.3.04.48.25.17.21.36.51.33.72-.07.37-.08.75-.21,1.08-.12.34-.26.67-.42,1.01-.21.41-.17.88-.22,1.33-.06.49-.09.99-.1,1.49-.01.31-.02.62,0,.93.04.47.08.94.24,1.38.13.34.4.62.61.91.04.06.11.12.15.18.15.24.05.39-.44.71l-.33.22c-.38.23-.77.28-1,.1-.71-.5-1.04-1.29-1.2-2.1-.13-.6-.16-1.21-.17-1.82h.05Z"/><g class="cls-5"><path class="cls-3" d="M188.39,461.89c2.58-.37,5.15-.9,7.67-1.6.92-.25,1.81-.58,2.72-.87,1.6-.5,3.18-1.07,4.68-1.76,1.48-.69,2.99-1.5,4.05-2.56.26-.24.4-.46.6-.75.18-.31.35-.63.5-.96.3-.66.54-1.34.71-2.03.46-1.81.39-3.6.29-5.5,0-.62-.01-.55.4-.15.19.21.59.49.81.93.26.43.46.98.57,1.59.27,2.19-.19,4.38-1.05,6.38-.11.25-.23.5-.35.74-.11.24-.34.55-.51.81-.39.5-.8.93-1.25,1.27-.89.68-1.82,1.23-2.77,1.67-2.26,1.07-4.57,2.13-6.94,2.91-2.61.84-5.27,1.47-7.95,1.96-1.65.31-3.31.53-4.98.72-2.53.27-5.08.38-7.62.32-1.97-.05-3.94-.1-5.93-.55-.44-.09-.87-.19-1.31-.35-.81-.27-1.31-.61-1.6-.89-.27-.34-.35-.64-.31-1,.02-.16.01-.34.06-.48.18-.47.9-.46,1.88-.16,2.92.91,6.37,1.08,9.83.99,2.58-.07,5.2-.33,7.79-.76v.06Z"/></g><path class="cls-3" d="M210.27,450.59c-.03-.74-.21-1.49-.54-2.19-.13-.24-.29-.48-.43-.72-.48-.88-1.26-1.65-2.25-2.12-.44-.21-.91-.33-1.39-.41-.62-.09-1.25-.1-1.9-.06-.2.01-.2-.05-.05-.19.15-.13.44-.37.84-.48.7-.19,1.45-.27,2.19-.17.74.11,1.46.37,2.1.78.75.5,1.55,1.03,2.15,1.77.64.81,1.02,1.79,1.24,2.77.14.61.19,1.23.19,1.85,0,.94-.2,1.85-.46,2.71-.19.67-.32,1.35-.55,2.01-.05.14-.08.29-.15.43-.26.5-.52.56-1.03.38-.12-.04-.24-.07-.35-.12-.38-.17-.56-.53-.54-.94.15-1.16.49-2.16.66-3.14.18-.72.28-1.42.2-2.16h.05Z"/><path class="cls-3" d="M210.88,448.78c.03-.37.04-.75,0-1.13,0-.14-.06-.27-.07-.41-.04-.5-.12-1.02-.31-1.5-.08-.22-.2-.41-.33-.6-.17-.24-.36-.45-.48-.73-.08-.17.53-.44.86-.21.5.43.94.97,1.16,1.61.13.38.37.73.52,1.11.16.43.22.88.28,1.32.03.28.05.55.06.83.02.42-.02.83,0,1.25.01.32.1.65.12.99,0,.07.03.15.02.22-.03.27-.17.33-.67.26l-.34-.05c-.38-.08-.67-.25-.75-.42-.23-.53-.26-.98-.2-1.45.04-.35.09-.72.09-1.08h.04Z"/><path class="cls-3" d="M211.96,226.84s20.76,4.01,23.4,4.61c2.64.59,15.81,2.51,15.81,2.51,0,0-3.61,6.74-1.9,12.67,1.71,5.93,6.75,11.77,10.82,13.65s19.9,4.85,19.9,4.85c0,0-.6.6-.03,3.14s5.76,7.61,9.37,7.53,4.86,1.17,6.82,6.22,16.15,42.84,16.15,42.84c0,0,30.34,70.09,32.6,77.24,2.26,7.15,4.51,18.47,2.25,21.56-2.25,3.09-12.04,10.44-21.45,13.45-9.41,3.01-32.75,5.8-42.16,3.65s-18.53-3.05-20.37-8.53c-1.84-5.48-7.68-28.26-7.68-28.26l-3.22-36-3.11-33.38s-2.16-10.51-2.15-9.57-2.54,21.98-2.54,21.98c0,0-4.61,60.36-4.98,65.26s-1.13,21.27-5.27,26.16-11.86,5.49-13.18,5.85-26.73.79-34.45-1.03-26.81-7.89-30.14-12.09-5.15-19.28-5.15-19.28l13.25-48.11,11.4-41.16,19.98-55.26,12.48-32.13,3.54-8.39Z"/><g class="cls-4"><path class="cls-3" d="M295.41,212.57c1.49,1.44,2.76,3.07,3.98,4.6.45.57.95,1.09,1.39,1.67,1.56,2.03,3.03,4.15,4.39,6.34.6.97,1.23,1.93,1.8,2.91.71,1.27,1.49,2.54,1.71,4.03.09.45-.09.46-.48.22-.2-.12-.46-.29-.76-.51-.14-.11-.31-.22-.45-.36-.13-.14-.25-.3-.35-.47-.37-.61-.75-1.22-1.14-1.82-.36-.62-.73-1.22-1.11-1.83-.75-1.22-1.55-2.42-2.34-3.65-.95-1.47-2.2-2.81-3.34-4.2-1.28-1.52-2.49-3.1-3.84-4.48-.82-.87-1.71-1.67-2.64-2.4-1.42-1.1-2.96-2.09-4.63-2.69-1.29-.49-2.65-.68-3.99-.76-.29-.03-.59,0-.88-.03-1.1-.07-1.44-.18-1.68-.82-.05-.14-.13-.29-.16-.43-.12-.48.37-.86,1.28-.97,2.7-.23,5.63.49,8.16,1.86,1.9.99,3.58,2.32,5.1,3.76l-.03.04Z"/></g><g class="cls-4"><path class="cls-3" d="M250.14,241.66c.37-3.99,1.39-7.85,3.22-11.41.66-1.28,1.35-2.53,2.13-3.7,1.38-2.07,2.83-4.01,4.16-6.01,1.34-1.96,2.47-4.04,3.07-6.32.57-2.01.61-4.14.29-6.18-.4-2.66-1.62-5.09-2.72-7.61-.36-.78-.31-.69.2-.15.25.27.65.64,1.08,1.12.22.24.49.49.71.79.2.31.4.65.6,1.02.65,1.3,1.2,2.68,1.57,4.12.36,1.45.51,2.96.44,4.47-.11,3.03-1.17,5.95-2.67,8.49-1.79,3.01-3.87,5.86-5.58,8.79-.95,1.6-1.78,3.23-2.39,4.96-.62,1.73-1.06,3.54-1.35,5.37-.34,2.25-.45,4.54-.14,6.77.37,3.38,2.11,6.47,4.5,8.92,1.85,1.91,4.11,3.3,6.46,4.34.53.21,1.04.43,1.58.62,1.98.73,2.61.95,2.96,1.65.08.16.2.32.23.47.07.25-.14.42-.59.51-.45.09-1.14.1-1.99-.07-2.54-.45-5.05-1.54-7.26-3.1-2.22-1.55-4.21-3.52-5.75-5.86-.59-.86-1.08-1.8-1.51-2.77-.41-1-.76-2.03-.95-3.06-.46-2.07-.46-4.14-.34-6.16h.06Z"/></g><path class="cls-3" d="M276.96,191c-3.39,2.21-1.4,4.47,2.88,3.25,2-.57-19.82,6.91-19.82,6.91,0,0-2.47-1.4-1.05-2.77s7.26-5.18,7.26-5.18l10.73-2.21Z"/><path class="cls-3" d="M285.43,209.62c.26-.35.38-.6.4-.73,0-.06-.04-.09-.06-.16-.1-.26-.54-.64-1.08-.64-.25,0-.5.08-.76.14-.33.1-.68.23-1.08.3-.12.02-.17-.09-.16-.27.01-.18.06-.47.22-.66.29-.3.61-.69,1.08-.84.45-.15,1.03-.21,1.56-.03.6.19,1.28.44,1.72,1.1.23.36.33.81.31,1.2-.02.39-.13.72-.25,1.01-.16.36-.33.64-.51.94-.25.47-.65.84-.97,1.23-.26.3-.48.63-.78.9-.06.06-.12.12-.19.18-.28.18-.45.14-.65,0-.05-.03-.1-.06-.13-.1-.13-.11-.13-.32-.08-.57.25-.67.41-1.33.68-1.87.13-.44.49-.74.69-1.14l.04.02Z"/><path class="cls-3" d="M284.5,210.3c.08-.11.12-.21.18-.31.03-.07.08-.17.08-.21.03-.06-.04-.04-.02-.1.02-.18-.33-.42-.74-.54-.19-.06-.39-.05-.59-.02-.25.06-.5.07-.82,0-.14-.13-.14-.13-.15-.37,0-.23.05-.54.2-.7.28-.28.64-.35,1-.43.37-.05.77-.04,1.15.18.42.21,1.02.4,1.37.95.36.59.35,1.28.2,1.73-.06.32-.22.55-.31.83-.21.35-.41.7-.61,1.05-.14.27-.21.59-.33.87-.03.06-.04.14-.07.19-.14.21-.31.17-.71-.08l-.27-.17c-.29-.21-.48-.47-.5-.69-.02-.31.05-.56.13-.8.07-.23.15-.45.29-.63.16-.27.36-.53.48-.76h.05Z"/><path class="cls-3" d="M287.98,211.87c-.25,0-.56.06-.83.15-.1.03-.18.1-.28.14-.35.14-.77.24-1.1.47-.15.1-.28.22-.4.34-.15.17-.3.34-.49.49-.06.05-.13,0-.18-.11-.05-.1-.1-.28-.05-.42.17-.49.43-.98.85-1.3.25-.19.45-.46.73-.64.3-.2.62-.36.95-.49.21-.08.43-.16.68-.21.38-.08.8-.07,1.27.11.33.15.72.29.98.71.05.09.11.19.14.31.07.46-.17.63-.67.5-.12-.03-.23-.06-.34-.1-.18-.07-.38-.17-.47-.2,0,0,0,0-.02,0-.07-.02-.32.09-.34.14-.02.02,0,0,.03-.05.01-.02.03-.06.04-.09h0s0-.02,0-.02l-.09.33v.02s-.01.04-.01.04c.02,0-.14-.12-.38-.07l-.02-.04Z"/><path class="cls-3" d="M283.35,194.85c-.32.05-.7.15-1.08.26-.14.04-.26.12-.4.16-.49.13-.96.32-1.46.47-.22.07-.42.17-.63.27-.25.14-.51.27-.8.36-.09.03-.13-.05-.13-.19,0-.13.03-.34.15-.48.42-.46.83-.98,1.45-1.14.36-.11.67-.35,1.01-.51.38-.17.75-.33,1.18-.46.26-.08.53-.14.82-.18.43-.06.9-.02,1.35.11.34.1.71.2,1.05.48.07.06.15.12.2.21.18.33.09.51-.26.64-.08.03-.16.07-.24.09-.28.07-.53.05-.66.04-.22,0-.28-.02-.41-.05-.11-.03-.23-.07-.35-.09-.18-.03-.47-.05-.78.03v-.03Z"/><path class="cls-2" d="M235.43,179.46c-2.07,1.51-3.58,2.07-10.03,0-6.45-2.07-10.68,6.59-12.9,3.2-2.21-3.39-5.87-5.08-9.26-4.52-3.39.57-7.34,3.96-12.31,2.45-4.97-1.5-7.27-6.59-7.37-7.57l-15.33,7.01s-1.32,4.82,0,9.18c1.31,4.35,17.75,19.54,21.55,22.95,3.81,3.41,8.76,5.69,11.92,5.17,3.16-.53,17.49-28.63,19.71-31.54,2.22-2.91,5.34-1.67,5.34-1.67,0,0,8.3.8,10,.72,1.71-.07.75-6.88-1.32-5.38ZM195.79,188.48c.94,0,1.64.83,1.67,1.7.02.38-.09.76-.36,1.08-.65.79-2.05.76-2.67-.06-.81-1.07.04-2.72,1.36-2.72ZM196.02,204.31c-2.53,0-2.72-4.14,0-4.14,1.15,0,2.07.92,2.07,2.07s-.92,2.07-2.07,2.07ZM206.71,187.91c-.44-2.6,3.7-2.91,3.7-.31,0,2.21-3.32,2.52-3.7.31Z"/><path class="cls-3" d="M204.68,214.34c-.6.7-1.19,1.38-1.85,2.07-.24.25-.45.53-.72.76-.93.81-2.12,1.54-3.46,1.66-.59.04-1.16,0-1.7-.09-.34-.07-.7-.09-.99-.29-.29-.17-.55-.32-.88-.52-.36-.22.28-.43,1.08-.61.17-.01.35-.08.5-.05l.44.05c.29.03.56.03.82.02.51-.04.99-.1,1.54-.27.66-.2,1.2-.77,1.73-1.32.59-.6,1.16-1.29,1.72-1.98.34-.43.69-.86,1.01-1.3.49-.67,1-1.35,1.42-2.06.33-.55.57-1.16.84-1.74.06-.13.11-.26.17-.39.26-.46.45-.54.92-.38.11.04.22.07.32.11.34.16.49.5.38.89-.34,1.15-.91,2.22-1.62,3.24-.51.76-1.08,1.49-1.65,2.21l-.04-.02Z"/><path class="cls-3" d="M215.01,156.23c.25-.57.4-1.3.38-1.92,0-.24-.09-.47-.13-.71-.16-.87-.59-1.73-1.12-2.54-.24-.36-.54-.68-.84-.99-.42-.36-.78-.79-1.16-1.23-.11-.14-.04-.2.16-.23.2-.02.56-.03.89.11.6.23,1.05.66,1.51,1.08.44.44.87.92,1.14,1.51.33.69.77,1.37.97,2.17.12.43.16.89.16,1.35-.02.43-.06.87-.15,1.3-.12.53-.29,1.05-.54,1.53-.36.74-.92,1.37-1.5,1.92-.47.4-.92.86-1.48,1.14-.12.06-.24.14-.37.18-.49.16-.69.07-.9-.27-.05-.08-.1-.15-.14-.23-.12-.27-.02-.56.22-.8.35-.35.65-.73.97-1,.3-.31.58-.6.88-.87.41-.43.77-.92,1-1.52h.04Z"/><path class="cls-3" d="M215.81,157.91c.13-.22.25-.45.33-.69.03-.09.02-.18.05-.27.09-.32.21-.65.28-1.01.03-.16,0-.31,0-.46-.03-.19-.09-.38-.05-.6.02-.07.17-.11.35-.11.18,0,.4.05.47.17.23.42.39.9.31,1.38-.06.28-.03.58-.06.87-.05.31-.14.62-.24.92-.06.18-.14.36-.21.54-.11.27-.26.52-.36.79-.08.21-.09.46-.15.69-.01.05-.01.11-.03.16-.08.18-.2.17-.57-.06l-.25-.16c-.28-.19-.46-.41-.47-.55-.04-.41.1-.68.24-.97.11-.21.24-.42.34-.65h.03Z"/><path class="cls-3" d="M249.67,135.66s4.91-.36,8.35,1.08c6.44,2.69,9.89,9.78,18.94,13.09,12.23,4.47,23.34-3.25,23.34-3.25l-5.38.85s-11.34,2.45-16.82-.24c-5.47-2.68-12.22-8.17-12.65-8.68s-4.45-6.55-4.45-6.55l-11.34,1.55v2.14Z"/><path class="cls-3" d="M256.64,117.61c-3.02,1.62-19.15-1.21-23.76-12.99,0,0-3.2-12.51-1.98-12.73s10.13-.89,13.12-3.13,10.8-12.45,10.8-12.45c0,0,10.42-12.62,14.15-14.52,3.73-1.9,11.46-3.12,16.25-1.88,4.79,1.24,9,6.24,9,6.24l3.75,3.35s6.87-6.68,12.52-6.73c5.65-.05,16.03,3.66,18.37,10.04,2.33,6.38,4,15.35,4,15.35,0,0-2.42,15.54,1.2,21.29,3.62,5.75,10.56,8.79,10.56,8.79,0,0-8.07,15.72-22.9,13.52-8.14-1.21-6.8-6.06-6.8-6.06,0,0,3.64-1.54,5.82-2.6,2.18-1.06,5.31-5.36,5.31-5.36,0,0,2.05-7.1,1.26-7.6s-.24-2.24-2.74-3.02c-2.5-.78-6.17,1.11-7.25.1s-2.82-8.73-2.87-9.49.8-7.99-1.39-8.54c-2.19-.55-10.09-3.17-10.09-3.17l-8.79,4.06s-.71-6.06-5.82-6.37c-5.1-.31-10.13-1.4-12.38,1.67-2.25,3.07-11.03,11.56-11.03,11.56,0,0-2.65,2.91-4.87,2.29s-6.06-2.75-8.21-1.03c-2.14,1.72-3.16,5.6-3.16,5.6l1.61,5.83,6.4,3.92-.1,4.05Z"/><path class="cls-3" d="M192.94,466.6c-4.42.75-8.88,1.27-13.42,1.36-1.66.04-3.33.08-5.03-.08-1.5-.16-3.03-.41-4.61-1.04-.78-.31-1.61-.77-2.34-1.51-.18-.2-.35-.4-.52-.61-.15-.24-.3-.5-.43-.76-.1-.3-.21-.6-.25-.91-.02-.31-.07-.65,0-.95.17-1.25.8-2.07,1.37-2.72.59-.66,1.23-1.12,1.87-1.57,1.28-.86,2.6-1.54,3.92-2.15,2.35-1.07,4.72-2.07,7.12-2.86,3.06-1.03,6.17-2.1,9.48-2.17,1.04.06.94.29.23.98-.72.66-1.99,1.86-3.66,2.52-1.5.54-2.99,1.12-4.46,1.72-1.47.6-2.92,1.25-4.38,1.82-1.45.6-2.87,1.23-4.22,1.93-1.32.68-2.62,1.52-3.41,2.27-.26.23-.35.42-.42.53-.06.11-.06.09-.03.23.11.29.66.76,1.41,1.05,1.51.62,3.49.79,5.39.9,4.24.16,8.62-.29,12.93-.93,2.66-.41,5.31-.91,7.92-1.55,1.97-.48,3.95-1.01,5.83-1.69.92-.34,1.89-.73,2.56-1.17.69-.52,1.42-1.2,1.99-1.95,1.85-2.33,2.8-5.25,3.46-8.16.15-.64.23-1.29.36-1.95.45-2.44.74-3.19,1.81-3.61.24-.1.48-.24.7-.28.74-.17,1.33.98,1.18,2.97-.21,2.94-.85,5.97-2.15,8.93-.66,1.47-1.49,2.92-2.56,4.27-.53.67-1.13,1.32-1.8,1.9-.35.29-.63.57-1.16.91-.26.18-.43.25-.65.38-.21.12-.42.22-.61.31-2.31,1.05-4.47,1.66-6.7,2.25-2.21.57-4.43,1.05-6.65,1.47l-.02-.08Z"/><path class="cls-3" d="M317.58,457.16c4.12.64,8.33,1,12.46.88,1.5-.06,2.98-.28,4.39-.52.62-.1,1.22-.25,1.77-.42.54-.18,1.06-.38,1.34-.6.09-.05.16-.1.18-.14.05-.04.1-.08.09-.07h.01s.13.03.09.02c0,0,0,.01.03.01h.03s-.08,0-.11,0c-.03,0,0,0,0,0,.04-.1-.26-.58-.68-.95-.84-.79-2-1.5-3.15-2.15-1.17-.65-2.39-1.25-3.63-1.83-2.2-1.02-4.5-1.9-6.76-2.78-1.46-.56-2.92-1.14-4.36-1.78-1.44-.64-2.88-1.31-4.17-2.3-.76-.69-.56-.74.37-.75.47-.02,1.09.02,1.83.07.72.08,1.53.26,2.37.55l4.49,1.53c1.49.54,2.99,1.09,4.49,1.68,3,1.19,6,2.4,8.91,4.3.86.62,1.76,1.18,2.62,2.32.41.5.86,1.46.71,2.5-.16,1.04-.77,1.76-1.29,2.19-1.1.92-2.18,1.28-3.24,1.61-1.06.32-2.09.48-3.12.63-4.51.53-8.91.32-13.29-.11-2.69-.29-5.37-.7-8.02-1.25-2.01-.41-4.01-.93-5.98-1.61-1.96-.68-3.92-1.46-5.74-2.79-2.73-2.25-4.31-5.19-5.53-8.14-.26-.65-.53-1.28-.75-1.95-.79-2.46-.76-3.26,0-4.06.17-.18.33-.4.51-.53.6-.45,1.54.38,2.25,2.1,1.07,2.52,2.07,5.04,3.42,7.12.35.51.69,1.01,1.08,1.45.37.45.83.88,1.16,1.14.8.61,1.98,1.17,3.19,1.64,3.69,1.36,7.85,2.29,12,2.88v.09Z"/><path class="cls-3" d="M347.97,410.29c.59,2.29,1.15,4.58,1.54,7,.2,1.2.34,2.45.37,3.8,0,.35.01.67-.04,1.07-.03.37-.06.75-.18,1.2-.07.4-.29.94-.54,1.42-.23.35-.41.59-.62.88-1.64,2.23-3.68,3.8-5.74,5.17-2.09,1.32-4.25,2.41-6.45,3.38-4.4,1.9-8.93,3.29-13.49,4.44-4.57,1.14-9.19,2.01-13.83,2.65-6.78.92-13.62,1.49-20.5,1.28-6.05-.26-12.16-.82-18.09-2.96-1.48-.53-2.92-1.22-4.32-2.06-.69-.43-1.35-.94-2.01-1.47-.32-.33-.64-.67-.95-1.01-.27-.35-.48-.7-.73-1.06-.25-.35-.44-.71-.62-1.07l-.55-1.08c-.29-.73-.6-1.45-.88-2.18l-.74-2.19-.63-2.2c-1.54-5.87-2.52-11.77-3.38-17.69-.85-5.91-1.55-11.83-2.19-17.76-1.12-10.51-2.19-21.08-3.18-31.51-.33-3.35-.66-6.7-.99-10.05l-.87-10.07-.85-10.07c-.27-3.36-.61-6.7-.74-10.07,0-2.11.03-3.03.11-2.98.09.05.27,1.06.79,2.79,1.02,3.45,2.49,9.88,3.54,17.58l1.32,10.24c.43,3.41.72,6.84,1.07,10.26.68,6.84,1.35,13.68,1.97,20.52,1.31,13.67,2.53,27.41,4.91,40.92.76,4.01,1.62,8.09,3.07,11.83.19.46.37.93.57,1.37l.66,1.28.75,1.13.41.43c.14.14.25.3.46.43,1.42,1.19,3.28,1.99,5.14,2.68,3.8,1.32,7.95,1.97,12.1,2.28,4.16.32,8.36.32,12.53.13,9.18-.44,18.36-1.8,27.25-4.15,4.44-1.19,8.79-2.67,12.89-4.6,2.02-.99,4.03-2.05,5.78-3.38.47-.3.85-.68,1.27-1.02.2-.18.42-.34.61-.53l.54-.58.55-.57.44-.62c.14-.2.33-.44.42-.59.02-.06.05-.12.08-.18.03-.06.04-.18.07-.27.07-.2.07-.54.11-.81,0-.32.01-.62,0-.95-.03-.65-.11-1.33-.2-2.01-.19-1.36-.48-2.74-.79-4.11-.64-2.75-1.41-5.49-2.24-8.21-1.66-5.45-3.51-10.87-5.45-16.25-5.89-16.3-12.35-32.52-18.96-48.44-5.14-12.38-10.48-24.38-15.73-36.56-1.16-2.68-2.32-5.29-3.46-8.01-4.22-10.07-5.23-13.44-5.11-16,.02-.58,0-1.32.09-1.69.35-1.23,2.5,2.67,5.71,9.97,9.58,21.64,19.53,44.57,28.9,67.88,3.48,8.65,6.9,17.36,10.16,26.15,3.23,8.81,6.42,17.63,8.92,26.8l-.08.05Z"/><path class="cls-3" d="M197.04,445.92c-5.42-.5-10.82-1.23-16.17-2.38-2.67-.57-5.33-1.22-7.96-2.02-1.32-.37-2.62-.85-3.93-1.27-1.29-.51-2.6-.94-3.86-1.54-2.56-1.08-5.04-2.44-7.38-4.1-2.31-1.67-4.53-3.7-6.03-6.4-1.53-2.76-1.99-5.7-2.2-8.52-.18-2.84,0-5.61.29-8.35.94-7.97,2.77-15.66,4.81-23.25,3.67-13.37,7.9-26.52,11.99-39.7,4.13-13.16,8.06-26.4,12.4-39.53,3.81-11.66,7.89-23.31,12.25-34.68,2.79-7.31,5.68-14.59,8.66-21.83,3.04-7.21,6.15-14.39,9.47-21.45,1.15-2.16,1.71-3.07,1.79-2.96.09.11-.24,1.27-.7,3.3-.97,4.06-3.07,11.4-6.29,19.8-2.95,7.4-5.97,14.77-8.82,22.19-2.87,7.41-5.59,14.88-8.24,22.38-5.32,15.01-10.06,30.24-14.9,45.59-2.92,9.16-5.84,18.53-8.68,27.97-2.82,9.44-5.59,18.95-7.85,28.45-1.21,5.22-2.29,10.48-2.76,15.74-.22,2.62-.31,5.26.02,7.78.14,1.27.43,2.49.8,3.66l.72,1.64.99,1.53c1.48,1.97,3.49,3.6,5.67,4.98,2.17,1.41,4.58,2.51,7.03,3.49,4.92,1.95,10.12,3.26,15.38,4.24,6.47,1.21,13.06,1.91,19.65,2.22,3.3.16,6.6.19,9.89.09,3.29-.1,6.58-.31,9.8-.79,2.41-.37,4.92-.85,6.87-1.84.85-.43,1.45-1.28,2.02-2.3.28-.5.49-1.07.74-1.6.22-.56.41-1.14.62-1.71,1.48-4.67,2.33-9.65,3.08-14.6,1.46-9.93,2.39-19.95,3.25-29.91,1.32-15.49,2.26-30.72,3.67-46.05.31-3.38.6-6.68.97-10.09.7-6.3,1.29-10.45,1.87-13.33.56-2.89,1.15-4.51,1.84-5.78.31-.58.65-1.35.91-1.68.89-1.09.76,4.1-.22,13.28-1.4,13.64-2.51,27.68-3.64,41.95-1.14,14.27-2.2,28.75-3.86,43.3-.64,5.4-1.34,10.81-2.42,16.24-.56,2.72-1.19,5.44-2.13,8.19-.26.69-.46,1.37-.81,2.08l-.47,1.04c-.17.35-.41.71-.61,1.06-.21.35-.41.7-.73,1.07-.32.36-.56.72-.96,1.06-.41.31-.87.68-1.27.89l-1.17.57c-1.5.59-2.94.97-4.35,1.25-1.42.3-2.82.49-4.21.66-2.79.34-5.56.48-8.32.57-5.53.15-11.03-.04-16.5-.53l-.02-.09Z"/><path class="cls-3" d="M235.36,232.88l-6.17-1.09c-.75-.13-1.52-.17-2.27-.33-2.65-.55-5.3-1.18-7.92-1.91-1.17-.31-2.34-.62-3.5-.93-.74-.23-1.48-.47-2.21-.73-.72-.28-1.42-.65-2.08-1.08-.38-.33-.17-.61.4-.9.56-.28,1.41-.49,2.21-.26,2.89.69,5.77,1.42,8.75,2.22,1.78.5,3.71.6,5.58.88l6.21.93,3.84.58c1.95.31,3.9.62,5.83.93,1.51.23,3.03.29,4.56.55.34.06.67.06,1.01.15,1.23.37,1.52.81,1.52,1.62,0,.19.02.38,0,.55-.08.59-.73.93-1.64.96-2.62-.09-5.24-.61-7.98-1.06-2.03-.32-4.08-.7-6.15-1v-.08Z"/><path class="cls-3" d="M215.89,157.4c.33-.15.79-.42.73-.36.06-.01.16-.05.16-.12.01-.03.02-.07.02-.11,0-.05.01-.05-.04-.22-.08-.31-.26-.66-.41-1-.27-.5-.63-.95-.96-1.45-1.16-1.75-2.6-3.47-4.19-4.88l-.19-.16-.14-.11c-.1-.07-.21-.13-.31-.18-.2.16-.33.32-.54.52-.94.84-1.74,1.86-3.13,2.23-.44.11-.44.03-.43-.45,0-.48-.06-1.47.36-2.09.43-.49.87-.97,1.33-1.45l.17-.18s.11-.11.15-.18l.18-.18c.23-.24.47-.46.72-.67.25-.18.55-.2.78-.3.13-.05.23-.06.37-.13.15.01.25,0,.39.07.27.13.55.23.81.38l.77.54c.29.19.33.27.5.4.14.12.27.24.39.36.51.49.98.99,1.41,1.53,1.04,1.28,2.28,2.43,3.26,3.85.53.8,1.03,1.59,1.39,2.62.2.63.36,1.35.28,2-.11.66-.6,1.16-1.18,1.53-.37.29-.59.38-.85.54-.25.14-.51.28-.76.41-.51.26-1.02.49-1.54.72-.39.17-.8.33-1.21.48l-.32.11c-.13.05-.28.08-.42.12-.29.07-.57.15-.85.18-1.24.33-1.87-1.03-2.35-1.9-.63-1.08-1.41-2.01-2.22-2.75-.17-.18-.38-.28-.53-.45-.61-.56-.68-.74-.63-1.47v-.41c0-.2.13-.34.43-.48.32-.17.72-.13,1.19.04,1.36.53,2.32,1.56,3.12,2.54.4.5.76,1.03,1.09,1.53l.11.16h0s0,0,0,0h0s0,0,0,0c0,0,0,0,.02,0l.26-.08.55-.2c.74-.28,1.5-.61,2.2-.98l.04.06Z"/><path class="cls-3" d="M197.03,155.66c.08.32.16.63.12.93,0,.15,0,.31-.02.45l-.13.43c-.03.15-.12.27-.21.39-.09.12-.16.25-.26.36-.22.19-.47.38-.7.53-.3.1-.6.2-.92.22-.16.02-.31.04-.46.06-.16-.01-.32-.03-.48-.05l-.5-.08-.35-.09c-.23-.06-.46-.12-.65-.22-1.39-.75-2.44-1.69-3.52-2.61-.48-.4-.93-.83-1.39-1.24-.29-.27-.6-.52-.85-.83-.25-.32-.47-.66-.66-1.02-.12-.23-.04-.24.21-.19.23.07.69.11,1.12.28.71.34,1.35.76,2.03,1.12.66.38,1.24.87,1.85,1.32.71.57,1.63.85,2.38,1.13l.33.12.16.05c.11.02.23.04.36,0,.18-.05.35-.2.37-.41.01-.14-.02-.29-.06-.45-.04-.15-.22-.49-.36-.73-.47-.8-1.06-1.6-1.71-2.33-.5-.58-1.1-1.06-1.66-1.61-.12-.12-.26-.23-.37-.36-.4-.5-.39-.8,0-1.24.08-.1.16-.2.24-.27.24-.24.79-.32,1.16-.06.59.37,1.1.81,1.63,1.29.53.48,1.03,1.01,1.47,1.62.34.44.66.92.97,1.44.32.58.56.9.94,2.04h-.06Z"/><path class="cls-3" d="M201.86,151.77l.16.36c.07.14.11.3.15.45l.23.9c.02.29.01.59.02.87-.05.28-.12.55-.2.81-.45,1.04-1.52,1.71-2.66,1.7-.42-.01-.85-.06-1.27-.15-.21-.06-.43-.11-.62-.18-.14-.06-.28-.11-.42-.17-1.83-.93-3.16-2.19-4.43-3.52-.57-.58-1.14-1.14-1.65-1.76-.33-.39-.67-.79-.96-1.23l-.21-.34c-.02-.15-.06-.28-.09-.42-.07-.27-.12-.55-.14-.83.02-.37.02-.28.21-.08.11.1.29.2.54.29.13.04.25.09.42.12.09,0,.15.04.27.03l.15.12c.7.62,1.53,1.16,2.27,1.76.71.63,1.42,1.27,2.16,1.92.42.4.89.75,1.39,1.03.25.14.5.26.75.38l.64.27c.2.09.49.19.75.08.29-.11.34-.45.28-.73-.03-.09-.04-.18-.08-.28-.03-.08-.13-.31-.21-.47-.18-.35-.37-.69-.6-1.04-.66-1.04-1.4-2.1-2.22-3.07-.62-.77-1.34-1.44-2-2.19-.14-.17-.3-.31-.44-.49-.13-.16-.22-.31-.28-.44-.05-.14-.05-.28-.05-.4,0-.24.1-.44.26-.66.07-.1.13-.21.2-.29.22-.25.74-.22,1.33.06.71.54,1.4,1.12,2.07,1.74.33.31.67.63.99.97.3.35.59.72.89,1.09.86,1.13,1.7,2.25,2.45,3.74l-.06.03Z"/><path class="cls-3" d="M245.45,136.32c-2.22.36-4.44.79-6.65,1.33-.81.18-1.58.49-2.4.67-2.86.66-5.72,1.37-8.56,2.21-1.25.38-2.51.8-3.73,1.23-1.58.54-3.09,1.32-4.88,1.28-.59-.11-.54-.17-.27-.74.13-.29.34-.63.6-1.04.27-.37.63-.69,1.05-.93,1.56-.71,3.14-1.36,4.75-1.97,1.62-.57,3.28-1.04,4.98-1.43,2.03-.47,4.04-1.28,6.09-1.87,2.26-.61,4.56-1.12,6.87-1.57l2.14-.39,2.15-.33c1.08-.18,2.18-.27,3.26-.42,1.09-.11,2.18-.22,3.26-.33.84-.07,1.68-.19,2.51-.32l2.51-.28c.37-.04.74-.1,1.11-.09,1.39,0,1.83.21,2.07,1.1.06.2.13.39.16.58.09.62-.49,1.22-1.46,1.37-2.88.47-5.85.66-8.85,1.03-1.11.1-2.23.29-3.35.42-1.11.19-2.23.33-3.35.56l-.02-.08Z"/><path class="cls-3" d="M272.69,90.47c-1.28,1.33-2.49,2.75-3.72,4.2-1.24,1.45-2.41,2.95-3.94,4.42-.58.51-1.17,1.15-2.29,1.52-.87.3-1.94.36-2.88.09-.84-.23-1.47-.64-2.04-1-.56-.36-1.01-.67-1.45-.91-.43-.23-.81-.33-1.19-.39-.39,0-.81.04-1.27.22-.45.14-.93.43-1.37.69-.38.32-.84.58-1.14.99-.37.35-.6.8-.87,1.24-.18.48-.43.94-.5,1.46-.26.9-.17,1.88-.05,2.82.23.93.52,1.86,1.05,2.65.63,1.05,1.51,1.89,2.47,2.57.98.69,2.02,1.17,3.24,1.81.37.35.55.53.53.59-.02.07-.22.09-.63.38-.41.27-1.04.64-1.83.71-.39.04-.86.14-1.3.05-.44-.1-.9-.24-1.36-.44-.74-.45-1.55-.87-2.15-1.52-.32-.3-.63-.62-.88-.98-.25-.35-.55-.68-.76-1.06-.94-1.47-1.46-3.16-1.64-4.89-.15-1.72.04-3.55.88-5.16.79-1.62,2.15-2.95,3.65-3.77.87-.45,1.83-.89,2.98-1.06,1.16-.17,2.44.14,3.36.64.94.49,1.63,1.06,2.27,1.36.64.32,1.11.4,1.68.3.14-.05.35-.07.45-.12.05-.03.1-.03.16-.07l.21-.13c.29-.2.61-.48.92-.79.63-.62,1.24-1.33,1.85-2.06,1.22-1.45,2.42-2.97,3.7-4.44,1.57-1.81,3.22-3.59,5.11-5.16,1.42-1.19,2.98-2.26,4.72-3.04,1.73-.79,3.64-1.26,5.57-1.22,1.49.03,2.96.27,4.36.79,1.4.51,2.73,1.31,3.82,2.41.48.48.93.98,1.3,1.58.69,1.1.92,1.98.91,2.61-.05.64-.28,1.02-.61,1.28-.15.12-.3.27-.44.32-.24.09-.47-.1-.7-.42-.25-.34-.58-.79-.86-1.4-1.87-3.68-6.89-5.31-10.89-3.87-3.08,1.06-5.86,3.52-8.36,6.22l-.06-.05Z"/><path class="cls-3" d="M255.13,73.76c2.64-3.58,5.49-7.17,8.98-10.2,1.27-1.1,2.58-2.2,4.05-3.08,2.57-1.57,5.51-2.63,8.52-3.01,1.51-.16,3.02-.19,4.52-.05,1.49.18,2.95.42,4.38.85,1.27.34,2.51.83,3.73,1.36,1.19.6,2.37,1.22,3.42,2.05,1.38,1.01,2.59,2.31,3.48,3.83.95,1.48,1.29,3.36.97,5.07-.22,1.06-.27.86-.64.05-.08-.2-.22-.44-.41-.69-.17-.25-.37-.53-.64-.79-.4-.57-1.03-1.09-1.41-1.76-.38-.58-.83-1.12-1.31-1.62-.51-.49-1.03-.95-1.57-1.42-1.1-.9-2.37-1.64-3.72-2.24-1.35-.6-2.78-1.06-4.27-1.36-1.49-.32-2.99-.52-4.51-.54-1.82-.03-3.68.31-5.44,1-1.76.67-3.42,1.64-4.98,2.75-3.44,2.45-6.31,5.77-8.95,9.26-1.63,2.16-3.16,4.4-4.79,6.64-2.52,3.43-5.53,6.45-8.92,9.01-1.35.95-2.7,1.9-4.19,2.65-1.49.74-3.08,1.36-4.79,1.68-.76.11-1.51.25-2.3.22-1.47,0-2.42-.36-3.02-.69-.62-.29-.84-.79-.96-1.25-.05-.21-.15-.41-.15-.56-.01-.26.27-.38.8-.51.27-.1.54-.06.88-.07.34-.02.71.02,1.12.02,2.44.07,4.91-.64,7.24-1.9,2.34-1.22,4.6-2.86,6.65-4.79,1.52-1.41,3-3,4.29-4.61,1.3-1.66,2.57-3.51,3.88-5.33l.07.04Z"/><path class="cls-3" d="M234.08,107.53c.75,1.96,1.83,3.79,3.25,5.37.48.61,1.15,1.03,1.69,1.59,2.12,1.9,4.42,3.55,7.08,4.48,1.17.44,2.42.71,3.67.88.4.06.81.1,1.22.13l1.22.2c.41.09.82.12,1.23.27.41.15.81.29,1.23.44.51.2.44.23-.01.47-.23.12-.55.31-.95.55-.2.11-.42.27-.64.36-.23.07-.47.14-.72.17l-1.33.14c-.45.03-.89-.02-1.34-.05-.9-.07-1.8-.18-2.71-.37-1.83-.31-3.58-1.17-5.14-2.17-1.87-1.22-3.74-2.38-5.41-3.89-1.84-1.67-3.33-3.71-4.42-5.91-.69-1.35-1.18-2.78-1.59-4.21-.61-2.18-.85-4.43-.98-6.64-.08-1.72-.25-3.42-.17-5.13.03-.38.04-.75.09-1.12.09-.7.23-1.15.44-1.44.25-.28.54-.41.91-.49.17-.03.33-.09.48-.1.25-.01.44.14.64.42.2.29.39.7.38,1.19.22,2.9.06,5.79.43,8.66.26,2.12.71,4.22,1.53,6.16l-.07.03Z"/><path class="cls-3" d="M333.73,91.02c.01,1.66.1,3.29.41,4.83.13.55.29,1.11.5,1.62l.23.71c.1.22.21.44.32.66.11.22.2.45.33.66l.42.6c.25.43.62.77.97,1.13.35.37.7.71,1.11.99.36.25.76.46,1.18.63.42.15.85.29,1.28.41.56.14,1.14.22,1.73.26.58,0,1.2.15,1.83.11.4,0,.35,0,.07.22-.21.16-.42.33-.61.48-.13.1-.28.2-.44.31-.08.06-.17.09-.26.16l-.28.08c-.69.17-1.41.26-2.14.26-.37,0-.74-.01-1.1-.07-.36-.08-.72-.18-1.06-.31-.7-.25-1.37-.6-1.98-1.03-.32-.21-.57-.48-.82-.74l-.74-.8c-1.04-1.39-2.05-2.87-2.59-4.51-.57-1.8-.69-3.62-.77-5.39-.04-1.09-.02-2.17-.01-3.24,0-1.62.09-3.23-.01-4.8-.09-1.22-.35-2.39-.62-3.53-.06-.25-.14-.49-.18-.75-.19-.93-.02-1.31.27-1.64.07-.08.13-.17.2-.22.22-.18.59.12,1.1.79,1.23,2.09,1.48,4.61,1.65,6.95.13,1.75.06,3.48.12,5.16h-.06Z"/><path class="cls-3" d="M207.25,150.38c.04.17.12.6.16.94.05.36.04.71.04,1.05-.05.68-.27,1.29-.63,1.79-.36.49-.89.88-1.47,1.05-.58.19-1.19.11-1.79-.11-.83-.27-1.86-.99-2.2-1.3-1.57-1.51-2.74-3.16-3.95-4.79-.5-.75-1.04-1.46-1.55-2.18-.69-.9-1.3-1.89-1.59-3.06-.09-.37-.06-.32.23-.15.28.17.97.35,1.49.75.5.33.89.73,1.29,1.13l1.2,1.19c.82.77,1.48,1.68,2.15,2.58.4.54.88,1.03,1.38,1.47.49.43,1.07.88,1.47,1.21.18.16.44.4.76.37.33-.06.47-.41.46-.74,0-.1,0-.21-.02-.32-.02-.13-.07-.39-.12-.59-.1-.42-.24-.86-.41-1.28-.51-1.29-1.12-2.59-1.86-3.8-.59-.94-1.28-1.79-1.94-2.68-.14-.2-.31-.38-.44-.59-.26-.38-.36-.68-.32-.96.02-.26.17-.49.41-.74.11-.11.2-.23.31-.31.34-.27.96-.21,1.51.22,1.43,1.4,2.71,3.11,3.66,5.07.74,1.45,1.35,2.96,1.84,4.75l-.07.02Z"/><path class="cls-3" d="M340.93,222.01c-1.43-6.36-3.47-12.64-5.8-18.81-.86-2.25-1.85-4.44-2.77-6.66-3.27-7.83-6.98-15.51-11.05-22.98-1.78-3.33-3.74-6.59-5.72-9.77-2.58-4.07-5.13-8.18-7.47-12.43-.54-1.46-.59-1.18.43-.34.53.41,1.19,1.05,2.03,1.81.41.38.84.81,1.3,1.27.23.23.45.48.7.71.21.26.43.53.65.8l2.28,2.96,1.12,1.49,1.03,1.56c1.36,2.08,2.69,4.19,3.97,6.33,2.6,4.25,4.87,8.71,7.01,13.25,2.55,5.43,5.36,11,7.71,16.67,2.58,6.23,4.84,12.61,6.64,19.13,1.09,4.02,1.99,8.1,2.56,12.26.42,3.15.61,6.36.31,9.59-.05.81-.22,1.61-.34,2.42-.19.78-.33,1.57-.55,2.34-.22.77-.41,1.54-.69,2.3l-.39,1.14-.45,1.11c-1.86,4.59-4.66,8.84-8.63,11.99-.44.34-.88.67-1.31,1.01-.46.3-.93.6-1.4.9-3.61,2.09-5.11,1.96-6.14,1.44-.24-.13-.54-.23-.69-.38-.53-.52.85-1.47,3.22-2.74,3.51-1.94,6.66-4.56,8.96-7.94,2.33-3.34,3.95-7.28,4.79-11.43.61-2.94.59-6.12.29-9.33-.32-3.21-.9-6.44-1.66-9.63l.08-.03Z"/><path class="cls-3" d="M319.79,258.96c.01-.67.03-1.39-.06-2.11-.02-.26-.15-.51-.18-.77-.14-.93-.33-1.9-.64-2.83-.14-.41-.32-.81-.51-1.2-.14-.24-.28-.49-.34-.77-.04-.14-.07-.28-.1-.42-.03-.06,0-.16.05-.27.03-.1,0-.16,0-.24,0-.2.13-.25.41-.23.15,0,.27.06.62.01.26,0,.44.08.6.19,1.01.81,1.41,1.99,1.63,3.23.12.74.48,1.42.67,2.16.2.81.32,1.66.37,2.5.01.53,0,1.05-.04,1.57-.05.8-.23,1.57-.38,2.35-.07.3-.11.6-.16.91-.07.3-.15.6-.24.9-.04.13-.07.27-.14.39-.24.45-.46.52-.99.31-.12-.05-.24-.09-.36-.15-.39-.19-.61-.55-.61-.88.02-1,.09-1.83.23-2.68.06-.31.06-.64.11-.96,0-.33.04-.66,0-1h.06Z"/><path class="cls-3" d="M283.08,271.06c2.48,1.49,5.52,2.45,8.54,3,1.11.19,2.24.25,3.34.32,3.84.32,7.71-1,11.37-2.76,1.63-.77,3.2-1.72,4.69-2.73,1.95-1.27,3.6-2.9,5.87-3.79.78-.19.67-.18.46.53-.24.68-.57,2.12-1.63,3.02-3.83,3.05-8.06,5.76-12.96,7.17-1.47.41-2.97.81-4.55,1.05-1.61.25-3.18.23-4.72.1-3.38-.34-6.66-1.15-9.77-2.52-.97-.44-1.86-.91-2.82-1.55-.61-.44-1.21-.9-1.65-1.42-.45-.51-.75-1.04-.98-1.57-.17-.4-.28-.82-.31-1.23-.03-.39.04-.87.39-1.16.36-.22.69-.25,1.08-.26.36-.03.81.05,1.29.15.48.11.99.27,1.51.44l1.42.48c.71.24,1.42.47,2.13.67,2.21.63,4.45.93,6.66.94.49,0,.96-.03,1.44-.06,1.79-.08,2.34-.1,2.87.54.12.13.26.25.34.36.26.34-.41,1.12-1.89,1.36-2.18.4-4.48.33-6.72-.05-1.12-.19-2.23-.45-3.31-.76-.54-.15-1.08-.32-1.61-.49l-.79-.26-.17-.06h0s0,0,0,0c.01.01-.03-.04-.07-.03-.02,0-.02.02-.02.05.08.06-.23-.09.63.43l-.03.06Z"/><path class="cls-3" d="M278.37,268.57c-.49-.53-.71-1.01-.83-1.6-.04-.3-.05-.66.08-1.03.12-.37.36-.73.54-.88.45-.26.77-.49,1.5-.57.76-.12,1.89-.04,3.03.15l1.49.26.96.19,1.68.33c1.12.23,2.23.44,3.36.58,1,.13,2,.15,2.99.12.63.02,1.27,0,1.9-.02.16-.02.32.06.48.09.16.03.32-.03.49.07.33.1.68.23,1.02.25.41-.02.36,0,.03.14-.16.06-.37.28-.64.57-.13.13-.27.35-.43.47-.17.09-.35.19-.53.34-.68.27-1.38.34-2.08.45-.7.08-1.4.03-2.09,0-1.38-.08-2.75-.27-4.09-.57-.8-.17-1.62-.31-2.44-.43l-.86-.12c-.13-.02-.26-.04-.41-.07-.35-.07-.76-.19-1.24-.19-.22-.01-.35.18-.39.33-.02.16.07.3.17.41.29.3.72.53,1.25.74l.3.12.16.06.29.09c.39.13.79.24,1.18.35.8.21,1.6.39,2.41.52,1.26.19,2.52.19,3.75.15l.8-.06c.99.07,1.29.24,1.58.69.07.1.15.2.2.3.17.3-.23.76-1.06,1.04-.61.23-1.24.28-1.86.31-.62.03-1.25.02-1.87-.02-1.25-.08-2.5-.27-3.73-.55-.46-.1-.92-.21-1.38-.34l-.68-.2-.4-.12-.63-.21c-1.65-.55-3.44-1.26-4.11-2.08h.09Z"/><path class="cls-3" d="M266.53,192.21c1.56-.6,3.13-1.14,4.73-1.54.58-.17,1.15-.37,1.74-.48,2.08-.42,4.19-.62,6.29-.65.93,0,1.86-.07,2.78-.07.3,0,.58-.03.89-.01.32.02.65.06.98.15.17.04.33.1.49.17.15.12.29.23.42.38.26.27.47.61.53.95.09.42-.02.33-.25.13-.12-.1-.36-.16-.62-.11-.13.03-.27.1-.41.17-.07.05-.13.07-.21.14-.05,0-.11.01-.17,0-.21,0-.43.02-.67.05-.21.04-.53.09-.8.09-.57.04-1.13.05-1.7.1-1.13.08-2.26.15-3.41.23-1.39.03-2.76.49-4.12.84-1.49.41-2.98.86-4.42,1.46-.9.34-1.76.75-2.62,1.19-1.28.68-2.58,1.38-3.72,2.27-.89.69-1.63,1.53-2.36,2.35l-.47.55c-.6.67-.99.69-1.63.34-.15-.08-.31-.15-.44-.25-.45-.31-.51-.91-.14-1.56,1.18-1.83,2.92-3.34,4.8-4.59,1.4-.94,2.94-1.68,4.47-2.36l.03.06Z"/><path class="cls-3" d="M287.57,210.91c-.48.6-.98,1.14-1.48,1.67-.18.19-.31.43-.5.61-.65.67-1.44,1.2-2.17,1.76-.32.25-.61.53-.89.82-.21.16-.4.32-.62.46-.24.13-.52.2-.78.28-.17.04-.2-.02-.22-.24,0-.2-.08-.64-.03-.99.09-.26.21-.5.32-.75.12-.23.3-.4.46-.6.32-.38.67-.73,1.07-1.05.46-.39.83-.9,1.21-1.37.44-.5.89-1.01,1.29-1.54.25-.32.49-.65.7-1,.31-.52.62-1.05.72-1.6.08-.42-.11-.83-.28-.96-.05-.02-.09-.04-.12-.04-.08-.01.07-.16.42-.77l.23-.41c.13-.23.29-.41.51-.5.21-.09.49-.11.72.07.75.51,1.05,1.47,1.06,2.17.02.73-.15,1.34-.36,1.88-.32.8-.76,1.46-1.2,2.09l-.05-.03Z"/><path class="cls-3" d="M220.3,204.4l-2.4,4.34c-.29.53-.52,1.1-.82,1.62-1.08,1.85-2.2,3.69-3.42,5.46-.54.78-1.02,1.61-1.52,2.4-.32.51-.65,1.02-1.01,1.51-.18.24-.37.48-.57.71-.18.24-.51.39-.75.59-.34.22-.36.15-.39-.26-.02-.2-.06-.5-.12-.86-.02-.34.06-.66.2-.97.27-.54.5-1.11.77-1.65l.89-1.57c.61-1.03,1.19-2.09,1.9-3.09.84-1.2,1.39-2.62,2.06-3.96l2.21-4.44,1.37-2.75c.7-1.39,1.45-2.76,2.11-4.15.5-1.09.88-2.22,1.32-3.34.1-.24.18-.49.29-.73.43-.88.75-1.06,1.54-.86.18.05.36.08.53.14.57.22.82.81.63,1.51-.57,2.07-1.52,4.03-2.5,5.99-.73,1.46-1.5,2.92-2.27,4.38l-.06-.03Z"/><path class="cls-3" d="M290.73,209.37c.12.77.09,1.56,0,2.3-.03.27,0,.54-.06.8-.21.93-.54,1.78-.89,2.59-.16.36-.25.74-.41,1.09-.21.45-.44.88-.84,1.22-.13.11-.31-.01-.5-.23-.18-.22-.42-.57-.43-.85-.12-1.01.25-1.75.59-2.57.23-.49.15-1.05.15-1.56.02-.57-.02-1.13-.08-1.7-.04-.35-.1-.7-.21-1.04-.16-.51-.35-1.03-.7-1.43-.27-.32-.69-.48-1.05-.63-.08-.04-.17-.05-.25-.08-.26-.15-.21-.36.15-1.03l.24-.45c.28-.5.69-.81,1.08-.76,1.12.21,1.95,1.1,2.47,2.05.4.71.63,1.49.8,2.26l-.06.02Z"/><path class="cls-3" d="M327.29,228.02c-.19.66-.43,1.28-.74,1.88-.1.22-.18.45-.31.65-.44.73-1.03,1.36-1.64,1.91-.27.25-.52.5-.79.75-.34.31-.73.58-1.19.71-.14.04-.22-.14-.24-.38-.02-.24,0-.58.15-.75.51-.66,1.05-1.2,1.6-1.82.34-.36.52-.86.73-1.3.24-.5.44-1.02.59-1.56.09-.33.17-.67.2-1.02.06-.52.09-1.05,0-1.57-.09-.4-.31-.75-.52-1.09-.04-.08-.11-.14-.14-.22-.13-.28-.03-.42.42-.7l.31-.19c.35-.2.72-.19.95.04.68.68.89,1.66.91,2.6.02.7-.09,1.4-.24,2.07h-.04Z"/><path class="cls-3" d="M324.79,228.59c.07-.34.14-.72.16-1.12,0-.14-.03-.28-.02-.43.01-.26.03-.53.04-.8.02-.25,0-.51.01-.78,0-.24-.04-.48-.07-.72-.02-.3-.19-.63.11-.96.08-.1.16-.08.33-.01.12.05.25.1.34.14.15.05.26.11.27.18.18.52.49,1.05.4,1.75-.04.41.1.75.14,1.15.04.43.05.87.04,1.32,0,.28-.06.56-.11.84-.08.42-.2.84-.36,1.25-.13.31-.2.66-.39.96-.04.07-.07.14-.12.2-.19.22-.34.21-.62,0-.07-.05-.13-.1-.19-.15-.2-.18-.3-.42-.28-.59.07-.52.06-.89.12-1.28.06-.28.13-.59.14-.94h.04Z"/><path class="cls-3" d="M333.67,83.47c.38,3.37.33,6.68.19,9.92-.06,1.61-.19,3.23-.19,4.74-.02,1.54.07,3.06.23,4.57.29,2.19.89,4.3,1.77,6.22.77,1.69,1.83,3.23,3.2,4.45,1.37,1.25,3,2.13,4.86,2.93.66.29,1.5.66,2.03,1.16.26.25.48.6.52.96.04.33-.1.73-.15,1.09l-.45,1.18c-.14.35-.21.54-.33.8l-.74,1.45c-1.04,1.9-2.28,3.67-3.75,5.24-2.57,2.8-5.65,5.18-9.16,6.65-2.22,1-4.68,1.57-7.15,1.63-2.44.05-5.06-.29-7.03-1.86-1.25-.87-1.06-.7.22-.62.32.01.71.02,1.15-.01.46-.09.93-.08,1.44-.12.51-.03,1.04-.03,1.61-.1.56-.04,1.14.02,1.74-.01,2.15,0,4.27-.56,6.27-1.34.5-.22,1.02-.37,1.5-.64l1.45-.76c.92-.6,1.87-1.16,2.71-1.87,1.73-1.36,3.32-2.95,4.62-4.75.36-.43.65-.9.94-1.37.3-.47.62-.93.85-1.43.25-.49.53-.98.76-1.48.04-.11.12-.3.14-.34l.05-.07s.07-.12.11-.19c.06-.09.01-.19-.06-.24-.08-.06-.14-.1-.25-.16-.06-.04-.49-.21-.83-.36l-1.05-.49c-1.4-.68-2.8-1.54-4.02-2.61-2.49-2.12-4.2-5.05-5.12-8.04-1.01-3.31-1.28-6.7-1.24-10.02.1-3.31.33-6.45.23-9.62-.12-3.9-.6-7.7-2.24-11.16-1.18-2.62-2.82-5.06-4.92-6.98-1.05-.96-2.21-1.78-3.46-2.4-1.29-.61-2.63-1.14-4.01-1.47-4.3-1.07-8.8-.5-12.59,1.45-.43.19-.82.44-1.21.69-.4.24-.79.49-1.17.77-1.45.99-2.29,1.78-2.99,2.25-.36.22-.66.39-.93.51-.29.11-.57.15-.86.18-.26.02-.55.1-.75.08-.34-.03-.34-.41-.1-1.14.22-.75.88-1.7,1.92-2.77,3.07-3.17,7.5-5.36,12.24-5.82,2.37-.25,4.8-.07,7.12.52,2.33.61,4.53,1.45,6.67,2.82,3.07,2.05,5.43,4.9,7.11,7.99.84,1.55,1.53,3.17,2.08,4.83.55,1.72.88,3.44,1.09,5.14l-.08.02Z"/><path class="cls-3" d="M316.19,96.08c.12,1.96.04,3.78.23,5.43.18,1.66.64,3.11,1.62,4.29.33.48.72.77,1.01.92.29.12.45.13.91,0,.39-.11.89-.37,1.51-.64.61-.26,1.44-.55,2.38-.45.49.04.87.21,1.24.36.32.16.64.29.96.54.63.44,1.15,1.01,1.52,1.62.76,1.21,1.11,2.52,1.25,3.82.06.65.08,1.3.02,1.97-.03.33-.08.67-.16,1.01-.08.33-.19.61-.28.91-.67,2.11-1.76,4.21-3.48,5.7-1.08.96-2.35,1.71-3.69,2.19-.66.27-1.37.4-2.08.46-.71.06-1.41.07-2.1.01-.87-.1-.73-.23-.04-.53.34-.16.81-.38,1.34-.69.27-.15.54-.32.83-.5.14-.09.29-.17.43-.28.16-.07.31-.13.47-.2,2.28-.99,4-2.65,5.11-4.73.15-.25.28-.52.38-.8.11-.28.25-.54.34-.84.17-.59.4-1.19.45-1.66.14-1.08.02-2.33-.32-3.41-.2-.65-.53-1.25-.95-1.66-.23-.21-.42-.37-.72-.51-.32-.15-.55-.25-.73-.25-.37-.04-.94.21-1.73.63-.38.2-.85.42-1.39.58-.56.16-1.24.21-1.88.06-1.42-.39-2.21-1.32-2.84-2.11-.36-.39-.63-.86-.88-1.33-.29-.45-.47-.95-.64-1.44-.7-1.98-.77-3.97-.85-5.83-.07-2.29-.15-4.48-.98-6.36-.63-1.4-1.58-2.67-2.92-3.58-.29-.27-.67-.45-1.02-.65-.35-.19-.71-.42-1.05-.59-.65-.3-1.42-.43-2.19-.51-2.46-.15-4.94.67-7.06,1.74-.47.24-.88.54-1.31.81-1.46,1.13-1.9,1.3-2.77,1.32-.19,0-.4.05-.57.05-.28-.01-.41-.25-.41-.79,0-.13,0-.29.04-.46.05-.15.11-.31.18-.48.15-.36.36-.74.68-1.1,1.94-2.05,4.47-3.24,7.15-3.81,1.35-.28,2.75-.43,4.22-.32.37.04.75.09,1.13.14.38.07.77.18,1.16.27.39.13.81.3,1.18.47l.93.52c.45.28.93.48,1.35.84l1.28,1.02c.79.79,1.56,1.63,2.11,2.64,1.17,1.98,1.56,4.21,1.7,6.17h-.07Z"/><path class="cls-3" d="M296.19,148.7c-5.89,2.3-12.52,2.1-18.33.12-1.04-.42-2.13-.74-3.13-1.25l-1.52-.72-1.44-.86c-6.72-4.17-11.66-10.83-14.02-18.2-1.03-3.28-1.68-6.68-1.95-10.06-.17-2.17-.16-4.36.04-6.53.19-2.16.53-4.32,1.34-6.36.49-1.27.57-1.05.77.12.18,1.18.75,3.32.61,5.67-.06,2.1.04,4.19.19,6.26.13,2.07.4,4.13.8,6.15.87,4.03,2.27,7.96,4.45,11.53,2.61,4.27,6.69,7.85,11.27,10.11,4.99,2.59,10.85,3.47,16.35,2.33,3.39-.71,6.6-2.2,9.43-4.27,4.32-3.13,7.86-7.38,10.46-12.03,1.99-3.65,3.35-7.53,4.17-11.51.19-.88.33-1.74.47-2.63.55-3.29.77-4.32,1.63-5,.19-.16.39-.37.58-.46.32-.15.58.13.76.78.18.65.31,1.68.23,2.99-.22,3.88-1.13,7.83-2.59,11.61-1.47,3.79-3.44,7.46-5.97,10.77-3.7,4.91-8.59,9.17-14.56,11.51l-.03-.07Z"/><path class="cls-3" d="M204.4,137.59c-.45-.73-.97-1.4-1.51-1.91-.28-.26-.53-.46-.81-.59l-.44-.19-.56-.14c-.38-.1-.82-.14-1.24-.19-.44,0-.88-.05-1.33-.04-.9.01-1.82.08-2.74.19-1.34.18-2.67.49-3.99.82-2.33.57-4.62,1.35-6.78,2.4-.54.26-1.05.56-1.58.84-.52.3-1.01.62-1.52.93-.96.69-1.91,1.41-2.75,2.28-1.52,1.51-2.83,3.27-4.01,5.08-.76,1.17-1.51,2.35-2.27,3.53-.81,1.15-1.64,2.3-2.55,3.41-.58.68-.52.58-.34-.18.18-.76.4-2.2.97-3.76,1.17-2.68,2.74-5.18,4.59-7.54.93-1.18,1.95-2.31,3.11-3.34.57-.52,1.21-.97,1.83-1.44.66-.4,1.28-.86,1.97-1.19,3.22-1.7,6.69-3.12,10.28-3.9,1.97-.42,3.98-.7,6.04-.71,1.04.03,2.07.04,3.17.3.27.05.54.11.83.24.28.11.57.19.83.36.54.29.97.65,1.39,1.02,1.94,1.89,3.08,4.15,4.06,6.44.7,1.75,1.26,3.57,1.53,5.48.07.48.12.96.14,1.45.02.51.02.93-.06,1.62-.14,1.27-.7,2.5-1.8,3-.11.04-.22.09-.32.13-.89.29-1.75-.13-2.44-.74-.36-.3-.68-.68-.98-1.07l-.36-.49-.3-.44c-.79-1.17-1.46-2.35-2.12-3.52-.3-.53-.6-1.04-.9-1.57-1.06-1.98-1.28-2.56-.9-3.42.07-.18.11-.4.19-.54.21-.48,1.41-.08,2.41,1.38,1.13,1.55,2.08,3.18,3.06,4.73l.73,1.13.37.52.19.25s.02.02.03.03c.04.01.06,0,.07-.02,0-.03,0-.03,0-.04,0,0,0,.01,0-.02,0,.08,0-.33,0-.57-.22-3.18-1.37-7.01-3.22-9.92l.06-.04Z"/><path class="cls-3" d="M171.45,195.81c-1.47-1.97-2.87-4-4.11-6.2-.62-1.09-1.2-2.24-1.7-3.47l-.34-.96c-.11-.33-.17-.69-.26-1.04-.1-.33-.1-.75-.14-1.14-.02-.19-.03-.39,0-.62l.11-.86c.19-.58.56-1.11,1.03-1.51.22-.19.36-.3.53-.42.16-.13.32-.23.48-.34.63-.42,1.25-.78,1.87-1.13,1.24-.69,2.48-1.32,3.73-1.92,2.49-1.22,5.02-2.31,7.54-3.41,3.46-1.49,6.91-3,10.4-4.4,5.02-2.01,10.06-3.95,15.12-5.84l7.6-2.81,3.83-1.36,1.94-.65c.26-.07.84-.28,1.34-.38.26-.06.49,0,.73.04h.02c-.01.07.03-.09.03-.07h.01s.04.03.04.03l.08.05.16.09.32.18.51.42c.17.14.35.28.45.37l.71.63c.46.43.92.85,1.36,1.3.89.88,1.73,1.8,2.56,2.73,3.9,4.53,7.3,9.46,10.07,14.73.41.87.82,1.73,1.18,2.64.18.46.35.91.51,1.41.19.69.41,1.42.36,2.08.03.69-.45,1.25-1.03,1.54-.33.1-.63.27-.99.33-.36.05-.72.13-1.09.16-1.1.07-2.02.02-3-.04-3.83-.29-7.52-.94-11.16-1.86-2.24-.75-1.96-.62.07-.93,1.02-.16,2.46-.33,4.17-.4.86-.04,1.79-.09,2.76-.07.97.03,1.99.07,3.03.15.75.05,1.5.08,2.23.09.35,0,.72,0,1.06-.02l.48-.03c.05,0,.01,0,.03,0h0s0,0,0,0c.03.07-.06-.16-.12-.31l-.2-.48c-1.23-2.59-2.65-5.31-4.22-7.9-1.58-2.59-3.3-5.11-5.18-7.49-.94-1.19-1.92-2.35-2.94-3.45-.52-.55-1.04-1.09-1.58-1.61-.26-.27-.54-.51-.82-.77l-.5-.46c-.03-.05-.08-.07-.14-.05h-.08s-.41.13-.41.13l-1.98.62c-1.33.44-2.66.88-3.99,1.32-8.7,2.95-17.54,6.65-26.23,10.23-3.59,1.49-7.16,3.01-10.69,4.61-1.76.81-3.52,1.61-5.23,2.47-.85.43-1.7.88-2.5,1.35-.4.24-.79.48-1.13.73-.09.06-.17.12-.24.18-.05.04-.08.07-.12.1-.07.07-.15.15-.14.26l-.02.18c-.03.1,0,.24,0,.36.02.25.02.5.1.78.09.54.3,1.1.49,1.66.45,1.12,1.01,2.22,1.66,3.29,3.27,5.3,7.5,10.1,11.87,14.65,3.35,3.42,6.86,6.72,10.64,9.64,1.89,1.45,3.85,2.81,5.91,3.81.26.12.52.21.77.32.13.05.26.11.38.14l.31.09c.31.08.73.2.92-.16.12-.15.18-.23.34-.47l.48-.73c.31-.49.62-1,.92-1.51,3.72-6.41,6.97-13,10.82-19.33.84-1.4,1.66-2.77,2.58-4.15,3.42-5.1,4.97-6.46,6.45-6.9.34-.1.74-.27.98-.28.81-.01-.43,2.1-2.83,5.73-3.56,5.42-6.77,11.32-10.17,17.25-1.69,2.98-3.36,5.98-5.16,9.01-.46.76-.92,1.52-1.44,2.3l-.2.3-.3.41c-.24.33-.53.67-.83.96-.31.27-.64.52-1.05.58-.38.09-.81.05-1.22.04-.2,0-.41-.04-.62-.07l-.63-.18c-.27-.08-.54-.16-.77-.26-.47-.19-.96-.38-1.37-.61-.88-.43-1.68-.9-2.46-1.4-4.58-2.97-8.49-6.49-12.29-10.17-3.76-3.7-7.33-7.58-10.53-11.82l.05-.05Z"/><path class="cls-3" d="M250.94,254.83c-2.61-3.46-3.92-7.88-3.79-12.1.03-2.12.41-4.19.95-6.17.55-1.98,1.26-3.9,2.12-5.72,1.22-2.68,2.63-5.23,4.18-7.66,2.27-3.61,4.94-6.93,6.06-10.6.24-.92.36-1.84.33-2.74,0-.91-.17-1.77-.49-2.66-.33-.89-.78-1.78-1.27-2.72-.4-.71-1.24-2.47-1.74-3.91.39-.36.95-.66,1.42-.94.23-.16.53-.24.81-.36.28-.1.55-.23.84-.31.5-.14.83-.23,1.25-.33.4-.1.79-.18,1.19-.26,2.22-.45,4.42-.77,6.6-1.18,2.14-.42,4.37-.82,6.16-1.62,1.18-.54,2.31-1.33,3.48-2.12,1.18-.8,2.37-1.65,3.93-2.2.32-.13.97-.28,1.51-.3.13.01.29-.08.4.01l.36.2c.26.12.45.32.66.49.2.19.34.45.51.67.14.25.24.53.32.71.13.4.23.8.29,1.18.13.76.18,1.49.23,2.2.03.7.04,1.39.1,2,.05.78.24.83.19.98-.03.05-.12.05-.35,0-.09-.05-.2-.13-.34-.23-.1-.11-.25-.26-.37-.43-.5-.68-1-1.79-1.39-2.98-.21-.59-.43-1.22-.7-1.69-.18-.31-.16-.2-.19-.21-.02,0-.03.02-.03.02,0,0,0,0,0,0,0,0,.02,0,.01,0-.04.02-.08.03-.13.05-.19.09-.38.16-.58.29-.4.21-.84.5-1.27.8l-2.85,1.88c-1.01.65-2.12,1.29-3.41,1.78-1.26.45-2.42.72-3.59.97-2.32.49-4.6.83-6.84,1.22-1.11.19-2.22.39-3.27.64-.27.06-.52.13-.77.19l-.09.03h-.03s-.03,0-.03,0h-.05c-.07.02-.16.04-.22.08.01.07.03.15.06.24,0,.02,0,.03.09.2l.19.39.41.8c.55,1.09,1.14,2.28,1.5,3.65.56,1.99.41,4.15-.17,6.01-.52,1.9-1.35,3.61-2.26,5.23-1.86,3.21-3.89,6.1-5.62,9.15-1.9,3.33-3.54,6.8-4.44,10.44-.43,1.82-.68,3.66-.66,5.5l.07,1.37c.05.45.15.9.22,1.35.09.92.41,1.77.68,2.64.78,2.09,1.96,4.05,3.55,5.7,1.61,1.62,3.47,3,5.52,4.11,3.1,1.68,6.54,2.8,10.05,3.54,3.51.73,7.11,1.06,10.69,1.08,5.57.02,11.08-.57,16.14-2.38,1.11-.39,2.16-.87,3.21-1.38,1.94-.97,3.14-1.72,4.03-2.2.93-.43,1.53-.62,2.16-.64.29,0,.63-.07.85-.03.37.07.29.5-.2,1.26-.24.39-.59.85-1.08,1.32-.46.52-1.1,1-1.84,1.5-2.19,1.49-4.66,2.62-7.21,3.43-2.56.82-5.22,1.28-7.88,1.61-2.67.32-5.35.46-8.03.45-2.71,0-5.43-.17-8.14-.52-4.02-.55-8.05-1.51-11.88-3.2-3.8-1.68-7.47-4.1-10.19-7.54l.05-.06Z"/><path class="cls-3" d="M279.44,204.63c-1.3.39-2.6.74-3.92,1.01-.48.1-.94.26-1.43.33-1.71.27-3.43.33-5.12.39-.75.03-1.5.07-2.25.1-.95,0-1.91.14-2.87-.16-.3-.08-.26-.23,0-.46.12-.12.3-.27.51-.43.21-.14.45-.23.72-.27.94-.14,1.87-.29,2.82-.43.94-.09,1.88-.17,2.83-.23,1.14-.06,2.27-.44,3.41-.67,1.24-.3,2.48-.6,3.69-1.01.75-.23,1.48-.53,2.22-.82,1.09-.48,2.2-.97,3.2-1.61.79-.49,1.43-1.15,2.14-1.72.16-.12.29-.28.45-.4.58-.46.9-.43,1.4-.04.11.09.24.17.34.27.33.31.34.85-.03,1.32-.55.69-1.19,1.35-1.92,1.88-.74.51-1.53,1-2.35,1.41-1.21.64-2.51,1.12-3.79,1.59l-.02-.05Z"/><path class="cls-3" d="M298.82,216.86c-2.05-2.48-4.29-4.84-6.71-7-.88-.79-1.83-1.49-2.74-2.22l-.61-.47c-.1-.08-.2-.16-.3-.22l-.22-.16c-.06-.05-.12-.1-.19-.13-.08,0-.15.04-.22.06l-2.79,1.31c-1.97.91-4.04,1.65-6.14,2.21-1.86.52-3.79.87-5.7,1.06-.62.03-1.24.1-1.86.08-.62-.03-1.24-.04-1.86-.09-1.22-.22-2.49-.29-3.58-.97-.68-.38-.58-.34.11-.45.71-.19,1.88-.34,3.19-.31,1.17.02,2.33-.04,3.48-.2.58-.04,1.15-.14,1.72-.25.58-.08,1.14-.21,1.71-.36,2.28-.54,4.5-1.37,6.74-2.25.67-.27,1.34-.56,2-.9.71-.36,1.42-.73,2.14-1.09.29-.1.58-.22.88-.3.15-.02.3-.09.45-.06l.42.17.43.17c.14.07.27.17.4.25.19.12.36.22.52.34.65.45,1.28.91,1.88,1.4,2.66,2.12,5.12,4.45,7.4,6.95.72.75,1.38,1.56,2.06,2.35.69.78,1.31,1.62,1.94,2.44,1,1.22,1.82,2.59,2.71,3.89.78,1.38,1.66,2.7,2.32,4.13.29.54.57,1.08.86,1.62l.75,1.67c.25.56.52,1.11.75,1.68.2.58.38,1.17.55,1.76.15.52.34,1.03.45,1.57.27,2.03.13,2.71-.54,3.18-.15.11-.3.24-.46.31-.52.21-1.09-.53-1.48-1.84-1.26-3.84-2.74-7.73-4.94-11.43-1.6-2.75-3.46-5.41-5.59-7.86l.05-.05Z"/><path class="cls-3" d="M288.94,262.72c1.65-.15,3.3-.35,4.9-.66,1.56-.3,3.23-.75,4.8-1.22,1.15-.35,2.25-.82,3.3-1.29,1.87-.82,3.47-1.91,4.3-3.59.9-1.73.83-3.72,1-6.06.03-.28.05-.49.12-.86.07-.37.19-.71.33-1.04.3-.65.89-1.16,1.58-1.32.7-.18,1.43-.01,2.06.33.3.2.63.39.86.67.23.21.4.42.57.65.86,1.13,1.45,2.32,1.8,3.6.19.63.31,1.28.4,1.93.12.65-.1,1.35-.22,1.99-.25.81-.15.67-.47.04-.17-.31-.51-.73-.97-1.18-.37-.46-.68-1-.95-1.59-.52-1.03-1.03-2.05-1.61-2.85-.15-.18-.3-.38-.44-.5-.1-.08-.05-.06-.07-.07h0s-.02-.05-.06-.05c-.02,0-.03,0-.05.01l-.02.02h-.01s0,.02-.02.09c-.11.46-.17,1.06-.24,1.69-.14,1.26-.28,2.7-.82,4.09-.57,1.61-1.57,3.27-2.94,4.41-1.35,1.16-2.87,1.92-4.37,2.54-1.66.66-3.34,1.16-5.02,1.61-1.68.46-3.45.8-5.16,1.05-2.13.3-4.25.49-6.38.62-1.71.1-3.41.16-5.12.19h-.16s-.13-.05-.13-.05l-.15-.05-.06-.03h-.03s-.02-.02-.02-.02l-.03-.02c-.03-.17-.08.31-.41-.71.87-1.48.91-.53.95-.8h.05s0,.01,0,.01h.01s.06.02.06.02l.07.02.27.08.53.16,1.07.31c.71.21,1.42.4,2.14.57,2.38.53,4.76.77,7.13.86.52.02,1.03,0,1.55,0,.96,0,1.59,0,2.04.08.45.09.72.25.97.52.11.12.26.23.34.35.27.38-.51.99-2.06,1.2-4.6.61-9.28-.36-13.9-1.34l-.56-.16-.27-.08-.06-.02h0s0,0,0,0c0,0,0,.02,0-.02l.04-.14.11-.34.19-.69.15-.62c.03-.06.14-.28.18-.41l.08-.24c.02-.05.01-.06.04-.15l.11-.3.22-.6s0,0,0,0l.11.04-.65-.1c2.96-.09,6-.3,8.96-.62v.07Z"/><g class="cls-6"><path class="cls-3" d="M193.94,189.81s0,.02-.02.03c.01.05.02.09.03.14l.05.29c.05.18.1.36.18.52.05.13.15.2.22.32.25.38.69.64,1.23.78.24.07.49.08.75.09.33.01.66,0,1,.08.11.02.09.08,0,.15-.09.07-.24.19-.43.25-.65.16-1.4.43-2.19.1-.44-.18-.94-.38-1.31-.74-.39-.4-.66-.87-.83-1.35-.05-.12-.12-.38-.12-.56-.01-.2.01-.38.04-.55.11-.53.4-1,.8-1.37.31-.28.7-.58,1.15-.66.1-.02.19-.04.29-.04.37.01.45.18.42.56,0,.09-.01.18-.03.27-.06.3-.22.53-.36.6-.43.33-.43.35-.62.54-.12.13-.23.41-.24.53h-.04Z"/></g><g class="cls-6"><path class="cls-3" d="M194.2,201.48c-.13.34-.21.77-.17,1.1.01.12.08.24.13.37.17.48.55.93,1,1.31.21.15.45.27.69.35.32.09.64.13.99.12.11,0,.12.05.04.15-.07.1-.24.26-.47.32-.83.18-1.76-.02-2.39-.58-.36-.36-.79-.68-1.06-1.18-.31-.56-.39-1.19-.36-1.74,0-.35.1-.7.21-1.04.17-.51.49-1.02.99-1.4.39-.29.89-.49,1.38-.49.1,0,.21-.01.31.02.35.12.41.29.33.68-.02.09-.04.18-.06.26-.09.28-.3.49-.49.57-.29.13-.44.21-.5.28-.06.05-.07.05-.16.14-.13.11-.3.43-.37.78h-.04Z"/></g><g class="cls-6"><path class="cls-3" d="M207.82,191.07c-.54-.2-1.1-.5-1.46-.98-.13-.16-.28-.31-.38-.49-.31-.65-.39-1.32-.33-1.94.02-.28.06-.55.13-.82.11-.33.31-.66.62-.83.1-.06.17.05.24.2.06.16.16.37.16.51.06.5.03.84.08,1.32.02.29.25.5.43.68.2.2.4.37.68.5.17.08.37.14.57.16.31.03.65.04.95-.09.23-.1.4-.34.53-.52.03-.04.05-.09.08-.12.12-.11.22-.04.62.32l.27.24c.3.27.46.59.34.85-.33.78-1.11,1.09-1.84,1.2-.56.08-1.13.03-1.7-.13v-.05Z"/></g><path class="cls-3" d="M286.02,229.56c-1.75-.57-3.68-.47-5.46-.1-1.67.34-3.36.99-4.68,2.1-1.1.92-1.76,2.34-1.23,3.75.46,1.22,1.52,1.92,2.7,2.34,1.27.46,2.65.59,3.99.72.67.07,1.34.12,2,.19.3.03.6.06.91.1-.19-.02.23.03.29.04.16.02.31.05.46.08.27.05.54.11.81.19.12.03.23.07.34.11.07.02.14.05.2.08-.13-.05-.13-.06,0,0,.09.05.18.1.27.15.05.03.1.07.15.1-.03-.02-.19-.17-.06-.04.06.07.13.13.19.2-.18-.2-.02,0,.04.11-.11-.21-.04-.08,0,.06.04.18-.02-.25,0,.07.01.3.05-.06,0,.11-.01.05-.02.11-.04.16-.1.25.13-.2-.02.04-.05.08-.22.31-.07.13-.08.1-.17.19-.26.27-.05.04-.1.09-.15.13-.24.21.11-.07-.05.04-.13.09-.27.18-.41.26-.68.4-1.29.6-2.11.83s-1.68.38-2.5.46-1.66.11-2.48.06c-.48-.03-.48-.02-.91-.11-.16-.03-.31-.07-.46-.12-.06-.02-.11-.04-.17-.05-.22-.07.19.09-.03,0-.55-.25-1.21-.16-1.54.4-.28.48-.15,1.29.4,1.54,1.27.58,2.73.66,4.11.62,1.62-.06,3.28-.3,4.82-.8,1.34-.44,2.79-1.08,3.61-2.29.72-1.06.67-2.52-.18-3.49-.75-.85-1.93-1.19-3.01-1.39-1.36-.25-2.74-.34-4.11-.48-.33-.03-.67-.07-1-.11-.22-.03-.15-.02-.27-.04-.19-.03-.37-.06-.56-.09-.58-.1-1.15-.24-1.71-.44-.2-.07-.03-.01,0,0-.06-.02-.11-.05-.17-.08-.12-.06-.24-.12-.35-.19-.04-.02-.31-.22-.2-.13.09.08-.17-.16-.21-.21-.18-.19.06.14-.06-.09-.04-.08-.17-.4-.08-.12-.04-.11-.07-.21-.09-.32-.01-.05-.05-.2,0,.03-.01-.05.02-.35-.02-.07.01-.09.11-.38.08-.32-.05.11.21-.33.16-.27.07-.09.52-.52.61-.58.7-.52,1.51-.87,2.34-1.14,1.77-.56,3.78-.81,5.54-.23,1.38.45,1.97-1.72.6-2.17h0Z"/><path class="cls-3" d="M282.81,246.62c-.55-6.62-2.69-12.89-4.4-19.26-.38-1.4-2.55-.8-2.17.6,1.66,6.16,3.79,12.26,4.32,18.66.12,1.43,2.37,1.45,2.25,0h0Z"/><path class="cls-3" d="M288.17,245.72c-2.2-6.28-3.96-12.63-5.09-19.19-.24-1.42-2.41-.82-2.17.6,1.13,6.56,2.89,12.91,5.09,19.19.48,1.36,2.65.77,2.17-.6h0Z"/><path class="cls-3" d="M278.87,157.46c-.11.69-.51,1.39-1.04,1.82-.54.43-1.14.64-1.73.69-.43.04-.87.05-1.29-.1-.77-.24-1.35-.95-1.56-1.58-.23-.66-.21-1.28-.11-1.83.1-.49.18-.96.44-1.45.17-.29.4-.54.71-.73.29-.19.79-.26,1.11-.02.18.16.05.22-.13.31-.22.09-.27.38-.29.54-.06.14-.1.34-.12.51-.06.17-.06.27-.09.52-.05.43-.03.83.01,1.15.03.19.15.35.28.42.12.06.26.08.43.11.38.06.81-.11.94-.37.1-.17.12-.46.07-.68-.07-.26-.25-.54-.54-.64-.1-.04-.21-.05-.31-.03-.32.03-.52.4-.54.66-.01.05.02.12.02.16.01.13-.15.05-.92.06l-.52.02c-.58.05-1.1-.25-1.06-.9.06-.86.58-1.62,1.31-2.1.73-.49,1.77-.66,2.67-.38l.36.15c1.4.58,2.22,2.29,1.98,3.68h-.06Z"/><g class="cls-4"><path class="cls-3" d="M243.51,191.76c0,.25-.11.47-.19.71-.2.31-.42.62-.76.78-.21.09-.39.19-.6.23-.82.07-1.56-.22-2.04-.86-.22-.27-.45-.58-.59-1.09-.04-.15-.08-.3-.1-.45.01-.18-.02-.2-.03-.31-.02-.18-.03-.36-.02-.55,0-.11.08-.11.19-.04.11.07.27.22.37.39l.12.24s0,0,0,0c0,0,0,.01,0,.03,0,.04.01.16.13.38.17.28.29.22.46.24.17.03.41,0,.52-.13.05-.02.06-.06.08-.09.06-.11.07-.24.01-.36-.07-.19-.22-.37-.47-.49-.09-.05-.21-.08-.31-.09-.03.01-.13-.04-.24-.08-.1-.04-.2-.09-.3-.15-.09-.05-.19-.1-.28-.17-.31-.29-.27-.53.19-.84.1-.07.21-.14.32-.2.38-.2.73-.28.87-.28.11,0,.2.02.3.05.05.02.1.03.15.06.03.01.04.02.09.04.06.03.13.09.18.14.53.34,1.06.71,1.36,1.1.45.59.62,1.18.6,1.77h-.04Z"/></g><g class="cls-4"><path class="cls-3" d="M250.9,192.89c.1.39.15.83.07,1.31-.07.48-.34.95-.69,1.27-.26.24-.56.44-.87.5-1.09.19-1.91-.37-2.36-1.01-.2-.28-.33-.56-.45-.84-.15-.35-.27-.7-.23-1.07.01-.12.2-.16.42-.13.22.02.52.1.64.24.2.26.41.48.58.63.09.07.14.15.21.23.05.07.08.12.15.19.16.19.45.05.47.01.03-.03.12-.03.1-.27-.02-.14-.09-.33-.21-.48-.1-.12-.17-.23-.3-.34-.14-.12-.3-.23-.49-.31-.3-.14-.69-.14-1.11-.29-.09-.03-.2-.05-.29-.1-.33-.2-.31-.45.16-.96.11-.12.21-.24.33-.35.4-.37.78-.6.96-.64.51-.12.94.06,1.64.54.23.17.57.45.8.77.23.33.4.67.53,1.07l-.05.02Z"/></g><g class="cls-4"><path class="cls-3" d="M259.23,186.41c.4.93.31,1.83,0,2.66-.12.3-.25.64-.51.91-.47.5-1.23.74-1.79.66-.6-.07-1.13-.36-1.39-.74-.24-.33-.43-.61-.59-.9-.21-.36-.38-.74-.37-1.16,0-.13.2-.19.46-.19.25,0,.59.03.75.16.27.23.54.43.76.53.11.04.21.07.26.07.03.03.02.08.02.14,0,.08.06.04.05.07.02.04-.03-.04-.03-.04,0,0,0-.02.01-.04.08-.08.13-.4.1-.64-.03-.17-.03-.27-.16-.41-.2-.22-.51-.44-.9-.48-.31-.04-.65.13-.98.25-.07.03-.15.08-.22.08-.28,0-.36-.2-.4-.95l-.03-.51c-.01-.57.12-1.05.37-1.24.72-.55,1.62-.49,2.63-.11.75.33,1.47.82,2.04,1.85l-.06.03Z"/></g><path class="cls-3" d="M276.15,111.96c.76,2.37,2.85,3.98,5.13,4.79,2.12.76,4.77.81,6.57-.71,1.08-.9,1.53-2.27,1.59-3.64.03-.68-.59-1.25-1.25-1.25-.7,0-1.22.57-1.25,1.25,0,.13-.02.26-.03.39-.01.15,0-.05,0-.07,0,.05-.02.1-.03.15-.03.11-.05.23-.08.34-.02.08-.17.43-.04.14-.08.18-.18.34-.28.51-.13.21.03-.02-.01.02-.08.08-.16.16-.24.24-.06.07-.31.22-.04.05-.07.05-.14.1-.21.14-.08.05-.17.1-.26.15-.12.06-.29.11-.06.03-.2.06-.39.13-.59.18-.09.02-.18.03-.27.05-.03,0-.19.03-.02,0,.2-.03-.07,0-.11,0-.44.03-.87.02-1.3-.03-.19-.02.22.04.04,0-.05,0-.1-.02-.15-.02-.1-.02-.2-.04-.3-.06-.25-.05-.5-.12-.74-.2-.21-.07-.43-.15-.63-.23.2.08,0,0-.08-.04-.13-.06-.25-.12-.37-.18-.2-.1-.39-.22-.58-.34-.1-.06-.2-.13-.3-.2-.06-.04-.36-.29-.16-.11-.19-.16-.38-.33-.56-.51-.09-.09-.18-.19-.27-.29-.06-.07-.23-.29-.08-.09-.15-.21-.29-.43-.42-.65-.03-.05-.17-.34-.1-.2.06.13-.08-.23-.1-.3-.21-.64-.87-1.06-1.54-.87-.63.17-1.08.89-.87,1.54h0Z"/><path class="cls-3" d="M300.81,113.4c-.03.36.05-.11-.01.09-.03.1-.05.22-.08.32-.03.09-.19.4-.02.08-.05.09-.09.19-.15.28s-.12.18-.17.26c.2-.3,0-.02-.06.05-.07.08-.15.15-.23.22-.24.24.12-.05-.06.05-.19.11-.37.23-.56.33-.31.16.12-.02-.08.04-.11.03-.21.08-.32.11-.22.07-.45.11-.68.15.37-.07-.03,0-.11,0-.12,0-.24.01-.36.01-.24,0-.49-.02-.73-.04.36.04-.06-.02-.13-.03-.12-.03-.25-.06-.37-.09s-.24-.07-.36-.11c-.06-.02-.45-.19-.15-.05-.24-.11-.47-.23-.7-.37-.11-.07-.22-.15-.33-.22-.11-.08-.11-.08,0,0-.05-.04-.11-.09-.16-.13-.21-.19-.41-.39-.6-.6-.05-.05-.09-.11-.14-.17.08.11.08.1,0-.01-.08-.13-.17-.25-.25-.38-.17-.27-.31-.55-.44-.84-.27-.62-1.17-.76-1.71-.45-.64.37-.72,1.09-.45,1.71.9,2.04,2.75,3.64,4.94,4.11,1.93.42,4.08.07,5.57-1.31.86-.8,1.29-1.87,1.39-3.02.05-.67-.61-1.25-1.25-1.25-.72,0-1.2.57-1.25,1.25h0Z"/><path class="cls-3" d="M279.78,101.83c.43-.13.87-.23,1.31-.31.24-.05.47-.09.71-.13.14-.02.28-.04.42-.06.15-.02,0,0-.03,0,.08-.01.16-.02.24-.03.46-.06.92-.1,1.37-.11.23,0,.47,0,.7.02s-.08-.02.15.03c.16.03.32.07.47.12.12.04.23.07.34.12-.18-.07.09.05.14.08.11.06.21.12.31.19,0,0,.16.13.06.05-.08-.07.09.09.1.1l.04.04c.09.1.11.12.06.05-.05.02-.01-.74-.01-.76.02-.11.18-.14,0-.06-.21.09.08-.01-.14.04-.01,0-.2.05-.07.02.12-.03-.11,0-.14.01-.27.01-.53,0-.8-.03-.12-.01-.32-.05-.08,0-.12-.02-.24-.04-.36-.05-.5-.08-1-.17-1.5-.27-.58-.12-1.16-.26-1.73-.43-.26-.08-.52-.16-.77-.26-.07-.02-.44-.18-.2-.07-.12-.06-.24-.11-.36-.17-.58-.29-1.38-.17-1.71.45-.3.57-.17,1.4.45,1.71,1.17.59,2.45.93,3.72,1.2s2.72.61,4.04.36c.86-.16,1.77-.75,2-1.64.27-1.02-.49-1.81-1.24-2.36-1.13-.82-2.6-1.04-3.96-.94s-2.85.3-4.2.71c-.63.19-1.08.89-.87,1.54s.87,1.07,1.54.87h0Z"/><path class="cls-3" d="M296.06,103.31c.14-.07.27-.14.41-.2.13-.06.14-.06.02-.01.05-.02.11-.04.16-.06.25-.1.5-.18.76-.25.28-.08.55-.14.84-.19.06-.01.39-.06.12-.02.15-.02.3-.03.46-.04.53-.04,1.07-.02,1.6.04-.27-.03.06.01.12.02.13.02.26.05.39.09.06.02.12.04.18.06l-.13-.05c.05.03.11.06.16.09-.09-.04-.15-.11-.2-.2.07.12.06.1-.02-.06-.01-.18-.02-.22-.02-.12,0,.1,0,.06.02-.12-.04.13-.03.11.03-.05-.11.22.15-.18-.05.07-.06.06-.04.04.06-.05-.06.04-.12.07-.19.1.25-.12-.17.02-.22.04-.26.07.18,0-.11.01s-.55.03-.83.03-.56-.03-.84-.05c-.15-.02-.16-.02-.03,0-.08-.01-.16-.02-.24-.04-.12-.02-.24-.04-.35-.07-.27-.06-.55-.13-.81-.22-.15-.05-.3-.1-.45-.16-.08-.03-.15-.06-.22-.09.11.05.1.04-.03-.02-.59-.27-1.37-.19-1.71.45-.29.55-.19,1.42.45,1.71,1.19.53,2.4.86,3.7.96,1.21.09,2.73.05,3.63-.87,1.02-1.05.9-2.82-.46-3.52-.59-.3-1.23-.39-1.88-.46-.53-.06-1.07-.07-1.6-.03-1.39.1-2.72.48-3.96,1.13-.58.3-.8,1.16-.45,1.71.38.59,1.09.77,1.71.45h0Z"/><path class="cls-3" d="M281.59,130.62c.31,1.45,1.36,2.71,2.68,3.36,1.48.73,3.19.84,4.76.32.62-.2,1.09-.87.87-1.54-.2-.62-.87-1.09-1.54-.87-.16.05-.33.1-.49.14-.07.02-.15.03-.22.05-.04,0-.09.02-.13.02-.1.02-.06.01.11-.01-.23.09-.63.04-.87.03-.09,0-.17-.01-.25-.02-.24-.02.2.04.04,0s-.3-.06-.44-.09c-.13-.03-.26-.07-.39-.12-.04-.01-.08-.03-.11-.04-.09-.03-.05-.02.11.05,0-.03-.16-.07-.18-.08-.12-.06-.23-.12-.34-.19-.09-.06-.25-.22-.35-.24.08.02.2.17.04.03-.05-.04-.1-.08-.14-.13-.1-.1-.19-.2-.29-.3-.16-.18.03-.02.03.05,0-.03-.11-.16-.13-.19-.07-.11-.13-.22-.19-.33-.02-.04-.11-.25-.03-.06s0-.02-.02-.06c-.05-.15-.09-.29-.12-.44-.14-.64-.92-1.07-1.54-.87-.67.22-1.02.85-.87,1.54h0Z"/><path class="cls-3" d="M293.83,115.78c.15.68.33,1.38.54,2.08.08.25.22.48.29.73.28.89.46,1.86.64,2.81.08.43.22.83.33,1.25.17.52.27,1.1.12,1.72-.04.18-.2.14-.41.01-.22-.14-.5-.29-.69-.53-.3-.4-.56-.85-.83-1.29-.25-.45-.5-.92-.63-1.45-.2-.62-.52-1.22-.78-1.83-.27-.69-.51-1.4-.74-2.11-.14-.45-.27-.89-.41-1.34-.21-.68-.36-1.38-.55-2.09-.09-.28-.18-.55-.28-.84-.1-.29-.21-.58-.25-.94-.02-.15-.07-.3-.07-.46.07-.62.34-.8,1.06-.6.16.04.32.08.48.13.5.19.95.53,1.06.7.35.54.49,1.23.69,2.08.15.62.29,1.29.5,1.96l-.06.02Z"/><path class="cls-3" d="M193.01,86.26c-1.46.05-2.93-.91-2.15-2.74,1.03-2.42,4.76-2.29,4.51.73-.11,1.33-1.24,1.97-2.37,2.01Z"/><path class="cls-2" d="M104.33,125.16c-1.34,1.18-3.47,1.4-4.15-.94-.9-3.09,2.72-5.85,4.83-2.8.92,1.34.36,2.83-.67,3.74Z"/><path class="cls-2" d="M141.9,53.94c1.42-.43,3.1.14,2.81,2.14-.39,2.64-4.08,3.47-4.61.45-.23-1.33.71-2.25,1.8-2.58Z"/><path class="cls-3" d="M136.68,228.19c-1.5-.44-2.67-1.88-1.29-3.39,1.83-2,5.57-.61,4.34,2.24-.54,1.25-1.89,1.5-3.05,1.16Z"/><path class="cls-3" d="M87.34,113.1c-.94.83-2.44.98-2.91-.65-.63-2.17,1.91-4.11,3.39-1.97.65.94.25,1.98-.48,2.62Z"/><path class="cls-3" d="M408.72,91.5c-1.67.04-3.32-1.09-2.4-3.16,1.21-2.74,5.46-2.54,5.13.9-.15,1.51-1.44,2.23-2.73,2.26Z"/><path class="cls-2" d="M435.61,143.45c-.35,2.01-2.08,3.72-4.35,2.14-3-2.1-1.76-7.14,2.28-5.94,1.77.53,2.33,2.25,2.07,3.8Z"/><path class="cls-3" d="M417.26,159.78c-1.52.35-3.24-.36-2.79-2.43.59-2.73,4.5-3.35,4.85-.15.15,1.4-.89,2.31-2.06,2.58Z"/><path class="cls-2" d="M384.9,227.46c-.22,1.31-1.35,2.42-2.83,1.39-1.95-1.36-1.15-4.65,1.49-3.86,1.15.34,1.52,1.47,1.34,2.47Z"/><path class="cls-3" d="M288.03,182.3c.12.14-.14.26-.61.39-.15.04-.6.06-.67.02-.13-.08-.27-.15-.37-.24-.05-.05-.46-.87-.6-1.16-.12-.28-.15-.56-.16-.84-.01-.57-.05-1.14-.03-1.71,0-.13.03-.25.1-.37.22-.41.26-.83.26-1.27,0-.07.03-.14-.07-.23-.2-.15.11-1.3.23-1.43.29-.32.51-.65.76-.97.04-.04.03-.1.16-.12.3-.03.3-.15.36-.25.08-.14.19-.27.36-.38.08-.06.23-.09.35-.13.11-.04.37.09.4.12.07.09.22.09.34.12.04.01.09.03.12.04.05.03.59,1.07.59,1.16.04.04-.03,1.25.03,1.4.02.08-.06.13-.11.19-.01.01,0,.27.03.52,0,.25,0,.5,0,.52-.08.19-.01.39-.29.55-.05.03-.05.07-.05.11-.02.34-.17.66-.28.99-.06.17-.04.35-.07.52,0,.03-.04.06-.06.09-.02.04-.06.08-.06.12-.02.41-.17.82-.1,1.24.03.09-.31.55-.28.67,0,.06-.35.28-.3.33Z"/><path class="cls-3" d="M289.99,185.29c-.02.14-.2,0-.47-.26-.09-.09-.29-.39-.29-.45,0-.12-.01-.23,0-.33,0-.06.41-.57.56-.75.14-.18.31-.3.49-.41.37-.21.75-.42,1.15-.59.09-.04.18-.06.28-.05.35.03.65-.06.96-.18.05-.02.11-.02.15-.11.06-.16.96-.33,1.08-.27.3.12.59.2.86.36.04.02.08,0,.12.09.07.23.16.2.24.23.12.03.23.09.33.17.05.04.09.18.13.28.04.1-.03.42-.05.45-.06.1-.04.26-.05.39,0,.05-.01.11-.02.14-.03.07-.62.62-.67.63,0,0-.2.06-.4.11-.2.04-.41.08-.45.11-.04.02-.09-.03-.14-.06-.03-.02-.61.18-.63.18-.13-.02-.24.07-.4-.09-.03-.03-.06-.02-.08-.01-.21.06-.44.03-.67.04-.12,0-.22.06-.33.09-.02,0-.05-.01-.07-.02-.03,0-.06-.02-.09,0-.25.1-.55.11-.77.29-.05.03-.42,0-.47.07-.03.03-.29-.12-.3-.07Z"/><path class="cls-3" d="M290.54,188.77c-.15.05-.14-.19-.02-.58.04-.13.23-.47.28-.51.1-.07.19-.15.27-.2.05-.02.57-.03.75-.09.17-.04.33-.03.48,0,.32.05.65.05,1,.07.08,0,.15.03.23.08.26.16.55.19.86.18.05,0,.1.02.16-.06.09-.13.98-.02,1.09.07.26.21.52.37.76.58.03.03.09.02.09.12,0,.25.1.24.17.29.11.06.2.16.28.28.04.06.03.21.03.33,0,.11-.2.41-.23.44-.1.08-.14.24-.21.38-.02.04-.05.1-.07.14-.06.07-.77.39-.81.37,0-.02-.74-.1-.84-.07-.05,0-.08-.05-.12-.1,0-.02-.67,0-.7,0-.13-.05-.29,0-.4-.22-.02-.04-.05-.04-.08-.04-.26-.02-.51-.14-.77-.24-.13-.05-.28-.06-.42-.09-.03,0-.05-.04-.07-.06-.03-.02-.06-.05-.09-.06-.34-.07-.65-.25-1.01-.31-.09,0-.38-.35-.47-.37-.06,0-.09-.34-.15-.32Z"/></svg>