<?xml version="1.0" encoding="UTF-8"?><svg id="Layer_1" xmlns="http://www.w3.org/2000/svg" width="520" height="520" viewBox="0 0 520 520"><defs><style>.cls-1{opacity:.35;}.cls-1,.cls-2,.cls-3{fill:#0056FF;stroke-width:0px;}.cls-2{opacity:.4;}.cls-4{opacity:.45;}</style></defs><path class="cls-3" d="m282.21,435.41s5.94-.46,7.78-1.44c1.85-.98-4.22-1.66-4.22-1.66l-3.56,3.1Z"/><path class="cls-3" d="m288.34,425.64s13.59.83,13.58-.94c0-1.19-5.78-2.65-5.78-2.65l-7.8,3.6Z"/><path class="cls-3" d="m145.97,419.78c-.62-.38-10.8,1.7-10.8,3.6,0,2.73,20.43,3.26,20.43,3.26l-9.63-6.86Z"/><g class="cls-4"><path class="cls-3" d="m165.24,378.31c-.11.28-.26.41-.44.44-.11.02-.22.1-.33.14-.09.04-.17.09-.26.1-.26.02-.5.13-.75.26-.44.27-2.91.55-3.16.54-.19.02-.58.05-.93.09-.36.02-.69.05-.79.11-.2.13-1.15.08-1.41.18-.1.04-.21.04-.31.03-.45-.04-.89.37-1.35.32-.28-.03-.56,0-.84,0-.07,0-.14.02-.2,0-.71-.16-1.45.01-2.18-.11-.14-.03-.3-.05-.44-.08-.09-.02-.19-.06-.28-.04-.54.1-1.03-.09-1.53-.28-.07-.02-.13-.08-.2-.06-.42.16-.76-.13-1.15-.16-.13,0-.24-.07-.36-.1-.09-.03-.18-.1-.28-.09-.45,0-.86-.21-1.29-.29-.03,0-.05-.03-.08-.02-.52.03-.92-.28-1.26-.71-.21-.24-.43-.45-.78-.41-.07.01-.14,0-.17-.06-.18-.3-.43-.45-.66-.65-.01,0,0-.04-.01-.06-.02-.05.36-.72.45-.86.1-.13,1.33-1.72,1.38-1.76.05-.03.12-.08.15-.07.11,0,.25-.06.48-.32.12-.14.19-.16.22-.11.26.37.74.34,1.09.59.15.11.34.13.51.2.87.33,1.78.64,2.75.84.17.04.33.11.49.22.15.11.31.16.47.19.28.05.56.07.85.09l1.21.16c.68.08,1.37.16,2.06.2.02,0,.05.02.07,0,.42-.26,1.7-.11,1.79-.12.38-.02.75-.06,1.13-.04.38,0,.75-.05,1.14,0,.34.05.66,0,1-.02.05,0,.1-.02.15-.01.55.11,2.79.03,3.06-.01.06,0,.13.03.19.12.06.08.13.11.19.18.06.07.11.2.18.25.06.06.13.06.2.09.07.04.12.17.13.31.02.15.08.64.09.78Z"/></g><path class="cls-3" d="m158.67,389.55c-.08.3-.19.43-.34.47-.09.02-.17.1-.26.15-.07.04-.13.1-.2.11-.21.02-.4.13-.59.28-.18.13-.75.33-1.32.41-.57.06-1.13.06-1.23.07-.31.03-1.24.04-1.39.17-.16.14-.94.09-1.14.21-.08.05-.17.05-.26.04-.37-.05-.72.41-1.09.38-.23-.02-.46,0-.69.01-.05,0-.11.03-.16.02-.59-.14-1.2.07-1.8,0-.12-.02-.25-.04-.37-.06-.08-.01-.16-.05-.24-.02-.44.15-.87-.05-1.28-.19-.06-.02-.11-.08-.17-.04-.35.17-.64-.14-.96-.15-.11,0-.2-.06-.3-.1-.08-.03-.15-.1-.23-.1-.38,0-.71-.17-1.07-.28-.02,0-.04-.02-.07-.02-.45.07-.74-.33-1.02-.71-.17-.22-.34-.4-.62-.39-.05,0-.11-.01-.13-.06-.14-.27-.34-.4-.51-.58,0,0,0-.03-.01-.05-.02-.04.28-.57.35-.67.07-.1,1.04-1.34,1.08-1.38.04-.03.1-.06.13-.07.1,0,.21-.06.4-.29.1-.12.16-.14.19-.11.22.26.64.16.92.29.14.03.29.03.43.06.33.11.72.14,1.07.22.38.05.75.08,1.14.14.14.02.27.07.39.18.12.1.24.15.38.17.23.03.45,0,.68.03l.97.09c.55.05,1.11.08,1.67.1.02,0,.04.02.06,0,.33-.29,1.37-.18,1.45-.19.31-.02.61-.07.92-.07.31,0,.61-.08.92-.05.27.03.54-.04.81-.07.04,0,.08-.03.12-.02.3.03.84.08,1.35.12.55.04,1.07.05,1.18.05.05,0,.11.05.17.14.05.09.11.12.17.21.05.08.1.22.15.28.05.07.11.07.17.11.06.04.1.18.12.33.02.16.08.68.1.83Z"/><path class="cls-3" d="m266.99,361.13c.12-.15.27-.24.44-.28.1-.02.21-.08.31-.12.08-.03.16-.07.24-.09.24-.04.47-.12.7-.23.42-.24,2.69-.61,2.92-.62.35-.02,1.4-.05,1.58-.15.19-.1,1.05-.08,1.29-.17.09-.04.19-.04.29-.03.41.04.81-.35,1.22-.33.25.01.51-.02.76-.03.06,0,.12-.03.18-.02.65.1,1.3-.11,1.96-.07.13,0,.27.02.4.03.08,0,.17.03.25,0,.46-.16.92-.03,1.37.06.06.01.12.06.18.02.35-.2.68,0,1.02-.05.11-.02.22.01.33.03.08.01.17.06.25.03.38-.09.75.03,1.13.02.02,0,.05.01.07,0,.42-.17.8.07,1.18.3.23.14.46.26.72.1.05-.03.11-.05.15-.01.22.19.47.21.71.29.01,0,.02.03.03.04.04.03-.02.75-.04.9-.02.15-.43,1.97-.47,2.02-.04.05-.08.11-.11.12-.11.04-.22.14-.33.45-.06.16-.13.2-.18.17-.42-.24-.9-.06-1.35-.22-.19-.06-.39-.01-.58-.03-.97-.05-1.95-.2-2.93-.31-.17-.02-.34-.06-.51-.16-.16-.09-.32-.13-.48-.15-.28-.03-.56-.01-.84-.03l-1.19-.11-1.99-.17s-.05-.01-.07,0c-.4.22-1.63.05-1.72.06-.36,0-.72,0-1.08,0-.36-.02-.72.02-1.08-.02-.32-.07-.63-.07-.95-.1-.05,0-.09,0-.14,0-.52-.13-2.64-.31-2.9-.28-.06,0-.12-.03-.17-.07-.05-.04-.11-.06-.17-.1-.05-.04-.09-.1-.14-.13-.05-.03-.12-.03-.17-.04-.06-.02-.09-.08-.09-.14,0-.07,0-.3,0-.37Z"/><g class="cls-4"><path class="cls-3" d="m271,369.33c.17-.16.35-.28.55-.34.12-.03.25-.12.37-.15.1-.03.19-.07.29-.07.28,0,.55-.09.82-.19.25-.08,1.04-.24,1.79-.26.73.03,1.47.06,1.6.06.4.02,1.61.09,1.82,0,.22-.1,1.22.02,1.5-.07.11-.03.22-.02.33,0,.47.08.96-.3,1.43-.24.29.04.58.03.88.04.07,0,.14-.02.21,0,.74.19,1.51,0,2.26.15.15.03.31.06.45.09.1.02.19.06.29.04.54-.09,1.06.1,1.57.26.07.02.13.08.2.05.41-.16.77.1,1.16.1.13,0,.25.05.37.07.1.02.19.08.28.07.44-.04.86.1,1.29.12.03,0,.05.01.08,0,.49-.13.9.14,1.32.38.26.14.51.26.82.1.06-.03.12-.05.17-.02.25.19.52.21.79.29.01,0,.02.03.03.04.04.04-.04.8-.07.96-.03.16-.55,2.09-.6,2.14-.04.04-.09.1-.13.11-.13.02-.26.12-.4.42-.07.16-.16.19-.22.15-.49-.33-1.05-.27-1.57-.45-.22-.08-.46-.06-.68-.1-1.13-.2-2.26-.38-3.39-.54-.2-.03-.39-.08-.58-.19-.18-.1-.36-.15-.55-.17-.32-.04-.64-.05-.96-.08-.45-.04-.91-.12-1.36-.19l-2.28-.34s-.05-.02-.08,0c-.48.21-1.89-.07-1.99-.07-.42-.03-.84-.05-1.25-.1-.42-.05-.83-.03-1.25-.11-.36-.07-.73-.06-1.1-.08-.05,0-.11,0-.16,0-.3-.04-1.05-.22-1.77-.37-.72-.16-1.41-.24-1.56-.32-.07-.02-.13-.08-.19-.15-.05-.07-.12-.11-.18-.17-.05-.06-.09-.14-.14-.19-.06-.05-.13-.06-.19-.09-.06-.03-.09-.1-.08-.17.01-.08.04-.32.05-.4Z"/></g><path class="cls-3" d="m278.42,383.73c.14-.19.32-.3.52-.35.12-.03.25-.1.37-.15.1-.04.19-.09.29-.11.28-.05.56-.15.84-.28.51-.33,3.26-.39,3.53-.4.42-.01,1.68,0,1.9-.09.23-.1,1.27-.03,1.56-.1.12-.03.23-.03.35-.01.48.07,1-.32,1.49-.24.3.05.6.04.9.06.07,0,.15-.01.22,0,.76.19,1.55.07,2.31.19.15.03.31.06.46.08.1.02.19.06.3.04.56-.09,1.08.09,1.6.24.07.02.14.07.21.05.42-.16.79.08,1.18.07.13,0,.25.04.37.06.1.02.19.07.29.06.45-.05.86.09,1.3.11.03,0,.06.01.08,0,.24-.07.47-.04.69.04.22.08.42.29.64.43.26.19.52.33.81.25.06-.02.12-.02.16.02.25.21.53.27.79.39.01,0,.02.03.03.04.04.04.02.59,0,.7-.01.1-.37,1.5-.42,1.56-.04.04-.09.09-.13.1-.14.04-.26.13-.39.4-.07.14-.15.18-.22.17-.55-.12-1.15.06-1.71.03-.23-.07-.48-.04-.72-.07-1.19-.14-2.37-.36-3.53-.55-.21-.03-.41-.1-.6-.21-.18-.1-.37-.16-.56-.19-.33-.05-.66-.07-.99-.11l-1.4-.21-2.33-.34s-.05-.02-.08-.01c-.49.19-1.92-.12-2.02-.11-.42-.03-.85-.06-1.27-.1-.42-.04-.84-.03-1.26-.1-.37-.05-.73-.03-1.1-.05-.05,0-.11,0-.16,0-.3-.04-1.07-.09-1.8-.12-.74-.08-1.44-.1-1.59-.1-.07,0-.14-.03-.2-.09-.06-.05-.14-.08-.2-.12-.06-.05-.11-.13-.17-.16-.06-.04-.14-.04-.21-.06-.07-.02-.11-.1-.11-.19,0-.09-.02-.39-.02-.48Z"/><g class="cls-4"><path class="cls-3" d="m154.96,405.79c-.07.12-.16.22-.28.29-.07.04-.14.1-.2.16-.05.04-.1.09-.16.12-.17.09-.32.21-.46.35-.25.27-1.81,1.2-2.02,1.17-.26.1-1.04.37-1.16.49-.12.13-.79.31-.95.44-.06.05-.14.07-.22.09-.32.06-.57.47-.9.54-.21.04-.4.12-.61.17-.05.01-.09.05-.15.05-.55,0-1.07.24-1.63.25-.11,0-.23,0-.34,0-.07,0-.15-.02-.22,0-.39.15-.79.07-1.19-.04-.05-.01-.11-.05-.16-.02-.3.17-.59-.01-.89,0-.1,0-.19-.03-.29-.05-.07-.02-.14-.06-.22-.05-.34.05-.67-.09-1-.15-.02,0-.04-.02-.06-.01-.4.08-.68-.27-.96-.52-.17-.16-.34-.29-.59-.26-.05,0-.1,0-.13-.03-.14-.21-.34-.3-.51-.43,0,0,0-.03-.01-.04-.02-.04.24-.57.3-.68.07-.1.91-1.39.95-1.42.04-.03.08-.06.11-.07.08,0,.19-.06.34-.27.08-.11.14-.13.16-.09.19.29.54.24.79.38.11.06.25.05.37.07.62.12,1.24.3,1.92.31.12,0,.23.05.35.11.11.06.23.08.34.08.2,0,.39-.03.59-.05l.85-.06c.48-.07.97-.07,1.47-.13.02,0,.04,0,.05,0,.25-.24,1.19-.3,1.25-.32.27-.06.53-.14.81-.18.27-.05.53-.15.82-.18.25-.03.47-.12.73-.14.04,0,.07-.02.11-.02.43.02,2.11-.22,2.32-.26.05,0,.09,0,.15.02.05.02.1.02.14.04.04.02.08.05.12.06.04,0,.09,0,.14,0,.05,0,.08.03.09.07,0,.05.04.19.05.23Z"/></g><path class="cls-1" d="m341.92,254.93l-15.67-22.8s-.3-10.06,3.3-18.42c3.59-8.36,10.19-21.86,18.29-26.29,8.09-4.42,10.7-3.01,10.35.63s-10.65,30.59-10.52,35.39c.14,4.8,5.06,16.6,7.22,18.86,2.17,2.25,9.23,11.68,9.23,11.68l-22.2.95Z"/><path class="cls-1" d="m404.77,240.61l12.67-30.43s19.62-8.63,29.77-7.8c10.16.83,31.54,8.02,24.48,11.97-7.06,3.95-29.42,2.33-37.3,12.29-7.88,9.96-14.13,24.92-14.13,24.92l-15.5-10.95Z"/><path class="cls-3" d="m382.35,408.47c-1.06.34-2.16.6-3.24.88-.39.1-.76.28-1.16.37-.7.15-1.4.29-2.11.4-.71.09-1.43.17-2.14.26-.62.09-1.24.23-1.84.38-.78.17-1.53.5-2.43.09-.3-.23-.24-.11-.1-.43.12-.41.38-.98.77-1.24,1.45-.73,2.93-1.24,4.5-1.54.95-.16,1.86-.56,2.78-.87,1.02-.32,2.04-.64,3.06-.99.63-.2,1.26-.41,1.88-.65.93-.36,1.88-.71,2.75-1.2.67-.39,1.24-.94,1.86-1.39.14-.1.26-.22.4-.31.53-.32.81-.23,1.33.39.12.14.24.28.35.42.36.49.38,1.07.07,1.48-.47.61-1,1.17-1.6,1.62-.62.43-1.28.79-1.96,1.11-1.01.49-2.07.88-3.13,1.28l-.03-.07Z"/><path class="cls-3" d="m136.48,410.64c-.13-.37-.25-.74-.4-1.1-.05-.13-.17-.21-.22-.34-.08-.24-.16-.47-.23-.72-.05-.26-.11-.51-.19-.75-.07-.21-.19-.38-.32-.55-.06-.29-.26-.48-.25-.83,0-.11.22-.27.51-.41.28-.13.67-.28.85-.22l.22.09s.13-.01.23-.05l.09.06c.11.08.22.18.31.27.19.2.34.43.43.71.1.34.38.56.57.83.2.32.37.65.56.98.11.2.23.41.34.61.18.3.32.63.57.87.19.19.52.26.79.38.06.03.14.04.19.07.18.14.06.32-.54.86l-.41.37c-.48.4-.93.65-1.17.64-.72-.03-1.08-.38-1.39-.77-.23-.29-.41-.62-.58-.96l.06-.05Z"/><path class="cls-3" d="m258.14,413.91c2.25.28,4.52.59,6.78.95.83.14,1.66.21,2.48.38,2.9.6,5.78,1.37,8.57,2.46,1.23.5,2.49.95,3.65,1.62,1.46.84,3.04,1.76,3.87,3.35.27.47.11.5-.4.4-.25-.06-.6-.13-1.01-.2-.19-.05-.43-.06-.63-.13-.19-.08-.39-.17-.58-.28-.67-.4-1.37-.75-2.09-1.06l-1.09-.45c-.35-.17-.72-.33-1.08-.49-1.46-.63-2.98-1.18-4.55-1.71-1.88-.64-3.95-.88-5.97-1.19-2.22-.34-4.46-.67-6.72-.93l-4.18-.48c-2.12-.23-4.25-.49-6.38-.79-1.66-.27-3.31-.33-5.09-1.19-.39-.21-.8-.45-1.15-.85-.66-.78-.74-1.62-.61-2.04.13-.45.39-.64.75-.71.16-.04.33-.08.48-.08.52.01.72.72,1.02.98.19.18.53.34,1.05.55.51.19,1.15.34,1.82.48,1.34.26,2.8.46,4.29.63,2.25.24,4.5.49,6.76.73v.06Z"/><path class="cls-3" d="m357.38,192.19c-.13,1.09-.37,2.14-.67,3.16-.1.37-.16.75-.27,1.12-.44,1.28-.94,2.5-1.42,3.74-.21.55-.39,1.1-.61,1.64-.26.7-.52,1.4-.94,2.03-.13.2-.32.09-.48-.18-.16-.27-.33-.7-.27-1.12.13-.74.21-1.48.4-2.2.22-.7.45-1.4.73-2.1.34-.83.44-1.76.61-2.64.19-.96.35-1.93.47-2.9.07-.59.12-1.19.11-1.78-.01-.89-.07-1.8-.35-2.63-.2-.65-.65-1.18-1.05-1.68-.1-.1-.21-.19-.29-.3-.33-.39-.25-.63.22-1.17.11-.12.21-.25.32-.36.38-.39.88-.46,1.34-.16,1.25.97,1.88,2.59,2.14,4.13.19,1.15.16,2.3.07,3.4h-.06Z"/><path class="cls-3" d="m468.57,216.02c-.96.32-1.93.51-2.87.71-.34.07-.67.18-1.02.23-1.22.16-2.42.29-3.62.34-.53.04-1.05.11-1.57.19-.33.05-.66.13-.99.15-.34.01-.68,0-1.02-.03-.22-.03-.22-.21-.09-.46.14-.25.4-.62.76-.81.65-.28,1.31-.42,1.97-.59.66-.15,1.32-.29,2-.32.82-.04,1.61-.34,2.39-.56.87-.22,1.72-.48,2.55-.78.5-.21,1.01-.38,1.49-.63.74-.35,1.43-.78,2.02-1.32.43-.45.73-.99,1.01-1.51.07-.11.11-.23.17-.35.23-.42.45-.46,1.03-.28.13.04.27.07.4.12.43.16.65.54.55,1-.12.7-.46,1.34-.85,1.94-.21.29-.46.55-.71.82-.27.24-.55.47-.83.69-.86.62-1.8,1.11-2.74,1.48l-.03-.05Z"/><path class="cls-3" d="m353.73,253.46c-1.01.12-2.03.25-3.04.48-.37.07-.71.23-1.08.31-1.29.31-2.6.62-3.89,1.05-.57.2-1.12.44-1.65.71-.7.32-1.38.67-2.18.78-.29-.05-.34-.23-.32-.66.02-.42.19-.95.55-1.23.33-.23.66-.47,1.01-.67.36-.17.73-.33,1.11-.48.75-.3,1.52-.55,2.33-.73.96-.22,1.89-.63,2.86-.88,1.06-.28,2.15-.49,3.23-.64.67-.1,1.34-.17,2.01-.25,1.01-.08,2.03-.15,3.03-.23.78-.07,1.54-.25,2.31-.36.17-.02.34-.06.51-.06.64-.03.84.12.97.68.03.13.07.25.09.38.06.43-.2.78-.65.92-1.34.42-2.72.49-4.1.63-1.03.08-2.05.17-3.07.32v-.05Z"/><path class="cls-3" d="m412.21,240.72c.85.71,1.69,1.44,2.53,2.17.31.26.65.48.94.75,1.02,1,2.01,2.02,2.99,3.04.43.46.88.9,1.33,1.32.58.55,1.15,1.1,1.63,1.75.15.2.01.3-.27.3-.28,0-.74-.07-1.12-.32-1.35-.9-2.76-1.69-3.86-2.87-.68-.69-1.57-1.18-2.34-1.79-.85-.67-1.7-1.34-2.57-1.99-.53-.4-1.07-.8-1.62-1.17-.83-.57-1.66-1.16-2.55-1.63-.69-.36-1.44-.59-2.17-.86-.16-.06-.33-.1-.48-.17-.58-.26-.67-.51-.46-1.2.05-.16.09-.32.15-.47.2-.51.64-.78,1.14-.69,1.47.25,2.81.95,4.06,1.79.93.61,1.83,1.3,2.72,1.98l-.03.05Z"/><path class="cls-3" d="m411.3,218.82l3.82-7.71c.46-.94.83-1.92,1.3-2.86,1.65-3.31,3.32-6.62,4.93-9.95.7-1.49,1.41-2.98,2.07-4.47.43-.95.86-1.91,1.29-2.87.51-.92,1.15-1.78,1.73-2.67.39-.54.54-.38.61.27.06.63.18,1.8,0,3.03-.66,2.03-1.44,4.02-2.21,6-.83,1.96-1.79,3.88-2.78,5.8-1.2,2.28-2.09,4.82-3.15,7.23-1.17,2.65-2.38,5.29-3.65,7.9l-2.35,4.82c-1.18,2.44-2.44,4.85-3.58,7.29-.91,1.88-1.59,3.84-2.47,5.72-.19.42-.35.84-.56,1.25-.78,1.52-1.3,1.86-2.23,1.75-.21-.02-.43-.02-.63-.08-.63-.17-.83-1.07-.44-2.26,1.13-3.54,2.81-6.97,4.48-10.45,1.25-2.59,2.5-5.19,3.75-7.78l.08.03Z"/><path class="cls-3" d="m453.62,216.71c3.25-.5,6.49-.9,9.64-1.43,1.57-.27,3.13-.56,4.62-.95,1.47-.37,2.92-.9,3.86-1.56.09-.09.19-.17.28-.25.09-.08.12-.16.19-.23.09-.11.1-.18.12-.29,0-.21,0-.27-.43-.78-.36-.43-.87-.87-1.42-1.28-1.49-1.12-3.27-2.06-5.11-2.84-1.85-.78-3.77-1.42-5.74-1.93-3.93-1.03-8.02-1.56-12.12-1.61-3.64-.04-7.3.37-10.81,1.18-2.26.53-4.46,1.27-6.66,2-1.09.4-2.19.78-3.27,1.22-.53.23-1.09.42-1.65.61-.55.2-1.09.44-1.65.63-1.43.43-1.34.23-.47-.8.43-.52,1.06-1.25,1.91-2.01.42-.39.92-.74,1.46-1.11.55-.34,1.14-.68,1.78-.99,2.27-1.09,4.66-1.93,7.11-2.5,2.45-.6,4.93-1.05,7.45-1.27,5.02-.47,10.11-.1,15.04,1.01,2.95.65,5.91,1.51,8.82,2.63,1.45.59,2.88,1.24,4.27,2.05,1.38.83,2.75,1.73,3.93,3.24.13.14.24.37.36.56.13.22.27.45.32.72.06.26.18.51.2.77.02.27.03.53.02.8-.07.3-.13.6-.22.89l-.4.82c-.31.46-.66.86-1.03,1.17-.74.63-1.51,1.04-2.26,1.37-1.51.66-3.01,1.07-4.49,1.42-2.97.69-5.92,1.13-8.84,1.6-3.99.62-7.96,1.25-11.8,2.19-2.9.75-5.74,1.61-8.17,3.24-2.51,1.57-4.79,3.49-6.67,5.75-2.98,3.49-4.89,7.66-6.66,11.89-.37.95-.73,1.87-1.1,2.83-1.39,3.54-2.03,4.6-3.13,5.06-.25.11-.52.27-.74.3-.74.12-.74-1.56.1-4.27,1.25-4.02,2.77-8.14,4.97-12.14,2.15-4,5.2-7.79,8.96-10.72.71-.52,1.4-1.08,2.15-1.54l1.11-.71c.38-.24.81-.46,1.22-.69,1.65-.85,3.32-1.46,4.99-1.96,3.32-1.02,6.64-1.63,9.93-2.16l.02.09Z"/><path class="cls-3" d="m331.32,243.71c-1.48-2.2-2.99-4.4-4.51-6.59-.55-.8-1.18-1.55-1.72-2.35-1.95-2.83-3.77-5.75-5.63-8.63-.82-1.29-1.71-2.53-2.53-3.8-1.07-1.62-2.19-3.21-3.01-4.99-.24-.56-.02-.61.52-.35.56.24,1.42.8,2.11,1.67,1.22,1.55,2.48,3.06,3.64,4.64,1.16,1.59,2.31,3.19,3.4,4.85,1.32,1.97,2.9,3.87,4.37,5.81l4.78,6.46,2.93,4c1.49,2.01,2.91,4.09,4.42,6.07,1.17,1.54,2.45,2.96,3.64,4.48.26.33.55.64.79.99.91,1.3.98,1.86.38,2.63-.14.18-.26.37-.42.52-.53.51-1.37.29-2.17-.55-1.17-1.25-2.3-2.57-3.37-3.95-1.07-1.39-2.08-2.85-3.11-4.31-1.52-2.18-3.05-4.38-4.58-6.57l.06-.05Z"/><path class="cls-3" d="m350.61,206.95c1.22-3.15,2.45-6.28,3.53-9.42.54-1.57,1.04-3.14,1.45-4.7.4-1.55.74-3.15.75-4.5,0-.24-.01-.47-.05-.67-.02-.09-.03-.21-.05-.26,0-.02-.02-.06-.03-.09-.05-.14-.17-.25-.32-.28-.06-.02-.14-.01-.43-.05-.24-.05-.48-.04-.73-.03-.49-.03-.99.07-1.49.13-1.79.34-3.61,1.16-5.3,2.26-1.7,1.1-3.28,2.46-4.76,3.94-2.95,2.98-5.49,6.44-7.67,10.1-1.92,3.26-3.51,6.76-4.79,10.29-.82,2.27-1.51,4.6-2.08,6.95-.28,1.18-.55,2.35-.79,3.54-.23,1.18-.57,2.36-.86,3.55-.61,1.46-.52,1.29-.95-.06-.25-.68-.42-1.64-.6-2.82-.11-1.17-.05-2.53.22-3.96,1.92-10.16,6.43-19.82,13.36-27.69,2.09-2.34,4.38-4.61,7.09-6.53,1.36-.95,2.84-1.79,4.47-2.39,1.63-.59,3.45-.93,5.29-.71l.39.05c.17.03.33.03.5.08.34.1.68.19.98.36.62.33,1.11.87,1.43,1.49.16.32.29.62.38.99.09.31.12.57.16.84.06.54.06,1.04.05,1.52-.1,1.93-.52,3.64-.96,5.35-.92,3.38-2.1,6.6-3.29,9.81-1.47,3.94-3.02,7.84-4.4,11.76-1.01,2.96-2.09,5.98-2.51,8.92-.05.36-.07.72-.07,1.05,0,.34.04.62.11,1.02l.19,1.12.27,1.1c.39,1.46.91,2.9,1.57,4.28,2.02,4.31,5.01,8.02,8.12,11.64.7.79,1.39,1.56,2.1,2.35,2.61,2.96,3.31,4.03,3.18,5.29-.02.28,0,.61-.08.83-.24.73-1.81-.03-3.91-2.1-3.11-3.07-6.16-6.42-8.87-10.25-2.66-3.82-5.05-8.21-5.99-13.24-.08-.5-.18-.83-.23-1.55-.03-.6,0-1.14.04-1.65.09-1.02.28-1.94.48-2.84.41-1.79.92-3.47,1.48-5.13,1.11-3.31,2.35-6.51,3.55-9.7l.09.02Z"/><path class="cls-3" d="m276.43,349.04s16.16-12.28,31.78-13.58c15.62-1.3,44.21,3.04,47.25,3.23,3.04.19,16.69-.22,16.69-.22,0,0-7.36-14.19-13.07-21.12s-33.23-36.34-32.82-41.21,3.98-9.89,15.47-16.4,24.15-7.93,30.43-6.85c6.28,1.08,24.96,25.34,31.91,36.27,6.94,10.93,29.48,51.41,32.05,69.1,2.56,17.69-24.66,35.23-27.59,36.69-2.93,1.46-51.14,16.49-70.67,18.98-27.18,3.48-34.84-.74-34.84-.74,0,0,1.33-15.88-3.03-25.81-4.36-9.93-18.35-33.64-18.35-33.64l-5.19-4.7Z"/><path class="cls-3" d="m335.46,335.46l12.92-23.43s18.45,21.6,18.79,26.57c.34,4.97-31.71-3.14-31.71-3.14Z"/><path class="cls-3" d="m413.05,293.26c-5.73-11.57-19.05-28.75-30.83-38.82,0,0,6.1-19.88,11.24-18.26,5.14,1.62,27.89,11.33,32.97,20.96,5.07,9.63-13.38,36.12-13.38,36.12Z"/><path class="cls-3" d="m237.71,420.12c-.49.56-1,1.14-1.47,1.75-.18.22-.29.48-.46.7-.6.8-1.16,1.63-1.64,2.52-.22.39-.38.8-.55,1.21-.1.26-.2.53-.3.8-.12.26-.28.5-.44.75-.11.15-.22.09-.33-.11-.11-.19-.27-.54-.27-.9.25-1.17.63-2.31,1.23-3.36.36-.62.59-1.34.92-2,.37-.72.78-1.43,1.24-2.1.3-.41.59-.81.91-1.21.46-.61.99-1.17,1.48-1.76.39-.45.68-1,1.09-1.48.09-.1.16-.23.27-.31.41-.32.65-.28,1.07.19.1.11.2.21.28.33.29.39.36.83.21,1.13-.42.9-1.09,1.48-1.74,2.21-.48.54-1,1.07-1.46,1.67l-.04-.03Z"/><path class="cls-3" d="m139.99,408.26c-.14-.99-.31-1.97-.35-2.96-.1-.99-.11-1.97-.12-2.96-.03-.72-.03-1.43,0-2.15.15-2.52.5-5.01,1.01-7.46.2-1.09.47-2.17.69-3.25.34-1.37.57-2.78,1.25-4.04.19-.4.33-.3.47.12.07.21.14.5.2.85.08.35.09.73,0,1.12-.27,1.39-.53,2.77-.77,4.16-.24,1.39-.57,2.76-.81,4.16-.34,1.67-.34,3.44-.37,5.17-.04.95.04,1.9.05,2.85.1.94.13,1.9.29,2.83l.28,1.73.42,1.7c.21.86.54,1.68.81,2.53.35.81.69,1.63,1.11,2.4.35.59.72,1.15,1.09,1.71l1.27,1.55c.18.24.4.43.6.64.73.81.84,1.18.62,1.71-.05.12-.09.25-.15.36-.21.35-.76.22-1.42-.35-1.01-.82-1.8-1.89-2.6-2.97-.35-.57-.7-1.16-1.04-1.75-.34-.59-.58-1.23-.87-1.85-.22-.46-.4-.93-.55-1.42l-.48-1.45c-.24-.98-.52-1.96-.68-2.95h.04Z"/><path class="cls-3" d="m205.89,399.34s3.26-3.11-.73-6.62c-3.99-3.51,10.16,7.3,10.16,7.3l-9.43-.67Z"/><path class="cls-3" d="m178.19,386.57c.12-.63.23-1.26.35-1.88.04-.23.04-.46.09-.69.19-.8.37-1.59.62-2.37.1-.35.16-.7.22-1.05.04-.22.08-.46.11-.68.08-.22.17-.43.33-.63.22-.1.2-.08.42.08.21.17.46.44.52.71-.06.92-.13,1.82-.44,2.7-.19.53-.18,1.11-.26,1.66-.09.61-.17,1.23-.26,1.84-.05.38-.09.76-.12,1.14-.05.58-.11,1.16-.08,1.73.03.45.15.88.23,1.32.02.1.05.19.06.29.04.36-.08.48-.55.57-.11.02-.21.05-.32.06-.36.05-.67-.09-.79-.36-.35-.8-.42-1.67-.37-2.53.03-.64.11-1.28.19-1.92h.04Z"/><path class="cls-3" d="m246.58,373.57s2-3.18-1.57-5.65c-2.37-1.64,8.26,9.25,8.26,9.25l-6.69-3.61Z"/><path class="cls-3" d="m207.23,341.41c.68.18,1.35.32,2.02.53.65.26,1.32.43,1.95.75.45.25.93.39,1.36.67,1.53.94,2.81,2.16,3.95,3.43.5.56.98,1.15,1.44,1.72.6.73,1.15,1.49,1.65,2.26.15.24.02.33-.29.28-.31-.05-.82-.23-1.23-.59-.72-.65-1.41-1.29-2.1-1.88-.66-.6-1.31-1.21-1.99-1.83-.39-.38-.88-.64-1.35-.93-.51-.22-.99-.48-1.51-.67-.57-.2-1.1-.48-1.69-.65l-.86-.29c-.29-.08-.6-.14-.89-.21-.73-.19-1.49-.29-2.25-.36-.57-.08-1.16-.07-1.74-.08-.58,0-1.17-.01-1.75.09-.9.14-1.76.36-2.62.66-.19.06-.37.14-.56.18-.71.17-.98.04-1.28-.59-.07-.14-.15-.28-.2-.43-.19-.49.03-.97.56-1.23,1.56-.8,3.38-1.18,5.23-1.21.69,0,1.38-.02,2.07.05.7.09,1.39.15,2.08.26v.06Z"/><path class="cls-3" d="m172.84,309.4s10.19,3.17,17.27-2.56c5.22-4.23-4.94,5.87-6.45,5.82-1.52-.05-10.81-3.26-10.81-3.26Z"/><path class="cls-3" d="m196.83,343.95c-1.12.21-2.23.44-3.33.74-.4.1-.78.28-1.18.39-1.41.39-2.81.84-4.16,1.4-.62.22-1.18.55-1.75.86-.36.21-.69.46-1.07.63-.38.17-.71.42-1.18.47-.29.04-.33-.08-.3-.42.01-.37.14-.94.5-1.3.65-.64,1.43-1.08,2.2-1.53.77-.45,1.61-.78,2.48-1.02,1.03-.3,2.02-.8,3.05-1.14,1.13-.37,2.28-.69,3.44-.97.71-.17,1.42-.33,2.13-.48,1.08-.24,2.17-.4,3.24-.65.83-.18,1.62-.49,2.44-.72.18-.05.35-.13.54-.16.68-.14.92-.02,1.15.57.05.13.11.27.15.41.13.47-.1.9-.56,1.1-1.39.61-2.89.91-4.39,1.22-1.12.23-2.25.41-3.36.67l-.02-.05Z"/><path class="cls-3" d="m157.66,257.73c-.17,3.22.82,6.97,3.14,9.31,1.07,1.08,2.59,1.89,4.15,1.77s2.89-.92,3.99-1.99c1.43-1.39,2.49-3.15,3.41-4.9.4-.75.19-1.71-.57-2.15-.71-.42-1.76-.19-2.15.57-.85,1.62-1.74,3.16-3.04,4.37-.14.13-.28.25-.42.37-.09.07-.08.07.01-.01-.08.06-.16.11-.25.17-.16.1-.33.19-.5.28-.28.15.2-.03-.13.05-.17.04-.34.1-.52.13.38-.06-.04-.01-.11-.01-.09,0-.18,0-.26-.01.2.03.2.03.02,0-.05-.02-.49-.15-.35-.09.12.05-.3-.15-.36-.19s-.53-.38-.34-.22c-.26-.22-.5-.47-.72-.73-.25-.29-.78-1.19-1.04-1.81-.62-1.43-.92-3.2-.82-4.89.05-.85-.76-1.57-1.57-1.57-.89,0-1.53.72-1.57,1.57h0Z"/><path class="cls-3" d="m173.67,257.83c-.11,1.16-.4,2.33-.77,3.46-.41,1.1-.89,2.17-1.51,3.14-.43.72-.87,1.43-1.4,2.08-1.95,2.2-4.43,3.93-7.23,4.73-1.24.33-2.51.63-3.79.62-.41.02-.82.04-1.23-.05-.41-.08-.82-.09-1.21-.24-.39-.13-.78-.25-1.15-.43-.35-.23-.68-.47-1.01-.71-.4-.31-.23-.47.28-.65.25-.09.59-.2.96-.3.2-.06.39-.11.58-.16.19-.04.38-.05.57-.04.67.09,1.34-.08,1.97-.05.32-.04.64-.01.96-.08l.95-.16c1.27-.28,2.48-.81,3.73-1.42,1.5-.76,2.66-2.16,3.63-3.55,1.07-1.55,1.96-3.29,2.29-5.15.22-1.15.32-2.36.24-3.57-.09-1.83-.44-3.7-1.14-5.4-.54-1.32-1.41-2.46-2.29-3.47l-.58-.66c-.7-.83-.79-1.19-.42-1.98.08-.18.15-.37.24-.53.3-.54,1.06-.6,1.94-.03.3.22.62.45.92.7.28.26.57.52.84.8.49.59.96,1.22,1.34,1.89.79,1.34,1.36,2.8,1.77,4.3.57,2.24.81,4.57.6,6.93h-.08Z"/><path class="cls-3" d="m136.51,245.67c-18.16-15.06,4.02-45.84,26.21-45.87,0,0,17.34-.96,22.8,4.19,5.46,5.16,10.59,14.8,10.59,14.8,0,0,8.61-7.11,14.38-7.89s17.18-2.4,23.74,3.84c6.57,6.24,10.43,11.28,12.26,24.8,1.83,13.52-.11,34.1,7.94,38.87,8.05,4.77,16.25,6.26,14.65,8.19s-8.55,16.24-16.88,20.81c-8.33,4.57-22.97,7.12-22.97,7.12l-12.26-3.75s-4.99,8.78-11.55,11.1c-8.17,2.88-13.49-.23-13.49-.23,0,0,3.76-8.98,10.88-12.29,6.98-3.24.09-6.6.09-6.6,0,0,7.04-6.43,9.24-11.31,2.19-4.89,3.28-8.87,3.28-8.87,0,0,9.9,2.39,14.66-4.07,4.77-6.45,4.22-11.7,2.36-13.01s-8.09-4-10.48-1.47-2.97,7.4-6.6,6.83-6.04-2.46-3.97-6.88c2.07-4.42,3.9-9.75,3.9-9.75,0,0-19.36,3.65-25.24-6.76-5.88-10.41-6.18-13.31-6.18-13.31,0,0-6.55,8.87-15.87,11.3-9.32,2.43-14.28,5.48-26.72,1.35-2.05-.68-4.78-1.13-4.78-1.13Z"/><path class="cls-3" d="m143.39,248.86l6.76.7s-4.68,19.11-1.46,29.29,3.25,12.84,3.25,12.84c0,0-3.14-.95-2.84,3.02s4.85,11.29,4.85,11.29c0,0-2.46,4.06-6.12,2.92s-23.97-10.68-29.77-21.69c-4.34-8.23-.37-4.99,6.15-7.78,18.58-7.98,19.19-30.58,19.19-30.58Z"/><path class="cls-3" d="m394.28,271.59c6.64,8.47,12.59,17.41,18.13,26.58,5.51,9.19,10.57,18.65,14.94,28.45,3.2,7.15,6.16,14.43,8.26,22.05.9,3.37,1.64,6.81,2.02,10.35.06.9.18,1.77.19,2.68-.02.91.05,1.81-.04,2.73-.12.93-.11,1.84-.38,2.79l-.33,1.4c-.14.44-.3.86-.45,1.29-1.23,3.41-3.11,6.53-5.3,9.32-2.19,2.81-4.74,5.28-7.45,7.5-5.44,4.44-11.51,7.91-17.75,10.85-6.26,2.93-12.73,5.33-19.29,7.39-11.65,3.64-23.64,6.31-35.57,8.22-7.67,1.21-15.41,2.1-23.18,2.56-3.89.22-7.78.34-11.68.27-1.95-.03-3.9-.12-5.85-.3-1.94-.19-3.9-.38-5.82-.83-2.39-.6-3.34-1.17-3.24-1.22.11-.09,1.26.25,3.3.32,4.07.24,11.51-.13,20.33-.68,7.82-.49,15.62-1.44,23.37-2.66,7.75-1.2,15.46-2.71,23.08-4.58,7.62-1.88,15.15-4.1,22.5-6.84,7.33-2.75,14.49-6.01,21.1-10.14,3.93-2.49,7.69-5.35,10.91-8.73,3.24-3.35,5.88-7.3,7.42-11.64.19-.54.4-1.09.48-1.61.09-.54.29-1.02.3-1.6l.15-1.67-.03-1.73c.01-.57-.06-1.16-.12-1.74-.06-.58-.1-1.17-.18-1.75-.21-1.17-.34-2.34-.61-3.51-.97-4.67-2.43-9.28-4.06-13.81-3.62-9.96-8.25-19.58-13.28-28.96-5.04-9.39-10.6-18.51-16.65-27.28-3.73-5.39-7.66-10.65-11.84-15.69-4.19-5.02-8.66-9.82-13.54-14.1l-.54-.48c-.4-.33-1.55-.55-2.58-.62-1.08-.05-2.18-.05-3.3.03-2.24.14-4.49.46-6.73.86-4.48.81-8.91,1.99-13.21,3.49-4.3,1.5-8.49,3.33-12.31,5.71-1.89,1.2-3.69,2.54-5.23,4.09-1.53,1.54-2.81,3.35-3.42,5.29-.03.18-.06.34-.03.55.02.22.08.47.15.72.16.51.38,1.04.64,1.56.82,1.62,1.85,3.22,2.92,4.77,1.1,1.54,2.27,3.04,3.45,4.52,2.37,2.96,4.84,5.85,7.33,8.72,4.97,5.74,10.04,11.39,14.98,17.21,2.18,2.57,4.31,5.08,6.42,7.76,3.9,4.96,6.22,8.49,7.59,11.13,1.38,2.64,1.82,4.4,1.85,5.85.03.66.02,1.51-.11,1.88-.1.32-.27.24-.5-.15-.21-.4-.57-1.09-1.06-2.04-1.03-1.91-2.86-4.86-5.53-8.51-6.37-8.63-13.82-16.86-21.21-25.35-3.71-4.24-7.45-8.52-11.08-12.99-1.83-2.23-3.58-4.53-5.33-6.93-.87-1.2-1.77-2.41-2.51-3.83-.38-.7-.74-1.44-1.04-2.32-.08-.21-.15-.44-.21-.7-.06-.24-.12-.5-.16-.8-.05-.26-.07-.62-.05-.99,0-.36.09-.71.17-1.06,1.09-3.47,3.28-6.05,5.65-8.13,2.38-2.09,4.99-3.76,7.67-5.2,5.84-3.1,12-5.24,18.3-6.86,3.16-.8,6.36-1.43,9.64-1.84,1.65-.18,3.31-.34,5.05-.33.87,0,1.78.05,2.73.18.98.2,2.07.3,3.47,1.34,3.51,3,6.64,6.15,9.69,9.45,3.05,3.29,5.89,6.72,8.66,10.22l-.06.08Z"/><path class="cls-3" d="m339.14,325.61c.74-1.13,1.52-2.24,2.23-3.39.27-.42.45-.88.72-1.3.96-1.47,1.9-2.96,2.88-4.43.43-.66.78-1.35,1.13-2.04.28-.42.48-.87.81-1.26.36-.37.77-.72,1.06-1.13.21-.24.36-.11.46.24.05.18.1.41.12.67.05.28.15.63.15.95,0,.14.01.29,0,.43l-.09.38-.19.75c-.16.49-.4.93-.62,1.38-.46.9-.93,1.8-1.58,2.61-.75.99-1.2,2.19-1.81,3.28-.68,1.2-1.39,2.39-2.12,3.57l-1.37,2.16c-.68,1.1-1.42,2.16-2.05,3.28-.48.87-.82,1.81-1.22,2.72-.09.2-.15.41-.26.6-.39.71-.71.81-1.51.5-.18-.07-.37-.13-.55-.22-.59-.29-.87-.86-.71-1.46.47-1.76,1.36-3.33,2.29-4.89.71-1.15,1.42-2.3,2.14-3.46l.07.04Z"/><path class="cls-3" d="m249.93,374.36c-.55-.74-1.11-1.49-1.74-2.21-.22-.26-.51-.46-.74-.72-.82-.92-1.69-1.83-2.62-2.67-.41-.37-.87-.7-1.32-1.01-.58-.4-1.2-.76-1.67-1.32-.15-.18.09-.45.45-.65.36-.19.87-.33,1.24-.13,1.28.69,2.53,1.45,3.6,2.48.64.62,1.47,1.06,2.19,1.63.78.63,1.54,1.31,2.24,2.05.44.45.84.93,1.26,1.4.63.72,1.18,1.5,1.79,2.23.46.58,1.08,1.04,1.56,1.63.11.13.23.24.31.39.3.54.19.82-.51,1.3-.16.11-.31.23-.48.32-.55.33-1.15.36-1.53.13-.55-.36-1.07-.71-1.42-1.18-.4-.43-.73-.91-1.07-1.4-.5-.73-1.01-1.48-1.59-2.2l.05-.05Z"/><path class="cls-3" d="m283.35,426.4c0,.36.01.71,0,1.06-.03.32-.07.6-.13.89-.1.58-.26,1.13-.42,1.67-.36,1.08-.84,2.11-1.46,3.08-.46.7-.95,1.43-1.68,2-.33.25-.67.47-1.05.66-.38.19-.8.34-1.14.42-.36.09-.73.16-1.11.2-.21.02-.35.03-.62.04-.27-.02-.54,0-.79-.05-1.01-.13-1.96-.58-2.19-1.51-.05-.22-.03-.44.02-.64.03-.1.05-.19.1-.29l.19-.31c.23-.43.55-.78.85-1.13.32-.44.58-.9.8-1.39.2-.49.36-1,.49-1.51.33-1.34.2-2.74.16-4.22.02-.47.02-.42.29-.08.31.32.8.97,1.02,1.87.35,1.56.44,3.39-.26,4.99-.16.4-.34.79-.56,1.16l-.16.28-.07.08c-.04.05-.09.11-.11.11-.05.03-.14.08-.17.16-.03.08,0,.16.06.22.07.08.19.12.34.12.34,0,.75-.07,1.12-.17.2-.05.38-.11.51-.18.16-.04.29-.17.43-.25.27-.23.53-.48.76-.79,1.05-1.34,1.68-3.24,1.94-5.04l.04-.42c0-.13-.01-.24-.01-.36v-.36s-.09-.36-.09-.36l-.08-.36-.16-.36-.15-.36-.22-.34c-.86-1.4-2.31-2.59-3.87-3.44-1.23-.65-2.59-.96-3.89-1.23-.29-.07-.57-.06-.86-.12-1.04-.2-1.27-.43-1.47-1.31-.04-.2-.11-.4-.14-.6-.05-.33.05-.63.31-.86.26-.23.69-.41,1.19-.42,3.03-.1,5.88,1.15,8.33,3.07.9.75,1.77,1.58,2.49,2.61.71,1.04,1.31,2.3,1.48,3.73h-.07Z"/><path class="cls-3" d="m279.1,417.97c1.96.87,3.91,1.91,5.6,3.49.31.28.62.56.9.9.28.34.59.63.78,1.05.83,1.39,1.07,2.83,1.13,4.27.04,1.43-.18,2.86-.75,4.19-.49,1.16-1.26,2.27-2.33,2.97-.66.47-1.43.77-2.2.96-.39.08-.79.06-1.17.08-.39,0-.77-.08-1.14-.12-.47-.07-.39-.16,0-.36.25-.12.52-.25.76-.37.3-.15.62-.39.97-.53.31-.13.59-.29.87-.42.26-.18.51-.35.74-.54.2-.23.44-.39.59-.65.08-.12.17-.24.27-.34l.23-.37c.63-.99.91-2.26.98-3.57.08-1.59-.54-3.25-1.51-4.34-1.1-1.3-2.77-2.3-4.53-3.06-1.09-.48-2.23-.87-3.39-1.21-1.77-.49-3.59-.89-5.42-1.11-1.42-.17-2.84-.05-4.25,0-.31.02-.61.07-.93.07-1.15,0-1.5-.19-1.75-1.1-.06-.2-.13-.41-.17-.61-.12-.69.37-1.25,1.28-1.44,2.68-.51,5.51-.31,8.31.19,2.07.44,4.12,1.07,6.14,1.87l-.02.07Z"/><path class="cls-3" d="m210.51,321.1c-1.43.8-2.91,1.51-4.45,2.06-.56.19-1.09.46-1.67.6-2.03.53-4.14.85-6.25.66-.93-.08-1.88-.2-2.78-.54-1.14-.4-2.28-1.36-2.49-2.59-.08-.37.05-.34.35-.17.29.2.86.4,1.28.65.83.39,1.7.59,2.69.61.98.04,1.99-.08,3.05-.17,1.28-.09,2.53-.65,3.75-1.17,1.34-.57,2.68-1.2,3.95-1.95.79-.46,1.55-.96,2.28-1.51,1.1-.84,2.18-1.73,3.06-2.79.69-.82,1.14-1.8,1.59-2.74.1-.21.16-.44.28-.62.44-.72.77-.82,1.67-.52.2.07.41.12.6.2.63.26.98.9.8,1.63-.23,1.1-.79,2.06-1.42,2.97-.65.91-1.42,1.73-2.25,2.49-1.23,1.13-2.61,2.1-4.02,2.97l-.05-.06Z"/><path class="cls-3" d="m162.65,332.02c1.77,1.5,3.77,2.84,5.87,4.08.78.44,1.58.81,2.37,1.24,2.77,1.53,5.57,3.16,8.34,4.85.61.38,1.24.74,1.84,1.15.6.4,1.22.77,1.8,1.21,1.53,1.02,3.04,2.23,3.95,3.93.3.51.13.54-.43.42-.36-.08-.74-.17-1.12-.25-.43-.12-.88-.29-1.35-.51-.39-.22-.73-.49-1.09-.73-.36-.24-.76-.45-1.13-.68-.74-.47-1.53-.88-2.31-1.31-.77-.44-1.55-.9-2.32-1.37-.79-.45-1.57-.93-2.36-1.41-1.89-1.14-4.05-2.02-6.08-3.12-2.23-1.21-4.43-2.54-6.51-4.09-.63-.49-1.28-.95-1.86-1.51-.6-.53-1.21-1.06-1.74-1.67-.88-.85-1.58-1.87-2.32-2.85-.66-.99-1.3-2.01-1.88-3.09-.89-1.66-1.72-3.49-1.86-5.53-.04-.44-.07-.88-.04-1.33.16-1.66.59-2.11,1.47-2.17.2-.02.4-.05.59-.03.63.07.96.79.96,1.72,0,1.41.23,2.7.69,3.98.48,1.28,1.17,2.57,2.05,3.89.32.5.66.99,1,1.41.36.43.63.92,1.05,1.31.4.41.76.84,1.18,1.24l1.3,1.15-.04.06Z"/><path class="cls-3" d="m258.34,305.23c-1.2,1-2.37,2.01-3.68,2.87-.64.44-1.25.91-1.92,1.31l-2.01,1.18c-.95.61-1.97,1.11-2.99,1.59l-1.36.61-1.42.48-1.41.48-.7.24-.73.17-2.88.69-2.93.42c-.86.15-1.74.13-2.61.21l-1.3.09-.65.05-.65-.02c-1.11-.07-2.22-.08-3.32-.19-.55-.1-1.09-.2-1.63-.32-.54-.09-1.06-.4-1.58-.58-.64-.29-.54-.29.07-.5.31-.11.74-.29,1.25-.53.51-.18,1.07-.25,1.67-.26,1.06,0,2.13-.18,3.18-.24,1.05-.01,2.09-.22,3.13-.31.52-.07,1.04-.07,1.56-.19.51-.11,1.03-.19,1.55-.26l1.57-.22,1.55-.35c.62-.14,1.25-.28,1.87-.47.6-.23,1.21-.48,1.81-.74,1.23-.46,2.36-1.15,3.53-1.74.65-.3,1.26-.69,1.88-1.06l1.86-1.11,1.76-1.26c.59-.42,1.19-.83,1.72-1.32l2.04-1.74,1.89-1.91c.49-.47.93-.99,1.36-1.52l1.31-1.57c.83-1.08,1.59-2.21,2.31-3.35.5-.92.96-1.86,1.4-2.8l1.14-2.88c.18-.42.31-.84.45-1.28.3-.79.53-1.3.85-1.6.36-.29.72-.4,1.18-.44.21-.02.42-.07.6-.06.31.02.51.23.65.62.14.39.27.98.1,1.63-.19.98-.4,1.98-.75,2.94-.33.96-.65,1.96-1.12,2.88-.47.92-.97,1.85-1.49,2.76-.55.9-1.16,1.76-1.76,2.63-.43.66-.94,1.26-1.44,1.87l-1.51,1.81-1.66,1.69c-.55.56-1.09,1.13-1.7,1.63l-.06-.06Z"/><path class="cls-3" d="m219.45,263.56c.82-.79,1.77-1.6,3.09-2.17.72-.3,1.31-.38,1.91-.51.3-.06.62-.07.93-.1.31-.04.63-.04.95-.01,1.27.03,2.6.37,3.73,1.02,1.14.64,2.08,1.55,2.78,2.56,1.02,1.48,1.69,3.12,1.88,4.81.63,5.89-2.39,11.67-7.33,14.45-1.08.61-2.29,1.08-3.46,1.37-1.18.31-2.41.5-3.64.48-1.57,0-3.19-.27-4.63-.93-1.42-.69-2.66-1.67-3.65-2.82-.6-.73-.43-.71.34-.43.77.28,2.24.61,3.71.95.32.09.66.13.97.2.31.08.63.15.95.2.63.1,1.27.13,1.91.12.64-.03,1.27-.1,1.91-.22.64-.09,1.28-.25,1.92-.44,2.44-.69,4.55-2.34,6.09-4.53,1.84-2.6,2.41-6.36,1.47-9.32-.5-1.64-1.53-3.07-2.95-3.73-.7-.34-1.49-.5-2.32-.5-.81.05-1.77.21-2.37.52-.85.45-1.7,1.25-2.51,2.12-.81.88-1.58,1.85-2.42,2.83-.64.73-1.32,1.48-2.21,2.14-.45.33-.98.63-1.61.8-.63.18-1.37.16-2-.06-.64-.21-1.12-.58-1.55-.95-.4-.35-.83-.86-1.1-1.4-.54-1.1-.6-2.27-.5-3.3.16-1.63.62-3.1,1.15-4.51.53-1.41,1.16-2.77,1.89-4.07.32-.57.62-1.14.99-1.69.67-1.02,1.21-1.63,1.69-1.98.48-.35.88-.45,1.33-.42.21.02.43,0,.6.06.56.19.32,1.2-.4,2.74-.59,1.11-1.15,2.25-1.68,3.39-.55,1.13-1.07,2.28-1.49,3.43-.42,1.14-.75,2.3-.83,3.29-.04.49-.01.93.07,1.23.1.32.16.41.38.63.22.24.41.32.48.35.06.02-.01.02.06.01.15,0,.82-.45,1.4-1.08,1.22-1.27,2.42-2.99,4.02-4.62l.06.06Z"/><path class="cls-3" d="m157.26,295.2c.44.65.93,1.26,1.4,1.89l.71.94c.25.3.53.58.79.87l1.58,1.74,1.74,1.69c2.33,2.22,4.75,4.24,7.53,5.6,2.03,1.03,4.24,1.58,6.56,2.32.98.32,1.76.48,2.72.45.95-.02,1.97-.15,2.99-.3.26-.04.54-.08.64-.12.15-.03.35-.13.54-.21.39-.2.8-.46,1.21-.75.82-.57,1.62-1.23,2.45-1.89.82-.66,1.65-1.33,2.56-1.97.46-.31.93-.62,1.48-.88.58-.28,1.01-.41,1.52-.62,1.99-.76,3.96-1.51,6.12-2.01.48-.1.99-.19,1.52-.21.3-.01.36,0,.48-.04.06-.02.32-.18.49-.28.39-.21.76-.45,1.12-.72.37-.25.73-.53,1.07-.82,1.38-1.16,2.64-2.49,3.77-3.91,1.45-1.83,2.7-3.83,3.78-5.91.54-1.04,1.03-2.1,1.52-3.17.45-1.08.89-2.17,1.3-3.28.5-1.39.44-1.22.41.06,0,1.28-.17,3.75-1.28,6.37-1.01,2.3-2.26,4.48-3.74,6.53-1.48,2.04-3.16,3.99-5.27,5.55-.53.39-1.06.77-1.66,1.09l-.44.26c-.21.12-.52.25-.8.29-.14.02-.31.04-.42.04h-.23c-.12,0-.23.02-.35.03-.98.12-2.15.49-3.26.86-1.13.38-2.26.8-3.39,1.23-.56.22-1.17.44-1.56.65-.46.24-.94.57-1.41.9-1.14.82-2.26,1.79-3.45,2.74-.6.48-1.21.96-1.91,1.4-.35.22-.72.44-1.16.62-.2.1-.48.16-.73.23-.23.05-.39.07-.59.11-1.5.24-3.06.54-4.81.36-.87-.1-1.66-.34-2.38-.56l-2.17-.64c-3.25-.94-6.45-2.53-9.12-4.65-2.68-2.12-5.06-4.36-7.36-6.91-2.72-3.17-4.9-6.76-6.59-10.53-2.51-5.75-3.92-11.96-4.36-18.13-.38-4.79-.38-9.55.25-14.3.17-1.04.27-2.07.48-3.12.46-1.92.75-3.2,1.21-4.02.44-.82.84-1.24,1.31-1.52.22-.13.45-.31.63-.36.61-.17.64,1.49.07,4.18-1.64,8-1.93,16.73-.4,25.17.53,3.14,1.44,6.21,2.55,9.18l.91,2.2c.29.74.71,1.42,1.05,2.13.67,1.44,1.59,2.73,2.41,4.08l-.05.05Z"/><path class="cls-3" d="m246,248.96c-.13-6.31-.45-12.61-2.3-18.42-.62-2.14-1.66-4.09-2.68-6.02-1.9-3.35-4.57-6.25-7.74-8.53-3.15-2.2-6.88-3.68-10.8-4.28-3.47-.58-7.07-.44-10.51.17-2.2.46-4.38,1.04-6.44,1.94-.53.19-1.03.44-1.54.68-.51.23-1.05.41-1.54.68-.99.52-2.01,1.01-3.01,1.57-1.27.66-1.33.34-.64-.81.35-.57.83-1.45,1.65-2.22.79-.82,1.8-1.72,3.08-2.35,4.55-2.16,9.57-3.39,14.63-3.28,5.04.06,10.15,1.21,14.62,3.78,1.32.77,2.63,1.65,3.79,2.64.58.5,1.23.92,1.77,1.48l1.67,1.62c2.11,2.28,3.93,4.86,5.26,7.65,2.84,6.19,3.71,12.88,4.03,19.36.21,4,.2,7.98.31,11.93.09,2.98.22,5.96.59,8.88.37,2.91.99,5.79,2.2,8.35.92,2,2.29,3.7,3.89,5.06l1.26.95c.45.27.93.51,1.39.76.23.12.45.26.7.37l.75.28c.5.18.99.39,1.49.56.93.21,1.82.44,2.75.63,3.51.58,4.66.86,5.41,1.83.17.22.4.43.5.63.17.34-.13.62-.85.84-.71.2-1.84.42-3.3.35-1.07-.13-2.17-.18-3.26-.41l-1.64-.38-.83-.2c-.27-.09-.54-.2-.81-.3l-1.63-.62c-.54-.21-1.05-.55-1.58-.83-1.08-.53-2-1.33-2.97-2.08-1.78-1.67-3.32-3.67-4.33-5.86-1-2.18-1.74-4.46-2.15-6.71-1.3-6.73-1.07-13.29-1.3-19.67h.09Z"/><path class="cls-3" d="m126,294.02c1.51,1.81,3.26,3.41,5.08,4.94.67.55,1.44.97,2.12,1.5,2.49,1.79,5.1,3.47,7.91,4.85,1.25.58,2.55,1.09,3.84,1.57.82.32,1.68.55,2.5.9l1.25.49c.42.15.8.44,1.21.65.5.31.4.39-.13.57-.36.12-.74.26-1.12.39-.46.12-.98.18-1.51.11-1.89-.19-3.74-.65-5.52-1.27-1.76-.7-3.47-1.54-5.1-2.55-.96-.62-2-1.14-2.99-1.76l-1.51-.89c-.49-.31-.97-.65-1.45-.99-2.11-1.46-4.01-3.2-5.84-4.98-1.06-1.17-2.17-2.28-3.12-3.54l-1.12-1.39-1.02-1.47-1.02-1.46-.94-1.5c-1.04-1.51-2.01-3.03-2.97-4.59-.18-.36-.39-.7-.56-1.07-.62-1.37-.58-1.91.17-2.52.17-.14.33-.3.51-.41.61-.37,1.39-.04,1.99.83,1.72,2.59,3.29,5.29,5.03,7.94.7.94,1.3,1.97,2.06,2.86l1.1,1.39c.37.46.79.88,1.19,1.32l-.06.06Z"/><path class="cls-3" d="m139.6,265.2c-.34.56-.75,1.07-1.17,1.57-.42.5-.81,1.02-1.24,1.5l-1.38,1.38-.69.68-.75.61c-.75.57-1.37,1.29-2.18,1.77l-2.09,1.29c-.69.43-1.47.7-2.2,1.06-1.45.74-2.99,1.19-4.49,1.74-.66.27-1.34.45-2.02.65-.67.21-1.34.42-2.01.63-.86.27-1.74.44-2.62.6-.89.12-1.8.15-2.69.2-.56.02-.51-.11-.1-.45.41-.32,1.14-.98,2.05-1.47,1.68-.59,3.29-1.3,4.96-1.81.85-.24,1.63-.62,2.44-.93l1.22-.47c.42-.14.82-.3,1.21-.5.94-.45,1.9-.93,2.79-1.52.85-.64,1.76-1.22,2.57-1.89.86-.78,1.82-1.45,2.57-2.34.4-.43.81-.84,1.19-1.27l1.06-1.39c.46-.55.81-1.19,1.19-1.8l.57-.92c.17-.32.32-.65.49-.97,1.02-1.95,1.77-4.07,2.33-6.21.4-1.69.55-3.39.75-5.12.04-.38.06-.76.12-1.14.23-1.42.56-1.83,1.47-1.95.21-.03.41-.08.61-.07.66,0,1.11.7,1.09,1.75-.05,3.13-.6,6.46-1.67,9.77-.17.62-.44,1.22-.66,1.83-.23.61-.46,1.21-.77,1.8l-.86,1.77c-.34.57-.68,1.13-1.03,1.69l-.07-.04Z"/><path class="cls-3" d="m155.78,312.21c.81,1.06,1.84,2.06,2.96,2.96.41.33.89.57,1.31.89,1.51,1.11,3.12,2.16,4.79,3.14.75.42,1.54.77,2.34,1.08.49.25,1,.46,1.49.72.25.13.49.27.73.41l.35.23c.11.09.21.23.31.34.24.32.15.44-.27.7-.44.31-1.15.65-1.8.54-.58-.1-1.15-.21-1.72-.33-.56-.15-1.08-.41-1.61-.64-1.05-.48-2.08-1.04-3.05-1.73-1.14-.85-2.48-1.45-3.68-2.29-1.31-.93-2.56-1.96-3.68-3.16-.7-.72-1.32-1.54-1.89-2.39-.84-1.3-1.47-2.79-1.75-4.34-.23-1.19-.43-2.43-.3-3.66.01-.28.04-.54.1-.81.09-.5.27-.79.51-.95.23-.16.51-.19.89-.15.17.02.35.03.51.07.54.13.89.66.95,1.28.02.9.04,1.73.13,2.51.1.79.3,1.52.55,2.27.38,1.1,1.02,2.22,1.89,3.24l-.06.05Z"/><path class="cls-3" d="m156.38,319.56c.65,1.16,1.58,2.23,2.7,3.16.4.35.9.59,1.32.92,1.57,1.1,3.26,2.22,5.03,3.23.78.46,1.61.84,2.43,1.25.52.28,1.05.52,1.55.84.25.17.51.3.73.52.21.23.41.47.6.71.23.31,0,.54-.48.73-.25.1-.56.2-.91.28-.17.03-.35.08-.52.08-.16-.01-.32-.05-.46-.11-2.06-.88-4.13-1.9-6.16-3.24-1.21-.81-2.61-1.42-3.85-2.32-1.36-.99-2.65-2.17-3.67-3.58l-.46-.66-.39-.7c-.28-.48-.46-.91-.69-1.36-.66-1.36-1.25-2.78-1.73-4.28-.36-1.16-.74-2.38-.69-3.71,0-.29.03-.58.09-.87.26-1.07.68-1.29,1.31-1.23.15.01.3.02.43.05.43.11.68.64.71,1.23.06.89.15,1.66.36,2.49.22.82.49,1.68.86,2.57.28.66.58,1.34.91,2.03.33.69.7,1.43,1.02,1.95l-.06.04Z"/><path class="cls-3" d="m181.75,385.49c-.37.73-.73,1.5-.96,2.31-.09.3-.13.6-.21.9-.35,1.06-.56,2.18-.67,3.32-.05.51-.03,1.02.02,1.52.08.64.17,1.28.05,1.98-.03.22-.26.24-.56.12-.29-.12-.73-.37-.93-.74-.19-.32-.24-.68-.35-1.02-.09-.35-.19-.69-.24-1.05-.05-.36-.1-.71-.12-1.07,0-.36.04-.73.09-1.09.14-.86.04-1.77.15-2.66.15-.97.41-1.93.75-2.85.19-.57.46-1.12.7-1.67.4-.82.86-1.62,1.32-2.4.34-.61.58-1.31.93-1.94.08-.14.14-.29.24-.42.39-.45.68-.44,1.33.06.15.11.3.22.44.34.47.41.69.94.6,1.33-.25,1.19-.82,2.02-1.35,2.95-.43.66-.82,1.37-1.18,2.11l-.07-.02Z"/><path class="cls-3" d="m278.16,425.44c.34,1.11.32,1.99.25,2.87-.08.87-.27,1.7-.57,2.51-.58,1.59-1.61,3.14-3.11,4.17-.72.54-1.57.88-2.39,1.15-.74.19-1.49.37-2.27.47-.79.1-1.57.15-2.43.11-1.17-.15-2.43-.36-3.3-.96-1.07-.65-1.86-1.54-2.1-2.65-.12-.54-.07-1.18.18-1.65.22-.45.58-.83,1.05-1.18.48-.3.99-.58,1.58-.79.67-.26,1.5-.45,2.15-.57.47-.08.94-.16,1.4-.2l1.33-.12.58-.06.2-.03s.03,0,.03,0h0s0,0,0,0l.02.07.05.14.18.46c.05.12.16.28.18.34.1.18.24.25.22.23,0,0-.15.04-.31.18l-.05.05-.02.03c.58-.58-.8.8-.66.66h0s-.02-.02-.02-.02l-.04-.04-.09-.08-.35-.32c-.24-.2-.53-.33-.81-.49-.61-.21-1.29-.38-2.06-.34-1.51.02-3.16.46-4.77,1.01-1.62.56-3.23,1.24-4.88,1.91-2.88,1.22-6.16,2.34-9.52,2.08-2.15-.13-4.29-.91-6.03-2.12-1.77-1.19-3.21-2.69-4.35-4.37-.58-1.17-.49-1.02.58-.59.55.2,1.24.57,2.08.97.81.42,1.64,1,2.51,1.57.77.5,1.56.95,2.38,1.26.41.14.82.29,1.24.38l.63.15.64.08c1.71.22,3.56-.09,5.32-.59,1.74-.53,3.59-1.39,5.49-2.19,1.91-.8,3.89-1.59,6.09-2.06,1.22-.22,2.51-.44,3.92-.25,1.37.17,2.88.71,3.96,1.74.09.08.11.08.25.21.06.06.11.13.16.2l.07.11c.04.06.08.14.11.22.07.17.11.3.13.52.02.24-.02.51-.11.73-.07.17-.17.33-.29.47-.15.17-.17.17-.26.24-.07.05-.17.12-.23.15l-.15.07c-.11.05-.18.08-.25.1l-.19.06c-.44.12-.74.16-1.05.22l-1.72.27-.81.13-.42.08c-.18.04-.36.09-.54.17-.12.05-.24.11-.35.19-.21.16-.11.46.03.62.15.18.35.3.58.38.12.03.23.08.36.09l.19.03.4.02c.58.03,1.19-.03,1.8-.15.3-.04.61-.13.91-.21.31-.08.61-.16.85-.26.52-.18.97-.47,1.39-.82.83-.7,1.42-1.73,1.73-2.85.19-.69.28-1.43.23-2.1-.02-.36-.08-.6-.19-.88l-.48-1.04c-.72-1.34-1.75-2.48-3.01-3.36-.96-.66-2.03-1.19-3.15-1.63-1.14-.42-2.32-.73-3.53-1-2.43-.5-4.95-.72-7.48-.79-3.94-.12-7.81.26-11.86.16-.89-.03-1.78-.03-2.71-.16-1.72-.22-2.88-.63-3.62-1.13-.74-.5-1.04-1.04-1.08-1.67-.02-.28-.08-.57-.02-.79.09-.37.51-.48,1.07-.49.29-.02.64,0,1.01.05.4.03.83.1,1.36.16,3.09.39,6.66.18,10.29.13,3.65-.07,7.46-.08,11.38.42,2.9.36,5.93,1.07,8.75,2.7,1.4.81,2.75,1.83,3.85,3.11.53.66,1.05,1.32,1.44,2.06.22.36.42.72.57,1.1l.25.56.12.28c.04.08.08.2.13.35l-.08.04Z"/><path class="cls-3" d="m425.07,258.89c-1.26-1.91-3.02-3.75-4.84-5.46-1.84-1.72-3.81-3.33-5.85-4.86-1.49-1.11-3.07-2.1-4.63-3.12-2.59-1.68-5.24-3.26-7.99-4.64-1.37-.69-2.77-1.34-4.18-1.9-1.39-.56-2.91-1.09-4.25-1.43-.18-.05-.37-.07-.55-.01-.17.07-.3.12-.47.29-.19.16-.38.4-.56.65-.36.51-.71,1.12-1.01,1.75-.62,1.27-1.15,2.64-1.68,4.01-.65,1.77-1.41,3.55-2.31,5.28-.44.87-.95,1.71-1.54,2.51-.28.4-.59.79-.91,1.17-.33.37-.73.69-1.13,1-1.09.68-.89.58-.61-.46.22-1.11.46-2.98,1.16-4.93.47-1.22.88-2.49,1.28-3.77.45-1.27.95-2.54,1.47-3.85.54-1.31,1.08-2.64,1.92-4.04.46-.71.93-1.4,1.88-2.17,1.05-.81,2.43-1.16,3.71-.83l.95.28c.29.08.57.18.85.28.56.19,1.13.39,1.67.62,1.1.43,2.17.92,3.22,1.44,4.31,2.13,8.67,4.44,12.69,7.16,4.4,3.01,8.61,6.31,12.27,10.32,1.11,1.25,2.18,2.57,3.03,4.15.4.81.79,1.69.83,2.82.02.65-.09.95-.14,1.39l-.19,1.23c-.9,4.98-2.92,9.68-5.31,13.96-1.84,3.35-3.66,6.61-5.62,9.77-.43.7-.82,1.39-1.26,2.09-.81,1.29-1.39,2.11-1.89,2.62-.52.51-.95.72-1.44.82-.22.04-.47.13-.65.12-.31-.01-.41-.34-.33-.95.08-.6.3-1.5.82-2.52,2.83-6.18,6.9-11.92,9.59-18.05,1.01-2.27,1.83-4.59,2.39-6.98.13-.6.29-1.19.37-1.8l.15-.91.07-.45c0-.06.04-.19.03-.19,0-.02,0-.03,0-.04.04-.02-.03-.21-.04-.35-.08-.2-.1-.37-.22-.6-.1-.22-.2-.44-.34-.67-.12-.23-.27-.46-.44-.7l.07-.05Z"/><path class="cls-3" d="m175.72,259.32c-.57,1.88-1.06,3.77-1.26,5.73s-.02,4.07,1.17,5.66c1.3,1.74,3.53,2.65,5.68,2.42s4.21-1.36,5.88-2.82c1.99-1.74,3.48-3.99,4.45-6.43.31-.79-.34-1.73-1.1-1.94-.9-.25-1.62.31-1.94,1.1-1.17,2.95-3.93,6.16-7,6.87-.07.02-.56.1-.28.07-.18.02-.36.03-.54.04s-.36,0-.54-.02c.26.02.01,0-.04,0-.13-.03-.25-.05-.38-.09-.5-.13-.45-.12-.88-.37-.09-.06-.42-.28-.37-.24.12.1-.06-.06-.07-.07-.09-.09-.17-.17-.25-.26-.17-.18.12.18-.02-.02-.04-.06-.08-.12-.12-.18-.1-.16-.19-.33-.27-.51.11.25-.05-.16-.07-.24-.06-.19-.1-.39-.14-.58,0-.04-.06-.35-.03-.17.02.17,0-.09,0-.1-.01-.21-.03-.42-.04-.64,0-.44.01-.88.05-1.32.04-.47.06-.55.15-1.09.08-.47.19-.93.3-1.4.21-.87.46-1.72.72-2.58.59-1.94-2.45-2.78-3.04-.84h0Z"/><path class="cls-3" d="m167.64,290.5c1.78.56,3.9.26,5.4-.87,1.57-1.19,2.54-2.97,2.56-4.96.01-.85-.76-1.66-1.62-1.62s-1.61.71-1.62,1.62c0,.09,0,.18,0,.27,0,.07-.04.35,0,.05s0-.02-.01.05c-.02.09-.04.18-.06.26-.04.15-.08.29-.13.43-.02.06-.13.32-.02.06s0,0-.03.05c-.07.15-.16.29-.25.43-.04.06-.08.12-.13.19-.18.27.25-.28.03-.04-.1.11-.2.22-.31.33-.06.06-.13.12-.2.18-.21.19.24-.17.08-.06-.13.09-.26.18-.39.26-.07.04-.14.08-.21.11-.15.07-.33.08.05,0-.32.08-.62.22-.95.27-.29.05.03.04.11-.01-.04.03-.23.02-.28.02-.16,0-.31,0-.47,0-.08,0-.16-.01-.23-.02-.2-.02.39.07.11,0-.18-.04-.37-.08-.55-.14-.81-.26-1.81.3-2,1.13-.2.89.27,1.73,1.13,2h0Z"/><path class="cls-3" d="m199.23,253.73c-2.36-1.01-4.61-2.28-6.71-3.76-.77-.53-1.56-1.04-2.28-1.65-2.47-2.21-4.6-4.89-5.92-7.99-.54-1.39-.96-2.84-1.14-4.32-.14-1.9.13-3.89,1.15-5.48.3-.5.41-.35.53.18.07.34.15.7.22,1.04.14.43.21.88.23,1.34.05.82.17,1.61.4,2.37.06.19.1.38.13.57.04.19.11.38.16.56.09.38.22.74.37,1.11.59,1.45,1.26,2.91,2.16,4.35,1.05,1.75,2.8,3.07,4.45,4.38,1.84,1.43,3.85,2.7,5.99,3.72,1.32.62,2.68,1.19,4.07,1.64,2.11.68,4.31,1.22,6.51,1.4,1.72.13,3.41-.04,5.07-.26.37-.05.72-.15,1.09-.19,1.36-.12,1.82,0,2.25.76.1.17.22.34.29.51.24.58-.26,1.18-1.33,1.56-3.18,1-6.77.97-10.21.39-2.57-.43-5.07-1.19-7.48-2.15l.03-.08Z"/><path class="cls-3" d="m141.85,207.29c-3.5,2.19-6.67,4.91-9.25,8.08-1.31,1.57-2.4,3.3-3.33,5.09-.92,1.79-1.63,3.69-2,5.64-.61,2.84-.35,5.76.44,8.48.68,2.29,2.12,4.35,4.06,6.02,1.93,1.68,4.25,3,6.7,4.03,2.45,1.03,5.05,1.79,7.7,2.27,2.64.47,5.36.7,7.98.46,4.75-.55,9.58-1.8,13.99-3.61,5.67-2.42,10.74-5.91,14.71-10.62,1.27-1.46,1.24-1.23.72.43-.12.43-.29.93-.52,1.5-.18.61-.52,1.21-.9,1.86-.38.66-.83,1.36-1.38,2.03-.27.34-.55.71-.86,1.05-.34.31-.69.63-1.04.96-2.59,2.23-5.54,3.97-8.62,5.31-3.08,1.35-6.27,2.35-9.5,3.1-1.62.38-3.25.68-4.88.93-1.72.24-3.5.35-5.19.25-3.42-.15-6.75-.78-9.98-1.81-3.84-1.24-7.67-2.98-11.02-5.69-1.64-1.39-3.11-3.06-4.21-5.02-1.01-2.06-1.55-4.15-1.78-6.29-.46-4.74.86-9.42,3.02-13.43,2.22-4.01,5.26-7.45,8.71-10.32,4.25-3.54,9.18-6.16,14.33-8.03,3.92-1.37,8.03-2.23,12.17-2.56,4.14-.34,8.31-.07,12.36.67,3.16.54,6.28,1.54,9.15,3.01,2.85,1.5,5.48,3.45,7.73,5.79.47.54.97,1.05,1.42,1.59.43.56.91,1.1,1.3,1.71,1.54,2.21,2.23,3.87,2.57,5.07.16.61.24,1.1.25,1.52-.03.44-.12.8-.24,1.13-.11.3-.19.67-.32.86-.22.32-.62.02-1.19-.73-.58-.74-1.23-1.96-2.12-3.49-2.7-4.47-6.61-8.33-11.37-10.74-2.39-1.21-4.9-2.05-7.62-2.54-2.72-.52-5.5-.82-8.29-.79-8.26.01-16.65,2.33-23.65,6.86l-.05-.06Z"/><path class="cls-3" d="m196.61,305.06c-1.1.41-2.07.92-3.04,1.66l-3.2,2.34c-1.08.78-2.16,1.54-3.29,2.29-.56.37-1.14.74-1.76,1.09-.31.18-.63.35-1,.52-.2.09-.35.16-.66.25-.3.11-.59.1-.89.13l-.97-.06-.9-.09c-.59-.09-1.2-.11-1.79-.2-.6-.08-1.19-.19-1.78-.31-.58-.15-1.16-.32-1.73-.51-2.76-.91-5.38-2.15-7.77-3.7-4.22-2.74-7.83-6.19-11.14-9.78l-2.45-2.69-1.2-1.31c-.24-.26-.35-.39-.56-.59-.19-.17-.38-.38-.64-.47-.14-.06-.27.04-.31.17-.04.12-.06.25-.1.37-.05.26-.07.52-.06.8l.03.42.14.8c.42,1.91,1.34,3.77,2.46,5.5,1.12,1.74,2.45,3.34,3.89,4.84,1.85,1.92,3.9,3.67,6.05,5.27l3.26,2.36c1.1.76,2.23,1.49,3.38,2.19,1.44.85,1.18.99-.34.83-1.5-.18-4.36-.73-7.13-2.5-2.4-1.62-4.66-3.44-6.74-5.47-2.08-2.04-4.01-4.28-5.56-6.87-.76-1.31-1.42-2.71-1.89-4.23-.24-.78-.4-1.5-.52-2.42-.1-1.31-.11-2.65.2-3.71.08-.26.12-.57.23-.78l.38-.56.19-.28c.08-.07.14-.14.23-.21.16-.13.39-.27.64-.33.48-.14.88-.1,1.31.01.43.12.89.33,1.36.69.47.34.93.76,1.38,1.21.23.23.45.45.64.65l.46.49,1.41,1.59c4.38,5.05,9.43,9.81,15.26,12.96,1.67.9,3.41,1.64,5.2,2.19.9.25,1.8.55,2.72.74.46.11.92.19,1.39.24.44.05.99.09,1.36.11.1,0,.15-.01.26-.05.16-.07.33-.13.51-.23.36-.18.73-.4,1.1-.62.74-.45,1.48-.95,2.22-1.45,1.47-1.01,2.93-2.08,4.38-3.15.9-.67,1.93-1.47,3.06-2,1.12-.56,2.31-.96,3.53-1.21,1.22-.25,2.47-.36,3.73-.27,1.25.1,2.55.34,3.76,1.13.45.31.89.73,1.17,1.31.29.57.34,1.27.21,1.84-.22,1.1-.9,2.02-1.64,2.69-1.52,1.26-3.13,1.99-4.54,2.95-1.42.94-2.68,2.04-3.65,3.38-.96,1.35-1.59,2.9-2.04,4.51l-.38,1.92c-.04.62-.13,1.24-.06,1.87,0,.62.15,1.24.24,1.86.18.61.31,1.22.56,1.81.89,2.39,2.33,4.58,3.91,6.67.7.92,1.44,1.79,2.2,2.69,1.41,1.67,2.35,2.77,2.93,3.62.57.86.8,1.45.85,2.04.03.27.1.59.07.79-.09.66-1.69-.32-3.98-2.67-1.68-1.76-3.34-3.62-4.86-5.67-1.5-2.06-2.89-4.34-3.79-6.97-.41-1.32-.76-2.72-.77-4.19-.07-.73.05-1.47.1-2.2.12-.69.27-1.36.41-2.04.15-.68.41-1.34.62-2.02.24-.67.58-1.31.88-1.96.73-1.25,1.56-2.47,2.62-3.46,1.52-1.52,3.35-2.62,4.94-3.56.8-.47,1.51-.94,2.04-1.39.1-.12.2-.23.31-.33.12-.11.13-.22.21-.32.09-.09.1-.21.14-.32.04-.11.09-.23.08-.25,0-.08.01-.05-.05-.15-.06-.09-.24-.24-.5-.38-.52-.28-1.29-.45-2.07-.52-1.59-.12-3.29.15-4.84.72l-.03-.06Z"/><path class="cls-3" d="m266.12,414.63c2.02.17,4.06.43,6.08.85,2.02.44,4.02,1.04,5.95,1.8,1.92.78,3.77,1.73,5.54,2.79.44.26.86.56,1.3.83.41.26.91.61,1.2.75.64.42,1.33.7,2.04.87,2.85.68,6.18-1.03,8.68-3.5,1.27-1.23,2.39-2.67,3.28-4.2l.62-1.16c.17-.4.35-.79.5-1.19l.36-1.24c.06-.21.13-.41.18-.62l.1-.66c.26-1.26.28-2.6.32-3.93-.08-1.35-.1-2.69-.32-4.05-.31-2.71-.98-5.4-1.67-8.08-2.64-9.45-7.09-18.44-12.27-26.88-5.24-8.44-11.39-16.33-18.31-23.48-6.17-6.31-12.97-12.1-20.3-16.89-4.67-3.14-9.64-5.82-14.73-8.18-2.54-1.21-5.16-2.22-7.73-3.36-1.32-.48-2.63-.98-3.95-1.48-1.3-.55-2.67-.87-3.99-1.38-3.28-1.32-2.84-1.27.22-1.08.77.02,1.69.13,2.75.24,1.06.13,2.23.37,3.52.61,1.29.24,2.69.55,4.14,1.01,1.45.44,3.01.86,4.51,1.59,5.46,2.29,10.64,5.18,15.62,8.33,2.51,1.56,4.89,3.3,7.29,5.03l3.48,2.73c1.17.9,2.25,1.91,3.38,2.86,4.44,3.89,8.63,8.06,12.53,12.49,3.88,4.45,7.49,9.14,10.79,14.05,3.94,5.88,7.65,12.09,10.78,18.66,3.09,6.58,5.74,13.48,7.01,20.76.18,1,.27,2.02.41,3.03.13,1.01.12,2.05.19,3.07.03,1.03-.06,2.08-.09,3.11-.06.52-.15,1.05-.22,1.57-.09.52-.12,1.05-.3,1.56-.49,2.11-1.43,4.1-2.59,5.83-1.16,1.75-2.54,3.35-4.15,4.73-1.61,1.37-3.45,2.56-5.59,3.23-2.11.68-4.6.69-6.73-.21-2.23-1.01-3.51-2.16-5.24-3.03-1.67-.89-3.38-1.7-5.17-2.29-4.39-1.54-9.11-2.01-13.89-2.12-2.39-.06-4.81-.06-7.23-.07-2.4-.01-4.88.03-7.4-.29-.95-.12-1.92-.31-2.87-.58-.49-.14-.91-.29-1.45-.5-.59-.29-1.24-.55-1.75-.92-.61-.32-.93-.76-1.31-1.17-.16-.24-.11-.58-.05-.84.07-.27.18-.53.32-.8.29-.53.73-1.05,1.18-1.55l1.04-1.15c.28-.31.57-.68.67-.87v-.02s0-.02.04,0c.05.02.1.05.15.06.1.04.23.06.31.09.07.02.15.03.22.03.11.02.18-.03.16-.02.02-.01-.05.04-.05.06v.02c.32-.62-.46.86-.38.7h0s-.04-.03-.04-.03l-.61-.33-2.42-1.3c-1.61-.86-3.22-1.69-4.86-2.44-1.63-.75-3.3-1.45-4.96-1.89-1.68-.45-3.48-.7-5.28-.96-3.59-.55-7.35-.88-10.93-2.63-.34-.18-.68-.39-1.01-.59l-.88-.61-1.76-1.22c-1.15-.83-2.3-1.67-3.42-2.53-2.23-1.74-4.44-3.52-6.53-5.42-4.22-3.76-8.12-7.85-11.7-12.24-.8-.96-1.57-1.92-2.32-2.9-.77-.97-1.5-1.97-2.23-2.99-2.69-3.81-4.26-6.45-5.22-8.38-.48-.97-.83-1.74-1.04-2.43-.2-.69-.3-1.28-.35-1.82-.04-.49-.17-1.1-.13-1.42.12-1.07,2.48,1.91,6.17,7.44,5.56,8.16,12.1,15.93,19.73,22.7,1.9,1.7,3.88,3.31,5.9,4.89l3.09,2.29,1.58,1.1.79.55c.29.21.45.27.68.42,1.79.99,4.25,1.51,6.76,1.9,2.53.41,5.17.66,7.97,1.26,2.16.46,4.16,1.26,6.02,2.08,1.88.83,3.67,1.75,5.44,2.68l2.62,1.39.32.17.16.09.08.04.13.07c.13.08.27.17.39.28.23.19.47.47.65.82.19.37.23.62.27.92.04.34.01.48-.01.67-.01.09-.03.19-.05.28l-.05.18c-.03.11-.08.23-.11.33l-.1.22c-.08.16-.13.24-.19.35-.47.73-.82,1.09-1.18,1.51l-.47.52h0s-.02.02-.02.02c-.02.02,0,.02.02.04,0,0,0,0,.03.01l.5.19c.39.12.78.24,1.2.33.82.19,1.7.31,2.59.39,1.81.15,3.71.14,5.7.14,3.93.02,7.91-.06,12,.24v.09Z"/><path class="cls-3" d="m223.53,403.79c-2.88-.59-5.8-1.11-8.72-1.59-1.07-.19-2.15-.27-3.22-.47l-11.33-2.07c-1.68-.33-3.37-.62-5.04-.91-2.16-.33-4.3-.89-6.31-1.84-.63-.29-.47-.49.17-.69.32-.1.76-.21,1.28-.31.26-.05.54-.1.84-.14.15-.02.29-.02.45-.05.15,0,.3.02.45.03,4.35.39,8.67.94,13.03,1.88,2.61.55,5.38.71,8.09,1.07,2.98.39,5.95.91,8.92,1.43,1.83.33,3.65.7,5.48,1.07,2.76.58,5.51,1.3,8.23,2.08,2.11.61,4.24,1.14,6.32,2.09.46.19.91.41,1.36.67,1.65,1,1.91,1.75,1.6,2.63-.07.21-.13.42-.23.6-.38.59-1.23.5-2.28.03-3.1-1.46-6.71-2.58-10.48-3.56-2.81-.71-5.69-1.34-8.61-1.87v-.08Z"/><path class="cls-3" d="m181.48,433.17c-4.99-.56-9.97-1.33-14.89-2.47-4.92-1.13-9.82-2.57-14.44-4.86-3.36-1.65-6.68-3.68-9.27-6.65-2.32-2.59-3.81-5.82-4.62-9.1-.8-3.3-.94-6.67-.7-9.96.51-6.59,2.35-12.9,4.8-18.87,2.17-5.31,4.74-10.47,7.59-15.37,1.83-3.15,3.85-6.21,6.07-9.13.55-.73,1.12-1.45,1.71-2.15.59-.7,1.17-1.42,1.83-2.06,1.3-1.31,2.64-2.57,4.15-3.65,1.93-1.29,1.73-.97.57.57-.56.79-1.27,1.97-2.12,3.36-.21.35-.43.71-.66,1.09-.23.38-.43.79-.7,1.16-.53.76-1.07,1.58-1.67,2.39-2.13,2.92-3.99,6.03-5.89,9.11-1.86,3.11-3.58,6.3-5.15,9.56-1.57,3.26-2.98,6.6-4.18,10.01-1.18,3.41-2.24,6.87-2.89,10.41-.36,2.11-.65,4.27-.61,6.44,0,2.16.19,4.33.74,6.4.99,4.19,3.39,7.86,6.84,10.45,1.82,1.51,3.97,2.64,6.12,3.74,1.12.48,2.22,1,3.36,1.43,1.16.4,2.28.88,3.47,1.21,4.68,1.49,9.55,2.49,14.45,3.23,6.04.91,12.15,1.44,18.27,1.69,9.27.39,18.63.28,27.83-.38,1.5-.11,3-.24,4.48-.4.74-.08,1.47-.17,2.21-.25l.94-.13c.19-.03.38-.06.55-.11.14-.03.13-.22.17-.33.03-.13.05-.26.07-.38l.31-1.53c.22-1.04.48-2.08.8-3.1.62-2.05,1.47-4.05,2.53-5.93.81-1.43,1.7-2.79,2.76-4.08,1.98-2.38,3.63-3.61,4.85-4.33,1.23-.72,2.07-.92,2.84-.9.35.01.78-.02,1.02.06.85.32-1.02,1.85-3.87,4.73-2.26,2.25-4.15,4.88-5.52,7.79-.69,1.45-1.25,2.98-1.7,4.55-.22.79-.42,1.59-.59,2.41l-.13.63-.07.32-.05.26c-.02.11-.06.2-.09.3-.13.4-.26.8-.42,1.16-.2.32-.47.62-.7.89-.64.25-1.28.51-2.06.58l-1.43.18-2.37.25c-1.58.15-3.15.27-4.73.39-3.16.22-6.34.37-9.52.46-10.06.29-20.2.05-30.28-1v-.07Z"/><path class="cls-3" d="m212.79,340.39c.23.17.52.28.7.51l.53.63.6.77,1.19,1.51c.79,1,1.6,1.99,2.41,2.97,1.63,1.96,3.31,3.88,5.04,5.75,1.26,1.37,2.62,2.64,3.92,3.96,2.3,2.33,4.69,4.58,7.15,6.73,2.45,2.18,4.99,4.25,7.65,6.16,2.35,1.72,4.87,3.21,7.4,4.58.81.46,1.63.87,2.46,1.28.82.42,1.67.81,2.5,1.2,1.69.76,3.33,1.61,5.02,2.41,1,.65.81.75-.28.89-1.08.12-3.08.13-5.18-.59-7.37-2.75-14-7.15-19.91-12.26-3.53-3.08-7.2-6.26-10.54-9.67-3.66-3.76-7.09-7.72-10.35-11.81l-1.49-1.88c-.18-.19-.24-.39-.43-.44-.22-.02-.29-.06-.72-.05-1.47-.02-3.05.18-4.58.43-4.67.77-9.32,2.14-13.6,4.11-3.32,1.56-6.32,3.58-8.96,5.94-.57.53-1.15,1.03-1.66,1.62-.5.52-.92.95-1.29,1.29-.37.34-.62.65-.9.86-.53.43-.98.58-1.51.59-.24,0-.52.05-.73,0-.7-.12-.39-1.45.98-3.4,2.12-2.79,4.91-5.11,7.94-7.05,3.04-1.93,6.35-3.46,9.76-4.67,2.54-.87,5.14-1.59,7.79-2.13l2-.36,2.03-.28c.71-.05,1.37-.14,2.11-.15h.56c.19,0,.34-.02.64,0l.91.17.45.08.23.04h.06s.04-.07-.03.09h0s.01.01.01.01h.02s.1.07.1.07l-.03.07Z"/><path class="cls-3" d="m318.99,332.99c5.88.06,11.65.82,17.32,1.66,2.08.31,4.15.54,6.2.87,7.24,1.17,14.44,2.29,21.7,2.36h2.42c.8-.03,1.6-.11,2.41-.16l2.4-.19c.8-.08,1.58-.23,2.37-.34,1.01-.16,2.03-.29,3.03-.49l2.99-.71c2.04-.32,3.94-1.08,6.01-1.41,1.28-.23,1.2,0,.3.75-.45.36-1.09.92-1.93,1.43-.84.5-1.82,1.16-3,1.5-2.09.61-4.18,1.26-6.34,1.6-1.07.19-2.14.43-3.23.57-1.08.13-2.17.19-3.26.28-.54.04-1.09.1-1.63.11h-1.63c-1.09.01-2.18.02-3.27,0-2.16-.15-4.34-.21-6.49-.52-5.15-.57-10.47-1.21-15.65-1.96-5.69-.83-11.34-1.66-17.01-1.93l-2.62-.12-2.61.04c-1.75-.03-3.47.18-5.2.34-5.27.6-10.57,1.5-15.61,2.99-3.92,1.15-7.58,2.81-11.11,4.69-.78.42-1.52.86-2.3,1.29-2.88,1.61-3.88,1.99-4.98,1.56-.25-.1-.55-.16-.74-.3-.65-.43.2-1.68,2.3-3.1,3.09-2.11,6.52-3.94,10.17-5.42,3.65-1.49,7.5-2.59,11.37-3.42,2.88-.62,5.78-1.08,8.67-1.47,1.45-.19,2.98-.29,4.46-.43.75-.09,1.49-.1,2.24-.1l2.23-.04v.08Z"/><path class="cls-2" d="m175.96,126.82c-1.77-1.73-3.46-7.62-3.46-7.62,0,0,6.73-27.11-11.81-27.11-12.79,0-12.39,16.25-8.89,19.91,3.5,3.66,13.66,11.18,13.66,11.18l4.81,7.9,5.68-4.26Z"/><path class="cls-3" d="m160.13,86.85c-5.36,1.11-9.54,5.73-10.19,11.34-.29,2.02-.1,4.1.31,6.1.33,1.78,1.04,3.49,1.87,5.06.87,1.54,2.08,3,3.41,4.35,2.7,2.73,5.89,5.01,9.2,7.28l.82.59.44.35c.17.17.34.34.51.52.84,1.16,1.43,2.18,2.08,3.26l.91,1.51c.08.12.16.24.24.36.05.05.08.12.15.15.07,0,.14,0,.22,0,.11,0,.21-.01.32-.02.12,0,.17-.03.36-.07,1.25-.25,2.56-.87,3.76-1.58.61-.35,1.19-.75,1.72-1.16l.75-.58c.15-.14.24-.23.23-.39-.01-.15-.06-.28-.1-.44l-.21-.96c-.17-.72-.36-1.44-.58-2.14-.36-1.2-.23-1.27.51-.64.37.32.89.81,1.53,1.46.32.32.66.69,1.02,1.11.3.4,1.19,1.61,1.05,2.59.01.11-.03.21-.06.32-.1.08-.09.21-.14.31-.05.23-.2.42-.31.62-.07.1-.12.2-.16.33l-.21.27c-.11.15-.23.29-.33.41-.65.73-1.36,1.18-2.06,1.66-.71.46-1.43.89-2.19,1.26-.76.38-1.56.71-2.43.98-.46.14-.83.24-1.44.34-.34.09-.73.07-1.09.08-.37,0-.73.02-1.1,0l-.4-.12-.2-.06-.1-.03-.05-.02h-.01c.09-.19.02-.06.04-.1h0s0,0,0,0h-.02c-.26-.12-.5-.24-.72-.42-.42-.38-.74-.92-1.06-1.43l-.98-1.73-.88-1.55-.44-.73-.39-.61c.07.04-.22-.22-.6-.49l-1.11-.81-2.34-1.71c-1.57-1.16-3.11-2.39-4.58-3.74-2.11-1.99-4.29-4.07-5.94-6.8-1.61-2.7-2.57-5.73-2.79-8.82-.21-3.37.26-6.86,1.83-9.93l.6-1.14c.22-.37.48-.71.72-1.07.45-.73,1.07-1.34,1.63-1.99.28-.33.63-.58.95-.87.33-.27.63-.58.99-.81.72-.45,1.39-1,2.18-1.33.47-.23.93-.47,1.41-.67l1.47-.5c.48-.19,1-.3,1.52-.4.26-.05.52-.11.78-.15l.79-.06c2.11-.16,4.22.21,6.15.92.74.25,1.43.6,2.14.92.67.38,1.36.74,1.98,1.19,1.28.85,2.46,1.85,3.51,2.97,1.05,1.12,2.02,2.32,2.78,3.68.78,1.37,1.32,2.82,1.73,4.29,1.22,4.58,1.28,9.27.48,13.86-.2,1.01-.38,2-.68,3.01-.57,1.85-1.15,3.03-1.75,3.74-.57.73-1.12,1.02-1.73,1.12-.28.05-.57.14-.79.12-.76-.1-.45-1.6.23-4,1.1-3.55,1.65-7.42,1.57-11.24-.09-3.8-.76-7.67-2.87-10.5-1.56-2.22-3.75-4.14-6.18-5.41-1.21-.66-2.53-1.03-3.82-1.24-1.3-.21-2.6-.18-3.84.14l-.03-.08Z"/><path class="cls-3" d="m178.3,133.53c-.61.22-1.23.4-1.84.59-.22.07-.42.19-.65.25-.8.19-1.61.32-2.43.35-.36.03-.7.12-1.04.2-.43.13-.87.26-1.4-.11-.16-.09-.16-.17-.09-.42.05-.19.09-.38.13-.53.03-.1.05-.24.09-.33.04-.08.08-.14.13-.19.17-.19.37-.29.57-.37.2-.08.39-.17.59-.24.4-.14.8-.26,1.24-.29.55.02,1.01-.28,1.5-.45.55-.18,1.1-.36,1.64-.57.33-.14.67-.26.99-.42.49-.24.99-.47,1.41-.81.33-.27.54-.66.79-1.01.05-.08.09-.17.15-.24.23-.24.48-.11.97.36l.33.31c.33.34.55.82.46,1.14-.3.92-1.01,1.47-1.75,1.94-.56.34-1.15.62-1.75.88l-.03-.06Z"/><path class="cls-3" d="m179.86,137.32c-.58.26-1.18.48-1.8.64-.22.07-.41.19-.64.24-.81.16-1.62.26-2.42.29-.35.02-.7.08-1.03.14-.22.03-.43.11-.66.09-.23-.02-.45-.08-.68-.19-.14-.07-.13-.42-.05-.81.09-.39.24-.88.43-1.02.18-.14.35-.2.53-.25.18-.05.36-.12.54-.16.18-.04.36-.09.55-.11.19,0,.39,0,.59,0,.5.03.91-.28,1.35-.45.49-.2.99-.4,1.49-.59.31-.13.62-.27.91-.43.44-.25.9-.5,1.27-.85.3-.26.49-.63.72-.95.05-.07.09-.15.15-.22.23-.22.46-.14.92.22l.32.24c.34.28.51.65.47.98-.07.47-.26.87-.47,1.25-.11.19-.24.36-.37.54-.14.17-.31.29-.47.43-.5.39-1.06.71-1.62,1.02l-.04-.06Z"/><path class="cls-3" d="m170.88,105.54c-.33,1.25-1.08,2.22-1.83,2.92-.76.72-1.57,1.25-2.38,1.71-.41.23-.82.44-1.23.64-.17.09-.49.21-.77.32-.28.11-.58.15-.87.21-1.18.16-2.29-.07-3.26-.47-1.4-.6-2.62-1.46-3.52-2.72-.39-.53-.74-1.25-.91-1.86-.19-.58-.37-1.69-.1-2.52.25-.86.95-1.55,1.82-1.76.83-.23,1.87-.08,2.5.23,1.44.66,2.14,1.64,2.85,2.56.7.93,1.26,1.91,1.8,2.89.92,1.76,1.76,3.54,2.52,5.33.25.57.48,1.16.71,1.74.22.59.4,1.19.58,1.79.35,1.2.63,2.44.71,3.71.03.8-.12.69-.48.1-.35-.59-1.12-1.58-1.72-2.83-1.12-2.2-2.09-4.47-3.28-6.61-.57-1.08-1.2-2.11-1.81-3.14-.62-1-1.31-1.97-2.03-2.68-.9-.8-1.48-.86-1.67-.33-.02.14-.02.22.02.4.05.22.16.6.27.82.22.5.62,1.01,1.1,1.43,1.04.92,2.49,1.52,3.63,1.24.15-.02.28-.08.41-.13.13-.04.35-.16.52-.24.36-.18.71-.37,1.04-.58.67-.41,1.3-.87,1.79-1.39.3-.32.55-.66.71-1.01.15-.31.24-.78.31-1.22.12-.87-.04-1.72-.48-2.19-.15-.19-.36-.29-.49-.32-.07-.03-.08.03-.11-.05,0-.03-.04-.08-.05-.09,0,.01.02.02.02.02h0s.04.03.06.04c.05-.03,0,.14,0,.26-.03.11-.02.28,0,.45,0,.33.07.69.14,1.06.29,1.47.79,2.97,1.35,4.41.87,2.26,2.05,4.36,3.11,6.5.24.47.47.93.71,1.41.41.89.66,1.49.75,1.95.07.47.01.8-.14,1.13-.07.15-.12.33-.21.45-.14.2-.39.17-.75-.06-.36-.23-.82-.65-1.24-1.27-.65-.91-1.27-1.85-1.87-2.81-.6-.97-1.08-2-1.58-3.04-.97-2.1-1.86-4.26-2.55-6.62-.24-.91-.49-1.76-.56-2.91l-.03-.42c0-.14.02-.37.04-.54.02-.19.05-.38.08-.57,0-.07.06-.24.12-.4.06-.16.13-.31.21-.46.37-.62,1.06-1.12,1.68-1.25.65-.18,1.18-.09,1.65.03,1.83.59,2.58,2.07,2.89,3.29.28,1.26.14,2.4-.11,3.42h-.07Z"/><path class="cls-2" d="m88.71,122.77c-4.21-.06-11.11,2.14-11.11,11.78,0,4.92,6.46,9.82,11.2,8.17,2.17-.75,8.24-5.91,7.03-11.64-.89-4.22-3.31-8.26-7.13-8.31Z"/><path class="cls-3" d="m88.44,120.26c1.26.38,2.32.92,3.4,1.6.53.34,1,.76,1.49,1.15.43.46.91.88,1.28,1.39,1.55,1.99,2.47,4.41,2.64,6.83.15,1.76.09,3.55-.39,5.24-.43,1.49-1.05,2.91-1.9,4.2-.89,1.33-1.98,2.39-3.11,3.33-2.27,1.87-4.75,3.26-7.17,4.62l-.85.49c-.14.08-.27.16-.37.23-.09.06-.14.1-.2.16-.45.54-.98,1.33-1.44,2.06l-.36.56c-.12.19-.35.54-.54.79-.38.57-.93.91-1.6.9-.57-.02-1.2-.12-1.74-.3-.44-.13-.85-.3-1.24-.48-.79-.37-1.52-.8-2.22-1.31-.36-.24-.65-.58-.96-.91-.15-.18-.3-.35-.46-.59-.05-.14-.17-.26-.25-.39-.06-.14-.07-.32-.12-.44-.03-.54.16-1.22.72-1.7l.12-.2c.09-.05.1-.08.14-.12l.21-.23.41-.44c.71-.71.76-.52.67.4-.03.4-.15,1.34.01,1.35.06.07.14.1.23.08.13,0,.52.19.82.34.62.37,1.24.82,1.9,1.12.32.15.65.29.95.38.19.06.09.03.12.04h0s0,.01.02.01h0s0,0,0,0l.08-.11.38-.54.8-1.12.44-.58.24-.29.31-.37c.25-.22.53-.5.77-.63.21-.14.39-.24.55-.33l.98-.53,1.86-1c1.22-.67,2.4-1.38,3.52-2.13,1.51-1.01,2.86-2.28,3.77-3.69.91-1.49,1.5-3.2,1.75-4.94.63-3.8-.83-7.98-4.21-9.98-.49-.34-1.05-.58-1.6-.83-.55-.23-1.1-.39-1.68-.47-1.15-.18-2.36-.07-3.51.28-3.49,1.11-6.58,4.1-7.64,7.63-.83,2.8-.64,5.81-.07,8.64.13.63.31,1.23.48,1.84.67,2.27.71,3,.19,3.83-.12.19-.21.42-.34.56-.39.49-1.48-.2-2.36-2.03-1.16-2.74-1.74-5.77-1.67-8.92.05-1.58.3-3.19.81-4.78.5-1.59,1.34-3.17,2.39-4.47,1.56-1.95,3.54-3.52,5.86-4.53,2.29-1,5.06-1.48,7.67-.71v.07Z"/><path class="cls-3" d="m74.21,153.27c.31.24.63.49.97.71.12.08.27.1.4.18.44.29.88.58,1.33.9.21.12.43.2.65.25.29.06.58.1.79.56.07.13.05.19-.07.37-.09.14-.18.28-.25.39-.05.07-.11.17-.17.23-.05.05-.11.09-.16.11-.19.1-.36.09-.53.08-.17,0-.34-.03-.5-.06-.33-.06-.65-.17-.93-.37-.32-.29-.74-.33-1.11-.51-.4-.2-.79-.43-1.17-.67-.23-.15-.47-.3-.69-.45-.35-.23-.68-.49-1.05-.69-.29-.15-.65-.21-.99-.35-.07-.03-.16-.04-.23-.08-.24-.18-.16-.41.23-.87l.26-.3c.28-.3.67-.55.89-.58.62-.05.98.19,1.41.45.31.21.62.43.94.65l-.02.05Z"/><path class="cls-3" d="m72.57,155.88c.23.23.48.46.74.69.1.08.22.09.32.18.35.29.73.57,1.15.8.18.1.39.14.59.16.26,0,.51.04.76.29.08.08.06.38-.02.72-.09.33-.26.75-.45.84-.17.1-.34.1-.5.1-.17,0-.33,0-.49-.03-.33-.03-.64-.16-.91-.38-.33-.25-.74-.27-1.1-.44-.39-.18-.76-.42-1.1-.69-.21-.16-.41-.34-.61-.51-.31-.26-.58-.56-.89-.81-.23-.21-.54-.34-.79-.56-.06-.05-.13-.08-.17-.14-.15-.24-.04-.42.37-.72l.28-.21c.32-.21.66-.32.88-.32.31.02.53.06.76.12.22.05.4.12.54.27.23.18.44.41.69.6l-.03.05Z"/><path class="cls-3" d="m80.77,134.01l-.05.29v.32c0,.18.02.34.08.53.12.37.38.78.73,1.17.35.39.8.77,1.27,1.12.24.18.49.35.75.51l.4.25c.12.07.15.09.24.13.43.2,1.13.08,1.77-.24.56-.27,1.09-.73,1.33-1.17.14-.26.3-.63.37-.86.04-.13.05-.22.06-.23.36-.05.48-.23.38-.11,0,.02-.03.07-.06.14-.01.03-.02.06-.02.1l-.02.07h0s-.04-.01-.08-.02c-.09,0-.25.01-.35.06-.06.02-.11.03-.17.05-.06.03-.14.08-.21.12-.14.08-.29.15-.43.28-.59.43-1.13,1.04-1.66,1.64-.94,1.1-1.74,2.35-2.47,3.61-.88,1.65-1.83,3.29-2.64,4.96-.23.52-.33.45-.42-.1-.08-.54-.17-1.62.18-2.71.29-.97.62-1.92,1.09-2.81.44-.9.92-1.79,1.46-2.65.54-.86,1.13-1.71,1.84-2.5.38-.39.75-.78,1.22-1.14.45-.36,1.02-.72,1.79-.93.4-.07.86-.17,1.55.06.33.1.72.38.93.73.23.35.29.69.31.97.01,1.09-.29,1.64-.61,2.33-.4.74-.94,1.28-1.54,1.71-.6.43-1.28.75-2.02.93-.81.18-1.77.19-2.63-.24l-.31-.16-.22-.13-.44-.27c-.29-.18-.59-.38-.87-.59-1.12-.84-2.32-1.86-2.84-3.51-.29-1.04-.23-2,.14-2.99.18-.48.47-.92.82-1.3.36-.39.74-.67,1.29-.92.82-.36,1.85-.45,2.5.19.33.29.58.67.75,1.08.08.2.14.43.19.63.02.19.06.38.06.57.03,1.48-.45,2.72-.92,3.9-.78,1.81-1.59,3.55-2.61,5.17-.23.35-.44.71-.69,1.05-.92,1.27-1.4,1.52-2.03,1.48-.14-.01-.3,0-.42-.03-.39-.08-.35-.86.14-1.89.36-.76.73-1.52,1.09-2.28.35-.77.79-1.48,1.16-2.22.75-1.46,1.48-3.01,1.71-4.33.04-.23.06-.46.05-.64,0-.1-.01-.17-.02-.24,0-.08,0-.02,0-.04,0,0,0-.02,0-.03,0,0-.03,0-.01-.01-.13.07-.27.15-.37.26-.23.22-.4.5-.46.87h-.06Z"/><path class="cls-3" d="m241.42,158.13c2.1-1.15,4.63-1.42,6.56.14,1.52,1.24,2.24,3.37,1.76,5.34-.64,2.69-2.77,4.2-5.24,5.14-2.6.98-5.28,1.72-7.78,2.96-2.95,1.47-5.43,3.76-6.35,7-.75,2.64,3.35,3.76,4.1,1.13s3.28-4.06,5.67-5.04c2.93-1.21,6.16-1.84,8.87-3.53,5.94-3.71,7-12.38,1.11-16.66-3.25-2.37-7.47-1.99-10.85-.14-2.4,1.32-.26,4.99,2.15,3.67h0Z"/><path class="cls-3" d="m231.5,187.43c0-.12.02-.24.03-.35l-.08.56c.02-.15.05-.29.11-.42l-.21.51c.03-.07.07-.14.12-.2l-.33.43c.04-.05.09-.1.15-.15l-.43.33s.1-.07.16-.1l-.51.21c.05-.02.1-.04.16-.04l-.56.08s.1,0,.14,0l-.56-.08s.07.02.11.03l-.51-.21s.07.03.1.06l-.43-.33s.07.06.1.1l-.33-.43s.05.07.06.11l-.21-.51s.02.07.03.1l-.08-.56s0,.06,0,.09l.08-.56s-.01.06-.02.09l.21-.51s-.01.03-.02.04c-.16.24-.24.51-.25.79-.06.28-.05.56.04.85.07.28.19.52.38.72.15.23.35.41.6.55l.51.21c.38.1.75.1,1.13,0l.51-.21c.32-.19.57-.44.76-.76.05-.09.09-.22.13-.3.03-.07.1-.2.12-.3.06-.22.1-.45.09-.67,0-.01,0-.02,0-.03-.01-.11-.06-.47-.08-.57,0-.02,0-.03-.01-.05-.03-.1-.09-.23-.12-.3-.04-.09-.08-.21-.13-.31,0-.02-.02-.03-.03-.05-.07-.11-.25-.33-.34-.44,0,0-.01-.02-.02-.02-.13-.15-.45-.36-.51-.41-.03-.02-.06-.04-.1-.06-.11-.05-.41-.18-.51-.22,0,0-.02,0-.03-.01-.02,0-.04-.01-.06-.02-.47-.1-.9-.12-1.36.02-.21.06-.41.16-.61.25-.04.02-.09.05-.13.08-.15.12-.32.24-.47.36-.02.01-.03.03-.05.05s-.03.03-.04.05c-.13.15-.25.31-.37.47-.03.04-.05.08-.07.12-.01.02-.02.05-.03.07-.08.19-.17.38-.24.57-.04.12-.07.24-.08.36-.04.31-.09.61-.11.92-.01.29.05.57.18.82.09.26.23.49.44.68.19.21.42.35.68.44.25.13.53.19.82.18l.56-.08c.36-.1.67-.28.94-.55l.33-.43c.19-.33.29-.69.29-1.07h0Z"/><path class="cls-3" d="m55.8,203.98c-2.71-.95-5.9-.84-8.3.87-2.23,1.59-3.59,4.1-3.66,6.85-.07,3.12,1.65,6.04,4.18,7.78s5.86,1.92,8.85,2.48,5.79,1.27,7.06,3.94c.46.98,1.86,1.23,2.74.72,1-.58,1.18-1.76.72-2.74-2.45-5.15-8.63-5.52-13.52-6.46-2.42-.47-4.83-1.52-5.68-3.77-.09-.24-.16-.48-.22-.72-.02-.08-.13-.72-.09-.4-.03-.27-.04-.55-.03-.82,0-.11.09-.8.03-.48.04-.23.09-.46.16-.68.04-.13.08-.25.12-.38.11-.31-.11.23.02-.07.09-.21.2-.41.32-.61.07-.11.42-.6.26-.4.42-.52.72-.76,1.09-1,.59-.37.67-.4,1.32-.57,1.06-.27,2.31-.11,3.56.33,1.02.36,2.19-.4,2.46-1.4.3-1.1-.37-2.1-1.4-2.46h0Z"/><path class="cls-3" d="m71.49,231.07c-.02-.1-.05-.19-.07-.29-.01-.04-.03-.09-.04-.13-.04-.1-.08-.2-.12-.29s-.08-.2-.13-.3c-.11-.23-.3-.44-.45-.62-.03-.03-.06-.06-.09-.09-.14-.12-.3-.24-.45-.35-.02-.01-.04-.03-.06-.04-.02-.01-.04-.02-.05-.03-.17-.08-.35-.15-.52-.22-.04-.02-.08-.03-.12-.04-.1-.02-.21-.03-.29-.04-.05,0-.19-.03-.28-.04-.02,0-.04,0-.06,0s-.04,0-.06,0c-.16.02-.39.04-.55.07-.01,0-.02,0-.03,0-.02,0-.04.01-.06.02-.09.03-.4.16-.48.2,0,0-.01,0-.02,0-.02,0-.03.02-.05.03-.07.05-.2.15-.21.16-.06.05-.15.11-.22.17-.01.01-.02.02-.04.03,0,0,0,.01-.01.02-.1.11-.23.29-.32.42-.02.03-.04.06-.05.09-.06.11-.19.38-.23.58-.02.09-.04.27-.04.28-.01.08-.03.2-.04.29,0,.02,0,.04,0,.05,0,.19.02.43.09.62-.04-.12.14.38.22.52,0,0,0,.01.01.02.05.07.11.14.16.21.05.07.11.14.17.21.18.2.4.33.64.41.24.13.5.18.77.17.28.01.53-.05.77-.17.25-.08.46-.22.64-.41l.31-.4c.18-.31.27-.65.27-1.01l-.07-.53c-.1-.34-.27-.63-.51-.88h0c.1.12.21.26.31.39-.02-.02-.03-.04-.04-.07l.2.48s-.02-.05-.02-.08l.07.53s0-.06,0-.09l-.07.53s.02-.07.03-.11l-.2.48s.03-.07.06-.1l-.31.4s.05-.06.08-.08l-.4.31s.05-.04.08-.05l-.48.2s.07-.02.11-.03l-.53.07s.09,0,.13,0l-.53-.07c.05,0,.1.02.15.04l-.48-.2c.06.03.11.06.16.1l-.4-.31c.05.04.1.09.14.14l-.31-.4c.06.08.1.16.14.25l-.2-.48c.06.15.1.31.14.47.06.26.18.49.36.68.14.22.33.39.56.52.23.15.48.23.74.24.27.06.53.05.8-.04l.48-.2c.3-.18.54-.42.72-.72l.2-.48c.1-.35.1-.71,0-1.06h0Z"/><g class="cls-4"><path class="cls-3" d="m139.88,159.88c.75.57,1.41,1.1,1.99,1.56l.22.18c-.01.06-.14.12-.21.18l-.48.37-.95.71c-.18.17-.55.35-.86.53-.32.18-.65.36-.99.53l-.86.42-.5.22-1.01.44-.77.33c-.14.07-.32.13-.52.2-.03.03-.17.03-.11.08.11.2.37.38.6.49.09.04.18.08.27.1.15.07.33.13.5.19.34.12.69.22,1.06.34.22.07.22.41-.03.75-.24.34-.77.69-1.36.59-.3-.05-.6-.13-.89-.24-.48-.16-.91-.45-1.36-.69-.86-.59-1.32-1.25-2.09-2,.62-.33,1.11-.65,1.7-.94l.88-.43c.29-.14.6-.29.72-.32.49-.19.95-.43,1.41-.7l.34-.2.16-.09.06-.03c.08-.04.17-.07.26-.11.32-.14,1.24-.39.57-.66l-.36-.27c-.07-.05-.14-.1-.21-.14l-.11-.07-.21-.11c-.94-.48-1.88-.98-2.87-1.33-.77-.27-1.59-.34-2.38-.51-.17-.04-.35-.05-.52-.09-.63-.18-.77-.43-.68-1.2.02-.17.03-.35.06-.52.11-.57.52-.95,1.06-.97.8-.02,1.6.05,2.37.25.76.22,1.51.52,2.24.86.54.25,1.07.53,1.6.82l1.02.56c.48.28.89.6,1.31.89l-.06.04Z"/></g><path class="cls-3" d="m243.19,115.47s.04-.02.05-.03l.02-.02c-.09.06-.02.01-.04.02l.02-.02h0s.29-.28.29-.28h0s0,0,0,0h0s0,0,0,0h0s0,0,0,0c0,0-.03-.01,0,0l.22.09.46.17c.3.11.59.23.81.37.22.14.35.3.5.43.28.27.46.51.69.77.21.25.57.64.54.8.02.11.12.32.21.49-.46.25-.97.51-1.47.74-.8.35-1.46.7-2.09,1.03l-1.33.7c-.7.37-1.38.77-2.04,1.2-.58.38-1.14.84-1.64,1.29-.61.61-1.03,1.15-1.26,1.66-.07.16-.48.29-.94.03-.47-.23-.83-1.14-.47-1.84.29-.61.69-1.04,1.08-1.41.4-.37.74-.64,1.13-.95.76-.59,1.57-1.12,2.43-1.56.26-.13.51-.28.76-.44l.37-.24s.08-.05.12-.07c.16-.1.3-.2.5-.29.03-.01.06-.03.11-.04.1-.05.21-.1.34-.16.01-.08-.08-.15-.15-.2-.15-.1-.36-.16-.56-.31-.02-.01-.03-.03-.05-.04l-.09-.09c-.12-.11-.23-.23-.34-.38-.2-.28-.35-.61-.4-.95-.11-.69.07-1.26.28-1.71.32-.68.79-1.2,1.21-1.64.41-.43.82-.87,1.22-1.31.62-.68,1.11-1.48,1.75-2.13.14-.15.26-.31.41-.44.57-.5.87-.52,1.4-.16.12.08.25.16.35.25.36.31.4.81.13,1.3-.74,1.5-1.81,2.69-2.86,3.93l-.56.66c-.14.17-.27.35-.35.5-.09.15-.13.27-.14.28h0s-.09-.01-.09-.01h-.16c-.09-.02-.19,0-.23,0-.14.02-.14.03-.12.02h0Z"/><path class="cls-3" d="m393.96,409.38l17.91.27c2.18.03,4.36-.02,6.53.03,7.68.18,15.35.39,23.03.49,3.41.03,6.83.04,10.21,0,2.17-.02,4.34-.05,6.52-.07,2.18.05,4.35.14,6.52.35,1.35.14,1.18.36.04.77-1.14.41-3.24,1.08-5.74,1.36-4.43.25-8.87.39-13.31.49-4.44.05-8.9-.03-13.37-.17-5.35-.18-10.91.03-16.38.03-6.01,0-12.03-.1-18.04-.15-3.7-.03-7.41-.06-11.1-.09-5.6-.02-11.24-.08-16.8.01-4.32.07-8.56.4-12.83.5-.94.03-1.86.08-2.81.09-1.76.06-2.92-.15-3.74-.29-.82-.17-1.29-.41-1.67-.75-.17-.15-.4-.3-.51-.45-.35-.48,1.08-.96,3.65-1.39,1.91-.32,3.85-.42,5.8-.6,1.96-.17,3.93-.31,5.93-.35,3.98-.14,8.02-.18,12.07-.21,6.01-.04,12.05.02,18.08.04v.08Z"/><path class="cls-3" d="m401.89,403.54l9.07.24c1.1.02,2.21-.04,3.31,0,3.89.13,7.78.26,11.67.3,1.73.03,3.46,0,5.17-.04,1.1-.03,2.2-.06,3.3-.09,1.1.03,2.21.16,3.31.26.69.08.6.2.03.44-.57.23-1.63.71-2.89.99-4.49.4-8.98.62-13.52.47-2.71-.08-5.53.11-8.3.15l-9.15-.03-5.63-.04c-2.84,0-5.7-.06-8.52,0-2.19.04-4.34.23-6.51.35-.48.03-.94.08-1.43.09-1.78.04-2.35-.15-2.74-.9-.09-.17-.2-.34-.25-.51-.17-.57.56-1.05,1.86-1.23,3.87-.51,7.95-.72,12.05-.67,3.04.04,6.1.09,9.15.13v.07Z"/><path class="cls-3" d="m123.51,412.81l-6.67-.18c-.81-.01-1.62.05-2.44.03-2.87-.1-5.74-.34-8.61-.51-1.27-.12-2.55-.2-3.81-.29-.81-.06-1.62-.13-2.43-.22-.81-.07-1.61-.29-2.41-.44-.5-.11-.42-.15.01-.25.44-.08,1.24-.35,2.17-.45,3.29-.23,6.55-.75,9.87-.48,1.98.1,4.04-.14,6.08-.15l6.72-.03h4.14c2.09-.02,4.19.01,6.28-.04,1.62-.05,3.21-.27,4.84-.36.36-.02.71-.07,1.07-.08,1.35.03,1.77.34,1.96,1.22.04.2.11.41.13.61.05.68-.53,1.2-1.47,1.35-2.78.4-5.72.41-8.71.41-2.23-.02-4.46-.04-6.7-.06v-.07Z"/><path class="cls-3" d="m129.24,407.22l-3.98-.31c-.48-.02-.97,0-1.45-.05-1.71-.19-3.41-.4-5.12-.53-.76-.07-1.52-.09-2.27-.1-.96.04-1.93-.09-2.9-.33-.3-.08-.26-.25-.01-.49.25-.24.71-.65,1.27-.84,1.96-.5,3.94-.61,5.93-.38,1.19.14,2.43-.04,3.64-.06,1.34,0,2.68.08,4.02.12l2.47.08c1.25.02,2.5.09,3.74.01.96-.05,1.9-.31,2.86-.46.21-.03.41-.09.63-.11.78-.05,1.03.16,1.2,1,.04.19.09.38.11.57.07.65-.24,1.19-.82,1.4-1.7.66-3.48.69-5.28.69-1.33,0-2.67-.09-4.01-.14v-.07Z"/><path class="cls-3" d="m207.2,327.99c.96-.22,1.93-.5,2.87-.94.34-.16.65-.36.98-.54.6-.29,1.19-.62,1.77-.97.59-.35,1.18-.7,1.72-1.12.5-.36.93-.79,1.36-1.22.57-.53,1.12-1.08,1.78-1.55.21-.14.35.01.4.33.05.31.06.84-.17,1.26-.22.36-.43.73-.67,1.09-.25.34-.55.63-.84.94-.6.59-1.25,1.14-1.97,1.6-.86.55-1.67,1.23-2.57,1.78-1.01.56-2.05,1.08-3.16,1.44-.67.26-1.38.39-2.07.58-.54.08-1.08.19-1.62.23-.55,0-1.09.09-1.63.07-.42,0-.84.05-1.27.07h-1.29c-.19,0-.38-.02-.57-.06-.7-.15-.86-.4-.75-1.13.03-.17.04-.34.09-.5.15-.55.55-.93.99-.96,1.31-.07,2.5.01,3.76-.07.93-.03,1.88-.16,2.84-.38l.02.06Z"/><g class="cls-4"><path class="cls-3" d="m290.68,228.85c-.12.42-.3.86-.5,1.31l-.17.34c-.09.14-.16.31-.24.46-.18.29-.38.57-.62.79-.34.33-.74.62-1.22.69-.41.07-.84,0-1.24-.14-.2-.07-.4-.15-.59-.26-.1-.04-.18-.11-.28-.15l-.17-.11c-.43-.27-.86-.54-1.3-.79-.39-.22-.8-.39-1.22-.54-.53-.19-1.1-.3-1.54-.73-.27-.26.84-1.79,1.48-1.62,1.11.34,2.18.78,3.15,1.47.13.1.33.2.43.26.04.03.1.07.15.09.11.04.22.05.34.02.14-.03.24-.13.33-.25.04-.03.1-.18.16-.34.06-.15.11-.31.15-.48.11-.41.23-.86.32-1.34.14-.72.33-1.51.59-2.31.1-.31.18-.63.3-.97.14-.32.31-.64.56-.93.11-.13.21-.27.35-.37.54-.39.87-.28,1.2.25.08.12.16.24.22.37.2.43.2.87.17,1.12-.06.39-.02.72-.02,1.06l-.28.97c-.14.54-.3,1.3-.48,2.15h-.07Z"/></g></svg>