<?xml version="1.0" encoding="UTF-8"?><svg id="Layer_1" xmlns="http://www.w3.org/2000/svg" width="520" height="520" viewBox="0 0 520 520"><defs><style>.cls-1,.cls-2,.cls-3{fill:#0056FF;}.cls-4{opacity:.35;}.cls-2{opacity:.15;}.cls-3{opacity:.4;}</style></defs><g class="cls-4"><path class="cls-1" d="M225.23,197.74s.02-.02.02-.08c-.01-.12-.04-.3-.08-.48-.08-.37-.2-.79-.33-1.23l-.4-1.4c-.07-.25-.13-.51-.19-.82-.06-.27-.11-.75-.08-1.16.24-2.02,1.18-3.43,2.19-4.65.88-1.03,1.83-1.96,2.95-2.69.39-.25.79-.48,1.21-.69l.11,2.79c-.31-.14-.64-.45-.78-.74-.14-.26-.2-.67-.17-.9.02-.26.15-.57.18-.61.13-.25.19-.3.27-.41.14-.16.25-.28.36-.38.21-.21.41-.37.61-.54.39-.32.78-.62,1.17-.91.78-.57,1.56-1.12,2.35-1.66,1.58-1.06,3.17-2.08,4.77-3.1,1.57-1,3.12-2.04,4.66-3.06,1.03-.59,2.06-1.19,3.13-1.73,1.1-.5,2.32-.76,3.45-1.16.74-.2.66-.06.19.39-.23.23-.57.53-.92.99-.36.44-.75,1-1.22,1.51-.91.78-1.86,1.49-2.77,2.26-.95.72-1.98,1.31-2.97,1.97-2,1.29-4.01,2.59-6.05,3.86-.86.55-1.72,1.13-2.53,1.76-.41.31-.81.64-1.18.96-.18.16-.37.33-.51.48-.07.07-.14.15-.17.18h-.01s.04.04-.1-.07c-.18-.15-.46-.29-.58-.38-.08-.05-.16-.09-.25-.12-.06-.03-.11-.06-.17-.06-.12-.02-.1.02-.09-.03l.65,1.35c-.65.36-1.27.81-1.86,1.29-.73.59-1.38,1.29-1.9,2.02-.51.73-.88,1.56-.97,2.27-.04.14.09.73.24,1.23l.5,1.65c.11.38.21.77.3,1.2.08.39.17,1.08,0,1.6-.24.77-.46,1.38-.85,2.03-.36.64-.83,1.24-1.39,1.72-1.34,1.22-2.98,1.7-4.06,2.41-.49.31-1.06.88-1.59,1.37-.53.5-1.03,1.04-1.5,1.6-1.46,1.73-2.41,3.74-3.34,5.82-.21.46-.38.92-.6,1.38-.82,1.71-1.29,2.17-2.09,2.25-.18.02-.36.07-.51.06-.48-.03-.63-.95-.23-2.31.6-2.01,1.36-4.06,2.47-6.11,1.11-2.05,2.63-3.98,4.32-5.59l.48-.44c.22-.18.45-.39.67-.52.45-.32.88-.55,1.28-.76.8-.41,1.43-.7,1.93-1.02.5-.32.86-.65,1.17-1.08.15-.21.29-.45.41-.72.05-.14.13-.26.17-.41.04-.12.11-.36.12-.35h0s.08,0,.08,0Z"/></g><path class="cls-1" d="M175.84,474.11c-.65,0-1.19-.36-1.67-.39-.15-.02-.13-.07.06-.1.36-.04.72-.2,1.09-.34.11,0,1.06-.37,2.13-.48,1.07-.16,2.26-.39,2.87-.49,1.17-.14,2.34-.2,3.52-.25,2.38-.08,4.77-.24,7.15-.3.53,0,1.06.01,1.59.06,1.81.16,3.63.15,5.45.07.3-.01.61,0,.9-.1.48-.16,5.41-.23,6.04-.16,1.59.16,3.17.25,4.76.38.23.02.47-.02.68.09.48.25.97.21,1.46.22.68.03,1.36.02,2.04.16.34.07.67.2,1,.34.3.12.14.42.04.47-.3.11-.05.27-.02.41.01.05.02.11,0,.15-.02.05-1,.34-2.03.54-1.03.19-2.11.37-2.33.37-.05,0-1.5.07-3.03.14-1.52.08-3.1.16-3.43.18-.34.03-.68-.03-1.02-.06-.17,0-4.73.23-4.91.24-.95-.02-1.9.09-2.84-.13-.19-.04-.38-.03-.57-.02-1.63.05-3.25-.01-4.88-.06-.83-.04-1.66-.02-2.49-.03-.15,0-.3-.04-.45-.05-.19-.02-.38-.05-.57-.05-1.97,0-3.94-.13-5.91-.06-.45,0-2.62-.39-3.14-.38-.15,0-.46-.09-.77-.16-.31-.1-.61-.19-.74-.19Z"/><path class="cls-1" d="M235.02,474c-.32.04-.61-.05-.88-.24-.27-.17-.52-.35-.75-.48-.15-.08-.12-.25.07-.33.36-.13.73-.34,1.1-.54.23-.15,3.77-.5,4.97-.66,1.16-.18,2.33-.14,3.49-.15,2.36.01,4.72-.03,7.08-.05.52,0,1.05.02,1.57.08,1.8.2,3.6.2,5.4.12.3-.01.61,0,.9-.11.48-.18,5.37-.13,6-.04,1.57.24,3.15.32,4.72.57.22.03.46.01.67.14.47.29.96.26,1.45.31.68.06,1.35.12,2.02.23.33.08.66.22.99.35.3.12.13.37.03.41-.3.1-.06.24-.03.36,0,.04.02.09,0,.13-.03.13-3.92.9-4.34.94-.1.08-5.77.34-6.41.4-.34.03-.67-.03-1.01-.07-.16-.03-4.69.29-4.87.25-.94-.04-1.88.06-2.82-.21-.18-.05-.38-.04-.56-.04-1.62.02-3.23-.1-4.85-.19-.83-.05-1.65-.03-2.48-.05-.15,0-.3-.04-.45-.06-.19-.02-.37-.06-.56-.06-1.96-.02-3.91-.17-5.87-.17-.45-.01-2.59-.43-3.11-.42-.29.01-1.23-.43-1.49-.42Z"/><path class="cls-2" d="M188.6,92.3c-1.17,0-8.57,1.82-9.25,6.41-.67,4.6-.68,11.44,3.49,11.9,4.17.46,6.7,1.69,6.7,1.69,0,0,3.26,8.94,5.66,12.18,2.4,3.25,9,9.46,16.08,11.72,7.08,2.26,18.93-1.27,18.93-1.27l9.74-9.18,5.93-12.42,2.82-12.71-1.04-8.33-9.45-11.44-4.05-4.24-14.5,5.22-12.74-2.54-7.25-1.79-1.15,12.33-6.64,3.69-3.27-1.24Z"/><path class="cls-2" d="M185.88,213.19s-1.76-3.33,2.72-9.52c4.48-6.19,12.97-15.03,15.99-16.47s16.69-3.29,17.06-.88-8.68,4.16-7.54,4.9c1.14.75,8.39,4.12,8.77,5.22.37,1.1-3.39,5.43-4.17,5.49s-6.1,4.52-7.29,4.77c-1.2.25-7.36,1.66-9.12,3.1-1.76,1.44-7,3.01-7,3.01,0,0-3.28,3.73-3.24,5.98.04,2.26-6.16-5.6-6.16-5.6Z"/><path class="cls-2" d="M259.52,231.21c-.8-.28-3.62.59-5.53-3.8-1.91-4.39-6.33-6.77-6.33-6.77l-1.47-3.39-1.61-9.15,1.61-2.29s10.67-3.14,13.86-2.07c3.18,1.07,5.09,5.73,5.09,5.73,0,0-.35,11.41-1.2,14.11-.85,2.69-4.42,7.63-4.42,7.63Z"/><path class="cls-1" d="M213.73,208.55c-.08.81-.37,1.13-.54,1.52-.07.14-.1.3-.17.44-.29.49-.63.94-.91,1.41-.13.21-.23.42-.33.64-.13.27-.26.55-.47.79-.06.07-.15.02-.22-.1-.07-.12-.15-.31-.13-.49.1-.61.18-1.21.43-1.76.16-.33.14-.72.25-1.07.1-.37.26-.82.3-1.08.03-.16.02-.27-.03-.39-.07-.17-.25-.41-.55-.53-.23-.1-.52-.04-.78-.04-.06,0-.11,0-.17-.02-.19-.11-.22-.35-.2-.72v-.25c.04-.26.18-.5.43-.7.18-.14.35-.16.53-.22.17,0,.34,0,.52.04.35.07.72.22,1.08.49.56.34,1.02,1.24,1,2.03h-.05Z"/><path class="cls-1" d="M211.94,207.67c.4.48.69,1.09.74,1.75.02.24.05.47.01.68-.16.76-.47,1.25-.71,1.81-.11.25-.22.49-.33.73-.14.31-.3.61-.53.87-.07.08-.14.04-.19-.09-.05-.12-.14-.33-.13-.52.02-.33.05-.66.07-1,.08-.31.16-.61.28-.91.15-.37.12-.75.08-1.02-.03-.29-.16-.56-.34-.85-.12-.17-.27-.34-.46-.48-.27-.2-.6-.39-.98-.46-.29-.06-.62.05-.92.04-.07,0-.14.02-.21.01-.25-.04-.3-.34-.31-.7v-.24c0-.13.04-.24.1-.37.07-.13.17-.29.28-.36.65-.41,1.36-.28,2.09.02.53.22,1.08.61,1.5,1.07l-.03.03Z"/><path class="cls-1" d="M214.1,191.22s8.17-5.6,8.52-1.72c.35,3.88-4.99,3.09-4.99,3.09l-3.53-1.37Z"/><path class="cls-1" d="M204.71,457.05c-.4-.46-.88-.8-1.53-1.02-.23-.08-.49-.11-.74-.17-.9-.25-1.95-.35-3-.42-.46-.03-.93-.04-1.39-.04-.59.01-1.18.03-1.78-.18-.19-.06-.17-.14-.02-.3.15-.14.42-.49.75-.61.59-.14,1.19-.28,1.79-.38.6-.1,1.2-.07,1.82-.03.74.07,1.54-.07,2.37.03.9.11,1.85.47,2.62,1.04.48.34.88.76,1.24,1.2.54.68.9,1.46,1.2,2.25.24.61.46,1.26.51,1.95.02.15.01.3-.02.45-.11.56-.36.7-.83.69-.11,0-.22,0-.32-.01-.34-.05-.6-.31-.74-.62-.52-.9-.72-1.54-1.02-2.3-.22-.54-.54-1.07-.96-1.49l.03-.04Z"/><path class="cls-1" d="M240.69,455.85c.46-.89,1.06-1.72,1.81-2.42.28-.25.54-.52.86-.72,1.14-.72,2.45-.96,3.65-1.01.54,0,1.07,0,1.59.03.67.04,1.3.39,1.94.48.2.05.17.11-.01.19-.18.1-.5.13-.88.33-.33.12-.66.29-.97.39-.31.04-.61.08-.92.12-.6.12-1.18.1-1.77.16-.71.08-1.33.47-1.87.9-.61.47-1.15,1.08-1.57,1.79-.26.44-.49.9-.65,1.39-.26.74-.45,1.53-.51,2.33-.03.63.01,1.24-.02,1.87,0,.14,0,.27-.01.41-.06.52-.18.68-.49.79-.07.02-.14.06-.21.07-.23.05-.43-.17-.56-.56-.19-.58-.33-1.18-.44-1.8-.06-.62.02-1.26.11-1.91.15-.95.45-1.93.88-2.85l.04.02Z"/><path class="cls-1" d="M242.21,451.58c.22-.08.44-.14.65-.19.08-.02.13-.08.21-.1.28-.04.57-.04.83-.04.11,0,.21-.04.31-.09.12-.06.25-.19.42-.04.09.09.21,1.55.15,1.6-.15.09-.29.11-.54,0-.15-.07-.22.07-.32.1-.12.04-.25.08-.37.14-.08.03-.15.07-.23.11-.11.06-.24.12-.3.23-.04.09.01.24.04.36,0,.03.03.06.02.08,0,.08-.13.03-.58-.18l-.31-.14c-.35-.16-.61-.35-.67-.48-.17-.4-.04-.71.15-.95.14-.18.32-.33.52-.44l.03.04Z"/><path class="cls-1" d="M188.47,247.85c-.16.36-18.6,50.67-21.57,66.62-2.97,15.95-8.17,50.93-8,58.48.16,7.55.29,37.65,5.84,52.33,5.55,14.68,14.1,21.11,16.31,22.6,2.2,1.49,17.45,11.74,30.64,2.1,13.19-9.64,13.17-22.6,13.17-22.6,0,0,5.18-18.55,4.24-17.54s-1.19,15.39,6.32,28.24c7.51,12.84,22.02,15.81,29.72,11.62,13.93-7.58,16.84-39.11,16.84-39.11v-33.51l-13.96-66.33-11.6-41.19-5.08-15.25s-4.63-10.61-5.15-10.65-38,1.63-38,1.63l-19.71,2.55Z"/><path class="cls-1" d="M223.05,189.93c.44-.52.97-.97,1.53-1.34.2-.14.38-.3.6-.41.76-.39,1.57-.64,2.38-.78.35-.08.71-.13,1.07-.18.45-.12.93.04,1.36.23.14.07.11.16-.01.32-.12.15-.32.41-.54.56-.76.48-1.46.48-2.26.64-.48.08-.88.4-1.27.67-.44.29-.85.64-1.22,1.03-.23.24-.44.5-.62.78-.27.43-.53.89-.65,1.38-.09.39-.03.79-.08,1.16,0,.08,0,.17,0,.25-.08.31-.27.41-.56.48-.07.02-.14.04-.2.05-.21.04-.42-.1-.62-.39-.22-.42-.32-.89-.32-1.36.04-.46.17-.91.34-1.35.25-.65.62-1.24,1.05-1.79l.04.02Z"/><path class="cls-1" d="M229.5,182.77c.67-.56,1.29-1,1.94-1.49.23-.18.44-.38.68-.55.85-.59,1.71-1.14,2.61-1.64.39-.23.76-.5,1.14-.73.49-.3,1-.58,1.55-.78.17-.06.2.03.14.21-.06.18-.18.5-.4.76-.76.93-1.66,1.61-2.62,2.25-.6.35-1.1.87-1.64,1.33-.59.5-1.19,1-1.76,1.52-.35.31-.67.62-.93.97-.38.51-.66,1.08-.5,1.57.12.38.5.61.92.81.09.05.2.07.29.12.37.16.39.44.27.86-.03.1-.05.2-.08.3-.11.31-.42.5-.83.48-.55-.13-1.16-.39-1.71-.98-.56-.58-.87-1.59-.71-2.44.09-.63.37-1.14.67-1.55.3-.41.62-.75.95-1.05l.03.03Z"/><path class="cls-1" d="M226.85,187.12c-.03-.28.02-.61.11-.8.03-.08.03-.16.08-.23.16-.24.35-.4.52-.54.08-.06.13-.13.18-.2.07-.09.12-.2.26-.21.09,0,.54.58.53.68-.06.17-.12.3-.28.37-.1.05-.06.15-.07.21-.01.08-.03.12-.04.17,0,.03,0,.08.02.11,0,.06.03.15.09.16.05.03.11-.15.09-.08v.02s0,0,0,0c0,.03.04.17.09.34l.08.24c.1.26.12.51,0,.63-.18.17-.45.25-.68.22-.24-.04-.44-.15-.59-.29-.23-.2-.38-.47-.42-.76h.03Z"/><path class="cls-1" d="M244.04,221.02c-.37.39-.81.76-1.28,1.03-.17.1-.32.23-.5.31-.67.21-1.35.28-1.99.27-.29-.02-.57-.03-.83-.13-.34-.07-.68-.13-.98-.31-.09-.05-.07-.08.03-.13.1-.04.27-.13.45-.17.16-.04.31-.06.46-.13.15-.08.29-.23.42-.27.27-.12.53-.15.81-.19.35-.03.61-.31.9-.46.33-.17.63-.38.91-.66.17-.17.34-.35.48-.56.22-.31.42-.66.55-1.03.13-.28.08-.62.21-.91.03-.06.05-.13.09-.19.17-.22.36-.25.59-.23h.16c.16.03.28.19.42.43.09.18.14.35.21.53.07.18.03.33.02.5-.03.33-.08.67-.24.97-.22.46-.52.91-.87,1.34l-.04-.03Z"/><path class="cls-1" d="M270.79,224.79c.07-.04.1-.13.13-.17.01,0,.05-.08.05-.09.07.08-.17-.15-.47-.14-.13,0-.26.02-.41.02-.18.03-.51-.05-.57-.3-.02-.07.07-.1.18-.15.11-.02.23-.16.21-.18.03-.18.24-.36.64-.45.13-.02.26-.02.44-.03.18,0,.39.03.55.12.36.21.54.53.63.83.05.19.07.39.06.59-.02.28-.13.52-.19.75-.05.17-.01.4-.06.56,0,.04,0,.08-.02.11-.07.12-.17.09-.55-.11l-.24-.13c-.25-.15-.48-.36-.52-.48-.17-.41-.1-.57-.03-.65.02-.03.05-.05.07-.07h0s0,0,0,0h0s0,0,0,0h0s.13,0,.13,0h0s0,0,0,0h-.03s-.05,0-.05,0c-.03,0,.01,0,.01,0h.04Z"/><path class="cls-1" d="M166.94,223.98c-.18-.04-.33-.06-.48-.03-.06.01-.07.07-.14.08-.23.04-.52.21-.73.48-.1.12-.13.27-.21.4-.04.19-.22.35-.44.52-.07.05-.15.03-.28-.06-.12-.08-.37-.25-.49-.42-.31-.57-.03-1.1.4-1.5.27-.23.42-.58.74-.82.36-.24.8-.35,1.18-.38.24-.01.46,0,.67.02.31.02.6.1.87.09.21,0,.41-.12.59-.2.04-.02.07-.05.11-.06.14,0,.18.13.28.55l.07.29c.07.32.04.61-.11.77-.45.41-.96.38-1.32.37-.28-.01-.51-.06-.69-.07v-.04Z"/><path class="cls-1" d="M266.14,224.6c-.23.33-.48.75-.79,1.16-.11.15-.17.32-.29.46-.42.5-.8,1.01-1.29,1.44-.21.19-.4.4-.58.6-.23.26-.48.51-.78.72-.09.06-.13.01-.15-.11-.01-.13-.03-.35.02-.55.11-.34.21-.68.32-1.03.11-.34.24-.65.5-.89.29-.3.41-.72.6-1.09.21-.4.41-.81.69-1.24.16-.27.34-.54.55-.8.3-.4.72-.78,1.2-1.05.36-.21.75-.45,1.26-.51.11-.01.23-.03.35-.01.43.15.48.39.34.76-.03.09-.06.17-.1.25-.14.26-.36.43-.49.57-.19.23-.24.24-.37.35-.11.08-.24.17-.35.26-.16.14-.41.39-.6.74l-.04-.02Z"/><path class="cls-1" d="M183.6,213.54c-.66-.6-1.4-1.15-2.12-1.41l-.37-.06c-.13,0-.14-.01-.29.03-.96.25-2.07.97-3.05,1.64-.44.31-.87.66-1.27,1.01l-.77.69c-.24.25-.6.38-.9.56-.2.1-.25.01-.22-.23.04-.23.06-.71.32-1.04,1.02-1.02,2.09-2,3.39-2.74.39-.22.76-.47,1.18-.71.43-.23.81-.5,1.5-.55,1.28.04,2.15.67,2.99,1.22.5.37.97.76,1.43,1.17.69.61,1.32,1.28,1.97,1.91.51.48,1.03.95,1.52,1.44.11.11.2.23.28.36.31.49.33.71.19.99-.03.06-.05.13-.08.17-.1.14-.41.11-.79-.1-.27-.17-.6-.28-.84-.49-.25-.2-.49-.39-.74-.59-.5-.38-.9-.87-1.34-1.32-.65-.67-1.3-1.34-1.99-1.93l.02-.03Z"/><path class="cls-1" d="M243.31,218.65c-.4-.66-.73-1.35-1-2.06-.1-.26-.24-.49-.31-.76-.09-.33-.18-.69-.18-1.1-.01-.41.1-.93.4-1.29.37-.42.67-.54.74-.62.13-.09.15-.32.06-.65-.12-.41-.28-.99-.12-1.61.06-.19.24-.12.46,0,.21.13.52.25.69.45.3.34.62.77.63,1.68,0,.45-.24,1.03-.57,1.31-.15.14-.28.22-.36.28-.09.06-.08.01-.13.03h-.04c-.22.05-.06.56.18,1.09.23.59.51,1.18.85,1.72l.16.25.21.31c.18.26.33.55.37.86.03.23,0,.47-.08.7-.08.25-.17.41-.2.51-.07.18-.06.35.02.55.13.32.46.49.81.66.08.04.17.06.25.11.31.17.35.37.15.87-.04.11-.08.23-.13.34-.17.36-.49.59-.84.53-.51-.09-1.07-.32-1.59-.85-.51-.52-.9-1.33-.75-2.31.05-.37.2-.69.27-.83.04-.07.02-.02.04-.04,0,0,.02,0,.02-.02,0,0,0,0,0-.01h0s0-.01-.04-.07l.04-.03Z"/><path class="cls-1" d="M219.92,200.93c.14-.08.42-.17.54-.19l.33-.06.56-.09c.36-.07.7-.14,1.03-.25.63-.22,1.26-.51,1.59-1.02.26-.36.36-.77.45-1.22.1-.63.3-1.09.36-1.41.03-.15.02-.32.01-.36-.02-.1-.13-.27-.26-.44-.27-.34-.65-.68-1.02-1.04-.36-.37-.82-.72-1.11-1.37-.25-.51-.32-1.12-.25-1.65.07-.54.27-1,.46-1.44.46-1.14,1.25-1.98,1.73-2.99.15-.31.22-.27.3.07.08.33.15,1.02-.03,1.72-.13.63-.4,1.16-.6,1.66-.2.5-.32.97-.34,1.33-.02.34.08.65.32.92.3.34.77.74,1.21,1.19.27.28.56.56.84.96.14.19.28.47.36.78.06.27.08.54.07.79-.04.49-.13.89-.23,1.22l-.12.49c-.06.22-.1.43-.19.64-.35.94-1.08,1.66-1.83,2.18-.76.52-1.61.8-2.43,1.01l-.71.17c-.11.03-.2.08-.34.21-.26.25-.52.63-.74,1.03-.17.31-.33.63-.49.96-.07.15-.17.36-.31.56-.13.2-.28.37-.43.53-.31.32-.64.57-.96.79-.28.2-.53.41-.78.66-.78.78-1.37,1.73-1.94,2.67-.12.21-.22.43-.38.61-.55.7-.8.84-1.31.8-.12,0-.24,0-.34-.02-.35-.05-.48-.58-.26-1.32.27-1.13.95-2.02,1.62-2.92.35-.45.73-.88,1.16-1.3.22-.21.45-.42.71-.62l.64-.47c.24-.19.42-.36.52-.51.03-.04.05-.07.07-.11l.13-.26.31-.56c.22-.38.46-.76.76-1.16.32-.39.63-.82,1.32-1.19l.03.04Z"/><path class="cls-1" d="M188.16,216.12c-.41-.45-.82-.9-1.21-1.37-.15-.17-.33-.3-.47-.48-.48-.64-.95-1.29-1.3-2.02-.17-.31-.34-.63-.52-.92-.21-.4-.3-.87-.32-1.34,0-.15.15-.18.37-.15.23.03.56.1.77.24.18.13.39.24.54.38.12.15.25.3.37.46.25.31.47.62.62,1.03.2.47.62.79.96,1.18.38.42.76.85,1.17,1.27.25.26.5.51.77.76.4.37.79.76,1.24,1.08.35.25.76.4,1.14.61.08.04.18.07.26.13.3.19.27.4-.01.84-.06.1-.12.2-.19.3-.21.3-.58.51-.85.44-.79-.2-1.42-.66-2.04-1.17-.46-.38-.89-.8-1.33-1.22l.03-.04Z"/><path class="cls-1" d="M194.05,215.58c.02.24,4.61,4.05,3.8,5.61-.82,1.55-3.8.56-3.8.56,0,0-1.91-2.26-1.31-4.5.6-2.24,1.31-1.67,1.31-1.67Z"/><path class="cls-1" d="M190.53,152.8c-.69.5-1.37,1.04-2.01,1.64-.23.22-.42.48-.66.7-.84.77-1.7,1.56-2.47,2.43-.34.39-.66.79-.99,1.18-.37.54-.92.96-1.39,1.43-.16.14-.16.1-.13-.09.03-.19.07-.55.16-.95.14-.72.5-1.3.8-1.91.38-.56.79-1.11,1.26-1.61.57-.59.98-1.36,1.56-1.99.62-.69,1.28-1.37,1.99-1.99.42-.4.9-.75,1.36-1.11.74-.51,1.52-.97,2.37-1.35.33-.14.64-.33,1.01-.44.35-.14.72-.27,1.13-.28.18-.02.36-.05.54-.06.68.1.84.38.77.91-.02.12-.03.25-.06.37-.11.39-.44.68-.73.79-.85.21-1.56.51-2.46,1.03-.65.36-1.31.87-2,1.35l-.04-.04Z"/><path class="cls-1" d="M236.28,150.27c-.56,2.09,3.42-1,5.24-.76,3.04.4,6.04,3.52,7.95,5.28,3.48,3.2-7.02-6.92-7.02-6.92,0,0-2.99-3.75-3.65-2.49-.66,1.26-2.22,3.76-2.52,4.89Z"/><path class="cls-1" d="M257.87,98.71c-3.11,9.68,12.56,39.19,11.15,44.28-1.04,3.77-7.36,3.73-8.97,3.62-1.62-.11-17.71-.53-17.71-.53,0,0-2.86-.37-3.55-2.73-.69-2.35-1.91-8.65-1.91-8.65l-1.91-3.59,4.28-7.22,5.26-12.15,2.33-8.95.82-6.45,10.21,2.36Z"/><path class="cls-1" d="M235.66,77.52c.05.52,1.24,8.34,5.86,13.51,4.62,5.17,8.1,6.84,12.5,7.4,6.32.8,15.15-9.76,15.58-20.91.42-11.15-7.48-19.95-15.04-20.87-5.96-.73-10.47,1.29-10.47,1.29l-5.28,4.29s-3.16-7.99-7.76-10.7-20.44-6.23-26.72-3.95c-6.28,2.28-18.44,9.15-22.46,14.72-4.02,5.57-15.03,23.83-16.94,27.26-1.91,3.43-8.82,22.21-8.82,22.21l-2.7,14.4s-1.24,3.44.38,5.81c1.62,2.38,5.61,5.66,7.5,6.7,1.89,1.04,16.96,4.3,16.96,4.3l14.51-1.48s-.28-4.85,1.79-7.19,5.65-5.16,5.13-5.24-8.17-9.84-9.43-14.13c-1.26-4.3-5.63-5.68-5.63-5.68,0,0-5.93-3.27-5.93-5.95s1.55-8.37,1.84-8.35,4.46-.97,8.09-.97,8.39-2.19,8.79-2.62,4.72-6.7,4.72-6.7l1.69-4.98s9.14,4.54,12.41,4.9c3.26.36,11.21-2.11,11.21-2.11l8.24-4.96Z"/><path class="cls-1" d="M187.4,474.32c-1.36.1-2.73.13-4.15.09-.35,0-.71-.03-1.08-.07-.37-.03-.67-.07-1.33-.19-1.16-.25-2.18-.73-2.66-1.63-.18-.33-.28-.7-.27-1.07.02-.18,0-.37.05-.55l.22-.53c.2-.74.84-1.35,1.31-1.98,1.47-1.32,3.03-2.16,4.59-2.97,1.57-.78,3.15-1.46,4.73-2.12,1.4-.58,2.81-1.18,4.12-1.82.18-.08.32-.17.48-.25.17-.09.18-.11.25-.19.07-.09.25-.4.38-.64.13-.26.24-.56.33-.86.09-.31.17-.62.24-.95.12-.32.22-.66.31-1.02.18-.55.45-.56,1.01-.08.28.25.6.63.9,1.16.25.52.33,1.18.19,1.88-.09.43-.23.86-.42,1.3-.2.45-.42.81-.92,1.38-.14.14-.33.23-.48.36-.17.14-.33.23-.42.27-.22.11-.45.23-.63.32-.39.19-.77.36-1.14.52l-2.23.95c-1.48.58-2.97,1.16-4.47,1.74-1.07.42-2.1.98-3.05,1.61-.45.32-.94.64-1.32,1l-.3.26c-.11.09-.21.18-.22.2-.07.08-.15.16-.22.24-.12.16-.31.44-.11.62.16.17.4.23.65.29.17.04.55.09.84.11.3.04.62.04.94.07.63.03,1.28.01,1.92,0,1.59-.07,3.2-.22,4.8-.44,2.42-.34,4.86-.76,7.21-1.4,1.83-.5,3.56-1.2,5.24-1.94.36-.17.72-.34,1.09-.51.68-.31,1.13-.46,1.52-.44.19,0,.35.03.5.09.16.07.32.18.47.28.14.1.29.17.39.25.3.2.07,1.18-.96,1.87-3.09,1.86-6.63,2.86-10.19,3.66-2.66.58-5.36.98-8.1,1.23v-.07Z"/><path class="cls-1" d="M260.36,470.17c1.27.08,2.64.1,3.81.04.12.01.26.02.42,0,.08,0,.17-.02.24-.06.04-.06.03-.14.02-.21-.02-.11-.11-.21-.2-.28l-.32-.25c-1.24-.89-2.79-1.62-4.34-2.28-1.57-.66-3.2-1.25-4.84-1.81-.63-.22-1.27-.42-1.92-.61-.72-.22-1.44-.43-2.16-.65l-.4-.2-.1-.05-.05-.02c.06-.09,0-.04,0-.07-.06-.05-.12-.09-.16-.15-.25-.25-.33-.64-.43-1l-.11-.55-.07-.41c-.07-.52-.13-1.03-.16-1.54,0-1.03.14-2.05.52-3.08.35-.65.49-.45.88.1.39.55,1.1,1.46,1.35,2.51.09.61.11,1.23.2,1.8l.03.2s0,0,0,.01h0c1.14.38,2.28.76,3.42,1.13,1.3.44,2.59.92,3.88,1.48,1.17.48,2.34.97,3.53,1.46.6.26,1.2.54,1.8.87.15.08.3.16.45.26.16.1.26.16.5.31.43.3.83.62,1.19.97.76.78,1.23,1.66,1.33,2.56.02.23.04.45-.01.67l-.03.16v.02s0,.01,0,.01h0s.07.03-.07-.02h0s-.02.05-.02.05l-.03.08c-.05.1-.1.19-.15.28-.2.34-.64.52-1.05.72-.45.17-.96.29-1.49.39l-.8.12c-.26.04-.56.06-.71.07-.71.06-1.42.09-2.12.09-1.73.03-3.45-.06-5.16-.23-2.59-.25-5.15-.73-7.67-1.3-1.96-.44-3.91-.84-5.82-1.52-.42-.14-.84-.28-1.26-.47-1.53-.7-1.89-1.19-1.77-2.05.02-.19.03-.39.08-.56.17-.55,1.01-.7,2.06-.34,3.14,1.04,6.47,1.9,9.93,2.48,2.56.43,5.19.67,7.8.78v.08Z"/><path class="cls-1" d="M208.66,460.67l-.25,3.2c-.03.39.04.78,0,1.16-.17,1.37-.36,2.74-.49,4.11-.07.61-.1,1.22-.1,1.82,0,.39.02.77-.04,1.16-.04.39-.14.78-.36,1.17-.29.25-.26.21-.63.02-.2-.1-.38-.24-.6-.41-.22-.17-.41-.37-.48-.6-.51-1.57-.63-3.15-.28-4.75.19-.96,0-1.95.04-2.92l.19-3.22c.04-.66.08-1.32.1-1.98.02-1,.11-2.01.08-3-.03-.77-.22-1.52-.33-2.28-.02-.17-.07-.33-.08-.5-.03-.63.15-.83.84-.98.16-.03.31-.08.47-.1.53-.07.98.18,1.16.63.55,1.35.74,2.79.85,4.23.08,1.07-.02,2.15-.02,3.22h-.07Z"/><path class="cls-1" d="M242.15,457.45l-.2,3.79c-.02.46.04.92.01,1.38-.1,1.62-.24,3.25-.31,4.87-.03.72.01,1.44.07,2.15.05.46.1.91.08,1.37,0,.46-.05.92-.29,1.39-.2.29-.49.26-1,.04-.26-.11-.55-.27-.83-.47-.26-.2-.43-.44-.49-.7-.25-.93-.17-1.87-.17-2.8.03-.94.11-1.88.25-2.83.17-1.13.02-2.3.03-3.46l.09-3.81.05-2.35c0-1.18.06-2.37-.02-3.55-.06-.91-.29-1.8-.44-2.7-.03-.2-.1-.39-.12-.59-.03-.74.24-.99.94-1.17.15-.04.3-.09.44-.12.43-.09,1.02.2,1.27.73.63,1.59.68,3.29.74,5,.03,1.27-.01,2.54-.02,3.82h-.07Z"/><path class="cls-1" d="M234.57,222.7c-2-.25-4.02-.46-6.03-.63-.74-.07-1.48-.04-2.21-.11-2.6-.21-5.2-.42-7.81-.56-1.16-.06-2.32-.05-3.47-.02-.74,0-1.48.09-2.22.04-.37-.01-.74-.04-1.11-.08-.37-.03-.74-.18-1.11-.31-.46-.27-.4-.35,0-.77.2-.22.47-.47.81-.75.34-.24.73-.38,1.16-.44.76-.11,1.51-.11,2.27-.1.76,0,1.51.02,2.27.05,1.52.05,3.04.16,4.56.34,1.82.22,3.73.15,5.6.26,2.06.12,4.11.29,6.16.49l3.78.4c1.91.2,3.82.49,5.71.67,1.47.15,2.94.16,4.41.24.32.02.64.01.97.05.6.07.99.15,1.24.34.25.2.37.46.44.82.03.16.08.33.09.48.01.26-.12.48-.37.65-.25.17-.62.34-1.06.32-2.62.04-5.31-.32-8.02-.64-2.01-.24-4.03-.49-6.06-.69v-.06Z"/><path class="cls-1" d="M239.03,175.14c2.36-1.58,4.64-3.26,7.04-4.88.48-.31.74-.53,1.65-1.11.77-.47,1.61-.86,2.33-.48.25.17.5.32.74.51l.71.88c.11.13.25.31.31.41l.19.27c.26.36.51.73.76,1.1.49.73.97,1.47,1.44,2.22.93,1.49,1.83,2.99,2.7,4.51.8,1.43,1.61,2.87,2.41,4.29.52.91.98,1.85,1.39,2.83.42.96.76,1.98.85,3.07.06.68,0,.6-.5.22-.24-.19-.65-.44-1.04-.76-.2-.16-.44-.33-.64-.52-.19-.2-.36-.43-.53-.67l-.88-1.29-.46-.63-.4-.67-1.63-2.65c-1.13-1.74-2.11-3.59-3.14-5.43-.47-.85-1.01-1.68-1.58-2.48-.29-.4-.58-.8-.89-1.18l-.39-.5-.16-.19c-.07-.06-.11-.18-.21-.19-.09.02-.18.07-.26.11l-.16.08c-.05.03-.08.04-.26.15l-.88.56-1.77,1.18-3.55,2.43-4.37,3.01c-2.21,1.52-4.49,2.97-6.72,4.44-1.74,1.14-3.38,2.36-5.16,3.46-.39.24-.76.5-1.17.72-.75.43-1.33.54-1.74.59-.43.03-.73-.09-1.03-.34-.14-.11-.3-.21-.4-.32-.34-.39.11-1.07,1.06-1.83,2.92-2.06,6.1-4.04,9.25-6.17,2.35-1.57,4.71-3.17,7.04-4.83l.04.06Z"/><path class="cls-1" d="M241.92,188.35c2.5.26,5.01.48,7.53.66.92.06,1.84.04,2.76.11l4.89.38c.88.09,1.44.1,2.88.32.61.12,1.17.26,1.48.65.22.17.17.46.2.71-.02.29,0,.55-.09.86-.06.27-.11.54-.19.8l-.18.69-.3,1.06c-.21.7-.43,1.4-.64,2.09-.28.89-.55,1.78-.89,2.66-.33.88-.72,1.75-1.43,2.47-.44.45-.5.31-.62-.28-.05-.29-.21-.72-.26-1.18-.03-.23-.08-.49-.07-.73.02-.24.05-.49.12-.74.49-1.77.88-3.59,1.36-5.36.34-1.25.28-.79.39-1.06.02-.08-.04-.1-.1-.15-.03-.02-.07-.05-.13-.07l-.66-.11c-2.22-.34-4.6-.28-6.92-.42-2.55-.15-5.11-.35-7.67-.57l-4.72-.47c-2.38-.26-4.76-.6-7.13-.95-1.84-.27-3.67-.44-5.51-.85-.41-.09-.81-.16-1.21-.28-1.52-.44-1.89-.94-1.89-1.68,0-.17-.02-.34,0-.49.05-.25.25-.4.57-.48.32-.08.77-.12,1.26,0,3.01.6,6.3,1.05,9.63,1.5,2.48.31,4.99.6,7.52.81v.07Z"/><path class="cls-1" d="M223.77,198.45c-.12.05-.12.08-.1.08.02.01.06.02.12.06.03.02.06.04.09.08.01.02,0,0,.03.06l.02.04s.01.02.04.1c.04.12.08.25.1.37.09.53-.03.96-.16,1.28l-.1.21-.06.1s-.1.15-.16.22c-.13.16-.29.3-.44.41l-.23.12-.24.11-.16.05c-.1.03-.23.07-.31.09-.37.08-.7.14-1.01.18l-2.51.38c-.15.02-.13.01-.2.02-.05,0-.11.02-.15.05-.08.11-.06.05-.28.5l-1.02,2.05-2.04,4.1c-.62,1.21-1.18,2.45-1.75,3.67-.37.78-.71,1.59-1.14,2.36-.47.75-.95,1.48-1.66,2.17-.61.48-.6.02-.62-.5-.02-.54-.09-1.48.2-2.4.58-1.61,1.32-3.19,2-4.8.68-1.61,1.47-3.19,2.34-4.74.51-.93.96-1.92,1.39-2.92l.17-.41c.1-.2.16-.44.29-.61.19-.4.55-.7.97-.86.97-.36,1.45-.37,2.01-.47l1.74-.24c.26-.04.55-.09.7-.14.04-.01.09-.03.07-.02-.05-.08.12.23.22.37.08.1.09.14.11.19.02.05.05.09.09.13.04.04.08.07.13.09h.02s0,.01,0,.01h0c.19.11-1.61-.91-.85-.48h0s0,0,0,0c0,0,0,0,0-.01.08.04.27.1.35.11.04,0,.08.01.13.01.01,0,.03,0,.05,0,.03,0,0,0,0,0h0s-.48.2-.48.2h-.05s-.21.02-.21.02h-.21c-.06,0-.11-.01-.17-.03l-.33-.1c-.24-.07-.46-.14-.63-.22-.35-.16-.53-.33-.67-.46-.15-.14-.26-.24-.34-.33-.29-.34-.44-.43-.68-.55-.07-.04-.14-.07-.21-.12-.03-.03-.07-.06-.09-.13-.03-.04.03-.09-.03-.15l.06-.15c.18-.39.33-.82.53-1.18.25-.23.5-.27.77-.36.29-.07.61-.12,1.01-.18.59-.09,1.56,0,2.46.05.22,0,.44,0,.65,0l.18-.02s0,0,0,0c0,.03.06.13.11.18.03.03.05.06.08.09v.03s.04.03.06.05l.31.13s0,0-.05,0c-.05,0-.07.02-.12.04-.06.02-.12.06-.17.1-.08.06-.37.28-.29.23l-.03-.03-.11-.09c-.35-.29-.84-.58-1.3-.87-.37-.24-1.22-.7-1.74-1.19-.19-.21-.44-.43-.42-.73.06-.28.09-.55.17-.83l.26-.64.21-.55.33-.89c.22-.59.43-1.19.71-1.76.16-.34.29-.69.47-1.03.34-.63.61-1.03.89-1.25.3-.22.58-.28.91-.26.15,0,.3,0,.43.03.21.06.31.25.35.55.04.31.03.74-.13,1.21-.27.88-.51,1.79-.8,2.7-.17.45-.34.89-.51,1.34l-.27.67s0,.03.01.05c.16.11-.42-.3,1.13.66.27.17.55.34.88.59.18.15.33.24.67.63.06.07.22.29.32.52.08.21.14.41.16.66.01.18,0,.37-.04.55-.03.17-.13.41-.13.39-.16.33-.48.73-.7.88-.4.33-1.08.51-.94.45h0s-.03-.02-.03-.02c-.03,0-.16-.09-.24-.03l-.19-.04Z"/><path class="cls-1" d="M168.37,182.4c-2.87,4.99-5.47,10.14-7.73,15.44l-1.14,2.94c-.39.98-.75,1.96-1.09,2.96-2.58,6.94-4.52,14.16-5.56,21.47-.4,3.24-.45,6.54.11,9.68.35,2.01.98,3.97,1.84,5.79.2.47.45.9.69,1.35.21.46.47.9.72,1.34.24.45.52.87.81,1.3.15.21.25.45.38.68l.42.66c.68,1.12.45,1.14-.65.62-1.15-.45-3.16-1.71-4.46-4.04-2.21-4.15-2.93-8.9-2.8-13.39.06-2.26.34-4.49.71-6.68.19-1.1.44-2.17.67-3.25.24-1.08.44-2.17.76-3.23.35-1.28.69-2.57,1.01-3.87.37-1.29.74-2.59,1.11-3.89.34-1.31.77-2.6,1.19-3.88.44-1.28.81-2.59,1.32-3.84,2.03-5.57,4.56-10.94,7.3-16.18,1.69-3.23,3.54-6.37,5.45-9.46,2.87-4.71,6.18-9.15,9.5-13.49,2.64-3.33,5.17-6.66,8.04-9.76.63-.69,1.22-1.38,1.87-2.06,2.52-2.4,3.54-2.93,4.56-2.9.23,0,.5-.02.68.03.58.16-.08,1.51-1.72,3.39-4.89,5.53-9.91,11.41-14.44,17.75-3.36,4.69-6.59,9.53-9.48,14.57l-.07-.03Z"/><path class="cls-1" d="M272.9,187.83c2.69,6.79,4.93,13.73,6.64,20.81.61,2.59,1.27,5.17,1.71,7.8.42,2.31.69,4.66.91,7.01.19,2.32.35,4.66.37,7.03.03,2.36-.1,4.75-.5,7.13-.42,2.36-1.08,4.78-2.48,6.9-1.22,1.88-3.14,3.41-5.32,4.06-1.08.32-2.19.49-3.29.5-.55.01-1.14-.05-1.71-.11-.55-.15-1.13-.21-1.64-.44-1.38-.46-2.56-1.28-3.64-2.15-1.09-.88-2-1.92-2.85-2.99-1.64-2.18-3-4.58-3.55-7.27-.08-.87-.02-1.24.05-1.23.09,0,.24.4.67.97.83,1.17,2.39,3.13,4.12,5.37.78.99,1.64,1.89,2.56,2.69.93.78,1.93,1.41,2.94,1.88,1.03.47,2.03.64,3.12.63,1.17-.04,2.28-.25,3.25-.69,1.96-.85,3.37-2.69,4.19-4.97.84-2.27,1.2-4.84,1.36-7.44.21-3.12.01-6.37-.29-9.65-.28-3.23-.85-6.48-1.49-9.68-1.43-7.04-3.49-13.98-5.98-20.75-1.54-4.16-3.25-8.27-5.22-12.24-3.02-5.98-6.58-11.76-10.65-17.05-3.16-4.12-6.65-7.84-10.31-11.42-.82-.77-1.63-1.52-2.46-2.3-3.08-2.87-4.04-3.8-4.32-4.88-.07-.24-.19-.52-.21-.69-.06-.57,1.61.15,4.04,2.14,7.27,5.87,13.96,13.26,19.59,21.43,2.08,3.04,4.05,6.18,5.77,9.47,1.73,3.29,3.26,6.66,4.66,10.07l-.06.03Z"/><path class="cls-1" d="M268.69,143.24c.34-.2.65-.42.85-.61.21-.21.22-.27.27-.38.12-.55.05-1.58-.09-2.51-.26-1.92-.74-3.93-1.26-5.91-.38-1.45-.87-2.88-1.28-4.33l-4.45-15.43c-.66-2.3-1.32-4.6-1.98-6.88-.39-1.48-.83-2.96-1.09-4.49-.1-.77-.22-1.55-.2-2.35.01-.4.06-.81.09-1.2.07-.41.36-.8.47-1.19.39-.95.31-.77.49.03.36.85,1.5,2.08,1.84,3.69,1.35,5.76,3.23,11.67,4.77,17.69.94,3.61,2.3,7.25,3.38,10.93.59,2.03,1.16,4.06,1.63,6.15.23,1.05.45,2.1.6,3.2.07.56.14,1.1.14,1.7,0,.3.02.58-.03.92l-.05.49c-.04.18-.1.38-.16.57-.32.95-.97,1.55-1.56,2.02-.61.47-1.23.83-1.87,1.12-1.27.6-2.57,1-3.87,1.32-3.95.96-7.98,1.1-11.93.96-3.07-.11-6.1-.32-9.12-.88-.66-.13-1.32-.23-1.98-.4-2.44-.69-3.09-1.31-3.3-2.24-.05-.21-.14-.42-.15-.6-.03-.57,1.12-.78,2.84-.5,5.08.94,10.42,1.66,15.8,1.43,1.98-.1,3.97-.26,5.89-.63,1.9-.35,3.83-.9,5.25-1.74l.05.06Z"/><path class="cls-1" d="M157.87,101.91c3.26-9.15,7.23-18.08,12.3-26.43.88-1.54,1.89-3.02,2.83-4.53,1.02-1.46,1.99-2.96,3.11-4.36,3.85-4.98,8.27-9.59,13.42-13.34,5.17-3.69,11.12-6.41,17.42-7.53,2.79-.4,5.61-.72,8.45-.55,1.42,0,2.83.23,4.23.4.7.11,1.39.29,2.08.43.35.08.69.14,1.04.24l1.01.32c3.48,1.06,6.79,2.82,9.53,5.31.36.28.67.64.97.99l.9,1.05.79,1.14.39.57.33.61c.21.41.44.81.63,1.22l.43,1.31c.16.43.26.87.33,1.33.08.45.18.89.25,1.33.27,2.24.05,1.9-.52.16-.33-.86-1.03-1.99-2.05-3.13-1.04-1.12-2.18-2.39-3.65-3.52-.6-.54-1.25-1.04-1.88-1.54-.65-.49-1.36-.89-2.03-1.35-.74-.36-1.44-.77-2.19-1.09-.76-.3-1.49-.67-2.28-.91-3.11-1.07-6.43-1.56-9.78-1.55-3.35.05-6.74.52-10.01,1.34-3.26.92-6.41,2.28-9.42,3.96-7.17,4.21-13.16,10.88-18.04,17.99-5.41,7.83-9.74,16.45-13.31,25.36-2.18,5.49-4.08,11.11-5.66,16.8-1.17,4.31-2.23,8.7-2.85,13.08-.15,1.09-.27,2.2-.27,3.22,0,.25.04.42.05.64l.23.69c.06.24.2.45.3.67.11.22.22.44.37.65,1.1,1.7,2.85,3.02,4.7,4.08,2.92,1.64,6.17,2.7,9.44,3.45,3.29.74,6.64,1.17,9.99,1.34,1.48.08,2.92.06,4.4.01,2.74-.08,4.48-.33,5.7-.45.61-.07,1.08-.1,1.5-.1.43.03.76.05,1.13.12.32.05.71.01.95.07.2.05.25.18.14.41-.11.23-.39.6-.86.94-.93.76-2.63,1.37-4.78,1.73-3.2.49-6.43.52-9.67.3-3.24-.23-6.48-.74-9.71-1.52-3.23-.8-6.45-1.86-9.54-3.54-1.54-.84-3.05-1.86-4.4-3.21-1.34-1.36-2.56-3.02-3-5.33-.03-.24-.06-.49-.08-.73v-.54c.01-.35,0-.73.04-1.04.05-.65.1-1.31.19-1.93.15-1.27.36-2.49.57-3.71.43-2.45,1-4.84,1.57-7.24,1.2-4.77,2.62-9.48,4.22-14.12l.08.02Z"/><path class="cls-1" d="M194.58,136.15c.94-.19,3.01-3.2,6.59-1.13,4.3,2.49,9.58,6.13,16.96,6.21,8.08.1,13.63-5.47,15.79-8.47,2.04-2.85-9.68,5-14.27,4.75-6.16-.34-15.65-5.52-16.69-5.04s-4.18-3.93-6.27-1.36c-2.09,2.57-3.45,5.31-2.11,5.04Z"/><path class="cls-1" d="M179.39,95.18c.55-.7,1.23-1.32,2.03-1.78.81-.47,1.7-.75,2.53-.88,1.76-.26,3.28.15,4.46.33.89.14,1.6.12,2.39.02,1.43-.13,2.84-.55,4.11-1.31,1.27-.76,2.41-1.81,3.39-3.05.87-1.09,1.5-2.39,2-3.71.16-.43.32-.85.43-1.3.13-.44.32-.86.45-1.3.28-.88.58-1.75,1.09-2.61.31-.53.55-.42.91.16.18.29.41.71.65,1.22.21.5.23,1.06.17,1.64-.13,1.03-.33,2.06-.73,3.03-.35.99-.79,1.96-1.32,2.9-1.05,1.86-2.47,3.63-4.34,4.88-2.22,1.46-4.78,2.71-7.59,2.78-1.57.02-2.95-.35-4.07-.45-1.11-.11-2.14.03-2.97.54-1.04.63-1.82,1.84-2.09,3.21-.21,1.04-.19,2.16.02,3.26.21,1.07.68,2.11,1.32,3.01,1.02,1.4,2.5,2.36,4.03,2.86.33.13.69.16,1.02.27.62.21,1.04.35,1.33.57.29.23.47.48.62.82.07.15.17.3.21.44.07.23-.04.44-.35.66-.16.11-.36.22-.61.33-.25.1-.54.12-.88.15-.99.07-2.01-.12-2.96-.48-.96-.36-1.88-.87-2.71-1.5-1.65-1.29-2.98-3.05-3.73-5.11-.58-1.56-.76-3.11-.66-4.79.14-1.65.67-3.37,1.78-4.82l.07.05Z"/><path class="cls-1" d="M194.97,137.18l-.3.83-.2.86c-.17.57-.17,1.18-.26,1.77-.03.44.08.87.07,1.32.04,1.56.33,3.13.87,4.66.12.34.3.65.47.97.17.31.34.63.58.9.29.36.53.74.8,1.11.26.38.44.84.63,1.31.11.3-.1.48-.55.56-.43.07-1.22.12-1.83-.17-.88-.68-1.59-1.56-2.07-2.56l-.38-.74c-.11-.26-.2-.52-.29-.78-.18-.52-.35-1.06-.39-1.62-.08-.66-.26-1.3-.35-1.97l-.18-.99c-.03-.33-.05-.67-.06-1-.07-1.47.18-2.93.53-4.34l.42-1.27c.14-.42.36-.82.54-1.22.24-.63.67-1.17,1-1.75.38-.55.81-1.07,1.21-1.6.35-.38.67-.78.99-1.2.36-.37.71-.76,1.12-1.1.17-.16.35-.3.55-.42.37-.22.65-.3.9-.25.24.04.43.17.64.39.09.1.2.19.27.29.24.33.15.86-.15,1.38-1,1.33-2.11,2.28-2.96,3.59-.34.45-.59.97-.89,1.46-.21.53-.53,1.03-.66,1.61l-.07-.02Z"/><path class="cls-1" d="M240.07,138.45c.15,1.2.25,2.41.19,3.63,0,.44.05.88,0,1.33-.07.78-.27,1.55-.46,2.31l-.4,1.1c-.15.36-.33.71-.48,1.06-.13.32-.3.62-.44.92-.16.3-.27.63-.44.91-.35.8-.97,1.46-1.8,1.85-.25.13-.38-.04-.5-.41-.06-.19-.13-.43-.19-.7-.07-.28-.11-.55-.05-.75.06-.18.08-.39.12-.58.03-.19.14-.33.22-.5.18-.31.27-.66.43-.98.17-.32.27-.66.41-.99.16-.33.28-.67.42-1.02.39-.83.34-1.79.4-2.72.04-1.02.02-2.07-.12-3.12-.08-.65-.19-1.29-.35-1.93-.25-.96-.52-1.94-.94-2.86-.34-.7-.84-1.31-1.3-1.92-.1-.14-.19-.27-.27-.42-.29-.55-.19-.85.26-1.29.1-.1.19-.21.3-.29.33-.28.84-.29,1.3.02.71.44,1.21,1.05,1.67,1.71.44.66.83,1.38,1.15,2.12.47,1.11.73,2.32.97,3.51l-.07.02Z"/><path class="cls-1" d="M189.27,241.1l-1.3,1.12c-.44.37-.92.69-1.37,1.04-.9.71-1.89,1.31-2.85,1.93-.69.47-1.42.89-2.14,1.3-2.64,1.33-5.41,2.34-8.26,2.98-.62.17-1.27.24-1.9.38-.63.13-1.26.29-1.9.35-.81.11-1.63.2-2.45.24-.83-.05-1.65-.14-2.46-.38-.51-.34-.43-.18-.02-.54.42-.34,1.16-.97,2.03-1.24.78-.15,1.53-.41,2.29-.56.77-.09,1.52-.3,2.28-.46l1.14-.23,1.13-.28c.76-.17,1.54-.33,2.29-.57.46-.13.91-.28,1.36-.44.45-.17.88-.41,1.31-.62.43-.22.87-.43,1.29-.68l1.25-.75c.95-.5,1.8-1.15,2.7-1.73.86-.64,1.72-1.29,2.55-1.98l1.5-1.31c.49-.46.95-.94,1.42-1.41.73-.7,1.36-1.5,2.04-2.25.65-.78,1.25-1.6,1.84-2.42.42-.66.81-1.34,1.18-2.02l1.02-2.09c.16-.3.29-.61.45-.91.6-1.12.95-1.39,1.74-1.29.17.02.35.02.5.05.49.11.73.83.42,1.77-.39,1.42-1.02,2.79-1.77,4.11-.39.65-.79,1.31-1.2,1.95-.43.64-.9,1.25-1.36,1.88-.69.92-1.47,1.78-2.23,2.66-.82.82-1.59,1.69-2.46,2.46l-.05-.05Z"/><path class="cls-1" d="M268.3,220.65c.14.44.29.9.56,1.32.09.16.25.26.34.42.34.58.78,1.18,1.27,1.75.11.13.23.24.35.36l.33.39c.28.33.54.69.73,1.09.12.25-.71.51-1.15.35l-.61-.21c-.2-.08-.43-.11-.57-.25-.31-.26-.61-.56-.88-.92-.32-.44-.84-.7-1.24-1.13-.41-.49-.79-1.03-1.08-1.61-.2-.35-.32-.72-.48-1.08l-.27-.83c-.07-.28-.15-.55-.25-.82-.12-.42-.4-.8-.57-1.22-.04-.09-.1-.18-.11-.27-.06-.35.1-.49.74-.65.14-.03.29-.07.43-.1.49-.09.92,0,1.14.19.61.6.85,1.22,1,1.83.11.46.22.91.38,1.35l-.05.03Z"/><path class="cls-1" d="M165.11,429.62c-3.18-7.35-5.19-15.08-6.5-22.88-.64-3.91-1.1-7.84-1.32-11.8-.12-1.98-.13-4.02-.07-5.96l.11-5.87.31-8.56c.15-2.85.32-5.7.51-8.55,1.61-20.06,4.68-40,9.39-59.54,2.03-8.68,4.41-17.34,7.05-25.79,3.43-10.84,7.26-21.66,12.48-31.78,1.66-3.14,1.86-2.51,1.24.49-.32,1.5-.78,3.61-1.59,6.03-.77,2.45-1.66,5.31-2.86,8.32-4.09,10.75-7.47,21.74-10.54,32.84-3.04,11.12-5.58,22.4-7.69,33.83-2.5,13.67-3.93,28.11-4.75,42.3-.15,1.95-.18,3.9-.27,5.86-.07,1.95-.19,3.91-.2,5.86l-.1,5.86c-.04,1.94.04,3.84.17,5.78.55,7.72,1.89,15.44,4.04,22.88,1.36,4.57,3.03,9.06,5.19,13.28,2.2,4.19,4.8,8.22,8.14,11.54,2.5,2.53,5.38,4.69,8.57,6.23,3.19,1.55,6.66,2.49,10.2,2.83l2.67.13c.89.03,1.75-.07,2.63-.1.86-.15,1.73-.25,2.57-.46.83-.27,1.69-.43,2.47-.81,3.22-1.31,6.05-3.52,8.26-6.25,3.51-4.22,5.72-9.37,7.41-14.56,1.65-5.24,2.74-10.64,3.53-16.11.36-2.41.59-4.78.87-7.22.5-4.53.75-7.52,1.08-9.62.37-2.1.73-3.3,1.17-4.26.2-.44.39-1.02.55-1.28.28-.43.48.3.68,1.98.19,1.68.37,4.33.17,7.71-.24,5.02-.68,10.12-1.53,15.24-.83,5.12-1.99,10.27-3.73,15.33-.85,2.54-1.91,5.03-3.14,7.47-1.22,2.44-2.71,4.8-4.5,6.98-1.79,2.17-3.89,4.16-6.37,5.71-2.45,1.57-5.3,2.56-8.17,2.99-1.07.23-2.14.2-3.22.27-1.06.02-2.09-.08-3.13-.11-2.08-.17-4.15-.5-6.18-1.05-4.06-1.08-7.89-3.01-11.22-5.53-3.33-2.53-6.15-5.63-8.52-8.97-2.37-3.35-4.31-6.94-5.94-10.64l.06-.05Z"/><path class="cls-1" d="M279.69,401.35c.04-13.12-1.22-26.31-3.08-39.4-.69-4.78-1.54-9.53-2.38-14.28-2.91-16.77-6.62-33.42-10.87-49.94-1.89-7.33-4-14.64-6.21-21.81-2.86-9.21-5.98-18.38-8.82-27.55-.34-1.47-.51-2.08-.4-2.1.12-.02.55.58,1.35,1.64.81,1.05,1.75,2.65,2.85,4.59,1.05,1.96,2.09,4.33,3.06,6.96,1.73,4.65,3.26,9.36,4.72,14.09,1.47,4.73,2.88,9.48,4.22,14.25,2.7,9.54,5.11,19.18,7.2,28.93,2.51,11.66,5.26,23.77,7.29,35.82,2.22,13.24,3.89,26.6,4.49,40.06.33,8.28.28,16.61-.7,24.88-.16,1.57-.43,3.13-.65,4.69-.3,1.56-.55,3.12-.94,4.66-.71,3.09-1.61,6.16-2.86,9.11-1.24,2.95-2.79,5.8-4.8,8.34-1.99,2.55-4.51,4.74-7.33,6.32-4.3,2.47-9.29,3.96-14.33,3.74-2.51-.09-5-.58-7.37-1.37-.59-.2-1.17-.43-1.76-.65-.57-.25-1.15-.49-1.7-.76-.55-.3-1.1-.54-1.66-.89-.57-.34-1.13-.7-1.64-1.11-1.82-1.41-3.31-3.04-4.6-4.85-4.58-6.83-4.47-9.71-4.46-11.49.03-.42.05-.96.13-1.21.16-.44.55.09,1.24,1.31.69,1.23,1.85,3.1,3.22,5.5,1.05,1.75,2.22,3.45,3.55,4.95,1.32,1.49,2.81,2.81,4.41,3.67,3.54,1.86,7.49,3.16,11.44,3.18,3.96.07,7.9-1.09,11.49-3.1.94-.48,1.71-1.07,2.54-1.61.75-.65,1.56-1.22,2.23-1.98,1.44-1.39,2.63-3.08,3.71-4.84,3.17-5.31,4.85-11.66,5.92-18.06,1.04-6.44,1.4-13.05,1.41-19.66l.09-.02Z"/><path class="cls-3" d="M333.37,81.55c.35.22-3.25,1.02-4.62,2.59-1.23,1.42-1.5,5.56-2.11,5.55-.27,0-.51-3.88-1.81-5.75-1.17-1.68-5.22-2.37-4.99-2.48.91-.4,3.6-.02,4.92-2.14.74-1.19,1.45-4.01,1.94-5.9.08-.3.74,4.69,1.46,5.89,1.47,2.46,4.31,1.67,5.2,2.24Z"/><path class="cls-1" d="M363.57,100.15c.25.16-2.3.72-3.26,1.83-.87,1-1.06,3.93-1.49,3.93-.19,0-.36-2.75-1.28-4.07-.82-1.19-3.69-1.68-3.53-1.75.64-.29,2.55-.02,3.48-1.52.52-.84,1.02-2.84,1.37-4.17.06-.21.52,3.32,1.03,4.17,1.04,1.74,3.05,1.18,3.67,1.58Z"/><path class="cls-3" d="M303.26,165.14c.25.16-2.3.72-3.26,1.83-.87,1-1.06,3.93-1.49,3.93-.19,0-.36-2.75-1.28-4.07-.82-1.19-3.69-1.68-3.53-1.75.64-.29,2.55-.02,3.48-1.52.52-.84,1.02-2.84,1.37-4.17.06-.21.52,3.32,1.03,4.17,1.04,1.74,3.05,1.18,3.67,1.58Z"/><path class="cls-3" d="M368.36,136.62c.25.16-2.3.72-3.26,1.83-.87,1-1.06,3.93-1.49,3.93-.19,0-.36-2.75-1.28-4.07-.82-1.19-3.69-1.68-3.53-1.75.64-.29,2.55-.02,3.48-1.52.52-.84,1.02-2.84,1.37-4.17.06-.21.52,3.32,1.03,4.17,1.04,1.74,3.05,1.18,3.67,1.58Z"/><path class="cls-1" d="M332.73,133.7c.32.2-2.95.92-4.18,2.34-1.11,1.28-1.36,5.04-1.91,5.03-.24,0-.46-3.52-1.64-5.21-1.06-1.52-4.73-2.15-4.52-2.24.83-.37,3.27-.02,4.46-1.94.67-1.07,1.31-3.64,1.76-5.35.07-.27.67,4.25,1.32,5.34,1.33,2.23,3.9,1.52,4.71,2.03Z"/><path class="cls-1" d="M274.87,73.18c1.21,6.31-.07,13.07-3.78,18.3-1.36,1.88-2.91,3.68-4.84,5.02-.4.33-.87.55-1.3.83-.45.26-.86.55-1.34.76-.93.46-1.89.85-2.88,1.14-1.98.59-4.06.81-6.1.68-4.09-.25-7.96-1.85-11.13-4.25-2.81-2.14-5.18-4.89-6.77-8.04-1.02-2.02-1.72-4.22-2-6.48-.04-.57-.1-1.14-.11-1.71.06-.57.07-1.14.17-1.7.16-1.12.5-2.21.9-3.25.53-1.29.59-1.05.67.13.03.58.17,1.42.38,2.37.14.48.19.98.33,1.5.07.26.12.53.2.8,0,.27.07.54.09.82.41,3.98,2.22,7.74,4.89,10.78,2.71,3,6.32,5.28,10.32,6.16,2.39.53,4.96.4,7.33-.39,1.18-.41,2.34-.91,3.38-1.63.53-.34,1.08-.67,1.55-1.09.49-.4,1-.77,1.42-1.24,3.99-3.87,6.15-9.56,6.04-15.22-.09-3.49-1.02-6.96-2.74-10.01-2.65-4.55-7.37-7.92-12.46-9.37-3.97-1.1-8.22-.93-11.76.7-.78.36-1.48.8-2.21,1.26-1.32.87-2.13,1.56-2.79,1.98-.65.43-1.09.65-1.56.76-.21.05-.46.15-.63.16-.28,0-.29-.32-.06-.98.11-.34.29-.74.57-1.19.25-.47.62-.98,1.07-1.52,1.4-1.53,3.2-2.81,5.22-3.6,2.01-.83,4.19-1.21,6.37-1.28,4.37-.09,8.7,1.17,12.47,3.34,2.8,1.63,5.33,3.79,7.29,6.48,1.94,2.73,3.19,5.78,3.85,8.98l-.07.02Z"/><path class="cls-1" d="M216.39,82.63c.88.09,1.77.25,2.67.19l1.35-.02,1.35-.17c.67-.06,1.29-.3,1.94-.46,2.29-.52,4.56-1.36,6.62-2.61.48-.25.88-.61,1.3-.92.43-.31.81-.68,1.17-1.07l.7-.73c.2-.26.39-.54.62-.78.48-.48.83-1.02,1.36-1.48.42-.24.74-.03,1.07.6.17.32.27.71.29,1.15.02.44-.05.92-.32,1.29-.43.69-.96,1.32-1.53,1.87l-.85.85c-.3.26-.62.5-.93.74-.31.24-.63.48-.95.71l-1.02.6c-.34.19-.68.4-1.04.56l-1.11.43c-.45.15-.87.37-1.31.53-.45.16-.89.33-1.33.51-.87.4-1.81.62-2.72.88-1.02.25-2.07.35-3.1.5l-1.57.05c-.52.02-1.04.04-1.56-.03l-1.92-.17c-.63-.11-1.26-.26-1.88-.38-.96-.14-1.86-.54-2.77-.84-.93-.26-1.76-.77-2.64-1.13-.7-.26-1.33-.63-1.98-.98-.64-.36-1.33-.65-1.93-1.09-.26-.19-.54-.36-.78-.58-.91-.8-1.06-1.21-.76-1.9.07-.16.12-.32.21-.46.29-.46.97-.5,1.73-.15.56.26,1.11.53,1.62.84.55.26,1.1.49,1.64.77l.8.41c.27.14.55.22.82.35.54.24,1.08.49,1.62.75.84.25,1.66.59,2.51.82l1.3.27c.43.1.87.19,1.32.2v.08Z"/><path class="cls-1" d="M230.85,135.52c-2.49,1.48-5.26,2.49-8.11,2.95-1.42.19-2.86.31-4.28.26-1.43,0-2.81-.26-4.2-.41-2.01-.36-4.04-.76-5.94-1.53-3.36-1.31-6.48-3.22-9.15-5.61-2.64-2.43-4.84-5.27-6.59-8.34-1.61-2.7-2.73-5.67-3.62-8.65-.23-.97-.53-1.93-.72-2.91l-.48-2.96c-.06-1-.05-2-.06-3,0-1,.2-1.99.31-2.97.18-1.23.51-1.02.96.02.23.52.5,1.24.76,2.09.26.85.61,1.82.77,2.88.49,3.76,1.47,7.42,2.97,10.86,1.46,3.46,3.47,6.71,6.02,9.53,3.07,3.38,7.32,5.85,11.8,7.13,2.47.64,5.05,1.1,7.61,1.13,2.56.01,5.1-.45,7.47-1.38,1.45-.59,2.85-1.33,4.15-2.23,1.29-.92,2.49-1.97,3.6-3.12,3.33-3.54,5.83-7.91,7.65-12.46,1.4-3.56,2.32-7.21,3.09-10.9.16-.82.31-1.62.47-2.44.61-3.05.93-4,1.83-4.52.2-.12.4-.29.58-.35.58-.21.94,1.16.64,3.48-.87,6.88-2.81,14.09-6.3,20.79-1.31,2.47-2.85,4.86-4.7,7.06-1.85,2.19-4.04,4.14-6.52,5.7l-.04-.06Z"/><path class="cls-1" d="M202.39,207.27c.36-.29.79-.54,1.26-.72.48-.16.79-.22,1.12-.28.66-.12,1.27-.2,1.88-.28l3.6-.48c.86-.13,1.7-.35,2.54-.51.27-.05.23-.04.31-.05l.19-.02c.13-.02.28-.04.43-.08.29-.08.72-.18.93-.51.1-.15-.04-.23-.12-.28-.1-.05-.21-.09-.33-.13-.24-.07-.52-.13-.83-.18-.18-.03-.27-.04-.54-.07l-1.03-.08c-.69-.04-1.37-.06-2.05-.07-.88-.01-1.76-.06-2.64-.11-.88-.05-1.76-.13-2.64-.37-.55-.14-.48-.37-.01-.74.23-.19.57-.42.97-.67.4-.22.88-.37,1.39-.43.91-.09,1.82-.19,2.74-.22.92.01,1.83.05,2.76.11l1.92.15c.86.09,1.73.2,2.43.4.72.19,1.27.45,1.57.75.33.3.53.56.63,1.01.02.07.04.15.05.24.07.08.02.17.03.25-.12.65-.38,1.1-.79,1.51-.4.41-.95.78-1.64,1.11-.68.34-1.53.6-2.38.82-.2.05-.46.12-.61.15l-.4.09-.79.15c-2.45.44-4.97.64-7.26,1.04-.17.03-.33.07-.46.11-.11.03-.22.08-.33.13-.21.12-.42.3-.64.54-.44.49-.96,1.19-1.66,1.74-.52.42-1.15.72-1.68.95-.56.23-1.12.45-1.69.62-1.13.37-2.34.57-3.36.84-.23.07-.32.1-.44.17-.11.06-.21.16-.25.28-.17.53-.33,1.06-.5,1.58l-.52,1.81c-.1.36-.18.73-.29,1.09-.1.34-.19.61-.28.83-.1.22-.23.39-.34.52-.22.27-.47.39-.77.48-.14.04-.28.1-.4.12-.39.08-.69-.64-.66-1.76.14-.98.33-1.96.57-2.93.12-.49.25-.98.39-1.47.18-.53.18-.83.71-1.89.08-.13.19-.23.28-.35.09-.13.21-.22.33-.32.25-.18.51-.34.8-.46.14-.05.29-.13.42-.16l.3-.09.52-.13c.66-.15,1.23-.27,1.8-.42.54-.14,1.06-.29,1.57-.48.25-.09.51-.19.76-.3.25-.11.51-.23.67-.31.35-.19.64-.42.98-.8.34-.36.72-.92,1.43-1.53l.05.05Z"/><path class="cls-1" d="M218.72,199.8c.1.02.26.04.48.04.11,0,.23,0,.36-.02.12,0,.3-.07.28-.17.01-.04,0-.07,0-.1-.06-.11-.33-.13-.41-.19-.08-.06-.2-.12-.34-.17l-.25-.09s-.09-.03-.15-.04l-.43-.08c-1.14-.2-2.3-.35-3.47-.45-1.04-.09-2.08-.08-3.11-.04-.66.04-1.32.06-1.98.08-.66,0-1.3.06-1.95-.14-.44-.34-.43-.2-.17-.76.13-.29.37-.55.66-.85.3-.26.66-.44,1.06-.52,1.42-.3,2.82-.31,4.23-.26,1.4.05,2.81.18,4.21.45.44.08.8.14,1.32.21.71.09,1.41.21,2.07.34,1.34.26,2.48.66,3.12,1.17.47.36.76.71.96,1.36.05.19.1.35.04.54-.05.17-.13.28-.21.39-.18.19-.38.35-.63.5-.48.3-1.19.55-2.09.73-.84.15-1.73.26-2.6.34l-2,.16c-1.74.13-3.48.2-5.19.37-1.33.13-2.63.37-3.92.57-.29.04-.56.11-.85.15-1.06.12-1.39-.01-1.71-.5-.07-.11-.16-.21-.22-.32-.19-.33.21-.83,1.01-1.11,2.36-.74,4.83-1.06,7.31-1.28.92-.08,1.84-.16,2.76-.23l1.37-.12.34-.03s.01,0,.02,0h.04s.04.06.04.06Z"/><path class="cls-1" d="M221.38,196c.09.04.25.1.48.09.25-.04.19-.28.09-.4-.1-.12-.26-.14-.42-.24l-.06-.04-.17-.07-.36-.16c-.25-.1-.49-.2-.75-.28-.51-.19-1.03-.36-1.56-.52-1.07-.31-2.17-.56-3.28-.74-.99-.15-2-.23-2.99-.27-.64-.04-1.28.01-1.91-.04-.64-.06-1.29-.25-1.95-.34-.41-.08-.37-.09-.05-.33.32-.2.91-.84,1.68-1.15.17-.06.34-.12.51-.17l.52-.06c.35-.04.69-.06,1.04-.08.69-.04,1.38-.05,2.07-.03,1.38.11,2.75.33,4.1.71.81.23,1.64.41,2.49.64.42.12.84.25,1.27.4.12.05.18.06.34.13l.46.2c.31.12.59.3.89.46,1.24.76,1.97,1.71,2.1,2.81.1.55-.16,1.19-.58,1.41-.4.27-.92.44-1.56.52-.78.11-1.71.05-2.53-.02l-1.68-.17c-1.69-.15-3.36-.37-5.02-.44-1.28-.05-2.55.05-3.77.19l-.77.13c-.96.14-1.1.09-1.54-.34-.1-.09-.22-.16-.31-.25-.16-.14-.19-.33-.04-.62.15-.29.49-.52.92-.69,1.27-.45,2.51-.56,3.75-.62,1.24-.05,2.47,0,3.69.06.9.06,1.8.12,2.7.18.45.04.89.06,1.33.07h.66s.16.02.16.02c.04,0,.02,0,.03,0,0,0,.01,0,.02,0l.02.06Z"/><path class="cls-1" d="M198.54,190.55c.62-.63,1.28-1.25,1.95-1.86.69-.61,1.34-1.2,2.23-1.81.97-.67,1.92-.94,2.79-1.22.89-.27,1.77-.48,2.65-.68,1.29-.28,2.56-.58,3.86-.74,1.15-.14,2.3-.24,3.46-.29.58-.03,1.17-.03,1.75-.02l.89.03c.32.03.51.02,1.04.08.92.07,1.77.27,2.51.52.75.26,1.28.62,1.75,1.04.23.21.36.48.5.75.11.31.1.71-.04.98-.26.55-.71.92-1.3,1.29-.54.31-1.2.59-1.92.82-.35.12-.72.22-1.08.33l-.8.23c-.96.27-1.91.55-2.86.82-1.21.35-2.37.79-3.54,1.16-.58.19-1.14.4-1.69.62-.27.12-.55.21-.83.3-.12.07-.3.05-.46.08-.16.02-.3.07-.47.09-.82.15-.69.25-.44-.53.15-.35.28-1.1.73-1.63.43-.55,1.04-1.02,1.75-1.36,1.25-.62,2.55-1.01,3.82-1.35,1.27-.35,2.54-.66,3.76-.97.11-.03.05,0,.07-.01h.01s.03,0,.03,0h.09c.07,0,.18,0,.31-.04.15-.05.18-.17.15-.24-.02-.08-.09-.15-.2-.22-.07-.04-.16-.08-.26-.1l-.08-.02s-.05-.01-.17-.02c-.18-.01-.37-.03-.55-.03-.74-.03-1.51,0-2.28.05-1.54.11-3.09.35-4.62.61-1.68.29-3.37.65-4.95,1.15-.39.13-.78.26-1.13.41-.35.14-.61.34-.92.53-.64.48-1.28,1.04-1.91,1.62-1.55,1.44-3.04,2.99-4.49,4.57-2.18,2.41-4.33,4.88-6.28,7.46-1.51,2.01-2.83,4.1-4.11,6.21-.28.47-.55.93-.82,1.4-.54.86-.91,1.4-1.27,1.73-.38.32-.72.43-1.13.44-.19,0-.39.04-.55.02-.27-.04-.39-.3-.38-.73.01-.43.13-1.06.48-1.75,2.02-4.11,4.81-8.01,7.8-11.73,2.23-2.77,4.59-5.43,7.1-8.02l.05.04Z"/><path class="cls-1" d="M186.91,216.62l-2.8-2.96c-.91-.94-1.9-1.94-2.76-2.55-.1-.08-.16-.11-.26-.12-.07,0-.16.04-.2.07,0,0-.13.07-.21.14-.09.07-.18.12-.28.21-1.13.9-2.27,2.27-3.35,3.59l-3.29,4.1c-.99,1.22-1.94,2.49-2.97,3.71-.66.79-1.37,1.57-2.26,2.2-.45.32-.93.61-1.49.82-.14.05-.28.11-.42.14l-.47.04c-.15.02-.31.01-.47,0-.16-.04-.31.02-.47-.1-.74-.51-.49-.39-.01-.87.23-.28.47-.6.65-1.01.2-.39.43-.69.77-1.02,1.15-1.19,2.49-2.6,3.71-4.13,1.24-1.52,2.49-3.11,3.85-4.67.82-.92,1.61-1.92,2.45-2.92.43-.5.86-1,1.37-1.49.24-.24.53-.48.82-.71l.48-.34c.17-.09.43-.26.67-.34l.58-.17c.2-.03.4-.05.59-.07.51.05,1,.22,1.44.48.43.26.65.44.93.67.53.44,1.01.89,1.46,1.34.92.91,1.77,1.83,2.63,2.74,1.16,1.24,2.3,2.47,3.49,3.64.9.88,1.82,1.75,2.78,2.53.48.38.97.76,1.48,1.05.13.08.25.15.38.21.11.06.17.09.26.13.17.07.34.13.51.16.26.05.58.04.73-.18.1-.26.02-.55-.04-.79-.1-.28-.47-1.37-.86-2.14-.17-.36-.38-.7-.57-1.05-.61-1.35-.76-1.74-.57-2.37.04-.14.05-.29.09-.41.1-.38.99-.2,1.91.78.7.7,1.2,1.53,1.64,2.41.22.44.41.89.6,1.37l.14.4c.07.21.12.42.17.63.1.42.21.87.21,1.28.04.86-.17,1.56-.67,2.11-.56.52-1.29.78-2.1.77-.2.02-.41-.03-.62-.06-.21-.04-.42-.05-.63-.13-.42-.16-.86-.27-1.26-.49-.35-.18-.53-.27-.77-.43-.23-.14-.46-.28-.67-.43-2.5-1.75-4.39-3.79-6.35-5.76l.05-.05Z"/><path class="cls-1" d="M247.69,219.18c-.13-.03-.25.1-.21.22.01.06.05.12.1.17.02.03.05.06.09.09,0,0,.07.04.15.09l.23.12c.45.24.97.38,1.47.59.89.36,1.81.72,2.77,1.08l.8.31c.38.14.74.3,1.03.53.57.54.61,1.37.55,2.14-.1.99-.12,1.75.09,2.45.14.43.35.77.63,1.09.08.07.15.15.23.23.06.1.2.11.25.25.13.24.33.42.52.65.22.37.21.35-.2.55-.21.1-.5.23-.9.33-.19.03-.43.09-.65.06-.21-.03-.41-.14-.6-.28-.68-.46-1.26-1.21-1.54-1.98-.27-.78-.33-1.55-.33-2.22,0-.34.02-.65.05-.94,0-.05,0-.17.02-.16.01,0,.02-.01.02-.02.01-.02.03-.03.04-.06.07-.11.05-.22-.09-.34-1.26-.53-2.78-.77-4.19-1.36-.39-.16-.78-.33-1.17-.53l-.29-.16c-.11-.06-.27-.15-.4-.23-.28-.16-.53-.35-.78-.53-.47-.39-.83-.84-1.04-1.33-.22-.48-.28-1.04-.13-1.56.39-1.3,2.04-1.5,3.44-1.64,1.58-.1,3.09.05,4.6.2,1.17.12,2.34.18,3.52.41.26.05.52.08.78.16.95.3,1.2.58,1.08,1.33-.02.16-.03.31-.06.43-.09.39-.69.8-1.29.67-1.87-.24-3.8-.55-5.78-.69-.73-.05-1.46-.08-2.17-.06h-.26c-.09.01-.19.02-.16.01,0,0-.01,0-.02-.01-.02,0-.05-.01-.08-.01l-.07-.05Z"/><path class="cls-1" d="M247.54,214.85c-.27.02-.71.1-.71.08-.08,0-.12-.01-.19,0-.13,0-.34.04-.43.2,0,.03,0,.07,0,.1.03.13.22.16.3.24.04.03.09.07.14.1.03.02.06.04.09.05.05.02.19.08.28.11.42.15.86.28,1.31.41.9.23,1.82.48,2.76.66.83.18,1.69.21,2.53.34,1.08.15,2.17.17,3.25.6.34.12.29.17,0,.35-.21.13-.43.26-.61.38-.26.18-.55.32-.87.35-2.28.42-4.58.37-6.86-.23-.68-.2-1.38-.35-2.11-.53l-.66-.18c-.27-.09-.56-.18-.82-.29-.53-.22-.99-.5-1.34-.83-.47-.46-.8-1.02-.79-1.7.11-1.46,1.72-2.11,3.27-2.4.37-.07.61-.1.85-.12l.74-.06c.49-.04.97-.06,1.46-.07,1.47-.03,2.93.12,4.37.28,1.12.14,2.24.19,3.38.43.25.05.5.08.75.17.91.3,1.14.6,1,1.32-.03.16-.04.31-.09.45-.15.46-.68.75-1.27.64-1.77-.27-3.59-.6-5.49-.76-1.4-.12-2.84-.19-4.2-.03v-.06Z"/><path class="cls-1" d="M245.36,214.04c-.71-.23-1.45-.46-1.93-.83-.25-.18-.48-.37-.62-.61-.16-.22-.31-.46-.38-.74-.07-.28-.13-.59-.08-.89,0-.15.04-.3.06-.44.03-.14.12-.27.18-.4.24-.52.65-.97,1.22-1.32.2-.13.41-.26.65-.36.23-.11.45-.22.71-.31.24-.09.49-.19.74-.25.24-.06.35-.09.53-.12,2.3-.39,4.5-.33,6.69-.14.97.11,1.94.19,2.91.34.62.08,1.25.18,1.86.43.15.05.3.12.45.19.14.1.27.21.4.33.26.22.49.5.71.75.27.32.17.33-.21.37-.19.02-.48.11-.8.25-.18.08-.35.16-.51.23-.09.05-.17.07-.27.13-.07,0-.15,0-.23,0-.27-.02-.54-.03-.82-.03-.27,0-.54-.07-.82-.1-.55-.07-1.11-.11-1.68-.16-1.14-.06-2.29-.21-3.46-.32-.7-.07-1.42-.02-2.12.09-.35.05-.7.12-1.04.2l-.5.12-.23.06-.1.02c-.27.06-.61.13-.86.38-.12.12-.18.32-.09.46.08.14.23.23.38.31.19.09.41.16.65.23.39.09.94.18,1.41.25,1.5.21,3.04.37,4.58.45,1.19.07,2.39-.05,3.6.09.27.03.53.03.81.09,1.01.17,1.31.51,1.36,1.07.01.13.04.25.03.37-.03.36-.5.63-1.17.68-1,.03-2.06.2-3.13.16-1.07-.02-2.18-.08-3.3-.15-.83-.06-1.67-.14-2.53-.24-.43-.05-.86-.11-1.3-.18l-.66-.12c-.07-.02-.35-.06-.52-.1l-.58-.14.03-.06Z"/><path class="cls-1" d="M264.44,211.75c-.18-1.47-.69-2.83-1.3-4.12l-.57-.89c-.09-.14-.19-.32-.28-.44-.09-.09-.16-.22-.27-.29-.38-.36-.88-.63-1.52-.8-.93-.23-2.04-.19-3.19-.17-2.11.05-4.11.07-6.13.37-1,.14-1.99.33-2.94.6-.24.07-.47.14-.7.22l-.55.21c-.22.09-.44.21-.63.38-.17.15-.31.35-.33.58-.09.28.24.35.45.37.52.07.67.04,1.79.08,2.34.04,4.73-.17,7.12.32.74.41.64.25.01.67-.31.23-.75.41-1.28.64-.27.11-.55.22-.86.32-.16.05-.31.1-.47.14-.16.02-.33.04-.5.06-1.21.09-2.43.18-3.67.22l-.94.02h-.57c-.31,0-.6-.02-.91-.04-.59-.05-1.19-.12-1.66-.28-.48-.15-.82-.39-1.07-.67-.13-.13-.21-.3-.28-.51-.03-.05-.01-.12-.09-.15l-.03-.17c-.02-.11-.05-.22-.05-.34-.04-.45.03-.91.2-1.32.31-.84,1.07-1.6,2.07-2.15.24-.14.48-.28.77-.39.19-.08.33-.13.5-.2.32-.12.65-.22.97-.31.64-.18,1.28-.31,1.91-.41,1.52-.25,3.03-.45,4.58-.6l1.16-.09,1.11-.07c.75-.05,1.52-.1,2.32-.09.88,0,1.8.08,2.74.34.93.26,1.91.74,2.63,1.51.39.39.59.76.85,1.14.24.38.52.74.72,1.14.35.82.8,1.6,1,2.46.68,2.07.82,4.22.78,6.31-.1,3.19-.84,6.3-1.93,9.23-.87,2.26-1.83,4.51-3.38,6.49-.36.42-.68.86-1.07,1.26-.81.68-1.32,1.15-1.85,1.26-.5.14-.87.05-1.2-.12-.15-.07-.31-.12-.41-.19-.27-.18.06-1.17.95-2,1.31-1.34,2.34-3.04,3.24-4.83.89-1.79,1.66-3.71,2.15-5.71.78-2.95,1.04-6.08.54-9l.07-.02Z"/><path class="cls-1" d="M210.37,243.2c3.69-.34,7.39-.65,11.1-.83,1.35-.06,2.7-.24,4.05-.26,4.77-.16,9.56-.06,14.33.2,1.06.08,2.12.09,3.18.17,1.06.08,2.12.15,3.17.23,2.69.25,5.45.38,7.98,1.56.79.34.65.47-.12.73-.47.16-1,.35-1.57.54-.64.17-1.35.22-2.11.2-1.36.02-2.68-.2-4.02-.29l-4.03-.25c-1.35-.07-2.7-.16-4.05-.27-1.36-.06-2.72-.13-4.08-.23-1.64-.08-3.31-.05-4.99.01-1.68.1-3.37.2-5.04.29-3.68.22-7.37.46-11.06.81-2.27.19-4.54.44-6.8.69-3.43.41-6.88.81-10.27,1.37-2.63.43-5.19,1.03-7.77,1.56-.57.12-1.12.26-1.7.36-1.07.18-1.78.25-2.3.18-.52-.09-.85-.28-1.13-.59-.13-.14-.29-.27-.38-.41-.14-.24-.01-.5.34-.78.35-.28.93-.6,1.7-.81,4.57-1.28,9.49-2.13,14.45-2.86,3.68-.55,7.4-.98,11.12-1.41v.07Z"/><path class="cls-1" d="M206.04,101.93c1.66,1.91,4.42,3.28,6.96,3.28,2.79,0,5.01-1.9,5.74-4.54.43-1.55-1.98-2.22-2.41-.66-.48,1.72-1.77,2.8-3.65,2.69s-3.73-1.21-4.88-2.54c-.44-.51-1.31-.45-1.77,0-.51.51-.44,1.26,0,1.77h0Z"/><path class="cls-1" d="M233.09,100.64c-.52.61-.99,1.04-1.61,1.41-.08.04-.15.09-.23.13-.03.01-.31.14-.2.1.09-.03-.13.04-.15.04-.1.03-.2.05-.3.07.13-.03.09,0-.02,0s-.21,0-.32,0c-.09,0-.18-.01-.27-.02-.23-.02.27.06-.13-.02-.35-.07-.7-.16-1.04-.3-.12-.05.09.05-.1-.05-.07-.04-.15-.07-.22-.11-.17-.09-.33-.18-.48-.28s-.31-.21-.47-.32c.13.1-.05-.05-.1-.08-.07-.05-.13-.11-.2-.17-.31-.27-.61-.57-.89-.87-.47-.49-1.3-.47-1.77,0s-.47,1.28,0,1.77c1.32,1.38,2.92,2.58,4.86,2.86,1.12.16,2.1.04,3.11-.5.87-.47,1.65-1.15,2.29-1.89.44-.51.5-1.27,0-1.77-.45-.45-1.32-.51-1.77,0h0Z"/><path class="cls-1" d="M207.59,95.06c-.23.18.16-.1.23-.15.15-.1.31-.18.47-.27.08-.04.17-.08.25-.12.04-.02.28-.12.08-.04.19-.08.38-.15.57-.21.38-.13.78-.24,1.17-.33.22-.05.43-.09.65-.12.03,0,.31-.04.13-.02.11-.01.22-.03.34-.04.43-.04.85-.06,1.28-.05.47.01.82.05,1.12.1.9.17,1.37.33,2.1.84.55.39,1.39.1,1.71-.45.37-.63.1-1.32-.45-1.71-1.67-1.18-3.91-1.44-5.89-1.23s-3.95.77-5.53,2.02c-.53.42-.44,1.33,0,1.77.52.52,1.24.42,1.77,0h0Z"/><path class="cls-1" d="M226.99,96.77c-.65.76-.85,1.67-.82,3.14.01.49.1.98.13,1.48.08,1.77.45,3.6.97,5.41.22.81.5,1.61.8,2.4l.3.76c.08.26.15.52.22.79l.09.4v.43c.02.29.05.57.07.85.02.35-.06.34-.35.14-.21-.14-.42-.28-.61-.4-.16-.09-.3-.18-.43-.25-.08-.04-.14-.1-.24-.14l-.15-.18-.52-.68c-.17-.23-.27-.48-.41-.73-.26-.49-.5-.99-.73-1.5-.49-1.01-.76-2.13-.99-3.28-.25-1.37-.77-2.75-.94-4.21-.11-.8-.08-1.62-.05-2.42.04-.43.11-.9.2-1.33.16-.43.25-.88.47-1.28.46-1.03,1.28-1.84,2.14-2.46,1.35-.92,2.94-1.32,4.49-1.33,1.21,0,2.47.16,3.62.77.26.12.51.25.73.45.19.2.33.37.42.53.08.18.13.33.15.47.04.28-.04.49-.2.73-.08.11-.14.22-.23.31-.28.28-.82.22-1.33.03-.46-.06-.74-.24-1.1-.32-.16-.06-.33-.1-.51-.12-.18-.02-.33-.09-.51-.08-.69-.09-1.41-.02-2.1.14-1.03.21-1.96.77-2.52,1.53l-.06-.04Z"/><path class="cls-1" d="M213.32,118.95c.02,1.73.88,3.26,2.31,4.22,1.25.84,2.95,1.12,4.39.68.85-.26,1.65-.76,2.21-1.45.41-.51.53-1.28,0-1.77-.46-.42-1.33-.54-1.77,0-.12.15-.26.3-.4.43-.25.23.15-.09-.02.03-.08.05-.15.11-.23.15s-.16.09-.24.13c-.11.05-.27.05.05-.02-.17.03-.35.12-.52.16-.09.02-.18.03-.27.05.39-.1.11-.02,0-.01-.16,0-.32,0-.48,0-.12,0-.4-.09,0,0-.09-.02-.18-.03-.27-.05-.17-.04-.34-.08-.5-.14-.1-.03-.32-.16,0,.01-.08-.04-.17-.08-.25-.12-.17-.08-.32-.18-.48-.29-.28-.19.14.13-.02-.02-.05-.05-.11-.09-.16-.14-.13-.12-.24-.3-.38-.41.12.16.14.19.07.08-.03-.04-.05-.08-.08-.12-.05-.08-.1-.16-.15-.24-.03-.06-.06-.13-.1-.19-.1-.19.1.29-.01-.04-.07-.19-.11-.38-.16-.58-.05-.22.02.31,0-.05,0-.11-.01-.22-.01-.32,0-.65-.57-1.28-1.25-1.25s-1.26.55-1.25,1.25h0Z"/><path class="cls-1" d="M229.62,173.58c.11.15.03.34-.12.53-.05.06-.25.12-.29.08-.09-.07-.19-.14-.27-.22-.04-.05-.58-.85-.83-1.08-.21-.24-.41-.47-.58-.73-.36-.5-.76-.97-1.18-1.41-.09-.1-.17-.21-.23-.33-.19-.43-.49-.79-.84-1.1-.06-.05-.1-.11-.21-.12-.16-.03-1.08-.83-1.18-.97-.21-.36-.5-.64-.73-1.02-.03-.05-.1-.07-.09-.17.02-.24-.1-.29-.19-.38-.13-.13-.26-.25-.37-.41-.06-.07-.07-.22-.1-.35-.03-.11.14-.31.18-.32.11-.03.12-.17.17-.27.02-.03.04-.08.06-.1.05-.08,1.28.08,1.4.15,0,0,.11.05.26.13.15.07.34.18.53.31.36.26.73.52.82.59.09.05.13.16.18.25.04.02,1.06.9,1.09.96.17.22.4.4.44.72,0,.06.05.1.09.14.32.36.52.8.72,1.24.11.22.23.43.34.64.02.04.02.09.03.13.01.05.02.11.05.16.26.51.43,1.05.66,1.57.06.12.13.76.18.89.03.08-.04.39,0,.45Z"/><path class="cls-1" d="M233.39,169.94c.06.18-.08.32-.3.44-.07.04-.28.02-.32-.03-.06-.1-.13-.19-.18-.28-.02-.06-.23-.95-.37-1.23-.11-.28-.2-.56-.28-.83-.19-.55-.36-1.11-.61-1.63-.05-.12-.08-.24-.11-.37-.08-.44-.28-.84-.54-1.2-.04-.06-.07-.13-.17-.16-.13-.07-.84-.99-.9-1.13-.14-.36-.34-.69-.51-1.06-.02-.05-.08-.08-.06-.17.05-.21-.05-.28-.13-.38-.1-.14-.21-.27-.29-.43-.04-.08-.03-.21-.04-.34,0-.11.2-.29.24-.29.12-.01.15-.15.22-.25.02-.03.05-.07.08-.09.05-.06,1.19.32,1.28.43,0,0,.09.07.21.18.12.11.29.24.44.41.28.32.58.66.66.75.07.07.09.18.12.28.04.03.79,1.12.79,1.18.11.25.27.48.24.79,0,.06.02.11.05.16.19.43.29.89.38,1.34.06.24.12.46.17.68,0,.04,0,.09,0,.13,0,.05,0,.11,0,.16.11.54.1,1.1.17,1.65.02.13-.1.74-.09.88,0,.08-.16.35-.14.42Z"/><path class="cls-1" d="M259.27,175.67c.02.18-.15.29-.42.38-.09.03-.32-.02-.34-.08-.05-.11-.09-.23-.12-.35-.02-.07.04-1.13.09-1.5.03-.36.12-.7.24-1.04.24-.68.5-1.36.85-2,.07-.15.17-.28.3-.38.41-.38.75-.81,1.09-1.24.06-.07.13-.13.14-.24,0-.2,1.1-1.25,1.3-1.32.46-.2.89-.43,1.35-.59.06-.03.12-.08.21-.04.22.09.33,0,.46-.07.18-.09.38-.14.58-.18.1-.02.23.04.35.07.11.03.18.3.17.34-.04.12.08.2.13.3.02.03.04.08.05.11,0,.06-.67.96-.74,1.03-.04,0-1.14.94-1.23,1.08-.05.07-.15.09-.23.12-.06,0-.78.9-.8.94-.19.15-.28.38-.56.46-.05.02-.08.06-.11.1-.24.34-.52.64-.81.95-.15.16-.24.35-.37.53-.02.03-.06.05-.09.08-.04.04-.08.07-.1.11-.25.44-.57.87-.72,1.36-.05.11-.38.6-.4.74-.02.07-.27.27-.26.35Z"/><path class="cls-1" d="M262.97,178.05c.04.14-.16.2-.49.24-.1.01-.39-.05-.43-.1-.07-.1-.14-.2-.19-.3-.03-.05-.08-.94-.07-1.27-.02-.32.08-.6.18-.87.22-.55.47-1.11.85-1.58.08-.11.17-.2.3-.27.4-.25.71-.56,1.02-.89.05-.05.12-.09.13-.2-.01-.2,1.02-.94,1.2-.95.43-.06.81-.18,1.23-.18.06,0,.11-.05.19.03.19.17.28.11.4.09.16-.03.33-.03.5,0,.09.02.19.12.28.2.08.07.11.39.1.43-.04.11.04.25.08.38.01.04.03.1.03.14-.01.07-.55.84-.6.87-.02,0-.87.57-.93.68-.04.05-.12.03-.19.04-.05-.01-.59.59-.61.61-.15.08-.21.25-.47.22-.05,0-.07.03-.09.05-.18.22-.44.38-.66.58-.12.1-.17.25-.28.35-.02.02-.06.03-.09.04-.03.02-.07.03-.09.06-.21.29-.47.57-.6.91-.04.07-.41.37-.42.47-.02.05-.31.16-.29.22Z"/><path class="cls-1" d="M237.96,169.04c.05.14-.1.24-.36.31-.08.02-.32-.01-.35-.05-.06-.08-.12-.17-.16-.25-.02-.05-.1-.8-.14-1.06-.04-.25-.04-.49-.03-.74l.04-1.49c0-.11.02-.22.06-.32.12-.36.15-.74.14-1.12,0-.06,0-.13-.04-.19-.08-.11.03-1.13.09-1.25.15-.31.26-.63.38-.95.02-.05,0-.1.08-.13.17-.08.17-.18.2-.28.05-.14.1-.27.18-.41.04-.07.13-.12.21-.18.07-.05.27,0,.29.03.06.07.17.03.25.04.03,0,.07,0,.09,0,.03.01.43.88.42.96,0,0,0,.31,0,.63,0,.32,0,.65,0,.72,0,.07-.04.14-.07.2-.02.03.02.99,0,1.02-.05.19-.03.39-.21.57-.03.03-.03.07-.04.11-.04.34-.15.66-.24.99-.05.17-.06.34-.09.51,0,.03-.03.06-.04.09-.02.04-.04.07-.05.11-.06.4-.19.8-.21,1.21,0,.09-.21.52-.21.63,0,.06-.21.24-.18.29Z"/></svg>