<?xml version="1.0" encoding="UTF-8"?><svg id="Layer_1" xmlns="http://www.w3.org/2000/svg" width="520" height="520" viewBox="0 0 520 520"><defs><style>.cls-1{fill:#0056FF;}.cls-2,.cls-3{fill:#0056FF;}.cls-3{opacity:.45;}</style></defs><path class="cls-3" d="m218.98,197.9l9.74,7.39s2.83-1.51,5.92,1.4,11.98,7.5,17.07,5.41c5.09-2.09,3.03-6.74,7.59-12.11,0,0-.97-5.29-4.35-5.26-3.38.03-10.44,2.47-10.44,2.47l-13.72-10.26-.24-3.15c-.35-2.71-17.07,1.36-18.85,10.63-.39,2.01,3.14,2.42,7.28,3.47Z"/><path class="cls-3" d="m238.88,459.99s-.58,8.74-2.17,11.05c-1.59,2.31-18.79,6.31-21.77,8.27s-4.67,4.45-1.47,5.27c3.2.82,32.47-1.28,36.28-3.99l.43-20.59h-11.3Z"/><path class="cls-3" d="m303.82,465.63s.64,9.64-1.52,9.63c-2.16-.02-21.4,4.54-22.18,6.21s2.43,3.28,6,3.6c3.58.32,25.09-1.2,28.17-3.73v-15.71s-10.47,0-10.47,0Z"/><path class="cls-2" d="m246.13,462.81c-.63-.08-1.24-.27-1.85-.42-.22-.05-.45-.04-.67-.1-.78-.25-1.55-.5-2.3-.79-.33-.13-.67-.2-1.01-.27-.22-.05-.44-.06-.65-.13-.21-.09-.41-.19-.6-.37-.11-.16-.03-.41.17-.75.19-.34.49-.74.75-.81.45-.07.88-.04,1.31,0,.21.02.42.05.63.1.21.07.41.16.61.26.49.25,1.04.17,1.57.25.58.09,1.16.18,1.74.26.36.06.72.13,1.08.16.55.05,1.1.13,1.64.07.42-.06.83-.25,1.23-.34.09-.02.18-.07.27-.08.34-.03.46.13.6.75l.09.42c.08.47-.02.88-.27,1.08-.37.3-.76.52-1.17.68-.41.11-.84.15-1.26.17-.63.03-1.27-.03-1.9-.07v-.07Z"/><path class="cls-2" d="m310.79,467.46c-.59-.11-1.19-.22-1.78-.32-.22-.04-.43-.02-.64-.07-.76-.18-1.5-.39-2.25-.54-.33-.07-.66-.09-.99-.11-.21-.01-.42,0-.64-.03-.21-.04-.42-.12-.62-.24-.13-.08-.08-.33.05-.61.14-.28.37-.63.61-.7.85-.09,1.68-.1,2.52.09.5.12,1.03,0,1.55,0,.57-.01,1.14.03,1.71.05.35.01.7.03,1.05.02.53,0,1.07,0,1.59-.08.41-.06.79-.29,1.18-.44.09-.03.17-.08.26-.09.33-.01.47.27.62.83l.1.39c.09.43,0,.84-.22,1.15-.33.4-.71.57-1.09.7-.39.13-.78.22-1.19.2-.6,0-1.21-.07-1.81-.13v-.06Z"/><path class="cls-2" d="m271.82,264.8s-19.61,40.78-22.28,47.39c-2.68,6.62-24.92,69.99-27,77.39-2.08,7.4-10.82,38.33-11.01,46.33-.19,8.01-.56,13.15,6.62,17.38,7.18,4.24,32.03,6.06,46.73,3.39,0,0-14.71,2.26,4.3-74.82,3.25-13.16,8.1-34.97,15.3-53.93,0,0-14.8,59.23-16.28,80.99s-3.47,42.78,1.46,46.39c4.93,3.61,18.44,7.39,27.57,8.4,9.12,1.01,29.37,1.23,35.9-3.48s8.14-3.76,8.55-9.73-2.79-64.63-5.51-74.53c-2.71-9.89-4.29-55.05-4.29-55.05l-.41-32.78.68-11.62s-23.07-6.15-31.35-6.41c-8.27-.26-21.93-1.93-24.23-2.51s-4.77-2.82-4.77-2.82Z"/><path class="cls-2" d="m227.3,194.46s1.07-2.02,2.37-.44c1.3,1.58-.45,2.22-1.19,1.94s-1.19-1.5-1.19-1.5Z"/><path class="cls-2" d="m239,200.89s2.14-.49,2.52.53-2.68,2.93-2.52-.53Z"/><path class="cls-2" d="m254.21,209.66c-.38.63-.88,1.32-1.63,1.78-.33.26-.78.38-1.14.52-.35.09-.69.18-1.04.24-.5.1-1,.21-1.51.25-.89.06-1.78.07-2.66-.01-.88-.11-1.75-.26-2.59-.49-.75-.21-1.5-.41-2.2-.74-.9-.39-1.77-.91-2.47-1.6-.22-.21-.15-.23.12-.17.26.07.73.2,1.23.38.88.36,1.8.53,2.7.74.9.2,1.82.33,2.76.43,1.12.12,2.3.03,3.43-.15.62-.1,1.24-.23,1.82-.41.5-.17.92-.48,1.29-.92.45-.54.78-1.27,1.1-2.01.49-1.12.99-2.32,1.72-3.4.55-.85,1.22-1.64,2.05-2.28.19-.13.36-.27.56-.4.75-.41,1.07-.37,1.38,0,.07.09.15.17.21.26.18.32,0,.72-.43,1.01-1.28.88-2.23,1.93-2.96,3.37-.57,1.06-.98,2.3-1.71,3.63l-.04-.02Z"/><path class="cls-2" d="m314.56,266.72c-3.36-.48-6.66-1.28-9.94-2.11-1.19-.33-2.39-.59-3.58-.93-2.08-.62-4.12-1.38-6.17-2.06l-6.08-2.28c-1.78-.71-3.57-1.43-5.33-2.14-1.14-.44-2.25-.96-3.37-1.45-1.12-.49-2.23-1.02-3.28-1.65-.66-.39-.55-.39.12-.3.42.05.89.11,1.37.17.56.09,1.18.27,1.85.5,1.17.41,2.33.85,3.5,1.25l3.52,1.18c2.3.91,4.66,1.67,6.99,2.56,1.39.55,2.86.92,4.33,1.35l2.21.61c.74.17,1.49.35,2.22.55,1.62.43,3.23.87,4.87,1.21l2.45.55c.82.18,1.65.29,2.47.46,2.02.43,4.06.7,6.1.97,3.1.32,6.23.59,9.32.42.6-.04,1.2-.04,1.79-.11.59-.07,1.18-.15,1.76-.21.59-.04,1.17-.16,1.74-.27.57-.12,1.17-.17,1.73-.34.5-.13.99-.26,1.49-.41.88-.36,1.5-.54,1.89-.72.4-.18.66-.24.9-.25.11,0,.25-.03.33-.01.13.02.05.17-.23.42-.28.23-.73.66-1.42.95-.99.53-2.05.85-3.11,1.28-.54.16-1.09.32-1.63.48l-.83.24-.84.18c-1.12.24-2.27.39-3.42.47l-1.73.15-1.73.04c-3.45.12-6.88-.26-10.28-.65v-.05Z"/><path class="cls-2" d="m339.51,219.96s2.28.88,3.38-1.18c1.11-2.06-3.55,5.19-4.38,5.49s1-4.31,1-4.31Z"/><path class="cls-2" d="m337.25,186.15c-14.52.44-16.48-7.59-15.21-9.18,0,0-3.88,2.68-2.64,4.42s5.63,4.21,5.63,4.21l12.22.55Z"/><path class="cls-2" d="m337.53,94.86l-2.95-1.06c-10.36-3.49-26.73,11.71-18.08,22.28,0,0,6.65,4.63,14.39,4.2,7.74-.43,15.78-2.31,18.57-1.16,2.79,1.15.27,4.98.09,6.28s1.92,5.09,4.64,6.45c2.72,1.36,9,2.84,9,2.84,0,0,1.87,7.39,1.45,8.49s-6.59,8.57-8.91,9.69c-2.32,1.13-1.81,4.74-.78,5.59s11.68-4.82,12.69-6.3,5.74,1.16,6.4,3.57c.67,2.41-1.45,7.96-2.93,8.84s-7.23,2.35-8.68,1.69-.53,3.88-.14,7.16,5.61,9.73,10.35,8.74c4.74-.99,5.15-2.15,4.72-2.4s-4.89-6.73-4.45-8.05,2.6,6.18,7.37,5.84c4.78-.34,9.66-4.04,9.66-4.04,0,0-8.19-5.45-6.06-9.1,2.13-3.65,7.55-7.41,12.32-11.44,4.77-4.02,10.13-9.99,10.23-13.82.1-3.83-.69-9.65-3.99-12.11s-14.36-5.43-14.36-5.43c0,0,3.9-2.89,1.45-10.39-2.45-7.5-6.97-15.15-9.89-17.88-2.92-2.73-15.27-10.37-18.44-10.8-3.17-.43-16.68-3.68-22.99,12.66"/><path class="cls-2" d="m227.04,484.47c2.97.08,5.94.13,8.92.15,1.09,0,2.17-.07,3.26-.05,3.83.07,7.67.22,11.52.32,1.71.06,3.42.03,5.12.12,1.09.07,2.18.03,3.28.22l1.63.25c.55.12,1.09.28,1.62.42.66.19.52.34-.08.49-.62.15-1.65.36-2.89.49-1.08.08-2.18.12-3.27.16-1.09.02-2.19.11-3.29.09-2.2,0-4.41,0-6.64-.08-2.66-.1-5.43.16-8.16.19-3,.04-6.01.05-9.01.05l-5.55-.03c-2.81-.02-5.62-.11-8.42-.16-2.17-.02-4.32.02-6.51-.13-.48-.04-.96-.06-1.45-.12-.9-.06-1.51-.39-1.89-.61-.39-.24-.55-.55-.62-.95-.04-.18-.1-.35-.1-.5,0-.48.86-.87,2.03-.8,3.62.12,7.59.08,11.56.24,2.96.08,5.96.16,8.95.17v.07Z"/><path class="cls-2" d="m296.7,484.01l7.64.14c.93.01,1.86-.05,2.79-.03,3.28.07,6.56.14,9.84.22,1.46,0,2.92.01,4.36.02,1.85-.06,3.72.13,5.58.38.58.09.5.26.01.52-.49.25-1.38.68-2.45.88-.94.18-1.88.35-2.83.4-.94.08-1.89.16-2.83.22-1.89,0-3.79-.06-5.7-.17-2.28-.14-4.66.04-6.99.06h-7.71s-4.74-.03-4.74-.03c-2.39,0-4.8-.05-7.18,0-1.85.04-3.67.22-5.51.3-.41.02-.81.05-1.22.05-.38,0-.7-.01-.96-.05-.27-.05-.48-.16-.66-.25-.35-.19-.53-.42-.67-.74-.06-.15-.14-.29-.17-.42-.1-.44.56-.83,1.62-1.08,3.21-.35,6.63-.43,10.07-.46,2.56,0,5.13,0,7.7-.01v.07Z"/><path class="cls-2" d="m316.14,472.7c-.03,1.12-.06,2.25-.07,3.39,0,.41.06.82.05,1.24-.03,1.46-.1,2.93-.21,4.39-.04.65-.02,1.3-.01,1.94.06.82-.05,1.66-.26,2.48-.07.26-.28.22-.53,0-.25-.22-.61-.62-.73-1.08-.26-.82-.24-1.65-.33-2.47-.05-.82-.07-1.65-.03-2.49.09-1.01-.09-2.04-.15-3.07l-.13-3.4-.07-2.1c-.04-1.06-.03-2.13-.12-3.19-.07-.82-.29-1.62-.43-2.44-.03-.18-.09-.36-.1-.54-.07-.68.15-.89.89-1.02.17-.03.34-.07.5-.09.55-.05,1.06.22,1.22.7.46,1.42.51,2.89.55,4.39,0,1.12.01,2.25.02,3.37h-.06Z"/><path class="cls-2" d="m287.33,486.79c-1.37-.09-2.75-.22-4.15-.46-.35-.05-.7-.13-1.06-.21-.39-.08-.6-.15-1.29-.34-.29-.09-.54-.22-.81-.34-.25-.13-.56-.2-.76-.38l-.64-.46c-.18-.18-.35-.36-.51-.54l-.24-.51-.16-.56c-.02-.4,0-.8.17-1.14.31-.68.87-1.29,1.66-1.76.23-.16.47-.32.74-.46l.67-.33c.33-.15.67-.31,1-.43.67-.27,1.33-.51,2-.71,4.7-1.39,9.41-2.23,14.01-3.38.64-.16,1.27-.34,1.89-.53l.91-.3c.14-.05.32-.1.42-.15.06-.04.14-.05.21-.1.23-.03.19-.31.24-.47.01-.04.01-.09.02-.14l.05-.27.09-.56c.38-2.63.51-5.3,1.13-7.92.13-.81.2-.75.59-.05.18.35.44.87.74,1.5.25.63.41,1.39.46,2.19.11,1.19-.02,2.36-.08,3.55-.04.59-.1,1.19-.17,1.79l-.1.64c-.03.29-.14.55-.21.82-.04.3-.28.44-.43.65l-.13.15-.02.02h0s-.08-.07.07.08h0s0,.01,0,.01l-.04.03-.08.06-.31.25c-.18.08-.35.18-.52.27-.16.08-.43.19-.52.22l-.63.25c-.41.14-.83.26-1.23.37-.81.22-1.61.41-2.41.59-1.6.36-3.19.66-4.79.95-3.26.6-6.59,1.57-9.69,2.65-.43.15-.84.32-1.25.48l-.38.16c-.08.03-.15.07-.23.11-.15.09-.31.18-.42.33-.12.16-.05.36.09.48.12.12.28.21.45.28.19.08.25.1.76.23.83.2,1.72.32,2.6.42,2.23.23,4.51.29,6.78.24,3.45-.07,6.93-.3,10.33-.81,2.64-.4,5.18-1.06,7.67-1.82.55-.16,1.06-.37,1.61-.54,1.98-.68,2.58-.77,3.34-.26.17.12.38.21.53.35.5.42-.12,1.39-1.69,2.12-2.3,1.07-4.73,1.74-7.21,2.28-2.48.53-5.02.87-7.58,1.13-3.79.36-7.62.49-11.49.32v-.07Z"/><path class="cls-2" d="m251.58,468.85l-.36,4.51c-.04.55,0,1.1-.04,1.65-.18,1.94-.34,3.88-.56,5.82-.1.86-.1,1.73-.16,2.58-.11,1.1-.14,2.2-.55,3.28-.13.34-.34.27-.65-.03-.3-.31-.78-.86-.86-1.49-.16-1.12-.37-2.23-.29-3.34.02-1.11.09-2.23.29-3.34.22-1.34.11-2.74.17-4.12l.22-4.55.14-2.8c.05-1.42.16-2.84.15-4.25-.01-1.1-.17-2.18-.24-3.27-.02-.24-.06-.48-.06-.72.01-.9.21-1.17,1-1.32.17-.03.34-.08.51-.09.54-.05,1.08.34,1.2.99.44,1.93.46,3.93.38,5.96-.05,1.5-.15,3.02-.22,4.53h-.07Z"/><path class="cls-2" d="m218.07,486.39c-1.09-.07-2.19-.18-3.32-.37-.59-.11-1.06-.19-1.96-.47-.92-.29-1.75-.75-2.28-1.39-.56-.61-.79-1.52-.63-2.33.17-.81.63-1.59,1.33-2.18.31-.3.77-.59,1.07-.81.27-.15.57-.35.82-.46.52-.26,1.04-.49,1.55-.7,1.5-.61,2.95-1.18,4.43-1.63,2.62-.78,5.22-1.48,7.8-2.19,2.56-.72,5.17-1.43,7.48-2.49.51-.23.98-.51,1.38-.8l.27-.22c.06-.07.13-.15.2-.22.12-.21.27-.38.36-.61.45-.89.68-2.01.83-3.12.19-1.45.2-2.95.29-4.47.04-.76.09-1.53.18-2.3.04-.39.09-.77.16-1.16.06-.39.24-.77.36-1.15.42-.95.49-.73.72.1.32.86.81,2.27.9,4.02.09,1.55.15,3.13.05,4.79-.06.83-.13,1.67-.32,2.56-.2.88-.45,1.81-1.09,2.74-.13.22-.32.46-.55.7-.22.25-.42.37-.63.56-.41.31-.81.56-1.2.78-.79.43-1.56.77-2.32,1.06-1.53.6-3.06,1.05-4.6,1.48-3.65,1.01-7.38,2.16-10.94,3.37-.98.33-1.94.68-2.86,1.07-.45.2-.91.41-1.31.62-.47.26-.52.29-.71.44-.15.14-.3.31-.33.53-.03.22.13.41.31.52.09.06.19.1.29.15.1.04.2.07.38.13.38.1.91.22,1.39.29,2.44.37,5.03.4,7.59.35,3.89-.09,7.81-.36,11.66-.88,2.99-.41,5.88-1.05,8.76-1.74.63-.16,1.24-.33,1.87-.49,2.35-.59,3.02-.65,3.78-.08.17.13.38.23.53.37.51.44-.36,1.43-2.14,2.06-5.25,1.84-10.9,2.67-16.62,3.27-4.26.41-8.54.63-12.93.43v-.07Z"/><path class="cls-2" d="m339.43,272.36l-.38,3.61c-.05.45-.03.9-.09,1.34-.23,1.58-.57,3.19-1.19,4.72-.15.34-.29.67-.42,1.01l-.54.97c-.49.8-1.21,1.51-2.12,1.82-.27.11-.29-.01-.23-.32.06-.31.12-.87.37-1.21.18-.37.31-.73.51-1.05.14-.36.33-.68.45-1.05.1-.38.26-.73.36-1.13.09-.4.22-.78.32-1.19.27-.98.24-2.07.27-3.14l.11-3.59c.01-.74.06-1.5.09-2.25.06-1.15.19-2.29.28-3.45.05-.45.05-.9.05-1.36l.1-1.39c.01-.21.02-.41.08-.62.22-.75.54-.9,1.23-.78.16.03.32.05.48.09.51.15.84.59.89,1.09,0,.72,0,1.44-.09,2.15-.04.73-.15,1.46-.2,2.23-.11,1.12-.19,2.3-.27,3.49h-.06Z"/><path class="cls-2" d="m337.23,223.77c.21-.64.42-1.29.61-1.94.07-.24.07-.49.16-.73.28-.84.57-1.68.82-2.53.11-.38.17-.77.23-1.15.04-.25.06-.5.1-.75.07-.24.17-.48.33-.7.14-.13.38-.06.69.14.31.2.65.51.68.8-.1,1-.28,1.98-.65,2.95-.23.58-.23,1.23-.35,1.84-.15.67-.33,1.35-.51,2.02-.11.42-.23.83-.34,1.24-.16.63-.38,1.25-.52,1.89-.11.49-.1,1.02-.19,1.54-.02.11-.02.23-.05.34-.13.41-.32.48-.87.35-.13-.03-.25-.06-.38-.1-.41-.14-.69-.43-.71-.73-.1-.91.13-1.72.36-2.58.18-.64.37-1.28.55-1.92h.05Z"/><path class="cls-2" d="m334.56,231.82c.95-1.27,1.83-2.63,2.65-4.04.31-.51.54-1.06.84-1.58,1.08-1.82,2.18-3.65,3.23-5.5.47-.82.89-1.67,1.32-2.51.56-1.06,1.11-2.15,1.97-3.06.26-.29.33-.19.36.19.02.19.03.45.04.77.02.32-.01.66-.14.98-.22.57-.42,1.15-.64,1.72l-.77,1.66c-.52,1.1-1.08,2.2-1.69,3.27-.75,1.28-1.27,2.74-1.98,4.09-.77,1.49-1.61,2.96-2.53,4.39l-.87,1.31-.94,1.27c-1,1.26-2.1,2.45-3.36,3.48l-.71.62-.76.57c-.49.42-1.04.74-1.6,1.05-.25.13-.48.32-.75.41-1,.36-1.38.28-1.76-.35-.09-.14-.18-.28-.25-.43-.21-.51.05-1.06.62-1.4,1.69-1.01,3.21-2.07,4.68-3.45,1.09-1,2.08-2.22,3-3.51l.05.03Z"/><path class="cls-2" d="m239.59,194.47c-.89-.53-1.76-1.08-2.63-1.63-.31-.21-.66-.36-.97-.58-1.08-.78-2.14-1.58-3.1-2.52-.44-.4-.88-.79-1.32-1.19-.27-.27-.54-.54-.77-.84-.23-.3-.41-.66-.57-1.01-.1-.22.09-.3.4-.28.3.02.76.09,1.06.33.3.2.6.39.84.63l.83.64c.56.42,1.12.86,1.69,1.32.65.59,1.49.97,2.27,1.41.85.5,1.72.98,2.61,1.43.54.29,1.09.56,1.65.82.85.39,1.69.79,2.57,1.1.68.24,1.4.34,2.1.5.16.03.32.05.47.09.56.17.69.39.58,1.02-.02.14-.04.29-.07.43-.12.47-.49.76-.94.75-1.34-.05-2.68-.42-3.94-.99-.94-.42-1.85-.92-2.77-1.4l.02-.05Z"/><path class="cls-2" d="m383.69,179.36c-1.35.02-2.71-.03-3.99-.45-.23-.07-.47-.11-.7-.17-.23-.08-.46-.16-.68-.26-.39-.17-.77-.36-1.12-.6-.36-.23-.72-.44-1.03-.72-.65-.53-1.19-1.15-1.71-1.77-.21-.29-.43-.57-.66-.84l-.59-.87c-.53-.73-.82-1.61-.9-2.5-.03-.28.19-.3.52-.19.33.12.82.34,1.12.67l.43.42c.14.14.22.31.36.44.27.27.48.58.76.83.53.53,1.06,1.03,1.63,1.52.65.65,1.59.91,2.45,1.19.97.26,1.97.49,3.02.45.64.03,1.29-.09,1.94-.2.48-.11.96-.28,1.45-.42.47-.18.93-.42,1.37-.65.35-.18.62-.49.92-.74.29-.27.59-.5.86-.8.12-.12.22-.27.37-.35.55-.33.88-.25,1.4.12.12.09.24.16.35.25.35.3.4.78.18,1.34-.32.85-.91,1.45-1.56,2.03-.64.58-1.45.96-2.26,1.34-.59.29-1.27.44-1.9.65-.65.16-1.34.25-2,.35v-.07Z"/><path class="cls-2" d="m363.56,175.26c.72,1.21,1.68,2.32,2.81,3.25.42.33.89.59,1.34.88,1.56,1.06,3.37,1.83,5.28,2.02.84.06,1.69-.05,2.5-.24.25-.08.5-.17.76-.26l.73-.33c.47-.25.93-.5,1.47-.72.33-.13.47.05.45.5-.01.23-.06.52-.17.87-.13.31-.37.59-.67.83-1.12.77-2.45,1.32-3.81,1.42-1.36.11-2.71-.08-3.95-.51-1.47-.52-3.02-1-4.34-1.88-1.44-.96-2.72-2.15-3.76-3.53-.63-.86-1.17-1.78-1.61-2.75-.65-1.49-.93-3.13-.91-4.74.02-1.25.13-2.52.52-3.74.09-.26.18-.52.29-.78.45-.95.83-1.1,1.49-.9.15.05.31.08.45.15.47.23.63.79.44,1.39-.52,1.81-.84,3.5-.64,5.25.19,1.29.64,2.6,1.39,3.79l-.05.04Z"/><path class="cls-2" d="m374.81,174.87c.18.56.4,1.14.72,1.67.12.19.29.35.42.54.45.67.93,1.38,1.57,1.91.29.22.62.39.95.48.42.22.79.2,1.26.52.15.1.18.23.07.49-.09.24-.4.78-.8.81-.33.03-.72.1-1.03.05-.32-.05-.65-.16-.92-.31-.58-.27-1.07-.65-1.48-1.09-.47-.54-1.11-.93-1.55-1.5-.48-.63-.9-1.29-1.22-2.02-.22-.43-.36-.91-.52-1.36-.11-.35-.16-.73-.25-1.09-.04-.38-.08-.75-.12-1.12,0-.3-.04-.59-.09-.9,0-.31-.02-.63.03-.95,0-.14.03-.28.09-.41.21-.49.46-.56,1.07-.3.14.06.28.11.42.18.45.24.75.6.82.87.06.4.22.73.19,1.01.03.16.04.31.04.46,0,.15.04.32.05.48.04.49.16,1.03.34,1.58l-.06.03Z"/><path class="cls-2" d="m354.81,157.41c.11.12.21.19.43.25.21.06.55.06.93-.01.76-.12,1.63-.48,2.47-.9,1.7-.86,3.36-2.01,4.97-3.22.56-.42,1.1-.87,1.66-1.32l.85-.69c.46-.36,1.01-.78,1.63-.71.14.02.28.03.42.05l.65.08c.19.03.37.08.56.12.37.09.74.17,1.1.32.36.13.72.26,1.06.45.35.17.68.35,1,.59,1.28.87,2.35,2.14,2.87,3.65.51,1.52.42,3.18-.11,4.6-.54,1.43-1.42,2.62-2.46,3.62-.96.86-2.04,1.56-3.2,2.08-1.17.5-2.41.81-3.66.93-1.6.13-3.29-.02-4.79-.73-1.49-.68-2.87-1.85-3.35-3.42-.26-.98-.25-.78.41-.28.3.27.88.51,1.46.77.32.1.59.27.9.4.34.1.63.28.98.39,1.21.43,2.5.64,3.81.57,1.3-.08,2.6-.44,3.75-1.04,1.16-.6,2.15-1.46,2.94-2.47.79-1.02,1.29-2.18,1.31-3.37,0-.61-.15-1.23-.43-1.81-.32-.55-.71-1.1-1.25-1.51-.53-.42-1.14-.77-1.81-.99l-.5-.17-.52-.11c-.18-.03-.35-.09-.53-.09l-.32-.03c-.08-.03-.16.01-.22.06l-.42.32c-1.61,1.28-3.28,2.61-5.06,3.79-1.81,1.15-3.64,2.34-6.09,2.72-.75.09-1.63.06-2.45-.37-.83-.42-1.36-1.19-1.68-1.85-.35-.71-.5-1.59-.38-2.4.12-.82.47-1.53.87-2.13,1.26-1.81,2.91-2.97,4.47-4.14,1.57-1.16,3.18-2.24,4.55-3.47.5-.45.97-.93,1.33-1.43.18-.25.34-.5.46-.75.08-.12.1-.25.15-.37.06-.13.05-.24.07-.29.05-.28-.3-1.01-.61-1.7-.32-.7-.67-1.44-.95-2.24-.23-.67-.48-1.35-.54-2.15-.17-1.48.3-2.61.76-3.19.27-.28.51-.46.74-.56.26-.07.51-.07.74-.03.22.04.44.05.59.13.25.13.27.47.21.89-.06.43-.19.87-.23,1.45-.07.86.27,1.93.73,3.07.26.61.52,1.21.79,1.83.14.34.29.67.42,1.11.07.19.13.46.19.8.04.33,0,.67,0,1l-.14.52c-.03.14-.07.26-.13.38-.1.23-.19.49-.31.68-.23.43-.48.79-.75,1.14-.53.68-1.1,1.21-1.66,1.72-1.14,1-2.29,1.84-3.42,2.66-1.67,1.21-3.35,2.38-4.55,3.66-.6.63-.99,1.28-1.08,1.74-.05.23-.01.43.04.67.06.21.3.6.38.69l-.05.05Z"/><path class="cls-2" d="m326.09,168.93s-1.13,4.05,3.49,6.9c9.2,5.68,16.65-3.47,16.65-3.47,0,0-11.03.83-13.88-.31-2.85-1.14-6.27-3.11-6.27-3.11Z"/><path class="cls-2" d="m315.53,154.17c.91,3.6,2.78,7.02,5.31,9.95.43.56.96.98,1.43,1.48.49.48,1.07.86,1.58,1.32,3.86,2.94,8.8,4.67,13.81,4.73,2.21.01,4.46-.25,6.56-.92,2.7-.87,5.15-2.21,7.61-3.71.78-.46.83-.26.45.49-.19.38-.48.9-.88,1.53-.42.59-1.01,1.2-1.75,1.73-.68.41-1.36.84-2.08,1.2-.74.3-1.49.58-2.23.87-.76.22-1.54.42-2.31.62-.78.14-1.57.26-2.35.39-3.16.36-6.38.07-9.42-.8-3.62-1.04-7.29-2.66-10.28-5.21-1.62-1.45-2.93-3.09-4.17-4.78-.55-.9-1.2-1.74-1.67-2.68l-.71-1.42-.35-.71c-.1-.24-.18-.5-.28-.74l-.65-1.84c-.17-.63-.3-1.27-.45-1.9-.07-.32-.15-.63-.21-.95l-.1-.97c-.05-.65-.17-1.29-.17-1.94-.13-3.95.83-7.83,2.29-11.37,1.15-2.75,2.45-5.4,4.11-7.84.34-.56.72-1.06,1.11-1.59.74-.96,1.32-1.52,1.79-1.85.47-.34.83-.44,1.23-.43.18,0,.39-.01.53.03.49.15.16,1.14-.79,2.56-1.33,2.16-2.8,4.26-3.96,6.55-1.17,2.28-2.2,4.65-2.86,7.12-.95,3.65-1.05,7.49-.08,11.1l-.06.02Z"/><path class="cls-2" d="m376.72,93.15c-3.04-2.94-6.55-5.44-10.42-7.21-.7-.33-1.42-.62-2.16-.86-.72-.27-1.46-.5-2.2-.73-2.6-.82-5.31-1.36-8.05-1.57-2.72-.26-5.47-.04-8.09.66-2.31.64-4.49,1.8-6.22,3.37-2.13,2.08-3.78,4.73-3.84,7.56-.21.94-.21.97-.98.22-.24-.19-.38-.46-.53-.78-.15-.32-.33-.72-.39-1.16-.2-.88-.17-1.97.23-2.99.65-1.83,1.78-3.43,3.15-4.68,1.37-1.25,2.88-2.35,4.54-3.09,3.29-1.6,6.92-2.15,10.41-2.02,2.1.11,4.19.26,6.28.64,2.09.33,4.16.85,6.15,1.56,4.37,1.57,8.41,3.94,11.94,6.88,2.18,1.8,4.16,3.83,5.95,5.99,2.73,3.28,4.91,7,6.6,10.88,1.27,3.03,2.37,6.14,2.66,9.54.03.75.12,1.49.04,2.26-.09,1.43-.4,2.38-.75,2.97-.33.6-.79.84-1.26.94-.22.04-.45.12-.64.1-.66-.09-.62-1.18-.46-2.83.14-1.24.08-2.55-.1-3.86-.16-1.31-.46-2.64-.84-3.96-.76-2.64-1.88-5.26-3.28-7.74-2.05-3.7-4.69-7.13-7.79-10.06l.05-.06Z"/><path class="cls-2" d="m319.54,189.35c.95.55,2,.99,3.08,1.36.39.14.81.2,1.21.32,1.41.45,2.88.81,4.37,1.02.66.09,1.33.12,2,.12.42,0,.85-.01,1.28-.02.43.02.86.05,1.29.11.27.04.25.23.04.47-.21.23-.62.57-1.12.68-1.79.26-3.62.23-5.42-.1-1.07-.22-2.21-.26-3.31-.52-1.2-.29-2.39-.66-3.53-1.15-.71-.3-1.4-.65-2.07-1.05-1.01-.61-1.97-1.36-2.76-2.33-.61-.74-1.16-1.67-1.29-2.75-.04-.24-.05-.47-.04-.71.1-.88.39-1.09,1.01-1.03.14.01.29.02.42.05.46.12.73.51.78.91.09.61.27,1.05.51,1.48.26.42.62.85,1.06,1.3.66.66,1.55,1.28,2.52,1.79l-.02.05Z"/><path class="cls-2" d="m286.36,192.93c-4.38.36-8.67-.15-12.87-.84l-2.3-.38c-.39-.07-.75-.1-1.17-.21-.4-.11-.84-.2-1.21-.34-2.65-.94-5.08-2.08-7.56-3.19-2.46-1.12-4.9-2.25-7.36-3.34-2.17-.99-4.4-1.88-6.6-2.72-2.84-1.04-5.74-1.97-8.61-2.58-.89-.17-.81-.42.03-.68.42-.14,1.04-.28,1.77-.29.36-.01.78-.05,1.19,0,.41.05.84.13,1.28.23,6.19,1.6,11.94,4.05,17.6,6.78,1.69.81,3.45,1.57,5.22,2.28,1.77.68,3.57,1.43,5.28,1.73,4.1.74,8.24,1.29,12.38,1.25,2.53-.11,5.08-.28,7.51-.97,1.86-.44,3.65-1.15,5.41-1.94,1.74-.84,3.43-1.78,5.09-2.81,2.58-1.58,5.05-3.33,7.81-4.73.6-.32,1.2-.6,1.83-.88,1.16-.54,1.99-.72,2.58-.79.6-.06.99.06,1.35.32.16.12.36.23.47.37.38.47-.44,1.23-2.04,1.94-2.35,1.15-4.69,2.35-7.03,3.78-2.35,1.41-4.75,2.95-7.36,4.31-1.92,1.05-4.02,1.86-6.15,2.54-1.07.3-2.17.54-3.26.78-1.1.14-2.2.34-3.3.44v-.06Z"/><path class="cls-2" d="m368.53,223.79c-1.37,5.68-3.39,11.19-6.04,16.4-2.67,5.19-5.97,10.11-10.09,14.32-2.99,3.07-6.36,5.84-10.15,7.93-3.35,1.83-6.98,3.14-10.71,3.87-3.73.73-7.54.93-11.29.68-7.51-.53-14.73-2.57-21.66-5.07-6.16-2.25-12.21-4.8-18.11-7.44-7.58-3.4-15.19-6.74-22.68-10.25-2.28-1.23-1.93-1.21.29-.86,1.12.16,2.65.53,4.48,1.03,1.84.49,3.95,1.19,6.15,2.13,7.78,3.31,15.56,6.62,23.35,9.93,7.78,3.17,15.72,6.04,23.96,7.37,4.91.75,10.05.84,15-.21,1.23-.28,2.46-.57,3.65-.99,1.22-.35,2.37-.87,3.54-1.35,2.28-1.08,4.51-2.3,6.54-3.81,2.24-1.64,4.35-3.48,6.26-5.52,1.9-2.05,3.64-4.27,5.22-6.59,3.12-4.69,5.62-9.81,7.47-15.16,2.27-6.57,3.73-13.51,3.84-20.44.02-2.62-.17-5.25-.79-7.74-.27-1.25-.78-2.4-1.35-3.59l-.41-.88c-.15-.29-.33-.56-.49-.84-.34-.55-.63-1.13-1.01-1.66-2.88-4.31-7.16-7.63-11.99-9.39-.82-.29-1.64-.54-2.47-.73-.41-.09-.83-.18-1.23-.22-.23-.04-.35-.04-.47-.05-.13-.02-.24.02-.34.1l-.45.26c-.18.1-.36.22-.55.31l-1.13.55c-.77.33-1.54.65-2.34.9-1.59.52-3.21.89-4.85,1.11-3.28.42-6.62.35-9.89-.29-1.84-.37-3.64-.88-5.4-1.78-1.62-.83-2.92-1.85-3.69-3.15-.09-.16-.18-.32-.27-.48-.06-.18-.12-.35-.19-.52-.13-.33-.17-.68-.2-1.01-.05-.66.06-1.26.26-1.73.15-.5.44-.82.65-1.15.24-.29.49-.5.71-.7.47-.34.89-.54,1.29-.65.38-.08.82-.22,1.07-.21.43.04.11.55-.57,1.44-.15.23-.37.47-.51.76-.07.14-.18.29-.24.44-.06.16-.12.31-.18.47-.2.66-.13,1.27.36,1.98.46.68,1.28,1.3,2.19,1.79.92.5,1.93.89,2.98,1.21,2.12.61,4.37.95,6.64,1.01,2.27.08,4.56-.12,6.77-.61,1.11-.23,2.19-.56,3.24-.96.52-.21,1.04-.41,1.53-.67.25-.13.51-.23.74-.38l.94-.54c.59-.34,1.3-.23,1.93-.27.41.05.82.1,1.19.18.76.14,1.48.34,2.2.55,1.43.44,2.81.99,4.15,1.66,2.67,1.32,5.15,3.09,7.26,5.23,2.18,2.2,3.94,4.79,5.29,7.54.32.71.67,1.36.95,2.12l.41,1.15.3,1.15c.22.77.3,1.53.46,2.29.1.76.19,1.52.26,2.28.43,6.05-.33,11.98-1.67,17.72h-.07Z"/><path class="cls-2" d="m300.27,233.42c2.76,1.12,5.6,2.09,8.49,2.9,1.06.29,2.13.51,3.19.78,3.74.98,7.55,1.76,11.4,2.27,1.71.22,3.44.37,5.14.47,2.19.11,4.39.11,6.59.3.69.05.61.22.04.48-.57.24-1.64.7-2.94.81-2.29.11-4.57.1-6.86-.03-2.28-.18-4.55-.47-6.81-.91-2.7-.52-5.53-.9-8.27-1.54-3.01-.72-5.98-1.6-8.9-2.63-1.8-.63-3.57-1.34-5.32-2.1-2.65-1.16-5.21-2.53-7.67-4.03-1.91-1.17-3.79-2.35-5.53-3.8-.37-.33-.78-.61-1.13-.98-1.33-1.33-1.51-1.98-1.21-2.69.07-.17.13-.35.22-.49.34-.46,1.13-.16,2.04.68,2.78,2.46,5.95,4.72,9.43,6.67,2.58,1.44,5.3,2.71,8.1,3.8l-.02.06Z"/><path class="cls-2" d="m296.46,211.96c-.55,1.16-1.07,2.36-1.6,3.57-.19.44-.33.9-.54,1.34-.72,1.54-1.51,3.09-2.5,4.52-.41.65-.91,1.25-1.36,1.86-.33.37-.68.72-1.03,1.07-.37.33-.81.59-1.27.78-.29.12-.33-.04-.26-.38.07-.34.19-.89.57-1.21,1.23-1.32,1.99-2.96,2.97-4.57.58-.98.91-2.13,1.32-3.24l1.36-3.69c.29-.76.59-1.52.9-2.28.46-1.16,1.04-2.28,1.6-3.41.47-.87.83-1.79,1.42-2.66.13-.19.21-.41.38-.57.59-.63.93-.69,1.5-.24.13.1.27.2.39.31.39.39.46.96.2,1.39-.75,1.29-1.56,2.54-2.33,4.01-.56,1.09-1.14,2.22-1.65,3.41l-.05-.02Z"/><path class="cls-2" d="m274.37,212.78c1.17.46,2.4.77,3.67.96.46.08.94.03,1.4.09,1.66.15,3.36.13,5.07,0,.76-.09,1.51-.2,2.25-.39.96-.17,1.91-.4,2.91-.46.31-.02.34.21.16.54-.18.32-.55.8-1.08,1.05-.47.23-.95.41-1.44.61-.49.18-1,.28-1.5.39-1.01.23-2.06.35-3.11.33-.63-.02-1.27.05-1.92.06-.64.04-1.3.07-1.94.03-1.42-.06-2.84-.31-4.22-.67l-1.26-.38-1.23-.47c-.62-.24-1.21-.56-1.8-.84-.57-.34-1.16-.63-1.72-.98-.43-.27-.89-.49-1.34-.73l-1.32-.77c-.2-.11-.38-.23-.56-.37-.65-.52-.73-.84-.36-1.47.09-.15.16-.3.26-.43.34-.45.89-.57,1.41-.31,1.52.77,2.87,1.73,4.33,2.56,1.07.63,2.19,1.18,3.38,1.59v.06Z"/><path class="cls-2" d="m243.28,225.68c2.39.27,4.81.44,7.27.67l1.38.13c.46.04.99.13,1.43.26,3.27.86,6.05,2.54,8.71,4.23,1.18.75,2.38,1.47,3.57,2.17,1.53.89,3.04,1.76,4.5,2.74.45.33.31.49-.25.59-.57.13-1.56.13-2.53-.28-1.74-.69-3.3-1.64-4.85-2.56-1.55-.92-3.06-1.86-4.6-2.75-1.83-1.05-3.93-1.82-5.94-2.14-2.3-.3-4.82-.4-7.26-.62-1.52-.13-3.03-.28-4.55-.47-2.3-.32-4.62-.71-6.87-1.65-.31-.12-.61-.29-.91-.44l-.44-.28c-.15-.08-.28-.21-.49-.37-.68-.61-1.14-1.39-1.27-2.24-.03-.36-.03-.72.11-1.06.14-.35.42-.58.71-.72.42-.21.97-.31,1.64-.26.27.02.52.03.75.05.12,0,.23,0,.33.01.19,0,.33.02.44.04.23.05.42.16.69.32.12.08.28.13.4.2.21.12.26.34.06.7-.2.32-.75.7-1.41.82-.19.04-.37.07-.54.08-.15.02-.11.03-.16.05-.06.03-.11.05-.14.08-.07.04-.06.18.04.25.03.05.09.07.12.08.06.04-.09-.1.12.06.15.09.29.19.48.28.69.36,1.57.66,2.48.89,2.19.56,4.6.87,7,1.09v.06Z"/><path class="cls-2" d="m252.57,193.86c1.43,0,3.01.11,4.5.9.54.27,1.07.62,1.48,1.08.74.86,1.04,1.75,1.29,2.68.22.93.27,1.88.16,2.8-.1.81-.31,1.61-.63,2.35-.39.95-1.04,1.83-1.94,2.31-.3.14-.33.02-.32-.33,0-.36.03-.91.25-1.34.77-1.54,1.11-3.1.83-4.76-.13-1-.84-1.92-1.48-2.41-.74-.61-1.89-.84-3.1-.83-.74,0-1.51.07-2.28.2-1.16.19-2.36.42-3.51.79-.89.29-1.72.74-2.58,1.13-.19.09-.37.2-.56.27-.73.27-1.02.16-1.38-.5-.08-.15-.18-.3-.24-.45-.23-.53-.06-1.07.43-1.38,1.45-.92,3.12-1.51,4.9-1.96,1.32-.35,2.71-.56,4.18-.62v.06Z"/><path class="cls-2" d="m231.84,195.11c-.04.72-.46,1.44-1.09,1.8-.61.34-1.14.32-1.56.28-.31-.04-.59-.06-.86-.16-.87-.41-1.58-.95-2.11-1.78-.21-.36-.41-.83-.37-1.28,0-.58.35-1.2.89-1.36.17-.05.26.19.34.47.07.28.21.59.22.69,0,.19.11.29.15.38.05.11.2.32.42.55.26.29.77.35,1.1.42.19.04.38.05.48.04.08-.03.12.06.09.02.02,0,.08-.06-.01-.22-.13-.23-.45-.47-.85-.49-.31-.02-.63.18-.88.35-.06.04-.1.1-.16.13-.2.11-.31-.02-.66-.61l-.25-.4c-.27-.46-.32-.93-.05-1.2.8-.75,2.05-.99,3.32-.45.47.22.9.53,1.26.99.35.44.66,1.08.64,1.85h-.06Z"/><path class="cls-2" d="m243.34,202.24c-.04.72-.46,1.44-1.09,1.8-.61.34-1.14.32-1.56.28-.31-.04-.59-.05-.86-.16-.87-.41-1.58-.95-2.11-1.78-.21-.36-.41-.83-.37-1.28,0-.58.35-1.2.89-1.36.17-.05.26.19.34.47.07.28.21.59.22.69,0,.19.11.29.15.38.05.11.2.32.42.55.26.29.77.35,1.1.42.19.04.38.05.48.04.08-.03.12.06.09.02.02,0,.08-.06-.01-.22-.13-.23-.45-.47-.85-.49-.31-.02-.63.18-.88.35-.06.04-.1.1-.16.13-.2.11-.31-.02-.66-.61l-.25-.4c-.27-.46-.32-.93-.05-1.2.8-.75,2.05-.99,3.32-.45.47.22.9.54,1.26.99.35.44.66,1.08.64,1.85h-.06Z"/><path class="cls-2" d="m214.68,407.12c3.25-12.49,7.07-24.78,11.14-36.98,1.49-4.45,2.92-8.92,4.5-13.33,2.77-7.79,5.72-15.51,8.78-23.18,3.06-7.68,6.22-15.31,9.5-22.89,2.93-6.72,5.83-13.49,8.93-20.08,3.98-8.45,8-16.96,13.02-24.87,1.66-2.41,1.6-1.99.86.41-.35,1.21-.98,2.85-1.7,4.85-.37,1-.76,2.08-1.24,3.2-.49,1.11-1.01,2.29-1.58,3.5-1.02,2.14-2.04,4.28-3.02,6.44-1,2.15-1.97,4.31-2.93,6.49-1.92,4.34-3.84,8.68-5.77,13.03-3.83,8.7-7.54,17.49-11.19,26.35-4.37,10.6-8.28,21.88-12.11,32.96-4.2,12.19-8.14,24.48-11.59,36.89-2.12,7.64-4.07,15.33-5.6,23.09-1.12,5.87-2.15,11.81-2.31,17.71v2.2c.03.73.13,1.43.18,2.15.13,1.37.63,2.51,1.47,3.56,1.69,2.09,4.34,3.46,7.01,4.5,4.22,1.59,8.73,2.39,13.21,2.91,4.5.5,9.03.7,13.57.7,2-.01,3.96-.09,5.98-.16,7.47-.3,9.82-.46,11.55.4.39.18.9.35,1.14.54.82.61-2.19,1.77-7.78,2.28-4.14.37-8.36.55-12.63.51-4.27-.03-8.59-.25-12.94-.8-4.35-.55-8.74-1.4-13.09-2.97-2.17-.81-4.34-1.82-6.37-3.35l-.75-.59-.72-.68c-.49-.43-.9-1.01-1.34-1.53-.78-1.16-1.48-2.47-1.73-3.94l-.09-.4-.03-.33-.07-.66-.13-1.33c-.08-.89-.04-1.72-.05-2.59-.03-.87.04-1.7.09-2.54.06-.83.07-1.69.17-2.51.18-1.65.33-3.31.59-4.94l.35-2.45.42-2.43c1.14-6.47,2.61-12.83,4.2-19.15h.09Z"/><path class="cls-2" d="m282.81,460.13c9.39,2.53,19.37,3.31,29.16,2.89,4.9-.24,9.79-.83,14.49-2.03,2.34-.62,4.63-1.38,6.75-2.41,2.11-1.03,4.06-2.37,5.43-4.07l.66-.98c.13-.17.19-.32.26-.47.08-.14.14-.31.2-.5.25-.71.41-1.55.53-2.4.24-1.7.32-3.49.36-5.27.07-3.58-.08-7.19-.25-10.81-.68-12.76-1.97-25.54-3.18-38.31-1.24-12.77-2.5-25.55-3.59-38.35-.97-11.35-1.89-22.78-2.53-34.08-.4-7.26-.67-14.55-.71-21.84-.04-7.29.15-14.6,1.12-21.83.62-4.5.58-3.88.64-.04.04,1.92.23,4.65.37,7.93.08,1.64.17,3.42.26,5.31.03,1.89.07,3.89.11,5.97.08,7.38.4,14.77.8,22.15.37,7.39.85,14.77,1.41,22.17,1.11,14.79,2.5,29.59,3.87,44.48.86,8.9,1.74,17.99,2.62,27.12.84,9.15,1.71,18.35,1.81,27.59,0,2.54-.03,5.09-.36,7.69-.18,1.3-.37,2.61-.95,4-.66,1.38-1.52,2.41-2.49,3.41-1.97,1.92-4.34,3.21-6.73,4.23-2.41,1-4.89,1.75-7.39,2.32-5.01,1.1-10.1,1.64-15.18,1.78-5.08.16-10.17-.05-15.21-.62-6.2-.72-12.41-1.86-18.32-4.19-.73-.31-1.46-.63-2.18-.97-.7-.39-1.44-.71-2.11-1.17l-1.03-.66-.97-.77c-.33-.24-.63-.55-.92-.86-.29-.31-.6-.58-.84-.99-1.01-1.52-1.43-3.1-1.77-4.66-.36-1.56-.56-3.13-.72-4.69-.49-4.73-.46-9.46-.35-14.17.14-4.71.44-9.41.84-14.1.82-9.37,2.02-18.67,3.44-27.88,2.21-14.32,4.84-28.29,8.05-42.25.7-3.08,1.41-6.08,2.18-9.17,2.92-11.43,4.23-14.97,5.61-17.19.31-.51.67-1.2.9-1.47.78-.94-.08,3.8-2.21,12.13-3.07,12.38-5.94,25.16-8.4,38.2-2.46,13.04-4.6,26.34-6.05,39.72-1.06,9.93-1.83,19.95-1.62,29.88.08,2.47.22,4.94.52,7.35.17,1.2.35,2.39.63,3.52.12.58.32,1.09.47,1.63.09.26.21.48.3.72l.15.36c.05.11.12.18.18.27.14.17.17.36.38.54l.54.55c.36.37.84.68,1.25,1.04.49.3.95.62,1.45.91l1.56.81c2.13,1.02,4.46,1.79,6.81,2.44v.07Z"/><path class="cls-2" d="m155.3,74.12s-8.75-9.41-16.52-6.44c-5.49,2.1-6.39,17.99-3.67,17.94,0,0-4.36,2.7-4.38-3.25-.03-10.31,7.06-17.36,7.06-17.36,0,0,6.75-1.2,10.61,1.26,3.85,2.46,6.9,7.86,6.9,7.86Z"/><path class="cls-2" d="m178.31,38.64c-7.76-1.13-16.02,7.05-16.02,7.05l-3.7-2.56s7.58-7.11,17.04-5.73c9.46,1.38,2.68,1.24,2.68,1.24Z"/><path class="cls-3" d="m132.11,33.56c-.09.82.53,7.72,3.77,10.11s10.3,6.94,17.1,6.81c6.8-.13,11.43-2.54,11.43-2.54,0,0-9.06-6.54-12.71-8.19-3.65-1.64-17.44-6.67-17.44-6.67l-2.15.47Z"/><path class="cls-2" d="m140.06,47.03c-.55-.4-1.05-.87-1.57-1.3-.5-.46-.99-.95-1.46-1.43-.33-.38-.7-.71-1.03-1.09-1.03-1.45-1.86-3.06-2.31-4.78-.08-.39-.19-.77-.24-1.15l-.1-1.17c-.02-.5.04-1,.11-1.5.12-.49.37-.94.57-1.38.14-.27.21-.2.3.09.08.29.26.79.29,1.29.04,1.78.56,3.34,1.27,4.99.45.98,1.24,1.82,2,2.64l.62.7.67.65c.44.45.93.84,1.42,1.25.6.5,1.24.94,1.89,1.38,1,.63,2.03,1.25,3.13,1.7.85.35,1.74.54,2.61.76.19.06.39.07.57.14.7.23.88.44.92.95,0,.12.03.24.02.35-.02.38-.4.6-1,.59-.91.04-1.77-.2-2.66-.41-.85-.3-1.71-.63-2.53-1.06-1.23-.6-2.38-1.36-3.5-2.15l.03-.04Z"/><path class="cls-2" d="m148.15,51.04c-2.12-.56-4.19-1.3-6.18-2.21-.72-.34-1.48-.63-2.17-1.04-2.46-1.4-4.72-3.28-6.35-5.66-.7-1.07-1.29-2.23-1.7-3.44-.52-1.55-.7-3.3-.06-4.82.23-.47.31-.37.59.06.33.45.75,1.17.91,1.94.47,2.76,1.77,5.16,3.83,7.31,1.22,1.3,2.9,2.21,4.56,3.03,1.83.91,3.77,1.64,5.77,2.2,1.23.34,2.48.64,3.74.85,1.91.32,3.86.54,5.79.49,1.5-.04,2.95-.32,4.36-.66.31-.08.61-.17.92-.25,1.14-.26,1.53-.18,1.98.4.1.13.22.25.3.37.26.4-.09,1.04-1,1.45-2.71,1.13-5.77,1.26-8.73,1.08-2.21-.14-4.41-.52-6.56-1.04v-.06Z"/><path class="cls-2" d="m127,31.39c6.91.32,13.59,2.15,19.86,4.7,2.3.92,4.55,1.92,6.75,3.04,3.85,2.01,7.54,4.29,11.09,6.72,3.57,2.42,7.02,5.01,10.33,7.77,2.93,2.45,5.84,4.99,8.49,7.72,3.38,3.5,6.75,7.19,8.89,11.64.7,1.36.41,1.28-.59.41-.51-.43-1.16-1.07-2.02-1.79-.85-.72-1.75-1.61-2.61-2.67-6.29-7.37-13.72-13.72-21.69-19.51-4.79-3.46-10.13-6.53-15.55-9.09-5.97-2.8-12.28-4.94-18.79-5.81-4-.53-8.07-.57-12.06.02-.77.08-1.36.27-1.98.53-.56.32-1.12.68-1.51,1.21-.85,1.01-1.25,2.43-1.35,3.85-.08,1.44.12,2.92.55,4.33.1.35.24.69.36,1.04l.46,1.03c.28.7.69,1.33,1.04,1.98,2.41,4.02,6.21,6.85,10.26,9.09.9.5,1.8.94,2.73,1.41,1.73.86,2.88,1.43,3.64,1.93.75.52,1.14.93,1.39,1.39.12.21.29.43.34.6.08.28-.28.33-1.02.23-.73-.11-1.83-.4-3.17-.97-3.96-1.65-8.05-3.7-11.61-6.8-1.78-1.54-3.39-3.35-4.69-5.41l-.91-1.58c-.28-.54-.52-1.1-.78-1.65-.5-1.14-.88-2.38-1.1-3.63-.3-1.87-.37-3.85.25-5.85.54-1.98,2.11-4.03,4.21-4.86l.77-.3.78-.19c.56-.15.92-.14,1.38-.22.87-.09,1.74-.25,2.61-.28,1.75-.14,3.5-.15,5.24-.1v.07Z"/><path class="cls-2" d="m148.53,65.59c1.79.92,3.41,2.13,4.83,3.51.71.69,1.38,1.41,1.99,2.18.31.38.61.77.89,1.17.1.14.05.07.07.11,0,.02.02.03.04.04l.41.22c3.18,1.55,6.66,2.8,10.1,4.02,2.53.87,5.08,1.66,7.62,2.47,2.75.89,5.52,1.73,8.3,2.48,1.39.37,2.78.72,4.17,1.01.69.14,1.38.27,2.05.35.32.03.67.08.94.07.16,0,.2,0,.27,0,.07-.01.14-.03.2-.07l2.21-1.44,2.26-1.52c1.5-1.03,2.97-2.08,4.41-3.16,1.33-1,2.62-2.05,3.8-3.17.58-.56,1.15-1.14,1.59-1.74.23-.3.41-.62.46-.75.07-.18.09-.4-.03-.57-.1-.19-.24-.28-.43-.42-.24-.11-.5-.23-.83-.26-1.04-.15-2.3.14-3.49.54-1.2.4-2.41.89-3.58,1.47-.59.28-1.17.59-1.74.9-.59.29-1.17.6-1.74.93-.58.32-1.14.66-1.7,1.01-.56.35-1.15.66-1.68,1.04-.68.46-.91.71-.95.66-.03-.05.15-.42.57-1.03.8-1.23,2.51-3.48,5.22-5.23,1.72-1.03,3.49-2.03,5.56-2.64,1.04-.29,2.15-.52,3.45-.45.65.05,1.36.16,2.08.53.18.08.35.18.52.31.18.15.43.29.57.47.33.34.6.73.85,1.14l.12.29c0,.11.06.2.08.3.09.19.08.41.09.62-.01.42-.08.84-.23,1.24-.37.91-.65,1.26-.98,1.71-.64.83-1.3,1.5-1.97,2.14-1.35,1.28-2.75,2.4-4.17,3.49-1.42,1.09-2.89,2.09-4.37,3.08l-2.24,1.45-2.36,1.47c-.16.1-.36.13-.53.22-.16.08-.34.1-.52.12-.17.02-.37.07-.51.06-.28,0-.55,0-.77-.03-.48-.04-.92-.11-1.36-.17-.87-.15-1.72-.32-2.55-.51-1.68-.37-3.33-.8-4.98-1.24-3.3-.89-6.59-1.86-9.81-2.93-3.54-1.18-7.04-2.48-10.51-3.91-.87-.36-1.73-.73-2.59-1.12l-1.29-.6-.64-.32-.75-.39-.24-.13c-.08-.05-.12-.14-.17-.21l-.3-.41-.39-.54-.84-1.03c-.59-.66-1.2-1.31-1.86-1.89-1.61-1.46-3.48-2.62-5.5-3.39-2.02-.76-4.2-1.1-6.38-1.04l-.89.05c-.09.04-.14.17-.22.25l-.31.41c-.48.68-.96,1.37-1.36,2.11-.86,1.45-1.59,2.98-2.2,4.56-.62,1.57-1.15,3.19-1.52,4.83-.36,1.63-.65,3.32-.53,4.88.04.29.04.61.13.85.04.12.06.27.11.37.05.08.1.17.14.26.23.33.62.48,1.13.53,1.04.08,2.29-.31,3.45-.76,2.35-.94,4.62-2.24,6.9-3.53,1-.58,1.99-1.15,3-1.74,3.8-2.13,5.29-2.54,6.44-2.19.26.08.59.14.75.26.53.41-.87,1.33-3.56,2.92-2.01,1.17-4.04,2.43-6.16,3.65-2.13,1.2-4.31,2.41-6.82,3.33-1.29.42-2.6.89-4.44.71-.23-.03-.48-.09-.72-.15-.25-.07-.51-.19-.75-.3-.25-.13-.49-.31-.72-.48-.21-.2-.42-.41-.6-.63-.31-.49-.6-1.07-.67-1.46-.05-.21-.12-.45-.15-.65l-.06-.58c-.19-3.01.44-5.51,1.16-8.06,1.13-3.73,2.75-7.31,5.12-10.54l.78-1.05c.14-.18.25-.42.51-.37l.69-.05,1.1-.07c.25-.02.51-.02.76-.01,1.02,0,2.04.06,3.05.23,2.02.31,4,.95,5.82,1.88l-.02.06Z"/><path class="cls-2" d="m171.59,36.25c1.96-.31,3.95-.58,6.17-.31.82.15,1.66.17,2.75.96.41.31.74.73.88,1.23.14.49.17,1.02.12,1.53-.06.51-.15.78-.25,1.14-.11.33-.22.65-.35.96-.51,1.22-1.12,2.31-1.75,3.38-.55.95-1.1,1.9-1.65,2.85-.74,1.17-1.39,2.47-2.79,3.18-.59.08-.44.1-.52-.43-.05-.27-.11-.64-.11-1.01,0-.19,0-.39.02-.59,0-.1.03-.19.03-.3.04-.08.07-.17.12-.25l.96-1.78,1.04-1.73c.68-1.16,1.36-2.32,1.98-3.48.19-.35.33-.7.45-1.06.05-.18.11-.36.14-.53.04-.16.06-.38.07-.43.01-.14,0-.28-.07-.4-.04-.06-.1-.1-.16-.13-.03-.02-.07-.04-.08-.05l-.13-.06c-.62-.22-1.47-.3-2.33-.29-.87.02-1.77.11-2.67.26-1.11.18-2.23.42-3.33.71-1.67.44-3.37.92-4.98,1.58-1.25.51-2.39,1.2-3.55,1.86-.25.14-.49.31-.75.45-.98.46-1.34.43-1.9-.11-.13-.12-.27-.23-.38-.36-.38-.43-.19-1.1.48-1.67,1.99-1.62,4.38-2.67,6.84-3.59,1.83-.69,3.74-1.2,5.7-1.59l.02.07Z"/><path class="cls-2" d="m209.08,192.49c-.14-2.1.47-4.02,1.34-5.69.91-1.66,2.16-3.07,3.59-4.21,1.05-.82,2.15-1.59,3.37-2.11.08-.03.06-.04.37-.15.21-.07.59-.11.88-.05.31.05.52.17.65.24.1.06.07.04.09.06l.03.02c.05.05.12.09.19.1.07.01.14,0,.23-.01.1-.02.29-.1.42-.17.29-.15.55-.37.84-.71.14-.16.3-.36.48-.59.23-.29.56-.65.92-.86.37-.21.81-.27,1.15-.35.28-.05.56-.09.84-.13.56-.07,1.14-.12,1.71-.13,1.15-.02,2.34.09,3.52.51.25.08.53.23.81.41.14.09.28.17.4.26l.34.35c.24.22.41.49.55.76.17.27.27.54.35.82.33,1.11.29,2.18.15,3.18-.2,1.28-.59,2.5-1.15,3.64-.62,1.11-1.44,2.13-2.49,2.88-.7.43-.64.23-.33-.35.14-.3.32-.71.45-1.24.15-.51.25-1.13.4-1.75.35-1.05.64-2.14.72-3.18.09-1.02-.04-2.08-.35-2.57-.09-.09-.14-.23-.23-.27-.06-.09-.17-.11-.26-.16-.24-.16-.75-.31-1.21-.4-.96-.18-2.07-.19-3.18-.08l-.5.06-.22.02c-.05,0-.1.04-.14.07-.05.04-.05.04-.18.2-.43.57-1.07,1.41-1.97,1.94-.76.48-2.29,1.02-3.4.33-.12-.09-.33-.14-.33-.26.1-.15.19-.31.26-.48.06-.12.07-.13.09-.2l.03-.1s0-.06,0-.02c0,.02,0,.03,0,.04,0,.03.02.09.03.13l.03.06h0s0,.02,0,.02c.56,1.24.15.34.28.62h0s-.01,0-.01,0l-.06.03-.23.11c-.3.16-.63.28-.92.46-2.62,1.42-4.82,3.87-5.46,6.74-.39,1.75-.02,3.58,1.21,4.73.94.87,2.27,1.4,3.69,1.68.71.14,1.45.23,2.21.3l.69.07c.13,0,.27.04.4.07l.2.04h.05s.03-.02.01.05h.02s.09.06.09.06c.45.24.86.75,1.08.98,1.6,1.76,3.33,3.24,5.2,4.42.4.27.84.46,1.25.71,1.55.84,1.99,1.12,2.15,1.98.04.19.11.4.12.58.01.31-.2.52-.63.61-.21.05-.48.07-.8.05-.3-.04-.65-.11-1.04-.22-2.24-.74-4.23-2.09-5.99-3.63-.87-.77-1.71-1.61-2.46-2.42l-.26-.29-.05-.04s0,0,0,0h-.03s-.4-.04-.4-.04l-.88-.1c-1.77-.24-3.73-.64-5.55-1.86-.9-.61-1.72-1.44-2.3-2.43-.57-.99-.86-2.08-.96-3.14h.07Z"/><path class="cls-1" d="m213.3,110.5s-.01,0-.03,0c-.08,0-.13-.01-.14-.04-.21-.63-.48-1.23-.77-1.82-.27-.6-.64-1.15-1.01-1.69-.38-.54-.78-1.05-1.2-1.54l-.32-.36c-.1-.12-.29-.19-.43-.28-.3-.17-.6-.33-.91-.49-.02-.01-.03-.03-.04-.06,0,0,0,0,0-.01-.07,0-.33.16-.54.33-.21.18-.42.4-.43.47h0s.04.03.05.06l.07.3c.07.3.13.6.17.9.07.28.23.5.33.75.23.49.44.99.62,1.49.18.51.33,1.01.52,1.51.17.5.3,1.01.44,1.51,0,.02-.03.05-.1.09-.01,0-.02.02-.02.02.01.04.86-.18,1.89-.48s1.85-.6,1.84-.65Z"/><path class="cls-1" d="m210.26,118.94s0,0,.02.01c.06.03.09.06.08.08-.14.27-.16.54-.19.82-.04.28-.09.56-.15.83-.11.56-.28,1.1-.42,1.65-.16.55-.35,1.1-.58,1.63-.23.53-.38,1.12-.63,1.67,0,.02-.04.03-.08.02,0,0-.02,0-.02,0-.02.05.34.36.8.7.46.34.86.59.91.55,0,0,0,0,0-.02-.02-.04-.01-.08,0-.09l.25-.23c.46-.47.96-.94,1.29-1.52.36-.56.69-1.14.98-1.75.31-.6.51-1.24.71-1.88.09-.32.18-.65.26-.98.08-.33.16-.66.1-1.01,0-.03.03-.05.1-.06.01,0,.02,0,.02-.01,0-.06-.78-.2-1.72-.3-.94-.11-1.72-.17-1.74-.12Z"/><path class="cls-1" d="m203.48,129.96s0,0,0,.01c.02.06.01.08-.02.08-.37-.11-.51.1-.72.23-.2.13-.41.26-.61.39l-.63.36c-.2.14-.41.27-.62.4-.42.27-.88.45-1.3.79-.44.29-.85.78-1.34,1.05-.02.01-.04,0-.06-.02,0,0-.01,0-.01,0-.04.03-.01.41.06.85s.16.81.21.83c0,0,0,0,.01,0,.02-.03.04-.04.06-.04l.3.06c.59.1,1.25.33,1.84.26.62.01,1.18-.19,1.78-.32.29-.08.58-.16.87-.26.28-.12.55-.24.82-.38.27-.13.54-.27.8-.42.26-.16.57-.24.65-.66,0-.03.04-.03.09,0,.01,0,.02,0,.02,0,.01-.07-.46-.82-1.03-1.66-.58-.83-1.1-1.54-1.17-1.57Z"/><path class="cls-1" d="m189.31,135.16s0,0,0,.02c.01.08,0,.12-.01.13-.5.11-.95.36-1.43.55-.48.18-.95.37-1.43.59-.48.2-.96.39-1.45.57l-.74.25c-.25.08-.48.25-.73.37-.02,0-.04,0-.06-.04,0,0-.01,0-.01,0-.04.02,0,.55.1,1.18.09.63.21,1.15.26,1.16,0,0,0,0,.01-.01.02-.04.03-.07.06-.06l.29.04.43.06.41-.03.83-.07c.55-.06,1.11-.13,1.66-.22.56-.07,1.1-.22,1.63-.38.53-.16,1.08-.3,1.57-.59.02,0,.05.02.1.08.01.01.02.02.02.02.04-.02-.26-.85-.67-1.84-.41-.99-.78-1.79-.82-1.78Z"/><path class="cls-1" d="m174.05,140.5s0,0-.01.02c-.01.08-.03.12-.06.13-.72.1-1.41.37-2.08.63-.67.27-1.32.59-1.94.94-.62.37-1.18.83-1.71,1.29-.5.52-.97,1.06-1.38,1.63-.02.02-.04.03-.08.03,0,0-.01,0-.02,0-.03.05.16.34.43.65s.53.54.57.53c0,0,0,0,0-.01,0-.03.01-.06.04-.07l.28-.13c.55-.26,1.14-.45,1.68-.66.53-.23,1.1-.37,1.63-.59.53-.2,1.07-.37,1.62-.5.54-.14,1.1-.2,1.63-.35.02,0,.05.03.08.1,0,.01.02.02.02.02.04-.01-.07-.84-.26-1.85s-.38-1.82-.44-1.81Z"/><path class="cls-1" d="m154.98,160.72s0,0-.02-.02c-.07-.04-.09-.07-.08-.09.31-.47.37-1.01.58-1.51.18-.51.44-.98.59-1.51.18-.52.39-1.03.63-1.53.2-.53.43-1.05.68-1.56,0-.02.04-.02.09,0,.01,0,.02,0,.02,0,.02-.04-.39-.42-.91-.85-.52-.43-.97-.75-1.02-.72,0,0,0,0,0,.02.02.05.02.08,0,.1l-.24.21c-.47.42-.94.85-1.35,1.33-.4.49-.77,1-1.12,1.54-.37.53-.58,1.13-.84,1.71-.22.6-.51,1.18-.53,1.83,0,.02-.04.04-.12.04-.02,0-.02,0-.03,0,0,.05.81.32,1.81.59,1,.27,1.83.46,1.85.42Z"/><path class="cls-1" d="m152.67,171.32s0,0-.02,0c-.07-.01-.11-.02-.1-.04.06-.46-.1-.91-.12-1.37-.05-.46-.05-.93-.06-1.4-.02-.47,0-.95.04-1.44.08-.47.02-.99.07-1.51,0-.02.02-.03.05-.04,0,0,0,0,0,0,0-.04-.29-.2-.64-.34-.35-.15-.67-.24-.7-.21,0,0,0,0,0,.01.01.03.02.05,0,.07l-.17.22c-.16.22-.32.45-.48.68-.14.24-.24.49-.35.74-.21.51-.39,1.03-.55,1.57-.13.54-.22,1.09-.28,1.65-.04.55-.15,1.13.01,1.68,0,.02-.03.05-.09.07-.01,0-.02.02-.02.02,0,.05.77,0,1.71-.1.93-.1,1.69-.22,1.69-.25Z"/><path class="cls-1" d="m157.52,183.98s0,0-.02,0c-.05.04-.08.05-.1.03-.47-.4-.82-.91-1.27-1.29-.46-.38-.88-.81-1.27-1.27-.38-.47-.83-.91-1.19-1.43-.4-.5-.74-1.04-1.26-1.59-.02-.02-.02-.04-.02-.07,0,0,0-.01,0-.01-.04-.04-.3-.03-.57.03-.27.06-.5.16-.52.23,0,0,0,.01,0,.02.02.02.02.05.02.08l-.06.39c-.01.19-.05.39-.04.58l.07.56c.06.37.12.75.25,1.1.25.7.5,1.45.95,2.06.42.63.91,1.23,1.44,1.78.55.54,1.28.87,1.97,1.2.03.01.04.05.03.11,0,.01,0,.02,0,.02.06.03.45-.52.87-1.21.42-.69.73-1.29.7-1.32Z"/><path class="cls-1" d="m167.1,187.66s0,0,0,.02c-.01.06-.03.09-.05.1-.6.05-1.17.18-1.75.26-.57.12-1.14.2-1.7.24-.56.05-1.1,0-1.66,0-.57,0-1.09-.15-1.69-.27-.02,0-.04-.02-.05-.04,0,0-.01,0-.01,0-.05,0-.22.2-.38.45-.16.25-.26.49-.22.54,0,0,0,0,.01,0,.03,0,.06,0,.07.03.08.08.16.17.24.25.53.41,1.14.76,1.78,1.02.65.27,1.33.34,1.99.42.67.06,1.32.09,1.97.06.64-.06,1.28-.11,1.89-.3.02,0,.05.02.09.07,0,.01.01.02.02.01.05-.01-.03-.66-.19-1.45-.16-.79-.32-1.42-.37-1.42Z"/><path class="cls-1" d="m169.25,181.68s0,0,.02,0c.07,0,.11,0,.11.01-.01.22.05.41.1.6.05.2.07.4.11.61.11.41.17.84.17,1.29,0,.22-.01.45-.04.67-.03.22.02.48,0,.72-.02.5-.11,1.01-.28,1.52,0,.02-.02.03-.05.03,0,0,0,0,0,0,0,.04.18.24.43.45.25.21.48.35.53.32,0,0,0,0,0-.01,0-.03,0-.05.03-.07l.25-.18c.49-.38.93-.84,1.33-1.36.44-.51.61-1.14.8-1.77.17-.63.27-1.29.29-1.97-.03-.34-.07-.67-.13-1-.06-.33-.14-.67-.33-.96-.01-.02.01-.06.07-.11.01,0,.02-.02.01-.02-.03-.05-.81.19-1.73.53-.46.18-.88.34-1.18.46-.3.12-.49.21-.49.23Z"/><path class="cls-1" d="m160.15,174.95s0,0,0-.02c.02-.08.04-.12.05-.11.21.12.45.05.7.09.25.02.52.07.79.14.55.13,1.16.31,1.76.57.6.26,1.21.58,1.81.93.61.34,1.23.7,1.84,1.09.02.01.03.04.04.07,0,0,0,.01,0,.02.05.03.31-.17.58-.45s.46-.54.43-.59c0,0,0,0-.02,0-.04,0-.06-.01-.08-.04l-.21-.3c-.42-.58-.83-1.18-1.32-1.73-.49-.55-1.01-1.09-1.59-1.6-.59-.5-1.22-1.01-1.98-1.39-.39-.18-.79-.35-1.22-.49-.43-.12-.89-.29-1.38-.19-.04,0-.07-.04-.11-.12,0-.02-.01-.03-.02-.02-.09.02-.15.96-.15,2.06,0,.56.02,1.07.02,1.44.01.37.02.62.04.63Z"/><path class="cls-1" d="m134.34,181.91s0,0,0-.02c-.01-.07,0-.1.02-.11.6-.24,1.14-.59,1.71-.89.58-.28,1.1-.66,1.65-1l.82-.52.8-.57c.53-.4,1.12-.66,1.55-1.3.02-.02.04-.03.07-.02,0,0,.01,0,.01,0,.03-.05-.04-.33-.17-.62-.13-.29-.28-.53-.34-.54,0,0-.01,0-.01,0-.02.02-.04.03-.07.03h-.36c-.37-.06-.66.07-.98.14l-.94.27c-.63.16-1.24.4-1.83.65-.6.24-1.2.49-1.75.83-.56.32-1.13.62-1.64,1.03-.02.01-.06,0-.11-.04-.01,0-.02-.01-.02,0-.04.03.28.66.71,1.39.44.73.83,1.31.88,1.29Z"/><path class="cls-1" d="m124.92,190.01s0-.01-.01-.02c-.05-.06-.07-.1-.06-.11.4-.39.67-.87,1-1.31l1.04-1.3c.36-.43.74-.85,1.15-1.24.41-.39.73-.95,1.12-1.47.01-.02.04-.02.06-.02,0,0,.01,0,.01,0,.03-.05-.1-.37-.28-.72s-.38-.63-.44-.63c0,0,0,0-.01,0-.01.03-.03.05-.06.05l-.34.04c-.67.09-1.37.23-1.91.6-.57.33-1.12.7-1.65,1.1-.55.39-1.01.87-1.46,1.36-.45.49-.89,1.01-1.16,1.63-.01.02-.06.02-.13,0-.02,0-.03,0-.03,0-.03.05.66.54,1.53,1.08.87.55,1.6.96,1.63.93Z"/><path class="cls-1" d="m118.63,203.25s0-.01-.02-.02c-.07-.04-.09-.07-.09-.1l.13-.49.06-.51.15-1.02c.11-.68.25-1.36.41-2.03.16-.68.35-1.34.55-2.01.14-.7.36-1.36.43-2.12,0-.03.02-.05.05-.06,0,0,0,0,0-.01,0-.06-.21-.23-.49-.37s-.53-.22-.58-.18c0,0,0,0,0,.02,0,.03,0,.06-.03.08l-.26.27c-.27.26-.47.56-.68.85-.2.3-.43.59-.59.91-.34.63-.65,1.28-.95,1.94-.3.66-.57,1.33-.83,2.01l-.36,1.03-.17.52-.08.54s-.04.05-.12.06c-.02,0-.02,0-.03.01,0,.06.76.26,1.72.45.96.19,1.75.3,1.76.24Z"/><path class="cls-1" d="m118.38,215.09s0,0-.02,0c-.07,0-.11-.01-.12-.04-.13-.54-.21-1.09-.28-1.64-.17-.54-.31-1.09-.42-1.66-.1-.57-.17-1.15-.21-1.73-.03-.59-.11-1.2-.1-1.81,0-.02.01-.04.04-.06,0,0,0-.01,0-.01,0-.05-.26-.16-.57-.24-.31-.08-.59-.11-.61-.07,0,0,0,0,0,.01.01.03.01.05,0,.08l-.15.29c-.27.57-.55,1.17-.7,1.8-.17.62-.29,1.26-.39,1.91-.09.65-.16,1.31-.14,1.98.1.65.24,1.3.41,1.94,0,.02-.02.06-.08.1-.01,0-.02.02-.02.02.02.05.77-.1,1.69-.35s1.66-.48,1.65-.53Z"/><path class="cls-1" d="m121.99,224.99s0,0-.02,0c-.07.01-.11,0-.12,0-.31-.69-.58-1.39-.81-2.11-.32-.7-.61-1.43-.86-2.17,0-.01.01-.03.04-.05,0,0,0-.01,0-.01-.01-.03-.44,0-.96.06-.52.06-.94.14-.95.18,0,0,0,0,.01,0,.04.01.06.03.06.04v.21c-.05.81-.06,1.64,0,2.46.12.81.29,1.61.49,2.41,0,.01-.03.04-.09.08-.01,0-.02.02-.02.02,0,.03.73-.19,1.62-.5.44-.16.84-.3,1.13-.41.29-.11.46-.18.45-.2Z"/><path class="cls-1" d="m206.59,98.58s0-.01-.02-.01c-.06-.02-.09-.05-.09-.08-.08-.81-.29-1.58-.64-2.26-.3-.7-.78-1.29-1.21-1.86-.23-.28-.45-.55-.69-.82-.25-.25-.55-.46-.82-.68-.56-.43-1.14-.82-1.72-1.21-.02-.01-.03-.04-.04-.06,0,0,0-.01,0-.01-.05-.03-.25.09-.46.27-.2.18-.35.37-.33.42h.01s.05.04.06.06l.15.3.85,1.76c.24.6.6,1.09.89,1.61.3.52.53,1.05.79,1.53.22.5.48.97.65,1.46,0,.02-.01.04-.06.07-.01,0-.01.01-.01.01.02.04.63-.03,1.37-.16.74-.12,1.33-.28,1.33-.35Z"/><path class="cls-2" d="m331.12,122.1c-3.35-.07-6.77-.55-10.02-1.73-.8-.34-1.61-.6-2.39-1.01-.39-.21-.79-.4-1.17-.63l-1.12-.72c-1.44-1.02-2.73-2.24-3.83-3.63-.82-.99-1.48-2.11-2.08-3.26-.53-1.19-1.01-2.41-1.2-3.73-.42-2.29-.11-4.77.9-6.91,1-2.06,2.38-3.86,4.12-5.32,3.51-2.92,8.09-4,12.37-3.85,3.83.12,7.59,1.05,11.04,2.55,2.21.98,4.31,2.23,6.2,3.79.94.78,1.79,1.67,2.56,2.63l.56.73.5.77c.18.24.29.55.41.83.11.29.26.56.34.85.43,1.48.25,1.28-.66.39-1.03-.84-2.74-2.19-4.73-3.69-1.72-1.4-3.67-2.53-5.71-3.45-2.03-.93-4.17-1.66-6.36-2.11-4.35-.9-9.01-.72-12.83,1.34-2.26,1.22-4.16,3.3-5.27,5.72-1.09,2.3-.9,5.09.09,7.54,1.07,2.72,3.11,5.11,5.62,6.72.62.43,1.28.76,1.96,1.09.71.28,1.42.59,2.14.84.74.2,1.47.46,2.23.62.76.14,1.52.33,2.29.42,3.82.53,7.75.36,11.69-.03,2.05-.19,4.12-.44,6.22-.58.52-.05,1.05-.07,1.59-.08.53-.02,1.06-.04,1.6-.01.54.01,1.07.02,1.62.11l.42.05c.18.03.35.03.53.07.36.07.71.18,1.06.27l.81.38c.25.14.4.47.43.76.06.58-.13,1.21-.38,1.83l-.6,1.46c-.17.42-.32.84-.44,1.26-.31,1.03-.42,2.07-.18,2.98.12.45.32.87.59,1.26.12.19.32.38.48.57.16.19.34.38.54.54.76.7,1.67,1.25,2.63,1.7.96.47,1.98.82,3.03,1.1.92.26,1.86.4,2.81.57,1.78.27,2.96.34,3.78.49.83.15,1.32.37,1.74.71.19.16.46.31.59.47.47.5-1.11,1.37-4.07,1.33-2.12-.05-4.26-.35-6.38-.98-2.1-.66-4.26-1.59-6.09-3.3-.47-.4-.87-.91-1.29-1.41-.43-.57-.77-1.24-.99-1.94-.45-1.42-.36-2.88-.08-4.11.14-.62.33-1.21.53-1.76l.31-.8.27-.65s0,0,0,0h0s0,0-.02,0h-.14s-.51-.07-.51-.07c-.34-.04-.73-.02-1.09-.04-.72-.04-1.51.04-2.27.06-1.56.11-3.14.27-4.76.45-3.23.34-6.55.68-9.94.64v-.07Z"/><path class="cls-2" d="m395.82,150.97c3.16-2.23,6.01-4.89,7.81-8.12.28-.6.61-1.2.78-1.84.1-.32.22-.63.3-.95l.22-.97c.18-.56.16-1.15.26-1.73.07-.58,0-1.17.02-1.76-.03-.59-.15-1.18-.22-1.77-.12-.57-.27-1.13-.45-1.69-.81-2.19-2.33-4.17-4.25-5.68-1.72-1.34-3.75-2.31-5.85-2.88-2.73-.73-5.51-.73-8.33-.59-.89.02-.89-.29-.23-.91.33-.3.83-.77,1.51-1.05.67-.32,1.51-.66,2.44-.64,1.63,0,3.27.15,4.84.55,1.59.36,3.12.96,4.58,1.71,1.47.74,2.79,1.76,4,2.88,1.16,1.19,2.21,2.51,2.96,4.03.42.91.83,1.84,1.08,2.84.07.25.15.49.2.74l.12.74c.07.5.19.98.22,1.49.2,2.01-.02,4.08-.6,6-.66,2.12-1.75,4.05-3.08,5.73-1.32,1.69-2.85,3.17-4.47,4.5-1.99,1.64-4.13,3.05-6.3,4.36-1.64.96-3.16,1.94-4.56,3.13-1.38,1.19-2.63,2.54-3.42,4.07-.62,1.18-.87,2.48-.59,3.63.25,1.15,1.02,2.14,2.01,2.95.21.18.44.35.68.5.23.16.47.31.73.47,1.86,1.13,2.52,1.49,2.66,2.41.04.2.11.43.1.61,0,.61-1.12.75-2.85.02-1.27-.56-2.55-1.27-3.69-2.35-1.13-1.06-2.16-2.56-2.47-4.38-.3-1.81.15-3.61.88-5.06.73-1.47,1.69-2.7,2.74-3.78,1.57-1.6,3.32-2.91,5.17-4.04,1.78-1.06,3.41-2.07,5-3.23l.05.06Z"/><path class="cls-2" d="m232.28,218.29c-1.03-1.05-1.96-2.17-2.81-3.34-.31-.42-.66-.82-.95-1.26-.95-1.57-1.93-3.13-2.41-5.13-.09-.45-.17-.95-.04-1.56.12-.59.52-1.09,1.05-1.37.17-.09.36-.15.54-.21.17-.03.35-.07.51-.09.31-.04.6-.04.89-.02l.42.05c.14.04.26.1.39.15.13.06.25.11.38.18.12.07.23.19.34.28.27.26.2.32-.12.58-.33.28-.92.83-1.38.91-.4,0-.85.11-.81.11,0,0-.03-.02-.06,0-.04.04,0,.5.1.88.1.41.25.85.42,1.3.4,1.08,1.23,2.07,1.94,3.06.78,1.09,1.63,2.13,2.56,3.1.57.59,1.17,1.17,1.82,1.68.97.78,2,1.52,3.13,2.05.87.42,1.82.6,2.74.8.21.04.41.05.61.1.75.18.94.4.94,1.11,0,.16.02.32,0,.48-.04.53-.47.87-1.13.87-1.94-.05-3.86-.85-5.58-1.89-1.28-.79-2.44-1.75-3.52-2.77l.04-.05Z"/><path class="cls-2" d="m262.86,203.33s.03,0-.1,0c-.1,0-.19-.01-.31,0-.24,0-.48.02-.72.05-.47.06-.92.19-1.35.37-.84.37-1.57.99-2.13,1.81-.6.88-1.09,1.9-1.61,3-.53,1.08-1.13,2.34-2.25,3.38-.42.36-.87.7-1.37.93-.49.25-1.06.42-1.48.5-.91.22-1.83.39-2.77.46-1.65.13-3.36,0-4.98-.46-1.62-.45-3.12-1.21-4.46-2.09-1.35-.89-2.58-1.88-3.77-2.89l-.88-.77c-.16-.15-.27-.22-.37-.3-.13-.08-.26-.16-.41-.23-.29-.15-.62-.27-.95-.37-.26-.08-.37-.1-.58-.13-.2-.02-.44-.05-.6.09-.09.07-.06.2-.02.29l.11.29c.08.22.15.35.38.84.21.4.42.8.65,1.18.46.77.98,1.5,1.55,2.19,1.07,1.29,2.33,2.41,3.69,3.39.68.5,1.4.94,2.12,1.38.74.41,1.48.82,2.23,1.26.93.54.73.74-.29.78-1.03.09-2.89-.16-4.73-1.29-1.73-1.07-3.35-2.39-4.66-3.99-.65-.8-1.26-1.65-1.77-2.54-.27-.44-.49-.91-.73-1.36l-.39-.85c-.19-.43-.34-.86-.51-1.29l-.05-.94c0-.08-.02-.16,0-.23l.06-.19c.04-.13.12-.28.22-.4.39-.53.97-.74,1.67-.81.68-.08,1.57.11,2.2.28.47.14.92.31,1.39.55.23.11.46.26.71.43.28.21.41.33.56.47l.92.81c.62.54,1.24,1.06,1.87,1.56,1.63,1.29,3.43,2.37,5.4,2.87,1.96.53,4.05.42,6.09.01l.83-.18c.29-.06.46-.14.69-.23.44-.18.8-.46,1.14-.82.67-.7,1.16-1.75,1.68-2.84.52-1.1,1.06-2.24,1.86-3.34.82-1.09,1.97-1.99,3.28-2.46.8-.29,1.65-.43,2.47-.44.21,0,.44,0,.66.01.28.03.57.04.83.1.54.1,1.03.25,1.38.62.71.84.24,1.99-.32,2.91-.46.74-.88,1.3-1.33,1.92-.66.91-1.32,1.81-1.79,2.72-.23.48-.38.86-.41,1.35-.05.48-.02.97.09,1.46.2.99.68,1.95,1.25,2.85.29.45.61.89.95,1.33l.52.68.48.67c1.04,1.24,2.37,2.34,3.71,3.35,1.35,1,2.77,1.92,4.22,2.75.64.36,1.29.68,1.94,1,1.22.6,2.02.92,2.56,1.21.27.13.48.27.65.43.17.14.3.28.42.47.11.16.27.34.34.49.11.27-.12.46-.72.54-.59.09-1.49-.03-2.55-.38-3.1-1.09-5.88-2.82-8.53-4.83-1.32-1.03-2.58-2.09-3.79-3.52-.15-.19-.31-.42-.46-.63l-.11-.16-.16-.21-.77-1c-.52-.71-1.01-1.47-1.43-2.31-.61-1.24-1.08-2.72-.95-4.35.05-.39.09-.81.24-1.24.13-.41.29-.75.45-1.08.33-.64.69-1.2,1.05-1.73l1.08-1.51c.34-.46.72-1,.94-1.36.11-.13.08-.15,0-.17l.02-.06Z"/><path class="cls-2" d="m272.96,236.42c-1.74,1.36-3.57,2.6-5.53,3.65-.71.38-1.42.8-2.18,1.11-1.35.52-2.78.92-4.31,1.04-.77.03-1.56.03-2.37-.2-.8-.22-1.59-.65-2.17-1.29-.53-.56-.83-1.29-.97-1.99-.15-.7-.15-1.4-.04-2.06.26-1.65.97-3.35,2.58-4.2.54-.22.49.03.32.45-.19.43-.26,1.18-.49,1.89-.49,1.22-.58,2.69-.18,3.58.11.21.22.4.36.55.13.16.27.32.45.45.36.26.9.43,1.53.5,1.57.16,3.35-.66,4.97-1.43,1.82-.87,3.57-1.97,5.22-3.22,1.01-.77,2-1.59,2.92-2.47,1.4-1.34,2.74-2.77,3.84-4.35.86-1.23,1.47-2.57,2.06-3.9.12-.29.24-.59.37-.88.52-1.07.85-1.33,1.58-1.32.17,0,.34-.02.49,0,.52.07.73.71.56,1.69-.64,2.84-2.32,5.44-4.22,7.75-1.43,1.72-3.05,3.26-4.75,4.7l-.05-.05Z"/><path class="cls-2" d="m216.71,179.71c.12-.63.4-1.48.52-1.79.15-.4.31-.77.49-1.14.35-.74.76-1.46,1.26-2.16.37-.5.73-1.05,1.29-1.5.9-.68,1.95-1.25,3.15-1.43,1.2-.17,2.43.11,3.41.65.88.47,1.62,1.08,2.24,1.77.81.85,1.44,1.89,1.56,3.08.04.37-.1.37-.48.24-.37-.14-1.1-.31-1.52-.69-.42-.31-.76-.66-1.11-.96-.35-.32-.73-.55-1.06-.8-.68-.52-1.35-.82-2.11-.91-.92-.15-2.02.59-2.76,1.3-.86.86-1.58,2.17-2.08,3.44l-.15.38c-.04.1-.08.21-.11.33-.07.23-.12.48-.12.73,0,.19.08.42.27.45.18.04.36-.04.52-.11.33-.17.64-.43.91-.72.67-.72,1.2-1.65,1.62-2.52.09-.19.15-.4.24-.58.31-.7.44-.76,1.16-.78l.45-.04c.24-.01.44.08.61.33.18.25.19.61.11,1-.27,1.14-.79,2.1-1.43,2.99-.33.45-.66.86-1.08,1.29-.69.72-1.49,1.35-2.26,1.74-.57.28-1.1.4-1.59.37-.47-.02-1.04-.24-1.42-.64-.71-.71-.84-1.86-.59-3.27h.07Z"/><path class="cls-2" d="m212.01,180.04c-.69.77-1.28,1.73-1.44,2.57-.08.3-.03.55,0,.72.14.31.27.6.85.39.55-.18,1.16-.65,1.68-1.16.48-.45.88-1,1.26-1.55.49-.71.83-1.5,1.45-2.14.18-.2.37-.09.51.24.07.16.13.39.16.64.04.26.02.53-.11.76-.42.84-.91,1.65-1.5,2.41-.59.76-1.29,1.46-2.26,2-.57.28-1.33.65-2.26.4-.2-.08-.45-.15-.62-.28-.17-.12-.33-.26-.49-.4-.29-.33-.5-.73-.59-1.11-.2-.86-.03-1.61.21-2.27.24-.66.57-1.25.95-1.81.46-.68,1.01-1.28,1.59-1.83.89-.84,1.95-1.5,3.1-1.98.89-.37,1.86-.69,2.91-.65.23,0,.46.01.69.05.85.19,1.03.5.92,1.09-.03.14-.04.27-.09.4-.16.44-.57.64-.99.63-.65,0-1.21.07-1.79.23-.57.15-1.16.37-1.74.69-.86.49-1.69,1.16-2.36,1.97l-.04-.03Z"/><path class="cls-2" d="m289,267.61c4.78.63,9.61,1.14,14.44,1.64,1.77.18,3.54.28,5.31.48,3.11.37,6.23.79,9.34,1.3,3.11.52,6.22,1.1,9.3,2.01,1.36.41,2.73.87,4.06,1.5,1.31.64,2.7,1.47,3.58,2.9.51.82.92,1.73,1.15,2.71.22.97.3,2.05-.01,3.06-.29,1.01-.88,1.93-1.65,2.57-.77.64-1.65,1.05-2.53,1.35-1.12.31-.99.08-.28-.57.35-.33.81-.83,1.21-1.45.09-.16.18-.32.28-.49.09-.17.13-.36.23-.51.08-.17.13-.35.2-.51.05-.17.1-.34.15-.52.07-.31.09-.63.09-.94.01-.32-.01-.64-.07-.97-.12-.66-.4-1.33-.77-1.96l-.3-.47c-.1-.1-.16-.21-.27-.32-.21-.21-.46-.42-.75-.62-.57-.41-1.27-.78-2.01-1.11-3.04-1.28-6.58-2-10.08-2.71-4.22-.83-8.74-1.09-13.15-1.52-4.86-.48-9.74-.93-14.62-1.48-3-.34-6.01-.72-9.01-1.18-2.27-.35-4.55-.78-6.8-1.33-2.25-.57-4.5-1.21-6.66-2.29-.79-.41-1.58-.87-2.3-1.48-.37-.32-.69-.62-1.03-1.07-.37-.49-.64-1.03-.85-1.6-.26-.65.08-1.25.49-1.8l.97-1.29,1.63-2.16c.45-.61.85-1.22,1.29-1.83,1.58-2.27,2.09-2.87,3.11-3.04.23-.04.47-.13.67-.13.68-.05.74,1.41-.34,3.38-.79,1.45-1.7,2.8-2.66,4.13-.48.66-.97,1.31-1.46,1.94l-.36.47v.05s-.02.05,0,.07c.02.02.04.03.06.04,0,0,0,0,.01.01l.07.07.13.14c.07.1.2.18.3.28.43.37.99.73,1.6,1.05,1.25.63,2.68,1.15,4.18,1.56,4.47,1.24,9.31,1.95,14.12,2.54v.08Z"/><path class="cls-2" d="m331.38,237.89s-.82,1.99,1.59,2.37c1.07.17-6.05.77-4.76-.21,1.28-.97,3.18-2.16,3.18-2.16Z"/><path class="cls-2" d="m263.74,232.61s-4.67,5.02-3.73,7.03c.94,2.01,11.43-3.22,11.43-3.22l-7.7-3.81Z"/><path class="cls-2" d="m273.26,225.75s7.37-2.36,7.93-1.04c.92,2.15-3.67,4.51-3.67,4.51l-4.26-3.47Z"/><path class="cls-2" d="m325.23,128.8c-1.02,1.19-1.76,2.64-2.15,4.17s-.44,3.22.41,4.59c.32.52,1,.72,1.54.4s.73-1.02.4-1.54c-.08-.13-.15-.26-.21-.39.11.23-.03-.12-.05-.2-.04-.13-.06-.27-.09-.41.03.16,0,.09,0-.03,0-.06,0-.13-.01-.19-.01-.32,0-.63.04-.95-.03.22.04-.19.05-.27.03-.17.07-.35.12-.52.08-.31.18-.62.3-.92.03-.08.06-.17.1-.25-.05.11-.02.04.01-.03.07-.16.15-.32.23-.48.14-.27.29-.54.46-.8.09-.14.18-.27.28-.4.07-.09.06-.07,0,0,.06-.07.11-.14.17-.21.39-.46.45-1.14,0-1.59-.4-.4-1.19-.46-1.59,0h0Z"/><path class="cls-2" d="m334.07,134.42c-1.96,2.11-4,5.76-1.64,8.32,1.79,1.94,4.97,1.59,7.21.75,1.23-.46,2.49-1.09,3.4-2.06.99-1.06-.6-2.65-1.59-1.59-.13.14-.26.26-.4.38-.04.04-.09.07-.13.11,0,0,.16-.12.05-.04s-.2.14-.3.21c-.41.27-.84.5-1.29.7,0,0-.17.07-.06.03.12-.05-.09.04-.12.05-.12.05-.24.09-.36.13-.24.09-.49.16-.74.23s-.5.13-.75.17c-.07.01-.14.02-.22.04,0,0-.19.03-.07.01.13-.02-.09.01-.12.01-.07,0-.14.01-.21.02-.25.02-.49.03-.74.02-.12,0-.24-.02-.36-.02-.04,0-.22-.03,0,0-.07,0-.13-.02-.2-.03-.22-.04-.44-.11-.66-.18-.18-.06.11.07-.12-.06-.11-.06-.22-.12-.32-.19-.21-.13.02.05-.11-.08-.08-.08-.16-.15-.23-.23-.16-.18,0,.04-.09-.12-.03-.06-.19-.32-.15-.24-.2-.45-.17-.91-.07-1.35.3-1.29,1.11-2.46,1.98-3.39.99-1.06-.6-2.65-1.59-1.59h0Z"/><path class="cls-2" d="m353.45,136.01c-1.28-4.24-4.86-7.66-9.19-8.67-.7-.16-1.52.22-1.69.96-.16.7.21,1.52.96,1.69.46.11.92.24,1.37.41.11.04.22.09.33.13-.28-.12.08.04.11.05.22.1.43.21.64.32.4.22.79.46,1.16.73.03.02.32.24.2.14s.16.13.19.15c.18.15.36.31.54.47.33.31.65.64.94.99.08.09.15.18.23.28-.19-.23.06.08.07.1.14.19.27.39.4.59.25.4.48.82.69,1.25.03.06.17.38.05.11.04.09.07.18.11.28.09.24.17.49.25.73.21.69.97,1.19,1.69.96s1.18-.95.96-1.69h0Z"/><path class="cls-2" d="m329.09,126.6c.51-.2,1.03-.33,1.57-.44.16-.02.14-.02-.04,0,.07,0,.14-.02.22-.02.14-.01.29-.02.44-.03.25-.01.51,0,.76,0,.15,0,.29.02.44.04.36.04-.29-.06.07.01.29.06.57.11.85.19.25.07.48.16.72.25.14.06.13.05-.03-.01.07.03.13.06.2.09.13.06.26.13.39.2.63.35,1.53.17,1.88-.49s.18-1.51-.49-1.88c-2.32-1.28-5.22-1.54-7.7-.55-.67.26-1.21.93-.96,1.69.21.65.98,1.24,1.69.96h0Z"/><path class="cls-2" d="m323.61,156.53c.78,1.34,2.4,1.8,3.84,1.9,1.36.1,2.92-.13,4.09-.87.55-.35.82-1.13.45-1.71s-1.12-.82-1.71-.45c-.1.07-.21.13-.32.18-.09.04-.29.1.06-.02-.05.02-.1.04-.16.06-.25.09-.52.17-.78.22-.14.03-.3.04-.44.08.1-.03.27-.03.07-.01-.08,0-.15.01-.23.02-.29.02-.59.02-.88.01-.14,0-.28-.02-.42-.03-.13,0,.32.05.04,0-.06-.01-.12-.02-.18-.03-.27-.05-.54-.19-.81-.23.07.01.27.13.09.03-.06-.03-.12-.06-.17-.09-.05-.03-.25-.19-.29-.18.09-.02.23.21.07.05-.04-.04-.08-.08-.12-.12-.15-.14.05-.09.05.08,0-.03-.07-.12-.09-.14-.33-.57-1.14-.81-1.71-.45s-.8,1.1-.45,1.71h0Z"/><path class="cls-2" d="m302.66,80.71c.27.06.33.36.3.77-.01.13-.2.42-.29.42-.18.01-.35.02-.52.02-.1-.01-1.47-.49-1.96-.62-.47-.12-.88-.35-1.3-.56l-2.53-1.31c-.19-.1-.36-.22-.52-.36-.54-.49-1.16-.86-1.83-1.16-.11-.05-.21-.12-.36-.1-.25.04-1.98-.88-2.16-1.07-.45-.47-.92-.91-1.37-1.37-.06-.07-.17-.08-.17-.23,0-.36-.19-.41-.35-.53-.21-.17-.42-.35-.6-.57-.09-.11-.1-.33-.14-.52-.03-.17.28-.54.34-.56.18-.06.22-.3.31-.48.03-.06.07-.13.11-.18.08-.1,1.8.07,1.94.17.04.02,2.02,1.06,2.28,1.2.13.05.2.19.29.3.04.05,1.65.91,1.7.96.29.24.65.38.83.79.04.08.11.11.17.15.55.34,1.03.79,1.53,1.21.26.21.54.38.81.57.05.03.08.09.12.14.05.06.1.12.16.16.65.43,1.24.96,1.92,1.35.15.1.73.79.91.89.1.06.26.51.37.53Z"/><path class="cls-2" d="m312.49,74.38c.21.19-.07.44-.62.75-.17.1-.74.22-.83.17-.19-.09-.38-.19-.52-.29-.09-.06-.73-1.28-.93-1.7-.21-.41-.32-.83-.4-1.27-.16-.88-.34-1.76-.47-2.64-.03-.2-.03-.4.02-.6.13-.69.08-1.37-.03-2.04-.02-.11,0-.23-.12-.33-.2-.17-.29-2.03-.2-2.27.2-.6.33-1.19.52-1.77.02-.08-.01-.18.12-.25.32-.16.27-.35.3-.53.04-.25.11-.5.22-.74.06-.12.25-.23.4-.34.14-.1.61,0,.66.04.14.12.37.05.57.05.07,0,.15,0,.21.01.12.03.83,1.44.81,1.58,0,0,0,.14.02.34.02.19.04.45.06.72.05.53.11,1.08.14,1.19.03.12-.04.24-.09.35-.03.06.24,1.63.24,1.69-.03.33.1.65-.14.99-.05.07-.03.13-.02.2.08.56.02,1.13,0,1.7,0,.29.06.57.09.86,0,.05-.03.11-.04.16-.01.07-.04.14-.03.2.11.68.07,1.38.3,2.04.04.15-.1.95-.04,1.13.03.1-.32.52-.23.59Z"/><path class="cls-2" d="m318.76,141.71c.55-1.62,1.53-2.5,2.45-3.34.34-.3.66-.61,1.02-.88,1.3-.89,2.66-1.6,4.03-2.24.61-.28,1.2-.61,1.82-.88.39-.18.8-.34,1.2-.49.41-.17.89-.11,1.34-.1.29.03.28.21.13.53-.07.16-.18.36-.3.57-.06.1-.13.22-.2.33-.03.06-.08.1-.11.16-.05.03-.09.06-.14.09-1.38.79-2.84,1.48-4.33,2.2-.91.42-1.66,1.14-2.4,1.78-.81.7-1.61,1.46-2.06,2.29-.08.13-.14.25-.17.37-.03.12-.12.26-.11.35-.05.18,0,.44.08.69.28.8.93,1.64,1.7,2.24.61.47,1.35.74,2.05.94.16.04.32.05.46.11.55.15.66.33.64,1.04,0,.16,0,.32-.01.48-.03.53-.43.91-1.04.86-1.79-.15-3.38-1.16-4.61-2.53-.46-.53-.88-1.11-1.2-1.84-.16-.36-.3-.77-.37-1.24-.02-.25-.07-.47-.04-.75.02-.27.05-.55.12-.73h.06Z"/></svg>